#N canvas 593 116 767 637 10;
#X obj 8 17 cnv 15 680 40 empty empty Generative_series 20 12 0 14
-233017 -66577 0;
#X obj 303 21 cnv 15 380 40 empty empty ABS:rr_udlra 20 20 0 24 -128992
-262144 0;
#X obj 30 534 rr_record~;
#X msg 193 508 rec01.wav;
#X text 309 550 You can record your performance. Put the name. It show
passing seconds while recording. Bang to reset.;
#X obj 30 94 tgl 15 0 empty empty empty 17 7 0 10 -262144 -1 -1 0 1
;
#X obj 142 375 rev1~;
#X floatatom 180 375 5 0 0 0 - - -;
#X floatatom 123 94 5 0 0 0 - - -;
#X floatatom 204 352 5 0 0 0 - - -;
#X text 309 460 1st toggle turn ON/OFF your Dsp. 2nd toggle visualize
the wave sound. Stereo spatialization and volume sliders.;
#X obj 30 335 *~ 0.25;
#X obj 29 424 rr_XOUTdac~;
#X obj 142 352 hip~ 1000;
#X obj 123 160 s dur;
#X text 308 94 Pulsa+ needs 3 arguments: 1st how many sec for pulse
duration \; 2nd how many subdivision in pulse \; 3rd how many beats
to repeat durations sequence. Put a value in 2nd inlet to generate
new sequence. 1st outlet for bangs series and 2nd outlet for duration
of every beat.;
#X obj 30 135 rr_pulsa+ 1 3 11;
#X obj 30 287 + 50;
#X floatatom 81 313 5 0 0 0 - - -;
#X obj 30 312 rr_fmr~;
#X obj 30 225 rr_udlra 5;
#X text 309 237 Udlra needs an argument (1-12 a range table) \; It
returns random Up \, Down \, Left \, Right moves on table.;
#X connect 3 0 2 2;
#X connect 5 0 16 0;
#X connect 6 0 12 1;
#X connect 7 0 6 1;
#X connect 8 0 16 1;
#X connect 9 0 13 1;
#X connect 11 0 12 0;
#X connect 11 0 13 0;
#X connect 11 0 12 1;
#X connect 12 0 2 0;
#X connect 12 1 2 1;
#X connect 13 0 6 0;
#X connect 16 0 20 0;
#X connect 16 1 14 0;
#X connect 17 0 19 0;
#X connect 18 0 19 1;
#X connect 19 0 11 0;
#X connect 20 0 17 0;
