#N canvas 262 133 887 612 10;
#X obj 48 29 inlet;
#X obj 48 209 t f f f f f f f f f f, f 63;
#X obj 517 15 inlet;
#X obj 48 232 * 1;
#X obj 48 52 mtof;
#X obj 48 255 osc~;
#X obj 48 278 *~;
#X obj 124 72 clip 0 1;
#X obj 124 125 pack 0 500;
#X obj 124 148 line;
#X obj 191 72 clip 0 1;
#X obj 191 125 pack 0 500;
#X obj 191 148 line;
#X obj 89 255 osc~;
#X obj 89 278 *~;
#X obj 131 255 osc~;
#X obj 131 278 *~;
#X obj 173 255 osc~;
#X obj 173 278 *~;
#X obj 214 255 osc~;
#X obj 214 278 *~;
#X obj 256 255 osc~;
#X obj 256 278 *~;
#X obj 298 255 osc~;
#X obj 298 278 *~;
#X obj 339 255 osc~;
#X obj 339 278 *~;
#X obj 381 255 osc~;
#X obj 381 278 *~;
#X obj 423 255 osc~;
#X obj 423 278 *~;
#X obj 259 72 clip 0 1;
#X obj 259 125 pack 0 500;
#X obj 259 148 line;
#X obj 327 72 clip 0 1;
#X obj 327 125 pack 0 500;
#X obj 327 148 line;
#X obj 394 72 clip 0 1;
#X obj 394 125 pack 0 500;
#X obj 394 148 line;
#X obj 462 72 clip 0 1;
#X obj 462 125 pack 0 500;
#X obj 462 148 line;
#X obj 530 72 clip 0 1;
#X obj 530 125 pack 0 500;
#X obj 530 148 line;
#X obj 597 72 clip 0 1;
#X obj 597 125 pack 0 500;
#X obj 597 148 line;
#X obj 665 72 clip 0 1;
#X obj 665 125 pack 0 500;
#X obj 665 148 line;
#X obj 733 72 clip 0 1;
#X obj 733 125 pack 0 500;
#X obj 733 148 line;
#X obj 89 232 * 2;
#X obj 131 232 * 3;
#X obj 173 232 * 4;
#X obj 214 232 * 5;
#X obj 256 232 * 6;
#X obj 298 232 * 7;
#X obj 339 232 * 8;
#X obj 381 232 * 9;
#X obj 423 232 * 10;
#X obj 690 258 hsl 50 15 0 100 0 0 empty empty empty -2 -8 0 10 -228856
-1 -1 2600 1;
#X obj 509 271 dbtorms;
#X floatatom 509 294 5 0 0 0 - - -;
#X obj 49 354 *~;
#X obj 509 315 pack 0 500;
#X obj 509 338 line;
#X obj 631 258 hsl 50 15 0 10000 0 0 empty empty empty -2 -8 0 10 -262144
-1 -1 600 1;
#X floatatom 722 16 5 0 0 0 - - -;
#X obj 48 445 outlet~;
#X obj 544 442 array define \$0-10over;
#X obj 517 467 array set \$0-10over;
#X obj 207 482 array get \$0-10over;
#X floatatom 207 458 5 0 0 0 - - -;
#X floatatom 207 505 5 0 0 0 - - -;
#X floatatom 124 95 5 0 0 0 - - -;
#X floatatom 191 95 5 0 0 0 - - -;
#X floatatom 259 95 5 0 0 0 - - -;
#X floatatom 327 95 5 0 0 0 - - -;
#X floatatom 394 95 5 0 0 0 - - -;
#X floatatom 462 95 5 0 0 0 - - -;
#X floatatom 530 95 5 0 0 0 - - -;
#X floatatom 597 95 5 0 0 0 - - -;
#X floatatom 665 95 5 0 0 0 - - -;
#X floatatom 733 95 5 0 0 0 - - -;
#X obj 725 239 bng 15 250 50 0 empty empty shift -34 7 0 10 -262144
-228856 -1;
#X obj 207 398 f;
#X obj 236 379 + 1;
#X obj 236 402 % 10;
#X obj 128 520 pack 0 0;
#X obj 128 473 + 0;
#X floatatom 143 450 5 0 0 0 - - -;
#X obj 128 497 % 10;
#X obj 124 50 route 0 1 2 3 4 5 6 7 8 9, f 113;
#X obj 143 406 bng 15 250 50 0 empty empty empty 17 7 0 10 -262144
-1 -1;
#X obj 143 426 f;
#X obj 172 407 + 1;
#X obj 172 430 % 10;
#X obj 143 380 sel 9;
#X obj 783 223 inlet;
#X obj 517 415 t a b;
#X obj 207 337 tgl 15 0 empty empty empty 17 7 0 10 -262144 -1 -1 0
1;
#X obj 207 357 metro 100;
#X connect 0 0 4 0;
#X connect 1 0 3 0;
#X connect 1 1 55 0;
#X connect 1 2 56 0;
#X connect 1 3 57 0;
#X connect 1 4 58 0;
#X connect 1 5 59 0;
#X connect 1 6 60 0;
#X connect 1 7 61 0;
#X connect 1 8 62 0;
#X connect 1 9 63 0;
#X connect 2 0 103 0;
#X connect 3 0 5 0;
#X connect 4 0 1 0;
#X connect 5 0 6 0;
#X connect 6 0 67 0;
#X connect 7 0 78 0;
#X connect 8 0 9 0;
#X connect 9 0 6 1;
#X connect 10 0 79 0;
#X connect 11 0 12 0;
#X connect 12 0 14 1;
#X connect 13 0 14 0;
#X connect 14 0 67 0;
#X connect 15 0 16 0;
#X connect 16 0 67 0;
#X connect 17 0 18 0;
#X connect 18 0 67 0;
#X connect 19 0 20 0;
#X connect 20 0 67 0;
#X connect 21 0 22 0;
#X connect 22 0 67 0;
#X connect 23 0 24 0;
#X connect 24 0 67 0;
#X connect 25 0 26 0;
#X connect 26 0 67 0;
#X connect 27 0 28 0;
#X connect 28 0 67 0;
#X connect 29 0 30 0;
#X connect 30 0 67 0;
#X connect 31 0 80 0;
#X connect 32 0 33 0;
#X connect 33 0 16 1;
#X connect 34 0 81 0;
#X connect 35 0 36 0;
#X connect 36 0 18 1;
#X connect 37 0 82 0;
#X connect 38 0 39 0;
#X connect 39 0 20 1;
#X connect 40 0 83 0;
#X connect 41 0 42 0;
#X connect 42 0 22 1;
#X connect 43 0 84 0;
#X connect 44 0 45 0;
#X connect 45 0 24 1;
#X connect 46 0 85 0;
#X connect 47 0 48 0;
#X connect 48 0 26 1;
#X connect 49 0 86 0;
#X connect 50 0 51 0;
#X connect 51 0 28 1;
#X connect 52 0 87 0;
#X connect 53 0 54 0;
#X connect 54 0 30 1;
#X connect 55 0 13 0;
#X connect 56 0 15 0;
#X connect 57 0 17 0;
#X connect 58 0 19 0;
#X connect 59 0 21 0;
#X connect 60 0 23 0;
#X connect 61 0 25 0;
#X connect 62 0 27 0;
#X connect 63 0 29 0;
#X connect 64 0 65 0;
#X connect 65 0 66 0;
#X connect 66 0 68 0;
#X connect 67 0 72 0;
#X connect 68 0 69 0;
#X connect 69 0 67 1;
#X connect 70 0 71 0;
#X connect 71 0 8 1;
#X connect 71 0 53 1;
#X connect 71 0 50 1;
#X connect 71 0 47 1;
#X connect 71 0 44 1;
#X connect 71 0 41 1;
#X connect 71 0 38 1;
#X connect 71 0 35 1;
#X connect 71 0 32 1;
#X connect 71 0 11 1;
#X connect 75 0 77 0;
#X connect 76 0 75 0;
#X connect 76 0 93 0;
#X connect 77 0 92 1;
#X connect 78 0 8 0;
#X connect 79 0 11 0;
#X connect 80 0 32 0;
#X connect 81 0 35 0;
#X connect 82 0 38 0;
#X connect 83 0 41 0;
#X connect 84 0 44 0;
#X connect 85 0 47 0;
#X connect 86 0 50 0;
#X connect 87 0 53 0;
#X connect 88 0 104 0;
#X connect 89 0 90 0;
#X connect 89 0 76 0;
#X connect 89 0 101 0;
#X connect 90 0 91 0;
#X connect 91 0 89 1;
#X connect 92 0 96 0;
#X connect 93 0 95 0;
#X connect 94 0 93 1;
#X connect 95 0 92 0;
#X connect 96 0 7 0;
#X connect 96 1 10 0;
#X connect 96 2 31 0;
#X connect 96 3 34 0;
#X connect 96 4 37 0;
#X connect 96 5 40 0;
#X connect 96 6 43 0;
#X connect 96 7 46 0;
#X connect 96 8 49 0;
#X connect 96 9 52 0;
#X connect 97 0 98 0;
#X connect 97 0 104 0;
#X connect 98 0 99 0;
#X connect 98 0 94 0;
#X connect 99 0 100 0;
#X connect 100 0 98 1;
#X connect 101 0 97 0;
#X connect 102 0 88 0;
#X connect 103 0 74 0;
#X connect 103 1 73 0;
#X connect 104 0 105 0;
#X connect 105 0 89 0;
#X coords 0 -1 1 1 130 50 1 620 230;
