#N canvas 217 258 843 470 10;
#X obj 68 21 inlet;
#X obj 68 88 bng 15 250 50 0 empty empty empty 17 7 0 10 -262144 -1
-1;
#X floatatom 89 88 5 0 0 1 tone - -;
#X obj 68 164 f 60;
#X obj 68 210 - 12;
#X floatatom 68 316 5 0 0 0 - - -;
#X obj 106 293 -;
#X floatatom 106 316 5 0 0 0 - - -;
#X obj 181 292 +;
#X floatatom 181 316 5 0 0 0 - - -;
#X obj 68 187 t f f b f b, f 26;
#X obj 144 214 random 100;
#X obj 144 237 moses 50;
#X msg 144 260 1;
#X msg 189 259 2;
#X obj 221 213 random 100;
#X obj 221 236 moses 50;
#X msg 221 259 3;
#X msg 266 258 4;
#X obj 107 21 inlet;
#X floatatom 189 88 5 0 0 0 %3m/M - -;
#X floatatom 189 109 5 0 0 0 %7m/M - -;
#X floatatom 89 109 5 0 0 1 seed - -;
#X msg 126 164 seed \$1;
#X obj 68 383 outlet;
#X obj 106 362 outlet;
#X obj 181 361 outlet;
#X connect 0 0 1 0;
#X connect 1 0 3 0;
#X connect 2 0 3 1;
#X connect 3 0 10 0;
#X connect 4 0 5 0;
#X connect 5 0 24 0;
#X connect 6 0 7 0;
#X connect 7 0 25 0;
#X connect 8 0 9 0;
#X connect 9 0 26 0;
#X connect 10 0 4 0;
#X connect 10 1 6 0;
#X connect 10 2 11 0;
#X connect 10 3 8 0;
#X connect 10 4 15 0;
#X connect 11 0 12 0;
#X connect 12 0 13 0;
#X connect 12 1 14 0;
#X connect 13 0 6 1;
#X connect 14 0 6 1;
#X connect 15 0 16 0;
#X connect 16 0 17 0;
#X connect 16 1 18 0;
#X connect 17 0 8 1;
#X connect 18 0 8 1;
#X connect 19 0 2 0;
#X connect 20 0 12 1;
#X connect 21 0 16 1;
#X connect 22 0 23 0;
#X connect 23 0 11 0;
#X connect 23 0 15 0;
#X coords 0 -1 1 1 170 80 1 60 55;
