#N canvas 160 284 450 436 10;
#X obj 48 117 expr if ($f1 < 400 \, 1 \, if ($f1 < 700 \, 2 \, if ($f1
< 850 \, 3 \, if ($f1 < 950 \, 4 \, if ($f1 < 980 \, 5 \, 6)))));
#X obj 48 92 random 1000;
#X obj 48 17 inlet;
#X obj 48 61 t b;
#X obj 48 324 t f f;
#X obj 48 239 spigot;
#X obj 107 178 expr -$f1;
#X obj 166 200 random 2;
#X obj 107 264 spigot;
#X obj 81 216 == 0;
#X obj 140 241 == 1;
#X obj 48 387 outlet;
#X obj 116 18 inlet;
#X msg 116 61 seed \$1;
#X obj 48 155 t f f b f, f 30;
#X obj 241 155 expr 7 - $f1;
#X obj 241 387 outlet;
#X obj 48 293 expr ($f1 + $f2) %7;
#X connect 0 0 14 0;
#X connect 1 0 0 0;
#X connect 2 0 3 0;
#X connect 3 0 1 0;
#X connect 4 0 11 0;
#X connect 4 1 17 1;
#X connect 5 0 17 0;
#X connect 6 0 8 0;
#X connect 7 0 9 0;
#X connect 7 0 10 0;
#X connect 8 0 17 0;
#X connect 9 0 5 1;
#X connect 10 0 8 1;
#X connect 12 0 13 0;
#X connect 13 0 1 0;
#X connect 13 0 7 0;
#X connect 14 0 5 0;
#X connect 14 1 6 0;
#X connect 14 2 7 0;
#X connect 14 3 15 0;
#X connect 15 0 16 0;
#X connect 17 0 4 0;
