#N canvas 395 116 662 652 10;
#X obj 194 219 random 100;
#X msg 212 194 seed \$1;
#X obj 251 284 expr $f2-$f1, f 8;
#X floatatom 251 323 5 0 0 0 - - -;
#X obj 212 171 t f b;
#X msg 250 173 100;
#X obj 194 268 t f f;
#X obj 194 320 t f b;
#X obj 176 525 list store, f 11;
#X obj 194 343 list prepend;
#X obj 194 148 until;
#X msg 277 207 0;
#X obj 194 294 + 0, f 5;
#X obj 176 597 spigot;
#X msg 1317 521 0;
#X msg 1301 580 1;
#X obj 194 40 inlet;
#X obj 194 78 t b f, f 79;
#X obj 1301 557 del 50;
#X obj 194 101 f 7;
#X obj 194 124 t f f f f f f f b, f 185;
#X obj 352 219 random 100;
#X msg 370 194 seed \$1;
#X obj 409 284 expr $f2-$f1, f 8;
#X floatatom 409 323 5 0 0 0 - - -;
#X obj 370 171 t f b;
#X msg 408 173 100;
#X obj 352 268 t f f;
#X obj 352 320 t f b;
#X obj 334 525 list store, f 11;
#X obj 352 343 list prepend;
#X obj 352 148 until;
#X msg 435 207 0;
#X obj 352 294 + 0, f 5;
#X obj 510 219 random 100;
#X msg 528 194 seed \$1;
#X obj 567 284 expr $f2-$f1, f 8;
#X floatatom 567 323 5 0 0 0 - - -;
#X obj 528 171 t f b;
#X msg 566 173 100;
#X obj 510 268 t f f;
#X obj 510 320 t f b;
#X obj 492 525 list store, f 11;
#X obj 510 343 list prepend;
#X obj 510 148 until;
#X msg 593 207 0;
#X obj 510 294 + 0, f 5;
#X obj 248 148 * 1;
#X obj 410 148 * 2;
#X obj 569 148 * 3;
#X obj 668 219 random 100;
#X msg 686 194 seed \$1;
#X obj 725 284 expr $f2-$f1, f 8;
#X floatatom 725 323 5 0 0 0 - - -;
#X obj 686 171 t f b;
#X msg 724 173 100;
#X obj 668 268 t f f;
#X obj 668 320 t f b;
#X obj 650 525 list store, f 11;
#X obj 668 343 list prepend;
#X obj 668 148 until;
#X msg 751 207 0;
#X obj 668 294 + 0, f 5;
#X obj 826 219 random 100;
#X msg 844 194 seed \$1;
#X obj 883 284 expr $f2-$f1, f 8;
#X floatatom 883 323 5 0 0 0 - - -;
#X obj 844 171 t f b;
#X msg 882 173 100;
#X obj 826 268 t f f;
#X obj 826 320 t f b;
#X obj 808 525 list store, f 11;
#X obj 826 343 list prepend;
#X obj 826 148 until;
#X msg 909 207 0;
#X obj 826 294 + 0, f 5;
#X obj 984 219 random 100;
#X msg 1002 194 seed \$1;
#X obj 1041 284 expr $f2-$f1, f 8;
#X floatatom 1041 323 5 0 0 0 - - -;
#X obj 1002 171 t f b;
#X msg 1040 173 100;
#X obj 984 268 t f f;
#X obj 984 320 t f b;
#X obj 966 525 list store, f 11;
#X obj 984 343 list prepend;
#X obj 984 148 until;
#X msg 1067 207 0;
#X obj 984 294 + 0, f 5;
#X obj 722 148 * 4;
#X obj 884 148 * 5;
#X obj 1043 148 * 6;
#X obj 1142 219 random 100;
#X msg 1160 194 seed \$1;
#X obj 1199 284 expr $f2-$f1, f 8;
#X floatatom 1199 323 5 0 0 0 - - -;
#X obj 1160 171 t f b;
#X msg 1198 173 100;
#X obj 1142 268 t f f;
#X obj 1142 320 t f b;
#X obj 1124 525 list store, f 11;
#X obj 1142 343 list prepend;
#X obj 1142 148 until;
#X msg 1225 207 0;
#X obj 1142 294 + 0, f 5;
#X obj 1201 148 * 7;
#X obj 42 40 inlet;
#X floatatom 176 477 5 0 0 0 - - -;
#X msg 176 499 get \$1 1;
#X obj 81 243 random 100;
#X obj 42 243 t b b;
#X obj 42 274 f 0;
#X obj 68 274 + 1;
#X obj 94 274 % 7;
#X obj 42 352 sel 0;
#X floatatom 42 329 5 0 0 0 - - -;
#X obj 69 379 t b b;
#X msg 109 379 0;
#X obj 69 409 f 0, f 5;
#X obj 42 306 >=, f 7;
#X obj 69 526 t f f, f 8;
#X obj 176 454 route 0 1 2 3 4 5 6, f 185;
#X floatatom 334 477 5 0 0 0 - - -;
#X msg 334 499 get \$1 1;
#X floatatom 492 477 5 0 0 0 - - -;
#X msg 492 499 get \$1 1;
#X floatatom 650 477 5 0 0 0 - - -;
#X msg 650 499 get \$1 1;
#X floatatom 808 477 5 0 0 0 - - -;
#X msg 808 499 get \$1 1;
#X floatatom 966 477 5 0 0 0 - - -;
#X msg 966 499 get \$1 1;
#X floatatom 1124 477 5 0 0 0 - - -;
#X msg 1124 499 get \$1 1;
#X obj 176 431 pack 0 0;
#X obj 176 409 f 0;
#X obj 176 386 t b f, f 8;
#X obj 17 377 del 10;
#X obj 69 595 outlet;
#X obj 352 242 expr int($f1/3)+1;
#X obj 510 242 expr int($f1/3)+1;
#X obj 668 242 expr int($f1/3)+1;
#X obj 826 242 expr int($f1/3)+1;
#X obj 984 242 expr int($f1/3)+1;
#X obj 1142 242 expr int($f1/3)+1;
#X obj 194 242 expr int($f1/4)+1;
#X connect 0 0 145 0;
#X connect 1 0 0 0;
#X connect 2 0 3 0;
#X connect 3 0 0 1;
#X connect 3 0 2 1;
#X connect 4 0 1 0;
#X connect 4 1 5 0;
#X connect 4 1 8 1;
#X connect 4 1 11 0;
#X connect 5 0 0 1;
#X connect 5 0 2 1;
#X connect 6 0 12 0;
#X connect 6 1 2 0;
#X connect 7 0 9 0;
#X connect 7 0 12 1;
#X connect 7 1 8 0;
#X connect 8 0 9 1;
#X connect 8 0 13 0;
#X connect 9 0 8 1;
#X connect 10 0 0 0;
#X connect 11 0 12 1;
#X connect 12 0 7 0;
#X connect 13 0 119 0;
#X connect 14 0 13 1;
#X connect 15 0 13 1;
#X connect 16 0 17 0;
#X connect 17 0 19 0;
#X connect 17 1 47 0;
#X connect 17 1 48 0;
#X connect 17 1 49 0;
#X connect 17 1 89 0;
#X connect 17 1 90 0;
#X connect 17 1 91 0;
#X connect 17 1 105 0;
#X connect 18 0 15 0;
#X connect 19 0 20 0;
#X connect 20 0 10 0;
#X connect 20 1 31 0;
#X connect 20 2 44 0;
#X connect 20 3 60 0;
#X connect 20 4 73 0;
#X connect 20 5 86 0;
#X connect 20 6 102 0;
#X connect 20 7 18 0;
#X connect 20 7 14 0;
#X connect 21 0 139 0;
#X connect 22 0 21 0;
#X connect 23 0 24 0;
#X connect 24 0 21 1;
#X connect 24 0 23 1;
#X connect 25 0 22 0;
#X connect 25 1 26 0;
#X connect 25 1 29 1;
#X connect 25 1 32 0;
#X connect 26 0 21 1;
#X connect 26 0 23 1;
#X connect 27 0 33 0;
#X connect 27 1 23 0;
#X connect 28 0 30 0;
#X connect 28 0 33 1;
#X connect 28 1 29 0;
#X connect 29 0 30 1;
#X connect 29 0 13 0;
#X connect 30 0 29 1;
#X connect 31 0 21 0;
#X connect 32 0 33 1;
#X connect 33 0 28 0;
#X connect 34 0 140 0;
#X connect 35 0 34 0;
#X connect 36 0 37 0;
#X connect 37 0 34 1;
#X connect 37 0 36 1;
#X connect 38 0 35 0;
#X connect 38 1 39 0;
#X connect 38 1 42 1;
#X connect 38 1 45 0;
#X connect 39 0 34 1;
#X connect 39 0 36 1;
#X connect 40 0 46 0;
#X connect 40 1 36 0;
#X connect 41 0 43 0;
#X connect 41 0 46 1;
#X connect 41 1 42 0;
#X connect 42 0 43 1;
#X connect 42 0 13 0;
#X connect 43 0 42 1;
#X connect 44 0 34 0;
#X connect 45 0 46 1;
#X connect 46 0 41 0;
#X connect 47 0 4 0;
#X connect 48 0 25 0;
#X connect 49 0 38 0;
#X connect 50 0 141 0;
#X connect 51 0 50 0;
#X connect 52 0 53 0;
#X connect 53 0 50 1;
#X connect 53 0 52 1;
#X connect 54 0 51 0;
#X connect 54 1 55 0;
#X connect 54 1 58 1;
#X connect 54 1 61 0;
#X connect 55 0 50 1;
#X connect 55 0 52 1;
#X connect 56 0 62 0;
#X connect 56 1 52 0;
#X connect 57 0 59 0;
#X connect 57 0 62 1;
#X connect 57 1 58 0;
#X connect 58 0 59 1;
#X connect 58 0 13 0;
#X connect 59 0 58 1;
#X connect 60 0 50 0;
#X connect 61 0 62 1;
#X connect 62 0 57 0;
#X connect 63 0 142 0;
#X connect 64 0 63 0;
#X connect 65 0 66 0;
#X connect 66 0 63 1;
#X connect 66 0 65 1;
#X connect 67 0 64 0;
#X connect 67 1 68 0;
#X connect 67 1 71 1;
#X connect 67 1 74 0;
#X connect 68 0 63 1;
#X connect 68 0 65 1;
#X connect 69 0 75 0;
#X connect 69 1 65 0;
#X connect 70 0 72 0;
#X connect 70 0 75 1;
#X connect 70 1 71 0;
#X connect 71 0 72 1;
#X connect 71 0 13 0;
#X connect 72 0 71 1;
#X connect 73 0 63 0;
#X connect 74 0 75 1;
#X connect 75 0 70 0;
#X connect 76 0 143 0;
#X connect 77 0 76 0;
#X connect 78 0 79 0;
#X connect 79 0 76 1;
#X connect 79 0 78 1;
#X connect 80 0 77 0;
#X connect 80 1 81 0;
#X connect 80 1 84 1;
#X connect 80 1 87 0;
#X connect 81 0 76 1;
#X connect 81 0 78 1;
#X connect 82 0 88 0;
#X connect 82 1 78 0;
#X connect 83 0 85 0;
#X connect 83 0 88 1;
#X connect 83 1 84 0;
#X connect 84 0 85 1;
#X connect 84 0 13 0;
#X connect 85 0 84 1;
#X connect 86 0 76 0;
#X connect 87 0 88 1;
#X connect 88 0 83 0;
#X connect 89 0 54 0;
#X connect 90 0 67 0;
#X connect 91 0 80 0;
#X connect 92 0 144 0;
#X connect 93 0 92 0;
#X connect 94 0 95 0;
#X connect 95 0 92 1;
#X connect 95 0 94 1;
#X connect 96 0 93 0;
#X connect 96 1 97 0;
#X connect 96 1 100 1;
#X connect 96 1 103 0;
#X connect 97 0 92 1;
#X connect 97 0 94 1;
#X connect 98 0 104 0;
#X connect 98 1 94 0;
#X connect 99 0 101 0;
#X connect 99 0 104 1;
#X connect 99 1 100 0;
#X connect 100 0 101 1;
#X connect 100 0 13 0;
#X connect 101 0 100 1;
#X connect 102 0 92 0;
#X connect 103 0 104 1;
#X connect 104 0 99 0;
#X connect 105 0 96 0;
#X connect 106 0 110 0;
#X connect 107 0 108 0;
#X connect 107 0 118 1;
#X connect 108 0 8 0;
#X connect 109 0 119 1;
#X connect 110 0 111 0;
#X connect 110 1 109 0;
#X connect 111 0 112 0;
#X connect 111 0 136 0;
#X connect 112 0 113 0;
#X connect 113 0 111 1;
#X connect 114 0 137 0;
#X connect 114 1 116 0;
#X connect 115 0 114 0;
#X connect 116 0 118 0;
#X connect 116 1 117 0;
#X connect 117 0 111 1;
#X connect 118 0 120 0;
#X connect 119 0 115 0;
#X connect 120 0 138 0;
#X connect 120 1 135 1;
#X connect 121 0 107 0;
#X connect 121 1 122 0;
#X connect 121 2 124 0;
#X connect 121 3 126 0;
#X connect 121 4 128 0;
#X connect 121 5 130 0;
#X connect 121 6 132 0;
#X connect 122 0 123 0;
#X connect 122 0 118 1;
#X connect 123 0 29 0;
#X connect 124 0 125 0;
#X connect 124 0 118 1;
#X connect 125 0 42 0;
#X connect 126 0 127 0;
#X connect 126 0 118 1;
#X connect 127 0 58 0;
#X connect 128 0 129 0;
#X connect 128 0 118 1;
#X connect 129 0 71 0;
#X connect 130 0 131 0;
#X connect 130 0 118 1;
#X connect 131 0 84 0;
#X connect 132 0 133 0;
#X connect 132 0 118 1;
#X connect 133 0 100 0;
#X connect 134 0 121 0;
#X connect 135 0 134 0;
#X connect 136 0 135 0;
#X connect 136 1 134 1;
#X connect 137 0 110 0;
#X connect 139 0 27 0;
#X connect 140 0 40 0;
#X connect 141 0 56 0;
#X connect 142 0 69 0;
#X connect 143 0 82 0;
#X connect 144 0 98 0;
#X connect 145 0 6 0;
