#N canvas 365 231 794 456 10;
#X obj 95 274 list store;
#X msg 95 250 get \$1 1;
#X obj 95 227 % 7;
#X obj 95 148 t f f;
#X obj 122 172 div 7;
#X obj 122 195 * 12;
#X obj 95 297 + 0, f 5;
#X obj 180 156 list length;
#X obj 95 124 clip 1 127;
#X obj 95 48 inlet;
#X obj 153 48 inlet;
#X obj 153 71 t a a;
#X obj 95 359 outlet;
#X connect 0 0 6 0;
#X connect 1 0 0 0;
#X connect 2 0 1 0;
#X connect 3 0 2 0;
#X connect 3 1 4 0;
#X connect 4 0 5 0;
#X connect 5 0 6 1;
#X connect 6 0 12 0;
#X connect 7 0 4 1;
#X connect 7 0 2 1;
#X connect 8 0 3 0;
#X connect 9 0 8 0;
#X connect 10 0 11 0;
#X connect 11 0 0 1;
#X connect 11 1 7 0;
