#N canvas 44 178 532 451 10;
#X obj 49 32 inlet;
#X obj 49 165 t f f f, f 25;
#X obj 122 311 outlet;
#X obj 64 140 unpack 0 0 0, f 25;
#X obj 240 32 inlet;
#X obj 49 188 + 0;
#X obj 122 188 + 0;
#X obj 196 188 + 0;
#X msg 240 124 -14 -8 -5;
#X msg 255 146 -12 -9 -3;
#X msg 270 169 -10 -6 -4;
#X msg 285 192 -11 -5 -2;
#X msg 300 215 -9 -5 -3;
#X msg 315 238 -13 -9 -4;
#X msg 331 261 -15 -11 -6;
#X obj 240 77 clip 0 6;
#X obj 240 100 sel 0 1 2 3 4 5 6, f 18;
#X connect 0 0 1 0;
#X connect 1 0 5 0;
#X connect 1 1 6 0;
#X connect 1 2 7 0;
#X connect 3 0 5 1;
#X connect 3 1 6 1;
#X connect 3 2 7 1;
#X connect 4 0 15 0;
#X connect 5 0 2 0;
#X connect 6 0 2 0;
#X connect 7 0 2 0;
#X connect 8 0 3 0;
#X connect 9 0 3 0;
#X connect 10 0 3 0;
#X connect 11 0 3 0;
#X connect 12 0 3 0;
#X connect 13 0 3 0;
#X connect 14 0 3 0;
#X connect 15 0 16 0;
#X connect 16 0 8 0;
#X connect 16 1 9 0;
#X connect 16 2 10 0;
#X connect 16 3 11 0;
#X connect 16 4 12 0;
#X connect 16 5 13 0;
#X connect 16 6 14 0;
