#N canvas 385 209 450 300 10;
#X obj 73 28 inlet;
#X obj 73 64 f 0;
#X obj 99 64 + 1;
#X obj 125 64 % \$1;
#X obj 73 204 outlet;
#X obj 110 110 random 2;
#X obj 110 133 sel 0, f 8;
#X msg 73 157 1;
#X obj 73 87 sel 0 1, f 13;
#X msg 155 157 0.75;
#X msg 110 157 0.85;
#X connect 0 0 1 0;
#X connect 1 0 2 0;
#X connect 1 0 8 0;
#X connect 2 0 3 0;
#X connect 3 0 1 1;
#X connect 5 0 6 0;
#X connect 6 0 10 0;
#X connect 6 1 9 0;
#X connect 7 0 4 0;
#X connect 8 0 7 0;
#X connect 8 1 5 0;
#X connect 9 0 4 0;
#X connect 10 0 4 0;
