#N canvas 151 259 726 455 10;
#X obj 199 145 f 0;
#X obj 225 145 + 1;
#X obj 251 145 % 4;
#X floatatom 131 226 5 0 0 0 - - -;
#X obj 131 129 t b f b;
#X obj 131 248 expr floor($f1/$f2);
#X obj 302 124 loadbang;
#X obj 131 311 outlet;
#X obj 131 84 f \$1, f 5;
#X obj 131 271 t f f;
#X obj 131 14 inlet;
#X obj 131 58 bang;
#X obj 282 73 f \$2, f 5;
#X obj 282 14 inlet;
#X obj 282 48 t b f;
#X obj 260 232 / 2;
#X obj 131 106 % \$3;
#X obj 282 96 clip 2 10;
#X obj 302 149 array define -yrange 0 12 \$0-data;
#X obj 282 172 array size \$0-data;
#X obj 150 173 array set \$0-data;
#X obj 131 202 array sum \$0-data 0 -1;
#X connect 0 0 1 0;
#X connect 0 0 20 1;
#X connect 1 0 2 0;
#X connect 2 0 0 1;
#X connect 3 0 5 0;
#X connect 4 0 21 0;
#X connect 4 1 20 0;
#X connect 4 2 0 0;
#X connect 5 0 9 0;
#X connect 6 0 12 0;
#X connect 6 0 18 0;
#X connect 8 0 16 0;
#X connect 9 0 7 0;
#X connect 9 1 8 1;
#X connect 10 0 11 0;
#X connect 11 0 8 0;
#X connect 12 0 17 0;
#X connect 13 0 14 0;
#X connect 14 0 12 0;
#X connect 14 1 12 1;
#X connect 15 0 5 1;
#X connect 16 0 4 0;
#X connect 17 0 2 1;
#X connect 17 0 15 0;
#X connect 17 0 19 0;
#X connect 21 0 3 0;
