#N canvas 379 226 449 473 10;
#X obj 90 225 f 0;
#X obj 116 225 + 1;
#X obj 90 248 + 0;
#X obj 183 117 sel 0 1 2;
#X obj 75 355 i 0;
#X obj 90 156 t b b, f 7;
#X obj 131 179 random 3;
#X obj 131 202 - 1;
#X obj 200 225 f 0;
#X obj 226 225 + 1;
#X obj 185 355 i 0;
#X obj 200 156 t b b, f 7;
#X obj 241 179 random 3;
#X obj 241 202 - 1;
#X obj 310 225 f 0;
#X obj 336 225 + 1;
#X obj 295 355 i 0;
#X obj 310 156 t b b, f 7;
#X obj 351 179 random 3;
#X obj 351 202 - 1;
#X obj 183 94 random 3;
#X obj 311 21 inlet;
#X msg 311 78 seed \$1;
#X obj 75 21 inlet;
#X obj 75 64 t b;
#X obj 183 21 inlet;
#X obj 183 64 t b;
#X obj 185 422 outlet;
#X obj 142 225 % \$1;
#X obj 252 225 % \$1;
#X obj 362 225 % \$1;
#X obj 200 248 + \$2;
#X obj 310 248 + \$3;
#X obj 109 321 del \$4;
#X obj 221 305 del \$4;
#X obj 295 290 del \$4;
#X obj 185 274 del \$4;
#X connect 0 0 1 0;
#X connect 0 0 2 0;
#X connect 1 0 28 0;
#X connect 2 0 4 1;
#X connect 3 0 5 0;
#X connect 3 1 11 0;
#X connect 3 2 17 0;
#X connect 4 0 27 0;
#X connect 5 0 0 0;
#X connect 5 1 6 0;
#X connect 6 0 7 0;
#X connect 7 0 1 1;
#X connect 8 0 9 0;
#X connect 8 0 31 0;
#X connect 9 0 29 0;
#X connect 10 0 27 0;
#X connect 11 0 8 0;
#X connect 11 1 12 0;
#X connect 12 0 13 0;
#X connect 13 0 9 1;
#X connect 14 0 15 0;
#X connect 14 0 32 0;
#X connect 15 0 30 0;
#X connect 16 0 27 0;
#X connect 17 0 14 0;
#X connect 17 1 18 0;
#X connect 18 0 19 0;
#X connect 19 0 15 1;
#X connect 20 0 3 0;
#X connect 21 0 22 0;
#X connect 22 0 12 0;
#X connect 22 0 18 0;
#X connect 22 0 6 0;
#X connect 22 0 20 0;
#X connect 23 0 24 0;
#X connect 24 0 4 0;
#X connect 24 0 36 0;
#X connect 25 0 26 0;
#X connect 26 0 20 0;
#X connect 28 0 0 1;
#X connect 29 0 8 1;
#X connect 30 0 14 1;
#X connect 31 0 10 1;
#X connect 32 0 16 1;
#X connect 33 0 4 0;
#X connect 34 0 10 0;
#X connect 34 0 33 0;
#X connect 35 0 16 0;
#X connect 35 0 34 0;
#X connect 36 0 10 0;
#X connect 36 0 35 0;
