#N canvas 394 160 897 520 10;
#X obj 269 131 expr $f1*1.6180 \; $f1 \; $f1+($f1*1.6180), f 55;
#X floatatom 269 94 5 0 0 0 - - -;
#X obj 320 288 vline~;
#X obj 270 326 *~;
#X obj 320 311 *~;
#X obj 476 287 vline~;
#X obj 433 325 *~;
#X obj 476 241 * 10;
#X msg 476 264 1 \$1 \, 0 3000 \$1;
#X obj 476 310 *~;
#X obj 596 241 osc~;
#X obj 640 287 vline~;
#X obj 597 325 *~;
#X obj 640 241 * 10;
#X obj 640 310 *~;
#X floatatom 269 184 5 0 0 1 Phi(aprox) - -;
#X floatatom 432 184 5 0 0 1 - - -;
#X floatatom 596 184 5 0 0 0 - - -;
#X obj 320 242 *;
#X obj 508 223 / 20;
#X msg 640 264 0.6 \$1 \, 0 3000 \$1;
#X obj 675 225 / 30;
#X obj 347 226 / 25;
#X obj 270 390 *~;
#X obj 370 401 osc~;
#X obj 370 378 / 100;
#X obj 269 242 phasor~;
#X text 403 401 LFO;
#X obj 432 241 osc~;
#X obj 271 448 outlet~;
#X obj 242 12 inlet;
#X obj 242 35 t b f;
#X obj 248 94 bng 15 250 50 0 empty empty empty 17 7 0 10 -262144 -1
-1;
#X floatatom 308 94 5 0 0 1 Phi(aprox) - -;
#X obj 452 447 outlet;
#X msg 320 265 0.5 \$1 \, 0 3000 \$1;
#X obj 270 367 *~ 0.2;
#X connect 0 0 15 0;
#X connect 0 1 16 0;
#X connect 0 2 17 0;
#X connect 1 0 0 0;
#X connect 2 0 4 0;
#X connect 2 0 4 1;
#X connect 3 0 36 0;
#X connect 4 0 3 1;
#X connect 5 0 9 0;
#X connect 5 0 9 1;
#X connect 6 0 36 0;
#X connect 7 0 8 0;
#X connect 8 0 5 0;
#X connect 9 0 6 1;
#X connect 10 0 12 0;
#X connect 11 0 14 0;
#X connect 11 0 14 1;
#X connect 12 0 36 0;
#X connect 13 0 20 0;
#X connect 14 0 12 1;
#X connect 15 0 18 0;
#X connect 15 0 26 0;
#X connect 15 0 22 0;
#X connect 15 0 19 0;
#X connect 15 0 21 0;
#X connect 15 0 25 0;
#X connect 15 0 33 0;
#X connect 15 0 34 0;
#X connect 16 0 7 0;
#X connect 16 0 28 0;
#X connect 17 0 13 0;
#X connect 17 0 10 0;
#X connect 18 0 35 0;
#X connect 19 0 7 1;
#X connect 20 0 11 0;
#X connect 21 0 13 1;
#X connect 22 0 18 1;
#X connect 23 0 29 0;
#X connect 24 0 23 1;
#X connect 25 0 24 0;
#X connect 26 0 3 0;
#X connect 28 0 6 0;
#X connect 30 0 31 0;
#X connect 31 0 32 0;
#X connect 31 1 1 0;
#X connect 35 0 2 0;
#X connect 36 0 23 0;
#X coords 0 -1 1 1 165 50 1 240 70;
