#N canvas 663 116 697 621 10;
#X obj 66 30 inlet;
#X obj 66 123 f 0;
#X obj 92 123 + 1;
#X obj 118 123 % 2;
#X obj 81 75 r sync;
#X msg 81 98 0;
#X obj 174 30 inlet;
#X obj 174 75 t l l;
#X obj 174 107 list length;
#X obj 66 192 list store, f 23;
#X obj 66 146 t f f;
#X obj 107 146 sel 0;
#X msg 66 169 get \$1 1;
#X obj 263 30 inlet;
#X obj 263 75 t l l;
#X obj 263 197 list length;
#X obj 107 215 f 0;
#X obj 133 215 + 1;
#X obj 159 215 % 2;
#X obj 107 261 list store, f 31;
#X msg 107 238 get \$1 1;
#X obj 66 277 +;
#X obj 66 398 outlet;
#X obj 66 300 % 14, f 46;
#X obj 339 30 inlet;
#X obj 107 424 outlet;
#X connect 0 0 1 0;
#X connect 1 0 2 0;
#X connect 1 0 10 0;
#X connect 2 0 3 0;
#X connect 3 0 1 1;
#X connect 4 0 5 0;
#X connect 5 0 1 1;
#X connect 5 0 16 1;
#X connect 6 0 7 0;
#X connect 7 0 8 0;
#X connect 7 1 9 1;
#X connect 8 0 3 1;
#X connect 9 0 21 0;
#X connect 10 0 12 0;
#X connect 10 1 11 0;
#X connect 11 0 16 0;
#X connect 12 0 9 0;
#X connect 13 0 14 0;
#X connect 14 0 15 0;
#X connect 14 1 19 1;
#X connect 15 0 18 1;
#X connect 16 0 17 0;
#X connect 16 0 20 0;
#X connect 17 0 18 0;
#X connect 18 0 16 1;
#X connect 19 0 21 1;
#X connect 19 0 25 0;
#X connect 20 0 19 0;
#X connect 21 0 23 0;
#X connect 23 0 22 0;
#X connect 24 0 23 1;
