#N canvas 6 116 963 583 10;
#X obj 95 46 inlet;
#X msg 95 155 get \$1 1;
#X obj 95 178 list store, f 12;
#X msg 164 156 0 6 3 9;
#X obj 95 281 + 0;
#X obj 95 109 f 0;
#X obj 121 109 + 1;
#X obj 147 109 % 4;
#X obj 95 132 t f b, f 24;
#X obj 236 156 random 4;
#X obj 236 179 sel 0 1 2 3, f 20;
#X msg 236 220 0;
#X msg 294 220 4;
#X msg 323 220 5;
#X obj 164 46 loadbang;
#X obj 95 338 outlet;
#X connect 0 0 5 0;
#X connect 1 0 2 0;
#X connect 2 0 4 0;
#X connect 3 0 2 1;
#X connect 4 0 15 0;
#X connect 5 0 6 0;
#X connect 5 0 8 0;
#X connect 6 0 7 0;
#X connect 7 0 5 1;
#X connect 8 0 1 0;
#X connect 8 1 9 0;
#X connect 9 0 10 0;
#X connect 10 0 11 0;
#X connect 10 1 11 0;
#X connect 10 2 12 0;
#X connect 10 3 13 0;
#X connect 11 0 4 1;
#X connect 12 0 4 1;
#X connect 13 0 4 1;
#X connect 14 0 3 0;
