#N canvas 299 173 603 456 10;
#X obj 177 53 t b b;
#X floatatom 285 335 5 0 0 0 - - -;
#X obj 464 198 + 1;
#X obj 285 199 - 1;
#X obj 285 222 + 12;
#X obj 285 245 % 12;
#X obj 464 222 + 12;
#X obj 464 245 % 12;
#X obj 107 174 t b f f, f 60;
#X obj 107 149 % 12;
#X obj 285 364 array set var;
#X obj 107 269 expr var[$f2] \; if((var[$f2] + var[$f3] %2 == 0) \,
var[$f2] + var[$f3] \, var[$f2] - var[$f3]) %12 \; var[$f3], f 60
;
#X obj 107 103 f 0;
#X obj 107 126 + 1;
#X obj 107 28 inlet;
#X obj 107 79 t b;
#X obj 177 29 loadbang;
#X obj 177 128 array set var;
#X obj 204 79 array define var 12;
#X obj 104 350 outlet;
#X msg 177 105 0 7 1 8 2 9 3 10 4 11 5 6;
#X connect 0 0 20 0;
#X connect 0 1 18 0;
#X connect 1 0 10 0;
#X connect 1 0 19 0;
#X connect 2 0 6 0;
#X connect 3 0 4 0;
#X connect 4 0 5 0;
#X connect 5 0 11 1;
#X connect 6 0 7 0;
#X connect 7 0 11 2;
#X connect 8 0 11 0;
#X connect 8 1 3 0;
#X connect 8 2 2 0;
#X connect 9 0 8 0;
#X connect 9 0 12 1;
#X connect 9 0 10 1;
#X connect 11 1 1 0;
#X connect 12 0 13 0;
#X connect 13 0 9 0;
#X connect 14 0 15 0;
#X connect 15 0 12 0;
#X connect 16 0 0 0;
#X connect 20 0 17 0;
