#N canvas 722 160 638 490 10;
#X obj 69 422 f 0;
#X obj 98 422 + 1;
#X obj 127 422 % 8, f 39;
#X msg 295 148 0;
#X obj 69 445 * 7, f 56;
#X obj 69 470 % 12, f 64;
#X obj 69 164 f 0;
#X obj 69 187 div 1, f 10;
#X obj 69 210 change -1;
#X obj 69 233 t b f, f 7;
#X obj 69 353 random 100;
#X obj 69 376 < 100, f 25;
#X obj 106 256 % 8, f 11;
#X obj 106 279 sel 0;
#X msg 106 325 seed \$1;
#X obj 69 399 sel 1;
#X obj 295 53 r sync;
#X obj 69 570 outlet;
#X obj 69 19 inlet;
#X obj 69 78 t b b b, f 34;
#X obj 126 119 i \$1;
#X obj 147 19 inlet;
#X obj 190 19 inlet;
#X obj 169 119 i \$2;
#X obj 511 19 inlet;
#X obj 237 19 inlet;
#X obj 216 119 i \$3;
#X obj 216 142 clip 0 100;
#X obj 379 19 inlet;
#X obj 358 249 i \$4;
#X obj 423 19 inlet;
#X obj 471 19 inlet;
#X obj 450 249 i \$6;
#X obj 402 249 f \$5;
#X obj 402 272 clip 0.25 25;
#X obj 450 327 clip 1 96;
#X obj 106 302 i 0, f 68;
#X obj 249 341 random 20;
#X obj 249 280 del 20;
#X obj 249 256 t b;
#X obj 96 164 + 1;
#X connect 0 0 1 0;
#X connect 0 0 4 0;
#X connect 1 0 2 0;
#X connect 2 0 0 1;
#X connect 3 0 0 1;
#X connect 3 0 6 1;
#X connect 4 0 5 0;
#X connect 5 0 17 0;
#X connect 6 0 7 0;
#X connect 6 0 40 0;
#X connect 7 0 8 0;
#X connect 8 0 9 0;
#X connect 9 0 10 0;
#X connect 9 1 12 0;
#X connect 10 0 11 0;
#X connect 11 0 15 0;
#X connect 12 0 13 0;
#X connect 13 0 36 0;
#X connect 14 0 10 0;
#X connect 14 0 37 0;
#X connect 15 0 0 0;
#X connect 16 0 3 0;
#X connect 18 0 19 0;
#X connect 19 0 6 0;
#X connect 19 1 20 0;
#X connect 19 1 26 0;
#X connect 19 1 23 0;
#X connect 19 2 29 0;
#X connect 19 2 32 0;
#X connect 19 2 33 0;
#X connect 20 0 7 1;
#X connect 21 0 20 1;
#X connect 22 0 23 1;
#X connect 23 0 12 1;
#X connect 24 0 36 1;
#X connect 24 0 39 0;
#X connect 25 0 26 1;
#X connect 26 0 27 0;
#X connect 27 0 11 1;
#X connect 28 0 29 1;
#X connect 29 0 2 1;
#X connect 30 0 33 1;
#X connect 31 0 32 1;
#X connect 32 0 35 0;
#X connect 33 0 34 0;
#X connect 34 0 4 1;
#X connect 35 0 5 1;
#X connect 36 0 14 0;
#X connect 37 0 1 1;
#X connect 38 0 37 0;
#X connect 39 0 38 0;
#X connect 40 0 6 1;
