#N canvas 627 137 751 640 10;
#X obj 37 442 sel symbol, f 17;
#X obj 37 465 bng 15 250 50 0 empty empty empty 17 7 0 10 -262144 -1
-1;
#X obj 136 465 bng 15 250 50 0 empty empty empty 17 7 0 10 -262144
-1 -1;
#X obj 198 426 list tosymbol;
#X obj 198 404 fudiformat -u;
#X obj 37 420 list tosymbol;
#X obj 37 398 fudiformat -u;
#X obj 37 350 list store;
#X obj 37 223 f;
#X obj 68 223 + 1;
#X obj 68 260 % 1;
#X floatatom 37 281 5 0 0 0 - - -;
#X msg 37 326 get \$1 1;
#X obj 37 373 list trim;
#X obj 112 222 list length;
#X floatatom 112 245 5 0 0 0 - - -;
#X obj 48 487 f;
#X obj 37 303 t f f;
#X floatatom 37 114 3 0 0 1 pos - -;
#X obj 198 350 list store;
#X obj 198 223 f;
#X obj 229 223 + 1;
#X obj 229 260 % 1;
#X floatatom 198 281 5 0 0 0 - - -;
#X msg 198 326 get \$1 1;
#X obj 198 373 list trim;
#X obj 282 222 list length;
#X floatatom 282 245 5 0 0 0 - - -;
#X symbolatom 37 93 2 0 0 1 letter - -;
#X obj 37 73 bng 15 250 50 0 empty empty trg 17 7 0 10 -262144 -1 -1
;
#X obj 94 151 loadbang;
#X obj 37 7 inlet;
#X obj 255 7 inlet;
#X floatatom 99 73 3 0 0 1 tone - -;
#X obj 87 533 t f f;
#X obj 87 556 + 0;
#X obj 87 601 outlet;
#X obj 174 549 * 1;
#X obj 174 601 outlet;
#X obj 48 510 moses 1;
#X floatatom 99 114 5 0 0 1 ms - -;
#X obj 48 553 f;
#X obj 162 491 t f f;
#X obj 189 513 / 10;
#X obj 24 173 t b b;
#X obj 255 196 t a a;
#X obj 48 533 bng 15 250 50 0 empty empty empty 17 7 0 10 -262144 -1
-1;
#X obj 162 514 * 2;
#X msg 94 173 - a b c d e f g h i j k l m n o p q r s t u v w x y z
;
#X connect 0 0 1 0;
#X connect 0 1 2 0;
#X connect 1 0 16 0;
#X connect 2 0 8 0;
#X connect 3 0 0 1;
#X connect 3 0 28 0;
#X connect 4 0 3 0;
#X connect 5 0 0 0;
#X connect 6 0 5 0;
#X connect 7 0 13 0;
#X connect 8 0 9 0;
#X connect 8 0 11 0;
#X connect 9 0 10 0;
#X connect 10 0 8 1;
#X connect 11 0 17 0;
#X connect 12 0 7 0;
#X connect 13 0 6 0;
#X connect 14 0 15 0;
#X connect 15 0 10 1;
#X connect 16 0 18 0;
#X connect 16 0 39 0;
#X connect 17 0 12 0;
#X connect 17 1 16 1;
#X connect 19 0 25 0;
#X connect 20 0 21 0;
#X connect 20 0 23 0;
#X connect 21 0 22 0;
#X connect 22 0 20 1;
#X connect 23 0 24 0;
#X connect 24 0 19 0;
#X connect 25 0 4 0;
#X connect 26 0 27 0;
#X connect 27 0 22 1;
#X connect 29 0 44 0;
#X connect 30 0 48 0;
#X connect 31 0 29 0;
#X connect 32 0 45 0;
#X connect 33 0 35 1;
#X connect 34 0 35 0;
#X connect 34 1 37 0;
#X connect 35 0 36 0;
#X connect 37 0 38 0;
#X connect 39 0 46 0;
#X connect 39 1 34 0;
#X connect 40 0 42 0;
#X connect 41 0 38 0;
#X connect 42 0 47 0;
#X connect 42 1 43 0;
#X connect 43 0 37 1;
#X connect 44 0 8 0;
#X connect 44 1 20 0;
#X connect 45 0 19 1;
#X connect 45 1 26 0;
#X connect 46 0 41 0;
#X connect 47 0 41 1;
#X connect 48 0 7 1;
#X connect 48 0 14 0;
#X coords 0 -1 1 1 120 100 1 30 40;
