#N canvas 374 136 662 589 10;
#X obj 175 19 inlet;
#X obj 175 252 metro;
#X floatatom 202 230 5 0 0 0 - - -;
#X obj 202 207 expr ((60*1000)/$f1)/$f2;
#X obj 316 169 t b f;
#X obj 175 101 clip 0 1;
#X obj 202 185 i \$1;
#X obj 175 275 t b b;
#X obj 202 299 f 0;
#X obj 228 299 + 1;
#X obj 202 322 sel 0, f 7;
#X msg 202 350 1;
#X obj 254 299 % 2;
#X obj 270 101 clip 2 36;
#X obj 270 78 i \$2;
#X obj 316 123 / 4;
#X obj 316 146 clip 0.25 16;
#X obj 317 78 i \$3;
#X obj 72 223 f 0;
#X obj 72 246 t b f, f 12;
#X obj 72 292 + 1;
#X obj 72 315 expr $f2/$f1;
#X obj 45 350 metro;
#X msg 105 195 seed \$1;
#X obj 395 19 inlet;
#X obj 302 291 f 0;
#X obj 328 291 + 1;
#X obj 302 314 sel 0, f 7;
#X obj 354 291 % \$4;
#X obj 302 337 f 0, f 16;
#X obj 45 478 outlet;
#X obj 202 478 outlet;
#X obj 270 19 loadbang;
#X obj 317 243 r sync;
#X msg 317 266 0;
#X obj 72 269 random 5;
#X obj 107 352 random 100;
#X obj 107 375 < \$5, f 5;
#X obj 45 391 spigot;
#X msg 241 350 0;
#X obj 126 478 outlet;
#X connect 0 0 5 0;
#X connect 1 0 7 0;
#X connect 2 0 1 1;
#X connect 3 0 2 0;
#X connect 3 0 18 1;
#X connect 4 0 6 0;
#X connect 4 1 3 1;
#X connect 5 0 1 0;
#X connect 5 0 22 0;
#X connect 6 0 3 0;
#X connect 7 0 18 0;
#X connect 7 1 8 0;
#X connect 7 1 25 0;
#X connect 8 0 9 0;
#X connect 8 0 10 0;
#X connect 9 0 12 0;
#X connect 10 0 11 0;
#X connect 10 1 39 0;
#X connect 11 0 31 0;
#X connect 12 0 8 1;
#X connect 13 0 12 1;
#X connect 14 0 13 0;
#X connect 15 0 16 0;
#X connect 16 0 4 0;
#X connect 17 0 15 0;
#X connect 18 0 19 0;
#X connect 19 0 35 0;
#X connect 19 0 36 0;
#X connect 19 1 21 1;
#X connect 20 0 21 0;
#X connect 21 0 22 1;
#X connect 21 0 40 0;
#X connect 22 0 38 0;
#X connect 23 0 35 0;
#X connect 23 0 36 0;
#X connect 24 0 29 1;
#X connect 25 0 26 0;
#X connect 25 0 27 0;
#X connect 26 0 28 0;
#X connect 27 0 29 0;
#X connect 28 0 25 1;
#X connect 29 0 23 0;
#X connect 32 0 14 0;
#X connect 32 0 17 0;
#X connect 33 0 34 0;
#X connect 34 0 25 1;
#X connect 34 0 8 1;
#X connect 35 0 20 0;
#X connect 36 0 37 0;
#X connect 37 0 38 1;
#X connect 38 0 30 0;
#X connect 39 0 31 0;
