#N canvas 303 274 450 300 10;
#X obj 99 165 expr int($i1*$f2+$i3);
#X obj 99 189 % \$3;
#X obj 99 243 outlet;
#X obj 99 11 inlet;
#X obj 99 95 f 0;
#X obj 99 118 + \$1;
#X obj 99 141 % \$2;
#X obj 160 11 inlet;
#X obj 222 11 inlet;
#X connect 0 0 1 0;
#X connect 1 0 2 0;
#X connect 3 0 4 0;
#X connect 4 0 5 0;
#X connect 5 0 6 0;
#X connect 6 0 4 1;
#X connect 6 0 0 0;
#X connect 7 0 0 1;
#X connect 8 0 0 2;
