#N canvas 295 150 1002 550 10;
#X floatatom 136 377 5 0 0 1 X - -;
#X floatatom 90 378 5 0 0 1 Y - -;
#X text 90 128 A;
#X text 331 129 B;
#X text 567 125 C;
#X floatatom 90 250 5 0 0 0 - - -;
#X floatatom 126 250 5 0 0 0 - - -;
#X obj 90 272 +;
#X obj 90 295 / 2;
#X obj 105 151 unpack f f;
#X obj 346 152 unpack f f;
#X obj 582 148 unpack f f;
#X floatatom 162 250 5 0 0 0 - - -;
#X floatatom 198 250 5 0 0 0 - - -;
#X obj 162 272 +;
#X obj 162 295 / 2;
#X obj 90 216 f;
#X obj 126 216 f;
#X obj 162 216 f;
#X obj 198 216 f;
#X obj 88 187 t b b b b, f 19;
#X obj 49 174 bng 15 250 50 0 empty empty empty 17 7 0 10 -262144 -1
-1;
#X obj 213 415 pipe 50;
#X obj 40 415 pipe 50;
#X floatatom 378 377 5 0 0 1 X - -;
#X floatatom 332 378 5 0 0 1 Y - -;
#X floatatom 332 250 5 0 0 0 - - -;
#X floatatom 368 250 5 0 0 0 - - -;
#X obj 332 272 +;
#X obj 332 295 / 2;
#X floatatom 404 250 5 0 0 0 - - -;
#X floatatom 440 250 5 0 0 0 - - -;
#X obj 404 272 +;
#X obj 404 295 / 2;
#X obj 332 216 f;
#X obj 368 216 f;
#X obj 404 216 f;
#X obj 440 216 f;
#X obj 330 187 t b b b b, f 19;
#X obj 291 174 bng 15 250 50 0 empty empty empty 17 7 0 10 -262144
-1 -1;
#X obj 455 415 pipe 50;
#X obj 282 415 pipe 50;
#X floatatom 614 376 5 0 0 1 X - -;
#X floatatom 568 377 5 0 0 1 Y - -;
#X floatatom 568 249 5 0 0 0 - - -;
#X floatatom 604 249 5 0 0 0 - - -;
#X obj 568 271 +;
#X obj 568 294 / 2;
#X floatatom 640 249 5 0 0 0 - - -;
#X floatatom 676 249 5 0 0 0 - - -;
#X obj 640 271 +;
#X obj 640 294 / 2;
#X obj 568 215 f;
#X obj 604 215 f;
#X obj 640 215 f;
#X obj 676 215 f;
#X obj 566 186 t b b b b, f 19;
#X obj 527 173 bng 15 250 50 0 empty empty empty 17 7 0 10 -262144
-1 -1;
#X obj 691 414 pipe 50;
#X obj 518 414 pipe 50;
#X obj 49 61 random 3;
#X obj 49 84 sel 0 1 2;
#X obj 640 317 i;
#X obj 404 318 i;
#X obj 162 318 i;
#X obj 90 318 i;
#X obj 332 318 i;
#X obj 568 317 i;
#X msg 105 128 480 250;
#X msg 346 129 50 50;
#X msg 582 125 100 440;
#X obj 49 11 inlet;
#X obj 105 10 inlet;
#X obj 346 12 inlet;
#X obj 582 11 inlet;
#X obj 90 484 outlet;
#X obj 136 454 outlet;
#X obj 332 485 outlet;
#X obj 378 449 outlet;
#X obj 568 488 outlet;
#X obj 614 449 outlet;
#X connect 0 0 22 0;
#X connect 0 0 76 0;
#X connect 1 0 23 0;
#X connect 1 0 75 0;
#X connect 5 0 7 0;
#X connect 6 0 7 1;
#X connect 7 0 8 0;
#X connect 8 0 65 0;
#X connect 9 0 16 1;
#X connect 9 1 18 1;
#X connect 10 0 34 1;
#X connect 10 1 36 1;
#X connect 11 0 52 1;
#X connect 11 1 54 1;
#X connect 12 0 14 0;
#X connect 13 0 14 1;
#X connect 14 0 15 0;
#X connect 15 0 64 0;
#X connect 16 0 5 0;
#X connect 17 0 6 0;
#X connect 18 0 12 0;
#X connect 19 0 13 0;
#X connect 20 0 16 0;
#X connect 20 1 17 0;
#X connect 20 2 18 0;
#X connect 20 3 19 0;
#X connect 21 0 20 0;
#X connect 22 0 19 1;
#X connect 22 0 37 1;
#X connect 22 0 55 1;
#X connect 23 0 17 1;
#X connect 23 0 35 1;
#X connect 23 0 53 1;
#X connect 24 0 40 0;
#X connect 24 0 78 0;
#X connect 25 0 41 0;
#X connect 25 0 77 0;
#X connect 26 0 28 0;
#X connect 27 0 28 1;
#X connect 28 0 29 0;
#X connect 29 0 66 0;
#X connect 30 0 32 0;
#X connect 31 0 32 1;
#X connect 32 0 33 0;
#X connect 33 0 63 0;
#X connect 34 0 26 0;
#X connect 35 0 27 0;
#X connect 36 0 30 0;
#X connect 37 0 31 0;
#X connect 38 0 34 0;
#X connect 38 1 35 0;
#X connect 38 2 36 0;
#X connect 38 3 37 0;
#X connect 39 0 38 0;
#X connect 40 0 37 1;
#X connect 40 0 19 1;
#X connect 40 0 55 1;
#X connect 41 0 35 1;
#X connect 41 0 17 1;
#X connect 41 0 53 1;
#X connect 42 0 58 0;
#X connect 42 0 80 0;
#X connect 43 0 59 0;
#X connect 43 0 79 0;
#X connect 44 0 46 0;
#X connect 45 0 46 1;
#X connect 46 0 47 0;
#X connect 47 0 67 0;
#X connect 48 0 50 0;
#X connect 49 0 50 1;
#X connect 50 0 51 0;
#X connect 51 0 62 0;
#X connect 52 0 44 0;
#X connect 53 0 45 0;
#X connect 54 0 48 0;
#X connect 55 0 49 0;
#X connect 56 0 52 0;
#X connect 56 1 53 0;
#X connect 56 2 54 0;
#X connect 56 3 55 0;
#X connect 57 0 56 0;
#X connect 58 0 55 1;
#X connect 58 0 37 1;
#X connect 58 0 19 1;
#X connect 59 0 53 1;
#X connect 59 0 35 1;
#X connect 59 0 17 1;
#X connect 60 0 61 0;
#X connect 61 0 21 0;
#X connect 61 1 39 0;
#X connect 61 2 57 0;
#X connect 62 0 42 0;
#X connect 63 0 24 0;
#X connect 64 0 0 0;
#X connect 65 0 1 0;
#X connect 66 0 25 0;
#X connect 67 0 43 0;
#X connect 68 0 9 0;
#X connect 69 0 10 0;
#X connect 70 0 11 0;
#X connect 71 0 60 0;
#X connect 72 0 9 0;
#X connect 73 0 10 0;
#X connect 74 0 11 0;
