#N canvas 568 182 746 571 10;
#X obj 74 49 tgl 15 0 empty empty run 17 7 0 10 -262144 -1 -1 1 1;
#X obj 74 180 metro 100;
#X obj 166 306 osc~ 0.1;
#X obj 101 323 snapshot~;
#X obj 74 227 f;
#X msg 74 250 1 5 \, 0 \$1 5;
#X obj 74 203 t b b;
#X obj 27 250 noise~;
#X obj 27 313 *~;
#X obj 74 273 vline~;
#X obj 101 346 * 100;
#X obj 101 368 abs;
#X obj 26 401 bp~ 500 100;
#X obj 26 500 outlet~;
#X obj 77 69 hsl 50 15 100 2000 1 0 empty empty empty -2 -8 0 10 -262144
-1 -1 0 1;
#X obj 131 69 nbx 5 15 -1e+37 1e+37 0 0 empty empty empty 0 -8 0 10
-262144 -1 -1 100 256;
#X obj 77 87 hsl 50 15 10 1000 1 0 empty empty empty -2 -8 0 10 -228856
-1 -1 2600 1;
#X obj 131 87 nbx 5 15 -1e+37 1e+37 0 0 empty empty empty 0 -8 0 10
-228856 -1 -1 115.14 256;
#X obj 77 105 hsl 50 15 0.01 20 1 0 empty empty empty -2 -8 0 10 -191407
-1 -1 2400 1;
#X obj 131 105 nbx 5 15 -1e+37 1e+37 0 0 empty empty empty 0 -8 0 10
-191407 -1 -1 0.413839 256;
#X obj 77 123 hsl 50 15 100 10000 0 0 empty empty empty -2 -8 0 10
-162280 -1 -1 2100 1;
#X obj 131 123 nbx 5 15 -1e+37 1e+37 0 0 empty empty empty 0 -8 0 10
-162280 -1 -1 4342.86 256;
#X floatatom 165 48 3 5 500 0 Q - -;
#X obj 8 9 inlet;
#X obj 8 33 clip 0 1;
#X obj 225 9 loadbang;
#X msg 225 32 50;
#X obj 74 296 pow~ 2;
#X obj 191 416 expr~ if($v1>1 \, 2-$v1 \, $v1);
#X obj 191 439 expr~ if($v1<-1 \, -2-$v1 \, $v1);
#X obj 191 462 expr~ if($v1>1 \, 2-$v1 \, $v1);
#X obj 191 485 expr~ if($v1<-1 \, -2-$v1 \, $v1);
#X connect 0 0 1 0;
#X connect 1 0 6 0;
#X connect 2 0 3 0;
#X connect 3 0 10 0;
#X connect 4 0 5 0;
#X connect 5 0 9 0;
#X connect 6 0 4 0;
#X connect 6 1 3 0;
#X connect 7 0 8 0;
#X connect 8 0 12 0;
#X connect 9 0 27 0;
#X connect 10 0 11 0;
#X connect 11 0 12 1;
#X connect 12 0 28 0;
#X connect 14 0 15 0;
#X connect 15 0 1 1;
#X connect 16 0 17 0;
#X connect 17 0 4 1;
#X connect 18 0 19 0;
#X connect 19 0 2 0;
#X connect 20 0 21 0;
#X connect 21 0 10 1;
#X connect 22 0 12 2;
#X connect 23 0 24 0;
#X connect 24 0 0 0;
#X connect 25 0 26 0;
#X connect 26 0 22 0;
#X connect 27 0 8 1;
#X connect 28 0 29 0;
#X connect 29 0 30 0;
#X connect 30 0 31 0;
#X connect 31 0 13 0;
#X coords 0 -1 1 1 130 130 1 65 20;
