#N canvas 166 175 640 383 10;
#X obj 54 266 outlet~;
#X obj 54 28 inlet;
#X obj 54 87 f \$1;
#X obj 91 87 f \$2;
#X obj 129 87 f \$3;
#X obj 166 87 f \$4;
#X obj 54 198 vline~;
#X obj 205 87 f \$5;
#X obj 241 87 f \$6;
#X obj 140 114 +;
#X obj 54 150 pack 0 0 0 0 0 0 0, f 38;
#X msg 54 173 \$1 \$3 \, \$2 \$4 \$7 \, 0 \$6 \$5;
#X obj 204 114 +;
#X obj 54 221 pow~ 2;
#X obj 54 63 t b b b b b b b, f 38;
#X obj 279 87 f \$7;
#X connect 1 0 14 0;
#X connect 2 0 10 0;
#X connect 3 0 10 1;
#X connect 4 0 9 0;
#X connect 4 0 10 2;
#X connect 5 0 9 1;
#X connect 5 0 10 3;
#X connect 6 0 13 0;
#X connect 7 0 12 1;
#X connect 8 0 10 5;
#X connect 9 0 10 6;
#X connect 9 0 12 0;
#X connect 10 0 11 0;
#X connect 11 0 6 0;
#X connect 12 0 10 4;
#X connect 13 0 0 0;
#X connect 14 0 2 0;
#X connect 14 1 3 0;
#X connect 14 2 4 0;
#X connect 14 3 5 0;
#X connect 14 4 7 0;
#X connect 14 5 8 0;
#X connect 14 6 15 0;
#X connect 15 0 13 1;
