#N canvas 503 298 450 300 10;
#X obj 37 442 sel symbol, f 17;
#X obj 37 465 bng 15 250 50 0 empty empty empty 17 7 0 10 -262144 -1
-1;
#X obj 136 465 bng 15 250 50 0 empty empty empty 17 7 0 10 -262144
-1 -1;
#X obj 198 426 list tosymbol;
#X obj 198 404 fudiformat -u;
#X obj 37 420 list tosymbol;
#X obj 37 398 fudiformat -u;
#X obj 37 350 list store;
#X obj 37 223 f;
#X obj 68 223 + 1;
#X obj 68 260 % 1;
#X floatatom 37 281 5 0 0 0 - - -;
#X msg 37 326 get \$1 1;
#X obj 37 373 list trim;
#X obj 112 222 list length;
#X floatatom 112 245 5 0 0 0 - - -;
#X obj 48 487 f;
#X obj 37 303 t f f;
#X obj 198 350 list store;
#X obj 198 223 f;
#X obj 229 223 + 1;
#X obj 229 260 % 1;
#X floatatom 198 281 5 0 0 0 - - -;
#X msg 198 326 get \$1 1;
#X obj 198 373 list trim;
#X obj 282 222 list length;
#X floatatom 282 245 5 0 0 0 - - -;
#X obj 94 151 loadbang;
#X obj 24 63 inlet;
#X obj 255 63 inlet;
#X obj 87 571 outlet;
#X obj 48 510 moses 1;
#X obj 24 173 t b b;
#X obj 255 196 t a a;
#X msg 94 173 - a b c d e f g h i j k l m n o p q r s t u v w x y z
;
#X obj 282 269 - 1;
#X obj 267 296 sel;
#X obj 267 571 outlet;
#X obj 87 535 + \$1;
#X connect 0 0 1 0;
#X connect 0 1 2 0;
#X connect 1 0 16 0;
#X connect 2 0 8 0;
#X connect 3 0 0 1;
#X connect 4 0 3 0;
#X connect 5 0 0 0;
#X connect 6 0 5 0;
#X connect 7 0 13 0;
#X connect 8 0 9 0;
#X connect 8 0 11 0;
#X connect 9 0 10 0;
#X connect 10 0 8 1;
#X connect 11 0 17 0;
#X connect 12 0 7 0;
#X connect 13 0 6 0;
#X connect 14 0 15 0;
#X connect 15 0 10 1;
#X connect 16 0 31 0;
#X connect 17 0 12 0;
#X connect 17 1 16 1;
#X connect 18 0 24 0;
#X connect 19 0 20 0;
#X connect 19 0 22 0;
#X connect 20 0 21 0;
#X connect 21 0 19 1;
#X connect 22 0 23 0;
#X connect 22 0 36 0;
#X connect 23 0 18 0;
#X connect 24 0 4 0;
#X connect 25 0 26 0;
#X connect 26 0 21 1;
#X connect 26 0 35 0;
#X connect 27 0 34 0;
#X connect 28 0 32 0;
#X connect 29 0 33 0;
#X connect 31 1 38 0;
#X connect 32 0 8 0;
#X connect 32 1 19 0;
#X connect 33 0 18 1;
#X connect 33 1 25 0;
#X connect 34 0 7 1;
#X connect 34 0 14 0;
#X connect 35 0 36 1;
#X connect 36 0 37 0;
#X connect 38 0 30 0;
