#N canvas 322 266 695 415 10;
#X obj 102 23 inlet;
#X obj 102 66 bang;
#X obj 102 212 f 0;
#X obj 128 212 + 1;
#X obj 154 212 % 2;
#X obj 117 89 r sync;
#X msg 117 111 0;
#X obj 191 23 inlet;
#X obj 237 103 list length;
#X obj 191 196 list store, f 16;
#X obj 191 127 f 0;
#X obj 217 127 + 1;
#X obj 243 127 % 2;
#X msg 191 173 get \$1 1;
#X obj 191 66 t b a a, f 16;
#X obj 129 258 sel 0;
#X obj 191 242 - 1;
#X obj 102 235 t b f;
#X obj 102 353 outlet;
#X obj 218 242 f 0;
#X obj 244 242 + 1;
#X obj 270 242 % 2;
#X floatatom 218 278 5 0 0 0 - - -;
#X obj 102 293 spigot;
#X obj 191 150 t f b;
#X connect 0 0 1 0;
#X connect 1 0 2 0;
#X connect 2 0 3 0;
#X connect 2 0 17 0;
#X connect 3 0 4 0;
#X connect 4 0 2 1;
#X connect 5 0 6 0;
#X connect 6 0 2 1;
#X connect 6 0 10 1;
#X connect 6 0 19 1;
#X connect 7 0 14 0;
#X connect 8 0 12 1;
#X connect 9 0 4 1;
#X connect 9 0 16 0;
#X connect 10 0 11 0;
#X connect 10 0 24 0;
#X connect 11 0 12 0;
#X connect 12 0 10 1;
#X connect 13 0 9 0;
#X connect 14 0 10 0;
#X connect 14 1 8 0;
#X connect 14 2 9 1;
#X connect 15 0 10 0;
#X connect 16 0 15 1;
#X connect 17 0 23 0;
#X connect 17 1 15 0;
#X connect 19 0 20 0;
#X connect 19 0 22 0;
#X connect 20 0 21 0;
#X connect 21 0 19 1;
#X connect 22 0 23 1;
#X connect 23 0 18 0;
#X connect 24 0 13 0;
#X connect 24 1 19 0;
