#N canvas 181 189 450 524 10;
#X obj 110 188 noise~;
#X obj 110 211 lop~;
#X obj 171 209 mtof;
#X obj 110 234 bp~ 0 10, f 18;
#X obj 110 268 *~;
#X obj 254 206 osc~ 1;
#X obj 254 229 +~ 1;
#X obj 254 252 /~ 2;
#X obj 131 70 random 10;
#X obj 131 93 + 1;
#X obj 131 116 t f f f f, f 21;
#X obj 131 139 * 500;
#X obj 172 139 * 7;
#X obj 172 162 % 24;
#X obj 215 139 * 25;
#X obj 254 139 * 0.025;
#X obj 142 390 outlet~;
#X obj 131 13 loadbang;
#X obj 149 42 r new;
#X obj 142 294 delread~ \$0-buff;
#X obj 124 321 *~ 0.85;
#X obj 172 185 + 0;
#X obj 316 29 f \$2;
#X obj 316 169 clip 20 80;
#X obj 111 346 delwrite~ \$0-buff 1000;
#X obj 142 273 * 2;
#X connect 0 0 1 0;
#X connect 1 0 3 0;
#X connect 2 0 3 1;
#X connect 3 0 4 0;
#X connect 4 0 24 0;
#X connect 5 0 6 0;
#X connect 6 0 7 0;
#X connect 7 0 4 1;
#X connect 8 0 9 0;
#X connect 9 0 10 0;
#X connect 10 0 11 0;
#X connect 10 1 12 0;
#X connect 10 2 14 0;
#X connect 10 3 15 0;
#X connect 11 0 1 1;
#X connect 12 0 13 0;
#X connect 13 0 21 0;
#X connect 14 0 3 2;
#X connect 14 0 25 0;
#X connect 15 0 5 0;
#X connect 17 0 8 0;
#X connect 17 0 22 0;
#X connect 18 0 8 0;
#X connect 19 0 20 0;
#X connect 19 0 16 0;
#X connect 20 0 24 0;
#X connect 21 0 2 0;
#X connect 22 0 23 0;
#X connect 23 0 21 1;
#X connect 25 0 19 0;
