#N canvas 41 271 482 311 10;
#X obj 266 101 clip 0 1;
#X obj 95 209 sel 1, f 13;
#X obj 95 132 expr $f1 + $f2 - (if($f1 + $f2 >= 1 \, 1 \, 0)) \;;
#X obj 95 183 expr if($f1 + $f2 >= 1 \, 1 \, 0);
#X obj 95 16 inlet;
#X obj 287 16 inlet;
#X obj 95 61 t b;
#X obj 95 272 outlet;
#X obj 170 272 outlet;
#X obj 95 104 f 0, f 5;
#X obj 95 155 t f f;
#X obj 266 77 f \$1;
#X connect 0 0 2 1;
#X connect 0 0 3 1;
#X connect 1 0 7 0;
#X connect 1 1 8 0;
#X connect 2 0 10 0;
#X connect 3 0 1 0;
#X connect 4 0 6 0;
#X connect 5 0 11 1;
#X connect 6 0 9 0;
#X connect 6 0 11 0;
#X connect 9 0 2 0;
#X connect 10 0 3 0;
#X connect 10 1 9 1;
#X connect 11 0 0 0;
