#N canvas 87 137 412 625 10;
#X obj 81 417 list store, f 14;
#X msg 81 393 get \$1 1;
#X obj 95 364 % 7;
#X obj 95 318 t f f;
#X obj 122 343 div 7;
#X obj 122 370 * 12;
#X obj 81 440 + 0, f 7;
#X obj 189 348 list length;
#X obj 95 48 inlet;
#X obj 162 48 inlet;
#X obj 162 71 t a a;
#X obj 81 509 outlet;
#X obj 95 124 clip 0 127;
#X obj 95 269 f 0, f 5;
#X obj 95 221 f 0;
#X obj 95 244 t b f, f 8;
#X obj 95 293 + 0, f 8;
#X obj 95 195 until, f 10;
#X obj 95 149 t b f b, f 10;
#X msg 169 165 0;
#X obj 143 221 + 2;
#X obj 95 172 f 3;
#X obj 251 72 loadbang;
#X obj 251 133 f \$1;
#X obj 251 156 clip 2 5;
#X obj 210 182 f \$2;
#X obj 210 205 clip 1 10;
#X connect 0 0 6 0;
#X connect 1 0 0 0;
#X connect 2 0 1 0;
#X connect 3 0 2 0;
#X connect 3 1 4 0;
#X connect 4 0 5 0;
#X connect 5 0 6 1;
#X connect 6 0 11 0;
#X connect 7 0 4 1;
#X connect 7 0 2 1;
#X connect 8 0 12 0;
#X connect 9 0 10 0;
#X connect 10 0 0 1;
#X connect 10 1 7 0;
#X connect 12 0 18 0;
#X connect 13 0 16 0;
#X connect 14 0 20 0;
#X connect 14 0 15 0;
#X connect 15 0 13 0;
#X connect 15 1 16 1;
#X connect 16 0 3 0;
#X connect 17 0 14 0;
#X connect 18 0 21 0;
#X connect 18 1 13 1;
#X connect 18 2 17 1;
#X connect 18 2 19 0;
#X connect 19 0 14 1;
#X connect 20 0 14 1;
#X connect 21 0 17 0;
#X connect 22 0 23 0;
#X connect 22 0 25 0;
#X connect 23 0 24 0;
#X connect 24 0 21 1;
#X connect 25 0 26 0;
#X connect 26 0 20 1;
