#N canvas 0 116 1366 652 10;
#X obj 175 19 inlet;
#X obj 175 252 metro;
#X floatatom 202 230 5 0 0 0 - - -;
#X obj 202 207 expr ((60*1000)/$f1)/$f2;
#X obj 316 169 t b f;
#X obj 202 185 i \$1;
#X obj 175 275 t b b;
#X obj 202 299 f 0;
#X obj 228 299 + 1;
#X obj 202 322 sel 0, f 6;
#X obj 254 299 % 2;
#X obj 270 101 clip 2 36;
#X obj 270 78 i \$2;
#X obj 316 123 / 4;
#X obj 316 147 clip 0.25 16;
#X obj 317 78 i \$3;
#X obj 72 223 f 0;
#X obj 72 246 t b f, f 12;
#X obj 72 292 + 1;
#X obj 72 315 expr $f2/$f1;
#X obj 45 350 metro;
#X msg 105 195 seed \$1;
#X obj 395 19 inlet;
#X obj 302 291 f 0;
#X obj 328 291 + 1;
#X obj 302 314 sel 0, f 7;
#X obj 354 291 % \$4;
#X obj 302 337 f 0, f 16;
#X obj 45 478 outlet;
#X obj 202 478 outlet;
#X obj 294 45 loadbang;
#X obj 317 243 r sync;
#X msg 317 266 0;
#X obj 107 352 random 100;
#X obj 45 391 spigot;
#X obj 126 478 outlet;
#X obj 175 101 t b;
#X obj 45 117 tgl 15 0 empty empty empty 17 7 0 10 -262144 -1 -1 0
1;
#X obj 175 147 tgl 15 0 empty empty empty 17 7 0 10 -262144 -1 -1 0
1;
#X obj 202 345 f 0;
#X obj 228 345 + 1;
#X obj 107 375 < \$6, f 5;
#X obj 202 368 t f f, f 6;
#X obj 235 410 sel 0;
#X obj 295 371 i \$5;
#X msg 235 433 0;
#X obj 72 269 random 6;
#X obj 362 426 timer;
#X obj 362 449 / 1000;
#X obj 362 478 outlet;
#X obj 202 391 + 1;
#X obj 395 291 t f b;
#X msg 422 337 0;
#X obj 295 394 + 1;
#X obj 254 345 % 2;
#X connect 0 0 36 0;
#X connect 1 0 6 0;
#X connect 2 0 1 1;
#X connect 3 0 2 0;
#X connect 3 0 16 1;
#X connect 4 0 5 0;
#X connect 4 1 3 1;
#X connect 5 0 3 0;
#X connect 6 0 16 0;
#X connect 6 1 7 0;
#X connect 6 1 23 0;
#X connect 7 0 8 0;
#X connect 7 0 9 0;
#X connect 8 0 10 0;
#X connect 9 0 39 0;
#X connect 10 0 7 1;
#X connect 11 0 10 1;
#X connect 12 0 11 0;
#X connect 13 0 14 0;
#X connect 14 0 4 0;
#X connect 15 0 13 0;
#X connect 16 0 17 0;
#X connect 17 0 33 0;
#X connect 17 0 46 0;
#X connect 17 1 19 1;
#X connect 18 0 19 0;
#X connect 19 0 20 1;
#X connect 19 0 35 0;
#X connect 20 0 34 0;
#X connect 21 0 33 0;
#X connect 21 0 46 0;
#X connect 22 0 51 0;
#X connect 23 0 24 0;
#X connect 23 0 25 0;
#X connect 24 0 26 0;
#X connect 25 0 27 0;
#X connect 26 0 23 1;
#X connect 27 0 21 0;
#X connect 30 0 12 0;
#X connect 30 0 15 0;
#X connect 30 0 45 0;
#X connect 30 0 44 0;
#X connect 31 0 32 0;
#X connect 32 0 23 1;
#X connect 32 0 7 1;
#X connect 32 0 39 1;
#X connect 33 0 41 0;
#X connect 34 0 28 0;
#X connect 36 0 37 0;
#X connect 36 0 38 0;
#X connect 36 0 47 0;
#X connect 37 0 20 0;
#X connect 38 0 1 0;
#X connect 39 0 40 0;
#X connect 39 0 42 0;
#X connect 40 0 54 0;
#X connect 41 0 34 1;
#X connect 42 0 50 0;
#X connect 42 1 43 0;
#X connect 43 0 45 0;
#X connect 43 0 47 1;
#X connect 43 0 32 0;
#X connect 44 0 53 0;
#X connect 44 0 43 1;
#X connect 45 0 37 0;
#X connect 45 0 38 0;
#X connect 45 0 48 0;
#X connect 46 0 18 0;
#X connect 47 0 48 0;
#X connect 48 0 49 0;
#X connect 50 0 29 0;
#X connect 51 0 27 1;
#X connect 51 1 52 0;
#X connect 52 0 49 0;
#X connect 53 0 54 1;
#X connect 54 0 39 1;
