#N canvas 110 195 489 380 10;
#X obj 74 159 t f f, f 17;
#X obj 74 182 expr abs($f1 - round($f1)), f 28;
#X obj 74 102 f 0, f 5;
#X obj 74 19 inlet;
#X obj 171 73 f \$1;
#X obj 67 330 outlet;
#X obj 192 19 inlet;
#X obj 74 74 t b b;
#X obj 74 136 expr fmod($f1 + (31/$f2)* $f3 \, 1);
#X obj 269 89 f \$2;
#X obj 125 330 outlet;
#X obj 125 291 spigot;
#X obj 158 267 !=, f 5;
#X obj 158 221 t b f;
#X obj 158 244 f 0;
#X obj 74 205 t f f, f 8;
#X obj 269 112 clip 0 1;
#X connect 0 0 1 0;
#X connect 0 1 2 1;
#X connect 0 1 14 1;
#X connect 0 1 5 0;
#X connect 1 0 15 0;
#X connect 2 0 8 0;
#X connect 3 0 7 0;
#X connect 4 0 8 1;
#X connect 6 0 4 1;
#X connect 7 0 2 0;
#X connect 7 1 4 0;
#X connect 7 1 9 0;
#X connect 8 0 0 0;
#X connect 9 0 16 0;
#X connect 11 0 10 0;
#X connect 12 0 11 1;
#X connect 13 0 14 0;
#X connect 13 1 12 1;
#X connect 14 0 12 0;
#X connect 15 0 11 0;
#X connect 15 1 13 0;
#X connect 16 0 8 2;
