#N canvas 47 260 474 420 10;
#X obj 114 216 +, f 5;
#X obj 168 215 +, f 5;
#X obj 114 190 f;
#X obj 141 190 f;
#X obj 168 190 f;
#X obj 195 190 f;
#X obj 114 161 t b b b b, f 14;
#X obj 168 261 i;
#X obj 114 262 i;
#X obj 183 140 clip 0 127;
#X obj 129 118 clip 0 127;
#X obj 114 335 t f f;
#X obj 168 334 t f f;
#X obj 114 374 outlet;
#X obj 168 373 outlet;
#X obj 114 14 inlet;
#X obj 129 58 loadbang;
#X obj 156 14 inlet;
#X obj 210 14 inlet;
#X obj 182 94 f \$2;
#X obj 129 94 f \$1;
#X obj 114 285 clip 0 127;
#X obj 168 308 clip 0 127;
#X obj 114 239 / \$3;
#X obj 168 238 / \$3;
#X connect 0 0 23 0;
#X connect 1 0 24 0;
#X connect 2 0 0 0;
#X connect 3 0 0 1;
#X connect 4 0 1 0;
#X connect 5 0 1 1;
#X connect 6 0 2 0;
#X connect 6 1 3 0;
#X connect 6 2 4 0;
#X connect 6 3 5 0;
#X connect 7 0 22 0;
#X connect 8 0 21 0;
#X connect 9 0 4 1;
#X connect 10 0 2 1;
#X connect 11 0 13 0;
#X connect 11 1 3 1;
#X connect 12 0 14 0;
#X connect 12 1 5 1;
#X connect 15 0 6 0;
#X connect 16 0 20 0;
#X connect 16 0 19 0;
#X connect 17 0 3 1;
#X connect 18 0 5 1;
#X connect 19 0 9 0;
#X connect 20 0 10 0;
#X connect 21 0 11 0;
#X connect 22 0 12 0;
#X connect 23 0 8 0;
#X connect 24 0 7 0;
