#N canvas 556 144 703 593 10;
#X obj 99 160 f;
#X obj 126 160 + 1;
#X obj 126 183 % 12;
#X floatatom 99 207 5 0 0 0 - - -;
#X obj 156 206 random 4;
#X msg 99 355 \$2 \$1;
#X obj 99 331 pack f f;
#X obj 99 379 route 0 1 2 3, f 30;
#X obj 187 404 + 12;
#X obj 231 404 + 24;
#X obj 99 309 + 50;
#X floatatom 143 73 5 0 0 1 tone - -;
#X obj 118 233 sel 0 2 4 5 7 9 11;
#X floatatom 99 288 5 0 0 0 - - -;
#X obj 99 267 spigot;
#X obj 167 285 tgl 15 0 empty empty empty 17 7 0 10 -262144 -1 -1 0
1;
#X msg 167 260 1;
#X msg 211 269 0;
#X floatatom 99 440 5 0 0 0 - - -;
#X obj 99 503 outlet;
#X obj 99 73 bng 15 250 50 0 empty empty trg 17 7 0 10 -262144 -1 -1
;
#X obj 99 12 inlet;
#X obj 211 73 hradio 15 1 0 4 empty empty oct 65 7 0 10 -262144 -1
-1 3;
#X obj 211 190 + 1;
#X obj 99 404 + 0;
#X obj 143 404 - 12;
#X obj 99 96 hradio 15 1 0 10 empty empty interv 155 7 0 10 -262144
-1 -1 0;
#X obj 154 160 + 1;
#X obj 143 12 inlet;
#X connect 0 0 1 0;
#X connect 0 0 3 0;
#X connect 1 0 2 0;
#X connect 2 0 0 1;
#X connect 3 0 12 0;
#X connect 3 0 14 0;
#X connect 4 0 6 1;
#X connect 5 0 7 0;
#X connect 6 0 5 0;
#X connect 7 0 24 0;
#X connect 7 1 25 0;
#X connect 7 2 8 0;
#X connect 7 3 9 0;
#X connect 8 0 18 0;
#X connect 9 0 18 0;
#X connect 10 0 6 0;
#X connect 11 0 10 1;
#X connect 12 0 16 0;
#X connect 12 1 16 0;
#X connect 12 2 16 0;
#X connect 12 3 16 0;
#X connect 12 4 16 0;
#X connect 12 5 16 0;
#X connect 12 6 16 0;
#X connect 12 7 17 0;
#X connect 13 0 10 0;
#X connect 14 0 13 0;
#X connect 15 0 14 1;
#X connect 16 0 15 0;
#X connect 17 0 15 0;
#X connect 18 0 19 0;
#X connect 20 0 0 0;
#X connect 20 0 4 0;
#X connect 21 0 20 0;
#X connect 22 0 23 0;
#X connect 23 0 4 1;
#X connect 24 0 18 0;
#X connect 25 0 18 0;
#X connect 26 0 27 0;
#X connect 27 0 1 1;
#X connect 28 0 11 0;
#X coords 0 -1 1 1 205 80 1 95 40;
