#N canvas 6 116 450 300 10;
#X obj 30 97 + 0, f 5;
#X obj 57 74 f 0;
#X obj 30 52 t f b;
#X obj 30 120 expr if($f1>$f2+24 || $f1<$f2-24 \, $f2 \, $f1);
#X obj 285 68 f \$1;
#X obj 30 143 t f f;
#X obj 30 234 outlet;
#X obj 30 9 inlet;
#X connect 0 0 3 0;
#X connect 1 0 0 1;
#X connect 2 0 0 0;
#X connect 2 1 1 0;
#X connect 2 1 4 0;
#X connect 3 0 5 0;
#X connect 4 0 3 1;
#X connect 5 0 6 0;
#X connect 5 1 1 1;
#X connect 7 0 2 0;
