#N canvas 753 158 362 300 10;
#X obj 47 23 inlet;
#X obj 47 96 f 0;
#X obj 73 96 + 1;
#X obj 99 96 % \$1;
#X obj 47 119 sel 0;
#X obj 47 166 random \$2;
#X obj 47 218 outlet;
#X obj 47 142 t b b b, f 30;
#X obj 135 218 outlet;
#X obj 135 166 random \$3;
#X obj 224 218 outlet;
#X obj 224 166 random \$4;
#X obj 47 72 spigot, f 13;
#X obj 122 23 inlet;
#X obj 122 49 clip 0 1;
#X connect 0 0 12 0;
#X connect 1 0 2 0;
#X connect 1 0 4 0;
#X connect 2 0 3 0;
#X connect 3 0 1 1;
#X connect 4 0 7 0;
#X connect 5 0 6 0;
#X connect 7 0 5 0;
#X connect 7 1 9 0;
#X connect 7 2 11 0;
#X connect 9 0 8 0;
#X connect 11 0 10 0;
#X connect 12 0 1 0;
#X connect 13 0 14 0;
#X connect 14 0 12 1;
