#N canvas 6 116 450 300 10;
#X obj 49 73 f 0;
#X obj 75 73 + 1;
#X obj 49 96 sel 0, f 7;
#X obj 49 157 line~;
#X msg 49 119 1 10;
#X obj 101 73 % \$1;
#X obj 49 29 inlet;
#X obj 49 217 outlet~;
#X msg 88 118 0.3 10;
#X connect 0 0 1 0;
#X connect 0 0 2 0;
#X connect 1 0 5 0;
#X connect 2 0 4 0;
#X connect 2 1 8 0;
#X connect 3 0 7 0;
#X connect 4 0 3 0;
#X connect 5 0 0 1;
#X connect 6 0 0 0;
#X connect 8 0 3 0;
