#N canvas 231 261 651 496 10;
#X obj 44 14 inlet;
#X obj 44 97 bng 15 250 50 0 empty empty trg 17 7 0 10 -262144 -191407
-1;
#X obj 44 214 f 0;
#X obj 71 214 + 1;
#X obj 98 214 % 2;
#X obj 97 97 bng 15 250 50 0 empty empty empty 17 7 0 10 -262144 -1
-1;
#X obj 97 14 inlet;
#X obj 44 37 t b f;
#X obj 44 237 sel 0;
#X obj 195 110 random 6;
#X obj 44 281 f 0;
#X obj 44 115 nbx 3 14 1 6 0 0 empty empty every 40 7 0 10 -1 -262144
-1 6 256;
#X obj 113 191 i;
#X obj 44 132 nbx 3 14 0.1 0.5 0 0 empty empty gain 40 7 0 10 -262144
-1 -1 0.24 256;
#X obj 74 282 f 0;
#X obj 197 144 / 2;
#X obj 182 168 -;
#X obj 44 260 bang;
#X obj 74 260 bang;
#X obj 44 309 clip 0 1;
#X obj 44 332 t f f, f 8;
#X obj 89 355 * 127;
#X obj 44 379 outlet;
#X obj 89 379 outlet;
#X connect 0 0 7 0;
#X connect 1 0 2 0;
#X connect 2 0 3 0;
#X connect 2 0 8 0;
#X connect 3 0 4 0;
#X connect 4 0 2 1;
#X connect 5 0 9 0;
#X connect 6 0 5 0;
#X connect 7 0 1 0;
#X connect 7 1 16 0;
#X connect 7 1 10 1;
#X connect 8 0 17 0;
#X connect 8 1 18 0;
#X connect 9 0 11 0;
#X connect 10 0 19 0;
#X connect 11 0 12 0;
#X connect 12 0 4 1;
#X connect 13 0 15 0;
#X connect 14 0 19 0;
#X connect 15 0 16 1;
#X connect 16 0 14 1;
#X connect 17 0 10 0;
#X connect 18 0 14 0;
#X connect 19 0 20 0;
#X connect 20 0 22 0;
#X connect 20 1 21 0;
#X connect 21 0 23 0;
#X coords 0 -1 1 1 85 85 1 35 70;
