#N canvas 299 173 603 456 10;
#X obj 177 53 t b b;
#X floatatom 285 335 5 0 0 0 - - -;
#X obj 464 198 + 1;
#X obj 285 199 - 1;
#X obj 107 174 t b f f, f 60;
#X obj 107 103 f 0;
#X obj 107 126 + 1;
#X obj 107 28 inlet;
#X obj 107 79 t b;
#X obj 177 29 loadbang;
#X obj 106 350 outlet;
#X obj 107 149 % 7;
#X obj 204 79 array define var7 7;
#X obj 177 128 array set var7;
#X obj 285 222 + 7;
#X obj 285 245 % 7;
#X obj 464 222 + 7;
#X obj 464 245 % 7;
#X obj 107 269 expr var7[$f2] \; if((var7[$f2] + var7[$f3] %2 == 0)
\, var7[$f2] + var7[$f3] \, var7[$f2] - var7[$f3]) %7 \; var7[$f3]
, f 60;
#X obj 285 364 array set var7;
#X msg 177 105 0 4 1 5 2 6 3;
#X connect 0 0 20 0;
#X connect 0 1 12 0;
#X connect 1 0 10 0;
#X connect 1 0 19 0;
#X connect 2 0 16 0;
#X connect 3 0 14 0;
#X connect 4 0 18 0;
#X connect 4 1 3 0;
#X connect 4 2 2 0;
#X connect 5 0 6 0;
#X connect 6 0 11 0;
#X connect 7 0 8 0;
#X connect 8 0 5 0;
#X connect 9 0 0 0;
#X connect 11 0 4 0;
#X connect 11 0 5 1;
#X connect 11 0 19 1;
#X connect 14 0 15 0;
#X connect 15 0 18 1;
#X connect 16 0 17 0;
#X connect 17 0 18 2;
#X connect 18 1 1 0;
#X connect 20 0 13 0;
