#N canvas 726 187 601 526 10;
#X obj 83 212 pack 0 0;
#X obj 83 258 line, f 8;
#X obj 83 171 t f b;
#X obj 83 281 i 0;
#X msg 83 235 0 \, \$1 \$2;
#X obj 83 66 clip 0 1;
#X obj 83 112 t b b, f 20;
#X obj 200 212 pack 0 0;
#X obj 200 258 line, f 8;
#X obj 200 171 t f b;
#X obj 200 281 i 0;
#X msg 200 235 0 \, \$1 \$2;
#X obj 161 33 inlet;
#X obj 83 147 f \$1;
#X obj 83 33 inlet;
#X obj 83 451 outlet;
#X obj 83 304 change -1;
#X obj 200 304 change -1;
#X obj 134 451 outlet;
#X obj 83 327 sel \$2, f 9;
#X obj 200 147 f \$3;
#X msg 83 350 1;
#X obj 200 451 outlet;
#X obj 251 451 outlet;
#X obj 200 327 sel \$2, f 9;
#X msg 200 350 1;
#X msg 134 360 0.5;
#X msg 251 361 0.5;
#X obj 83 89 metro 2000, f 11;
#X obj 128 187 f 2000;
#X obj 245 187 f 2000;
#X connect 0 0 4 0;
#X connect 1 0 3 0;
#X connect 2 0 0 0;
#X connect 2 1 29 0;
#X connect 3 0 16 0;
#X connect 4 0 1 0;
#X connect 5 0 28 0;
#X connect 6 0 13 0;
#X connect 6 1 20 0;
#X connect 7 0 11 0;
#X connect 8 0 10 0;
#X connect 9 0 7 0;
#X connect 9 1 30 0;
#X connect 10 0 17 0;
#X connect 11 0 8 0;
#X connect 12 0 28 1;
#X connect 12 0 29 1;
#X connect 12 0 30 1;
#X connect 13 0 2 0;
#X connect 14 0 5 0;
#X connect 16 0 19 0;
#X connect 16 0 18 0;
#X connect 17 0 24 0;
#X connect 17 0 23 0;
#X connect 19 0 21 0;
#X connect 19 1 26 0;
#X connect 20 0 9 0;
#X connect 21 0 15 0;
#X connect 24 0 25 0;
#X connect 24 1 27 0;
#X connect 25 0 22 0;
#X connect 26 0 15 0;
#X connect 27 0 22 0;
#X connect 28 0 6 0;
#X connect 29 0 0 1;
#X connect 30 0 7 1;
