#N canvas 446 137 687 592 10;
#X obj 87 164 t f f, f 7;
#X obj 126 189 mod 2;
#X obj 87 189 div 2;
#X obj 126 262 list store;
#X obj 87 142 i 0;
#X obj 126 212 t b f;
#X obj 153 236 list append;
#X obj 87 212 t f f;
#X obj 87 235 == 0;
#X obj 87 298 sel 1 0;
#X obj 87 21 inlet;
#X obj 87 109 t b f b b b, f 22;
#X obj 126 331 t b f, f 8;
#X obj 126 362 f 0;
#X obj 152 362 + 1;
#X obj 126 385 pack 0 0;
#X msg 249 345 0;
#X obj 126 408 route 7 6 5 4 3 2 1 0, f 56;
#X obj 178 362 % 8;
#X obj 216 320 t b b, f 6;
#X obj 87 83 clip 0 255;
#X msg 216 345 -1;
#X obj 126 431 i 0;
#X obj 167 431 i 0;
#X obj 126 486 outlet;
#X obj 167 507 outlet;
#X obj 209 431 i 0;
#X obj 250 431 i 0;
#X obj 209 486 outlet;
#X obj 250 507 outlet;
#X obj 292 431 i 0;
#X obj 334 431 i 0;
#X obj 292 486 outlet;
#X obj 334 507 outlet;
#X obj 375 431 i 0;
#X obj 417 431 i 0;
#X obj 375 486 outlet;
#X obj 417 507 outlet;
#X obj 126 454 sel 1;
#X obj 167 454 sel 1;
#X obj 209 454 sel 1;
#X obj 250 454 sel 1;
#X obj 292 454 sel 1;
#X obj 334 454 sel 1;
#X obj 375 454 sel 1;
#X obj 417 454 sel 1;
#X connect 0 0 2 0;
#X connect 0 1 1 0;
#X connect 1 0 5 0;
#X connect 2 0 7 0;
#X connect 3 0 6 1;
#X connect 3 0 12 0;
#X connect 4 0 0 0;
#X connect 5 0 3 0;
#X connect 5 1 6 0;
#X connect 6 0 3 1;
#X connect 7 0 8 0;
#X connect 7 1 4 1;
#X connect 8 0 9 0;
#X connect 9 1 4 0;
#X connect 10 0 20 0;
#X connect 11 0 4 0;
#X connect 11 1 4 1;
#X connect 11 2 3 0;
#X connect 11 3 3 1;
#X connect 11 4 19 0;
#X connect 12 0 13 0;
#X connect 12 1 15 1;
#X connect 13 0 14 0;
#X connect 13 0 15 0;
#X connect 14 0 18 0;
#X connect 15 0 17 0;
#X connect 16 0 13 1;
#X connect 16 0 22 1;
#X connect 16 0 35 1;
#X connect 16 0 34 1;
#X connect 16 0 31 1;
#X connect 16 0 30 1;
#X connect 16 0 27 1;
#X connect 16 0 26 1;
#X connect 16 0 23 1;
#X connect 17 0 22 0;
#X connect 17 1 23 0;
#X connect 17 2 26 0;
#X connect 17 3 27 0;
#X connect 17 4 30 0;
#X connect 17 5 31 0;
#X connect 17 6 34 0;
#X connect 17 7 35 0;
#X connect 18 0 13 1;
#X connect 19 0 21 0;
#X connect 19 1 16 0;
#X connect 20 0 11 0;
#X connect 21 0 13 1;
#X connect 22 0 38 0;
#X connect 23 0 39 0;
#X connect 26 0 40 0;
#X connect 27 0 41 0;
#X connect 30 0 42 0;
#X connect 31 0 43 0;
#X connect 34 0 44 0;
#X connect 35 0 45 0;
#X connect 38 0 24 0;
#X connect 39 0 25 0;
#X connect 40 0 28 0;
#X connect 41 0 29 0;
#X connect 42 0 32 0;
#X connect 43 0 33 0;
#X connect 44 0 36 0;
#X connect 45 0 37 0;
