#N canvas 656 211 646 471 10;
#X obj 194 33 inlet;
#X obj 79 165 line~;
#X obj 79 188 cos~;
#X obj 22 125 loadbang;
#X msg 22 148 -0.25;
#X obj 79 294 *~;
#X obj 80 318 hip~ 5;
#X obj 173 165 mtof;
#X obj 79 211 *~ 0.1;
#X obj 173 237 *~;
#X obj 95 253 *~;
#X obj 172 277 *~;
#X obj 79 33 inlet;
#X msg 79 124 -0.25 \, 0.25 \$1;
#X obj 124 33 inlet;
#X obj 173 98 clip 0 127;
#X obj 173 188 osc~;
#X obj 80 381 outlet~;
#X obj 79 98 f \$1, f 8;
#X obj 173 72 i \$2;
#X obj 79 56 t b b;
#X connect 0 0 19 1;
#X connect 1 0 2 0;
#X connect 2 0 8 0;
#X connect 3 0 4 0;
#X connect 4 0 1 0;
#X connect 5 0 6 0;
#X connect 6 0 17 0;
#X connect 7 0 16 0;
#X connect 8 0 5 0;
#X connect 9 0 10 1;
#X connect 9 0 11 0;
#X connect 9 0 11 1;
#X connect 10 0 5 1;
#X connect 11 0 5 1;
#X connect 12 0 20 0;
#X connect 13 0 1 0;
#X connect 14 0 18 1;
#X connect 15 0 7 0;
#X connect 16 0 5 1;
#X connect 16 0 9 0;
#X connect 16 0 9 1;
#X connect 16 0 10 0;
#X connect 18 0 13 0;
#X connect 19 0 15 0;
#X connect 20 0 18 0;
#X connect 20 1 19 0;
