#N canvas 228 169 843 546 10;
#X obj 90 294 *~;
#X obj 90 370 *~ 1;
#X obj 91 225 clip~ -0.9 0.9;
#X obj 91 269 hip~ 20;
#X obj 204 279 line~;
#X obj 91 202 *~ 2;
#X obj 91 247 lop~ 50;
#X msg 204 225 1 10;
#X msg 267 247 0 200;
#X obj 460 247 hip~ 500;
#X obj 325 353 *~;
#X obj 461 169 noise~;
#X obj 339 279 line~;
#X msg 339 225 1 10;
#X msg 402 247 0 5;
#X obj 460 224 lop~ 100;
#X obj 402 225 del 15;
#X obj 324 321 *~ 0.75;
#X obj 204 33 bang;
#X obj 49 16 inlet;
#X obj 90 136 osc~;
#X obj 124 160 osc~;
#X obj 159 185 osc~;
#X obj 111 16 inlet;
#X obj 90 79 mtof;
#X obj 90 102 t f f f, f 12;
#X obj 124 136 * \$1;
#X obj 159 160 / \$1;
#X obj 90 397 outlet~;
#X obj 300 16 inlet;
#X obj 267 225 del \$3;
#X obj 90 49 f \$2;
#X connect 0 0 1 0;
#X connect 1 0 28 0;
#X connect 2 0 6 0;
#X connect 3 0 0 0;
#X connect 4 0 0 1;
#X connect 5 0 2 0;
#X connect 6 0 3 0;
#X connect 7 0 4 0;
#X connect 8 0 4 0;
#X connect 9 0 17 0;
#X connect 10 0 1 0;
#X connect 11 0 15 0;
#X connect 12 0 10 1;
#X connect 13 0 12 0;
#X connect 14 0 12 0;
#X connect 15 0 9 0;
#X connect 16 0 14 0;
#X connect 17 0 10 0;
#X connect 18 0 7 0;
#X connect 18 0 13 0;
#X connect 18 0 16 0;
#X connect 18 0 30 0;
#X connect 18 0 31 0;
#X connect 19 0 18 0;
#X connect 20 0 5 0;
#X connect 21 0 5 0;
#X connect 22 0 5 0;
#X connect 23 0 31 1;
#X connect 24 0 25 0;
#X connect 25 0 20 0;
#X connect 25 1 26 0;
#X connect 25 2 27 0;
#X connect 26 0 21 0;
#X connect 27 0 22 0;
#X connect 29 0 30 1;
#X connect 30 0 8 0;
#X connect 31 0 24 0;
