#N canvas 81 140 638 551 10;
#X floatatom 149 76 3 0 127 1 init - -;
#X obj 86 168 t f f b, f 23;
#X obj 221 214 moses 50;
#X obj 221 191 random 100;
#X obj 206 329 +;
#X obj 221 237 bng 15 250 50 0 empty empty empty 17 7 0 10 -262144
-1 -1;
#X obj 306 230 bng 15 250 50 0 empty empty empty 17 7 0 10 -262144
-1 -1;
#X obj 221 257 random;
#X obj 306 257 random;
#X obj 254 167 * 100;
#X obj 86 145 i;
#X obj 86 77 bng 15 250 50 0 empty empty empty 17 7 0 10 -262144 -1
-1;
#X obj 221 281 / 10;
#X obj 221 304 i;
#X obj 306 281 / 10;
#X obj 306 304 i;
#X obj 291 330 -;
#X obj 206 421 spigot;
#X obj 291 421 spigot;
#X msg 239 374 0;
#X msg 269 374 1;
#X msg 324 373 0;
#X msg 354 373 1;
#X obj 89 98 hsl 40 15 0 1 0 0 empty empty empty -2 -8 0 10 -191407
-262144 -1 1500 1;
#X obj 133 98 nbx 3 15 -1e+37 1e+37 0 0 empty empty width 40 8 0 10
-191407 -262144 -1 0.384615 256;
#X obj 86 485 outlet;
#X obj 86 4 inlet;
#X obj 149 5 inlet;
#X obj 206 466 expr if($f1<20||$f1>90 \, $f2 \, $f1);
#X connect 0 0 10 1;
#X connect 0 0 28 1;
#X connect 1 0 25 0;
#X connect 1 1 4 0;
#X connect 1 1 16 0;
#X connect 1 2 3 0;
#X connect 2 0 5 0;
#X connect 2 1 6 0;
#X connect 3 0 2 0;
#X connect 4 0 17 0;
#X connect 5 0 7 0;
#X connect 5 0 20 0;
#X connect 5 0 21 0;
#X connect 6 0 8 0;
#X connect 6 0 19 0;
#X connect 6 0 22 0;
#X connect 7 0 12 0;
#X connect 8 0 14 0;
#X connect 9 0 7 1;
#X connect 9 0 8 1;
#X connect 10 0 1 0;
#X connect 11 0 10 0;
#X connect 12 0 13 0;
#X connect 13 0 4 1;
#X connect 14 0 15 0;
#X connect 15 0 16 1;
#X connect 16 0 18 0;
#X connect 17 0 28 0;
#X connect 18 0 28 0;
#X connect 19 0 17 1;
#X connect 20 0 17 1;
#X connect 21 0 18 1;
#X connect 22 0 18 1;
#X connect 23 0 24 0;
#X connect 24 0 9 0;
#X connect 26 0 11 0;
#X connect 27 0 0 0;
#X connect 28 0 10 1;
#X coords 0 -1 1 1 130 70 1 80 50;
