#N canvas 575 229 440 430 10;
#X obj 135 128 div;
#X obj 135 82 i 0, f 5;
#X obj 175 128 mod;
#X floatatom 288 67 5 0 0 0 - - -;
#X obj 175 271 outlet;
#X obj 135 56 t b;
#X obj 135 16 inlet;
#X obj 288 16 inlet;
#X obj 190 97 f \$1;
#X obj 190 16 loadbang;
#X obj 135 151 t f f;
#X obj 81 195 expr if($f1==0&&$f2==0 \, 0 \, 1);
#X obj 81 219 sel 0;
#X connect 0 0 10 0;
#X connect 1 0 0 0;
#X connect 1 0 2 0;
#X connect 2 0 4 0;
#X connect 3 0 1 1;
#X connect 5 0 1 0;
#X connect 6 0 5 0;
#X connect 7 0 3 0;
#X connect 8 0 0 1;
#X connect 8 0 2 1;
#X connect 9 0 8 0;
#X connect 10 0 11 0;
#X connect 10 1 1 1;
#X connect 10 1 11 1;
#X connect 11 0 12 0;
#X connect 12 0 3 0;
