#N canvas 219 185 403 362 10;
#X obj 39 63 t f b;
#X obj 118 79 random 1000;
#X obj 118 102 / 1000;
#X obj 39 148 expr if($f2<$f3 \, $f1 \, -12) \; if($f2>$f3 \, $f1 \,
-12);
#X obj 118 125 clip 0 1;
#X obj 198 125 clip 0 1;
#X obj 39 184 t f f;
#X obj 78 185 > -12;
#X obj 39 207 spigot, f 7;
#X obj 198 183 t f f;
#X obj 237 184 > -12;
#X obj 198 206 spigot, f 7;
#X obj 39 14 inlet;
#X obj 39 268 outlet;
#X obj 198 268 outlet;
#X obj 198 102 f \$1;
#X obj 219 14 inlet;
#X connect 0 0 3 0;
#X connect 0 1 1 0;
#X connect 0 1 15 0;
#X connect 1 0 2 0;
#X connect 2 0 4 0;
#X connect 3 0 6 0;
#X connect 3 1 9 0;
#X connect 4 0 3 1;
#X connect 5 0 3 2;
#X connect 6 0 8 0;
#X connect 6 1 7 0;
#X connect 7 0 8 1;
#X connect 8 0 13 0;
#X connect 9 0 11 0;
#X connect 9 1 10 0;
#X connect 10 0 11 1;
#X connect 11 0 14 0;
#X connect 12 0 0 0;
#X connect 15 0 5 0;
#X connect 16 0 15 1;
