#N canvas 567 178 450 497 10;
#X floatatom 148 72 3 0 0 1 init - -;
#X floatatom 85 351 5 0 0 0 - - -;
#X obj 85 168 t f f b, f 23;
#X obj 220 214 moses 50;
#X obj 220 191 random 100;
#X obj 205 351 +;
#X obj 220 237 bng 15 250 50 0 empty empty empty 17 7 0 10 -262144
-1 -1;
#X obj 305 237 bng 15 250 50 0 empty empty empty 17 7 0 10 -262144
-1 -1;
#X obj 220 257 random;
#X obj 305 257 random;
#X obj 253 167 * 100;
#X obj 85 145 i;
#X obj 85 73 bng 15 250 50 0 empty empty empty 17 7 0 10 -262144 -1
-1;
#X obj 220 281 / 10;
#X obj 220 304 i;
#X floatatom 220 327 5 0 0 0 - - -;
#X obj 305 281 / 10;
#X obj 305 304 i;
#X floatatom 305 327 5 0 0 0 - - -;
#X obj 290 352 -;
#X obj 152 258 i;
#X floatatom 205 375 5 0 0 0 - - -;
#X floatatom 290 375 5 0 0 0 - - -;
#X floatatom 205 468 5 0 0 0 - - -;
#X obj 205 443 spigot;
#X obj 290 443 spigot;
#X obj 323 422 tgl 15 0 empty empty empty 17 7 0 10 -262144 -1 -1 1
1;
#X obj 238 422 tgl 15 0 empty empty empty 17 7 0 10 -262144 -1 -1 0
1;
#X msg 238 396 0;
#X msg 268 396 1;
#X msg 323 395 0;
#X msg 353 395 1;
#X obj 88 94 hsl 40 15 0 1 0 0 empty empty empty -2 -8 0 10 -191407
-262144 -1 2100 1;
#X obj 132 94 nbx 3 15 -1e+37 1e+37 0 0 empty empty width 40 8 0 10
-191407 -262144 -1 0.538462 256;
#X obj 85 467 outlet;
#X obj 85 4 inlet;
#X obj 148 5 inlet;
#X connect 0 0 11 1;
#X connect 1 0 34 0;
#X connect 2 0 1 0;
#X connect 2 1 20 0;
#X connect 2 2 4 0;
#X connect 3 0 6 0;
#X connect 3 1 7 0;
#X connect 4 0 3 0;
#X connect 5 0 21 0;
#X connect 6 0 8 0;
#X connect 6 0 29 0;
#X connect 6 0 30 0;
#X connect 7 0 9 0;
#X connect 7 0 28 0;
#X connect 7 0 31 0;
#X connect 8 0 13 0;
#X connect 9 0 16 0;
#X connect 10 0 8 1;
#X connect 10 0 9 1;
#X connect 11 0 2 0;
#X connect 12 0 11 0;
#X connect 13 0 14 0;
#X connect 14 0 15 0;
#X connect 15 0 5 1;
#X connect 16 0 17 0;
#X connect 17 0 18 0;
#X connect 18 0 19 1;
#X connect 19 0 22 0;
#X connect 20 0 5 0;
#X connect 20 0 19 0;
#X connect 21 0 24 0;
#X connect 22 0 25 0;
#X connect 23 0 11 1;
#X connect 24 0 23 0;
#X connect 25 0 23 0;
#X connect 26 0 25 1;
#X connect 27 0 24 1;
#X connect 28 0 27 0;
#X connect 29 0 27 0;
#X connect 30 0 26 0;
#X connect 31 0 26 0;
#X connect 32 0 33 0;
#X connect 33 0 10 0;
#X connect 35 0 12 0;
#X connect 36 0 0 0;
#X coords 0 -1 1 1 130 80 1 80 40;
