#N canvas 231 257 1057 475 10;
#X obj 267 186 bng 12 250 50 0 empty empty empty 17 7 0 10 -262144
-228856 -1;
#X obj 281 186 bng 12 250 50 0 empty empty empty 17 7 0 10 -262144
-228856 -1;
#X obj 295 186 bng 12 250 50 0 empty empty empty 17 7 0 10 -262144
-228856 -1;
#X obj 309 186 bng 12 250 50 0 empty empty empty 17 7 0 10 -262144
-228856 -1;
#X obj 323 186 bng 12 250 50 0 empty empty empty 17 7 0 10 -262144
-228856 -1;
#X obj 337 186 bng 12 250 50 0 empty empty empty 17 7 0 10 -262144
-228856 -1;
#X obj 351 186 bng 12 250 50 0 empty empty empty 17 7 0 10 -262144
-228856 -1;
#X obj 365 186 bng 12 250 50 0 empty empty empty 17 7 0 10 -262144
-228856 -1;
#X obj 379 186 bng 12 250 50 0 empty empty empty 17 7 0 10 -262144
-228856 -1;
#X obj 393 186 bng 12 250 50 0 empty empty empty 17 7 0 10 -262144
-228856 -1;
#X obj 407 186 bng 12 250 50 0 empty empty empty 17 7 0 10 -262144
-228856 -1;
#X obj 421 186 bng 12 250 50 0 empty empty empty 17 7 0 10 -262144
-228856 -1;
#X obj 66 169 sel 0 1 2 3 4 5 6 7 8 9 10 11;
#X obj 66 76 t f f, f 8;
#X obj 66 52 clip 0 127;
#X obj 111 98 % 12;
#X obj 66 99 div 12;
#X obj 66 122 pack 0 0;
#X obj 267 200 bng 12 250 50 0 empty empty empty 17 7 0 10 -262144
-212212 -1;
#X obj 281 200 bng 12 250 50 0 empty empty empty 17 7 0 10 -262144
-212212 -1;
#X obj 295 200 bng 12 250 50 0 empty empty empty 17 7 0 10 -262144
-212212 -1;
#X obj 309 200 bng 12 250 50 0 empty empty empty 17 7 0 10 -262144
-212212 -1;
#X obj 323 200 bng 12 250 50 0 empty empty empty 17 7 0 10 -262144
-212212 -1;
#X obj 337 200 bng 12 250 50 0 empty empty empty 17 7 0 10 -262144
-212212 -1;
#X obj 351 200 bng 12 250 50 0 empty empty empty 17 7 0 10 -262144
-212212 -1;
#X obj 365 200 bng 12 250 50 0 empty empty empty 17 7 0 10 -262144
-212212 -1;
#X obj 379 200 bng 12 250 50 0 empty empty empty 17 7 0 10 -262144
-212212 -1;
#X obj 393 200 bng 12 250 50 0 empty empty empty 17 7 0 10 -262144
-212212 -1;
#X obj 407 200 bng 12 250 50 0 empty empty empty 17 7 0 10 -262144
-212212 -1;
#X obj 421 200 bng 12 250 50 0 empty empty empty 17 7 0 10 -262144
-212212 -1;
#X obj 66 183 sel 0 1 2 3 4 5 6 7 8 9 10 11;
#X obj 267 214 bng 12 250 50 0 empty empty empty 17 7 0 10 -262144
-174763 -1;
#X obj 281 214 bng 12 250 50 0 empty empty empty 17 7 0 10 -262144
-174763 -1;
#X obj 295 214 bng 12 250 50 0 empty empty empty 17 7 0 10 -262144
-174763 -1;
#X obj 309 214 bng 12 250 50 0 empty empty empty 17 7 0 10 -262144
-174763 -1;
#X obj 323 214 bng 12 250 50 0 empty empty empty 17 7 0 10 -262144
-174763 -1;
#X obj 337 214 bng 12 250 50 0 empty empty empty 17 7 0 10 -262144
-174763 -1;
#X obj 351 214 bng 12 250 50 0 empty empty empty 17 7 0 10 -262144
-174763 -1;
#X obj 365 214 bng 12 250 50 0 empty empty empty 17 7 0 10 -262144
-174763 -1;
#X obj 379 214 bng 12 250 50 0 empty empty empty 17 7 0 10 -262144
-174763 -1;
#X obj 393 214 bng 12 250 50 0 empty empty empty 17 7 0 10 -262144
-174763 -1;
#X obj 407 214 bng 12 250 50 0 empty empty empty 17 7 0 10 -262144
-174763 -1;
#X obj 421 214 bng 12 250 50 0 empty empty empty 17 7 0 10 -262144
-174763 -1;
#X obj 66 197 sel 0 1 2 3 4 5 6 7 8 9 10 11;
#X obj 267 228 bng 12 250 50 0 empty empty empty 17 7 0 10 -262144
-141475 -1;
#X obj 281 228 bng 12 250 50 0 empty empty empty 17 7 0 10 -262144
-141475 -1;
#X obj 295 228 bng 12 250 50 0 empty empty empty 17 7 0 10 -262144
-141475 -1;
#X obj 309 228 bng 12 250 50 0 empty empty empty 17 7 0 10 -262144
-141475 -1;
#X obj 323 228 bng 12 250 50 0 empty empty empty 17 7 0 10 -262144
-141475 -1;
#X obj 337 228 bng 12 250 50 0 empty empty empty 17 7 0 10 -262144
-141475 -1;
#X obj 351 228 bng 12 250 50 0 empty empty empty 17 7 0 10 -262144
-141475 -1;
#X obj 365 228 bng 12 250 50 0 empty empty empty 17 7 0 10 -262144
-141475 -1;
#X obj 379 228 bng 12 250 50 0 empty empty empty 17 7 0 10 -262144
-141475 -1;
#X obj 393 228 bng 12 250 50 0 empty empty empty 17 7 0 10 -262144
-141475 -1;
#X obj 407 228 bng 12 250 50 0 empty empty empty 17 7 0 10 -262144
-141475 -1;
#X obj 421 228 bng 12 250 50 0 empty empty empty 17 7 0 10 -262144
-141475 -1;
#X obj 66 211 sel 0 1 2 3 4 5 6 7 8 9 10 11;
#X obj 267 242 bng 12 250 50 0 empty empty empty 17 7 0 10 -262144
-104026 -1;
#X obj 281 242 bng 12 250 50 0 empty empty empty 17 7 0 10 -262144
-104026 -1;
#X obj 295 242 bng 12 250 50 0 empty empty empty 17 7 0 10 -262144
-104026 -1;
#X obj 309 242 bng 12 250 50 0 empty empty empty 17 7 0 10 -262144
-104026 -1;
#X obj 323 242 bng 12 250 50 0 empty empty empty 17 7 0 10 -262144
-104026 -1;
#X obj 337 242 bng 12 250 50 0 empty empty empty 17 7 0 10 -262144
-104026 -1;
#X obj 351 242 bng 12 250 50 0 empty empty empty 17 7 0 10 -262144
-104026 -1;
#X obj 365 242 bng 12 250 50 0 empty empty empty 17 7 0 10 -262144
-104026 -1;
#X obj 379 242 bng 12 250 50 0 empty empty empty 17 7 0 10 -262144
-104026 -1;
#X obj 393 242 bng 12 250 50 0 empty empty empty 17 7 0 10 -262144
-104026 -1;
#X obj 407 242 bng 12 250 50 0 empty empty empty 17 7 0 10 -262144
-104026 -1;
#X obj 421 242 bng 12 250 50 0 empty empty empty 17 7 0 10 -262144
-104026 -1;
#X obj 66 225 sel 0 1 2 3 4 5 6 7 8 9 10 11;
#X obj 267 256 bng 12 250 50 0 empty empty empty 17 7 0 10 -262144
-70738 -1;
#X obj 281 256 bng 12 250 50 0 empty empty empty 17 7 0 10 -262144
-70738 -1;
#X obj 295 256 bng 12 250 50 0 empty empty empty 17 7 0 10 -262144
-70738 -1;
#X obj 309 256 bng 12 250 50 0 empty empty empty 17 7 0 10 -262144
-70738 -1;
#X obj 323 256 bng 12 250 50 0 empty empty empty 17 7 0 10 -262144
-70738 -1;
#X obj 337 256 bng 12 250 50 0 empty empty empty 17 7 0 10 -262144
-70738 -1;
#X obj 351 256 bng 12 250 50 0 empty empty empty 17 7 0 10 -262144
-70738 -1;
#X obj 365 256 bng 12 250 50 0 empty empty empty 17 7 0 10 -262144
-70738 -1;
#X obj 379 256 bng 12 250 50 0 empty empty empty 17 7 0 10 -262144
-70738 -1;
#X obj 393 256 bng 12 250 50 0 empty empty empty 17 7 0 10 -262144
-70738 -1;
#X obj 407 256 bng 12 250 50 0 empty empty empty 17 7 0 10 -262144
-70738 -1;
#X obj 421 256 bng 12 250 50 0 empty empty empty 17 7 0 10 -262144
-70738 -1;
#X obj 66 239 sel 0 1 2 3 4 5 6 7 8 9 10 11;
#X obj 267 270 bng 12 250 50 0 empty empty empty 17 7 0 10 -262144
-33289 -1;
#X obj 281 270 bng 12 250 50 0 empty empty empty 17 7 0 10 -262144
-33289 -1;
#X obj 295 270 bng 12 250 50 0 empty empty empty 17 7 0 10 -262144
-33289 -1;
#X obj 309 270 bng 12 250 50 0 empty empty empty 17 7 0 10 -262144
-33289 -1;
#X obj 323 270 bng 12 250 50 0 empty empty empty 17 7 0 10 -262144
-33289 -1;
#X obj 337 270 bng 12 250 50 0 empty empty empty 17 7 0 10 -262144
-33289 -1;
#X obj 351 270 bng 12 250 50 0 empty empty empty 17 7 0 10 -262144
-33289 -1;
#X obj 365 270 bng 12 250 50 0 empty empty empty 17 7 0 10 -262144
-33289 -1;
#X obj 379 270 bng 12 250 50 0 empty empty empty 17 7 0 10 -262144
-33289 -1;
#X obj 393 270 bng 12 250 50 0 empty empty empty 17 7 0 10 -262144
-33289 -1;
#X obj 407 270 bng 12 250 50 0 empty empty empty 17 7 0 10 -262144
-33289 -1;
#X obj 421 270 bng 12 250 50 0 empty empty empty 17 7 0 10 -262144
-33289 -1;
#X obj 66 253 sel 0 1 2 3 4 5 6 7 8 9 10 11;
#X obj 267 284 bng 12 250 50 0 empty empty empty 17 7 0 10 -262144
-16645 -1;
#X obj 281 284 bng 12 250 50 0 empty empty empty 17 7 0 10 -262144
-16645 -1;
#X obj 295 284 bng 12 250 50 0 empty empty empty 17 7 0 10 -262144
-16645 -1;
#X obj 309 284 bng 12 250 50 0 empty empty empty 17 7 0 10 -262144
-16645 -1;
#X obj 323 284 bng 12 250 50 0 empty empty empty 17 7 0 10 -262144
-16645 -1;
#X obj 337 284 bng 12 250 50 0 empty empty empty 17 7 0 10 -262144
-16645 -1;
#X obj 351 284 bng 12 250 50 0 empty empty empty 17 7 0 10 -262144
-16645 -1;
#X obj 365 284 bng 12 250 50 0 empty empty empty 17 7 0 10 -262144
-1 -1;
#X obj 379 284 bng 12 250 50 0 empty empty empty 17 7 0 10 -262144
-16645 -1;
#X obj 393 284 bng 12 250 50 0 empty empty empty 17 7 0 10 -262144
-16645 -1;
#X obj 407 284 bng 12 250 50 0 empty empty empty 17 7 0 10 -262144
-16645 -1;
#X obj 421 284 bng 12 250 50 0 empty empty empty 17 7 0 10 -262144
-16645 -1;
#X obj 66 267 sel 0 1 2 3 4 5 6 7 8 9 10 11;
#X obj 267 298 bng 12 250 50 0 empty empty empty 17 7 0 10 -262144
-1 -1;
#X obj 281 298 bng 12 250 50 0 empty empty empty 17 7 0 10 -262144
-1 -1;
#X obj 295 298 bng 12 250 50 0 empty empty empty 17 7 0 10 -262144
-1 -1;
#X obj 309 298 bng 12 250 50 0 empty empty empty 17 7 0 10 -262144
-1 -1;
#X obj 323 298 bng 12 250 50 0 empty empty empty 17 7 0 10 -262144
-1 -1;
#X obj 337 298 bng 12 250 50 0 empty empty empty 17 7 0 10 -262144
-1 -1;
#X obj 351 298 bng 12 250 50 0 empty empty empty 17 7 0 10 -262144
-1 -1;
#X obj 365 298 bng 12 250 50 0 empty empty empty 17 7 0 10 -262144
-1 -1;
#X obj 379 298 bng 12 250 50 0 empty empty empty 17 7 0 10 -262144
-1 -1;
#X obj 393 298 bng 12 250 50 0 empty empty empty 17 7 0 10 -262144
-1 -1;
#X obj 407 298 bng 12 250 50 0 empty empty empty 17 7 0 10 -262144
-1 -1;
#X obj 421 298 bng 12 250 50 0 empty empty empty 17 7 0 10 -262144
-1 -1;
#X obj 66 281 sel 0 1 2 3 4 5 6 7 8 9 10 11;
#X obj 267 312 bng 12 250 50 0 empty empty empty 17 7 0 10 -262144
-1 -1;
#X obj 281 312 bng 12 250 50 0 empty empty empty 17 7 0 10 -262144
-1 -1;
#X obj 295 312 bng 12 250 50 0 empty empty empty 17 7 0 10 -262144
-1 -1;
#X obj 309 312 bng 12 250 50 0 empty empty empty 17 7 0 10 -262144
-1 -1;
#X obj 323 312 bng 12 250 50 0 empty empty empty 17 7 0 10 -262144
-1 -1;
#X obj 337 312 bng 12 250 50 0 empty empty empty 17 7 0 10 -262144
-1 -1;
#X obj 351 312 bng 12 250 50 0 empty empty empty 17 7 0 10 -262144
-1 -1;
#X obj 365 312 bng 12 250 50 0 empty empty empty 17 7 0 10 -262144
-1 -1;
#X obj 379 312 bng 12 250 50 0 empty empty empty 17 7 0 10 -262144
-1 -1;
#X obj 393 312 bng 12 250 50 0 empty empty empty 17 7 0 10 -262144
-1 -1;
#X obj 407 312 bng 12 250 50 0 empty empty empty 17 7 0 10 -262144
-1 -1;
#X obj 421 312 bng 12 250 50 0 empty empty empty 17 7 0 10 -262144
-1 -1;
#X obj 66 295 sel 0 1 2 3 4 5 6 7 8 9 10 11;
#X obj 66 145 route 0 1 2 3 4 5 6 7 8 9;
#X obj 66 23 inlet;
#X connect 12 0 0 0;
#X connect 12 1 1 0;
#X connect 12 2 2 0;
#X connect 12 3 3 0;
#X connect 12 4 4 0;
#X connect 12 5 5 0;
#X connect 12 6 6 0;
#X connect 12 7 7 0;
#X connect 12 8 8 0;
#X connect 12 9 9 0;
#X connect 12 10 10 0;
#X connect 12 11 11 0;
#X connect 13 0 16 0;
#X connect 13 1 15 0;
#X connect 14 0 13 0;
#X connect 15 0 17 1;
#X connect 16 0 17 0;
#X connect 17 0 135 0;
#X connect 30 0 18 0;
#X connect 30 1 19 0;
#X connect 30 2 20 0;
#X connect 30 3 21 0;
#X connect 30 4 22 0;
#X connect 30 5 23 0;
#X connect 30 6 24 0;
#X connect 30 7 25 0;
#X connect 30 8 26 0;
#X connect 30 9 27 0;
#X connect 30 10 28 0;
#X connect 30 11 29 0;
#X connect 43 0 31 0;
#X connect 43 1 32 0;
#X connect 43 2 33 0;
#X connect 43 3 34 0;
#X connect 43 4 35 0;
#X connect 43 5 36 0;
#X connect 43 6 37 0;
#X connect 43 7 38 0;
#X connect 43 8 39 0;
#X connect 43 9 40 0;
#X connect 43 10 41 0;
#X connect 43 11 42 0;
#X connect 56 0 44 0;
#X connect 56 1 45 0;
#X connect 56 2 46 0;
#X connect 56 3 47 0;
#X connect 56 4 48 0;
#X connect 56 5 49 0;
#X connect 56 6 50 0;
#X connect 56 7 51 0;
#X connect 56 8 52 0;
#X connect 56 9 53 0;
#X connect 56 10 54 0;
#X connect 56 11 55 0;
#X connect 69 0 57 0;
#X connect 69 1 58 0;
#X connect 69 2 59 0;
#X connect 69 3 60 0;
#X connect 69 4 61 0;
#X connect 69 5 62 0;
#X connect 69 6 63 0;
#X connect 69 7 64 0;
#X connect 69 8 65 0;
#X connect 69 9 66 0;
#X connect 69 10 67 0;
#X connect 69 11 68 0;
#X connect 82 0 70 0;
#X connect 82 1 71 0;
#X connect 82 2 72 0;
#X connect 82 3 73 0;
#X connect 82 4 74 0;
#X connect 82 5 75 0;
#X connect 82 6 76 0;
#X connect 82 7 77 0;
#X connect 82 8 78 0;
#X connect 82 9 79 0;
#X connect 82 10 80 0;
#X connect 82 11 81 0;
#X connect 95 0 83 0;
#X connect 95 1 84 0;
#X connect 95 2 85 0;
#X connect 95 3 86 0;
#X connect 95 4 87 0;
#X connect 95 5 88 0;
#X connect 95 6 89 0;
#X connect 95 7 90 0;
#X connect 95 8 91 0;
#X connect 95 9 92 0;
#X connect 95 10 93 0;
#X connect 95 11 94 0;
#X connect 108 0 96 0;
#X connect 108 1 97 0;
#X connect 108 2 98 0;
#X connect 108 3 99 0;
#X connect 108 4 100 0;
#X connect 108 5 101 0;
#X connect 108 6 102 0;
#X connect 108 7 103 0;
#X connect 108 8 104 0;
#X connect 108 9 105 0;
#X connect 108 10 106 0;
#X connect 108 11 107 0;
#X connect 121 0 109 0;
#X connect 121 1 110 0;
#X connect 121 2 111 0;
#X connect 121 3 112 0;
#X connect 121 4 113 0;
#X connect 121 5 114 0;
#X connect 121 6 115 0;
#X connect 121 7 116 0;
#X connect 121 8 117 0;
#X connect 121 9 118 0;
#X connect 121 10 119 0;
#X connect 121 11 120 0;
#X connect 134 0 122 0;
#X connect 134 1 123 0;
#X connect 134 2 124 0;
#X connect 134 3 125 0;
#X connect 134 4 126 0;
#X connect 134 5 127 0;
#X connect 134 6 128 0;
#X connect 134 7 129 0;
#X connect 134 8 130 0;
#X connect 134 9 131 0;
#X connect 134 10 132 0;
#X connect 134 11 133 0;
#X connect 135 0 134 0;
#X connect 135 1 121 0;
#X connect 135 2 108 0;
#X connect 135 3 95 0;
#X connect 135 4 82 0;
#X connect 135 5 69 0;
#X connect 135 6 56 0;
#X connect 135 7 43 0;
#X connect 135 8 30 0;
#X connect 135 9 12 0;
#X connect 136 0 14 0;
#X coords 0 -1 1 1 180 150 2 260 180;
