#N canvas 557 414 599 300 10;
#X obj 49 185 outlet;
#X obj 49 41 inlet;
#X obj 49 87 f 0;
#X obj 87 87 + 1;
#X obj 115 87 % \$1;
#X obj 88 41 r sync;
#X msg 88 64 0;
#X obj 265 41 loadbang;
#X msg 265 71 10;
#X obj 197 41 inlet;
#X obj 49 136 expr floor(cos($f1*$f2)*$f3), f 50;
#X obj 346 41 inlet;
#X obj 49 110 t f f, f 38;
#X obj 274 160 sel 0;
#X obj 274 185 outlet;
#X obj 136 41 inlet;
#X connect 1 0 2 0;
#X connect 2 0 3 0;
#X connect 2 0 12 0;
#X connect 3 0 4 0;
#X connect 4 0 2 1;
#X connect 5 0 6 0;
#X connect 6 0 2 1;
#X connect 7 0 8 0;
#X connect 8 0 4 1;
#X connect 8 0 10 1;
#X connect 8 0 10 2;
#X connect 9 0 10 1;
#X connect 10 0 0 0;
#X connect 11 0 10 2;
#X connect 12 0 10 0;
#X connect 12 1 13 0;
#X connect 13 0 14 0;
#X connect 15 0 4 1;
