#N canvas 178 360 295 388 10;
#X obj 86 41 inlet;
#X obj 86 170 mtof;
#X obj 120 194 line, f 6;
#X obj 86 265 clip~ -1 1, f 12;
#X obj 120 217 t f f, f 6;
#X obj 120 240 * -1;
#X obj 86 193 osc~;
#X obj 87 288 lop~ 3000;
#X obj 87 328 outlet~;
#X obj 86 75 t f b b, f 12;
#X obj 120 121 f \$3;
#X obj 155 121 f \$2;
#X obj 120 99 del \$2;
#X msg 120 143 0 \$1;
#X msg 130 169 0.5 \$1;
#X connect 0 0 9 0;
#X connect 1 0 6 0;
#X connect 2 0 4 0;
#X connect 3 0 7 0;
#X connect 4 0 5 0;
#X connect 4 1 3 2;
#X connect 5 0 3 1;
#X connect 6 0 3 0;
#X connect 7 0 8 0;
#X connect 9 0 1 0;
#X connect 9 1 12 0;
#X connect 9 2 11 0;
#X connect 10 0 13 0;
#X connect 11 0 14 0;
#X connect 12 0 10 0;
#X connect 13 0 2 0;
#X connect 14 0 2 0;
