#N canvas 593 264 450 402 10;
#X obj 69 230 expr~ round($v1 / $f2);
#X floatatom 198 201 5 0 0 0 - - -;
#X obj 70 256 *~;
#X obj 71 314 *~;
#X obj 95 67 hsl 60 15 1 16 0 0 empty empty empty -2 -8 0 10 -262144
-1 -1 0 1;
#X floatatom 198 130 5 0 0 0 - - -;
#X floatatom 161 67 2 0 0 1 bit - -;
#X obj 198 178 expr 1 / $f1;
#X obj 229 80 i;
#X obj 130 152 expr pow(2 \, $f1);
#X obj 68 7 inlet~;
#X obj 72 355 outlet~;
#X obj 95 86 hsl 100 15 0 1 0 0 empty empty empty -2 -8 0 10 -191407
-1 -1 0 1;
#X obj 86 184 pack \$1 500;
#X obj 86 207 line;
#X obj 228 28 loadbang;
#X msg 228 51 1;
#X connect 0 0 2 0;
#X connect 1 0 0 1;
#X connect 1 0 2 1;
#X connect 2 0 3 0;
#X connect 3 0 11 0;
#X connect 4 0 8 0;
#X connect 5 0 7 0;
#X connect 6 0 9 0;
#X connect 7 0 1 0;
#X connect 8 0 6 0;
#X connect 9 0 5 0;
#X connect 10 0 0 0;
#X connect 12 0 13 0;
#X connect 13 0 14 0;
#X connect 14 0 3 1;
#X connect 15 0 16 0;
#X connect 16 0 6 0;
#X coords 0 -1 1 1 120 70 1 85 40;
