#N canvas 313 185 870 534 10;
#X obj 185 92 sel 0 1 2 3 4 5 6, f 73;
#X obj 185 118 random 7;
#X obj 247 118 random 4;
#X obj 247 141 sel 0 1 2 3;
#X msg 247 167 4;
#X msg 278 167 3;
#X msg 307 167 5;
#X obj 185 408 t f f;
#X obj 650 424 pipe 10;
#X obj 185 66 f 0, f 78;
#X obj 309 118 random 4;
#X obj 309 192 sel 0 1 2 3;
#X msg 309 218 3;
#X msg 340 218 4;
#X msg 369 218 6;
#X obj 371 118 random 4;
#X obj 371 141 sel 0 1 2 3;
#X msg 371 167 5;
#X msg 402 167 4;
#X msg 431 167 6;
#X obj 433 118 random 4;
#X obj 433 219 sel 0 1 2 3;
#X msg 433 245 0;
#X msg 464 245 6;
#X obj 495 118 random 4;
#X obj 495 141 sel 0 1 2 3;
#X msg 495 167 1;
#X msg 526 167 3;
#X msg 493 245 1;
#X obj 557 118 random 4;
#X obj 557 219 sel 0 1 2 3;
#X msg 557 245 0;
#X msg 617 245 1;
#X msg 588 245 4;
#X obj 371 350 sel 0 1, f 8;
#X obj 371 305 t b;
#X obj 371 283 sel 4, f 8;
#X msg 398 305 0;
#X obj 371 327 random 3;
#X msg 371 375 0;
#X obj 371 480 outlet;
#X obj 185 480 outlet;
#X obj 185 383 pipe 10;
#X floatatom 371 398 5 0 0 0 - - -;
#X obj 309 350 sel 0 1, f 8;
#X obj 309 305 t b;
#X obj 309 283 sel 4, f 8;
#X msg 336 305 0;
#X obj 309 327 random 3;
#X msg 309 375 0;
#X floatatom 309 398 5 0 0 0 - - -;
#X obj 247 350 sel 0 1, f 8;
#X obj 247 305 t b;
#X obj 247 283 sel 4, f 8;
#X msg 274 305 0;
#X obj 247 327 random 3;
#X msg 247 375 0;
#X floatatom 247 398 5 0 0 0 - - -;
#X obj 557 350 sel 0 1, f 8;
#X obj 557 305 t b;
#X obj 557 283 sel 4, f 8;
#X msg 584 305 0;
#X obj 557 327 random 3;
#X msg 557 375 0;
#X floatatom 557 398 5 0 0 0 - - -;
#X obj 185 11 inlet;
#X obj 185 43 t b;
#X msg 276 375 7;
#X msg 338 375 9;
#X msg 400 375 4;
#X msg 586 375 5;
#X obj 634 11 inlet;
#X msg 634 43 seed \$1;
#X connect 0 0 1 0;
#X connect 0 1 2 0;
#X connect 0 2 10 0;
#X connect 0 3 15 0;
#X connect 0 4 20 0;
#X connect 0 5 24 0;
#X connect 0 6 29 0;
#X connect 1 0 42 0;
#X connect 2 0 3 0;
#X connect 3 0 4 0;
#X connect 3 1 4 0;
#X connect 3 2 5 0;
#X connect 3 3 6 0;
#X connect 4 0 53 0;
#X connect 4 0 42 0;
#X connect 5 0 53 0;
#X connect 5 0 42 0;
#X connect 6 0 53 0;
#X connect 6 0 42 0;
#X connect 7 0 41 0;
#X connect 7 1 8 0;
#X connect 8 0 9 1;
#X connect 9 0 0 0;
#X connect 10 0 11 0;
#X connect 11 0 12 0;
#X connect 11 1 12 0;
#X connect 11 2 13 0;
#X connect 11 3 14 0;
#X connect 12 0 46 0;
#X connect 12 0 42 0;
#X connect 13 0 46 0;
#X connect 13 0 42 0;
#X connect 14 0 46 0;
#X connect 14 0 42 0;
#X connect 15 0 16 0;
#X connect 16 0 17 0;
#X connect 16 1 17 0;
#X connect 16 2 18 0;
#X connect 16 3 19 0;
#X connect 17 0 36 0;
#X connect 17 0 42 0;
#X connect 18 0 36 0;
#X connect 18 0 42 0;
#X connect 19 0 36 0;
#X connect 19 0 42 0;
#X connect 20 0 21 0;
#X connect 21 0 22 0;
#X connect 21 1 22 0;
#X connect 21 2 23 0;
#X connect 21 3 28 0;
#X connect 22 0 42 0;
#X connect 23 0 42 0;
#X connect 24 0 25 0;
#X connect 25 0 26 0;
#X connect 25 1 26 0;
#X connect 25 2 27 0;
#X connect 25 3 27 0;
#X connect 26 0 42 0;
#X connect 27 0 42 0;
#X connect 28 0 42 0;
#X connect 29 0 30 0;
#X connect 30 0 31 0;
#X connect 30 1 31 0;
#X connect 30 2 33 0;
#X connect 30 3 32 0;
#X connect 31 0 60 0;
#X connect 31 0 42 0;
#X connect 32 0 60 0;
#X connect 32 0 42 0;
#X connect 33 0 60 0;
#X connect 33 0 42 0;
#X connect 34 0 39 0;
#X connect 34 1 39 0;
#X connect 34 2 69 0;
#X connect 35 0 38 0;
#X connect 36 0 35 0;
#X connect 36 1 37 0;
#X connect 37 0 43 0;
#X connect 38 0 34 0;
#X connect 39 0 43 0;
#X connect 42 0 7 0;
#X connect 43 0 40 0;
#X connect 44 0 49 0;
#X connect 44 1 49 0;
#X connect 44 2 68 0;
#X connect 45 0 48 0;
#X connect 46 0 45 0;
#X connect 46 1 47 0;
#X connect 47 0 50 0;
#X connect 48 0 44 0;
#X connect 49 0 50 0;
#X connect 50 0 40 0;
#X connect 51 0 56 0;
#X connect 51 1 56 0;
#X connect 51 2 67 0;
#X connect 52 0 55 0;
#X connect 53 0 52 0;
#X connect 53 1 54 0;
#X connect 54 0 57 0;
#X connect 55 0 51 0;
#X connect 56 0 57 0;
#X connect 57 0 40 0;
#X connect 58 0 63 0;
#X connect 58 1 63 0;
#X connect 58 2 70 0;
#X connect 59 0 62 0;
#X connect 60 0 59 0;
#X connect 60 1 61 0;
#X connect 61 0 64 0;
#X connect 62 0 58 0;
#X connect 63 0 64 0;
#X connect 64 0 40 0;
#X connect 65 0 66 0;
#X connect 66 0 9 0;
#X connect 67 0 57 0;
#X connect 68 0 50 0;
#X connect 69 0 43 0;
#X connect 70 0 64 0;
#X connect 71 0 72 0;
#X connect 72 0 29 0;
#X connect 72 0 24 0;
#X connect 72 0 20 0;
#X connect 72 0 15 0;
#X connect 72 0 10 0;
#X connect 72 0 2 0;
#X connect 72 0 1 0;
