#N canvas 576 198 652 551 10;
#X obj 154 384 + 0;
#X obj 154 428 t f f;
#X obj 168 361 f 0;
#X obj 154 337 t f b;
#X obj 154 313 list store;
#X msg 154 290 get \$1 1;
#X obj 154 267 f 0;
#X obj 179 267 + 1;
#X obj 204 267 % 2;
#X obj 219 244 list length;
#X obj 200 221 t b a a;
#X msg 169 221 0;
#X obj 154 30 inlet;
#X obj 200 30 inlet;
#X msg 200 101 1 1;
#X msg 214 123 -1 -1;
#X msg 230 146 2 2;
#X msg 244 168 -2 -2;
#X msg 260 101 3 3;
#X msg 276 123 -3 -3;
#X obj 200 53 random 16;
#X obj 200 76 sel 0 1 2 3 4 5 6 7 8 9 10 11 12 13 14 15;
#X msg 321 101 1 -2;
#X msg 336 123 -1 2;
#X msg 352 146 2 -1;
#X msg 367 168 -2 1;
#X msg 382 101 1 -3;
#X msg 398 123 -3 1;
#X obj 154 450 outlet;
#X msg 291 146 1 -1;
#X msg 305 168 -1 1;
#X msg 413 146 2 -2;
#X msg 427 168 -2 2;
#X obj 154 406 expr if($f1>12 || $f1<-12 \, 0 \, $f1);
#X connect 0 0 33 0;
#X connect 1 0 28 0;
#X connect 1 1 2 1;
#X connect 2 0 0 1;
#X connect 3 0 0 0;
#X connect 3 1 2 0;
#X connect 4 0 3 0;
#X connect 5 0 4 0;
#X connect 6 0 7 0;
#X connect 6 0 5 0;
#X connect 7 0 8 0;
#X connect 8 0 6 1;
#X connect 9 0 8 1;
#X connect 10 0 11 0;
#X connect 10 1 9 0;
#X connect 10 2 4 1;
#X connect 11 0 6 1;
#X connect 12 0 6 0;
#X connect 13 0 20 0;
#X connect 14 0 10 0;
#X connect 15 0 10 0;
#X connect 16 0 10 0;
#X connect 17 0 10 0;
#X connect 18 0 10 0;
#X connect 19 0 10 0;
#X connect 20 0 21 0;
#X connect 21 0 14 0;
#X connect 21 1 15 0;
#X connect 21 2 16 0;
#X connect 21 3 17 0;
#X connect 21 4 18 0;
#X connect 21 5 19 0;
#X connect 21 6 29 0;
#X connect 21 7 30 0;
#X connect 21 8 22 0;
#X connect 21 9 23 0;
#X connect 21 10 24 0;
#X connect 21 11 25 0;
#X connect 21 12 26 0;
#X connect 21 13 27 0;
#X connect 21 14 31 0;
#X connect 21 15 32 0;
#X connect 22 0 10 0;
#X connect 23 0 10 0;
#X connect 24 0 10 0;
#X connect 25 0 10 0;
#X connect 26 0 10 0;
#X connect 27 0 10 0;
#X connect 29 0 10 0;
#X connect 30 0 10 0;
#X connect 31 0 10 0;
#X connect 32 0 10 0;
#X connect 33 0 1 0;
