#N canvas 730 152 588 591 10;
#X obj 33 37 bng 15 250 50 0 empty empty empty 17 7 0 10 -262144 -1
-1;
#X obj 193 202 i;
#X obj 33 4 inlet;
#X obj 334 175 noise~;
#X obj 333 282 *~;
#X obj 386 176 bng 15 250 50 0 empty empty empty 17 7 0 10 -262144
-1 -1;
#X obj 386 242 vline~;
#X obj 220 464 *~ 0.2;
#X floatatom 423 183 5 0 0 0 - - -;
#X obj 386 198 f 30;
#X obj 193 224 t b f;
#X obj 220 246 mtof;
#X floatatom 220 288 5 0 0 0 - - -;
#X obj 220 372 *~ 0.99;
#X floatatom 259 350 5 0.1 0.99 0 - - -;
#X obj 220 395 lop~ 1000;
#X obj 220 418 lop~ 1000;
#X obj 220 441 lop~ 1000;
#X floatatom 379 380 5 0 0 0 - - -;
#X msg 386 219 1 10 \, 0 \$1 20;
#X obj 386 265 pow~ 4;
#X obj 220 267 expr $f2/$f1;
#X floatatom 289 234 5 0 0 0 - - -;
#X floatatom 445 266 5 0 0 0 - - -;
#X obj 495 231 hradio 14 1 0 4 empty empty empty 0 -8 0 10 -262144
-1 -1 2;
#X obj 445 243 + 1;
#X obj 219 500 outlet~;
#X obj 220 310 delread4~ \$0-cage;
#X obj 333 309 delwrite~ \$0-cage 1000;
#X obj 208 7 r tone;
#X obj 495 3 r pow;
#X obj 232 149 clip 0.1 0.99;
#X obj 33 57 t b b b b b, f 67;
#X obj 432 103 + 20;
#X obj 232 82 random 100;
#X floatatom 208 30 5 0 0 0 - - -;
#X obj 432 82 random 2000;
#X obj 232 104 / 1000;
#X obj 332 103 + 1000;
#X obj 132 104 + 1000;
#X obj 132 83 random 5000;
#X obj 332 82 random 8000;
#X obj 232 127 + 0.88;
#X connect 0 0 32 0;
#X connect 1 0 10 0;
#X connect 2 0 0 0;
#X connect 3 0 4 0;
#X connect 4 0 28 0;
#X connect 5 0 9 0;
#X connect 6 0 20 0;
#X connect 7 0 26 0;
#X connect 8 0 9 1;
#X connect 9 0 19 0;
#X connect 10 0 5 0;
#X connect 10 1 11 0;
#X connect 11 0 21 0;
#X connect 12 0 27 0;
#X connect 13 0 15 0;
#X connect 14 0 13 1;
#X connect 15 0 16 0;
#X connect 16 0 17 0;
#X connect 17 0 7 0;
#X connect 17 0 28 0;
#X connect 18 0 15 1;
#X connect 18 0 17 1;
#X connect 18 0 16 1;
#X connect 19 0 6 0;
#X connect 20 0 4 1;
#X connect 21 0 12 0;
#X connect 22 0 21 1;
#X connect 23 0 20 1;
#X connect 24 0 25 0;
#X connect 25 0 23 0;
#X connect 27 0 13 0;
#X connect 29 0 35 0;
#X connect 30 0 24 0;
#X connect 31 0 14 0;
#X connect 32 0 1 0;
#X connect 32 1 40 0;
#X connect 32 2 34 0;
#X connect 32 3 41 0;
#X connect 32 4 36 0;
#X connect 33 0 8 0;
#X connect 34 0 37 0;
#X connect 35 0 1 1;
#X connect 36 0 33 0;
#X connect 37 0 42 0;
#X connect 38 0 18 0;
#X connect 39 0 22 0;
#X connect 40 0 39 0;
#X connect 41 0 38 0;
#X connect 42 0 31 0;
#X coords 0 591 1 590 95 140 0;
