#N canvas 783 313 484 395 10;
#X obj 124 150 f 0;
#X obj 149 150 + 1;
#X obj 43 127 t f b, f 14;
#X obj 124 173 sel 0;
#X obj 149 196 + 1;
#X obj 124 196 f 0;
#X obj 43 42 inlet;
#X obj 43 268 outlet;
#X obj 43 94 f 0;
#X obj 124 219 pipe 20;
#X obj 70 94 + \$2;
#X obj 104 94 % \$1;
#X obj 175 150 % \$2;
#X obj 175 196 % \$1;
#X connect 0 0 1 0;
#X connect 0 0 3 0;
#X connect 1 0 12 0;
#X connect 2 0 7 0;
#X connect 2 1 0 0;
#X connect 3 0 5 0;
#X connect 4 0 13 0;
#X connect 5 0 4 0;
#X connect 5 0 9 0;
#X connect 6 0 8 0;
#X connect 8 0 2 0;
#X connect 8 0 10 0;
#X connect 9 0 8 1;
#X connect 10 0 11 0;
#X connect 11 0 8 1;
#X connect 12 0 0 1;
#X connect 13 0 5 1;
