#N canvas 424 207 747 519 10;
#X obj 73 294 f 0, f 5;
#X obj 73 341 t f f;
#X obj 73 318 expr ($f1 + $f2) % $f3, f 52;
#X obj 227 222 f 0, f 5;
#X obj 227 269 t f f;
#X obj 227 105 random 1000;
#X obj 227 128 / 1000;
#X obj 227 151 t f b, f 6;
#X obj 227 175 <;
#X obj 227 198 sel 1;
#X obj 382 222 f 0, f 5;
#X obj 382 269 t f f;
#X obj 382 105 random 1000;
#X obj 382 128 / 1000;
#X obj 382 151 t f b, f 6;
#X obj 382 175 <;
#X obj 382 198 sel 1;
#X obj 73 81 t b b b, f 52;
#X obj 73 26 inlet;
#X obj 73 403 outlet;
#X obj 227 292 - 6;
#X obj 494 26 inlet;
#X msg 494 89 seed \$1;
#X obj 293 151 clip 0 1;
#X obj 448 151 clip 0 1;
#X obj 293 26 inlet;
#X obj 448 26 inlet;
#X obj 254 292 change -1;
#X obj 254 403 outlet;
#X obj 410 292 change -1;
#X obj 410 403 outlet;
#X obj 382 292 + 2;
#X obj 260 174 f 0.5;
#X obj 415 174 f 0.1;
#X obj 227 246 expr ($f1 + $f2) % $f3;
#X obj 291 222 f \$1;
#X obj 334 222 f \$2;
#X obj 382 246 expr ($f1 + $f2) % $f3;
#X obj 446 222 f \$3;
#X obj 489 222 f \$4;
#X obj 395 81 loadbang;
#X obj 100 183 r sync;
#X msg 100 206 0;
#X connect 0 0 2 0;
#X connect 1 0 19 0;
#X connect 1 1 0 1;
#X connect 2 0 1 0;
#X connect 3 0 34 0;
#X connect 4 0 20 0;
#X connect 4 1 3 1;
#X connect 4 1 27 0;
#X connect 5 0 6 0;
#X connect 6 0 7 0;
#X connect 7 0 8 0;
#X connect 7 1 32 0;
#X connect 8 0 9 0;
#X connect 9 0 3 0;
#X connect 10 0 37 0;
#X connect 11 0 31 0;
#X connect 11 1 10 1;
#X connect 11 1 29 0;
#X connect 12 0 13 0;
#X connect 13 0 14 0;
#X connect 14 0 15 0;
#X connect 14 1 33 0;
#X connect 15 0 16 0;
#X connect 16 0 10 0;
#X connect 17 0 0 0;
#X connect 17 1 5 0;
#X connect 17 2 12 0;
#X connect 18 0 17 0;
#X connect 20 0 2 1;
#X connect 21 0 22 0;
#X connect 22 0 5 0;
#X connect 22 0 12 0;
#X connect 23 0 32 1;
#X connect 24 0 33 1;
#X connect 25 0 23 0;
#X connect 26 0 24 0;
#X connect 27 0 28 0;
#X connect 29 0 30 0;
#X connect 31 0 2 2;
#X connect 32 0 8 1;
#X connect 33 0 15 1;
#X connect 34 0 4 0;
#X connect 35 0 34 1;
#X connect 36 0 34 2;
#X connect 37 0 11 0;
#X connect 38 0 37 1;
#X connect 39 0 37 2;
#X connect 40 0 35 0;
#X connect 40 0 39 0;
#X connect 40 0 38 0;
#X connect 40 0 36 0;
#X connect 41 0 42 0;
#X connect 42 0 0 1;
#X connect 42 0 3 1;
#X connect 42 0 10 1;
