#N canvas 660 245 450 341 10;
#X obj 55 211 expr ($f1 % $f2 == $f3) || ($f1 % $f4 == $f5);
#X obj 55 125 f 0;
#X obj 81 125 + 1;
#X obj 107 125 % 16;
#X obj 55 17 inlet;
#X obj 70 80 r sync;
#X msg 70 103 0;
#X obj 55 234 sel 1;
#X obj 121 187 clip 3 32;
#X obj 255 187 clip 3 32;
#X obj 188 187 clip 0 15;
#X obj 322 187 clip 0 15;
#X obj 121 164 f \$1;
#X obj 142 17 inlet;
#X obj 209 17 inlet;
#X obj 188 164 f \$2;
#X obj 276 17 inlet;
#X obj 255 164 f \$3;
#X obj 343 17 inlet;
#X obj 322 164 f \$4;
#X obj 55 53 t b b, f 23;
#X obj 55 299 outlet;
#X connect 0 0 7 0;
#X connect 1 0 2 0;
#X connect 1 0 0 0;
#X connect 2 0 3 0;
#X connect 3 0 1 1;
#X connect 4 0 20 0;
#X connect 5 0 6 0;
#X connect 6 0 1 1;
#X connect 7 0 21 0;
#X connect 8 0 0 1;
#X connect 9 0 0 3;
#X connect 10 0 0 2;
#X connect 11 0 0 4;
#X connect 12 0 8 0;
#X connect 13 0 12 1;
#X connect 14 0 15 1;
#X connect 15 0 10 0;
#X connect 16 0 17 1;
#X connect 17 0 9 0;
#X connect 18 0 19 1;
#X connect 19 0 11 0;
#X connect 20 0 1 0;
#X connect 20 1 12 0;
#X connect 20 1 19 0;
#X connect 20 1 17 0;
#X connect 20 1 15 0;
