#N canvas 322 157 834 582 10;
#X obj 97 123 f 0;
#X obj 123 123 + 1;
#X obj 97 146 t f f;
#X obj 140 169 f 0;
#X obj 166 169 + 1;
#X obj 140 192 t f f;
#X obj 184 215 f 0;
#X obj 210 215 + 1;
#X obj 138 146 sel 0;
#X obj 184 192 sel 0;
#X msg 198 106 0;
#X obj 97 244 t f f;
#X obj 140 244 t f f;
#X obj 184 244 t f f;
#X obj 124 270 +, f 8;
#X obj 124 294 +, f 15;
#X floatatom 124 342 5 0 0 0 - - -;
#X obj 82 416 f 0;
#X obj 125 416 f 0;
#X obj 169 416 f 0;
#X obj 124 364 sel 1;
#X obj 67 470 outlet;
#X obj 125 470 outlet;
#X obj 181 470 outlet;
#X obj 198 82 r sync;
#X obj 97 38 inlet;
#X obj 150 123 % \$1;
#X obj 193 169 % \$1;
#X obj 237 215 % \$1;
#X obj 124 319 == 0;
#X obj 237 280 f \$2;
#X obj 237 244 loadbang;
#X obj 237 303 + 1;
#X connect 0 0 1 0;
#X connect 0 0 2 0;
#X connect 1 0 26 0;
#X connect 2 0 11 0;
#X connect 2 1 8 0;
#X connect 3 0 4 0;
#X connect 3 0 5 0;
#X connect 4 0 27 0;
#X connect 5 0 12 0;
#X connect 5 1 9 0;
#X connect 6 0 7 0;
#X connect 6 0 13 0;
#X connect 7 0 28 0;
#X connect 8 0 3 0;
#X connect 9 0 6 0;
#X connect 10 0 0 1;
#X connect 10 0 3 1;
#X connect 10 0 6 1;
#X connect 11 0 17 1;
#X connect 11 1 14 0;
#X connect 12 0 18 1;
#X connect 12 1 14 1;
#X connect 13 0 19 1;
#X connect 13 1 15 1;
#X connect 14 0 15 0;
#X connect 15 0 29 0;
#X connect 16 0 20 0;
#X connect 17 0 21 0;
#X connect 18 0 22 0;
#X connect 19 0 23 0;
#X connect 20 0 17 0;
#X connect 20 0 18 0;
#X connect 20 0 19 0;
#X connect 24 0 10 0;
#X connect 25 0 0 0;
#X connect 26 0 0 1;
#X connect 27 0 3 1;
#X connect 28 0 6 1;
#X connect 29 0 16 0;
#X connect 30 0 32 0;
#X connect 31 0 30 0;
#X connect 32 0 29 1;
