#N canvas 289 248 918 427 10;
#X obj 57 9 inlet;
#X obj 57 240 f 0;
#X obj 87 240 + 1;
#X obj 119 240 % 12;
#X obj 140 217 * 12;
#X obj 57 286 % 126;
#X obj 57 315 outlet;
#X obj 57 140 f 0;
#X obj 57 162 + 1;
#X obj 57 185 % 4;
#X obj 57 208 sel 0;
#X obj 57 263 + 0;
#X obj 72 93 i \$2;
#X obj 134 93 i \$3;
#X obj 196 92 i \$4;
#X obj 196 115 clip 1 6;
#X obj 72 116 clip 1 32;
#X obj 134 116 clip 1 12;
#X obj 254 91 i \$5;
#X obj 254 114 clip 0 88;
#X obj 57 38 t b b b b b;
#X connect 0 0 20 0;
#X connect 1 0 2 0;
#X connect 1 0 11 0;
#X connect 2 0 3 0;
#X connect 3 0 1 1;
#X connect 4 0 3 1;
#X connect 5 0 6 0;
#X connect 7 0 8 0;
#X connect 8 0 9 0;
#X connect 9 0 7 1;
#X connect 9 0 10 0;
#X connect 10 0 1 0;
#X connect 11 0 5 0;
#X connect 12 0 16 0;
#X connect 13 0 17 0;
#X connect 14 0 15 0;
#X connect 15 0 4 0;
#X connect 16 0 9 1;
#X connect 17 0 2 1;
#X connect 18 0 19 0;
#X connect 19 0 11 1;
#X connect 20 0 7 0;
#X connect 20 1 12 0;
#X connect 20 2 13 0;
#X connect 20 3 14 0;
#X connect 20 4 18 0;
#X coords 0 427 1 426 200 60 0;
