#N canvas 255 179 804 542 10;
#X obj 99 188 f 0;
#X obj 139 188 + 1;
#X obj 173 188 % 12;
#X obj 114 116 t b f;
#X obj 154 162 * 1, f 5;
#X obj 154 116 t b f;
#X obj 194 116 t b f;
#X obj 194 162 * 12, f 5;
#X obj 269 188 f 0;
#X obj 309 188 + 1;
#X obj 343 188 % 12;
#X obj 284 116 t b f;
#X obj 324 116 t b f;
#X obj 364 116 t b f;
#X obj 364 162 * 12, f 5;
#X obj 324 140 f 2, f 5;
#X obj 154 140 f 1, f 5;
#X obj 419 188 f 0;
#X obj 459 188 + 1;
#X obj 493 188 % 12;
#X obj 434 116 t b f;
#X obj 474 116 t b f;
#X obj 514 116 t b f;
#X obj 514 162 * 12, f 5;
#X obj 474 140 f 3, f 5;
#X obj 194 140 f 1, f 5;
#X obj 364 140 f 1, f 5;
#X obj 514 140 f 1, f 5;
#X obj 324 162 * 2, f 5;
#X obj 474 162 * 3, f 5;
#X obj 114 162 * 1, f 5;
#X obj 114 140 i 0, f 5;
#X obj 284 140 i 0, f 5;
#X obj 284 162 * 2, f 5;
#X obj 434 140 i 0, f 5;
#X obj 434 162 * 3, f 5;
#X obj 99 17 inlet;
#X obj 99 78 bang;
#X obj 269 262 outlet;
#X obj 219 78 i \$1;
#X obj 324 78 f \$2;
#X obj 435 78 f \$3;
#X obj 219 17 inlet;
#X obj 219 54 clip 0 12;
#X obj 324 17 inlet;
#X obj 435 17 inlet;
#X obj 520 62 loadbang;
#X obj 324 54 clip -6 6;
#X obj 435 54 clip 0 5;
#X connect 0 0 1 0;
#X connect 0 0 38 0;
#X connect 1 0 2 0;
#X connect 2 0 0 1;
#X connect 3 0 31 0;
#X connect 3 1 31 1;
#X connect 4 0 1 1;
#X connect 5 0 16 0;
#X connect 5 1 16 1;
#X connect 6 0 25 0;
#X connect 6 1 25 1;
#X connect 7 0 2 1;
#X connect 8 0 9 0;
#X connect 8 0 38 0;
#X connect 9 0 10 0;
#X connect 10 0 8 1;
#X connect 11 0 32 0;
#X connect 11 1 32 1;
#X connect 12 0 15 0;
#X connect 12 1 15 1;
#X connect 13 0 26 0;
#X connect 13 1 26 1;
#X connect 14 0 10 1;
#X connect 15 0 28 0;
#X connect 16 0 4 0;
#X connect 17 0 18 0;
#X connect 17 0 38 0;
#X connect 18 0 19 0;
#X connect 19 0 17 1;
#X connect 20 0 34 0;
#X connect 20 1 34 1;
#X connect 21 0 24 0;
#X connect 21 1 24 1;
#X connect 22 0 27 0;
#X connect 22 1 27 1;
#X connect 23 0 19 1;
#X connect 24 0 29 0;
#X connect 25 0 7 0;
#X connect 26 0 14 0;
#X connect 27 0 23 0;
#X connect 28 0 9 1;
#X connect 29 0 18 1;
#X connect 30 0 0 1;
#X connect 31 0 30 0;
#X connect 32 0 33 0;
#X connect 33 0 8 1;
#X connect 34 0 35 0;
#X connect 35 0 17 1;
#X connect 36 0 37 0;
#X connect 37 0 0 0;
#X connect 37 0 8 0;
#X connect 37 0 17 0;
#X connect 39 0 20 0;
#X connect 39 0 3 0;
#X connect 39 0 11 0;
#X connect 40 0 5 0;
#X connect 40 0 12 0;
#X connect 40 0 21 0;
#X connect 41 0 6 0;
#X connect 41 0 13 0;
#X connect 41 0 22 0;
#X connect 42 0 43 0;
#X connect 43 0 39 0;
#X connect 44 0 47 0;
#X connect 45 0 48 0;
#X connect 46 0 39 0;
#X connect 46 0 41 0;
#X connect 46 0 40 0;
#X connect 47 0 40 0;
#X connect 48 0 41 0;
