#N canvas 6 116 450 300 10;
#X obj 56 26 inlet;
#X obj 56 109 f 0;
#X obj 56 192 outlet;
#X obj 174 70 r sync;
#X msg 174 93 0;
#X obj 82 109 + 1;
#X obj 109 109 % \$1;
#X obj 56 132 sel 0;
#X obj 56 155 f 0;
#X obj 82 155 + \$2;
#X obj 115 155 % \$3;
#X obj 56 70 t b;
#X connect 0 0 11 0;
#X connect 1 0 5 0;
#X connect 1 0 7 0;
#X connect 3 0 4 0;
#X connect 4 0 1 1;
#X connect 4 0 8 1;
#X connect 5 0 6 0;
#X connect 6 0 1 1;
#X connect 7 0 8 0;
#X connect 8 0 9 0;
#X connect 8 0 2 0;
#X connect 9 0 10 0;
#X connect 10 0 8 1;
#X connect 11 0 1 0;
