#N canvas 635 249 450 300 10;
#X obj 80 40 inlet;
#X obj 80 133 f 0;
#X obj 138 133 % \$1;
#X obj 106 133 + \$2;
#X obj 95 87 r sync;
#X msg 95 110 0;
#X obj 80 156 t f f;
#X obj 80 229 outlet;
#X obj 133 156 sel 0;
#X obj 133 179 bang;
#X obj 133 229 outlet;
#X obj 80 179 + 1;
#X connect 0 0 1 0;
#X connect 1 0 3 0;
#X connect 1 0 6 0;
#X connect 2 0 1 1;
#X connect 3 0 2 0;
#X connect 4 0 5 0;
#X connect 5 0 1 1;
#X connect 6 0 11 0;
#X connect 6 1 8 0;
#X connect 8 0 9 0;
#X connect 9 0 10 0;
#X connect 11 0 7 0;
