#N canvas 312 275 450 300 10;
#X obj 64 61 inlet;
#X obj 143 61 inlet;
#X obj 64 135 t f f f, f 15;
#X obj 64 158 + 0;
#X obj 64 158;
#X obj 107 158 + 0;
#X obj 151 158 + 0;
#X obj 64 201 outlet;
#X obj 107 201 outlet;
#X obj 151 201 outlet;
#X obj 64 84 t f b;
#X obj 122 111 i \$1;
#X obj 187 61 inlet;
#X obj 166 111 i \$2;
#X connect 0 0 10 0;
#X connect 1 0 11 1;
#X connect 2 0 3 0;
#X connect 2 0 4 0;
#X connect 2 1 5 0;
#X connect 2 2 6 0;
#X connect 3 0 7 0;
#X connect 5 0 8 0;
#X connect 6 0 9 0;
#X connect 10 0 2 0;
#X connect 10 1 11 0;
#X connect 10 1 13 0;
#X connect 11 0 5 1;
#X connect 12 0 13 1;
#X connect 13 0 6 1;
