#N canvas 373 201 923 561 10;
#X obj 105 418 unpack 0 0;
#X msg 705 270 const 0;
#X obj 132 167 unpack 0 0 0;
#X obj 201 212 * 1;
#X obj 166 212 * 2;
#X obj 132 212 * 4;
#X obj 132 235 +;
#X obj 132 258 +;
#X floatatom 132 281 5 0 0 0 - - -;
#X obj 105 369 pack 0 0;
#X obj 105 79 t f f;
#X obj 132 303 sel 0 1 2 3 4 5 6 7, f 51;
#X msg 105 395 \$2 \$1;
#X obj 132 121 - 1;
#X obj 105 54 f 0;
#X obj 131 54 + 1;
#X obj 158 54 % 88;
#X obj 705 299 array define \$0-CA 88;
#X obj 132 144 array get \$0-CA;
#X obj 105 444 array set \$0-CA;
#X obj 105 14 inlet;
#X obj 215 14 inlet;
#X msg 215 37 \$1 \$2;
#X obj 705 105 loadbang;
#X obj 198 506 outlet;
#X obj 68 506 outlet;
#X msg 175 121 3;
#X obj 132 326 i 0;
#X obj 169 326 i 0;
#X obj 207 326 i 0;
#X obj 245 326 i 0;
#X obj 283 326 i 0;
#X obj 321 326 i 0;
#X obj 359 326 i 0;
#X obj 397 326 i 0;
#X obj 251 189 i \$1;
#X obj 251 212 clip 0 1;
#X obj 306 212 clip 0 1;
#X floatatom 251 235 5 0 0 0 - - -;
#X floatatom 306 235 5 0 0 0 - - -;
#X obj 306 189 i \$2;
#X obj 361 212 clip 0 1;
#X obj 416 212 clip 0 1;
#X floatatom 361 235 5 0 0 0 - - -;
#X floatatom 416 235 5 0 0 0 - - -;
#X obj 361 189 i \$3;
#X obj 416 189 i \$4;
#X obj 471 212 clip 0 1;
#X obj 526 212 clip 0 1;
#X floatatom 471 235 5 0 0 0 - - -;
#X floatatom 526 235 5 0 0 0 - - -;
#X obj 581 212 clip 0 1;
#X obj 636 212 clip 0 1;
#X floatatom 581 235 5 0 0 0 - - -;
#X floatatom 636 235 5 0 0 0 - - -;
#X obj 471 189 i \$5;
#X obj 526 189 i \$6;
#X obj 581 189 i \$7;
#X obj 636 189 i \$8;
#X obj 251 95 sel 0;
#X obj 656 14 inlet;
#X obj 656 37 bang;
#X connect 0 0 19 0;
#X connect 0 0 24 0;
#X connect 0 1 19 1;
#X connect 0 1 25 0;
#X connect 1 0 17 0;
#X connect 2 0 5 0;
#X connect 2 1 4 0;
#X connect 2 2 3 0;
#X connect 3 0 7 1;
#X connect 4 0 6 1;
#X connect 5 0 6 0;
#X connect 6 0 7 0;
#X connect 7 0 8 0;
#X connect 8 0 11 0;
#X connect 9 0 12 0;
#X connect 10 0 9 0;
#X connect 10 1 13 0;
#X connect 10 1 59 0;
#X connect 11 0 27 0;
#X connect 11 1 28 0;
#X connect 11 2 29 0;
#X connect 11 3 30 0;
#X connect 11 4 31 0;
#X connect 11 5 32 0;
#X connect 11 6 33 0;
#X connect 11 7 34 0;
#X connect 12 0 0 0;
#X connect 13 0 18 0;
#X connect 14 0 15 0;
#X connect 14 0 10 0;
#X connect 15 0 16 0;
#X connect 16 0 14 1;
#X connect 18 0 2 0;
#X connect 20 0 14 0;
#X connect 21 0 22 0;
#X connect 22 0 0 0;
#X connect 23 0 1 0;
#X connect 23 0 26 0;
#X connect 26 0 18 1;
#X connect 27 0 9 1;
#X connect 28 0 9 1;
#X connect 29 0 9 1;
#X connect 30 0 9 1;
#X connect 31 0 9 1;
#X connect 32 0 9 1;
#X connect 33 0 9 1;
#X connect 34 0 9 1;
#X connect 35 0 36 0;
#X connect 36 0 38 0;
#X connect 37 0 39 0;
#X connect 38 0 27 1;
#X connect 39 0 28 1;
#X connect 40 0 37 0;
#X connect 41 0 43 0;
#X connect 42 0 44 0;
#X connect 43 0 29 1;
#X connect 44 0 30 1;
#X connect 45 0 41 0;
#X connect 46 0 42 0;
#X connect 47 0 49 0;
#X connect 48 0 50 0;
#X connect 49 0 31 1;
#X connect 50 0 32 1;
#X connect 51 0 53 0;
#X connect 52 0 54 0;
#X connect 53 0 33 1;
#X connect 54 0 34 1;
#X connect 55 0 47 0;
#X connect 56 0 48 0;
#X connect 57 0 51 0;
#X connect 58 0 52 0;
#X connect 59 0 35 0;
#X connect 59 0 58 0;
#X connect 59 0 57 0;
#X connect 59 0 56 0;
#X connect 59 0 55 0;
#X connect 59 0 46 0;
#X connect 59 0 45 0;
#X connect 59 0 40 0;
#X connect 60 0 61 0;
#X connect 61 0 1 0;
