#N canvas 294 262 800 450 10;
#X obj 76 79 t b b b b, f 46;
#X obj 76 365 outlet;
#X obj 167 105 f 0;
#X obj 193 105 + 1;
#X obj 167 365 outlet;
#X obj 76 252 t b b;
#X obj 258 105 f 0;
#X obj 284 105 + 1;
#X obj 258 365 outlet;
#X obj 349 105 f 0;
#X obj 375 105 + 1;
#X obj 349 365 outlet;
#X obj 194 153 ==, f 16;
#X obj 105 319 bng 15 250 50 0 empty empty empty 17 7 0 10 -262144
-228856 -1;
#X obj 167 252 t b b;
#X obj 123 319 bng 15 250 50 0 empty empty empty 17 7 0 10 -262144
-191407 -1;
#X obj 258 252 t b b;
#X obj 141 319 bng 15 250 50 0 empty empty empty 17 7 0 10 -262144
-162280 -1;
#X obj 194 176 sel 1, f 16;
#X obj 349 252 t b b;
#X obj 159 319 bng 15 250 50 0 empty empty empty 17 7 0 10 -262144
-128992 -1;
#X obj 301 153 ==, f 13;
#X obj 301 176 sel 1, f 13;
#X obj 426 365 outlet;
#X obj 517 365 outlet;
#X obj 426 252 t b b;
#X obj 608 365 outlet;
#X obj 699 365 outlet;
#X obj 177 319 bng 15 250 50 0 empty empty empty 17 7 0 10 -262144
-99865 -1;
#X obj 517 252 t b b;
#X obj 195 319 bng 15 250 50 0 empty empty empty 17 7 0 10 -262144
-66577 -1;
#X obj 608 252 t b b;
#X obj 213 319 bng 15 250 50 0 empty empty empty 17 7 0 10 -262144
-33289 -1;
#X obj 699 252 t b b;
#X obj 231 319 bng 15 250 50 0 empty empty empty 17 7 0 10 -262144
-1 -1;
#X obj 167 227 sel 0;
#X obj 167 128 t f f;
#X obj 258 227 sel 0;
#X obj 258 128 t f f, f 7;
#X obj 349 227 sel 0;
#X obj 349 128 t f f;
#X obj 76 24 inlet;
#X obj 220 105 % \$1;
#X obj 311 105 % \$2;
#X obj 402 105 % \$3;
#X connect 0 0 5 0;
#X connect 0 1 2 0;
#X connect 0 2 6 0;
#X connect 0 3 9 0;
#X connect 2 0 3 0;
#X connect 2 0 36 0;
#X connect 3 0 42 0;
#X connect 5 0 1 0;
#X connect 5 1 13 0;
#X connect 6 0 7 0;
#X connect 6 0 38 0;
#X connect 7 0 43 0;
#X connect 9 0 10 0;
#X connect 9 0 40 0;
#X connect 10 0 44 0;
#X connect 12 0 18 0;
#X connect 14 0 4 0;
#X connect 14 1 15 0;
#X connect 16 0 8 0;
#X connect 16 1 17 0;
#X connect 18 0 25 0;
#X connect 18 1 29 0;
#X connect 19 0 11 0;
#X connect 19 1 20 0;
#X connect 21 0 22 0;
#X connect 22 0 31 0;
#X connect 22 1 33 0;
#X connect 25 0 23 0;
#X connect 25 1 28 0;
#X connect 29 0 24 0;
#X connect 29 1 30 0;
#X connect 31 0 26 0;
#X connect 31 1 32 0;
#X connect 33 0 27 0;
#X connect 33 1 34 0;
#X connect 35 0 14 0;
#X connect 36 0 35 0;
#X connect 36 1 12 0;
#X connect 37 0 16 0;
#X connect 38 0 37 0;
#X connect 38 1 12 1;
#X connect 38 1 21 0;
#X connect 39 0 19 0;
#X connect 40 0 39 0;
#X connect 40 1 21 1;
#X connect 41 0 0 0;
#X connect 42 0 2 1;
#X connect 43 0 6 1;
#X connect 44 0 9 1;
#X coords 0 -1 1 1 150 50 1 100 290;
