#N canvas 249 152 1069 572 10;
#X obj 322 43 bng 15 250 50 0 empty empty empty 0 -6 0 8 -262144 -1
-1;
#X obj -9 140 noise~;
#X obj -10 218 bp~ 0 50;
#X floatatom 19 197 5 0 0 0 - - -;
#X obj 66 133 bng 15 250 50 0 empty empty empty 0 -6 0 8 -262144 -1
-1;
#X obj 119 140 noise~;
#X obj 118 218 bp~ 0 50;
#X floatatom 147 197 5 0 0 0 - - -;
#X obj 194 133 bng 15 250 50 0 empty empty empty 0 -6 0 8 -262144 -1
-1;
#X obj 247 138 noise~;
#X obj 246 216 bp~ 0 50;
#X floatatom 275 195 5 0 0 0 - - -;
#X obj 322 131 bng 15 250 50 0 empty empty empty 0 -6 0 8 -262144 -1
-1;
#X obj 375 138 noise~;
#X obj 374 216 bp~ 0 50;
#X floatatom 403 195 5 0 0 0 - - -;
#X obj 450 131 bng 15 250 50 0 empty empty empty 0 -6 0 8 -262144 -1
-1;
#X obj 503 133 noise~;
#X obj 502 211 bp~ 0 50;
#X floatatom 531 190 5 0 0 0 - - -;
#X obj 578 126 bng 15 250 50 0 empty empty empty 0 -6 0 8 -262144 -1
-1;
#X obj 631 133 noise~;
#X obj 630 211 bp~ 0 50;
#X floatatom 659 190 5 0 0 0 - - -;
#X obj 706 126 bng 15 250 50 0 empty empty empty 0 -6 0 8 -262144 -1
-1;
#X obj 759 131 noise~;
#X obj 758 209 bp~ 0 50;
#X obj 787 162 random 10000;
#X floatatom 787 188 5 0 0 0 - - -;
#X obj 834 124 bng 15 250 50 0 empty empty empty 0 -6 0 8 -262144 -1
-1;
#X obj 887 131 noise~;
#X obj 886 209 bp~ 0 50;
#X obj 915 162 random 10000;
#X floatatom 915 188 5 0 0 0 - - -;
#X obj 962 124 bng 15 250 50 0 empty empty empty 0 -6 0 8 -262144 -1
-1;
#X obj 374 352 *~;
#X floatatom 462 335 5 0 0 0 - - -;
#X text 2 -11 3.3.2.1. Filter Colors;
#X text 701 412 www.pd-tutorial.com;
#X text 710 385 Johannes Kreidler;
#X obj 347 43 hsl 60 15 0 1 0 0 empty empty empty -2 -8 0 10 -262144
-1 -1 1800 1;
#X obj 322 -4 inlet;
#X obj 374 426 outlet~;
#X obj 19 171 random 1000;
#X obj 147 172 random 1000;
#X obj 275 169 random 2000;
#X obj 403 169 random 2000;
#X obj 531 164 random 5000;
#X obj 659 164 random 5000;
#X obj 375 394 clip~ -1 1;
#X connect 0 0 4 0;
#X connect 0 0 8 0;
#X connect 0 0 12 0;
#X connect 0 0 16 0;
#X connect 0 0 20 0;
#X connect 0 0 24 0;
#X connect 0 0 29 0;
#X connect 0 0 34 0;
#X connect 1 0 2 0;
#X connect 2 0 35 0;
#X connect 3 0 2 1;
#X connect 4 0 43 0;
#X connect 5 0 6 0;
#X connect 6 0 35 0;
#X connect 7 0 6 1;
#X connect 8 0 44 0;
#X connect 9 0 10 0;
#X connect 10 0 35 0;
#X connect 11 0 10 1;
#X connect 12 0 45 0;
#X connect 13 0 14 0;
#X connect 14 0 35 0;
#X connect 15 0 14 1;
#X connect 16 0 46 0;
#X connect 17 0 18 0;
#X connect 18 0 35 0;
#X connect 19 0 18 1;
#X connect 20 0 47 0;
#X connect 21 0 22 0;
#X connect 22 0 35 0;
#X connect 23 0 22 1;
#X connect 24 0 48 0;
#X connect 25 0 26 0;
#X connect 26 0 35 0;
#X connect 27 0 28 0;
#X connect 28 0 26 1;
#X connect 29 0 27 0;
#X connect 30 0 31 0;
#X connect 31 0 35 0;
#X connect 32 0 33 0;
#X connect 33 0 31 1;
#X connect 34 0 32 0;
#X connect 35 0 49 0;
#X connect 36 0 35 1;
#X connect 40 0 36 0;
#X connect 41 0 0 0;
#X connect 43 0 3 0;
#X connect 44 0 7 0;
#X connect 45 0 11 0;
#X connect 46 0 15 0;
#X connect 47 0 19 0;
#X connect 48 0 23 0;
#X connect 49 0 42 0;
#X coords 0 -1 1 1 110 40 1 310 25;
