#N canvas 316 116 742 646 10;
#X obj 68 42 inlet;
#X obj 68 100 i 0;
#X obj 317 391 list length;
#X obj 317 437 random;
#X obj 260 460 list split;
#X obj 288 485 list split 1;
#X obj 288 549 outlet;
#X obj 260 366 t a a, f 10;
#X obj 317 414 t b f, f 6;
#X msg 260 155 0 0 1 1 2 3 3 4 -1 -2 -3;
#X msg 299 183 1 0 -1 -1 2 3 3 4 4 4;
#X msg 222 206 0 0 0 -2 -3 3 4 4;
#X msg 337 216 2 3 3 3 1 1 0 4 5 -2 -1;
#X msg 377 242 3 2 1 1 4 6 6 0;
#X msg 414 267 4 -1 0 0 6 5;
#X msg 453 293 4 6 2;
#X obj 68 123 sel -5 -4 -3 -2 -1 0 1 2 3 4 5 6 7, f 84;
#X msg 491 321 7 5 4 3;
#X msg 530 350 0 6 4;
#X msg 183 183 -1 -1 0 -3 -3;
#X msg 145 242 -2 -4 -1 0 0;
#X msg 106 293 -3 -3 -2;
#X msg 68 350 -4 -3;
#X obj 288 508 t f f;
#X obj 604 42 inlet;
#X msg 604 421 seed \$1;
#X connect 0 0 1 0;
#X connect 1 0 16 0;
#X connect 2 0 8 0;
#X connect 3 0 4 1;
#X connect 4 1 5 0;
#X connect 5 0 23 0;
#X connect 7 0 4 0;
#X connect 7 1 2 0;
#X connect 8 0 3 0;
#X connect 8 1 3 1;
#X connect 9 0 7 0;
#X connect 10 0 7 0;
#X connect 11 0 7 0;
#X connect 12 0 7 0;
#X connect 13 0 7 0;
#X connect 14 0 7 0;
#X connect 15 0 7 0;
#X connect 16 0 22 0;
#X connect 16 1 21 0;
#X connect 16 2 20 0;
#X connect 16 3 19 0;
#X connect 16 4 11 0;
#X connect 16 5 9 0;
#X connect 16 6 10 0;
#X connect 16 7 12 0;
#X connect 16 8 13 0;
#X connect 16 9 14 0;
#X connect 16 10 15 0;
#X connect 16 11 17 0;
#X connect 16 12 18 0;
#X connect 16 13 9 0;
#X connect 17 0 7 0;
#X connect 18 0 7 0;
#X connect 19 0 7 0;
#X connect 20 0 7 0;
#X connect 21 0 7 0;
#X connect 22 0 7 0;
#X connect 23 0 6 0;
#X connect 23 1 1 1;
#X connect 24 0 25 0;
#X connect 25 0 3 0;
