#N canvas 596 195 1052 524 10;
#X obj 324 186 clip 0 1;
#X obj 61 190 clip 0 127;
#X obj 61 215 expr ($f1 % 12 * $f3) + (int($f1 / 12) * $f4) + ($f2
* $f5);
#X obj 148 81 timer;
#X floatatom 148 104 10 0 0 0 - - -;
#X obj 61 54 t f b b, f 24;
#X floatatom 148 163 5 0 0 0 - - -;
#X obj 148 127 expr (10000 - $f1) / (10000 - 100);
#X obj 61 376 expr $f2 + ($f3 - $f2) * (($f1 - (-11)) / (22 - (-11)))
;
#X obj 61 23 inlet;
#X obj 61 452 outlet;
#X obj 236 163 f \$1;
#X obj 324 163 f \$2;
#X obj 257 23 inlet;
#X obj 307 23 inlet;
#X obj 355 23 inlet;
#X obj 409 23 inlet;
#X obj 80 277 expr if(($f2-$f1)>2 || ($f1-$f2)>2 \, 1 \, 0) \; $f1
\;;
#X floatatom 80 313 5 0 0 0 - - -;
#X floatatom 329 313 5 0 0 0 - - -;
#X obj 329 254 f 0;
#X obj 61 238 t f f b;
#X obj 61 350 spigot;
#X obj 424 184 clip 0 1;
#X obj 424 161 f \$3;
#X obj 236 187 clip -1 1;
#X obj 224 350 f \$4;
#X obj 388 350 f \$5;
#X text 589 27 -- RR_CROSS-MODULATE QUICK GUIDE -- \; # W_A /\$1 =
Dissonance Weight (Range -1 to 1.0) \; # W_B /\$2 = Octave Weight (Range
0 to 1.0) \; # W_C /\$3 = Density Weight (Range 0 to 1.0) \; -----------------------------------------------------------
# 1 Harmonic Chaos | 1 | 0 | 0.2 | Dissonance INCREASES total tension
\; # 2 Resolution After Dissonance | -1 | 0.8 | 0.5 | Dissonance DECREASES
total tension (for resolution) \; # 3 Rhythmic/Spatial Anxiety | 0.1
| 1 | 1 | Tension driven by Speed and Pitch Height \, not harmony.
;
#X obj 141 416 expr (round($f1 * 2)) / 2;
#X obj 141 452 outlet;
#X connect 0 0 2 3;
#X connect 1 0 2 0;
#X connect 2 0 21 0;
#X connect 3 0 4 0;
#X connect 4 0 7 0;
#X connect 5 0 1 0;
#X connect 5 1 3 0;
#X connect 5 2 3 1;
#X connect 5 2 11 0;
#X connect 5 2 12 0;
#X connect 5 2 24 0;
#X connect 5 2 26 0;
#X connect 5 2 27 0;
#X connect 6 0 2 1;
#X connect 7 0 6 0;
#X connect 8 0 10 0;
#X connect 8 0 29 0;
#X connect 9 0 5 0;
#X connect 11 0 25 0;
#X connect 12 0 0 0;
#X connect 13 0 11 1;
#X connect 14 0 12 1;
#X connect 15 0 26 1;
#X connect 16 0 27 1;
#X connect 17 0 18 0;
#X connect 17 1 19 0;
#X connect 18 0 22 1;
#X connect 19 0 20 1;
#X connect 20 0 17 1;
#X connect 21 0 22 0;
#X connect 21 1 17 0;
#X connect 21 2 20 0;
#X connect 22 0 8 0;
#X connect 23 0 2 4;
#X connect 24 0 23 0;
#X connect 25 0 2 2;
#X connect 26 0 8 1;
#X connect 27 0 8 2;
#X connect 29 0 30 0;
