#N canvas 498 146 802 539 10;
#X obj 30 53 gemhead;
#X floatatom 370 321 3 0 1 0 - - -;
#X floatatom 393 321 3 0 1 0 - - -;
#X floatatom 416 321 3 0 1 0 - - -;
#X obj 30 447 colorSquare, f 45;
#X obj 370 389 pack f f f;
#X obj 393 342 t b f;
#X obj 416 365 t b f;
#X floatatom 280 321 3 0 1 0 - - -;
#X floatatom 303 321 3 0 1 0 - - -;
#X floatatom 326 321 3 0 1 0 - - -;
#X obj 280 389 pack f f f;
#X obj 303 342 t b f;
#X obj 326 365 t b f;
#X floatatom 190 321 3 0 1 0 - - -;
#X floatatom 213 321 3 0 1 0 - - -;
#X floatatom 236 321 3 0 1 0 - - -;
#X obj 190 389 pack f f f;
#X obj 213 342 t b f;
#X obj 236 365 t b f;
#X floatatom 100 321 3 0 1 0 - - -;
#X floatatom 123 321 3 0 1 0 - - -;
#X floatatom 146 321 3 0 1 0 - - -;
#X obj 100 389 pack f f f;
#X obj 123 342 t b f;
#X obj 146 365 t b f;
#X obj 569 179 gemwin;
#X obj 569 98 sel 0 1;
#X msg 569 148 destroy;
#X obj 569 17 inlet;
#X obj 569 75 clip 0 1;
#X msg 588 124 dimen 640 640 \, create \, 1;
#X obj 83 53 loadbang;
#X msg 83 76 4;
#X obj 198 76 t b f, f 23;
#X obj 198 99 f 0;
#X obj 224 99 + 1;
#X obj 251 99 % 12;
#X obj 198 131 pack 0 0;
#X obj 198 178 route 0 1 2 3 4 5 6 7 8 9 10 11;
#X obj 198 53 sigmund~ -hop 4096 note;
#X obj 198 17 inlet~;
#X obj 333 115 / 75;
#X connect 0 0 4 0;
#X connect 1 0 5 0;
#X connect 2 0 6 0;
#X connect 3 0 7 0;
#X connect 5 0 4 5;
#X connect 6 0 5 0;
#X connect 6 1 5 1;
#X connect 7 0 5 0;
#X connect 7 1 5 2;
#X connect 8 0 11 0;
#X connect 9 0 12 0;
#X connect 10 0 13 0;
#X connect 11 0 4 4;
#X connect 12 0 11 0;
#X connect 12 1 11 1;
#X connect 13 0 11 0;
#X connect 13 1 11 2;
#X connect 14 0 17 0;
#X connect 15 0 18 0;
#X connect 16 0 19 0;
#X connect 17 0 4 3;
#X connect 18 0 17 0;
#X connect 18 1 17 1;
#X connect 19 0 17 0;
#X connect 19 1 17 2;
#X connect 20 0 23 0;
#X connect 21 0 24 0;
#X connect 22 0 25 0;
#X connect 23 0 4 2;
#X connect 24 0 23 0;
#X connect 24 1 23 1;
#X connect 25 0 23 0;
#X connect 25 1 23 2;
#X connect 27 0 28 0;
#X connect 27 1 31 0;
#X connect 28 0 26 0;
#X connect 29 0 30 0;
#X connect 30 0 27 0;
#X connect 31 0 26 0;
#X connect 32 0 33 0;
#X connect 33 0 4 1;
#X connect 34 0 35 0;
#X connect 34 1 42 0;
#X connect 35 0 36 0;
#X connect 35 0 38 0;
#X connect 36 0 37 0;
#X connect 37 0 35 1;
#X connect 38 0 39 0;
#X connect 39 0 20 0;
#X connect 39 1 21 0;
#X connect 39 2 22 0;
#X connect 39 3 14 0;
#X connect 39 4 15 0;
#X connect 39 5 16 0;
#X connect 39 6 8 0;
#X connect 39 7 9 0;
#X connect 39 8 10 0;
#X connect 39 9 1 0;
#X connect 39 10 2 0;
#X connect 39 11 3 0;
#X connect 40 0 34 0;
#X connect 41 0 40 0;
#X connect 42 0 38 1;
