#N canvas 303 210 673 409 10;
#X obj 58 11 inlet;
#X obj 58 85 bng 15 250 50 0 empty empty empty 17 7 0 10 -262144 -1
-1;
#X obj 58 176 f 0;
#X obj 88 176 + 1;
#X floatatom 79 85 5 1 12 3 int - -;
#X obj 117 85 hradio 16 1 0 4 empty empty oct 0 26 0 10 -262144 -1
-1 0;
#X obj 120 176 % 12;
#X obj 117 128 + 1;
#X obj 117 151 * 12;
#X obj 58 261 % 126;
#X obj 58 285 outlet;
#X obj 58 238 + 0;
#X floatatom 187 84 5 0 127 3 off - -;
#X obj 187 12 inlet;
#X obj 225 85 nbx 3 16 -1e+37 1e+37 0 0 empty empty tone 0 26 0 10
-1 -262144 -1 0 256;
#X msg 73 153 0;
#X obj 247 59 bng 15 250 50 0 empty empty reset -32 7 0 10 -262144
-1 -1;
#X obj 100 11 inlet;
#X connect 0 0 1 0;
#X connect 1 0 2 0;
#X connect 2 0 3 0;
#X connect 2 0 11 0;
#X connect 3 0 6 0;
#X connect 4 0 3 1;
#X connect 5 0 7 0;
#X connect 6 0 2 1;
#X connect 7 0 8 0;
#X connect 8 0 6 1;
#X connect 9 0 10 0;
#X connect 9 0 14 0;
#X connect 11 0 9 0;
#X connect 12 0 11 1;
#X connect 13 0 12 0;
#X connect 15 0 2 1;
#X connect 16 0 15 0;
#X connect 17 0 4 0;
#X coords 0 -1 1 1 220 70 1 50 50;
