#N canvas 574 138 676 597 10;
#X floatatom 144 203 5 0 0 0 - - -;
#X floatatom 292 203 5 0 0 0 - - -;
#X floatatom 144 315 5 0 0 0 - - -;
#X obj 144 132 sel 0 1 2, f 59;
#X obj 144 73 hradio 15 1 0 3 empty empty empty 0 -8 0 10 -262144 -1
-1 1;
#X obj 144 181 unpack f f f, f 50;
#X floatatom 441 202 5 0 0 0 - - -;
#X obj 144 291 + 50;
#X obj 144 52 bng 15 250 50 0 empty empty empty 17 7 0 10 -262144 -1
-1;
#X obj 144 337 mtof;
#X floatatom 199 72 5 0 0 0 - - -;
#X floatatom 234 72 5 0 0 0 - - -;
#X obj 480 201 +;
#X floatatom 164 51 5 0 0 0 - - -;
#X obj 144 5 inlet;
#X obj 211 6 inlet;
#X obj 144 360 osc~;
#X obj 179 383 vline~;
#X obj 144 383 *~;
#X msg 179 360 1 \$1 \, 0 \$2 \$1;
#X obj 179 338 pack 10 1000;
#X floatatom 199 52 5 0 0 0 - - -;
#X floatatom 234 52 5 0 0 0 - - -;
#X floatatom 292 314 5 0 0 0 - - -;
#X obj 292 290 + 50;
#X obj 292 336 mtof;
#X obj 292 359 osc~;
#X obj 327 382 vline~;
#X obj 292 382 *~;
#X msg 327 359 1 \$1 \, 0 \$2 \$1;
#X obj 327 337 pack 10 1000;
#X obj 292 224 pipe 20;
#X obj 441 223 pipe 20;
#X floatatom 441 314 5 0 0 0 - - -;
#X obj 441 290 + 50;
#X obj 441 336 mtof;
#X obj 441 359 osc~;
#X obj 476 382 vline~;
#X obj 441 382 *~;
#X msg 476 359 1 \$1 \, 0 \$2 \$1;
#X obj 476 337 pack 10 1000;
#X obj 144 429 *~ 0.3;
#X obj 292 428 *~ 0.2;
#X obj 441 428 *~ 0.15;
#X obj 144 406 *~;
#X obj 292 405 *~;
#X obj 441 404 *~;
#X obj 456 77 osc~;
#X floatatom 456 55 5 0 0 0 - - -;
#X obj 271 54 vsl 15 32 0 8 0 0 empty empty empty 0 -9 0 10 -262144
-1 -1 0 1;
#X obj 145 521 outlet~;
#X msg 144 157 0 4 11;
#X msg 261 157 4 11 12;
#X msg 378 160 11 0 16;
#X connect 0 0 7 0;
#X connect 1 0 31 0;
#X connect 2 0 9 0;
#X connect 3 0 51 0;
#X connect 3 1 52 0;
#X connect 3 2 53 0;
#X connect 4 0 3 0;
#X connect 5 0 0 0;
#X connect 5 1 1 0;
#X connect 5 2 6 0;
#X connect 6 0 32 0;
#X connect 7 0 2 0;
#X connect 8 0 4 0;
#X connect 9 0 20 0;
#X connect 9 0 16 0;
#X connect 10 0 31 1;
#X connect 10 0 12 1;
#X connect 11 0 12 0;
#X connect 12 0 32 1;
#X connect 13 0 34 1;
#X connect 13 0 24 1;
#X connect 13 0 7 1;
#X connect 14 0 8 0;
#X connect 15 0 13 0;
#X connect 16 0 18 0;
#X connect 17 0 18 1;
#X connect 18 0 44 0;
#X connect 19 0 17 0;
#X connect 20 0 19 0;
#X connect 21 0 20 0;
#X connect 21 0 30 0;
#X connect 21 0 40 0;
#X connect 22 0 20 1;
#X connect 22 0 30 1;
#X connect 22 0 40 1;
#X connect 23 0 25 0;
#X connect 24 0 23 0;
#X connect 25 0 30 0;
#X connect 25 0 26 0;
#X connect 26 0 28 0;
#X connect 27 0 28 1;
#X connect 28 0 45 0;
#X connect 29 0 27 0;
#X connect 30 0 29 0;
#X connect 31 0 24 0;
#X connect 32 0 34 0;
#X connect 33 0 35 0;
#X connect 34 0 33 0;
#X connect 35 0 40 0;
#X connect 35 0 36 0;
#X connect 36 0 38 0;
#X connect 37 0 38 1;
#X connect 38 0 46 0;
#X connect 39 0 37 0;
#X connect 40 0 39 0;
#X connect 41 0 50 0;
#X connect 42 0 50 0;
#X connect 43 0 50 0;
#X connect 44 0 41 0;
#X connect 45 0 42 0;
#X connect 46 0 43 0;
#X connect 47 0 44 1;
#X connect 47 0 45 1;
#X connect 47 0 46 1;
#X connect 48 0 47 0;
#X connect 49 0 48 0;
#X connect 51 0 5 0;
#X connect 52 0 5 0;
#X connect 53 0 5 0;
#X coords 0 -1 1 1 160 65 1 135 30;
