#N canvas 530 137 805 614 10;
#X obj 211 30 inlet;
#X obj 211 76 t a a;
#X obj 181 196 list store;
#X obj 211 100 list length;
#X obj 121 31 inlet;
#X obj 121 116 f 0;
#X obj 147 116 + 1;
#X obj 173 116 % 2;
#X msg 121 162 get \$1 1;
#X obj 181 241 route u U d D r, f 29;
#X msg 181 264 1;
#X obj 181 287 * 1;
#X msg 215 264 1;
#X obj 215 287 * 1;
#X obj 249 287 * 1;
#X obj 283 287 * 1;
#X msg 249 264 -1;
#X msg 283 264 -1;
#X msg 317 287 0;
#X floatatom 181 331 5 0 0 0 - - -;
#X msg 181 219 \$1;
#X obj 181 398 + 0, f 5;
#X obj 208 375 f 0;
#X obj 181 353 t f b;
#X obj 181 449 t f f;
#X obj 181 492 outlet;
#X obj 121 139 t f b, f 26;
#X obj 274 162 random 4;
#X obj 274 185 + \$1;
#X obj 181 424 expr if($f1 > 36 || $f1 < 0 \, 18 \, $f1);
#X connect 0 0 1 0;
#X connect 1 0 3 0;
#X connect 1 1 2 1;
#X connect 2 0 20 0;
#X connect 3 0 7 1;
#X connect 4 0 5 0;
#X connect 5 0 6 0;
#X connect 5 0 26 0;
#X connect 6 0 7 0;
#X connect 7 0 5 1;
#X connect 8 0 2 0;
#X connect 9 0 10 0;
#X connect 9 1 12 0;
#X connect 9 2 16 0;
#X connect 9 3 17 0;
#X connect 9 4 18 0;
#X connect 10 0 11 0;
#X connect 11 0 19 0;
#X connect 12 0 13 0;
#X connect 13 0 19 0;
#X connect 14 0 19 0;
#X connect 15 0 19 0;
#X connect 16 0 14 0;
#X connect 17 0 15 0;
#X connect 18 0 19 0;
#X connect 19 0 23 0;
#X connect 20 0 9 0;
#X connect 21 0 29 0;
#X connect 22 0 21 1;
#X connect 23 0 21 0;
#X connect 23 1 22 0;
#X connect 24 0 25 0;
#X connect 24 1 22 1;
#X connect 26 0 8 0;
#X connect 26 1 27 0;
#X connect 27 0 28 0;
#X connect 28 0 13 1;
#X connect 28 0 15 1;
#X connect 29 0 24 0;
