#N canvas 99 209 450 430 10;
#X obj 57 234 snapshot~;
#X floatatom 57 257 5 0 0 0 - - -;
#X obj 88 176 +~, f 9;
#X obj 138 153 osc~;
#X obj 57 279 expr int($f1*$f2), f 19;
#X obj 57 29 inlet;
#X obj 57 177 t b;
#X obj 88 107 f \$1;
#X obj 138 107 f \$2;
#X obj 168 234 f \$3;
#X obj 168 70 loadbang;
#X obj 138 29 inlet;
#X obj 57 352 outlet;
#X obj 88 199 osc~;
#X obj 88 153 sig~;
#X obj 88 130 / 100;
#X obj 138 129 / 100;
#X connect 0 0 1 0;
#X connect 1 0 4 0;
#X connect 2 0 13 0;
#X connect 3 0 2 1;
#X connect 4 0 12 0;
#X connect 5 0 6 0;
#X connect 6 0 0 0;
#X connect 7 0 15 0;
#X connect 8 0 16 0;
#X connect 9 0 4 1;
#X connect 10 0 9 0;
#X connect 10 0 8 0;
#X connect 10 0 7 0;
#X connect 11 0 8 0;
#X connect 13 0 0 0;
#X connect 14 0 2 0;
#X connect 15 0 14 0;
#X connect 16 0 3 0;
