#N canvas 487 302 703 417 10;
#X obj 44 37 inlet;
#X obj 44 140 % 7;
#X obj 122 140 pipe 0;
#X obj 122 165 + 3;
#X obj 168 140 pipe 0;
#X obj 168 165 + 3;
#X obj 214 140 pipe 0;
#X obj 214 165 + 3;
#X obj 260 140 pipe 0;
#X obj 260 165 + 3;
#X obj 247 73 f 0;
#X obj 247 37 inlet;
#X obj 122 250 outlet;
#X obj 44 165 + 2, f 8;
#X obj 44 60 t f b;
#X obj 89 76 random 3;
#X obj 89 99 + 1;
#X obj 89 122 * 2;
#X connect 0 0 14 0;
#X connect 1 0 13 0;
#X connect 2 0 3 0;
#X connect 3 0 4 0;
#X connect 3 0 12 0;
#X connect 4 0 5 0;
#X connect 5 0 6 0;
#X connect 5 0 12 0;
#X connect 6 0 7 0;
#X connect 7 0 8 0;
#X connect 7 0 12 0;
#X connect 8 0 9 0;
#X connect 9 0 12 0;
#X connect 10 0 2 1;
#X connect 10 0 8 1;
#X connect 10 0 6 1;
#X connect 10 0 4 1;
#X connect 11 0 10 0;
#X connect 13 0 2 0;
#X connect 13 0 12 0;
#X connect 14 0 1 0;
#X connect 14 1 15 0;
#X connect 15 0 16 0;
#X connect 16 0 17 0;
#X connect 17 0 13 1;
