#N canvas 0 116 1366 652 10;
#X msg 647 403 symbol whole;
#X msg 684 448 symbol diminished;
#N canvas 6 116 450 250 (subpatch) 0;
#X array \$0-sca25 15 float 2;
#X coords 0 24 16 0 100 70 1 0 0;
#X restore 1233 555 graph;
#X msg 572 313 symbol harmonica;
#X msg 610 358 symbol melodica;
#X msg 492 223 symbol mayor;
#X msg 534 268 symbol menor;
#X msg 485 201 0 2 4 5 7 9 11 12 14 16 17 19 21 23 24;
#X obj 578 223 s \$0-name;
#X symbolatom 88 147 10 0 0 1 scale - -;
#X obj 275 15 r \$0-name;
#X obj 485 605 array set \$0-sca25;
#X msg 527 246 0 2 3 5 7 9 10 12 14 15 17 19 21 22 24;
#X obj 618 267 s \$0-name;
#X obj 681 313 s \$0-name;
#X msg 603 336 0 2 4 5 7 8 10 12 14 16 17 19 20 22 24;
#X obj 712 358 s \$0-name;
#X obj 731 403 s \$0-name;
#X obj 799 448 s \$0-name;
#X msg 640 381 0 2 4 6 8 10 12 14 16 18 20 22 24 26 28;
#X obj 485 141 sel 0 1 2 3 4 5;
#X obj 88 128 hradio 15 1 0 6 empty empty empty 0 -8 0 10 -262144 -1
-1 1;
#X obj 71 15 inlet;
#X floatatom 88 87 5 0 0 1 root - -;
#X floatatom 71 403 5 0 0 0 - - -;
#X obj 71 424 outlet;
#X msg 565 291 0 2 3 5 7 8 11 12 14 15 17 19 21 23 24;
#X msg 677 426 0 2 3 5 6 8 9 11 12 14 15 17 18 20 21;
#X floatatom 88 107 5 0 0 1 grade - -;
#X obj 305 209 tabread \$0-sca25;
#X obj 305 232 +;
#X floatatom 305 354 5 0 0 0 - - -;
#X obj 305 185 % 15;
#X obj 305 376 + 0;
#X obj 305 420 outlet;
#X floatatom 350 354 5 0 0 0 - - -;
#X obj 350 420 outlet;
#X floatatom 395 354 5 0 0 0 - - -;
#X obj 395 420 outlet;
#X floatatom 305 399 5 0 0 0 - - -;
#X floatatom 350 399 5 0 0 0 - - -;
#X floatatom 395 399 5 0 0 0 - - -;
#X obj 124 15 inlet;
#X obj 71 87 bng 15 250 50 0 empty empty empty 17 7 0 10 -262144 -1
-1;
#X obj 324 282 del 100, f 8;
#X obj 369 256 random 1000;
#X obj 350 332 i;
#X obj 395 332 i;
#X obj 324 304 t b b;
#X obj 395 309 del 100;
#X obj 305 255 t f b b;
#X obj 71 185 f 0;
#X obj 71 208 t f b;
#X obj 98 267 sel 0 1 2 3, f 24;
#X obj 71 370 + 0;
#X obj 98 292 i 1;
#X obj 133 292 i 2;
#X obj 168 291 i -1;
#X obj 203 292 i -2;
#X obj 239 293 i 0;
#X obj 98 242 random 6;
#X obj 184 16 inlet;
#X obj 350 376 + 7;
#X obj 395 376 + 14;
#X connect 0 0 17 0;
#X connect 1 0 18 0;
#X connect 3 0 14 0;
#X connect 4 0 16 0;
#X connect 5 0 8 0;
#X connect 6 0 13 0;
#X connect 7 0 5 0;
#X connect 7 0 11 0;
#X connect 10 0 9 0;
#X connect 12 0 6 0;
#X connect 12 0 11 0;
#X connect 15 0 4 0;
#X connect 15 0 11 0;
#X connect 19 0 0 0;
#X connect 19 0 11 0;
#X connect 20 0 7 0;
#X connect 20 1 12 0;
#X connect 20 2 26 0;
#X connect 20 3 15 0;
#X connect 20 4 19 0;
#X connect 20 5 27 0;
#X connect 21 0 20 0;
#X connect 22 0 43 0;
#X connect 23 0 30 1;
#X connect 24 0 25 0;
#X connect 26 0 3 0;
#X connect 26 0 11 0;
#X connect 27 0 1 0;
#X connect 27 0 11 0;
#X connect 28 0 32 0;
#X connect 29 0 30 0;
#X connect 30 0 50 0;
#X connect 31 0 33 0;
#X connect 31 0 51 1;
#X connect 32 0 29 0;
#X connect 33 0 39 0;
#X connect 35 0 62 0;
#X connect 37 0 63 0;
#X connect 39 0 34 0;
#X connect 40 0 36 0;
#X connect 41 0 38 0;
#X connect 42 0 28 0;
#X connect 43 0 51 0;
#X connect 44 0 48 0;
#X connect 45 0 44 1;
#X connect 45 0 49 1;
#X connect 46 0 35 0;
#X connect 47 0 37 0;
#X connect 48 0 46 0;
#X connect 48 1 49 0;
#X connect 49 0 47 0;
#X connect 50 0 46 1;
#X connect 50 0 47 1;
#X connect 50 0 31 0;
#X connect 50 1 44 0;
#X connect 50 2 45 0;
#X connect 51 0 52 0;
#X connect 52 0 54 0;
#X connect 52 1 60 0;
#X connect 53 0 55 0;
#X connect 53 1 56 0;
#X connect 53 2 57 0;
#X connect 53 3 58 0;
#X connect 53 4 59 0;
#X connect 54 0 24 0;
#X connect 55 0 54 1;
#X connect 56 0 54 1;
#X connect 57 0 54 1;
#X connect 58 0 54 1;
#X connect 59 0 54 1;
#X connect 60 0 53 0;
#X connect 61 0 23 0;
#X connect 62 0 40 0;
#X connect 63 0 41 0;
#X coords 0 -1 1 1 125 120 1 65 55;
