#N canvas 351 187 774 558 10;
#X msg 294 145 0 1 0;
#X text 292 75 A. Cellule di Stabilità  (Mantenimento del Centro
Tonale);
#X msg 440 145 0 2 1;
#X text 292 176 B. Cellule di Transizione (Fluidità  e Passaggio)
;
#X msg 294 247 0 1 2;
#X msg 342 247 2 1 0;
#X msg 391 247 4 3 2;
#X msg 440 247 0 3 2;
#X text 293 280 C. Cellule di Dinamismo Armonico (Tensione e Risoluzione
Forza), f 64;
#X msg 294 353 0 2 4;
#X msg 342 353 4 2 0;
#X msg 342 145 0 -1 0;
#X obj 294 121 sel 0 1 2 3, f 33;
#X obj 294 98 random 4;
#X obj 294 223 sel 0 1 2 3, f 33;
#X obj 294 200 random 4;
#X obj 294 326 sel 0 1 2 3, f 33;
#X obj 294 303 random 4;
#X obj 37 33 inlet;
#X obj 129 93 random 5;
#X obj 129 116 + 1;
#X obj 37 93 f 0;
#X obj 63 93 + 1;
#X obj 90 93 % 3;
#X obj 37 116 t b f;
#X obj 76 116 sel 0;
#X obj 76 155 t b b;
#X msg 144 54 0;
#X obj 129 139 * 3;
#X obj 37 181 f 0;
#X obj 63 181 + 1;
#X obj 90 181 % 3;
#X obj 79 204 sel 0;
#X obj 37 204 t f f;
#X obj 37 429 list store;
#X msg 37 406 get \$1 1;
#X msg 391 145 0 4 4;
#X msg 391 353 4 0 0;
#X msg 440 353 -1 0 0;
#X obj 129 170 f 0;
#X obj 155 170 + 1;
#X obj 182 170 % 3;
#X obj 129 193 t f f;
#X obj 114 290 bng 15 250 50 0 empty empty empty 17 7 0 10 -262144
-1 -1;
#X obj 142 290 bng 15 250 50 0 empty empty empty 17 7 0 10 -262144
-1 -1;
#X obj 171 290 bng 15 250 50 0 empty empty empty 17 7 0 10 -262144
-1 -1;
#X obj 114 267 route 0 1, f 10;
#X obj 114 243 i 0;
#X obj 177 194 == 2;
#X obj 177 217 sel 1, f 6;
#X msg 177 240 2;
#X msg 210 240 5;
#X obj 144 33 r sync;
#X obj 37 515 outlet;
#X obj 37 452 change -1;
#X obj 37 475 + 0, f 36;
#X obj 250 33 inlet;
#X connect 0 0 34 1;
#X connect 2 0 34 1;
#X connect 4 0 34 1;
#X connect 5 0 34 1;
#X connect 6 0 34 1;
#X connect 7 0 34 1;
#X connect 9 0 34 1;
#X connect 10 0 34 1;
#X connect 11 0 34 1;
#X connect 12 0 0 0;
#X connect 12 1 11 0;
#X connect 12 2 36 0;
#X connect 12 3 2 0;
#X connect 13 0 12 0;
#X connect 14 0 4 0;
#X connect 14 1 5 0;
#X connect 14 2 6 0;
#X connect 14 3 7 0;
#X connect 15 0 14 0;
#X connect 16 0 9 0;
#X connect 16 1 10 0;
#X connect 16 2 37 0;
#X connect 16 3 38 0;
#X connect 17 0 16 0;
#X connect 18 0 21 0;
#X connect 19 0 20 0;
#X connect 20 0 28 0;
#X connect 21 0 22 0;
#X connect 21 0 24 0;
#X connect 22 0 23 0;
#X connect 23 0 21 1;
#X connect 24 0 29 0;
#X connect 24 1 25 0;
#X connect 25 0 26 0;
#X connect 26 0 39 0;
#X connect 26 1 19 0;
#X connect 27 0 21 1;
#X connect 27 0 29 1;
#X connect 27 0 39 1;
#X connect 28 0 23 1;
#X connect 29 0 30 0;
#X connect 29 0 33 0;
#X connect 30 0 31 0;
#X connect 31 0 29 1;
#X connect 32 0 47 0;
#X connect 33 0 35 0;
#X connect 33 1 32 0;
#X connect 34 0 54 0;
#X connect 35 0 34 0;
#X connect 36 0 34 1;
#X connect 37 0 34 1;
#X connect 38 0 34 1;
#X connect 39 0 40 0;
#X connect 39 0 42 0;
#X connect 40 0 41 0;
#X connect 41 0 39 1;
#X connect 42 0 47 1;
#X connect 42 1 48 0;
#X connect 43 0 13 0;
#X connect 44 0 15 0;
#X connect 45 0 17 0;
#X connect 46 0 43 0;
#X connect 46 1 44 0;
#X connect 46 2 45 0;
#X connect 47 0 46 0;
#X connect 48 0 49 0;
#X connect 49 0 50 0;
#X connect 49 1 51 0;
#X connect 50 0 19 1;
#X connect 51 0 19 1;
#X connect 52 0 27 0;
#X connect 54 0 55 0;
#X connect 55 0 53 0;
#X connect 56 0 55 1;
