#N canvas 269 281 713 417 10;
#X obj 143 161 list length;
#X obj 143 207 random;
#X obj 124 236 list split;
#X obj 152 261 list split 1;
#X obj 124 107 t l l b;
#X obj 233 123 f 0;
#X obj 258 123 + 1;
#X obj 283 123 % 2;
#X obj 143 184 t b f f, f 11;
#X obj 233 146 sel 0;
#X obj 233 169 f 0;
#X msg 233 191 seed \$1;
#X obj 152 325 outlet;
#X obj 124 38 inlet;
#X obj 248 38 inlet;
#X connect 0 0 8 0;
#X connect 1 0 2 1;
#X connect 2 1 3 0;
#X connect 3 0 12 0;
#X connect 4 0 2 0;
#X connect 4 1 0 0;
#X connect 4 2 5 0;
#X connect 5 0 6 0;
#X connect 5 0 9 0;
#X connect 6 0 7 0;
#X connect 7 0 5 1;
#X connect 8 0 1 0;
#X connect 8 1 1 1;
#X connect 8 2 7 1;
#X connect 9 0 10 0;
#X connect 10 0 11 0;
#X connect 11 0 1 0;
#X connect 13 0 4 0;
#X connect 14 0 10 1;
