#N canvas 35 314 556 344 10;
#X obj 248 190 clip 0.1 0.9;
#X obj 463 190 clip 1 10;
#X obj 32 291 outlet~;
#X obj 34 22 inlet;
#X obj 34 89 t b b b, f 72;
#X obj 248 113 f \$2;
#X obj 463 113 f \$3;
#X obj 121 22 inlet;
#X obj 269 22 inlet;
#X obj 484 22 inlet;
#X obj 34 113 f \$1, f 15;
#X obj 33 215 expr~ if($v1 < $f2 \, pow($v1/$f2 \, $f3) \, pow((1-$v1)/(1-$f2)
\, 1/$f3)), f 72;
#X obj 34 189 line~;
#X msg 34 166 0 \, 1 \$1 0;
#X obj 56 54 loadbang;
#X obj 34 140 clip 1 10000;
#X connect 0 0 11 1;
#X connect 1 0 11 2;
#X connect 3 0 4 0;
#X connect 4 0 10 0;
#X connect 4 1 5 0;
#X connect 4 2 6 0;
#X connect 5 0 0 0;
#X connect 6 0 1 0;
#X connect 7 0 10 1;
#X connect 8 0 5 1;
#X connect 9 0 6 1;
#X connect 10 0 15 0;
#X connect 11 0 2 0;
#X connect 12 0 11 0;
#X connect 13 0 12 0;
#X connect 14 0 4 0;
#X connect 15 0 13 0;
