#N canvas 844 221 415 389 10;
#X obj 30 227 bag;
#X msg 57 186 flush;
#X msg 105 211 clear;
#X msg 30 67 \$1 1;
#X obj 57 115 f 0;
#X obj 84 115 + 1;
#X obj 30 92 t f b;
#X obj 57 139 sel 0;
#X obj 57 162 t b b;
#X obj 105 178 del 20;
#X obj 126 91 clip 2 6;
#X obj 30 22 inlet;
#X obj 126 22 loadbang;
#X obj 30 279 outlet;
#X obj 111 115 % 4;
#X obj 126 67 f \$1;
#X msg 86 68 60 1;
#X connect 0 0 13 0;
#X connect 1 0 0 0;
#X connect 2 0 0 0;
#X connect 3 0 6 0;
#X connect 4 0 5 0;
#X connect 4 0 7 0;
#X connect 5 0 14 0;
#X connect 6 0 0 0;
#X connect 6 1 4 0;
#X connect 7 0 8 0;
#X connect 8 0 1 0;
#X connect 8 1 9 0;
#X connect 9 0 2 0;
#X connect 10 0 14 1;
#X connect 11 0 3 0;
#X connect 12 0 15 0;
#X connect 12 0 16 0;
#X connect 14 0 4 1;
#X connect 15 0 10 0;
#X connect 16 0 0 0;
