#N canvas 638 181 711 513 10;
#X obj 94 404 f 0;
#X obj 145 404 % 8;
#X obj 109 107 r sync;
#X msg 109 130 0;
#X obj 295 146 f 0;
#X obj 320 146 + 1;
#X obj 346 146 % 3;
#X obj 295 169 sel 0;
#X obj 346 365 + 2;
#X obj 346 388 * 2;
#X obj 94 82 t b b, f 34;
#X msg 329 268 -1;
#X msg 358 268 1;
#X msg 387 268 -3;
#X obj 119 404 + 2;
#X obj 128 231 f 0, f 5;
#X obj 128 284 + 0;
#X obj 295 192 random 4;
#X obj 329 244 sel 0 1 2, f 15;
#X msg 416 268 3;
#X obj 94 41 inlet;
#X obj 94 467 outlet;
#X obj 385 41 inlet;
#X msg 412 176 seed \$1;
#X obj 128 331 t f f;
#X obj 295 215 t b f f f;
#X msg 183 279 -1;
#X msg 212 279 1;
#X obj 183 255 sel 0 1 2, f 15;
#X msg 241 279 -2;
#X msg 270 279 2;
#X obj 155 467 outlet;
#X obj 361 121 + 1;
#X obj 361 98 random 7;
#X obj 385 64 t b f;
#X obj 128 308 expr if($f1<-12||$f1>24 \, 0 \, $f1);
#X connect 0 0 14 0;
#X connect 0 0 21 0;
#X connect 1 0 0 1;
#X connect 2 0 3 0;
#X connect 3 0 0 1;
#X connect 3 0 4 1;
#X connect 3 0 15 1;
#X connect 4 0 5 0;
#X connect 4 0 7 0;
#X connect 5 0 6 0;
#X connect 6 0 4 1;
#X connect 7 0 17 0;
#X connect 8 0 9 0;
#X connect 9 0 1 1;
#X connect 10 0 0 0;
#X connect 10 1 4 0;
#X connect 11 0 16 1;
#X connect 12 0 16 1;
#X connect 13 0 16 1;
#X connect 14 0 1 0;
#X connect 15 0 16 0;
#X connect 16 0 35 0;
#X connect 17 0 25 0;
#X connect 18 0 11 0;
#X connect 18 1 12 0;
#X connect 18 2 13 0;
#X connect 18 3 19 0;
#X connect 19 0 16 1;
#X connect 20 0 10 0;
#X connect 22 0 34 0;
#X connect 23 0 17 0;
#X connect 23 0 33 0;
#X connect 24 0 0 1;
#X connect 24 1 15 1;
#X connect 24 1 31 0;
#X connect 25 0 15 0;
#X connect 25 1 28 0;
#X connect 25 2 18 0;
#X connect 25 3 8 0;
#X connect 26 0 14 1;
#X connect 27 0 14 1;
#X connect 28 0 26 0;
#X connect 28 1 27 0;
#X connect 28 2 29 0;
#X connect 28 3 30 0;
#X connect 29 0 14 1;
#X connect 30 0 14 1;
#X connect 32 0 6 1;
#X connect 33 0 32 0;
#X connect 34 0 33 0;
#X connect 34 1 23 0;
#X connect 35 0 24 0;
