#N canvas 338 153 577 465 10;
#X obj 85 118 f 0;
#X obj 139 118 % 11;
#X obj 195 209 + 4;
#X obj 112 118 + 1;
#X obj 140 209 + 9;
#X obj 85 235 outlet;
#X obj 140 235 outlet;
#X obj 195 235 outlet;
#X obj 85 142 t f f f b, f 28;
#X obj 155 184 i \$2;
#X obj 210 184 i \$3;
#X obj 85 43 inlet;
#X obj 85 96 bang;
#X obj 127 43 inlet;
#X obj 127 66 clip -11 11;
#X connect 0 0 3 0;
#X connect 0 0 8 0;
#X connect 1 0 0 1;
#X connect 2 0 7 0;
#X connect 3 0 1 0;
#X connect 4 0 6 0;
#X connect 8 0 5 0;
#X connect 8 1 4 0;
#X connect 8 2 2 0;
#X connect 8 3 9 0;
#X connect 8 3 10 0;
#X connect 9 0 4 1;
#X connect 10 0 2 1;
#X connect 11 0 12 0;
#X connect 12 0 0 0;
#X connect 13 0 14 0;
#X connect 14 0 3 1;
