#N canvas 96 169 470 473 10;
#X obj 42 180 expr (($f1 % $f2) + round(random(-2 \, 2) * 4) * (($f2
- ($f1 % $f2)) / $f2)) %7, f 33;
#X obj 42 21 inlet;
#X obj 42 58 t b;
#X obj 42 128 f 0;
#X obj 68 128 + 1;
#X obj 57 82 r sync;
#X msg 57 105 0;
#X obj 237 21 inlet;
#X obj 265 128 loadbang;
#X msg 265 164 4;
#X obj 42 330 outlet;
#X obj 118 330 outlet;
#X obj 118 234 expr (round($f1 / 30) * 7) + round(random(-3 \, 3) *
2) -7, f 28;
#X obj 118 270 change -1;
#X obj 94 128 % \$1;
#X obj 42 151 t f f, f 13;
#X connect 0 0 10 0;
#X connect 1 0 2 0;
#X connect 2 0 3 0;
#X connect 3 0 4 0;
#X connect 3 0 15 0;
#X connect 4 0 14 0;
#X connect 5 0 6 0;
#X connect 6 0 3 1;
#X connect 7 0 0 1;
#X connect 8 0 9 0;
#X connect 9 0 0 1;
#X connect 12 0 13 0;
#X connect 13 0 11 0;
#X connect 14 0 3 1;
#X connect 15 0 0 0;
#X connect 15 1 12 0;
