#N canvas 61 257 807 492 10;
#X obj 76 24 inlet;
#X obj 163 24 inlet;
#X obj 76 105 f 0;
#X obj 103 105 + 1;
#X obj 131 105 % 4;
#X obj 197 89 list length;
#X msg 76 151 get \$1 1;
#X obj 76 174 list store, f 15;
#X obj 163 61 t a a a, f 12;
#X msg 145 314 get \$1 1;
#X obj 145 337 list store, f 15;
#X obj 145 292 f 0;
#X obj 172 292 + 1;
#X obj 200 292 % 4;
#X obj 215 220 i \$2;
#X obj 118 82 i \$3;
#X obj 187 160 i \$4;
#X obj 76 379 outlet;
#X obj 145 379 outlet;
#X obj 259 144 sel 0;
#X obj 76 128 t f b f, f 24;
#X obj 145 245 f 0;
#X obj 172 245 + 1;
#X obj 200 245 % 4;
#X obj 145 268 sel 0;
#X connect 0 0 2 0;
#X connect 1 0 8 0;
#X connect 2 0 3 0;
#X connect 2 0 20 0;
#X connect 3 0 4 0;
#X connect 4 0 2 1;
#X connect 5 0 4 1;
#X connect 5 0 13 1;
#X connect 6 0 7 0;
#X connect 7 0 17 0;
#X connect 8 0 7 1;
#X connect 8 1 5 0;
#X connect 8 2 10 1;
#X connect 9 0 10 0;
#X connect 10 0 18 0;
#X connect 11 0 12 0;
#X connect 11 0 9 0;
#X connect 12 0 13 0;
#X connect 13 0 11 1;
#X connect 14 0 23 1;
#X connect 15 0 3 1;
#X connect 16 0 12 1;
#X connect 19 0 15 0;
#X connect 19 0 14 0;
#X connect 19 0 16 0;
#X connect 20 0 6 0;
#X connect 20 1 21 0;
#X connect 20 2 19 0;
#X connect 21 0 22 0;
#X connect 21 0 24 0;
#X connect 22 0 23 0;
#X connect 23 0 21 1;
#X connect 24 0 11 0;
