#N canvas 351 125 1009 637 10;
#X obj 58 28 inlet;
#X obj 58 132 pack 0 0;
#X obj 127 28 inlet;
#X obj 58 102 i 0, f 12;
#X obj 58 80 t b f, f 8;
#X obj 520 606 outlet;
#X obj 520 535 t f f;
#X obj 520 558 spigot, f 7;
#X obj 559 535 != -12;
#X obj 73 606 outlet;
#X obj 138 173 expr round(($f2 * sin((1 * 3.14159 * $f1) / $f2)) +
(0.5 * $f1)), f 65;
#X obj 200 78 clip 1 12;
#X obj 138 199 expr round(($f2 * cos((1 * 3.14159 * $f1) / $f2)) +
(0.5 * $f1) + 3), f 68;
#X obj 200 101 s var;
#X obj 536 173 r var;
#X obj 554 199 r var;
#X obj 138 225 expr round(-$f2 * (1 / (1 + exp(-($f1-2)/2))) + $f2)
;
#X obj 458 225 r var;
#X obj 379 251 r var;
#X obj 138 251 expr round($f2 * $f1 * (7 - $f1));
#X obj 347 251 / 10;
#X obj 380 276 r var;
#X obj 138 277 expr round(pow($f2 \, $f1) - 7);
#X obj 321 276 + 1;
#X obj 348 276 / 20;
#X obj 300 303 r var;
#X obj 138 303 expr round($f1 * $f2 % 7);
#X obj 386 329 r var;
#X obj 138 329 expr round($f2 * sin($f1) * (1 - $f1/7));
#X obj 466 355 r var;
#X obj 138 355 expr (round(cos($f1 * 0.65) * random(1 \, $f2) + 2))
%7;
#X obj 734 381 r var;
#X obj 138 381 expr if(random(0 \, 100) < $f2 \, ($f1 + if($f1 == 0
|| $f1 == 4 || $f1 == 7 \, 7 \, 5) -7) %14 \, -1), f 93;
#X obj 707 381 * 8;
#X obj 508 407 r var;
#X obj 138 407 expr (round(sin($f1 * 0.65) * $f2 + $f2 + random(-2
\, 2))) %7;
#X obj 127 79 clip 0 10;
#X obj 679 433 r var;
#X obj 651 433 / 2;
#X obj 138 433 expr (round(atan($f1 * (0.65 + random(0 \, 25)/100))
* $f2 + $f2 + random (-2 \, 3))) %7, f 84;
#X obj 520 475 r var;
#X obj 200 28 inlet;
#X obj 200 55 f \$1;
#X obj 276 39 loadbang;
#X obj 138 148 route 0 1 2 3 4 5 6 7 8 9 10;
#X obj 769 95 sel 0 1 2 3 4 5 6 7 8 9 10;
#X msg 794 163 risoluzione;
#X msg 852 119 finale;
#X msg 865 141 passeggiata;
#X msg 898 185 danzante;
#X msg 912 207 risveglio;
#X obj 769 606 outlet;
#X msg 769 119 cre-dec;
#X msg 781 141 dec-cre;
#X msg 809 186 arco-semplice;
#X msg 824 208 ascesa-rapida;
#X msg 838 231 passo-semplice;
#X obj 769 290 list prepend set;
#X obj 769 314 list trim;
#X obj 769 266 t a;
#X obj 145 103 bng 15 250 50 0 empty empty empty 17 7 0 10 -262144
-1 -1;
#X obj 145 123 s sync;
#X obj 73 498 expr $f1 \; if (random(0 \, 200) < $f2 * 10 \, $f1 +
(random(0 \, (3 * 2) + 1) - 7) \, -12), f 75;
#X msg 882 163 evocativo;
#X connect 0 0 4 0;
#X connect 1 0 44 0;
#X connect 2 0 36 0;
#X connect 3 0 1 0;
#X connect 4 0 3 0;
#X connect 4 1 1 1;
#X connect 6 0 7 0;
#X connect 6 1 8 0;
#X connect 7 0 5 0;
#X connect 8 0 7 1;
#X connect 10 0 62 0;
#X connect 11 0 13 0;
#X connect 12 0 62 0;
#X connect 14 0 10 1;
#X connect 15 0 12 1;
#X connect 16 0 62 0;
#X connect 17 0 16 1;
#X connect 18 0 20 0;
#X connect 19 0 62 0;
#X connect 20 0 19 1;
#X connect 21 0 24 0;
#X connect 22 0 62 0;
#X connect 23 0 22 1;
#X connect 24 0 23 0;
#X connect 25 0 26 1;
#X connect 26 0 62 0;
#X connect 27 0 28 1;
#X connect 28 0 62 0;
#X connect 29 0 30 1;
#X connect 30 0 62 0;
#X connect 31 0 33 0;
#X connect 32 0 62 0;
#X connect 33 0 32 1;
#X connect 34 0 35 1;
#X connect 35 0 62 0;
#X connect 36 0 3 1;
#X connect 36 0 45 0;
#X connect 36 0 60 0;
#X connect 37 0 38 0;
#X connect 38 0 39 1;
#X connect 39 0 62 0;
#X connect 40 0 62 1;
#X connect 41 0 42 0;
#X connect 42 0 11 0;
#X connect 43 0 42 0;
#X connect 44 0 10 0;
#X connect 44 1 12 0;
#X connect 44 2 16 0;
#X connect 44 3 19 0;
#X connect 44 4 22 0;
#X connect 44 5 26 0;
#X connect 44 6 28 0;
#X connect 44 7 30 0;
#X connect 44 8 32 0;
#X connect 44 9 35 0;
#X connect 44 10 39 0;
#X connect 45 0 52 0;
#X connect 45 1 53 0;
#X connect 45 2 46 0;
#X connect 45 3 54 0;
#X connect 45 4 55 0;
#X connect 45 5 56 0;
#X connect 45 6 47 0;
#X connect 45 7 48 0;
#X connect 45 8 63 0;
#X connect 45 9 49 0;
#X connect 45 10 50 0;
#X connect 46 0 59 0;
#X connect 47 0 59 0;
#X connect 48 0 59 0;
#X connect 49 0 59 0;
#X connect 50 0 59 0;
#X connect 52 0 59 0;
#X connect 53 0 59 0;
#X connect 54 0 59 0;
#X connect 55 0 59 0;
#X connect 56 0 59 0;
#X connect 57 0 58 0;
#X connect 58 0 51 0;
#X connect 59 0 57 0;
#X connect 60 0 61 0;
#X connect 62 0 9 0;
#X connect 62 1 6 0;
#X connect 63 0 59 0;
