#N canvas 0 116 1366 652 10;
#X obj 84 69 hsl 40 8 0 1 0 0 empty empty empty -2 -8 0 10 -1 -262144
-1 1950 1;
#X obj 84 79 hsl 40 8 0 1 0 0 empty empty empty -2 -8 0 10 -1 -262144
-1 3900 1;
#X obj 84 89 hsl 40 8 0 1 0 0 empty empty empty -2 -8 0 10 -1 -262144
-1 3900 1;
#X obj 84 99 hsl 40 8 0 1 0 0 empty empty empty -2 -8 0 10 -1 -262144
-1 1950 1;
#X obj 84 109 hsl 40 8 0 1 0 0 empty empty empty -2 -8 0 10 -1 -262144
-1 3900 1;
#X obj 84 119 hsl 40 8 0 1 0 0 empty empty empty -2 -8 0 10 -1 -262144
-1 3900 1;
#X obj 308 328 t f f f f f f, f 114;
#X floatatom 308 372 5 0 0 0 - - -;
#X obj 308 393 + 0;
#X obj 308 416 mtof;
#X obj 308 439 osc~;
#X obj 308 462 *~;
#X obj 344 446 vline~;
#X obj 81 48 bng 15 250 50 0 empty empty init 17 7 0 10 -262144 -1
-1;
#X obj 169 171 random 2;
#X obj 169 194 sel 0;
#X msg 169 217 0.5;
#X msg 196 217 1;
#X obj 226 171 random 2;
#X obj 226 194 sel 0;
#X msg 226 217 0.5;
#X msg 253 217 1;
#X obj 169 241 random 2;
#X obj 169 264 sel 0;
#X msg 169 287 0.5;
#X msg 196 287 1;
#X obj 226 241 random 2;
#X obj 226 264 sel 0;
#X msg 226 287 0.5;
#X msg 253 287 1;
#X obj 169 310 random 2;
#X obj 169 333 sel 0;
#X msg 169 356 0.5;
#X msg 196 356 1;
#X obj 226 310 random 2;
#X obj 226 333 sel 0;
#X msg 226 356 0.5;
#X msg 253 356 1;
#X obj 350 193 t f f f f f f, f 106;
#X obj 308 170 f;
#X obj 344 226 * 1;
#X obj 308 70 bng 15 250 50 0 empty empty empty 17 7 0 10 -262144 -1
-1;
#X obj 476 223 * 1;
#X obj 603 223 * 1;
#X obj 729 223 * 1;
#X obj 856 223 * 1;
#X obj 983 223 * 1;
#X obj 411 269 del \$1;
#X obj 416 246 * 0.5;
#X obj 371 226 f;
#X obj 371 269 sel 1;
#X obj 411 224 bng 15 250 50 0 empty empty empty 17 7 0 10 -262144
-1 -1;
#X obj 371 248 < 1;
#X obj 411 291 bng 15 250 50 0 empty empty empty 17 7 0 10 -262144
-1 -1;
#X floatatom 344 372 5 0 0 0 - - -;
#X obj 543 266 del \$1;
#X obj 548 243 * 0.5;
#X obj 503 223 f;
#X obj 503 266 sel 1;
#X obj 543 221 bng 15 250 50 0 empty empty empty 17 7 0 10 -262144
-1 -1;
#X obj 503 245 < 1;
#X obj 543 288 bng 15 250 50 0 empty empty empty 17 7 0 10 -262144
-1 -1;
#X obj 669 266 del \$1;
#X obj 674 243 * 0.5;
#X obj 629 223 f;
#X obj 629 266 sel 1;
#X obj 669 221 bng 15 250 50 0 empty empty empty 17 7 0 10 -262144
-1 -1;
#X obj 629 245 < 1;
#X obj 669 288 bng 15 250 50 0 empty empty empty 17 7 0 10 -262144
-1 -1;
#X obj 795 266 del \$1;
#X obj 800 243 * 0.5;
#X obj 755 223 f;
#X obj 755 266 sel 1;
#X obj 795 221 bng 15 250 50 0 empty empty empty 17 7 0 10 -262144
-1 -1;
#X obj 755 245 < 1;
#X obj 795 288 bng 15 250 50 0 empty empty empty 17 7 0 10 -262144
-1 -1;
#X obj 923 266 del \$1;
#X obj 928 243 * 0.5;
#X obj 883 223 f;
#X obj 883 266 sel 1;
#X obj 923 221 bng 15 250 50 0 empty empty empty 17 7 0 10 -262144
-1 -1;
#X obj 883 245 < 1;
#X obj 923 288 bng 15 250 50 0 empty empty empty 17 7 0 10 -262144
-1 -1;
#X obj 1050 266 del \$1;
#X obj 1055 243 * 0.5;
#X obj 1010 223 f;
#X obj 1010 266 sel 1;
#X obj 1050 221 bng 15 250 50 0 empty empty empty 17 7 0 10 -262144
-1 -1;
#X obj 1010 245 < 1;
#X obj 1050 288 bng 15 250 50 0 empty empty empty 17 7 0 10 -262144
-1 -1;
#X floatatom 441 372 5 0 0 0 - - -;
#X obj 441 416 mtof;
#X obj 441 439 osc~;
#X obj 441 462 *~;
#X obj 479 446 vline~;
#X floatatom 479 372 5 0 0 0 - - -;
#X floatatom 580 372 5 0 0 0 - - -;
#X obj 580 416 mtof;
#X obj 580 439 osc~;
#X obj 580 462 *~;
#X obj 615 446 vline~;
#X floatatom 615 372 5 0 0 0 - - -;
#X floatatom 716 372 5 0 0 0 - - -;
#X obj 716 416 mtof;
#X obj 716 439 osc~;
#X obj 716 462 *~;
#X obj 752 446 vline~;
#X floatatom 752 372 5 0 0 0 - - -;
#X floatatom 852 372 5 0 0 0 - - -;
#X obj 852 416 mtof;
#X obj 852 439 osc~;
#X obj 852 462 *~;
#X obj 888 446 vline~;
#X floatatom 888 372 5 0 0 0 - - -;
#X floatatom 989 372 5 0 0 0 - - -;
#X obj 989 416 mtof;
#X obj 989 439 osc~;
#X obj 989 462 *~;
#X obj 1025 446 vline~;
#X floatatom 1025 372 5 0 0 0 - - -;
#X obj 441 393 + 4;
#X obj 580 393 + 9;
#X obj 716 393 + 14;
#X obj 852 393 + 19;
#X obj 989 393 + 24;
#X obj 309 542 /~ 8;
#X msg 344 423 \$2 10 \, 0 \$1 10;
#X msg 344 394 \$1 1;
#X msg 479 394 \$1 0.9;
#X msg 479 423 \$2 10 \, 0 \$1 10;
#X msg 615 423 \$2 10 \, 0 \$1 10;
#X msg 752 423 \$2 10 \, 0 \$1 10;
#X msg 888 423 \$2 10 \, 0 \$1 10;
#X msg 1025 423 \$2 10 \, 0 \$1 10;
#X msg 615 394 \$1 0.8;
#X msg 752 394 \$1 0.7;
#X msg 888 394 \$1 0.6;
#X msg 1025 394 \$1 0.5;
#X obj 389 372 f;
#X msg 389 395 \$1 0.5;
#X obj 527 371 f;
#X msg 527 394 \$1 0.45;
#X obj 662 370 f;
#X msg 662 393 \$1 0.4;
#X obj 798 371 f;
#X msg 798 394 \$1 0.35;
#X obj 935 371 f;
#X msg 935 394 \$1 0.3;
#X obj 1072 371 f;
#X msg 1072 394 \$1 0.25;
#X obj 138 438 * 2;
#X obj 171 438 * 3;
#X obj 204 438 * 4;
#X obj 237 438 * 5;
#X obj 270 438 * 6;
#X obj 81 468 expr ($f1+$f2+$f3+$f4+$f5+$f6)*4;
#X obj 81 130 nbx 3 14 -1e+37 1e+37 0 0 empty empty empty 0 -8 0 14
-262144 -1 -1 60 256;
#X obj 350 95 f 1000;
#X obj 308 596 outlet~;
#X obj 282 27 t b b;
#X obj 220 54 inlet;
#X obj 403 53 inlet;
#X obj 457 54 inlet;
#X obj 308 49 del 50;
#X connect 0 0 49 1;
#X connect 0 0 40 1;
#X connect 0 0 155 0;
#X connect 1 0 57 1;
#X connect 1 0 150 0;
#X connect 2 0 64 1;
#X connect 2 0 151 0;
#X connect 3 0 71 1;
#X connect 3 0 152 0;
#X connect 4 0 78 1;
#X connect 4 0 153 0;
#X connect 5 0 85 1;
#X connect 5 0 154 0;
#X connect 6 0 7 0;
#X connect 6 1 90 0;
#X connect 6 2 96 0;
#X connect 6 3 102 0;
#X connect 6 4 108 0;
#X connect 6 5 114 0;
#X connect 7 0 8 0;
#X connect 8 0 9 0;
#X connect 9 0 10 0;
#X connect 10 0 11 0;
#X connect 11 0 125 0;
#X connect 12 0 11 1;
#X connect 13 0 14 0;
#X connect 13 0 18 0;
#X connect 13 0 22 0;
#X connect 13 0 26 0;
#X connect 13 0 30 0;
#X connect 13 0 34 0;
#X connect 14 0 15 0;
#X connect 15 0 16 0;
#X connect 15 1 17 0;
#X connect 16 0 0 0;
#X connect 17 0 0 0;
#X connect 18 0 19 0;
#X connect 19 0 20 0;
#X connect 19 1 21 0;
#X connect 20 0 1 0;
#X connect 21 0 1 0;
#X connect 22 0 23 0;
#X connect 23 0 24 0;
#X connect 23 1 25 0;
#X connect 24 0 2 0;
#X connect 25 0 2 0;
#X connect 26 0 27 0;
#X connect 27 0 28 0;
#X connect 27 1 29 0;
#X connect 28 0 3 0;
#X connect 29 0 3 0;
#X connect 30 0 31 0;
#X connect 31 0 32 0;
#X connect 31 1 33 0;
#X connect 32 0 4 0;
#X connect 33 0 4 0;
#X connect 34 0 35 0;
#X connect 35 0 36 0;
#X connect 35 1 37 0;
#X connect 36 0 5 0;
#X connect 37 0 5 0;
#X connect 38 0 40 0;
#X connect 38 1 42 0;
#X connect 38 2 43 0;
#X connect 38 3 44 0;
#X connect 38 4 45 0;
#X connect 38 5 46 0;
#X connect 39 0 6 0;
#X connect 40 0 54 0;
#X connect 40 0 138 1;
#X connect 41 0 39 0;
#X connect 41 0 49 0;
#X connect 41 0 57 0;
#X connect 41 0 64 0;
#X connect 41 0 71 0;
#X connect 41 0 78 0;
#X connect 41 0 85 0;
#X connect 41 0 157 0;
#X connect 42 0 95 0;
#X connect 42 0 140 1;
#X connect 43 0 101 0;
#X connect 43 0 142 1;
#X connect 44 0 107 0;
#X connect 44 0 144 1;
#X connect 45 0 113 0;
#X connect 45 0 146 1;
#X connect 46 0 119 0;
#X connect 46 0 148 1;
#X connect 47 0 53 0;
#X connect 48 0 47 1;
#X connect 49 0 52 0;
#X connect 50 0 51 0;
#X connect 51 0 47 0;
#X connect 52 0 50 0;
#X connect 53 0 7 0;
#X connect 53 0 138 0;
#X connect 54 0 127 0;
#X connect 55 0 61 0;
#X connect 56 0 55 1;
#X connect 57 0 60 0;
#X connect 58 0 59 0;
#X connect 59 0 55 0;
#X connect 60 0 58 0;
#X connect 61 0 90 0;
#X connect 61 0 140 0;
#X connect 62 0 68 0;
#X connect 63 0 62 1;
#X connect 64 0 67 0;
#X connect 65 0 66 0;
#X connect 66 0 62 0;
#X connect 67 0 65 0;
#X connect 68 0 96 0;
#X connect 68 0 142 0;
#X connect 69 0 75 0;
#X connect 70 0 69 1;
#X connect 71 0 74 0;
#X connect 72 0 73 0;
#X connect 73 0 69 0;
#X connect 74 0 72 0;
#X connect 75 0 102 0;
#X connect 75 0 144 0;
#X connect 76 0 82 0;
#X connect 77 0 76 1;
#X connect 78 0 81 0;
#X connect 79 0 80 0;
#X connect 80 0 76 0;
#X connect 81 0 79 0;
#X connect 82 0 108 0;
#X connect 82 0 146 0;
#X connect 83 0 89 0;
#X connect 84 0 83 1;
#X connect 85 0 88 0;
#X connect 86 0 87 0;
#X connect 87 0 83 0;
#X connect 88 0 86 0;
#X connect 89 0 114 0;
#X connect 89 0 148 0;
#X connect 90 0 120 0;
#X connect 91 0 92 0;
#X connect 92 0 93 0;
#X connect 93 0 125 0;
#X connect 94 0 93 1;
#X connect 95 0 128 0;
#X connect 96 0 121 0;
#X connect 97 0 98 0;
#X connect 98 0 99 0;
#X connect 99 0 125 0;
#X connect 100 0 99 1;
#X connect 101 0 134 0;
#X connect 102 0 122 0;
#X connect 103 0 104 0;
#X connect 104 0 105 0;
#X connect 105 0 125 0;
#X connect 106 0 105 1;
#X connect 107 0 135 0;
#X connect 108 0 123 0;
#X connect 109 0 110 0;
#X connect 110 0 111 0;
#X connect 111 0 125 0;
#X connect 112 0 111 1;
#X connect 113 0 136 0;
#X connect 114 0 124 0;
#X connect 115 0 116 0;
#X connect 116 0 117 0;
#X connect 117 0 125 0;
#X connect 118 0 117 1;
#X connect 119 0 137 0;
#X connect 120 0 91 0;
#X connect 121 0 97 0;
#X connect 122 0 103 0;
#X connect 123 0 109 0;
#X connect 124 0 115 0;
#X connect 125 0 158 0;
#X connect 126 0 12 0;
#X connect 127 0 126 0;
#X connect 128 0 129 0;
#X connect 129 0 94 0;
#X connect 130 0 100 0;
#X connect 131 0 106 0;
#X connect 132 0 112 0;
#X connect 133 0 118 0;
#X connect 134 0 130 0;
#X connect 135 0 131 0;
#X connect 136 0 132 0;
#X connect 137 0 133 0;
#X connect 138 0 139 0;
#X connect 139 0 126 0;
#X connect 140 0 141 0;
#X connect 141 0 129 0;
#X connect 142 0 143 0;
#X connect 143 0 130 0;
#X connect 144 0 145 0;
#X connect 145 0 131 0;
#X connect 146 0 147 0;
#X connect 147 0 132 0;
#X connect 148 0 149 0;
#X connect 149 0 133 0;
#X connect 150 0 155 1;
#X connect 151 0 155 2;
#X connect 152 0 155 3;
#X connect 153 0 155 4;
#X connect 154 0 155 5;
#X connect 155 0 156 0;
#X connect 156 0 39 1;
#X connect 157 0 48 0;
#X connect 157 0 38 0;
#X connect 157 0 56 0;
#X connect 157 0 63 0;
#X connect 157 0 70 0;
#X connect 157 0 77 0;
#X connect 157 0 84 0;
#X connect 159 0 13 0;
#X connect 159 1 163 0;
#X connect 160 0 41 0;
#X connect 161 0 159 0;
#X connect 162 0 157 1;
#X connect 163 0 41 0;
#X coords 0 -1 1 1 60 132 1 73 20;
