#N canvas 571 161 845 590 10;
#X obj 65 120 i 0;
#X obj 87 68 hsl 50 15 0 4 0 0 empty empty con-->dis -2 22 0 10 -262144
-1 -1 2100 1;
#X obj 65 188 pack f f;
#X obj 65 143 t b f;
#X obj 65 166 i 0, f 8;
#X obj 65 395 t f b;
#X obj 92 417 random 3, f 9;
#X obj 92 440 sel 0 1 2;
#X obj 65 504 + 0;
#X msg 92 463 0;
#X msg 109 488 -12;
#X msg 126 463 12;
#X obj 177 234 t f b;
#X obj 177 343 + 0;
#X obj 204 279 sel 0 1, f 9;
#X msg 204 302 4;
#X msg 229 327 9;
#X msg 255 302 0;
#X obj 204 256 random 3, f 9;
#X obj 289 234 t f b;
#X obj 289 343 + 0;
#X obj 316 279 sel 0 1, f 9;
#X obj 316 256 random 3, f 9;
#X msg 367 302 4;
#X obj 401 234 t f b;
#X obj 401 343 + 0;
#X obj 428 279 sel 0 1, f 9;
#X obj 428 256 random 3, f 9;
#X msg 428 302 2;
#X msg 479 302 7;
#X msg 453 327 5;
#X msg 316 302 7;
#X msg 341 327 11;
#X obj 513 234 t f b;
#X obj 513 343 + 0;
#X obj 540 279 sel 0 1, f 9;
#X obj 540 256 random 3, f 9;
#X msg 591 302 11;
#X msg 540 302 3;
#X msg 565 327 6;
#X obj 626 234 t f b;
#X obj 626 343 + 0;
#X obj 653 279 sel 0 1, f 9;
#X obj 653 256 random 3, f 9;
#X obj 65 211 route 0 1 2 3 4, f 94;
#X msg 653 302 1;
#X msg 678 327 6;
#X msg 704 302 8;
#X obj 65 14 inlet;
#X obj 65 68 bng 15 250 50 0 empty empty empty 17 7 0 10 -262144 -228856
-1;
#X obj 105 14 inlet;
#X obj 191 14 inlet;
#X obj 191 36 clip 0 4;
#X obj 65 550 outlet;
#X connect 0 0 3 0;
#X connect 1 0 4 1;
#X connect 2 0 44 0;
#X connect 3 0 4 0;
#X connect 3 1 2 1;
#X connect 4 0 2 0;
#X connect 5 0 8 0;
#X connect 5 1 6 0;
#X connect 6 0 7 0;
#X connect 7 0 9 0;
#X connect 7 1 10 0;
#X connect 7 2 11 0;
#X connect 8 0 53 0;
#X connect 9 0 8 1;
#X connect 10 0 8 1;
#X connect 11 0 8 1;
#X connect 12 0 13 0;
#X connect 12 1 18 0;
#X connect 13 0 5 0;
#X connect 14 0 15 0;
#X connect 14 1 16 0;
#X connect 14 2 17 0;
#X connect 15 0 13 1;
#X connect 16 0 13 1;
#X connect 17 0 13 1;
#X connect 18 0 14 0;
#X connect 19 0 20 0;
#X connect 19 1 22 0;
#X connect 20 0 5 0;
#X connect 21 0 31 0;
#X connect 21 1 32 0;
#X connect 21 2 23 0;
#X connect 22 0 21 0;
#X connect 23 0 20 1;
#X connect 24 0 25 0;
#X connect 24 1 27 0;
#X connect 25 0 5 0;
#X connect 26 0 28 0;
#X connect 26 1 30 0;
#X connect 26 2 29 0;
#X connect 27 0 26 0;
#X connect 28 0 25 1;
#X connect 29 0 25 1;
#X connect 30 0 25 1;
#X connect 31 0 20 1;
#X connect 32 0 20 1;
#X connect 33 0 34 0;
#X connect 33 1 36 0;
#X connect 34 0 5 0;
#X connect 35 0 38 0;
#X connect 35 1 39 0;
#X connect 35 2 37 0;
#X connect 36 0 35 0;
#X connect 37 0 34 1;
#X connect 38 0 34 1;
#X connect 39 0 34 1;
#X connect 40 0 41 0;
#X connect 40 1 43 0;
#X connect 41 0 5 0;
#X connect 42 0 45 0;
#X connect 42 1 46 0;
#X connect 42 2 47 0;
#X connect 43 0 42 0;
#X connect 44 0 5 0;
#X connect 44 1 12 0;
#X connect 44 2 19 0;
#X connect 44 3 24 0;
#X connect 44 4 33 0;
#X connect 44 5 40 0;
#X connect 45 0 41 1;
#X connect 46 0 41 1;
#X connect 47 0 41 1;
#X connect 48 0 49 0;
#X connect 49 0 0 0;
#X connect 50 0 0 1;
#X connect 51 0 52 0;
#X connect 52 0 1 0;
#X coords 0 -1 1 1 85 60 1 60 40;
