#N canvas 856 315 466 392 10;
#X obj 109 95 + 1;
#X obj 136 95 % 2;
#X obj 83 118 sel 0;
#X obj 83 95 f 0;
#X obj 26 254 spigot, f 10;
#X obj 109 141 + 1;
#X obj 136 141 % 2;
#X obj 83 141 f 0;
#X floatatom 83 232 5 0 0 0 - - -;
#X obj 83 164 t f f;
#X obj 138 180 sel 0 1, f 12;
#X obj 26 304 outlet;
#X obj 26 23 inlet;
#X obj 148 23 r sync;
#X msg 148 46 0;
#X obj 83 23 inlet;
#X obj 83 209 abs;
#X obj 83 187 - \$1;
#X obj 138 209 f \$2;
#X obj 172 209 f \$3;
#X connect 0 0 1 0;
#X connect 1 0 3 1;
#X connect 2 0 7 0;
#X connect 3 0 0 0;
#X connect 3 0 2 0;
#X connect 4 0 11 0;
#X connect 5 0 6 0;
#X connect 6 0 7 1;
#X connect 7 0 5 0;
#X connect 7 0 9 0;
#X connect 8 0 4 1;
#X connect 9 0 17 0;
#X connect 9 1 10 0;
#X connect 10 0 18 0;
#X connect 10 1 19 0;
#X connect 12 0 4 0;
#X connect 13 0 14 0;
#X connect 14 0 3 1;
#X connect 14 0 7 1;
#X connect 15 0 3 0;
#X connect 16 0 8 0;
#X connect 17 0 16 0;
#X connect 18 0 1 1;
#X connect 19 0 1 1;
