#N canvas 84 152 450 587 10;
#X obj 39 30 inlet;
#X obj 39 78 t b;
#X obj 39 151 f 0;
#X obj 65 151 + 1;
#X obj 91 151 % 12;
#X obj 54 105 r sync;
#X msg 54 128 0;
#X obj 39 243 change -1;
#X obj 39 300 - 7;
#X obj 39 175 t f f, f 11;
#X obj 39 266 t f b, f 24;
#X obj 39 221 t f f, f 44;
#X obj 102 300 expr (round($f1/2) + ($f2/5)*3) %7;
#X obj 39 198 expr ((($f1/4)%7) *4) %7;
#X obj 39 370 outlet;
#X obj 180 370 outlet;
#X obj 102 370 outlet;
#X obj 112 30 inlet;
#X connect 0 0 1 0;
#X connect 1 0 2 0;
#X connect 2 0 3 0;
#X connect 2 0 9 0;
#X connect 3 0 4 0;
#X connect 4 0 2 1;
#X connect 5 0 6 0;
#X connect 6 0 2 1;
#X connect 7 0 10 0;
#X connect 8 0 14 0;
#X connect 9 0 13 0;
#X connect 9 1 12 0;
#X connect 10 0 8 0;
#X connect 10 1 15 0;
#X connect 11 0 7 0;
#X connect 11 1 12 1;
#X connect 12 0 16 0;
#X connect 13 0 11 0;
#X connect 17 0 4 1;
