#N canvas 0 116 1366 652 10;
#X obj 93 543 *~;
#X obj 110 65 hsl 170 15 0 1 0 0 empty empty Wet/Dry 175 8 0 10 -228856
-1 -1 4500 1;
#X obj 107 444 pack 0 100;
#X obj 107 467 line~;
#X obj 457 444 expr 1-$f1;
#X obj 457 508 pack 0 100;
#X obj 457 531 line~;
#X obj 443 688 *~;
#X obj 250 552 /~ 2;
#X obj 250 529 +~ 1;
#X floatatom 108 86 4 0 0 1 Speed - -;
#X floatatom 304 528 5 0 0 0 - - -;
#X obj 304 551 pack 0 100;
#X obj 304 574 line~;
#X floatatom 107 422 5 0 0 0 - - -;
#X floatatom 457 486 5 0 0 0 - - -;
#X obj 111 107 hsl 60 15 20 40 0 0 empty empty Width 65 8 0 10 -262144
-1 -1 4600 1;
#X floatatom 381 426 5 0 0 0 - - -;
#X obj 381 533 pack 0 100;
#X obj 381 599 line~;
#X obj 111 126 hsl 60 15 1 30 0 0 empty empty Delay 65 8 0 10 -262144
-1 -1 5900 1;
#X obj 250 615 +~;
#X obj 250 591 *~;
#X obj 93 705 clip~ -1 1;
#X obj 320 427 t b f;
#X msg 320 450 1;
#X obj 320 473 /;
#X obj 320 496 spigot;
#X obj 171 86 tgl 15 0 empty empty Link 20 8 0 10 -262144 -1 -1 1 1
;
#X obj 250 446 osc~ 1;
#X obj 438 32 inlet~;
#X obj 51 500 delwrite~ \$0-chorus 1000;
#X obj 249 671 delread4~ \$0-chorus;
#X obj 591 543 *~;
#X obj 605 444 pack 0 100;
#X obj 605 467 line~;
#X obj 955 444 expr 1-$f1;
#X obj 955 508 pack 0 100;
#X obj 955 531 line~;
#X obj 941 688 *~;
#X obj 748 552 /~ 2;
#X obj 748 529 +~ 1;
#X floatatom 223 86 4 0 0 1 Speed - -;
#X floatatom 802 528 5 0 0 0 - - -;
#X obj 802 551 pack 0 100;
#X obj 802 574 line~;
#X floatatom 605 422 5 0 0 0 - - -;
#X floatatom 955 486 5 0 0 0 - - -;
#X obj 226 107 hsl 60 15 20 40 0 0 empty empty Width 65 8 0 10 -262144
-1 -1 4000 1;
#X floatatom 879 426 5 0 0 0 - - -;
#X obj 879 533 pack 0 100;
#X obj 879 599 line~;
#X obj 226 126 hsl 60 15 1 30 0 0 empty empty Delay 65 8 0 10 -262144
-1 -1 5900 1;
#X obj 748 615 +~;
#X obj 748 591 *~;
#X obj 591 705 clip~ -1 1;
#X obj 818 427 t b f;
#X msg 818 450 1;
#X obj 818 473 /;
#X obj 818 496 spigot;
#X obj 286 86 tgl 15 0 empty empty Link 20 8 0 10 -262144 -1 -1 1 1
;
#X obj 748 446 osc~ 1;
#X obj 549 500 delwrite~ \$0-chorus0 1000;
#X obj 747 671 delread4~ \$0-chorus0;
#X obj 93 1039 *~;
#X obj 107 940 pack 0 100;
#X obj 107 963 line~;
#X obj 457 940 expr 1-$f1;
#X obj 457 1004 pack 0 100;
#X obj 457 1027 line~;
#X obj 443 1184 *~;
#X obj 250 1048 /~ 2;
#X obj 250 1025 +~ 1;
#X floatatom 108 149 4 0 0 1 Speed - -;
#X floatatom 304 1024 5 0 0 0 - - -;
#X obj 304 1047 pack 0 100;
#X obj 304 1070 line~;
#X floatatom 107 918 5 0 0 0 - - -;
#X floatatom 457 982 5 0 0 0 - - -;
#X obj 111 170 hsl 60 15 20 40 0 0 empty empty Width 65 8 0 10 -262144
-1 -1 4000 1;
#X floatatom 381 922 5 0 0 0 - - -;
#X obj 381 1029 pack 0 100;
#X obj 381 1095 line~;
#X obj 111 189 hsl 60 15 1 30 0 0 empty empty Delay 65 8 0 10 -262144
-1 -1 5100 1;
#X obj 250 1111 +~;
#X obj 250 1087 *~;
#X obj 93 1201 clip~ -1 1;
#X obj 320 923 t b f;
#X msg 320 946 1;
#X obj 320 969 /;
#X obj 320 992 spigot;
#X obj 171 149 tgl 15 0 empty empty Link 20 8 0 10 -262144 -1 -1 1
1;
#X obj 250 942 osc~ 1;
#X obj 591 1039 *~;
#X obj 605 940 pack 0 100;
#X obj 605 963 line~;
#X obj 955 940 expr 1-$f1;
#X obj 955 1004 pack 0 100;
#X obj 955 1027 line~;
#X obj 941 1184 *~;
#X obj 748 1048 /~ 2;
#X obj 748 1025 +~ 1;
#X floatatom 222 149 4 0 0 1 Speed - -;
#X floatatom 802 1024 5 0 0 0 - - -;
#X obj 802 1047 pack 0 100;
#X obj 802 1070 line~;
#X floatatom 605 918 5 0 0 0 - - -;
#X floatatom 955 982 5 0 0 0 - - -;
#X obj 225 170 hsl 60 15 20 40 0 0 empty empty Width 65 8 0 10 -262144
-1 -1 4100 1;
#X floatatom 879 922 5 0 0 0 - - -;
#X obj 879 1029 pack 0 100;
#X obj 879 1095 line~;
#X obj 225 189 hsl 60 15 1 30 0 0 empty empty Delay 65 8 0 10 -262144
-1 -1 5100 1;
#X obj 748 1111 +~;
#X obj 748 1087 *~;
#X obj 591 1201 clip~ -1 1;
#X obj 818 923 t b f;
#X msg 818 946 1;
#X obj 818 969 /;
#X obj 818 992 spigot;
#X obj 285 149 tgl 15 0 empty empty Link 20 8 0 10 -262144 -1 -1 1
1;
#X obj 748 942 osc~ 1;
#X obj 51 996 delwrite~ \$0-chorus1 1000;
#X obj 249 1167 delread4~ \$0-chorus1;
#X obj 549 996 delwrite~ \$0-chorus2 1000;
#X obj 747 1167 delread4~ \$0-chorus2;
#X obj 1026 835 outlet~;
#X connect 0 0 23 0;
#X connect 1 0 14 0;
#X connect 1 0 4 0;
#X connect 1 0 46 0;
#X connect 1 0 36 0;
#X connect 1 0 77 0;
#X connect 1 0 67 0;
#X connect 1 0 106 0;
#X connect 1 0 96 0;
#X connect 2 0 3 0;
#X connect 3 0 0 1;
#X connect 4 0 15 0;
#X connect 5 0 6 0;
#X connect 6 0 7 1;
#X connect 7 0 23 0;
#X connect 7 0 31 0;
#X connect 8 0 22 0;
#X connect 9 0 8 0;
#X connect 10 0 29 0;
#X connect 11 0 12 0;
#X connect 12 0 13 0;
#X connect 13 0 22 1;
#X connect 14 0 2 0;
#X connect 15 0 5 0;
#X connect 16 0 11 0;
#X connect 16 0 24 0;
#X connect 17 0 18 0;
#X connect 18 0 19 0;
#X connect 19 0 21 1;
#X connect 20 0 17 0;
#X connect 21 0 32 0;
#X connect 22 0 21 0;
#X connect 23 0 126 0;
#X connect 24 0 25 0;
#X connect 24 1 26 1;
#X connect 25 0 26 0;
#X connect 26 0 27 0;
#X connect 27 0 10 0;
#X connect 28 0 27 1;
#X connect 29 0 9 0;
#X connect 30 0 31 0;
#X connect 30 0 62 0;
#X connect 30 0 122 0;
#X connect 30 0 124 0;
#X connect 32 0 7 0;
#X connect 32 0 0 0;
#X connect 33 0 55 0;
#X connect 34 0 35 0;
#X connect 35 0 33 1;
#X connect 36 0 47 0;
#X connect 37 0 38 0;
#X connect 38 0 39 1;
#X connect 39 0 55 0;
#X connect 39 0 62 0;
#X connect 40 0 54 0;
#X connect 41 0 40 0;
#X connect 42 0 61 0;
#X connect 43 0 44 0;
#X connect 44 0 45 0;
#X connect 45 0 54 1;
#X connect 46 0 34 0;
#X connect 47 0 37 0;
#X connect 48 0 43 0;
#X connect 48 0 56 0;
#X connect 49 0 50 0;
#X connect 50 0 51 0;
#X connect 51 0 53 1;
#X connect 52 0 49 0;
#X connect 53 0 63 0;
#X connect 54 0 53 0;
#X connect 55 0 126 0;
#X connect 56 0 57 0;
#X connect 56 1 58 1;
#X connect 57 0 58 0;
#X connect 58 0 59 0;
#X connect 59 0 42 0;
#X connect 60 0 59 1;
#X connect 61 0 41 0;
#X connect 63 0 39 0;
#X connect 63 0 33 0;
#X connect 64 0 86 0;
#X connect 65 0 66 0;
#X connect 66 0 64 1;
#X connect 67 0 78 0;
#X connect 68 0 69 0;
#X connect 69 0 70 1;
#X connect 70 0 86 0;
#X connect 70 0 122 0;
#X connect 71 0 85 0;
#X connect 72 0 71 0;
#X connect 73 0 92 0;
#X connect 74 0 75 0;
#X connect 75 0 76 0;
#X connect 76 0 85 1;
#X connect 77 0 65 0;
#X connect 78 0 68 0;
#X connect 79 0 74 0;
#X connect 79 0 87 0;
#X connect 80 0 81 0;
#X connect 81 0 82 0;
#X connect 82 0 84 1;
#X connect 83 0 80 0;
#X connect 84 0 123 0;
#X connect 85 0 84 0;
#X connect 86 0 126 0;
#X connect 87 0 88 0;
#X connect 87 1 89 1;
#X connect 88 0 89 0;
#X connect 89 0 90 0;
#X connect 90 0 73 0;
#X connect 91 0 90 1;
#X connect 92 0 72 0;
#X connect 93 0 115 0;
#X connect 94 0 95 0;
#X connect 95 0 93 1;
#X connect 96 0 107 0;
#X connect 97 0 98 0;
#X connect 98 0 99 1;
#X connect 99 0 115 0;
#X connect 99 0 124 0;
#X connect 100 0 114 0;
#X connect 101 0 100 0;
#X connect 102 0 121 0;
#X connect 103 0 104 0;
#X connect 104 0 105 0;
#X connect 105 0 114 1;
#X connect 106 0 94 0;
#X connect 107 0 97 0;
#X connect 108 0 103 0;
#X connect 108 0 116 0;
#X connect 109 0 110 0;
#X connect 110 0 111 0;
#X connect 111 0 113 1;
#X connect 112 0 109 0;
#X connect 113 0 125 0;
#X connect 114 0 113 0;
#X connect 115 0 126 0;
#X connect 116 0 117 0;
#X connect 116 1 118 1;
#X connect 117 0 118 0;
#X connect 118 0 119 0;
#X connect 119 0 102 0;
#X connect 120 0 119 1;
#X connect 121 0 101 0;
#X connect 123 0 70 0;
#X connect 123 0 64 0;
#X connect 125 0 99 0;
#X connect 125 0 93 0;
#X coords 0 -1 1 1 235 185 1 100 30;
