#N canvas 522 285 552 398 10;
#X obj 21 229 delwrite~ \$0-buff 10000;
#X obj 228 189 delread4~ \$0-buff;
#X obj 228 121 +~ 1;
#X obj 228 144 /~ 2;
#X obj 21 18 inlet~;
#X obj 228 98 osc~;
#X obj 228 167 *~, f 11;
#X obj 228 52 f \$1;
#X obj 228 75 clip 0 1;
#X obj 291 52 f \$2;
#X obj 291 75 clip 1 1000;
#X obj 228 329 outlet~;
#X obj 228 18 loadbang;
#X connect 1 0 11 0;
#X connect 2 0 3 0;
#X connect 3 0 6 0;
#X connect 4 0 0 0;
#X connect 5 0 2 0;
#X connect 6 0 1 0;
#X connect 7 0 8 0;
#X connect 8 0 5 0;
#X connect 9 0 10 0;
#X connect 10 0 6 1;
#X connect 12 0 7 0;
#X connect 12 0 9 0;
