#N canvas 6 116 872 646 10;
#X obj 94 346 *~ 2;
#X obj 338 181 clip~ -1 1;
#X obj 354 346 *~ 2;
#X obj 77 531 +~;
#X obj 78 180 clip~ -1 1;
#X obj 434 491 noise~;
#X obj 77 554 +~;
#X obj 354 300 phasor~ 0.02;
#X obj 94 300 phasor~ 0.01;
#X obj 78 265 lop~ 1000;
#X obj 354 419 *~ 500;
#X obj 434 537 bp~ 2500 100;
#X obj 77 497 vcf~ 2;
#X obj 337 516 vcf~ 5;
#X obj 434 514 lop~ 50, f 9;
#X obj 338 265 hip~ 100;
#X obj 106 110 random 100;
#X obj 106 133 / 100;
#X obj 106 156 - 1;
#X obj 265 97 bng 15 250 50 0 empty empty empty 17 7 0 10 -262144 -1
-1;
#X obj 145 133 random 100;
#X obj 145 156 / 100;
#X obj 366 110 random 100;
#X obj 366 133 / 100;
#X obj 366 156 - 1;
#X obj 405 133 random 100;
#X obj 405 156 / 100;
#X obj 94 323 expr~ if($v1>$f2 \, 1-$v1 \, $v1);
#X obj 354 323 expr~ if($v1>$f2 \, 1-$v1 \, $v1);
#X obj 163 195 random 100;
#X obj 163 263 / 1000;
#X obj 423 195 random 100;
#X obj 423 266 / 1000;
#X obj 265 278 random 100;
#X obj 265 301 / 100;
#X obj 525 278 random 100;
#X obj 525 301 / 100;
#X obj 110 451 random 10;
#X obj 110 474 + 2;
#X obj 370 451 random 10;
#X obj 370 474 + 2;
#X obj 485 451 random 100;
#X obj 485 474 + 50;
#X obj 524 498 random 3000;
#X obj 524 521 + 50;
#X obj 94 419 *~ 500;
#X obj 127 373 random 2000;
#X obj 127 396 + 200;
#X obj 387 373 random 2000;
#X obj 387 396 + 200;
#X obj 129 219 random 3000;
#X obj 129 242 + 300;
#X obj 383 219 random 1000;
#X obj 383 242 + 50;
#X obj 265 56 t b f, f 11;
#X msg 328 80 seed \$1;
#X obj 78 22 inlet~;
#X obj 78 607 outlet~;
#X obj 265 22 inlet;
#X connect 0 0 45 0;
#X connect 1 0 15 0;
#X connect 2 0 10 0;
#X connect 3 0 6 0;
#X connect 4 0 9 0;
#X connect 5 0 14 0;
#X connect 6 0 57 0;
#X connect 7 0 28 0;
#X connect 8 0 27 0;
#X connect 9 0 12 0;
#X connect 10 0 13 1;
#X connect 11 0 6 0;
#X connect 12 0 3 0;
#X connect 13 0 3 1;
#X connect 14 0 11 0;
#X connect 15 0 13 0;
#X connect 16 0 17 0;
#X connect 17 0 18 0;
#X connect 18 0 4 1;
#X connect 19 0 16 0;
#X connect 19 0 20 0;
#X connect 19 0 22 0;
#X connect 19 0 25 0;
#X connect 19 0 29 0;
#X connect 19 0 31 0;
#X connect 19 0 33 0;
#X connect 19 0 35 0;
#X connect 19 0 37 0;
#X connect 19 0 39 0;
#X connect 19 0 41 0;
#X connect 19 0 43 0;
#X connect 19 0 48 0;
#X connect 19 0 50 0;
#X connect 19 0 52 0;
#X connect 19 0 46 0;
#X connect 20 0 21 0;
#X connect 21 0 4 2;
#X connect 22 0 23 0;
#X connect 23 0 24 0;
#X connect 24 0 1 1;
#X connect 25 0 26 0;
#X connect 26 0 1 2;
#X connect 27 0 0 0;
#X connect 28 0 2 0;
#X connect 29 0 30 0;
#X connect 30 0 8 0;
#X connect 31 0 32 0;
#X connect 32 0 7 0;
#X connect 33 0 34 0;
#X connect 34 0 27 1;
#X connect 35 0 36 0;
#X connect 36 0 28 1;
#X connect 37 0 38 0;
#X connect 38 0 12 2;
#X connect 39 0 40 0;
#X connect 40 0 13 2;
#X connect 41 0 42 0;
#X connect 42 0 14 1;
#X connect 43 0 44 0;
#X connect 44 0 11 1;
#X connect 45 0 12 1;
#X connect 46 0 47 0;
#X connect 47 0 45 1;
#X connect 48 0 49 0;
#X connect 49 0 10 1;
#X connect 50 0 51 0;
#X connect 51 0 9 1;
#X connect 52 0 53 0;
#X connect 53 0 15 1;
#X connect 54 0 19 0;
#X connect 54 1 55 0;
#X connect 55 0 22 0;
#X connect 55 0 31 0;
#X connect 55 0 52 0;
#X connect 55 0 35 0;
#X connect 55 0 48 0;
#X connect 55 0 41 0;
#X connect 55 0 39 0;
#X connect 55 0 37 0;
#X connect 55 0 46 0;
#X connect 55 0 33 0;
#X connect 55 0 50 0;
#X connect 55 0 29 0;
#X connect 55 0 25 0;
#X connect 55 0 20 0;
#X connect 55 0 16 0;
#X connect 56 0 4 0;
#X connect 56 0 1 0;
#X connect 58 0 54 0;
