#N canvas 852 208 450 434 10;
#X obj 100 32 inlet~;
#X obj 101 247 outlet~;
#X obj 100 144 clip~ -1 1;
#X obj 100 99 wrap~;
#X obj 274 175 vline~;
#X obj 100 190 *~;
#X msg 274 98 1 25 \, 0 \$1 25;
#X obj 274 74 f \$1;
#X obj 274 33 inlet;
#X obj 100 122 expr~ (atanh($v1)-0.5)*0.25;
#X obj 100 167 hip~ 50;
#X connect 0 0 3 0;
#X connect 2 0 10 0;
#X connect 3 0 9 0;
#X connect 4 0 5 1;
#X connect 5 0 1 0;
#X connect 6 0 4 0;
#X connect 7 0 6 0;
#X connect 8 0 7 0;
#X connect 9 0 2 0;
#X connect 10 0 5 0;
