#N canvas 441 131 641 605 10;
#X obj 219 62 random 5;
#X obj 219 85 sel 0 1 2 3 4, f 28;
#X obj 178 351 f 0;
#X obj 204 351 + 1;
#X obj 243 351 % 2;
#X obj 219 139 t b b, f 7;
#X obj 384 139 t b b, f 7;
#X obj 258 282 random 5;
#X floatatom 178 416 5 0 0 0 - - -;
#X obj 258 305 + 2;
#X floatatom 258 328 5 0 0 0 - - -;
#X floatatom 219 328 5 0 0 0 - - -;
#X floatatom 384 328 5 0 0 0 - - -;
#X obj 369 351 + 1;
#X obj 408 351 % 2;
#X obj 384 260 random 2;
#X obj 384 283 * 4;
#X obj 384 305 - 2;
#X obj 343 351 f 0;
#X msg 423 328 6;
#X obj 178 374 t f f, f 7;
#X obj 232 390 sel 0;
#X floatatom 343 416 5 0 0 0 - - -;
#X obj 343 374 t f f, f 7;
#X obj 396 390 sel 0;
#X obj 318 233 route 0 1;
#X obj 124 169 t b;
#X obj 318 210 pack 0 0;
#X obj 318 185 f 0;
#X obj 219 260 random 2;
#X obj 219 283 * 2;
#X obj 219 305 - 1;
#X obj 256 478 + 0, f 5;
#X obj 256 431 t f b;
#X obj 286 454 f 0;
#X obj 256 525 t f f, f 8;
#X obj 124 22 inlet;
#X obj 256 572 outlet;
#X obj 178 249 t b;
#X obj 343 328 t b;
#X obj 308 406 t b;
#X obj 219 22 loadbang;
#X obj 345 22 inlet;
#X obj 256 501 % 7;
#X msg 345 46 seed \$1;
#X msg 290 155 1;
#X msg 333 156 0;
#X connect 0 0 1 0;
#X connect 1 0 5 0;
#X connect 1 1 6 0;
#X connect 1 2 5 0;
#X connect 1 3 6 0;
#X connect 1 4 5 0;
#X connect 1 5 6 0;
#X connect 2 0 3 0;
#X connect 2 0 20 0;
#X connect 3 0 4 0;
#X connect 4 0 2 1;
#X connect 5 0 29 0;
#X connect 5 1 7 0;
#X connect 5 1 45 0;
#X connect 6 0 15 0;
#X connect 6 0 46 0;
#X connect 6 1 19 0;
#X connect 7 0 9 0;
#X connect 8 0 33 0;
#X connect 9 0 10 0;
#X connect 10 0 4 1;
#X connect 11 0 3 1;
#X connect 12 0 13 1;
#X connect 13 0 14 0;
#X connect 14 0 18 1;
#X connect 15 0 16 0;
#X connect 16 0 17 0;
#X connect 17 0 12 0;
#X connect 18 0 13 0;
#X connect 18 0 23 0;
#X connect 19 0 14 1;
#X connect 20 0 8 0;
#X connect 20 1 21 0;
#X connect 21 0 40 0;
#X connect 22 0 33 0;
#X connect 23 0 22 0;
#X connect 23 1 24 0;
#X connect 24 0 40 0;
#X connect 25 0 38 0;
#X connect 25 1 39 0;
#X connect 26 0 28 0;
#X connect 27 0 25 0;
#X connect 28 0 27 0;
#X connect 29 0 30 0;
#X connect 30 0 31 0;
#X connect 31 0 11 0;
#X connect 32 0 43 0;
#X connect 33 0 32 0;
#X connect 33 1 34 0;
#X connect 34 0 32 1;
#X connect 35 0 37 0;
#X connect 35 1 34 1;
#X connect 36 0 26 0;
#X connect 38 0 2 0;
#X connect 39 0 18 0;
#X connect 40 0 0 0;
#X connect 41 0 0 0;
#X connect 42 0 44 0;
#X connect 43 0 35 0;
#X connect 44 0 0 0;
#X connect 44 0 29 0;
#X connect 44 0 7 0;
#X connect 44 0 15 0;
#X connect 45 0 28 1;
#X connect 46 0 28 1;
