#N canvas 288 247 1072 498 10;
#X obj 80 112 bng 15 250 50 0 empty empty kick 17 7 0 10 -1 -262144
-1;
#X obj 80 219 line~;
#X obj 80 242 sqrt~;
#X obj 80 288 *~ 20;
#X obj 81 355 lop~ 1000;
#X obj 80 333 cos~;
#X obj 80 311 -~ 0.25;
#X obj 80 265 sqrt~;
#X obj 81 132 nbx 3 14 10 50 0 0 empty empty empty 0 -8 0 10 -1 -262144
-1 30 256;
#X obj 81 149 nbx 3 14 0 1 0 0 empty empty empty 0 -8 0 10 -1 -262144
-1 0 256;
#X obj 81 166 nbx 3 14 1 10 0 0 empty empty empty 0 -8 0 10 -1 -262144
-1 1 256;
#X obj 134 333 * 100;
#X obj 122 135 vsl 15 42 0 1 0 0 empty empty empty 0 -9 0 10 -1 -262144
-1 1600 1;
#X obj 81 427 *~;
#X msg 96 380 \$1 100;
#X obj 96 403 line~;
#X obj 142 112 bng 15 250 50 0 empty empty snare 17 7 0 10 -191407
-1 -1;
#X obj 200 196 t b b;
#X msg 80 196 0 \, 1 200;
#X msg 200 219 1 \, 0 100;
#X obj 200 242 line~;
#X obj 200 265 pow~ 4;
#X obj 200 288 *~;
#X obj 248 271 osc~ 200;
#X obj 200 311 +~;
#X obj 200 334 lop~ 4000;
#X obj 200 427 *~;
#X msg 214 358 \$1 100;
#X obj 214 381 line~;
#X obj 143 132 nbx 3 14 10 50 0 0 empty empty empty 0 -8 0 10 -191407
-1 -1 20 256;
#X obj 143 149 nbx 3 14 0 2 0 0 empty empty empty 0 -8 0 10 -191407
-1 -1 0 256;
#X obj 143 166 nbx 3 14 1 20 0 0 empty empty empty 0 -8 0 10 -191407
-1 -1 1 256;
#X obj 184 135 vsl 15 42 0 1 0 0 empty empty empty 0 -9 0 10 -191407
-1 -1 4100 1;
#X obj 248 248 * 10;
#X obj 251 312 * 100;
#X obj 310 235 line~;
#X obj 310 258 pow~ 4;
#X obj 310 281 *~;
#X msg 310 212 1 \, 0 200;
#X obj 377 219 noise~;
#X obj 377 242 hip~ 3000;
#X obj 377 265 bp~ 5000 2;
#X floatatom 434 220 5 0 0 0 - - -;
#X obj 204 112 bng 15 250 50 0 empty empty hi-hat 17 7 0 10 -262144
-1 -1;
#X obj 205 132 nbx 3 14 10 50 0 0 empty empty empty 0 -8 0 10 -262144
-1 -1 10 256;
#X obj 205 149 nbx 3 14 2 6 0 0 empty empty empty 0 -8 0 10 -262144
-1 -1 2 256;
#X obj 205 166 nbx 3 14 1 6 0 0 empty empty empty 0 -8 0 10 -262144
-1 -1 1 256;
#X obj 246 135 vsl 15 42 0 1 0 0 empty empty empty 0 -9 0 10 -262144
-1 -1 4000 1;
#X obj 480 235 line~;
#X obj 480 427 *~;
#X msg 496 368 \$1 100;
#X obj 496 391 line~;
#X obj 480 281 *~;
#X obj 608 174 noise~;
#X obj 558 241 hip~ 8000;
#X obj 558 264 hip~ 8000;
#X obj 608 197 /~ 2;
#X obj 558 90 phasor~ 350;
#X obj 558 113 *~ 2;
#X obj 558 136 -~ 1;
#X obj 633 113 *~ 2;
#X obj 633 142 -~ 1;
#X obj 633 90 phasor~ 400;
#X obj 80 90 tgl 15 0 empty empty run 17 7 0 10 -262144 -1 -1 1 1;
#X obj 282 9 metro 100;
#X floatatom 141 89 5 0 0 0 ms - -;
#X obj 282 32 t b b;
#X obj 282 55 random 3;
#X obj 80 10 sel 0 1 2;
#X obj 342 48 i;
#X obj 370 48 + 1;
#X obj 370 71 % 8;
#X obj 342 97 sel 0;
#X msg 342 168 seed \$1;
#X obj 176 89 nbx 2 16 2 32 0 0 empty empty empty 0 -8 0 10 -1 -262144
-1 8 256;
#X obj 400 55 i;
#X obj 208 89 nbx 5 16 -1e+37 1e+37 0 0 empty empty seed 0 -8 0 10
-262144 -128992 -1 25 256;
#X obj 342 146 f;
#X obj 200 470 outlet~;
#X obj 558 41 t f f;
#X obj 633 43 + 50;
#X obj 479 341 clip~ -1 1;
#X obj 480 258 pow~ 4;
#X floatatom 558 64 5 0 0 0 - - -;
#X floatatom 633 66 5 0 0 0 - - -;
#X obj 480 304 *~ 4;
#X obj 558 159 +~;
#X obj 557 183 /~ 4;
#X msg 480 212 1 \, 0 200;
#X obj 558 17 * 20;
#X obj 13 16 inlet;
#X obj 208 8 inlet;
#X obj 342 120 t b b;
#X obj 369 466 outlet;
#X connect 0 0 18 0;
#X connect 1 0 2 0;
#X connect 2 0 7 0;
#X connect 3 0 6 0;
#X connect 4 0 13 0;
#X connect 5 0 4 0;
#X connect 6 0 5 0;
#X connect 7 0 3 0;
#X connect 8 0 3 1;
#X connect 9 0 6 1;
#X connect 10 0 11 0;
#X connect 11 0 4 1;
#X connect 12 0 14 0;
#X connect 13 0 78 0;
#X connect 14 0 15 0;
#X connect 15 0 13 1;
#X connect 16 0 17 0;
#X connect 17 0 19 0;
#X connect 17 1 38 0;
#X connect 18 0 1 0;
#X connect 19 0 20 0;
#X connect 20 0 21 0;
#X connect 21 0 22 0;
#X connect 22 0 24 0;
#X connect 23 0 22 1;
#X connect 24 0 25 0;
#X connect 25 0 26 0;
#X connect 26 0 78 0;
#X connect 27 0 28 0;
#X connect 28 0 26 1;
#X connect 29 0 33 0;
#X connect 30 0 42 0;
#X connect 31 0 34 0;
#X connect 32 0 27 0;
#X connect 33 0 23 0;
#X connect 34 0 25 1;
#X connect 35 0 36 0;
#X connect 36 0 37 0;
#X connect 37 0 24 1;
#X connect 38 0 35 0;
#X connect 39 0 40 0;
#X connect 40 0 41 0;
#X connect 41 0 37 1;
#X connect 42 0 41 2;
#X connect 43 0 88 0;
#X connect 44 0 89 0;
#X connect 45 0 56 1;
#X connect 46 0 82 1;
#X connect 47 0 50 0;
#X connect 48 0 82 0;
#X connect 49 0 78 0;
#X connect 50 0 51 0;
#X connect 51 0 49 1;
#X connect 52 0 85 0;
#X connect 53 0 56 0;
#X connect 54 0 55 0;
#X connect 55 0 52 1;
#X connect 56 0 54 0;
#X connect 57 0 58 0;
#X connect 58 0 59 0;
#X connect 59 0 86 0;
#X connect 60 0 61 0;
#X connect 61 0 86 1;
#X connect 62 0 60 0;
#X connect 63 0 64 0;
#X connect 64 0 66 0;
#X connect 65 0 64 1;
#X connect 66 0 67 0;
#X connect 66 1 69 0;
#X connect 67 0 68 0;
#X connect 68 0 0 0;
#X connect 68 1 16 0;
#X connect 68 2 43 0;
#X connect 69 0 70 0;
#X connect 69 0 72 0;
#X connect 70 0 71 0;
#X connect 71 0 69 1;
#X connect 72 0 92 0;
#X connect 73 0 67 0;
#X connect 74 0 75 0;
#X connect 75 0 71 1;
#X connect 76 0 77 1;
#X connect 77 0 73 0;
#X connect 79 0 83 0;
#X connect 79 1 80 0;
#X connect 80 0 84 0;
#X connect 81 0 49 0;
#X connect 82 0 52 0;
#X connect 83 0 57 0;
#X connect 84 0 62 0;
#X connect 85 0 81 0;
#X connect 86 0 87 0;
#X connect 87 0 54 0;
#X connect 88 0 48 0;
#X connect 89 0 79 0;
#X connect 90 0 66 0;
#X connect 91 0 76 0;
#X connect 92 0 77 0;
#X connect 92 1 93 0;
#X coords 0 -1 1 1 198 130 1 72 60;
