#N canvas 543 130 689 628 10;
#X floatatom 35 319 5 0 0 0 - - -;
#X floatatom 190 268 5 0 0 0 - - -;
#X floatatom 294 369 5 0 0 0 - - -;
#X obj 36 367 expr~ $v1>$f2;
#X floatatom 111 342 5 0 0 0 - - -;
#X obj 190 336 /~ 2;
#X floatatom 229 269 5 0 0 0 - - -;
#X obj 190 313 +~ 1;
#X obj 131 546 *~;
#X obj 175 508 +~ 1;
#X obj 175 531 /~ 2;
#X obj 175 485 osc~ 5;
#X obj 175 441 pack \$1 1000;
#X obj 175 463 line;
#X floatatom 175 420 5 0 0 0 - - -;
#X obj 239 532 pack \$1 1000;
#X obj 239 554 line;
#X floatatom 239 511 5 0 0 0 - - -;
#X obj 294 325 pack \$1 1000;
#X obj 294 347 line;
#X floatatom 294 304 5 0 0 0 - - -;
#X obj 35 297 line;
#X floatatom 35 35 3 10 100 1 tone - -;
#X obj 190 223 pack \$1 1000;
#X obj 190 245 line;
#X floatatom 190 202 5 0 0 0 - - -;
#X obj 35 341 osc~ 80;
#X obj 190 290 osc~ 0.05;
#X obj 35 275 pack \$1 5000;
#X obj 88 35 hsl 40 15 0.1 0.9 0 0 empty empty timbre 45 8 0 10 -262144
-1 -1 3000 1;
#X obj 37 90 hsl 90 15 0.01 1 1 0 empty empty speed 95 8 0 10 -262144
-1 -1 500 1;
#X obj 34 69 hradio 15 1 0 9 empty empty width 0 -8 0 10 -262144 -1
-1 6;
#X obj 283 245 * 100;
#X floatatom 283 268 5 0 0 0 - - -;
#X obj 189 358 *~ 100;
#X obj 283 222 + 2;
#X obj 37 109 hsl 90 15 1 2 1 0 empty empty offset 95 8 0 10 -262144
-1 -1 4300 1;
#X obj 37 128 hsl 90 15 10 200 1 0 empty empty Q 95 8 0 10 -262144
-1 -1 1800 1;
#X obj 37 147 hsl 90 15 0.1 10 1 0 empty empty LFO 95 8 0 10 -262144
-1 -1 500 1;
#X obj 37 166 hsl 90 15 0.01 1 1 0 empty empty vol 95 8 0 10 -228856
-1 -1 5300 1;
#X obj 131 601 outlet~;
#X obj 365 598 outlet~;
#X obj 132 384 vcf~ 100 10, f 20;
#X obj 130 570 *~ 0.2;
#X obj 365 570 *~ 0.2;
#X connect 0 0 26 0;
#X connect 1 0 27 0;
#X connect 2 0 42 2;
#X connect 3 0 42 0;
#X connect 4 0 3 1;
#X connect 5 0 34 0;
#X connect 6 0 7 1;
#X connect 7 0 5 0;
#X connect 8 0 43 0;
#X connect 9 0 10 0;
#X connect 10 0 8 1;
#X connect 11 0 9 0;
#X connect 12 0 13 0;
#X connect 13 0 11 0;
#X connect 14 0 12 0;
#X connect 15 0 16 0;
#X connect 16 0 43 1;
#X connect 16 0 44 1;
#X connect 17 0 15 0;
#X connect 18 0 19 0;
#X connect 19 0 2 0;
#X connect 20 0 18 0;
#X connect 21 0 0 0;
#X connect 22 0 28 0;
#X connect 23 0 24 0;
#X connect 24 0 1 0;
#X connect 25 0 23 0;
#X connect 26 0 3 0;
#X connect 27 0 7 0;
#X connect 28 0 21 0;
#X connect 29 0 4 0;
#X connect 30 0 25 0;
#X connect 31 0 35 0;
#X connect 32 0 33 0;
#X connect 33 0 34 1;
#X connect 34 0 42 1;
#X connect 35 0 32 0;
#X connect 36 0 6 0;
#X connect 37 0 20 0;
#X connect 38 0 14 0;
#X connect 39 0 17 0;
#X connect 42 0 8 0;
#X connect 42 1 44 0;
#X connect 43 0 40 0;
#X connect 44 0 41 0;
#X coords 0 -1 1 1 150 185 1 25 5;
