#N canvas 132 175 759 509 10;
#X obj 247 258 +~;
#X obj 247 189 / 1000;
#X obj 247 282 delread4~ \$0-del;
#X obj 247 235 *~;
#X obj 247 212 osc~;
#X obj 247 167 line;
#X obj 406 144 pack 0 1000;
#X obj 326 144 pack 0 1000;
#X obj 247 144 pack 0 1000;
#X obj 326 219 line~;
#X obj 406 242 line~;
#X obj 94 322 delwrite~ \$0-del 3000;
#X obj 93 21 inlet~;
#X obj 247 401 outlet~;
#X obj 247 21 inlet;
#X obj 247 66 clip 0 1000;
#X obj 247 122 f \$1, f 5;
#X obj 247 89 t b f;
#X obj 326 21 inlet;
#X obj 326 66 clip 0 1000;
#X obj 326 89 t b f;
#X obj 326 122 f \$2, f 5;
#X obj 406 21 inlet;
#X obj 406 66 clip 0 1000;
#X obj 406 89 t b f;
#X obj 406 122 f \$3, f 5;
#X obj 487 21 inlet;
#X obj 487 89 t b f;
#X obj 487 289 f \$4, f 5;
#X obj 487 66 clip 0 0.95;
#X obj 246 305 *~;
#X obj 596 106 loadbang;
#X connect 0 0 2 0;
#X connect 1 0 4 0;
#X connect 2 0 30 0;
#X connect 3 0 0 0;
#X connect 4 0 3 0;
#X connect 5 0 1 0;
#X connect 6 0 10 0;
#X connect 7 0 9 0;
#X connect 8 0 5 0;
#X connect 9 0 3 1;
#X connect 10 0 0 1;
#X connect 12 0 11 0;
#X connect 14 0 15 0;
#X connect 15 0 17 0;
#X connect 16 0 8 0;
#X connect 17 0 16 0;
#X connect 17 1 16 1;
#X connect 18 0 19 0;
#X connect 19 0 20 0;
#X connect 20 0 21 0;
#X connect 20 1 21 1;
#X connect 21 0 7 0;
#X connect 22 0 23 0;
#X connect 23 0 24 0;
#X connect 24 0 25 0;
#X connect 24 1 25 1;
#X connect 25 0 6 0;
#X connect 26 0 29 0;
#X connect 27 0 28 0;
#X connect 27 1 28 1;
#X connect 28 0 30 1;
#X connect 29 0 27 0;
#X connect 30 0 11 0;
#X connect 30 0 13 0;
#X connect 31 0 25 0;
#X connect 31 0 21 0;
#X connect 31 0 16 0;
#X connect 31 0 28 0;
