#N canvas 241 196 601 508 10;
#X msg 407 146 2.718;
#X obj 90 178 expr~ (exp($v1 * $f2) - exp(-$v1 * $f2)) / (exp($f2)
+ exp(-$f2)), f 36;
#X obj 380 162 *;
#X obj 380 122 t f b;
#X obj 90 110 *~;
#X obj 89 349 delwrite~ mesh 10;
#X obj 218 269 lop~;
#X obj 218 292 *~ 0.618;
#X obj 218 219 delread~ mesh;
#X obj 218 243 hip~ 5;
#X obj 217 448 outlet~;
#X obj 91 11 inlet~;
#X obj 148 94 clip 0 1.5;
#X obj 148 11 inlet;
#X obj 148 69 f \$1;
#X obj 218 11 inlet;
#X obj 218 69 f \$2;
#X obj 218 94 clip 0 10;
#X obj 288 11 inlet;
#X obj 288 69 f \$3;
#X obj 288 94 clip 0 20;
#X obj 380 11 inlet;
#X obj 380 94 clip 0 10;
#X obj 380 69 f \$4;
#X obj 451 13 loadbang;
#X obj 288 253 expr ($f1 * 3.141) * 100;
#X obj 89 309 +~;
#X connect 0 0 2 1;
#X connect 1 0 26 0;
#X connect 2 0 1 1;
#X connect 3 0 2 0;
#X connect 3 1 0 0;
#X connect 4 0 1 0;
#X connect 6 0 7 0;
#X connect 7 0 10 0;
#X connect 7 0 26 1;
#X connect 8 0 9 0;
#X connect 9 0 6 0;
#X connect 11 0 4 0;
#X connect 12 0 4 1;
#X connect 13 0 14 0;
#X connect 14 0 12 0;
#X connect 15 0 16 0;
#X connect 16 0 17 0;
#X connect 17 0 8 0;
#X connect 18 0 19 0;
#X connect 19 0 20 0;
#X connect 20 0 25 0;
#X connect 21 0 23 0;
#X connect 22 0 3 0;
#X connect 23 0 22 0;
#X connect 24 0 23 0;
#X connect 24 0 19 0;
#X connect 24 0 16 0;
#X connect 24 0 14 0;
#X connect 25 0 6 1;
#X connect 26 0 5 0;
