#N canvas 286 228 812 511 10;
#X obj 93 31 inlet;
#X obj 93 84 f 0;
#X obj 118 84 + 1;
#X obj 143 84 % \$1;
#X obj 93 107 t b f, f 12;
#X obj 162 197 random 16;
#X obj 162 129 sel 0;
#X obj 162 151 f 0;
#X msg 162 174 seed \$1;
#X obj 177 31 inlet;
#X obj 93 301 f 0;
#X obj 118 301 + 1;
#X obj 93 324 sel 0;
#X msg 207 258 1;
#X obj 144 301 % 1;
#X msg 305 258 2;
#X msg 359 258 4;
#X msg 389 258 8;
#X obj 162 220 sel 0 1 2 3 4 5 6 7 8 9 10 11 12 13 14 15;
#X obj 93 347 t b b, f 8;
#X obj 93 410 outlet;
#X floatatom 207 301 5 0 0 0 - - -;
#X obj 207 410 outlet;
#X connect 0 0 1 0;
#X connect 1 0 2 0;
#X connect 1 0 4 0;
#X connect 2 0 3 0;
#X connect 3 0 1 1;
#X connect 4 0 10 0;
#X connect 4 1 6 0;
#X connect 5 0 18 0;
#X connect 6 0 7 0;
#X connect 7 0 8 0;
#X connect 8 0 5 0;
#X connect 9 0 7 1;
#X connect 10 0 11 0;
#X connect 10 0 12 0;
#X connect 11 0 14 0;
#X connect 12 0 19 0;
#X connect 13 0 21 0;
#X connect 14 0 10 1;
#X connect 15 0 21 0;
#X connect 16 0 21 0;
#X connect 17 0 21 0;
#X connect 18 0 13 0;
#X connect 18 1 13 0;
#X connect 18 2 13 0;
#X connect 18 3 13 0;
#X connect 18 4 13 0;
#X connect 18 5 13 0;
#X connect 18 6 13 0;
#X connect 18 7 13 0;
#X connect 18 8 15 0;
#X connect 18 9 15 0;
#X connect 18 10 15 0;
#X connect 18 11 15 0;
#X connect 18 12 16 0;
#X connect 18 13 16 0;
#X connect 18 14 16 0;
#X connect 18 15 17 0;
#X connect 19 0 20 0;
#X connect 19 1 5 0;
#X connect 21 0 14 1;
#X connect 21 0 22 0;
