#N canvas 301 338 450 300 10;
#X obj 37 9 inlet;
#X obj 37 67 tgl 15 0 empty empty empty 17 7 0 10 -262144 -1 -1 1 1
;
#X obj 37 204 metro 1000;
#X obj 56 67 nbx 3 15 0.1 10 0 0 empty empty times 0 22 0 10 -1 -262144
-1 1.5 256;
#X obj 96 67 nbx 3 15 0.1 10 0 0 empty empty sec 0 22 0 10 -262144
-1 -1 1 256;
#X obj 96 153 * 1000;
#X obj 96 177 /;
#X obj 56 126 t b f, f 10;
#X obj 37 227 outlet;
#X obj 85 9 inlet;
#X connect 0 0 1 0;
#X connect 1 0 2 0;
#X connect 2 0 8 0;
#X connect 3 0 7 0;
#X connect 4 0 5 0;
#X connect 5 0 6 0;
#X connect 6 0 2 1;
#X connect 7 0 4 0;
#X connect 7 1 6 1;
#X connect 9 0 3 0;
#X coords 0 -1 1 1 110 60 1 30 40;
