#N canvas 34 186 444 464 10;
#X obj 89 140 t b b, f 21;
#X obj 212 163 f 0;
#X obj 104 116 clip -6 0;
#X obj 227 116 clip 0 6;
#X obj 89 20 inlet;
#X obj 104 93 f \$1;
#X obj 227 93 f \$2;
#X obj 89 327 outlet;
#X obj 162 20 inlet;
#X obj 227 58 loadbang;
#X obj 284 116 clip 1 6;
#X obj 284 139 * 12;
#X obj 89 256 expr if($f1>0 \, $f1*7 \, $f1*7) %$f3;
#X obj 89 232 + 0;
#X obj 89 208 random;
#X obj 89 279 i 0;
#X msg 162 225 seed \$1;
#X obj 284 93 f \$3;
#X obj 183 163 abs;
#X obj 212 192 + 0;
#X connect 0 0 14 0;
#X connect 0 1 1 0;
#X connect 1 0 19 0;
#X connect 2 0 13 1;
#X connect 2 0 18 0;
#X connect 3 0 1 1;
#X connect 4 0 0 0;
#X connect 5 0 2 0;
#X connect 6 0 3 0;
#X connect 8 0 16 0;
#X connect 9 0 5 0;
#X connect 9 0 6 0;
#X connect 9 0 17 0;
#X connect 10 0 11 0;
#X connect 11 0 12 2;
#X connect 12 0 15 0;
#X connect 13 0 12 0;
#X connect 14 0 13 0;
#X connect 15 0 7 0;
#X connect 16 0 14 0;
#X connect 17 0 10 0;
#X connect 18 0 19 1;
#X connect 19 0 14 1;
