#N canvas 239 150 995 570 10;
#X obj 71 74 bng 15 250 50 0 empty empty empty 17 7 0 10 -262144 -1
-1;
#X obj 71 10 inlet;
#X floatatom 91 74 5 0 0 3 tone - -;
#X obj 76 233 i;
#X obj 590 147 random 5;
#X obj 417 147 random 2;
#X obj 71 121 t b b b b, f 87;
#X obj 590 170 sel 0 1 2 3 4;
#X msg 590 193 0;
#X msg 605 216 2;
#X msg 620 193 4;
#X msg 635 216 7;
#X msg 650 193 9;
#X floatatom 590 241 5 0 0 0 - - -;
#X obj 417 170 sel 0;
#X obj 417 241 + 12;
#X obj 444 263 - 13;
#X obj 76 256 +;
#X obj 76 279 +;
#X floatatom 76 302 5 0 0 0 - - -;
#X floatatom 41 302 5 0 0 0 - - -;
#X floatatom 127 74 5 0 0 3 sec - -;
#X obj 127 233 * 1000;
#X obj 41 324 pack f f f, f 13;
#X msg 41 347 \$1 \, \$2 \$3;
#X obj 41 370 line;
#X obj 41 393 mtof;
#X obj 41 416 phasor~;
#X obj 41 439 expr~ $v1>$f2;
#X obj 41 462 *~;
#X obj 41 519 outlet~;
#X floatatom 118 417 5 0 0 0 - - -;
#X obj 244 147 random 10;
#X msg 244 424 1 \$1 \, 0 \$2 \$1;
#X obj 244 447 vline~;
#X obj 244 402 pack f f;
#X obj 244 170 * 500;
#X obj 289 379 +;
#X obj 212 11 r tone;
#X obj 266 12 r sec;
#X obj 244 378 i;
#X obj 118 392 / 100;
#X connect 0 0 6 0;
#X connect 1 0 0 0;
#X connect 2 0 3 1;
#X connect 3 0 17 0;
#X connect 4 0 7 0;
#X connect 5 0 14 0;
#X connect 6 0 3 0;
#X connect 6 0 40 0;
#X connect 6 1 32 0;
#X connect 6 2 5 0;
#X connect 6 3 4 0;
#X connect 7 0 8 0;
#X connect 7 1 9 0;
#X connect 7 2 10 0;
#X connect 7 3 11 0;
#X connect 7 4 12 0;
#X connect 8 0 13 0;
#X connect 9 0 13 0;
#X connect 10 0 13 0;
#X connect 11 0 13 0;
#X connect 12 0 13 0;
#X connect 13 0 17 1;
#X connect 14 0 15 0;
#X connect 14 1 16 0;
#X connect 15 0 18 1;
#X connect 16 0 18 1;
#X connect 17 0 18 0;
#X connect 17 0 20 0;
#X connect 18 0 19 0;
#X connect 19 0 23 1;
#X connect 20 0 23 0;
#X connect 20 0 41 0;
#X connect 21 0 22 0;
#X connect 22 0 23 2;
#X connect 22 0 37 0;
#X connect 22 0 40 1;
#X connect 23 0 24 0;
#X connect 24 0 25 0;
#X connect 25 0 26 0;
#X connect 26 0 27 0;
#X connect 27 0 28 0;
#X connect 28 0 29 0;
#X connect 29 0 30 0;
#X connect 31 0 28 1;
#X connect 32 0 36 0;
#X connect 33 0 34 0;
#X connect 34 0 29 1;
#X connect 35 0 33 0;
#X connect 36 0 37 1;
#X connect 37 0 35 1;
#X connect 38 0 2 0;
#X connect 39 0 21 0;
#X connect 40 0 35 0;
#X connect 41 0 31 0;
#X coords 0 -1 1 1 100 65 1 65 45;
