#N canvas 460 253 450 300 10;
#X obj 51 115 fexpr~ $x1[0] + (($x1[0] - $x1[-1]) * $f2);
#X obj 300 87 clip 0 2;
#X obj 51 26 inlet~;
#X obj 52 225 outlet~;
#X obj 300 26 inlet;
#X connect 0 0 3 0;
#X connect 1 0 0 1;
#X connect 2 0 0 0;
#X connect 4 0 1 0;
