#N canvas 0 116 1366 652 10;
#X obj 41 27 inlet;
#X obj 41 80 bng 15 250 50 0 empty empty empty 17 7 0 10 -262144 -191407
-1;
#X obj 213 27 inlet;
#X obj 213 50 t l l;
#X obj 240 156 list length;
#X obj 156 211 list store;
#X obj 41 172 f 0;
#X obj 69 172 + 1;
#X obj 97 172 % 2;
#X msg 41 195 get \$1 1;
#X obj 156 234 % 12;
#X obj 156 355 sel 0 1 2 3 4 5 6 7 8 9 10 11, f 152;
#X msg 156 382 0 4 7 11;
#X obj 156 490 unpack f f f f, f 47;
#X obj 156 543 + 0;
#X obj 249 543 + 0;
#X obj 61 80 nbx 2 15 30 88 0 0 empty empty tone 32 7 0 10 -1 -262144
-1 30 256;
#X obj 85 27 inlet;
#X obj 249 521 + 12;
#X obj 342 543 + 0;
#X obj 435 543 + 0;
#X obj 342 521 + 0;
#X obj 435 521 + 0;
#X obj 41 98 hradio 15 1 0 3 empty empty inv 52 7 0 10 -262144 -1 -1
1;
#X obj 381 111 sel 0 1 2, f 30;
#X msg 381 133 12 0 0;
#X obj 381 187 unpack f f f;
#X msg 438 133 0 12 -12;
#X msg 499 133 0 -12 12;
#X msg 231 382 1 4 7 10;
#X msg 307 382 2 5 9 12;
#X msg 383 382 3 6 9 12;
#X msg 459 382 4 7 11 14;
#X msg 534 382 5 9 12 16;
#X msg 610 382 6 9 12 15;
#X msg 686 382 7 11 14 17;
#X msg 762 382 8 11 14 17;
#X msg 837 382 9 12 16 19;
#X msg 913 382 10 13 16 19;
#X msg 989 382 11 14 17 20;
#X obj 156 566 spigot;
#X obj 249 566 spigot;
#X obj 342 566 spigot;
#X obj 435 566 spigot;
#X obj 605 221 unpack f f f f;
#X msg 605 166 1 1 1 1;
#X msg 662 166 1 1 1 0;
#X msg 717 166 1 1 0 0;
#X msg 773 166 1 0 1 0;
#X msg 831 166 0 1 1 0;
#X msg 889 166 0 1 0 1;
#X msg 945 166 1 0 0 1;
#X obj 605 139 sel 0 1 2 3 4 5 6, f 66;
#X msg 998 166 0 0 0 0;
#X obj 605 116 random 9;
#X obj 605 93 spigot;
#X obj 41 134 tgl 15 0 empty empty rest 52 7 0 10 -262144 -1 -1 0 1
;
#X obj 558 514 random 100;
#X obj 558 537 moses 50;
#X msg 558 560 4;
#X msg 603 560 9;
#X obj 632 514 random 100;
#X obj 632 537 moses 50;
#X msg 632 560 2;
#X msg 677 559 5;
#X obj 706 514 random 100;
#X obj 706 537 moses 50;
#X msg 706 559 4;
#X msg 751 560 9;
#X obj 780 514 random 100;
#X obj 780 537 moses 50;
#X msg 780 560 2;
#X msg 825 560 5;
#X obj 854 514 random 100;
#X obj 854 537 moses 50;
#X msg 854 559 7;
#X msg 899 560 11;
#X obj 928 514 random 100;
#X obj 928 537 moses 50;
#X msg 973 560 9;
#X msg 928 560 0;
#X obj 1002 514 random 100;
#X obj 1002 537 moses 50;
#X msg 1002 560 7;
#X msg 1047 560 11;
#X obj 558 491 sel 0 2 4 5 7 9 11, f 87;
#X obj 1077 513 random 100;
#X obj 1077 536 moses 50;
#X msg 1122 559 6;
#X msg 1077 560 1;
#X obj 41 116 hradio 15 1 0 2 empty empty sost 52 7 0 10 -1 -262144
-1 0;
#X obj 156 285 pack f f;
#X obj 156 308 route 0 1;
#X floatatom 156 332 5 0 0 0 - - -;
#X floatatom 558 594 5 0 0 0 - - -;
#X obj 156 257 t b f;
#X obj 156 589 outlet;
#X obj 249 589 outlet;
#X obj 342 589 outlet;
#X obj 435 589 outlet;
#X obj 41 244 sel 0;
#X connect 0 0 1 0;
#X connect 1 0 6 0;
#X connect 1 0 55 0;
#X connect 2 0 3 0;
#X connect 3 0 5 1;
#X connect 3 1 4 0;
#X connect 4 0 8 1;
#X connect 5 0 10 0;
#X connect 6 0 7 0;
#X connect 6 0 9 0;
#X connect 7 0 8 0;
#X connect 8 0 6 1;
#X connect 9 0 5 0;
#X connect 10 0 95 0;
#X connect 11 0 12 0;
#X connect 11 1 29 0;
#X connect 11 2 30 0;
#X connect 11 3 31 0;
#X connect 11 4 32 0;
#X connect 11 5 33 0;
#X connect 11 6 34 0;
#X connect 11 7 35 0;
#X connect 11 8 36 0;
#X connect 11 9 37 0;
#X connect 11 10 38 0;
#X connect 11 11 39 0;
#X connect 12 0 13 0;
#X connect 13 0 14 0;
#X connect 13 1 18 0;
#X connect 13 2 21 0;
#X connect 13 3 22 0;
#X connect 14 0 40 0;
#X connect 15 0 41 0;
#X connect 16 0 14 1;
#X connect 16 0 15 1;
#X connect 16 0 19 1;
#X connect 16 0 20 1;
#X connect 17 0 16 0;
#X connect 18 0 15 0;
#X connect 19 0 42 0;
#X connect 20 0 43 0;
#X connect 21 0 19 0;
#X connect 22 0 20 0;
#X connect 23 0 24 0;
#X connect 24 0 25 0;
#X connect 24 1 27 0;
#X connect 24 2 28 0;
#X connect 25 0 26 0;
#X connect 26 0 18 1;
#X connect 26 1 21 1;
#X connect 26 2 22 1;
#X connect 27 0 26 0;
#X connect 28 0 26 0;
#X connect 29 0 13 0;
#X connect 30 0 13 0;
#X connect 31 0 13 0;
#X connect 32 0 13 0;
#X connect 33 0 13 0;
#X connect 34 0 13 0;
#X connect 35 0 13 0;
#X connect 36 0 13 0;
#X connect 37 0 13 0;
#X connect 38 0 13 0;
#X connect 39 0 13 0;
#X connect 40 0 96 0;
#X connect 41 0 97 0;
#X connect 42 0 98 0;
#X connect 43 0 99 0;
#X connect 44 0 40 1;
#X connect 44 1 41 1;
#X connect 44 2 42 1;
#X connect 44 3 43 1;
#X connect 45 0 44 0;
#X connect 46 0 44 0;
#X connect 47 0 44 0;
#X connect 48 0 44 0;
#X connect 49 0 44 0;
#X connect 50 0 44 0;
#X connect 51 0 44 0;
#X connect 52 0 45 0;
#X connect 52 1 46 0;
#X connect 52 2 47 0;
#X connect 52 3 48 0;
#X connect 52 4 49 0;
#X connect 52 5 50 0;
#X connect 52 6 51 0;
#X connect 52 7 53 0;
#X connect 53 0 44 0;
#X connect 54 0 52 0;
#X connect 55 0 54 0;
#X connect 56 0 55 1;
#X connect 56 0 100 0;
#X connect 57 0 58 0;
#X connect 58 0 59 0;
#X connect 58 1 60 0;
#X connect 59 0 94 0;
#X connect 60 0 94 0;
#X connect 61 0 62 0;
#X connect 62 0 63 0;
#X connect 62 1 64 0;
#X connect 63 0 94 0;
#X connect 64 0 94 0;
#X connect 65 0 66 0;
#X connect 66 0 67 0;
#X connect 66 1 68 0;
#X connect 67 0 94 0;
#X connect 68 0 94 0;
#X connect 69 0 70 0;
#X connect 70 0 71 0;
#X connect 70 1 72 0;
#X connect 71 0 94 0;
#X connect 72 0 94 0;
#X connect 73 0 74 0;
#X connect 74 0 75 0;
#X connect 74 1 76 0;
#X connect 75 0 94 0;
#X connect 76 0 94 0;
#X connect 77 0 78 0;
#X connect 78 0 80 0;
#X connect 78 1 79 0;
#X connect 79 0 94 0;
#X connect 80 0 94 0;
#X connect 81 0 82 0;
#X connect 82 0 83 0;
#X connect 82 1 84 0;
#X connect 83 0 94 0;
#X connect 84 0 94 0;
#X connect 85 0 57 0;
#X connect 85 1 61 0;
#X connect 85 2 65 0;
#X connect 85 3 69 0;
#X connect 85 4 73 0;
#X connect 85 5 77 0;
#X connect 85 6 81 0;
#X connect 85 7 86 0;
#X connect 86 0 87 0;
#X connect 87 0 89 0;
#X connect 87 1 88 0;
#X connect 88 0 94 0;
#X connect 89 0 94 0;
#X connect 90 0 91 0;
#X connect 91 0 92 0;
#X connect 92 0 93 0;
#X connect 92 1 85 0;
#X connect 93 0 11 0;
#X connect 94 0 93 0;
#X connect 95 0 90 0;
#X connect 95 1 91 1;
#X connect 100 0 45 0;
#X coords 0 -1 1 1 95 110 1 30 50;
