#N canvas 160 199 713 514 10;
#X obj 67 151 f 0;
#X obj 96 151 + 1;
#X obj 125 151 % 8;
#X obj 67 201 * 12, f 23;
#X obj 67 226 / 7, f 29;
#X obj 67 250 i;
#X msg 82 128 0;
#X obj 67 176 + 1, f 17;
#X obj 67 275 - 1;
#X obj 67 13 inlet;
#X obj 67 72 bng 15 250 50 0 empty empty empty 17 7 0 10 -262144 -228856
-1;
#X obj 67 303 + 0;
#X obj 86 72 nbx 2 15 1 88 0 0 empty empty num 0 22 0 10 -262144 -1
-1 1 256;
#X obj 117 72 nbx 2 15 -7 7 0 0 empty empty deg 0 22 0 10 -228856 -1
-1 0 256;
#X obj 148 72 nbx 2 15 4 40 0 0 empty empty all 0 22 0 10 -228856 -1
-1 4 256;
#X obj 179 72 nbx 2 15 2 20 0 0 empty empty part 0 22 0 10 -228856
-1 -1 2 256;
#X obj 210 72 nbx 2 15 21 88 0 0 empty empty off 0 22 0 10 -1 -262144
-1 21 256;
#X obj 67 385 outlet;
#X obj 242 72 bng 15 250 50 0 empty empty set 0 22 0 10 -262144 -1
-1;
#X obj 210 13 inlet;
#X connect 0 0 1 0;
#X connect 0 0 7 0;
#X connect 1 0 2 0;
#X connect 2 0 0 1;
#X connect 3 0 4 0;
#X connect 4 0 5 0;
#X connect 5 0 8 0;
#X connect 6 0 0 1;
#X connect 7 0 3 0;
#X connect 8 0 11 0;
#X connect 9 0 10 0;
#X connect 10 0 0 0;
#X connect 11 0 17 0;
#X connect 12 0 2 1;
#X connect 13 0 7 1;
#X connect 14 0 3 1;
#X connect 15 0 4 1;
#X connect 16 0 11 1;
#X connect 18 0 6 0;
#X connect 19 0 16 0;
#X coords 0 -1 1 1 205 65 1 60 40;
