#N canvas 0 116 1366 652 10;
#X obj 41 27 inlet;
#X obj 41 80 bng 15 250 50 0 empty empty empty 17 7 0 10 -262144 -191407
-1;
#X obj 213 27 inlet;
#X obj 213 50 t l l;
#X obj 240 156 list length;
#X obj 156 211 list store;
#X obj 41 172 f 0;
#X obj 69 172 + 1;
#X obj 97 172 % 2;
#X msg 41 195 get \$1 1;
#X obj 156 234 % 12;
#X obj 156 355 sel 0 1 2 3 4 5 6 7 8 9 10 11, f 152;
#X obj 156 490 unpack f f f f, f 47;
#X obj 156 543 + 0;
#X obj 249 543 + 0;
#X obj 61 80 nbx 2 15 30 88 0 0 empty empty tone 32 7 0 10 -1 -262144
-1 57 256;
#X obj 85 27 inlet;
#X obj 249 521 + 12;
#X obj 342 543 + 0;
#X obj 435 543 + 0;
#X obj 342 521 + 0;
#X obj 435 521 + 0;
#X obj 41 98 hradio 15 1 0 3 empty empty inv 52 7 0 10 -262144 -1 -1
0;
#X obj 381 111 sel 0 1 2, f 30;
#X msg 381 133 12 0 0;
#X obj 381 187 unpack f f f;
#X msg 438 133 0 12 -12;
#X msg 499 133 0 -12 12;
#X msg 231 382 1 4 7 10;
#X msg 610 382 6 9 12 15;
#X msg 837 382 9 12 16 19;
#X msg 989 382 11 14 17 20;
#X obj 156 566 spigot;
#X obj 249 566 spigot;
#X obj 342 566 spigot;
#X obj 435 566 spigot;
#X obj 605 221 unpack f f f f;
#X msg 605 166 1 1 1 1;
#X msg 662 166 1 1 1 0;
#X msg 717 166 1 1 0 0;
#X msg 773 166 1 0 1 0;
#X msg 831 166 0 1 1 0;
#X msg 889 166 0 1 0 1;
#X msg 945 166 1 0 0 1;
#X obj 605 139 sel 0 1 2 3 4 5 6, f 66;
#X msg 998 166 0 0 0 0;
#X obj 605 116 random 9;
#X obj 605 93 spigot;
#X obj 41 134 tgl 15 0 empty empty rest 52 7 0 10 -262144 -1 -1 0 1
;
#X obj 558 514 random 100;
#X obj 558 537 moses 50;
#X obj 632 514 random 100;
#X obj 632 537 moses 50;
#X msg 632 560 2;
#X obj 706 514 random 100;
#X obj 706 537 moses 50;
#X obj 780 514 random 100;
#X obj 780 537 moses 50;
#X obj 854 514 random 100;
#X obj 854 537 moses 50;
#X msg 854 560 7;
#X obj 928 514 random 100;
#X obj 928 537 moses 50;
#X obj 1002 514 random 100;
#X obj 1002 537 moses 50;
#X obj 1077 513 random 100;
#X obj 1077 536 moses 50;
#X msg 1122 559 6;
#X msg 1077 559 1;
#X obj 41 116 hradio 15 1 0 2 empty empty sost 52 7 0 10 -1 -262144
-1 0;
#X obj 156 285 pack f f;
#X obj 156 308 route 0 1;
#X floatatom 156 332 5 0 0 0 - - -;
#X floatatom 558 594 5 0 0 0 - - -;
#X obj 156 257 t b f;
#X obj 156 589 outlet;
#X obj 249 589 outlet;
#X obj 342 589 outlet;
#X obj 435 589 outlet;
#X obj 41 244 sel 0;
#X msg 156 382 0 3 7 10;
#X msg 307 382 2 5 8 11;
#X msg 383 382 3 7 10 14;
#X msg 459 382 4 7 10 12;
#X msg 534 382 5 8 12 15;
#X msg 686 382 7 10 14 17;
#X msg 762 382 8 12 15 19;
#X msg 913 382 10 14 17 20;
#X obj 558 491 sel 0 2 3 5 7 8 10, f 87;
#X msg 558 560 0;
#X msg 603 560 3;
#X msg 677 560 10;
#X msg 706 560 3;
#X msg 751 560 7;
#X msg 780 560 5;
#X msg 825 560 8;
#X msg 899 560 3;
#X msg 928 560 8;
#X msg 973 560 5;
#X msg 1002 560 10;
#X msg 1047 560 2;
#X obj 513 221 loadbang;
#X connect 0 0 1 0;
#X connect 1 0 6 0;
#X connect 1 0 47 0;
#X connect 2 0 3 0;
#X connect 3 0 5 1;
#X connect 3 1 4 0;
#X connect 4 0 8 1;
#X connect 5 0 10 0;
#X connect 6 0 7 0;
#X connect 6 0 9 0;
#X connect 7 0 8 0;
#X connect 8 0 6 1;
#X connect 9 0 5 0;
#X connect 10 0 74 0;
#X connect 11 0 80 0;
#X connect 11 1 28 0;
#X connect 11 2 81 0;
#X connect 11 3 82 0;
#X connect 11 4 83 0;
#X connect 11 5 84 0;
#X connect 11 6 29 0;
#X connect 11 7 85 0;
#X connect 11 8 86 0;
#X connect 11 9 30 0;
#X connect 11 10 87 0;
#X connect 11 11 31 0;
#X connect 12 0 13 0;
#X connect 12 1 17 0;
#X connect 12 2 20 0;
#X connect 12 3 21 0;
#X connect 13 0 32 0;
#X connect 14 0 33 0;
#X connect 15 0 13 1;
#X connect 15 0 14 1;
#X connect 15 0 18 1;
#X connect 15 0 19 1;
#X connect 16 0 15 0;
#X connect 17 0 14 0;
#X connect 18 0 34 0;
#X connect 19 0 35 0;
#X connect 20 0 18 0;
#X connect 21 0 19 0;
#X connect 22 0 23 0;
#X connect 23 0 24 0;
#X connect 23 1 26 0;
#X connect 23 2 27 0;
#X connect 24 0 25 0;
#X connect 25 0 17 1;
#X connect 25 1 20 1;
#X connect 25 2 21 1;
#X connect 26 0 25 0;
#X connect 27 0 25 0;
#X connect 28 0 12 0;
#X connect 29 0 12 0;
#X connect 30 0 12 0;
#X connect 31 0 12 0;
#X connect 32 0 75 0;
#X connect 33 0 76 0;
#X connect 34 0 77 0;
#X connect 35 0 78 0;
#X connect 36 0 32 1;
#X connect 36 1 33 1;
#X connect 36 2 34 1;
#X connect 36 3 35 1;
#X connect 37 0 36 0;
#X connect 38 0 36 0;
#X connect 39 0 36 0;
#X connect 40 0 36 0;
#X connect 41 0 36 0;
#X connect 42 0 36 0;
#X connect 43 0 36 0;
#X connect 44 0 37 0;
#X connect 44 1 38 0;
#X connect 44 2 39 0;
#X connect 44 3 40 0;
#X connect 44 4 41 0;
#X connect 44 5 42 0;
#X connect 44 6 43 0;
#X connect 44 7 45 0;
#X connect 45 0 36 0;
#X connect 46 0 44 0;
#X connect 47 0 46 0;
#X connect 48 0 47 1;
#X connect 48 0 79 0;
#X connect 49 0 50 0;
#X connect 50 0 89 0;
#X connect 50 1 90 0;
#X connect 51 0 52 0;
#X connect 52 0 53 0;
#X connect 52 1 91 0;
#X connect 53 0 73 0;
#X connect 54 0 55 0;
#X connect 55 0 92 0;
#X connect 55 1 93 0;
#X connect 56 0 57 0;
#X connect 57 0 94 0;
#X connect 57 1 95 0;
#X connect 58 0 59 0;
#X connect 59 0 60 0;
#X connect 59 1 96 0;
#X connect 60 0 73 0;
#X connect 61 0 62 0;
#X connect 62 0 97 0;
#X connect 62 1 98 0;
#X connect 63 0 64 0;
#X connect 64 0 99 0;
#X connect 64 1 100 0;
#X connect 65 0 66 0;
#X connect 66 0 68 0;
#X connect 66 1 67 0;
#X connect 67 0 73 0;
#X connect 68 0 73 0;
#X connect 69 0 70 0;
#X connect 70 0 71 0;
#X connect 71 0 72 0;
#X connect 71 1 88 0;
#X connect 72 0 11 0;
#X connect 73 0 72 0;
#X connect 74 0 69 0;
#X connect 74 1 70 1;
#X connect 79 0 37 0;
#X connect 80 0 12 0;
#X connect 81 0 12 0;
#X connect 82 0 12 0;
#X connect 83 0 12 0;
#X connect 84 0 12 0;
#X connect 85 0 12 0;
#X connect 86 0 12 0;
#X connect 87 0 12 0;
#X connect 88 0 49 0;
#X connect 88 1 51 0;
#X connect 88 2 54 0;
#X connect 88 3 56 0;
#X connect 88 4 58 0;
#X connect 88 5 61 0;
#X connect 88 6 63 0;
#X connect 88 7 65 0;
#X connect 89 0 73 0;
#X connect 90 0 73 0;
#X connect 91 0 73 0;
#X connect 92 0 73 0;
#X connect 93 0 73 0;
#X connect 94 0 73 0;
#X connect 95 0 73 0;
#X connect 96 0 73 0;
#X connect 97 0 73 0;
#X connect 98 0 73 0;
#X connect 99 0 73 0;
#X connect 100 0 73 0;
#X connect 101 0 37 0;
#X coords 0 -1 1 1 95 110 1 30 50;
