#N canvas 37 265 667 407 10;
#X obj 224 149 list store, f 14;
#X msg 224 126 get \$1 4;
#X obj 224 172 unpack 0 0 0 0, f 24;
#X floatatom 224 195 5 0 0 0 - - -;
#X floatatom 271 195 5 0 0 0 - - -;
#X floatatom 318 195 5 0 0 0 - - -;
#X floatatom 365 195 5 0 0 0 - - -;
#X msg 305 126 0 4 7 11 2 5 9 12 16 19 23;
#X obj 224 104 random 7;
#X obj 224 217 + 60;
#X obj 271 217 + 60;
#X obj 318 217 + 60;
#X obj 365 217 + 60;
#X obj 224 240 outlet;
#X obj 271 240 outlet;
#X obj 318 240 outlet;
#X obj 365 240 outlet;
#X obj 305 104 loadbang;
#X obj 224 35 inlet;
#X obj 224 70 t b b;
#X obj 386 86 i \$1;
#X obj 407 35 inlet;
#X obj 305 35 inlet;
#X obj 305 59 t f b, f 14;
#X connect 0 0 2 0;
#X connect 1 0 0 0;
#X connect 2 0 3 0;
#X connect 2 1 4 0;
#X connect 2 2 5 0;
#X connect 2 3 6 0;
#X connect 3 0 9 0;
#X connect 4 0 10 0;
#X connect 5 0 11 0;
#X connect 6 0 12 0;
#X connect 7 0 0 1;
#X connect 8 0 1 0;
#X connect 9 0 13 0;
#X connect 10 0 14 0;
#X connect 11 0 15 0;
#X connect 12 0 16 0;
#X connect 17 0 7 0;
#X connect 18 0 19 0;
#X connect 19 0 8 0;
#X connect 19 1 20 0;
#X connect 20 0 9 1;
#X connect 20 0 12 1;
#X connect 20 0 11 1;
#X connect 20 0 10 1;
#X connect 21 0 20 1;
#X connect 22 0 23 0;
#X connect 23 0 1 0;
#X connect 23 1 20 0;
