#N canvas 579 298 450 402 10;
#X obj 61 188 osc~;
#X floatatom 61 50 3 20 300 1 pitch - -;
#X obj 61 143 % 100;
#X obj 103 188 osc~;
#X obj 103 143 % 100;
#X obj 144 187 osc~;
#X obj 144 142 % 100;
#X obj 185 186 osc~;
#X obj 185 141 % 100;
#X floatatom 130 49 5 100 1000 1 mod - -;
#X floatatom 61 166 5 0 0 0 - - -;
#X floatatom 103 166 5 0 0 0 - - -;
#X floatatom 144 165 5 0 0 0 - - -;
#X floatatom 185 164 5 0 0 0 - - -;
#X obj 60 224 /~ 4;
#X obj 61 314 *~;
#X obj 126 250 osc~ 1;
#X obj 61 337 bp~ 300 50;
#X obj 61 97 * 1;
#X obj 61 120 mtof;
#X obj 103 97 * 2;
#X obj 103 120 mtof;
#X obj 144 119 mtof;
#X obj 185 118 mtof;
#X obj 144 96 * 3;
#X obj 185 95 * 4;
#X obj 126 227 / 50;
#X obj 126 273 *~ 2;
#X obj 126 297 -~ 1;
#X obj 15 21 inlet;
#X obj 61 365 outlet~;
#X connect 0 0 14 0;
#X connect 1 0 18 0;
#X connect 1 0 20 0;
#X connect 1 0 24 0;
#X connect 1 0 25 0;
#X connect 1 0 26 0;
#X connect 2 0 10 0;
#X connect 3 0 14 0;
#X connect 4 0 11 0;
#X connect 5 0 14 0;
#X connect 6 0 12 0;
#X connect 7 0 14 0;
#X connect 8 0 13 0;
#X connect 9 0 2 1;
#X connect 9 0 8 1;
#X connect 9 0 6 1;
#X connect 9 0 4 1;
#X connect 10 0 0 0;
#X connect 11 0 3 0;
#X connect 12 0 5 0;
#X connect 13 0 7 0;
#X connect 14 0 15 0;
#X connect 15 0 17 0;
#X connect 16 0 27 0;
#X connect 17 0 30 0;
#X connect 18 0 19 0;
#X connect 19 0 2 0;
#X connect 20 0 21 0;
#X connect 21 0 4 0;
#X connect 22 0 6 0;
#X connect 23 0 8 0;
#X connect 24 0 22 0;
#X connect 25 0 23 0;
#X connect 26 0 16 0;
#X connect 27 0 28 0;
#X connect 28 0 15 1;
#X connect 29 0 1 0;
#X coords 0 -1 1 1 130 55 1 55 20;
