#N canvas 100 190 682 415 10;
#X obj 105 163 * 10;
#X obj 105 186 i;
#X obj 147 225 * 10;
#X obj 147 248 i;
#X obj 147 202 -, f 4;
#X obj 147 179 pipe 20;
#X obj 197 225 * 10;
#X obj 197 248 i;
#X obj 197 202 -, f 4;
#X obj 197 179 pipe 20;
#X obj 247 225 * 10;
#X obj 247 248 i;
#X obj 247 202 -, f 4;
#X obj 247 179 pipe 20;
#X obj 297 225 * 10;
#X obj 297 248 i;
#X obj 297 202 -, f 4;
#X obj 297 179 pipe 20;
#X obj 347 225 * 10;
#X obj 347 248 i;
#X obj 347 202 -, f 4;
#X obj 347 179 pipe 20;
#X obj 105 209 % 10;
#X obj 90 302 i;
#X obj 132 302 i;
#X obj 182 302 i;
#X obj 232 302 i;
#X obj 282 302 i;
#X obj 332 302 i;
#X obj 90 135 f 0;
#X obj 116 135 + 1;
#X obj 105 89 r sync;
#X msg 105 112 0;
#X obj 90 67 bang;
#X obj 90 25 inlet;
#X obj 577 25 inlet;
#X obj 90 367 outlet;
#X obj 577 367 outlet;
#X obj 577 147 / \$1;
#X obj 397 225 * 10;
#X obj 397 248 i;
#X obj 397 202 -, f 4;
#X obj 397 179 pipe 20;
#X obj 447 225 * 10;
#X obj 447 248 i;
#X obj 447 202 -, f 4;
#X obj 447 179 pipe 20;
#X obj 382 302 i;
#X obj 432 302 i;
#X obj 497 225 * 10;
#X obj 497 248 i;
#X obj 497 202 -, f 4;
#X obj 497 179 pipe 20;
#X obj 547 225 * 10;
#X obj 547 248 i;
#X obj 547 202 -, f 4;
#X obj 547 179 pipe 20;
#X obj 482 302 i;
#X obj 532 302 i;
#X obj 90 272 sel 0 1 2 3 4 5 6 7 8 9, f 82;
#X obj 142 135 % 10;
#X connect 0 0 1 0;
#X connect 0 0 5 0;
#X connect 1 0 4 1;
#X connect 1 0 22 0;
#X connect 2 0 3 0;
#X connect 2 0 9 0;
#X connect 3 0 8 1;
#X connect 3 0 24 1;
#X connect 4 0 2 0;
#X connect 5 0 4 0;
#X connect 6 0 7 0;
#X connect 6 0 13 0;
#X connect 7 0 12 1;
#X connect 7 0 25 1;
#X connect 8 0 6 0;
#X connect 9 0 8 0;
#X connect 10 0 11 0;
#X connect 10 0 17 0;
#X connect 11 0 16 1;
#X connect 11 0 26 1;
#X connect 12 0 10 0;
#X connect 13 0 12 0;
#X connect 14 0 15 0;
#X connect 14 0 21 0;
#X connect 15 0 20 1;
#X connect 15 0 27 1;
#X connect 16 0 14 0;
#X connect 17 0 16 0;
#X connect 18 0 19 0;
#X connect 18 0 42 0;
#X connect 19 0 28 1;
#X connect 19 0 41 1;
#X connect 20 0 18 0;
#X connect 21 0 20 0;
#X connect 22 0 23 1;
#X connect 23 0 36 0;
#X connect 24 0 36 0;
#X connect 25 0 36 0;
#X connect 26 0 36 0;
#X connect 27 0 36 0;
#X connect 28 0 36 0;
#X connect 29 0 30 0;
#X connect 29 0 59 0;
#X connect 30 0 60 0;
#X connect 31 0 32 0;
#X connect 32 0 29 1;
#X connect 33 0 29 0;
#X connect 34 0 33 0;
#X connect 35 0 38 0;
#X connect 38 0 0 0;
#X connect 38 0 37 0;
#X connect 39 0 40 0;
#X connect 39 0 46 0;
#X connect 40 0 45 1;
#X connect 40 0 47 1;
#X connect 41 0 39 0;
#X connect 42 0 41 0;
#X connect 43 0 44 0;
#X connect 43 0 52 0;
#X connect 44 0 48 1;
#X connect 44 0 51 1;
#X connect 45 0 43 0;
#X connect 46 0 45 0;
#X connect 47 0 36 0;
#X connect 48 0 36 0;
#X connect 49 0 50 0;
#X connect 49 0 56 0;
#X connect 50 0 55 1;
#X connect 50 0 57 1;
#X connect 51 0 49 0;
#X connect 52 0 51 0;
#X connect 53 0 54 0;
#X connect 54 0 58 1;
#X connect 55 0 53 0;
#X connect 56 0 55 0;
#X connect 57 0 36 0;
#X connect 58 0 36 0;
#X connect 59 0 23 0;
#X connect 59 1 24 0;
#X connect 59 2 25 0;
#X connect 59 3 26 0;
#X connect 59 4 27 0;
#X connect 59 5 28 0;
#X connect 59 6 47 0;
#X connect 59 7 48 0;
#X connect 59 8 57 0;
#X connect 59 9 58 0;
#X connect 60 0 29 1;
