#N canvas 636 150 657 590 10;
#X obj 247 85 noise~;
#X obj 248 294 *~;
#X obj 326 256 line~;
#X obj 326 279 *~;
#X obj 326 125 env~;
#X obj 326 211 random 30;
#X obj 326 187 bng 15 250 50 0 empty empty empty 17 7 0 10 -262144
-1 -1;
#X msg 326 233 0.5 \, 0 \$1;
#X obj 276 227 * 400;
#X obj 248 345 clip~ -1 1;
#X obj 326 148 moses 50;
#X obj 371 171 moses 51;
#X obj 109 321 *~;
#X obj 123 272 vline~;
#X obj 123 299 *~;
#X obj 109 83 inlet~;
#X obj 109 486 outlet~;
#X obj 326 378 random 100;
#X obj 326 401 / 100;
#X obj 250 485 outlet~;
#X obj 249 444 *~;
#X obj 133 434 *~;
#X obj 177 417 expr~ 1-$v1;
#X obj 326 102 lop~ \$1;
#X obj 248 272 bp~ 0 2, f 10;
#X msg 123 249 1.2 500 \, 0 10 500 \, 1 10 1500;
#X obj 108 216 clip~ -1 1;
#X obj 136 170 t f f, f 6;
#X obj 136 193 * -1;
#X obj 136 147 / 90;
#X connect 0 0 23 0;
#X connect 0 0 24 0;
#X connect 1 0 9 0;
#X connect 2 0 3 0;
#X connect 2 0 3 1;
#X connect 3 0 1 1;
#X connect 4 0 10 0;
#X connect 5 0 7 0;
#X connect 5 0 8 0;
#X connect 5 0 29 0;
#X connect 6 0 5 0;
#X connect 6 0 17 0;
#X connect 6 0 25 0;
#X connect 7 0 2 0;
#X connect 8 0 24 1;
#X connect 9 0 20 0;
#X connect 9 0 21 0;
#X connect 10 1 11 0;
#X connect 11 0 6 0;
#X connect 12 0 16 0;
#X connect 12 0 19 0;
#X connect 13 0 14 0;
#X connect 13 0 14 1;
#X connect 14 0 12 1;
#X connect 15 0 26 0;
#X connect 17 0 18 0;
#X connect 18 0 20 1;
#X connect 18 0 22 0;
#X connect 20 0 19 0;
#X connect 21 0 16 0;
#X connect 22 0 21 1;
#X connect 23 0 4 0;
#X connect 24 0 1 0;
#X connect 25 0 13 0;
#X connect 26 0 12 0;
#X connect 27 0 28 0;
#X connect 27 1 26 2;
#X connect 28 0 26 1;
#X connect 29 0 27 0;
