#N canvas 186 264 588 451 10;
#X obj 49 26 inlet;
#X obj 100 85 random 12;
#X obj 100 108 sel 0 1 2 3 4 5 6 7 8 9 11, f 34;
#X obj 49 85 f 0;
#X obj 49 108 + 1;
#X msg 100 147 1;
#X msg 173 147 2;
#X msg 209 147 3;
#X msg 246 147 4;
#X msg 282 147 8;
#X obj 49 163 % 2;
#X obj 49 186 sel 0;
#X obj 49 248 outlet;
#X obj 136 26 inlet;
#X msg 136 49 seed \$1;
#X obj 49 209 t b b;
#X connect 0 0 3 0;
#X connect 1 0 2 0;
#X connect 2 0 5 0;
#X connect 2 1 5 0;
#X connect 2 2 5 0;
#X connect 2 3 5 0;
#X connect 2 4 6 0;
#X connect 2 5 6 0;
#X connect 2 6 6 0;
#X connect 2 7 7 0;
#X connect 2 8 8 0;
#X connect 2 9 8 0;
#X connect 2 10 9 0;
#X connect 3 0 4 0;
#X connect 4 0 10 0;
#X connect 5 0 10 1;
#X connect 6 0 10 1;
#X connect 7 0 10 1;
#X connect 8 0 10 1;
#X connect 9 0 10 1;
#X connect 10 0 3 1;
#X connect 10 0 11 0;
#X connect 11 0 15 0;
#X connect 13 0 14 0;
#X connect 14 0 1 0;
#X connect 15 0 12 0;
#X connect 15 1 1 0;
