#N canvas 146 162 447 493 10;
#X obj 142 222 + 4;
#X obj 103 245 % 12;
#X obj 142 245 % 12;
#X obj 64 153 i 0;
#X obj 259 221 + 12;
#X obj 259 244 % 12;
#X obj 79 131 % 12;
#X obj 220 292 sel 0 1, f 10;
#X msg 220 315 10;
#X msg 248 315 11;
#X obj 64 199 t f f f f f f, f 33;
#X obj 181 245 % 12;
#X obj 181 222 + 7;
#X obj 64 176 + 5;
#X obj 64 245 % 12;
#X obj 103 222 + 0;
#X obj 79 108 * 7;
#X obj 220 222 % 12;
#X obj 220 268 == 0;
#X obj 64 222 - 12;
#X obj 64 311 max;
#X obj 166 311 max;
#X obj 64 353 min;
#X obj 64 46 inlet;
#X obj 79 85 clip 1 11;
#X obj 105 46 inlet;
#X obj 64 268 t f f;
#X obj 103 268 t f f;
#X obj 142 268 t f f;
#X obj 181 268 t f f;
#X obj 91 406 outlet;
#X obj 130 386 outlet;
#X obj 169 406 outlet;
#X obj 208 386 outlet;
#X obj 64 386 outlet;
#X obj 248 406 outlet;
#X obj 248 336 bang;
#X connect 0 0 2 0;
#X connect 1 0 27 0;
#X connect 2 0 28 0;
#X connect 3 0 13 0;
#X connect 4 0 5 0;
#X connect 5 0 3 1;
#X connect 6 0 3 1;
#X connect 7 0 8 0;
#X connect 7 1 9 0;
#X connect 8 0 15 1;
#X connect 9 0 15 1;
#X connect 9 0 36 0;
#X connect 10 0 19 0;
#X connect 10 1 15 0;
#X connect 10 2 0 0;
#X connect 10 3 12 0;
#X connect 10 4 17 0;
#X connect 10 5 4 0;
#X connect 11 0 29 0;
#X connect 12 0 11 0;
#X connect 13 0 10 0;
#X connect 14 0 26 0;
#X connect 15 0 1 0;
#X connect 16 0 6 0;
#X connect 17 0 18 0;
#X connect 18 0 7 0;
#X connect 19 0 14 0;
#X connect 20 0 22 0;
#X connect 21 0 22 1;
#X connect 22 0 34 0;
#X connect 23 0 3 0;
#X connect 24 0 16 0;
#X connect 25 0 24 0;
#X connect 26 0 20 0;
#X connect 26 1 30 0;
#X connect 27 0 20 1;
#X connect 27 1 31 0;
#X connect 28 0 21 0;
#X connect 28 1 32 0;
#X connect 29 0 21 1;
#X connect 29 1 33 0;
#X connect 36 0 35 0;
