#N canvas 0 116 1366 652 10;
#X obj 86 12 inlet~;
#X obj 85 362 *~;
#X msg 123 191 \$1 500;
#X obj 122 346 line;
#X obj 548 95 vsl 15 40 0 1 0 0 empty empty 100 0 -9 0 10 -262144 -1
-1 3900 1;
#X obj 173 362 *~;
#X msg 211 191 \$1 500;
#X obj 210 346 line;
#X obj 567 95 vsl 15 40 0 1 0 0 empty empty 300 0 -9 0 10 -262144 -1
-1 2700 1;
#X obj 265 362 *~;
#X msg 303 191 \$1 500;
#X obj 302 346 line;
#X obj 586 95 vsl 15 40 0 1 0 0 empty empty 500 0 -9 0 10 -262144 -1
-1 1600 1;
#X obj 355 362 *~;
#X msg 393 191 \$1 500;
#X obj 392 346 line;
#X obj 605 95 vsl 15 40 0 1 0 0 empty empty 800 0 -9 0 10 -262144 -1
-1 1200 1;
#X obj 443 362 *~;
#X msg 481 191 \$1 500;
#X obj 480 346 line;
#X obj 624 95 vsl 15 40 0 1 0 0 empty empty 1k 0 -9 0 10 -262144 -1
-1 1600 1;
#X obj 535 362 *~;
#X msg 573 191 \$1 500;
#X obj 572 346 line;
#X obj 643 95 vsl 15 40 0 1 0 0 empty empty 3k 0 -9 0 10 -262144 -1
-1 2000 1;
#X obj 624 362 *~;
#X msg 662 191 \$1 500;
#X obj 661 346 line;
#X obj 662 95 vsl 15 40 0 1 0 0 empty empty 5k 0 -9 0 10 -262144 -1
-1 3700 1;
#X obj 86 36 *~ 1;
#X obj 85 214 bp~ 100 10;
#X obj 85 244 bp~ 100 10;
#X obj 173 214 bp~ 300 10;
#X obj 173 244 bp~ 300 10;
#X obj 265 214 bp~ 500 10;
#X obj 265 244 bp~ 500 10;
#X obj 355 214 bp~ 800 10;
#X obj 355 244 bp~ 800 10;
#X obj 443 214 bp~ 1200 10;
#X obj 443 244 bp~ 1200 10;
#X obj 535 214 bp~ 3000 10;
#X obj 535 244 bp~ 3000 10;
#X obj 624 214 bp~ 5000 10;
#X obj 624 244 bp~ 5000 10;
#X obj 355 481 outlet~;
#X obj 355 427 /~ 7;
#X floatatom 662 61 2 1 30 0 gain - -;
#X connect 0 0 29 0;
#X connect 1 0 45 0;
#X connect 2 0 3 0;
#X connect 3 0 1 1;
#X connect 4 0 2 0;
#X connect 5 0 45 0;
#X connect 6 0 7 0;
#X connect 7 0 5 1;
#X connect 8 0 6 0;
#X connect 9 0 45 0;
#X connect 10 0 11 0;
#X connect 11 0 9 1;
#X connect 12 0 10 0;
#X connect 13 0 45 0;
#X connect 14 0 15 0;
#X connect 15 0 13 1;
#X connect 16 0 14 0;
#X connect 17 0 45 0;
#X connect 18 0 19 0;
#X connect 19 0 17 1;
#X connect 20 0 18 0;
#X connect 21 0 45 0;
#X connect 22 0 23 0;
#X connect 23 0 21 1;
#X connect 24 0 22 0;
#X connect 25 0 45 0;
#X connect 26 0 27 0;
#X connect 27 0 25 1;
#X connect 28 0 26 0;
#X connect 29 0 30 0;
#X connect 29 0 32 0;
#X connect 29 0 34 0;
#X connect 29 0 36 0;
#X connect 29 0 38 0;
#X connect 29 0 40 0;
#X connect 29 0 42 0;
#X connect 30 0 31 0;
#X connect 31 0 1 0;
#X connect 32 0 33 0;
#X connect 33 0 5 0;
#X connect 34 0 35 0;
#X connect 35 0 9 0;
#X connect 36 0 37 0;
#X connect 37 0 13 0;
#X connect 38 0 39 0;
#X connect 39 0 17 0;
#X connect 40 0 41 0;
#X connect 41 0 21 0;
#X connect 42 0 43 0;
#X connect 43 0 25 0;
#X connect 45 0 44 0;
#X connect 46 0 29 1;
#X coords 0 -1 1 1 145 95 1 540 50;
