#N canvas 541 191 739 571 10;
#X obj 33 305 hip~ 10;
#X obj 301 247 pack 0 100;
#X obj 377 344 pack 0 100;
#X obj 377 320 * 0.01;
#X obj 113 216 pack 0 100;
#X obj 33 257 *~;
#X obj 33 281 cos~;
#X obj 113 192 * 0.01;
#X obj 33 353 +~;
#X obj 361 394 *~;
#X obj 226 288 *~;
#X obj 226 216 / 100;
#X obj 33 377 hip~ 5;
#X obj 226 264 +~ 1;
#X obj 226 240 osc~ 0;
#X obj 226 312 +~ 1.46;
#X obj 361 418 clip~ -1 1;
#X obj 361 442 delwrite~ \$0-d 1000;
#X obj 226 336 delread4~ \$0-d;
#X obj 33 56 inlet~;
#X obj 33 480 outlet~;
#X obj 113 146 f \$1;
#X obj 134 56 inlet;
#X obj 247 56 inlet;
#X obj 226 146 f \$2;
#X obj 301 169 clip 0 100;
#X obj 322 56 inlet;
#X obj 301 146 f \$3;
#X obj 377 169 clip 0 100;
#X obj 398 56 inlet;
#X obj 377 146 f \$4;
#X obj 377 13 loadbang;
#X obj 33 217 *~ 4;
#X obj 33 329 clip~ -0.25 0.25;
#X obj 113 241 line;
#X obj 301 272 line;
#X obj 377 368 line;
#X obj 113 169 clip 0 100;
#X obj 226 169 clip 0 100;
#X connect 0 0 33 0;
#X connect 1 0 35 0;
#X connect 2 0 36 0;
#X connect 3 0 2 0;
#X connect 4 0 34 0;
#X connect 5 0 6 0;
#X connect 6 0 0 0;
#X connect 7 0 4 0;
#X connect 8 0 12 0;
#X connect 9 0 16 0;
#X connect 10 0 15 0;
#X connect 11 0 14 0;
#X connect 12 0 9 0;
#X connect 12 0 20 0;
#X connect 13 0 10 0;
#X connect 14 0 13 0;
#X connect 15 0 18 0;
#X connect 16 0 17 0;
#X connect 18 0 8 1;
#X connect 19 0 32 0;
#X connect 21 0 37 0;
#X connect 22 0 21 1;
#X connect 23 0 24 1;
#X connect 24 0 38 0;
#X connect 25 0 1 0;
#X connect 26 0 27 1;
#X connect 27 0 25 0;
#X connect 28 0 3 0;
#X connect 29 0 30 1;
#X connect 30 0 28 0;
#X connect 31 0 21 0;
#X connect 31 0 30 0;
#X connect 31 0 27 0;
#X connect 31 0 24 0;
#X connect 32 0 5 0;
#X connect 33 0 8 0;
#X connect 34 0 5 1;
#X connect 35 0 10 1;
#X connect 36 0 9 1;
#X connect 37 0 7 0;
#X connect 38 0 11 0;
