#N canvas 51 265 589 473 10;
#X obj 67 24 inlet;
#X obj 67 212 metro;
#X obj 232 141 f \$1;
#X obj 133 141 f \$2;
#X obj 182 141 f \$3;
#X obj 67 96 t b f;
#X obj 94 118 sel 1;
#X obj 133 118 t b b b, f 17;
#X obj 182 180 *;
#X obj 133 196 +;
#X obj 67 234 f 0, f 28;
#X obj 67 333 outlet;
#X obj 67 71 sel 1;
#X msg 108 72 0;
#X obj 232 164 clip 1 20;
#X connect 0 0 12 0;
#X connect 1 0 10 0;
#X connect 2 0 14 0;
#X connect 3 0 9 0;
#X connect 4 0 8 0;
#X connect 5 0 1 0;
#X connect 5 1 6 0;
#X connect 6 1 7 0;
#X connect 7 0 3 0;
#X connect 7 1 4 0;
#X connect 7 2 2 0;
#X connect 8 0 9 1;
#X connect 9 0 1 1;
#X connect 10 0 11 0;
#X connect 12 0 5 0;
#X connect 12 1 13 0;
#X connect 13 0 1 0;
#X connect 14 0 8 1;
#X connect 14 0 10 1;
