#N canvas 687 404 450 300 10;
#X obj 38 26 inlet~;
#X obj 102 27 inlet~;
#X obj 38 198 outlet~;
#X obj 115 197 outlet~;
#X obj 39 74 +~;
#X obj 112 72 -~;
#X obj 113 96 delwrite~ \$1 \$2;
#X obj 114 120 delread~ \$1 \$2;
#X obj 39 174 *~ 0.5;
#X obj 129 147 *~ \$3;
#X obj 115 173 *~ 0.5;
#X connect 0 0 4 0;
#X connect 0 0 5 0;
#X connect 1 0 4 1;
#X connect 1 0 5 1;
#X connect 4 0 8 0;
#X connect 5 0 6 0;
#X connect 7 0 9 0;
#X connect 7 0 10 0;
#X connect 8 0 2 0;
#X connect 9 0 6 0;
#X connect 10 0 3 0;
