#N canvas 312 250 601 427 10;
#X obj 87 184 f;
#X obj 129 184 + 1;
#X obj 87 207 mod \$1;
#X obj 87 253 * \$2;
#X obj 87 276 % \$1;
#X obj 87 299 < \$2;
#X obj 87 322 sel 1;
#X obj 87 230 + \$3;
#X obj 87 27 inlet;
#X obj 141 27 inlet;
#X obj 180 27 inlet;
#X obj 219 27 inlet;
#X obj 87 363 outlet;
#X obj 120 153 i \$1;
#X obj 159 153 i \$2;
#X obj 198 153 i \$3;
#X obj 102 102 r sync;
#X msg 102 125 0;
#X obj 260 96 loadbang;
#X obj 198 223 sel 0;
#X obj 151 363 outlet;
#X obj 151 338 bang;
#X obj 219 70 clip 0 1;
#X connect 0 0 1 0;
#X connect 0 0 2 0;
#X connect 1 0 0 1;
#X connect 2 0 7 0;
#X connect 2 0 19 0;
#X connect 3 0 4 0;
#X connect 4 0 5 0;
#X connect 5 0 6 0;
#X connect 6 0 12 0;
#X connect 6 1 21 0;
#X connect 7 0 3 0;
#X connect 8 0 0 0;
#X connect 9 0 13 1;
#X connect 10 0 14 1;
#X connect 11 0 22 0;
#X connect 13 0 2 1;
#X connect 13 0 4 1;
#X connect 14 0 3 1;
#X connect 14 0 5 1;
#X connect 15 0 7 1;
#X connect 16 0 17 0;
#X connect 17 0 0 1;
#X connect 18 0 13 0;
#X connect 18 0 15 0;
#X connect 18 0 14 0;
#X connect 19 0 13 0;
#X connect 19 0 15 0;
#X connect 19 0 14 0;
#X connect 21 0 20 0;
#X connect 22 0 15 1;
#X coords 0 427 1 426 140 50 0;
