#N canvas 101 116 961 628 10;
#X obj 231 120 t b b b b, f 31;
#X obj 231 491 vline~;
#X obj 318 392 +;
#X obj 231 444 pack 0 0 0 0 0 0 0, f 38;
#X obj 381 408 +;
#X obj 231 338 t b b b b b b b, f 38;
#X msg 231 467 1 \$3 \, \$2 \$4 \$7 \, 0 \$6 \$5;
#X obj 268 362 f 0;
#X obj 231 514 pow~, f 38;
#X obj 283 235 + 0.25;
#X obj 354 189 t f f f f;
#X obj 321 213 random;
#X obj 338 236 random;
#X obj 355 259 random;
#X obj 372 282 random;
#X obj 306 362 f 0;
#X obj 471 292 random 10;
#X obj 471 315 - 2;
#X obj 343 362 f 0;
#X obj 381 362 f 0;
#X obj 418 362 f 0;
#X obj 456 362 f 0;
#X obj 354 166 / 2;
#X obj 471 338 expr if($f1==0 \, 1 \, $f1);
#X obj 283 189 random 75;
#X obj 283 212 / 100;
#X obj 231 570 outlet~;
#X obj 231 26 inlet;
#X obj 480 26 inlet;
#X msg 465 197 seed \$1;
#X obj 501 147 * 12;
#X obj 538 147 * 34;
#X obj 574 147 * 56;
#X msg 501 220 seed \$1;
#X msg 538 243 seed \$1;
#X msg 574 266 seed \$1;
#X obj 465 122 t f f f f f f, f 31;
#X msg 611 173 seed \$1;
#X msg 648 276 seed \$1;
#X obj 611 147 * 78;
#X obj 648 147 * 89;
#X obj 231 537 clip~ 0 1;
#X obj 465 97 f 0;
#X obj 231 81 t b b;
#X obj 354 143 f \$2;
#X obj 519 81 r seed;
#X connect 0 0 5 0;
#X connect 0 1 11 0;
#X connect 0 1 12 0;
#X connect 0 1 14 0;
#X connect 0 1 13 0;
#X connect 0 1 24 0;
#X connect 0 2 44 0;
#X connect 0 3 16 0;
#X connect 1 0 8 0;
#X connect 2 0 3 6;
#X connect 2 0 4 0;
#X connect 3 0 6 0;
#X connect 4 0 3 4;
#X connect 5 0 3 0;
#X connect 5 1 7 0;
#X connect 5 2 15 0;
#X connect 5 3 18 0;
#X connect 5 4 19 0;
#X connect 5 5 20 0;
#X connect 5 6 21 0;
#X connect 6 0 1 0;
#X connect 7 0 3 1;
#X connect 8 0 41 0;
#X connect 9 0 7 1;
#X connect 10 0 11 1;
#X connect 10 1 12 1;
#X connect 10 2 13 1;
#X connect 10 3 14 1;
#X connect 11 0 15 1;
#X connect 12 0 18 1;
#X connect 13 0 19 1;
#X connect 14 0 20 1;
#X connect 15 0 2 0;
#X connect 15 0 3 2;
#X connect 16 0 17 0;
#X connect 17 0 23 0;
#X connect 18 0 2 1;
#X connect 18 0 3 3;
#X connect 19 0 4 1;
#X connect 20 0 3 5;
#X connect 21 0 8 1;
#X connect 22 0 10 0;
#X connect 23 0 21 1;
#X connect 24 0 25 0;
#X connect 25 0 9 0;
#X connect 27 0 43 0;
#X connect 28 0 42 1;
#X connect 29 0 11 0;
#X connect 30 0 33 0;
#X connect 31 0 34 0;
#X connect 32 0 35 0;
#X connect 33 0 12 0;
#X connect 34 0 13 0;
#X connect 35 0 14 0;
#X connect 36 0 29 0;
#X connect 36 1 30 0;
#X connect 36 2 31 0;
#X connect 36 3 32 0;
#X connect 36 4 39 0;
#X connect 36 5 40 0;
#X connect 37 0 24 0;
#X connect 38 0 16 0;
#X connect 39 0 37 0;
#X connect 40 0 38 0;
#X connect 41 0 26 0;
#X connect 42 0 36 0;
#X connect 43 0 0 0;
#X connect 43 1 42 0;
#X connect 44 0 22 0;
#X connect 45 0 42 1;
