#N canvas 543 136 817 610 10;
#X obj 106 65 t b b b b b b b b, f 71;
#X obj 106 228 f;
#X obj 133 228 + 1;
#X obj 133 251 % 1;
#X obj 106 274 sel 0;
#X obj 106 297 f;
#X obj 117 132 bng 15 250 50 0 empty empty empty 17 7 0 10 -262144
-1 -1;
#X obj 117 150 nbx 2 14 1 32 0 0 empty empty empty 0 -8 0 10 -262144
-1 -1 1 256;
#X obj 117 167 nbx 2 14 20 96 0 0 empty empty empty 0 -8 0 10 -262144
-1 -1 40 256;
#X obj 166 228 f;
#X obj 193 228 + 1;
#X obj 193 251 % 1;
#X obj 166 274 sel 0;
#X obj 166 297 f;
#X obj 148 150 nbx 2 14 1 32 0 0 empty empty empty 0 -8 0 10 -228856
-1 -1 3 256;
#X obj 148 167 nbx 2 14 20 96 0 0 empty empty empty 0 -8 0 10 -228856
-1 -1 44 256;
#X obj 226 228 f;
#X obj 253 228 + 1;
#X obj 253 251 % 1;
#X obj 226 274 sel 0;
#X obj 226 297 f;
#X obj 179 150 nbx 2 14 1 32 0 0 empty empty empty 0 -8 0 10 -191407
-1 -1 5 256;
#X obj 179 167 nbx 2 14 20 96 0 0 empty empty empty 0 -8 0 10 -191407
-1 -1 52 256;
#X obj 286 228 f;
#X obj 313 228 + 1;
#X obj 313 251 % 1;
#X obj 286 274 sel 0;
#X obj 286 297 f;
#X obj 210 150 nbx 2 14 1 32 0 0 empty empty empty 0 -8 0 10 -162280
-1 -1 4 256;
#X obj 210 167 nbx 2 14 20 96 0 0 empty empty empty 0 -8 0 10 -162280
-1 -1 59 256;
#X obj 346 228 f;
#X obj 373 228 + 1;
#X obj 373 251 % 1;
#X obj 346 274 sel 0;
#X obj 346 297 f;
#X obj 241 150 nbx 2 14 1 32 0 0 empty empty empty 0 -8 0 10 -128992
-262144 -1 7 256;
#X obj 241 167 nbx 2 14 20 96 0 0 empty empty empty 0 -8 0 10 -128992
-262144 -1 67 256;
#X obj 406 228 f;
#X obj 433 228 + 1;
#X obj 433 251 % 1;
#X obj 406 274 sel 0;
#X obj 406 297 f;
#X obj 272 150 nbx 2 14 1 32 0 0 empty empty empty 0 -8 0 10 -99865
-262144 -1 6 256;
#X obj 272 167 nbx 2 14 20 96 0 0 empty empty empty 0 -8 0 10 -99865
-262144 -1 36 256;
#X obj 466 228 f;
#X obj 493 228 + 1;
#X obj 493 251 % 1;
#X obj 466 274 sel 0;
#X obj 466 297 f;
#X obj 303 150 nbx 2 14 1 32 0 0 empty empty empty 0 -8 0 10 -66577
-262144 -1 1 256;
#X obj 303 167 nbx 2 14 20 96 0 0 empty empty empty 0 -8 0 10 -66577
-262144 -1 45 256;
#X obj 526 228 f;
#X obj 553 228 + 1;
#X obj 553 251 % 1;
#X obj 526 274 sel 0;
#X obj 526 297 f;
#X obj 334 150 nbx 2 14 1 32 0 0 empty empty every 32 7 0 10 -33289
-262144 -1 1 256;
#X obj 334 167 nbx 2 14 20 96 0 0 empty empty tone 32 7 0 10 -33289
-262144 -1 20 256;
#X obj 526 320 t f f, f 8;
#X obj 526 343 spigot;
#X obj 571 343 > 20;
#X obj 526 509 outlet;
#X obj 466 343 t f f, f 8;
#X obj 466 366 spigot;
#X obj 511 366 > 20;
#X obj 466 509 outlet;
#X obj 406 367 t f f, f 8;
#X obj 406 390 spigot;
#X obj 451 390 > 20;
#X obj 406 509 outlet;
#X obj 346 390 t f f, f 8;
#X obj 346 413 spigot;
#X obj 391 413 > 20;
#X obj 346 509 outlet;
#X obj 286 320 t f f, f 8;
#X obj 286 343 spigot;
#X obj 331 343 > 20;
#X obj 286 509 outlet;
#X obj 226 343 t f f, f 8;
#X obj 226 366 spigot;
#X obj 271 366 > 20;
#X obj 226 509 outlet;
#X obj 166 367 t f f, f 8;
#X obj 166 390 spigot;
#X obj 211 390 > 20;
#X obj 166 509 outlet;
#X obj 106 390 t f f, f 8;
#X obj 106 413 spigot;
#X obj 151 413 > 20;
#X obj 106 509 outlet;
#X obj 106 33 inlet;
#X connect 0 0 1 0;
#X connect 0 0 6 0;
#X connect 0 1 9 0;
#X connect 0 2 16 0;
#X connect 0 3 23 0;
#X connect 0 4 30 0;
#X connect 0 5 37 0;
#X connect 0 6 44 0;
#X connect 0 7 51 0;
#X connect 1 0 2 0;
#X connect 1 0 4 0;
#X connect 2 0 3 0;
#X connect 3 0 1 1;
#X connect 4 0 5 0;
#X connect 5 0 86 0;
#X connect 7 0 3 1;
#X connect 8 0 5 1;
#X connect 9 0 10 0;
#X connect 9 0 12 0;
#X connect 10 0 11 0;
#X connect 11 0 9 1;
#X connect 12 0 13 0;
#X connect 13 0 82 0;
#X connect 14 0 11 1;
#X connect 15 0 13 1;
#X connect 16 0 17 0;
#X connect 16 0 19 0;
#X connect 17 0 18 0;
#X connect 18 0 16 1;
#X connect 19 0 20 0;
#X connect 20 0 78 0;
#X connect 21 0 18 1;
#X connect 22 0 20 1;
#X connect 23 0 24 0;
#X connect 23 0 26 0;
#X connect 24 0 25 0;
#X connect 25 0 23 1;
#X connect 26 0 27 0;
#X connect 27 0 74 0;
#X connect 28 0 25 1;
#X connect 29 0 27 1;
#X connect 30 0 31 0;
#X connect 30 0 33 0;
#X connect 31 0 32 0;
#X connect 32 0 30 1;
#X connect 33 0 34 0;
#X connect 34 0 70 0;
#X connect 35 0 32 1;
#X connect 36 0 34 1;
#X connect 37 0 38 0;
#X connect 37 0 40 0;
#X connect 38 0 39 0;
#X connect 39 0 37 1;
#X connect 40 0 41 0;
#X connect 41 0 66 0;
#X connect 42 0 39 1;
#X connect 43 0 41 1;
#X connect 44 0 45 0;
#X connect 44 0 47 0;
#X connect 45 0 46 0;
#X connect 46 0 44 1;
#X connect 47 0 48 0;
#X connect 48 0 62 0;
#X connect 49 0 46 1;
#X connect 50 0 48 1;
#X connect 51 0 52 0;
#X connect 51 0 54 0;
#X connect 52 0 53 0;
#X connect 53 0 51 1;
#X connect 54 0 55 0;
#X connect 55 0 58 0;
#X connect 56 0 53 1;
#X connect 57 0 55 1;
#X connect 58 0 59 0;
#X connect 58 1 60 0;
#X connect 59 0 61 0;
#X connect 60 0 59 1;
#X connect 62 0 63 0;
#X connect 62 1 64 0;
#X connect 63 0 65 0;
#X connect 64 0 63 1;
#X connect 66 0 67 0;
#X connect 66 1 68 0;
#X connect 67 0 69 0;
#X connect 68 0 67 1;
#X connect 70 0 71 0;
#X connect 70 1 72 0;
#X connect 71 0 73 0;
#X connect 72 0 71 1;
#X connect 74 0 75 0;
#X connect 74 1 76 0;
#X connect 75 0 77 0;
#X connect 76 0 75 1;
#X connect 78 0 79 0;
#X connect 78 1 80 0;
#X connect 79 0 81 0;
#X connect 80 0 79 1;
#X connect 82 0 83 0;
#X connect 82 1 84 0;
#X connect 83 0 85 0;
#X connect 84 0 83 1;
#X connect 86 0 87 0;
#X connect 86 1 88 0;
#X connect 87 0 89 0;
#X connect 88 0 87 1;
#X connect 90 0 0 0;
#X coords 0 -1 1 1 295 85 1 110 105;
