#N canvas 312 250 601 427 10;
#X obj 87 184 f;
#X obj 129 184 + 1;
#X floatatom 107 107 5 0 0 0 - - -;
#X obj 87 207 mod \$1;
#X obj 87 107 bng 15 250 50 0 empty empty empty 17 7 0 10 -262144 -191407
-1;
#X obj 120 153 i;
#X floatatom 179 107 2 0 1 0 - - -;
#X obj 192 153 i;
#X obj 87 253 * \$2;
#X obj 87 276 % \$1;
#X floatatom 143 107 5 0 0 0 - - -;
#X obj 156 153 i;
#X obj 87 299 < \$2;
#X obj 197 107 bng 15 250 50 0 empty empty empty 17 7 0 10 -262144
-1 -1;
#X obj 87 322 sel 1;
#X obj 87 230 + \$3;
#X obj 87 27 inlet;
#X obj 127 27 inlet;
#X obj 166 27 inlet;
#X obj 205 27 inlet;
#X obj 87 363 outlet;
#X obj 148 364 outlet;
#X connect 0 0 1 0;
#X connect 0 0 3 0;
#X connect 1 0 0 1;
#X connect 2 0 5 0;
#X connect 3 0 15 0;
#X connect 4 0 0 0;
#X connect 5 0 3 1;
#X connect 5 0 9 1;
#X connect 6 0 7 0;
#X connect 7 0 15 1;
#X connect 8 0 9 0;
#X connect 9 0 12 0;
#X connect 10 0 11 0;
#X connect 11 0 8 1;
#X connect 11 0 12 1;
#X connect 12 0 14 0;
#X connect 14 0 13 0;
#X connect 14 0 20 0;
#X connect 14 1 21 0;
#X connect 15 0 8 0;
#X connect 16 0 4 0;
#X connect 17 0 2 0;
#X connect 18 0 10 0;
#X connect 19 0 6 0;
#X coords 0 -1 1 1 140 50 1 80 80;
