#N canvas 370 226 452 472 10;
#X obj 118 53 inlet;
#X obj 118 319 f 0;
#X obj 143 319 + 1;
#X obj 168 319 % 2;
#X obj 133 273 r sync;
#X msg 133 296 0;
#X obj 126 137 + 4;
#X obj 126 160 t f b f b f, f 22;
#X obj 158 183 random;
#X obj 126 114 random 12;
#X obj 158 206 + 1;
#X obj 222 183 random;
#X obj 222 206 + 1;
#X obj 222 229 t f b f, f 10;
#X obj 248 256 random;
#X obj 118 242 t b b, f 15;
#X obj 205 341 f 0;
#X obj 233 341 + 1;
#X obj 258 341 % 2;
#X obj 220 295 r sync;
#X msg 220 318 0;
#X obj 118 357 +;
#X obj 126 90 loadbang, f 9;
#X obj 118 439 outlet;
#X obj 239 53 inlet;
#X obj 239 97 t b;
#X obj 118 380 + \$1;
#X obj 206 405 sel 0;
#X obj 206 439 outlet;
#X connect 0 0 15 0;
#X connect 1 0 2 0;
#X connect 1 0 21 0;
#X connect 1 0 27 0;
#X connect 2 0 3 0;
#X connect 3 0 1 1;
#X connect 4 0 5 0;
#X connect 5 0 1 1;
#X connect 6 0 7 0;
#X connect 7 0 3 1;
#X connect 7 1 8 0;
#X connect 7 2 8 1;
#X connect 7 3 11 0;
#X connect 7 4 11 1;
#X connect 8 0 10 0;
#X connect 8 0 2 1;
#X connect 9 0 6 0;
#X connect 11 0 12 0;
#X connect 12 0 13 0;
#X connect 13 0 18 1;
#X connect 13 1 14 0;
#X connect 13 2 14 1;
#X connect 14 0 17 1;
#X connect 15 0 1 0;
#X connect 15 1 16 0;
#X connect 16 0 17 0;
#X connect 16 0 21 1;
#X connect 17 0 18 0;
#X connect 18 0 16 1;
#X connect 19 0 20 0;
#X connect 20 0 16 1;
#X connect 21 0 26 0;
#X connect 22 0 9 0;
#X connect 24 0 25 0;
#X connect 25 0 9 0;
#X connect 26 0 23 0;
#X connect 27 0 28 0;
