#N canvas 328 207 784 489 10;
#X obj 187 456 outlet;
#X obj 187 166 bang;
#X obj 397 167 bang;
#X obj 187 90 inlet;
#X obj 397 90 inlet;
#X obj 500 90 inlet;
#X obj 500 119 clip 0 127;
#X obj 187 189 t b b;
#X obj 187 212 f 0;
#X obj 187 236 + 1;
#X obj 214 213 random 4;
#X obj 214 236 - 1;
#X msg 187 329 get \$1 1;
#X obj 187 352 list store;
#X obj 397 189 t b b;
#X obj 397 212 f 0;
#X obj 397 236 + 1;
#X obj 424 213 random 4;
#X obj 424 236 - 1;
#X msg 397 329 get \$1 1;
#X obj 397 363 list store;
#X obj 187 379 + 0;
#X msg 244 166 -12 -8 -7 -4 0 4 7 12;
#X msg 454 167 -11 -10 -9 -6 -7 -5 -3 -2 -1 1 2 3 5 6 7 8 10 11;
#X obj 397 259 % 18;
#X obj 187 259 % 8;
#X obj 239 298 >= 0;
#X obj 187 282 t f f;
#X obj 187 305 spigot;
#X obj 449 298 >= 0;
#X obj 397 282 t f f;
#X obj 397 305 spigot;
#X obj 321 121 loadbang;
#X connect 1 0 7 0;
#X connect 2 0 14 0;
#X connect 3 0 1 0;
#X connect 4 0 2 0;
#X connect 5 0 6 0;
#X connect 6 0 21 1;
#X connect 7 0 8 0;
#X connect 7 1 10 0;
#X connect 8 0 9 0;
#X connect 9 0 25 0;
#X connect 10 0 11 0;
#X connect 11 0 9 1;
#X connect 12 0 13 0;
#X connect 13 0 21 0;
#X connect 14 0 15 0;
#X connect 14 1 17 0;
#X connect 15 0 16 0;
#X connect 16 0 24 0;
#X connect 17 0 18 0;
#X connect 18 0 16 1;
#X connect 19 0 20 0;
#X connect 20 0 21 0;
#X connect 21 0 0 0;
#X connect 22 0 13 1;
#X connect 23 0 20 1;
#X connect 24 0 15 1;
#X connect 24 0 30 0;
#X connect 25 0 8 1;
#X connect 25 0 27 0;
#X connect 26 0 28 1;
#X connect 27 0 28 0;
#X connect 27 1 26 0;
#X connect 28 0 12 0;
#X connect 29 0 31 1;
#X connect 30 0 31 0;
#X connect 30 1 29 0;
#X connect 31 0 19 0;
#X connect 32 0 22 0;
#X connect 32 0 23 0;
