#N canvas 159 286 450 300 10;
#X obj 180 119 expr~ 0.5 - 0.5 * cos(2 * 3.14159 * $v1);
#X obj 159 218 *~, f 4;
#X obj 159 159 expr~ ($v1 * $f2 + $f3);
#X obj 158 17 inlet;
#X obj 158 93 phasor~;
#X obj 158 69 f \$1;
#X obj 226 17 inlet;
#X obj 226 69 f \$2;
#X obj 294 17 inlet;
#X obj 294 69 f \$3;
#X obj 17 17 inlet~;
#X obj 16 218 delwrite~ \$0-buff 1000;
#X obj 159 195 delread4~ \$0-buff;
#X obj 158 270 outlet~;
#X obj 355 18 loadbang;
#X connect 0 0 1 1;
#X connect 1 0 13 0;
#X connect 2 0 12 0;
#X connect 3 0 5 0;
#X connect 4 0 0 0;
#X connect 4 0 2 0;
#X connect 5 0 4 0;
#X connect 6 0 7 0;
#X connect 7 0 2 1;
#X connect 8 0 9 0;
#X connect 9 0 2 2;
#X connect 10 0 11 0;
#X connect 12 0 1 0;
#X connect 14 0 9 0;
#X connect 14 0 7 0;
#X connect 14 0 5 0;
