#N canvas 28 116 624 620 10;
#X obj 79 293 osc~;
#X obj 168 293 phasor~;
#X obj 79 379 *~;
#X obj 169 400 *~;
#X obj 313 384 expr 1-$f1;
#X obj 79 235 +~;
#X obj 112 218 *~;
#X obj 175 202 *~ 1;
#X obj 80 475 *~;
#X obj 450 392 pack f f;
#X obj 450 438 vline~;
#X obj 78 103 mtof;
#X msg 450 415 1 \$1 \, 0 \$2 \$1;
#X obj 79 555 outlet~;
#X obj 168 335 expr~ $v1>$f2;
#X obj 80 417 +~;
#X obj 78 126 sig~;
#X obj 80 498 clip~ -1 1;
#X obj 78 12 inlet;
#X obj 112 196 osc~;
#X obj 196 153 f \$3;
#X obj 243 268 f \$4;
#X obj 243 291 clip 0 1;
#X obj 313 363 clip 0 1;
#X obj 313 268 f \$5;
#X obj 495 369 f \$7;
#X obj 450 369 f \$6;
#X obj 450 316 t b b, f 8;
#X obj 450 460 pow~ \$8;
#X obj 78 68 t f b, f 12;
#X obj 112 174 *~ 1;
#X obj 80 521 *~ 0.5;
#X obj 196 176 clip 0 20;
#X obj 133 130 f \$2;
#X obj 133 153 clip 0 10;
#X connect 0 0 2 0;
#X connect 1 0 14 0;
#X connect 2 0 15 0;
#X connect 3 0 15 1;
#X connect 4 0 3 1;
#X connect 5 0 0 0;
#X connect 5 0 1 0;
#X connect 6 0 5 1;
#X connect 7 0 6 1;
#X connect 8 0 17 0;
#X connect 9 0 12 0;
#X connect 10 0 28 0;
#X connect 11 0 16 0;
#X connect 12 0 10 0;
#X connect 14 0 3 0;
#X connect 15 0 8 0;
#X connect 16 0 5 0;
#X connect 16 0 30 0;
#X connect 17 0 31 0;
#X connect 18 0 29 0;
#X connect 19 0 6 0;
#X connect 20 0 32 0;
#X connect 21 0 22 0;
#X connect 22 0 14 1;
#X connect 23 0 4 0;
#X connect 23 0 2 1;
#X connect 24 0 23 0;
#X connect 25 0 9 1;
#X connect 26 0 9 0;
#X connect 27 0 26 0;
#X connect 27 1 25 0;
#X connect 28 0 8 1;
#X connect 29 0 11 0;
#X connect 29 1 20 0;
#X connect 29 1 21 0;
#X connect 29 1 24 0;
#X connect 29 1 27 0;
#X connect 29 1 33 0;
#X connect 30 0 7 0;
#X connect 30 0 19 0;
#X connect 31 0 13 0;
#X connect 32 0 7 1;
#X connect 33 0 34 0;
#X connect 34 0 30 1;
