#N canvas 546 198 651 540 10;
#X obj 93 293 *~;
#X obj 110 66 hsl 60 15 0 1 0 0 empty empty Wet/Dry 65 8 0 10 -262144
-1 -1 100 1;
#X obj 107 194 pack 0 100;
#X obj 107 217 line~;
#X obj 512 146 expr 1-$f1;
#X obj 512 210 pack 0 100;
#X obj 512 233 line~;
#X obj 498 390 *~;
#X obj 51 250 delwrite~ \$0-fla 1000;
#X obj 304 373 delread4~ \$0-fla;
#X obj 305 254 /~ 2;
#X obj 305 231 +~ 1;
#X floatatom 108 85 4 0 0 1 Speed - -;
#X floatatom 359 230 5 0 0 0 - - -;
#X obj 359 253 pack 0 100;
#X obj 359 276 line~;
#X floatatom 107 172 5 0 0 0 - - -;
#X floatatom 512 188 5 0 0 0 - - -;
#X obj 111 106 hsl 60 15 1 20 0 0 empty empty Width 65 8 0 10 -262144
-1 -1 5400 1;
#X floatatom 436 128 5 0 0 0 - - -;
#X obj 436 235 pack 0 100;
#X obj 436 301 line~;
#X obj 111 125 hsl 60 15 1 25 0 0 empty empty Delay 65 8 0 10 -262144
-1 -1 2500 1;
#X obj 305 317 +~;
#X obj 305 293 *~;
#X obj 94 444 clip~ -1 1;
#X obj 375 129 t b f;
#X msg 375 152 1;
#X obj 375 175 /;
#X obj 375 198 spigot;
#X obj 171 85 tgl 15 0 empty empty Link 20 8 0 10 -262144 -1 -1 1 1
;
#X obj 305 148 osc~ 1;
#X obj 50 21 inlet~;
#X obj 94 499 outlet~;
#X connect 0 0 25 0;
#X connect 1 0 16 0;
#X connect 1 0 4 0;
#X connect 2 0 3 0;
#X connect 3 0 0 1;
#X connect 4 0 17 0;
#X connect 5 0 6 0;
#X connect 6 0 7 1;
#X connect 7 0 8 0;
#X connect 7 0 25 0;
#X connect 9 0 7 0;
#X connect 9 0 0 0;
#X connect 10 0 24 0;
#X connect 11 0 10 0;
#X connect 12 0 31 0;
#X connect 13 0 14 0;
#X connect 14 0 15 0;
#X connect 15 0 24 1;
#X connect 16 0 2 0;
#X connect 17 0 5 0;
#X connect 18 0 13 0;
#X connect 18 0 26 0;
#X connect 19 0 20 0;
#X connect 20 0 21 0;
#X connect 21 0 23 1;
#X connect 22 0 19 0;
#X connect 23 0 9 0;
#X connect 24 0 23 0;
#X connect 25 0 33 0;
#X connect 26 0 27 0;
#X connect 26 1 28 1;
#X connect 27 0 28 0;
#X connect 28 0 29 0;
#X connect 29 0 12 0;
#X connect 30 0 29 1;
#X connect 31 0 11 0;
#X connect 32 0 8 0;
#X coords 0 -1 1 1 122 115 1 100 35;
