#N canvas 475 158 537 425 10;
#X obj 83 91 bng 15 250 50 0 empty empty empty 17 7 0 10 -262144 -1
-1;
#X obj 83 194 expr $f1+$f2 \; $f1 \; $f2;
#X obj 120 169 f 0;
#X obj 158 169 f 1;
#X floatatom 104 91 10 0 0 1 - - -;
#X floatatom 120 245 5 0 0 0 - - -;
#X floatatom 158 245 5 0 0 0 - - -;
#X obj 83 139 t b b b, f 13;
#X obj 201 91 bng 15 250 50 0 empty empty reset 17 7 0 10 -262144 -1
-1;
#X msg 201 171 0;
#X msg 234 171 1;
#X obj 83 288 mod 12;
#X floatatom 172 91 2 1 36 1 % - -;
#X obj 83 16 inlet;
#X obj 201 15 inlet;
#X obj 83 364 outlet;
#X obj 130 288 mod 12;
#X obj 178 288 mod 12;
#X obj 130 364 outlet;
#X obj 178 364 outlet;
#X connect 0 0 7 0;
#X connect 1 0 4 0;
#X connect 1 0 11 0;
#X connect 1 1 5 0;
#X connect 1 2 6 0;
#X connect 2 0 1 0;
#X connect 3 0 1 1;
#X connect 4 0 3 1;
#X connect 5 0 16 0;
#X connect 6 0 2 1;
#X connect 6 0 17 0;
#X connect 7 0 1 0;
#X connect 7 1 2 0;
#X connect 7 2 3 0;
#X connect 8 0 9 0;
#X connect 8 0 10 0;
#X connect 9 0 5 0;
#X connect 9 0 4 0;
#X connect 10 0 6 0;
#X connect 11 0 15 0;
#X connect 12 0 11 1;
#X connect 12 0 16 1;
#X connect 12 0 17 1;
#X connect 13 0 0 0;
#X connect 14 0 8 0;
#X connect 16 0 18 0;
#X connect 17 0 19 0;
#X coords 0 -1 1 1 180 50 1 75 65;
