#N canvas 74 116 584 636 10;
#X obj 269 26 inlet;
#X obj 254 146 max \$1;
#X obj 254 170 % 12;
#X obj 107 299 until, f 7;
#X obj 107 342 f 0;
#X obj 133 342 + 2;
#X msg 107 275 \$1;
#X obj 107 252 t f b b;
#X msg 126 320 0;
#X obj 107 206 f 3, f 6;
#X obj 107 229 clip 2 6;
#X obj 177 326 clip 2 7;
#X obj 107 379 + 0;
#X obj 254 214 random 2, f 9;
#X obj 254 259 route 0 1, f 31;
#X obj 254 192 t b f, f 11;
#X obj 254 237 pack 0 0, f 11;
#X obj 254 283 t f b;
#X obj 254 348 +;
#X obj 281 309 random 2;
#X obj 281 332 * 2;
#X obj 345 283 t f b;
#X obj 372 309 random 2;
#X floatatom 345 364 5 0 0 0 - - -;
#X obj 345 333 -;
#X obj 142 170 f \$2;
#X obj 177 170 f \$3;
#X obj 107 26 inlet;
#X obj 107 426 outlet;
#X obj 107 107 t b b b b, f 18;
#X obj 254 123 f 0;
#X obj 345 309 - 1;
#X obj 372 332 * 2;
#X connect 0 0 30 1;
#X connect 1 0 2 0;
#X connect 2 0 15 0;
#X connect 3 0 4 0;
#X connect 4 0 5 0;
#X connect 4 0 12 0;
#X connect 5 0 4 1;
#X connect 6 0 3 0;
#X connect 7 0 6 0;
#X connect 7 1 8 0;
#X connect 7 2 3 1;
#X connect 8 0 4 1;
#X connect 9 0 10 0;
#X connect 10 0 7 0;
#X connect 11 0 5 1;
#X connect 12 0 28 0;
#X connect 13 0 16 0;
#X connect 14 0 17 0;
#X connect 14 1 21 0;
#X connect 15 0 13 0;
#X connect 15 1 16 1;
#X connect 16 0 14 0;
#X connect 17 0 18 0;
#X connect 17 1 19 0;
#X connect 18 0 23 0;
#X connect 19 0 20 0;
#X connect 20 0 18 1;
#X connect 21 0 31 0;
#X connect 21 1 22 0;
#X connect 22 0 32 0;
#X connect 23 0 12 1;
#X connect 24 0 23 0;
#X connect 25 0 9 1;
#X connect 26 0 11 0;
#X connect 27 0 29 0;
#X connect 29 0 9 0;
#X connect 29 1 25 0;
#X connect 29 2 26 0;
#X connect 29 3 30 0;
#X connect 30 0 1 0;
#X connect 31 0 24 0;
#X connect 32 0 24 1;
