#N canvas 297 116 1024 612 10;
#X obj 75 157 mtof;
#X obj 76 281 +~;
#X obj 122 242 *~;
#X obj 122 265 *~;
#X obj 75 179 sig~;
#X msg 238 224 \$1 50;
#X obj 238 248 line~;
#X obj 137 196 *~ 1;
#X obj 158 172 clip -10 10;
#X obj 238 170 clip -10 10;
#X obj 75 124 t f b;
#X obj 158 124 random 101;
#X obj 238 124 random 101;
#X obj 76 416 osc~;
#X obj 274 147 - 10;
#X obj 238 147 / 5;
#X obj 195 147 - 10;
#X obj 158 147 / 5;
#X obj 137 219 osc~;
#X obj 76 386 +~;
#X obj 311 348 *~;
#X obj 311 371 *~;
#X msg 427 196 \$1 50;
#X obj 427 354 line~;
#X obj 326 234 *~ 1;
#X obj 347 173 clip -10 10;
#X obj 427 173 clip -10 10;
#X obj 347 125 random 101;
#X obj 427 126 random 101;
#X obj 463 149 - 10;
#X obj 427 149 / 5;
#X obj 384 148 - 10;
#X obj 347 148 / 5;
#X obj 326 256 phasor~;
#X obj 326 279 *~ 2;
#X obj 326 302 -~ 1;
#X obj 326 325 abs~;
#X obj 540 410 vline~;
#X obj 77 450 *~;
#X obj 540 435 pow~;
#X obj 540 341 f 0;
#X obj 591 341 f 0, f 4;
#X obj 540 144 t b b, f 9;
#X obj 540 364 pack f f, f 9;
#X msg 540 387 1 \$1 \, 0 \$2 \$1;
#X obj 555 316 random 200;
#X obj 612 291 random 2000;
#X obj 667 397 random 8;
#X obj 667 419 + 1;
#X obj 695 325 r dur;
#X obj 77 473 *~ 0.25;
#X obj 76 529 outlet~;
#X obj 75 22 inlet;
#X obj 158 22 inlet;
#X obj 158 45 t b f;
#X msg 185 100 seed \$1;
#X msg 238 100 seed \$1;
#X msg 347 100 seed \$1;
#X msg 427 100 seed \$1;
#X msg 555 100 seed \$1;
#X msg 612 100 seed \$1;
#X msg 667 100 seed \$1;
#X obj 238 61 * 2;
#X obj 347 61 * 3;
#X obj 427 61 * 4;
#X obj 555 61 * 5;
#X obj 612 61 * 6;
#X obj 667 61 * 7;
#X obj 285 29 loadbang;
#X msg 255 29 1;
#X obj 426 30 r seed;
#X connect 0 0 4 0;
#X connect 1 0 19 0;
#X connect 2 0 3 0;
#X connect 3 0 1 1;
#X connect 4 0 1 0;
#X connect 4 0 2 0;
#X connect 4 0 7 0;
#X connect 4 0 20 0;
#X connect 5 0 6 0;
#X connect 6 0 3 1;
#X connect 7 0 18 0;
#X connect 8 0 7 1;
#X connect 9 0 5 0;
#X connect 10 0 0 0;
#X connect 10 1 42 0;
#X connect 11 0 17 0;
#X connect 12 0 15 0;
#X connect 13 0 38 0;
#X connect 14 0 9 0;
#X connect 15 0 14 0;
#X connect 16 0 8 0;
#X connect 17 0 16 0;
#X connect 18 0 2 1;
#X connect 18 0 24 0;
#X connect 19 0 13 0;
#X connect 20 0 21 0;
#X connect 21 0 19 1;
#X connect 22 0 23 0;
#X connect 23 0 21 1;
#X connect 24 0 33 0;
#X connect 25 0 24 1;
#X connect 26 0 22 0;
#X connect 27 0 32 0;
#X connect 28 0 30 0;
#X connect 29 0 26 0;
#X connect 30 0 29 0;
#X connect 31 0 25 0;
#X connect 32 0 31 0;
#X connect 33 0 34 0;
#X connect 34 0 35 0;
#X connect 35 0 36 0;
#X connect 36 0 20 1;
#X connect 37 0 39 0;
#X connect 38 0 50 0;
#X connect 39 0 38 1;
#X connect 40 0 43 0;
#X connect 41 0 43 1;
#X connect 42 0 40 0;
#X connect 42 1 41 0;
#X connect 43 0 44 0;
#X connect 44 0 37 0;
#X connect 45 0 40 1;
#X connect 46 0 41 1;
#X connect 47 0 48 0;
#X connect 48 0 39 1;
#X connect 49 0 41 1;
#X connect 50 0 51 0;
#X connect 52 0 10 0;
#X connect 53 0 54 0;
#X connect 54 0 11 0;
#X connect 54 0 12 0;
#X connect 54 0 28 0;
#X connect 54 0 27 0;
#X connect 54 0 45 0;
#X connect 54 0 46 0;
#X connect 54 0 47 0;
#X connect 54 1 55 0;
#X connect 54 1 62 0;
#X connect 54 1 67 0;
#X connect 54 1 66 0;
#X connect 54 1 65 0;
#X connect 54 1 64 0;
#X connect 54 1 63 0;
#X connect 55 0 11 0;
#X connect 56 0 12 0;
#X connect 57 0 27 0;
#X connect 58 0 28 0;
#X connect 59 0 45 0;
#X connect 60 0 46 0;
#X connect 61 0 47 0;
#X connect 62 0 56 0;
#X connect 63 0 57 0;
#X connect 64 0 58 0;
#X connect 65 0 59 0;
#X connect 66 0 60 0;
#X connect 67 0 61 0;
#X connect 68 0 69 0;
#X connect 69 0 54 0;
#X connect 70 0 54 0;
