#N canvas 621 116 682 646 10;
#X msg 373 395 -11 -10 -9 -6 -7 -5 -3 -2 -1 1 2 3 5 6 7 8 10 11;
#X obj 75 33 inlet;
#X obj 140 71 random 8;
#X msg 140 94 get \$1 1;
#X obj 140 117 list store;
#X obj 197 33 loadbang;
#X obj 75 163 f 0;
#X obj 100 163 + 1;
#X obj 125 163 % 2;
#X obj 75 186 sel 0;
#X obj 75 209 t b b;
#X msg 75 255 get \$1 1;
#X obj 75 278 list store;
#X msg 132 232 0 0 1 1 1;
#X obj 75 465 list store, f 12;
#X obj 75 419 pack 0 0, f 9;
#X obj 140 140 t f f, f 18;
#X obj 304 474 list store, f 12;
#X obj 304 419 pack 0 0, f 9;
#X msg 197 71 1 1 1 2 2 3 4 4;
#X obj 304 33 inlet;
#X msg 304 55 seed \$1;
#X obj 75 605 outlet;
#X msg 75 442 get \$1 \$2;
#X msg 304 442 get \$1 \$2;
#X obj 75 232 random 6;
#X obj 75 490 unpack 0 0 0 0, f 27;
#X obj 245 605 outlet;
#X obj 128 568 pipe;
#X obj 134 545 * 1;
#X obj 181 568 pipe;
#X obj 187 545 * 2;
#X obj 234 568 pipe;
#X obj 240 545 * 3;
#X obj 234 517 + 12;
#X obj 294 565 * \$1;
#X obj 128 517 - 12;
#X obj 181 517 + 0;
#X msg 144 395 -12 -8 -5 -3 0 4 7 12;
#X obj 126 301 f 0;
#X obj 151 301 + 1;
#X obj 75 347 pack 0 0, f 9;
#X obj 75 370 route 0 1, f 77;
#X obj 75 395 % 8;
#X obj 304 395 % 18;
#X msg 304 285 1;
#X msg 349 285 -1;
#X obj 304 225 random 2;
#X obj 304 248 sel 0, f 8;
#X obj 126 324 abs;
#X obj 75 301 t f b, f 7;
#X connect 0 0 17 1;
#X connect 1 0 6 0;
#X connect 2 0 3 0;
#X connect 3 0 4 0;
#X connect 4 0 16 0;
#X connect 5 0 19 0;
#X connect 5 0 0 0;
#X connect 5 0 13 0;
#X connect 5 0 38 0;
#X connect 6 0 7 0;
#X connect 6 0 9 0;
#X connect 7 0 8 0;
#X connect 8 0 6 1;
#X connect 9 0 10 0;
#X connect 10 0 25 0;
#X connect 10 1 2 0;
#X connect 10 1 47 0;
#X connect 11 0 12 0;
#X connect 12 0 50 0;
#X connect 13 0 12 1;
#X connect 14 0 26 0;
#X connect 15 0 23 0;
#X connect 16 0 8 1;
#X connect 16 1 15 1;
#X connect 16 1 18 1;
#X connect 16 1 27 0;
#X connect 16 1 35 0;
#X connect 17 0 26 0;
#X connect 18 0 24 0;
#X connect 19 0 4 1;
#X connect 20 0 21 0;
#X connect 21 0 2 0;
#X connect 21 0 25 0;
#X connect 21 0 47 0;
#X connect 23 0 14 0;
#X connect 24 0 17 0;
#X connect 25 0 11 0;
#X connect 26 0 22 0;
#X connect 26 1 36 0;
#X connect 26 2 37 0;
#X connect 26 3 34 0;
#X connect 28 0 22 0;
#X connect 29 0 28 1;
#X connect 30 0 22 0;
#X connect 31 0 30 1;
#X connect 32 0 22 0;
#X connect 33 0 32 1;
#X connect 34 0 32 0;
#X connect 35 0 29 0;
#X connect 35 0 31 0;
#X connect 35 0 33 0;
#X connect 36 0 28 0;
#X connect 37 0 30 0;
#X connect 38 0 14 1;
#X connect 39 0 40 0;
#X connect 39 0 49 0;
#X connect 40 0 39 1;
#X connect 41 0 42 0;
#X connect 42 0 43 0;
#X connect 42 1 44 0;
#X connect 43 0 15 0;
#X connect 44 0 18 0;
#X connect 45 0 40 1;
#X connect 46 0 40 1;
#X connect 47 0 48 0;
#X connect 48 0 45 0;
#X connect 48 1 46 0;
#X connect 49 0 41 1;
#X connect 50 0 41 0;
#X connect 50 1 39 0;
