#N canvas 457 116 662 644 10;
#X obj 307 288 list store;
#X obj 139 69 bng 15 250 50 0 empty empty set 17 7 0 10 -262144 -191407
-1;
#X obj 89 150 f;
#X obj 125 150 + 1;
#X obj 125 173 % 1;
#X floatatom 89 173 5 0 0 0 - - -;
#X msg 89 272 get \$1 1;
#X obj 125 196 sel 0;
#X obj 125 219 bang;
#X obj 125 242 f;
#X obj 152 242 + 1;
#X obj 180 242 % 1;
#X obj 209 242 sel 0;
#X obj 125 310 bang;
#X obj 137 504 +;
#X obj 137 573 t f f;
#X obj 125 333 random 2;
#X obj 196 504 -;
#X obj 125 356 sel 0 1;
#X floatatom 137 527 5 0 0 0 - - -;
#X obj 137 550 expr if($f1<40||$f1>80 \, $f2 \, $f1);
#X obj 412 255 list length;
#X floatatom 412 278 5 0 0 0 - - -;
#X obj 89 69 bng 15 250 50 0 empty empty trg 17 7 0 10 -262144 -1 -1
;
#X obj 195 172 random 3;
#X obj 195 195 + 1;
#X floatatom 183 69 2 40 80 1 off - -;
#X obj 125 381 random 4;
#X obj 184 381 random 4;
#X obj 125 454 t b f;
#X obj 184 454 t b f;
#X obj 125 477 i;
#X obj 184 477 i;
#X obj 199 589 i;
#X obj 125 404 * 2;
#X obj 184 404 * 2;
#X obj 364 7 inlet;
#X obj 364 239 t a a;
#X obj 89 7 inlet;
#X obj 137 617 outlet;
#X obj 307 617 outlet;
#X obj 89 92 nbx 2 14 -1e+37 1e+37 0 0 empty empty tone 30 7 0 10 -191407
-262144 -1 45 256;
#X obj 157 92 nbx 2 14 -1e+37 1e+37 0 0 empty empty grade 30 7 0 10
-1 -262144 -1 4 256;
#X connect 0 0 40 0;
#X connect 0 0 42 0;
#X connect 1 0 24 0;
#X connect 2 0 3 0;
#X connect 2 0 5 0;
#X connect 3 0 4 0;
#X connect 4 0 2 1;
#X connect 4 0 7 0;
#X connect 5 0 6 0;
#X connect 6 0 0 0;
#X connect 7 0 8 0;
#X connect 8 0 9 0;
#X connect 9 0 10 0;
#X connect 9 0 13 0;
#X connect 10 0 11 0;
#X connect 11 0 9 1;
#X connect 11 0 12 0;
#X connect 12 0 1 0;
#X connect 13 0 16 0;
#X connect 14 0 19 0;
#X connect 15 0 39 0;
#X connect 15 1 33 0;
#X connect 16 0 18 0;
#X connect 17 0 19 0;
#X connect 18 0 27 0;
#X connect 18 1 28 0;
#X connect 19 0 20 0;
#X connect 20 0 15 0;
#X connect 21 0 22 0;
#X connect 22 0 4 1;
#X connect 23 0 2 0;
#X connect 24 0 25 0;
#X connect 25 0 11 1;
#X connect 26 0 31 1;
#X connect 26 0 32 1;
#X connect 26 0 20 1;
#X connect 27 0 34 0;
#X connect 28 0 35 0;
#X connect 29 0 31 0;
#X connect 29 1 14 1;
#X connect 30 0 32 0;
#X connect 30 1 17 1;
#X connect 31 0 14 0;
#X connect 32 0 17 0;
#X connect 33 0 31 1;
#X connect 33 0 32 1;
#X connect 33 0 41 0;
#X connect 34 0 29 0;
#X connect 35 0 30 0;
#X connect 36 0 37 0;
#X connect 37 0 0 1;
#X connect 37 1 21 0;
#X connect 38 0 23 0;
#X coords 0 -1 1 1 145 75 1 80 40;
