#N canvas 99 173 450 564 10;
#X obj 51 10 inlet;
#X obj 51 85 bng 15 250 50 0 empty empty 1st 17 7 0 10 -262144 -1 -1
;
#X obj 51 195 f 0;
#X msg 66 174 0;
#X obj 113 85 bng 15 250 50 0 empty empty res 17 7 0 10 -262144 -1
-1;
#X obj 51 218 expr $f1*$f1+$f1*$f2-$f3+$f1;
#X floatatom 51 104 4 0 10 1 2nd - -;
#X floatatom 51 125 4 0 10 1 3rd - -;
#X floatatom 51 241 5 0 0 0 - - -;
#X floatatom 51 286 5 0 0 0 - - -;
#X obj 51 263 sin;
#X obj 119 256 cos;
#X floatatom 119 286 5 0 0 0 - - -;
#X obj 51 308 + 1;
#X obj 119 308 + 1;
#X obj 51 331 * 0.5;
#X obj 119 331 * 0.5;
#X floatatom 51 354 5 0 0 0 - - -;
#X floatatom 119 354 5 0 0 0 - - -;
#X obj 51 376 * 128;
#X obj 51 399 mod 64;
#X obj 119 376 * 128;
#X obj 119 399 mod 64;
#X floatatom 51 445 5 0 0 0 - - -;
#X floatatom 119 445 5 0 0 0 - - -;
#X floatatom 113 125 2 1 90 1 mod - -;
#X obj 51 497 outlet;
#X obj 119 497 outlet;
#X obj 51 422 clip 30 90;
#X obj 119 422 clip 30 90;
#X obj 191 498 outlet;
#X connect 0 0 1 0;
#X connect 1 0 2 0;
#X connect 2 0 5 0;
#X connect 3 0 2 1;
#X connect 4 0 3 0;
#X connect 5 0 8 0;
#X connect 6 0 5 1;
#X connect 7 0 5 2;
#X connect 8 0 10 0;
#X connect 8 0 11 0;
#X connect 9 0 13 0;
#X connect 10 0 9 0;
#X connect 11 0 12 0;
#X connect 12 0 2 1;
#X connect 12 0 14 0;
#X connect 13 0 15 0;
#X connect 14 0 16 0;
#X connect 15 0 17 0;
#X connect 16 0 18 0;
#X connect 17 0 19 0;
#X connect 17 0 30 0;
#X connect 18 0 21 0;
#X connect 19 0 20 0;
#X connect 20 0 28 0;
#X connect 21 0 22 0;
#X connect 22 0 29 0;
#X connect 23 0 26 0;
#X connect 24 0 27 0;
#X connect 25 0 20 1;
#X connect 25 0 22 1;
#X connect 28 0 23 0;
#X connect 29 0 24 0;
#X coords 0 -1 1 1 108 100 1 45 50;
