#N canvas 691 212 639 475 10;
#X obj 45 118 f 0;
#X obj 86 141 sel 0;
#X obj 45 141 t f f;
#X obj 86 164 f 0;
#X obj 127 187 sel 0;
#X obj 86 187 t f f;
#X obj 127 211 f 0;
#X obj 168 234 sel 0;
#X obj 127 234 t f f;
#X obj 54 173 i 0;
#X obj 168 258 f 0;
#X obj 209 281 sel 0;
#X obj 168 281 t f f;
#X obj 54 297 *;
#X obj 141 281 + 1;
#X obj 54 203 +;
#X obj 54 250 -;
#X obj 54 385 outlet;
#X obj 209 385 outlet;
#X obj 45 37 inlet;
#X obj 183 79 r sync;
#X msg 183 102 0;
#X obj 248 37 inlet;
#X obj 104 118 % \$2;
#X obj 71 118 + \$1;
#X obj 112 164 + \$1;
#X obj 153 211 + \$1;
#X obj 186 211 % \$2;
#X obj 145 164 % \$2;
#X obj 194 258 + \$1;
#X obj 227 258 % \$2;
#X obj 54 320 % 24;
#X connect 0 0 2 0;
#X connect 0 0 24 0;
#X connect 1 0 3 0;
#X connect 1 0 9 0;
#X connect 2 0 9 1;
#X connect 2 1 1 0;
#X connect 3 0 5 0;
#X connect 3 0 25 0;
#X connect 4 0 6 0;
#X connect 5 0 15 1;
#X connect 5 1 4 0;
#X connect 6 0 8 0;
#X connect 6 0 26 0;
#X connect 7 0 10 0;
#X connect 8 0 16 1;
#X connect 8 1 7 0;
#X connect 9 0 15 0;
#X connect 10 0 12 0;
#X connect 10 0 29 0;
#X connect 11 0 18 0;
#X connect 12 0 14 0;
#X connect 12 1 11 0;
#X connect 13 0 31 0;
#X connect 14 0 13 1;
#X connect 15 0 16 0;
#X connect 16 0 13 0;
#X connect 19 0 0 0;
#X connect 20 0 21 0;
#X connect 21 0 0 1;
#X connect 21 0 3 1;
#X connect 21 0 10 1;
#X connect 21 0 6 1;
#X connect 22 0 23 1;
#X connect 22 0 27 1;
#X connect 22 0 28 1;
#X connect 22 0 30 1;
#X connect 23 0 0 1;
#X connect 24 0 23 0;
#X connect 25 0 28 0;
#X connect 26 0 27 0;
#X connect 27 0 6 1;
#X connect 28 0 3 1;
#X connect 29 0 30 0;
#X connect 30 0 10 1;
#X connect 31 0 17 0;
