#N canvas 407 216 804 489 10;
#X floatatom 73 167 5 0 0 0 - - -;
#X obj 73 191 sel 1 2 3 4 5 6 7, f 78;
#X msg 139 216 5;
#X obj 73 80 bng 15 250 50 0 empty empty empty 17 7 0 10 -262144 -1
-1;
#X obj 73 216 random 7;
#X floatatom 73 263 5 0 0 0 - - -;
#X obj 338 238 moses 40;
#X msg 338 261 7;
#X msg 383 261 1;
#X obj 338 215 random 100;
#X msg 561 285 1;
#X obj 471 215 random 100;
#X msg 471 261 5;
#X obj 73 239 + 1;
#X obj 471 238 moses 30;
#X msg 516 285 6;
#X obj 516 261 moses 50;
#X msg 405 214 4;
#X obj 262 215 random 100;
#X obj 262 238 moses 50;
#X msg 262 261 5;
#X msg 307 261 2;
#X obj 188 215 random 100;
#X obj 188 238 moses 50;
#X msg 188 261 4;
#X msg 233 261 6;
#X obj 39 320 outlet;
#X obj 93 80 nbx 2 15 1 7 0 0 empty empty empty 0 -8 0 10 -1 -262144
-1 2 256;
#X obj 73 143 i 1;
#X obj 39 80 nbx 2 15 1 7 0 0 empty empty empty 0 -8 0 10 -262144 -1
-1 4 256;
#X obj 73 7 inlet;
#X connect 0 0 1 0;
#X connect 0 0 29 0;
#X connect 1 0 4 0;
#X connect 1 1 2 0;
#X connect 1 2 22 0;
#X connect 1 3 18 0;
#X connect 1 4 9 0;
#X connect 1 5 17 0;
#X connect 1 6 11 0;
#X connect 2 0 27 0;
#X connect 3 0 28 0;
#X connect 4 0 13 0;
#X connect 5 0 27 0;
#X connect 6 0 7 0;
#X connect 6 1 8 0;
#X connect 7 0 27 0;
#X connect 8 0 27 0;
#X connect 9 0 6 0;
#X connect 10 0 27 0;
#X connect 11 0 14 0;
#X connect 12 0 27 0;
#X connect 13 0 5 0;
#X connect 14 0 12 0;
#X connect 14 1 16 0;
#X connect 15 0 27 0;
#X connect 16 0 15 0;
#X connect 16 1 10 0;
#X connect 17 0 27 0;
#X connect 18 0 19 0;
#X connect 19 0 20 0;
#X connect 19 1 21 0;
#X connect 20 0 27 0;
#X connect 21 0 27 0;
#X connect 22 0 23 0;
#X connect 23 0 24 0;
#X connect 23 1 25 0;
#X connect 24 0 27 0;
#X connect 25 0 27 0;
#X connect 27 0 28 1;
#X connect 28 0 0 0;
#X connect 29 0 26 0;
#X connect 30 0 3 0;
#X coords 0 -1 1 1 100 60 1 30 45;
