#N canvas 0 116 1366 652 10;
#N canvas 6 116 450 250 (subpatch) 0;
#X array A 7 float 3;
#A 0 0 2 4 7 5 2 7;
#X coords 0 13 7 -1 50 35 1 0 0;
#X restore 23 132 graph;
#X floatatom 518 27 5 0 0 0 - - -;
#X obj 454 259 i;
#X obj 24 96 bng 15 250 50 0 empty empty trg 17 7 0 10 -262144 -1 -1
;
#X obj 421 252 + 1;
#X obj 393 275 %;
#X obj 393 215 t b b;
#X obj 393 252 f 0;
#X floatatom 393 298 5 0 0 0 - - -;
#X obj 78 170 bng 15 250 50 0 empty empty alt 17 7 0 10 -262144 -1
-1;
#X obj 706 73 random 12;
#X floatatom 706 96 5 0 0 0 - - -;
#X obj 643 73 random 12;
#X floatatom 643 96 5 0 0 0 - - -;
#N canvas 0 50 450 250 (subpatch) 0;
#X array A1 7 float 3;
#A 0 4 8 0 7 5 2 7;
#X coords 0 13 7 -1 50 35 1 0 0;
#X restore 78 132 graph;
#X obj 395 60 array set A;
#X obj 518 59 array size A;
#X obj 395 82 array set A1;
#X obj 518 81 array size A1;
#X obj 393 320 array get A;
#X obj 643 120 array set A1;
#X obj 643 50 t b b, f 11;
#N canvas 0 50 450 250 (subpatch) 0;
#X array B 7 float 3;
#A 0 0 2 3 7 5 7 7;
#X coords 0 13 7 -1 50 35 1 0 0;
#X restore 133 132 graph;
#N canvas 0 50 450 250 (subpatch) 0;
#X array C 7 float 3;
#A 0 7 7 7 6 5 2 0;
#X coords 0 13 7 -1 50 35 1 0 0;
#X restore 188 132 graph;
#X obj 395 103 array set B;
#X obj 395 124 array set C;
#X obj 519 103 array size B;
#X obj 519 125 array size C;
#X obj 469 236 r s;
#X obj 519 147 s s;
#X obj 757 51 r s;
#X obj 133 170 bng 15 250 50 0 empty empty alt 17 7 0 10 -262144 -1
-1;
#X obj 854 73 random 12;
#X floatatom 854 96 5 0 0 0 - - -;
#X obj 791 73 random 12;
#X floatatom 791 96 5 0 0 0 - - -;
#X obj 791 50 t b b, f 11;
#X obj 905 51 r s;
#X obj 791 120 array set B;
#X obj 188 170 bng 15 250 50 0 empty empty alt 17 7 0 10 -262144 -1
-1;
#X obj 1000 71 random 12;
#X floatatom 1000 94 5 0 0 0 - - -;
#X obj 937 71 random 12;
#X floatatom 937 94 5 0 0 0 - - -;
#X obj 937 48 t b b, f 11;
#X obj 1051 49 r s;
#X obj 937 118 array set C;
#X obj 442 370 sel 0;
#X obj 469 347 - 1;
#X obj 442 393 f 0;
#X obj 470 393 + 1;
#X floatatom 516 401 5 0 0 1 repeat - -;
#X floatatom 393 586 5 0 0 0 - - -;
#X floatatom 442 438 5 0 0 0 - - -;
#X obj 442 416 %;
#X msg 513 304 symbol \$1;
#X floatatom 512 194 5 0 0 1 qta - -;
#X obj 512 221 expr if($f1<$f2 \, $f1 \, $f2);
#X floatatom 512 244 5 0 0 0 - - -;
#X obj 665 194 r s;
#X floatatom 24 195 2 0 10 1 rep_A - -;
#X obj 715 243 i;
#X obj 715 224 bng 15 250 50 0 empty empty empty 17 7 0 10 -262144
-1 -1;
#X obj 715 266 t f b;
#X floatatom 715 311 5 1 20 0 - - -;
#X msg 742 288 symbol A;
#X floatatom 78 195 2 0 10 1 rep_A1 - -;
#X obj 800 243 i;
#X obj 800 224 bng 15 250 50 0 empty empty empty 17 7 0 10 -262144
-1 -1;
#X obj 800 266 t f b;
#X floatatom 800 311 5 1 20 0 - - -;
#X msg 827 288 symbol A1;
#X floatatom 133 195 2 0 10 1 rep_B - -;
#X obj 895 243 i;
#X obj 895 224 bng 15 250 50 0 empty empty empty 17 7 0 10 -262144
-1 -1;
#X obj 895 266 t f b;
#X floatatom 895 311 5 1 20 0 - - -;
#X floatatom 188 195 2 0 10 1 rep_C - -;
#X obj 980 243 i;
#X obj 980 224 bng 15 250 50 0 empty empty empty 17 7 0 10 -262144
-1 -1;
#X obj 980 266 t f b;
#X floatatom 980 311 5 1 20 0 - - -;
#X msg 922 288 symbol B;
#X msg 1007 288 symbol C;
#X symbolatom 77 96 2 0 0 1 playing - -;
#X obj 529 541 f 0;
#X obj 556 541 + 1;
#X obj 529 564 % 4;
#X obj 529 609 sel 0 1 2 3;
#X obj 222 96 bng 15 250 50 0 empty empty reset -32 8 0 10 -262144
-1 -1;
#X floatatom 529 586 5 0 0 0 - - -;
#X obj 442 481 bng 15 250 50 0 empty empty empty 17 7 0 10 -262144
-1 -1;
#X obj 483 475 bng 15 250 50 0 empty empty empty 17 7 0 10 -262144
-1 -1;
#X obj 442 459 sel 0;
#X obj 393 610 outlet;
#X obj 24 10 inlet;
#X obj 107 10 inlet;
#X obj 205 10 inlet;
#X obj 256 80 loadbang;
#X obj 516 443 - 1;
#X msg 442 194 0;
#X msg 405 479 -1;
#X connect 1 0 16 0;
#X connect 1 0 18 0;
#X connect 1 0 26 0;
#X connect 1 0 27 0;
#X connect 1 0 29 0;
#X connect 2 0 5 1;
#X connect 3 0 6 0;
#X connect 4 0 7 1;
#X connect 5 0 8 0;
#X connect 6 0 7 0;
#X connect 6 1 2 0;
#X connect 7 0 4 0;
#X connect 7 0 5 0;
#X connect 8 0 19 0;
#X connect 8 0 47 0;
#X connect 9 0 21 0;
#X connect 10 0 11 0;
#X connect 11 0 20 1;
#X connect 12 0 13 0;
#X connect 13 0 20 0;
#X connect 19 0 52 0;
#X connect 21 0 12 0;
#X connect 21 1 10 0;
#X connect 28 0 2 1;
#X connect 28 0 48 0;
#X connect 30 0 10 1;
#X connect 31 0 36 0;
#X connect 32 0 33 0;
#X connect 33 0 38 1;
#X connect 34 0 35 0;
#X connect 35 0 38 0;
#X connect 36 0 34 0;
#X connect 36 1 32 0;
#X connect 37 0 32 1;
#X connect 39 0 44 0;
#X connect 40 0 41 0;
#X connect 41 0 46 1;
#X connect 42 0 43 0;
#X connect 43 0 46 0;
#X connect 44 0 42 0;
#X connect 44 1 40 0;
#X connect 45 0 40 1;
#X connect 47 0 49 0;
#X connect 48 0 47 1;
#X connect 49 0 50 0;
#X connect 49 0 54 0;
#X connect 50 0 49 1;
#X connect 51 0 54 1;
#X connect 51 0 99 0;
#X connect 52 0 94 0;
#X connect 53 0 93 0;
#X connect 54 0 53 0;
#X connect 55 0 19 2;
#X connect 55 0 84 0;
#X connect 56 0 57 0;
#X connect 57 0 58 0;
#X connect 58 0 2 1;
#X connect 59 0 57 1;
#X connect 60 0 61 1;
#X connect 61 0 63 0;
#X connect 62 0 61 0;
#X connect 63 0 64 0;
#X connect 63 1 65 0;
#X connect 64 0 51 0;
#X connect 65 0 55 0;
#X connect 66 0 67 1;
#X connect 67 0 69 0;
#X connect 68 0 67 0;
#X connect 69 0 70 0;
#X connect 69 1 71 0;
#X connect 70 0 51 0;
#X connect 71 0 55 0;
#X connect 72 0 73 1;
#X connect 73 0 75 0;
#X connect 74 0 73 0;
#X connect 75 0 76 0;
#X connect 75 1 82 0;
#X connect 76 0 51 0;
#X connect 77 0 78 1;
#X connect 78 0 80 0;
#X connect 79 0 78 0;
#X connect 80 0 81 0;
#X connect 80 1 83 0;
#X connect 81 0 51 0;
#X connect 82 0 55 0;
#X connect 83 0 55 0;
#X connect 85 0 86 0;
#X connect 85 0 87 0;
#X connect 86 0 85 1;
#X connect 87 0 90 0;
#X connect 88 0 62 0;
#X connect 88 1 68 0;
#X connect 88 2 74 0;
#X connect 88 3 79 0;
#X connect 89 0 100 0;
#X connect 90 0 88 0;
#X connect 91 0 85 0;
#X connect 91 0 101 0;
#X connect 93 0 91 0;
#X connect 93 1 92 0;
#X connect 95 0 3 0;
#X connect 96 0 1 0;
#X connect 97 0 15 0;
#X connect 97 0 25 0;
#X connect 97 0 24 0;
#X connect 97 0 17 0;
#X connect 98 0 89 0;
#X connect 99 0 93 1;
#X connect 100 0 7 0;
#X connect 100 0 49 0;
#X connect 100 0 85 0;
#X connect 101 0 49 0;
#X coords 0 -1 1 1 230 155 1 15 65;
