#N canvas 41 305 547 401 10;
#X obj 107 97 mtof;
#X obj 170 120 clip 1 16;
#X obj 233 120 clip 1 16;
#X obj 107 144 expr ($f1 / $f3) * $f2 \; $f4 / (($f1 / $f3) * $f2)
, f 32;
#X obj 107 71 t f b b b, f 32;
#X floatatom 296 181 5 0 0 0 - - -;
#X obj 63 244 +~;
#X obj 107 227 *~, f 8;
#X obj 63 114 sig~;
#X obj 107 204 osc~;
#X obj 152 196 *;
#X obj 107 180 t f f;
#X obj 63 294 *~ 0.5;
#X obj 62 353 outlet~;
#X obj 107 13 inlet;
#X obj 107 47 clip 0 127;
#X obj 191 13 inlet;
#X obj 254 13 inlet;
#X obj 317 13 inlet;
#X obj 63 269 osc~;
#X obj 170 97 i \$1;
#X obj 233 97 i \$2;
#X obj 296 96 i \$3;
#X obj 296 119 clip 1 2000;
#X connect 0 0 3 0;
#X connect 0 0 8 0;
#X connect 1 0 3 1;
#X connect 2 0 3 2;
#X connect 3 0 11 0;
#X connect 3 1 5 0;
#X connect 4 0 0 0;
#X connect 4 1 20 0;
#X connect 4 2 21 0;
#X connect 4 3 22 0;
#X connect 5 0 10 1;
#X connect 6 0 19 0;
#X connect 7 0 6 1;
#X connect 8 0 6 0;
#X connect 9 0 7 0;
#X connect 10 0 7 1;
#X connect 11 0 9 0;
#X connect 11 1 10 0;
#X connect 12 0 13 0;
#X connect 14 0 15 0;
#X connect 15 0 4 0;
#X connect 16 0 20 1;
#X connect 17 0 21 1;
#X connect 18 0 22 1;
#X connect 19 0 12 0;
#X connect 20 0 1 0;
#X connect 21 0 2 0;
#X connect 22 0 23 0;
#X connect 23 0 3 3;
