#N canvas 248 164 797 507 10;
#X obj 102 40 inlet;
#X obj 102 108 i 0, f 7;
#X obj 141 40 inlet;
#X obj 102 221 t b;
#X obj 102 466 outlet;
#X obj 174 154 t b b;
#X obj 251 154 t b b;
#X obj 325 154 t b b;
#X obj 400 154 t b b;
#X obj 475 154 t b b;
#X obj 102 131 sel 0 1 2 3 4 5 6 7, f 100;
#X obj 141 85 clip 0 8;
#X obj 549 154 t b b;
#X obj 624 154 t b b;
#X obj 728 40 inlet;
#X obj 707 79 f \$1;
#X obj 102 63 t b b;
#X obj 707 389 * 0.25;
#X obj 651 405 del 0;
#X obj 651 428 del 0;
#X obj 651 451 del 0;
#X obj 622 357 * 0.25;
#X obj 622 380 * 0.375;
#X obj 576 373 del 0;
#X obj 576 396 del 0;
#X obj 548 326 * 0.5;
#X obj 548 349 * 0.375;
#X obj 502 342 del 0;
#X obj 502 365 del 0;
#X obj 468 294 * 0.25;
#X obj 468 317 * 0.5;
#X obj 427 310 del 0;
#X obj 427 333 del 0;
#X obj 397 261 * 0.5;
#X obj 398 284 * 0.25;
#X obj 352 277 del 0;
#X obj 352 300 del 0;
#X obj 322 231 * 0.33;
#X obj 278 270 del 0;
#X obj 278 247 del 0;
#X obj 322 254 * 0.34;
#X obj 241 223 * 0.5;
#X obj 201 239 del 0;
#X connect 0 0 16 0;
#X connect 1 0 10 0;
#X connect 2 0 11 0;
#X connect 3 0 4 0;
#X connect 5 0 4 0;
#X connect 5 1 42 0;
#X connect 6 0 4 0;
#X connect 6 1 39 0;
#X connect 7 0 4 0;
#X connect 7 1 35 0;
#X connect 8 0 4 0;
#X connect 8 1 31 0;
#X connect 9 0 4 0;
#X connect 9 1 27 0;
#X connect 10 0 3 0;
#X connect 10 1 5 0;
#X connect 10 2 6 0;
#X connect 10 3 7 0;
#X connect 10 4 8 0;
#X connect 10 5 9 0;
#X connect 10 6 12 0;
#X connect 10 7 13 0;
#X connect 10 8 3 0;
#X connect 11 0 1 1;
#X connect 12 0 4 0;
#X connect 12 1 23 0;
#X connect 13 0 4 0;
#X connect 13 1 18 0;
#X connect 14 0 15 1;
#X connect 15 0 17 0;
#X connect 15 0 21 0;
#X connect 15 0 22 0;
#X connect 15 0 25 0;
#X connect 15 0 26 0;
#X connect 15 0 29 0;
#X connect 15 0 30 0;
#X connect 15 0 33 0;
#X connect 15 0 34 0;
#X connect 15 0 37 0;
#X connect 15 0 40 0;
#X connect 15 0 41 0;
#X connect 16 0 1 0;
#X connect 16 1 15 0;
#X connect 17 0 18 1;
#X connect 17 0 19 1;
#X connect 17 0 20 1;
#X connect 18 0 4 0;
#X connect 18 0 19 0;
#X connect 19 0 4 0;
#X connect 19 0 20 0;
#X connect 20 0 4 0;
#X connect 21 0 23 1;
#X connect 22 0 24 1;
#X connect 23 0 4 0;
#X connect 23 0 24 0;
#X connect 24 0 4 0;
#X connect 25 0 27 1;
#X connect 26 0 28 1;
#X connect 27 0 4 0;
#X connect 27 0 28 0;
#X connect 28 0 4 0;
#X connect 29 0 31 1;
#X connect 30 0 32 1;
#X connect 31 0 4 0;
#X connect 31 0 32 0;
#X connect 32 0 4 0;
#X connect 33 0 35 1;
#X connect 34 0 36 1;
#X connect 35 0 4 0;
#X connect 35 0 36 0;
#X connect 36 0 4 0;
#X connect 37 0 39 1;
#X connect 38 0 4 0;
#X connect 39 0 4 0;
#X connect 39 0 38 0;
#X connect 40 0 38 1;
#X connect 41 0 42 1;
#X connect 42 0 4 0;
