#N canvas 97 116 588 615 10;
#X obj 103 20 inlet;
#X obj 88 348 i 0;
#X obj 103 323 t f f f f, f 33;
#X obj 153 348 i 0;
#X obj 218 348 i 0;
#X obj 283 348 i 0;
#X obj 88 503 + 0;
#X obj 413 272 f 0;
#X obj 439 272 + 1;
#X obj 465 272 % 2;
#X obj 413 295 sel 0;
#X obj 453 248 t f f;
#X msg 471 177 seed \$1;
#X obj 198 20 inlet;
#X obj 328 272 f 0;
#X obj 354 272 + 1;
#X obj 380 272 % 2;
#X obj 328 295 sel 0;
#X obj 368 248 t f f;
#X msg 383 176 seed \$1;
#X obj 198 126 t b b b b f, f 46;
#X obj 453 151 del 10;
#X obj 368 151 del 20;
#X obj 453 202 random 16;
#X obj 368 202 random 16;
#X obj 453 225 + 1;
#X obj 368 225 + 1;
#X obj 243 272 f 0;
#X obj 269 272 + 1;
#X obj 295 272 % 2;
#X obj 243 295 sel 0;
#X obj 283 248 t f f;
#X msg 302 177 seed \$1;
#X obj 158 272 f 0;
#X obj 184 272 + 1;
#X obj 210 272 % 2;
#X obj 158 295 sel 0;
#X obj 198 248 t f f;
#X msg 213 176 seed \$1;
#X obj 283 202 random 16;
#X obj 198 202 random 16;
#X obj 283 225 + 1;
#X obj 198 225 + 1;
#X obj 283 151 del 30;
#X obj 198 151 del 40;
#X obj 158 100 metro, f 15;
#X obj 158 20 inlet;
#X obj 158 76 clip 0 1;
#X obj 247 77 * 100;
#X obj 335 38 loadbang;
#X obj 88 535 outlet;
#X obj 153 535 outlet;
#X obj 218 535 outlet;
#X obj 283 535 outlet;
#X obj 153 503 + 0;
#X obj 218 503 + 0;
#X obj 283 503 + 0;
#X obj 168 402 clip 2 8;
#X obj 168 425 t f f f, f 22;
#X obj 233 452 * 2;
#X obj 298 452 * 4;
#X obj 233 475 % 12;
#X floatatom 182 468 5 0 0 0 - - -;
#X obj 298 475 % 18;
#X obj 247 54 f \$1;
#X obj 453 386 / 2;
#X connect 0 0 2 0;
#X connect 1 0 6 0;
#X connect 2 0 1 1;
#X connect 2 1 3 1;
#X connect 2 2 4 1;
#X connect 2 3 5 1;
#X connect 3 0 54 0;
#X connect 4 0 55 0;
#X connect 5 0 56 0;
#X connect 6 0 50 0;
#X connect 7 0 8 0;
#X connect 7 0 10 0;
#X connect 8 0 9 0;
#X connect 9 0 7 1;
#X connect 10 0 5 0;
#X connect 11 0 19 0;
#X connect 11 0 65 0;
#X connect 11 1 9 1;
#X connect 12 0 23 0;
#X connect 13 0 20 0;
#X connect 14 0 15 0;
#X connect 14 0 17 0;
#X connect 15 0 16 0;
#X connect 16 0 14 1;
#X connect 17 0 4 0;
#X connect 18 1 16 1;
#X connect 19 0 24 0;
#X connect 20 0 44 0;
#X connect 20 1 43 0;
#X connect 20 2 22 0;
#X connect 20 3 21 0;
#X connect 20 4 12 0;
#X connect 21 0 23 0;
#X connect 22 0 24 0;
#X connect 23 0 25 0;
#X connect 24 0 26 0;
#X connect 25 0 11 0;
#X connect 26 0 18 0;
#X connect 27 0 28 0;
#X connect 27 0 30 0;
#X connect 28 0 29 0;
#X connect 29 0 27 1;
#X connect 30 0 3 0;
#X connect 31 0 38 0;
#X connect 31 1 29 1;
#X connect 32 0 39 0;
#X connect 33 0 34 0;
#X connect 33 0 36 0;
#X connect 34 0 35 0;
#X connect 35 0 33 1;
#X connect 36 0 1 0;
#X connect 37 1 35 1;
#X connect 38 0 40 0;
#X connect 39 0 41 0;
#X connect 40 0 42 0;
#X connect 41 0 31 0;
#X connect 42 0 37 0;
#X connect 43 0 39 0;
#X connect 44 0 40 0;
#X connect 45 0 33 0;
#X connect 45 0 27 0;
#X connect 45 0 14 0;
#X connect 45 0 7 0;
#X connect 46 0 47 0;
#X connect 47 0 45 0;
#X connect 48 0 45 1;
#X connect 49 0 64 0;
#X connect 54 0 51 0;
#X connect 55 0 52 0;
#X connect 56 0 53 0;
#X connect 57 0 58 0;
#X connect 58 0 54 1;
#X connect 58 0 62 0;
#X connect 58 1 59 0;
#X connect 58 2 60 0;
#X connect 59 0 61 0;
#X connect 60 0 63 0;
#X connect 61 0 55 1;
#X connect 63 0 56 1;
#X connect 64 0 48 0;
#X connect 65 0 57 0;
