#N canvas 30 168 701 504 10;
#X obj 62 83 mtof;
#X obj 108 267 *~;
#X obj 62 105 sig~;
#X obj 142 478 outlet~;
#X obj 63 306 phasor~;
#X obj 124 145 phasor~;
#X obj 82 337 *~ -1;
#X obj 82 360 +~ 1;
#X obj 62 383 min~;
#X obj 62 406 *~ 4;
#X obj 62 429 -~ 1;
#X obj 124 195 *~ 2;
#X obj 124 218 -~ 1;
#X obj 124 240 abs~;
#X obj 62 14 inlet;
#X obj 124 122 *~ 1;
#X obj 145 98 clip -10 10;
#X obj 185 179 clip -10 10;
#X obj 145 14 loadbang;
#X obj 145 61 f \$2;
#X obj 185 61 f \$3;
#X obj 192 348 vline~;
#X obj 62 61 t f b;
#X obj 143 385 *~;
#X obj 143 408 clip~ -1 1;
#X obj 192 246 t b b b, f 15;
#X obj 192 302 pack f f f, f 15;
#X msg 192 325 1 \$1 \, 0 \$2 \$3;
#X obj 143 431 *~ 0.25;
#X obj 63 283 -~;
#X obj 192 370 pow~ \$8;
#X obj 279 280 f \$7;
#X obj 235 279 f \$6;
#X obj 192 279 f \$5;
#X obj 225 61 f \$4;
#X obj 225 202 clip 0 10;
#X obj 300 203 r dur;
#X connect 0 0 2 0;
#X connect 1 0 29 1;
#X connect 2 0 1 0;
#X connect 2 0 15 0;
#X connect 2 0 29 0;
#X connect 4 0 6 0;
#X connect 4 0 8 0;
#X connect 5 0 11 0;
#X connect 6 0 7 0;
#X connect 7 0 8 1;
#X connect 8 0 9 0;
#X connect 9 0 10 0;
#X connect 10 0 23 0;
#X connect 11 0 12 0;
#X connect 12 0 13 0;
#X connect 13 0 1 1;
#X connect 14 0 22 0;
#X connect 15 0 5 0;
#X connect 16 0 15 1;
#X connect 17 0 11 1;
#X connect 18 0 19 0;
#X connect 18 0 20 0;
#X connect 18 0 34 0;
#X connect 19 0 16 0;
#X connect 20 0 17 0;
#X connect 21 0 30 0;
#X connect 22 0 0 0;
#X connect 22 1 25 0;
#X connect 23 0 24 0;
#X connect 24 0 28 0;
#X connect 25 0 33 0;
#X connect 25 1 32 0;
#X connect 25 2 31 0;
#X connect 26 0 27 0;
#X connect 27 0 21 0;
#X connect 28 0 3 0;
#X connect 29 0 4 0;
#X connect 30 0 23 1;
#X connect 31 0 26 2;
#X connect 32 0 26 1;
#X connect 33 0 26 0;
#X connect 34 0 35 0;
#X connect 35 0 12 1;
#X connect 36 0 31 1;
