#N canvas 427 127 642 629 10;
#X obj 187 194 f 0;
#X obj 213 194 + 1;
#X obj 239 194 % 8;
#X msg 141 562 add2 \$1;
#X msg 202 171 0;
#X obj 319 158 bng 15 250 50 0 empty empty empty 17 7 0 10 -262144
-1 -1;
#X obj 141 538 expr if($f1>12 \, -1 \, $f1);
#X obj 187 217 sel 0;
#X obj 187 240 f 0;
#X obj 213 240 + 1;
#X obj 240 240 % 2;
#X obj 141 306 route 0 1, f 16;
#X obj 141 281 pack 0 0, f 16;
#X floatatom 141 329 5 0 0 0 - - -;
#X floatatom 187 329 5 0 0 0 - - -;
#X obj 141 149 t b b f, f 16;
#X obj 141 256 f 0;
#X obj 141 126 random 15;
#X obj 168 450 list store, f 12;
#X obj 168 401 t f b;
#X obj 141 375 t f f;
#X obj 168 424 list prepend;
#X obj 187 351 t f b;
#X obj 214 374 f 0;
#X obj 240 374 + 1;
#X obj 266 374 % 8;
#X msg 229 351 0;
#X msg 214 397 get \$1 1, f 11;
#X floatatom 168 477 5 0 0 0 - - -;
#X obj 68 501 expr (abs($f1 - ($f2 + $f3)) % 12);
#X obj 68 477 pipe 10;
#X obj 141 601 outlet;
#X obj 141 59 metro 50;
#X obj 141 81 f 0;
#X obj 167 81 + 1;
#X obj 193 81 % 16;
#X obj 319 120 sel 15;
#X obj 141 35 tgl 15 0 empty empty empty 17 7 0 10 -262144 -1 -1 0
1;
#X obj 141 104 t b f;
#X obj 269 39 loadbang;
#X obj 281 65 f \$1;
#X obj 352 81 - 1;
#X obj 281 178 / 2;
#X obj 269 477 f \$2;
#X obj 141 6 inlet;
#X connect 0 0 1 0;
#X connect 0 0 7 0;
#X connect 1 0 2 0;
#X connect 2 0 0 1;
#X connect 3 0 31 0;
#X connect 4 0 0 1;
#X connect 5 0 4 0;
#X connect 5 0 18 1;
#X connect 5 0 26 0;
#X connect 6 0 3 0;
#X connect 7 0 8 0;
#X connect 8 0 9 0;
#X connect 8 0 16 1;
#X connect 9 0 10 0;
#X connect 10 0 8 1;
#X connect 11 0 13 0;
#X connect 11 1 14 0;
#X connect 12 0 11 0;
#X connect 13 0 20 0;
#X connect 14 0 22 0;
#X connect 15 0 16 0;
#X connect 15 1 0 0;
#X connect 15 2 12 1;
#X connect 16 0 12 0;
#X connect 17 0 15 0;
#X connect 18 0 21 1;
#X connect 18 0 28 0;
#X connect 19 0 21 0;
#X connect 19 1 18 0;
#X connect 20 0 6 0;
#X connect 20 1 19 0;
#X connect 21 0 18 1;
#X connect 22 0 30 0;
#X connect 22 1 23 0;
#X connect 23 0 24 0;
#X connect 23 0 27 0;
#X connect 24 0 25 0;
#X connect 25 0 23 1;
#X connect 26 0 23 1;
#X connect 27 0 18 0;
#X connect 28 0 29 1;
#X connect 29 0 6 0;
#X connect 30 0 29 0;
#X connect 32 0 33 0;
#X connect 33 0 34 0;
#X connect 33 0 38 0;
#X connect 34 0 35 0;
#X connect 35 0 33 1;
#X connect 36 0 37 0;
#X connect 36 0 5 0;
#X connect 37 0 32 0;
#X connect 38 0 17 0;
#X connect 38 1 36 0;
#X connect 39 0 40 0;
#X connect 39 0 43 0;
#X connect 40 0 35 1;
#X connect 40 0 41 0;
#X connect 40 0 42 0;
#X connect 41 0 36 1;
#X connect 42 0 2 1;
#X connect 42 0 25 1;
#X connect 43 0 29 2;
#X connect 44 0 37 0;
