#N canvas 30 166 612 572 10;
#X obj 79 27 inlet;
#X obj 418 27 inlet;
#X obj 418 50 t a a;
#X obj 388 153 list store;
#X obj 418 74 list length;
#X obj 349 77 bng 15 250 50 0 empty empty empty 17 7 0 10 -262144 -1
-1;
#X obj 349 97 f 0;
#X obj 376 97 + 1;
#X obj 403 97 % 2;
#X msg 349 120 get \$1 1;
#X obj 79 146 % 12;
#X floatatom 64 303 5 0 0 0 - - -;
#X floatatom 181 302 5 0 0 0 - - -;
#X floatatom 298 300 5 0 0 0 - - -;
#X obj 64 192 i;
#X obj 388 176 t b f;
#X obj 64 326 change;
#X obj 181 324 change;
#X obj 298 322 change;
#X floatatom 245 382 5 0 0 0 - - -;
#X obj 64 236 expr if($f1==$f2 \, $f1-5 \, -1) \; if($f1==$f2-3||$f1==$f2-4
\, $f2 \, -1) \; if($f1==$f2-7||$f1==$f2+5 \, $f2 \, -1) \; if($f1==$f2-2||$f1==$f2+3||$f1==$f2-5||$f1==$f2-9
\, $f2 \, -1);
#X floatatom 415 300 5 0 0 0 - - -;
#X obj 415 322 change;
#X obj 79 123 t f b;
#X obj 245 404 outlet;
#X connect 0 0 23 0;
#X connect 1 0 2 0;
#X connect 2 0 4 0;
#X connect 2 1 3 1;
#X connect 3 0 15 0;
#X connect 4 0 8 1;
#X connect 5 0 6 0;
#X connect 6 0 7 0;
#X connect 6 0 9 0;
#X connect 7 0 8 0;
#X connect 8 0 6 1;
#X connect 9 0 3 0;
#X connect 10 0 14 1;
#X connect 11 0 16 0;
#X connect 12 0 17 0;
#X connect 13 0 18 0;
#X connect 14 0 20 0;
#X connect 15 0 14 0;
#X connect 15 1 20 1;
#X connect 16 0 19 0;
#X connect 17 0 19 0;
#X connect 18 0 19 0;
#X connect 19 0 24 0;
#X connect 20 0 11 0;
#X connect 20 1 12 0;
#X connect 20 2 13 0;
#X connect 20 3 21 0;
#X connect 21 0 22 0;
#X connect 22 0 19 0;
#X connect 23 0 10 0;
#X connect 23 1 5 0;
