#N canvas 0 116 1366 652 10;
#X floatatom 20 337 5 0 0 0 - - -;
#X floatatom 213 337 5 0 0 0 - - -;
#X floatatom 407 337 5 0 0 0 - - -;
#X obj 20 311 unpack 0 0 0 0, f 97;
#X obj 407 426 - 0;
#X floatatom 599 411 5 0 0 0 - - -;
#X msg 71 149 0 0 0 1;
#X msg 21 104 0 0 0 0;
#X msg 74 104 0 1 0 0;
#X msg 40 126 0 -1 0 0;
#X msg 129 104 0 0 1 0;
#X msg 182 104 0 1 1 0;
#X msg 148 126 0 -1 1 0;
#X obj 20 363 expr if($f2==0 \, $f1 \, if($f2==-1 \, $f1-1 \, $f1+1))
\; if($f2==0 \, $f1+4-$f3 \, if($f2==-1 \, $f1-1+4-$f3 \, $f1+1+4-$f3))
\; if($f2==0 \, $f1+7 \, if($f2==-1 \, $f1-1+7 \, $f1+1+7)) \; if($f2==0
\, $f1+11-$f3 \, if($f2==-1 \, $f1-1+11-$f3 \, $f1+1+11-$f3)) \;,
f 65;
#X msg 241 104 2 0 0 0;
#X msg 260 126 2 -1 0 0;
#X msg 294 104 2 1 0 0;
#X msg 291 149 2 0 0 1;
#X msg 349 104 2 0 1 0;
#X msg 402 104 2 1 1 0;
#X msg 368 126 2 -1 1 0;
#X msg 461 104 4 0 0 0;
#X msg 480 126 4 -1 0 0;
#X msg 511 149 4 0 0 1;
#X msg 569 104 4 0 1 0;
#X msg 588 126 4 -1 1 0;
#X msg 651 104 5 0 0 0;
#X msg 670 126 5 1 0 0;
#X msg 701 149 5 0 0 1;
#X msg 759 104 5 0 1 0;
#X msg 778 127 5 1 1 0;
#X msg 821 104 7 0 0 0;
#X msg 840 126 7 -1 0 0;
#X msg 874 104 7 1 0 0;
#X msg 871 149 7 0 0 1;
#X msg 929 104 7 0 1 0;
#X msg 982 104 7 1 1 0;
#X msg 948 126 7 -1 1 0;
#X msg 1036 104 9 0 0 0;
#X msg 1089 104 9 1 0 0;
#X msg 1055 126 9 -1 0 0;
#X msg 1086 149 9 0 0 1;
#X msg 1144 104 9 0 1 0;
#X msg 1197 104 9 1 1 0;
#X msg 1163 126 9 -1 1 0;
#X msg 1272 126 11 -1 0 0;
#X msg 1303 149 11 0 0 1;
#X msg 1363 105 11 0 1 0;
#X msg 1380 126 11 -1 1 0;
#X msg 1253 104 11 0 0 0;
#X obj 21 78 route I Ib I# I7 i ib i# II IIb II# II7 ii iib ii# III
IIIb III7 iii iiib IV IV# IV7 iv iv# V Vb V# V7 v vb v# VI VIb VI#
VI7 vi vib vi# VII VIIb VII7 vii viib, f 233;
#X obj 1318 178 t b b, f 8;
#X msg 1318 224 0;
#X obj 278 440 + 0;
#X msg 1363 235 -1;
#X obj 1318 201 del 50;
#X obj 20 527 outlet;
#X obj 149 527 outlet;
#X obj 278 527 outlet;
#X obj 407 527 outlet;
#X obj 21 15 inlet;
#X obj 21 55 t a;
#X obj 20 288 r \$0-tri;
#X obj 40 178 s \$0-tri;
#X obj 148 178 s \$0-tri;
#X obj 260 178 s \$0-tri;
#X obj 368 178 s \$0-tri;
#X obj 480 178 s \$0-tri;
#X obj 588 178 s \$0-tri;
#X obj 670 178 s \$0-tri;
#X obj 778 178 s \$0-tri;
#X obj 840 178 s \$0-tri;
#X obj 948 178 s \$0-tri;
#X obj 1055 178 s \$0-tri;
#X obj 1163 178 s \$0-tri;
#X obj 1272 178 s \$0-tri;
#X obj 1380 178 s \$0-tri;
#X obj 1318 251 s \$0-dim;
#X obj 305 440 r \$0-dim;
#X connect 0 0 13 0;
#X connect 1 0 13 1;
#X connect 2 0 13 2;
#X connect 3 0 0 0;
#X connect 3 1 1 0;
#X connect 3 2 2 0;
#X connect 3 3 5 0;
#X connect 4 0 59 0;
#X connect 5 0 4 1;
#X connect 6 0 63 0;
#X connect 7 0 63 0;
#X connect 8 0 63 0;
#X connect 9 0 63 0;
#X connect 10 0 64 0;
#X connect 11 0 64 0;
#X connect 12 0 64 0;
#X connect 13 0 56 0;
#X connect 13 1 57 0;
#X connect 13 2 53 0;
#X connect 13 3 4 0;
#X connect 14 0 65 0;
#X connect 15 0 65 0;
#X connect 16 0 65 0;
#X connect 17 0 65 0;
#X connect 18 0 66 0;
#X connect 19 0 66 0;
#X connect 20 0 66 0;
#X connect 21 0 67 0;
#X connect 22 0 67 0;
#X connect 23 0 67 0;
#X connect 24 0 68 0;
#X connect 25 0 68 0;
#X connect 26 0 69 0;
#X connect 27 0 69 0;
#X connect 28 0 69 0;
#X connect 29 0 70 0;
#X connect 30 0 70 0;
#X connect 31 0 71 0;
#X connect 32 0 71 0;
#X connect 33 0 71 0;
#X connect 34 0 71 0;
#X connect 35 0 72 0;
#X connect 36 0 72 0;
#X connect 37 0 72 0;
#X connect 38 0 73 0;
#X connect 39 0 73 0;
#X connect 40 0 73 0;
#X connect 41 0 73 0;
#X connect 42 0 74 0;
#X connect 43 0 74 0;
#X connect 44 0 74 0;
#X connect 45 0 75 0;
#X connect 46 0 75 0;
#X connect 47 0 76 0;
#X connect 48 0 76 0;
#X connect 49 0 75 0;
#X connect 50 0 7 0;
#X connect 50 1 9 0;
#X connect 50 2 8 0;
#X connect 50 3 6 0;
#X connect 50 4 10 0;
#X connect 50 5 12 0;
#X connect 50 6 11 0;
#X connect 50 7 14 0;
#X connect 50 8 15 0;
#X connect 50 9 16 0;
#X connect 50 10 17 0;
#X connect 50 11 18 0;
#X connect 50 12 20 0;
#X connect 50 13 19 0;
#X connect 50 14 21 0;
#X connect 50 15 22 0;
#X connect 50 16 23 0;
#X connect 50 17 24 0;
#X connect 50 18 25 0;
#X connect 50 19 26 0;
#X connect 50 20 27 0;
#X connect 50 21 28 0;
#X connect 50 22 29 0;
#X connect 50 23 30 0;
#X connect 50 24 31 0;
#X connect 50 25 32 0;
#X connect 50 26 33 0;
#X connect 50 27 34 0;
#X connect 50 28 35 0;
#X connect 50 29 37 0;
#X connect 50 30 36 0;
#X connect 50 31 38 0;
#X connect 50 32 40 0;
#X connect 50 33 39 0;
#X connect 50 34 41 0;
#X connect 50 35 42 0;
#X connect 50 36 44 0;
#X connect 50 37 43 0;
#X connect 50 38 49 0;
#X connect 50 39 45 0;
#X connect 50 40 46 0;
#X connect 50 41 51 0;
#X connect 50 42 48 0;
#X connect 51 0 55 0;
#X connect 51 1 54 0;
#X connect 51 1 47 0;
#X connect 52 0 77 0;
#X connect 53 0 58 0;
#X connect 54 0 77 0;
#X connect 55 0 52 0;
#X connect 60 0 61 0;
#X connect 61 0 50 0;
#X connect 62 0 3 0;
#X connect 78 0 53 1;
