#N canvas 65 159 815 556 10;
#N canvas 6 116 450 250 (subpatch) 0;
#X array sound 162474 float 2;
#X coords 0 1 162474 -1 100 70 1 0 0;
#X restore 40 65 graph;
#X obj 365 20 inlet;
#X obj 365 66 soundfiler;
#X floatatom 365 89 5 0 0 0 - - -;
#X obj 40 155 bng 15 250 50 0 empty empty trg 17 7 0 10 -262144 -1
-1;
#X floatatom 205 228 5 0 0 0 - - -;
#X floatatom 218 250 5 0 0 0 - - -;
#X obj 190 250 f 0;
#X obj 191 447 *~;
#X obj 225 408 pack \$1 20;
#X obj 225 431 line;
#X obj 43 230 hsl 65 15 0 1 0 0 empty empty vol 75 7 0 10 -228856 -1
-1 0 1;
#X floatatom 273 262 5 0 0 0 - - -;
#X obj 190 307 pack f f f;
#X msg 190 330 \$1 \, \$2 \$3;
#X obj 190 353 vline~;
#X obj 43 136 hsl 95 15 0 1 0 0 empty empty empty -2 -8 0 10 -1 -262144
-1 0 1;
#X obj 296 347 line;
#X obj 296 370 expr $f1/$f2;
#X obj 126 155 tgl 15 0 empty empty empty 17 7 0 10 -262144 -1 -1 0
1;
#X obj 206 139 metro;
#X obj 167 20 inlet;
#X obj 43 173 hsl 65 15 0 1 0 0 empty empty from 75 7 0 10 -262144
-1 -1 0 1;
#X obj 205 193 expr $f1*$f2;
#X obj 43 192 hsl 65 15 0 1 0 0 empty empty to 75 7 0 10 -262144 -1
-1 0 1;
#X obj 288 193 expr $f1*$f2;
#X floatatom 369 267 10 0 0 0 - - -;
#X obj 369 220 t b f;
#X obj 369 244 expr abs($f2-$f1);
#X obj 43 211 hsl 65 15 0 2 0 0 empty empty rate 75 7 0 10 -99865 -262144
-1 0 1;
#X obj 398 158 * 44.1;
#X floatatom 398 181 5 0 0 0 - - -;
#X obj 273 240 / 44.1;
#X obj 190 515 outlet~;
#X msg 365 43 read -resize \$1 sound;
#X obj 191 380 tabread~ sound;
#X obj 211 20 inlet;
#X obj 254 20 inlet;
#X obj 296 20 inlet;
#X connect 1 0 34 0;
#X connect 2 0 3 0;
#X connect 3 0 6 0;
#X connect 3 0 18 1;
#X connect 3 0 23 1;
#X connect 3 0 25 1;
#X connect 3 0 32 0;
#X connect 4 0 7 0;
#X connect 4 0 32 0;
#X connect 5 0 7 1;
#X connect 6 0 13 1;
#X connect 7 0 13 0;
#X connect 8 0 33 0;
#X connect 9 0 10 0;
#X connect 10 0 8 1;
#X connect 11 0 9 0;
#X connect 12 0 20 1;
#X connect 12 0 13 2;
#X connect 13 0 14 0;
#X connect 14 0 15 0;
#X connect 14 0 17 0;
#X connect 15 0 35 0;
#X connect 17 0 18 0;
#X connect 18 0 16 0;
#X connect 19 0 20 0;
#X connect 20 0 4 0;
#X connect 21 0 4 0;
#X connect 22 0 23 0;
#X connect 23 0 5 0;
#X connect 23 0 28 0;
#X connect 24 0 25 0;
#X connect 25 0 6 0;
#X connect 25 0 27 0;
#X connect 26 0 32 0;
#X connect 27 0 28 0;
#X connect 27 1 28 1;
#X connect 28 0 26 0;
#X connect 29 0 30 0;
#X connect 30 0 31 0;
#X connect 31 0 32 1;
#X connect 32 0 12 0;
#X connect 34 0 2 0;
#X connect 35 0 8 0;
#X connect 36 0 22 0;
#X connect 37 0 24 0;
#X connect 38 0 29 0;
#X coords 0 -1 1 1 120 235 1 30 20;
