#N canvas 161 205 792 449 10;
#X obj 242 198 osc~;
#X obj 88 222 expr~ if($v4 > 0.9 \, ($v1 * (1 - $f3)) + (($v1 * sin($v2
* 6.28)) * $f3) \, $v1), f 77;
#X obj 546 198 phasor~;
#X obj 88 32 inlet~;
#X obj 89 334 outlet~;
#X obj 242 150 f \$1, f 5;
#X obj 394 150 f \$2, f 5;
#X obj 394 175 clip 0 1;
#X obj 546 175 clip 0 1;
#X obj 546 150 f \$3, f 5;
#X obj 656 134 loadbang;
#X obj 242 35 inlet;
#X obj 242 58 t b f;
#X obj 394 35 inlet;
#X obj 394 58 t b f;
#X obj 546 35 inlet;
#X obj 546 58 t b f;
#X connect 0 0 1 1;
#X connect 1 0 4 0;
#X connect 2 0 1 3;
#X connect 3 0 1 0;
#X connect 5 0 0 0;
#X connect 6 0 7 0;
#X connect 7 0 1 2;
#X connect 8 0 2 0;
#X connect 9 0 8 0;
#X connect 10 0 5 0;
#X connect 10 0 9 0;
#X connect 10 0 6 0;
#X connect 11 0 12 0;
#X connect 12 0 5 0;
#X connect 12 1 5 1;
#X connect 12 1 6 0;
#X connect 12 1 9 0;
#X connect 13 0 14 0;
#X connect 14 0 6 0;
#X connect 14 1 5 1;
#X connect 14 1 6 1;
#X connect 14 1 9 1;
#X connect 15 0 16 0;
#X connect 16 0 9 0;
#X connect 16 1 9 1;
#X connect 16 1 6 1;
#X connect 16 1 5 1;
