#N canvas 83 116 784 620 10;
#X obj 74 85 i 0;
#X obj 74 184 pack 0 0;
#X obj 74 108 t b f, f 8;
#X obj 74 160 i 0;
#X obj 89 63 % 12;
#X obj 89 138 % 7;
#X floatatom 74 272 5 0 0 0 - - -;
#X obj 74 236 expr if($f1==0||$f1==4||$f1==7 \, $f1 \, if($f1==5 \,
$f1-1 \, if($f1==11 \, $f1+1 \, if($f1==9 \, $f1-2 \, $f1-1))));
#X obj 62 63 r n;
#X floatatom 120 309 5 0 0 0 - - -;
#X obj 120 273 expr if($f1==0||$f1==4||$f1==7 \, $f1 \, if($f1==5 \,
$f1-1 \, if($f1==11 \, $f1+1 \, $f1+2)));
#X floatatom 167 368 5 0 0 0 - - -;
#X obj 167 309 expr if($f1==0||$f1==4||$f1==7 \, $f1 \, if($f1==5 \,
$f1-1 \, $f1-2));
#X floatatom 214 368 5 0 0 0 - - -;
#X obj 214 345 expr if($f1==0||$f1==4||$f1==7 \, $f1 \, $f1+2);
#X floatatom 260 413 5 0 0 0 - - -;
#X obj 260 391 abs;
#X obj 260 368 expr if($f1==0||$f1==7 \, $f1 \, $f1-1);
#X floatatom 307 433 5 0 0 0 - - -;
#X obj 307 391 expr if($f1==0||$f1==7 \, $f1 \, random(-6 \, 6));
#X floatatom 354 459 5 0 0 0 - - -;
#X obj 354 414 expr if($f1==0 \, $f1 \, random(-12 \, 12));
#X obj 74 474 i 0;
#X obj 74 497 t f f;
#X obj 101 520 s n;
#X obj 74 550 outlet;
#X obj 74 14 inlet;
#X obj 74 37 bang;
#X obj 118 14 inlet;
#X obj 165 14 inlet;
#X obj 167 345 abs;
#X obj 74 211 route 6 5 4 3 2 1 0, f 55;
#X connect 0 0 2 0;
#X connect 1 0 31 0;
#X connect 2 0 3 0;
#X connect 2 1 1 1;
#X connect 3 0 1 0;
#X connect 4 0 0 1;
#X connect 5 0 3 1;
#X connect 6 0 22 0;
#X connect 7 0 6 0;
#X connect 8 0 4 0;
#X connect 9 0 22 0;
#X connect 10 0 9 0;
#X connect 11 0 22 0;
#X connect 12 0 30 0;
#X connect 13 0 22 0;
#X connect 14 0 13 0;
#X connect 15 0 22 0;
#X connect 16 0 15 0;
#X connect 17 0 16 0;
#X connect 18 0 22 0;
#X connect 19 0 18 0;
#X connect 20 0 22 0;
#X connect 21 0 20 0;
#X connect 22 0 23 0;
#X connect 23 0 25 0;
#X connect 23 1 24 0;
#X connect 26 0 27 0;
#X connect 27 0 0 0;
#X connect 28 0 4 0;
#X connect 29 0 5 0;
#X connect 30 0 11 0;
#X connect 31 0 7 0;
#X connect 31 1 10 0;
#X connect 31 2 12 0;
#X connect 31 3 14 0;
#X connect 31 4 17 0;
#X connect 31 5 19 0;
#X connect 31 6 21 0;
