#N canvas 0 116 1366 652 10;
#X floatatom 98 44 5 0 0 0 - - -;
#X obj 98 216 f;
#X obj 98 150 mtof;
#X floatatom 267 308 5 0 0 1 delay - -;
#X obj 267 376 random 2;
#X obj 267 419 sel 0;
#X obj 267 461 f;
#X obj 294 461 f;
#X obj 267 484 expr $f1*3/2;
#X floatatom 267 533 5 0 0 0 - - -;
#X floatatom 98 173 5 0 0 0 - - -;
#X obj 267 330 t b f;
#X obj 267 353 del, f 5;
#X floatatom 267 398 5 0 0 0 - - -;
#X obj 246 435 bng 15 250 50 0 empty empty empty 17 7 0 10 -262144
-1 -1;
#X obj 308 435 bng 15 250 50 0 empty empty empty 17 7 0 10 -262144
-1 -1;
#X obj 98 262 osc~;
#X obj 99 398 *~;
#X obj 98 239 t f b b, f 29;
#X msg 138 335 1 20 \, 0 \$1 20;
#X obj 183 358 vline~;
#X floatatom 557 305 5 0 0 1 delay - -;
#X obj 557 373 random 2;
#X obj 557 416 sel 0;
#X obj 557 458 f;
#X obj 584 458 f;
#X floatatom 557 530 5 0 0 0 - - -;
#X obj 557 327 t b f;
#X obj 557 350 del, f 5;
#X floatatom 557 395 5 0 0 0 - - -;
#X obj 536 432 bng 15 250 50 0 empty empty empty 17 7 0 10 -262144
-1 -1;
#X obj 598 432 bng 15 250 50 0 empty empty empty 17 7 0 10 -262144
-1 -1;
#X obj 388 259 osc~;
#X obj 389 395 *~;
#X obj 388 236 t f b b, f 29;
#X msg 427 332 1 20 \, 0 \$1 20;
#X obj 473 355 vline~;
#X floatatom 857 308 5 0 0 1 delay - -;
#X obj 857 376 random 2;
#X obj 857 419 sel 0;
#X obj 857 461 f;
#X obj 884 461 f;
#X obj 857 484 expr $f1*3/2;
#X floatatom 857 533 5 0 0 0 - - -;
#X obj 857 330 t b f;
#X obj 857 353 del, f 5;
#X floatatom 857 398 5 0 0 0 - - -;
#X obj 836 435 bng 15 250 50 0 empty empty empty 17 7 0 10 -262144
-1 -1;
#X obj 898 435 bng 15 250 50 0 empty empty empty 17 7 0 10 -262144
-1 -1;
#X obj 688 262 osc~;
#X obj 689 396 *~;
#X obj 688 239 t f b b, f 29;
#X msg 728 333 1 20 \, 0 \$1 20;
#X obj 773 356 vline~;
#X floatatom 1147 305 5 0 0 1 delay - -;
#X obj 1147 373 random 2;
#X obj 1147 416 sel 0;
#X obj 1147 458 f;
#X obj 1174 458 f;
#X floatatom 1147 530 5 0 0 0 - - -;
#X obj 1147 327 t b f;
#X obj 1147 350 del, f 5;
#X floatatom 1147 395 5 0 0 0 - - -;
#X obj 1126 432 bng 15 250 50 0 empty empty empty 17 7 0 10 -262144
-1 -1;
#X obj 1188 432 bng 15 250 50 0 empty empty empty 17 7 0 10 -262144
-1 -1;
#X obj 978 259 osc~;
#X obj 979 395 *~;
#X obj 978 236 t f b b, f 29;
#X msg 1017 332 1 20 \, 0 \$1 20;
#X obj 1063 355 vline~;
#X floatatom 267 578 5 0 0 0 - - -;
#X floatatom 557 576 5 0 0 0 - - -;
#X floatatom 857 579 5 0 0 0 - - -;
#X obj 98 554 /~ 4;
#X obj 184 157 spigot;
#X obj 134 46 tgl 15 0 empty empty empty 17 7 0 10 -262144 -1 -1 0
1;
#X obj 557 259 random 1000;
#X obj 857 262 random 1000;
#X obj 1147 259 random 1000;
#X obj 267 262 random 1000;
#X floatatom 1147 575 5 0 0 0 - - -;
#X floatatom 97 64 8 0 0 0 - - -;
#X obj 98 590 outlet~;
#X obj 557 481 expr $f1*3/2;
#X obj 294 507 expr ($f1*3/2)/2;
#X obj 584 504 expr ($f1*3/2)/2;
#X obj 1147 481 expr $f1*4/5;
#X obj 1174 504 expr ($f1*4/5)/2;
#X obj 884 507 expr ($f1*3/2)/2;
#X obj 557 282 + 100;
#X obj 857 285 + 100;
#X obj 1147 282 + 100;
#X obj 183 263 random 10000;
#X obj 473 260 random 10000;
#X obj 773 263 random 10000;
#X obj 1063 260 random 10000;
#X obj 183 286 + 100;
#X floatatom 183 309 5 0 0 0 - - -;
#X obj 183 381 pow~ 2;
#X floatatom 473 306 5 0 0 0 - - -;
#X obj 473 378 pow~ 4;
#X floatatom 773 309 5 0 0 0 - - -;
#X obj 773 379 pow~ 2;
#X floatatom 1063 306 5 0 0 0 - - -;
#X obj 267 555 expr if($f1<900&&$f1>90 \, $f1 \, 200);
#X obj 557 553 expr if($f1<900&&$f1>90 \, $f1 \, 300);
#X obj 857 556 expr if($f1<900&&$f1>90 \, $f1 \, 400);
#X obj 1147 552 expr if($f1<900&&$f1>90 \, $f1 \, 500);
#X obj 267 285 + 200;
#X obj 473 283 + 200;
#X obj 773 286 + 200;
#X obj 1063 283 + 200;
#X obj 1063 378 pow~ 3;
#X connect 0 0 2 0;
#X connect 1 0 18 0;
#X connect 2 0 10 0;
#X connect 3 0 11 0;
#X connect 4 0 13 0;
#X connect 5 0 14 0;
#X connect 5 1 15 0;
#X connect 6 0 8 0;
#X connect 7 0 84 0;
#X connect 8 0 9 0;
#X connect 9 0 104 0;
#X connect 10 0 6 1;
#X connect 10 0 7 1;
#X connect 10 0 1 0;
#X connect 11 0 12 0;
#X connect 11 1 12 1;
#X connect 12 0 4 0;
#X connect 13 0 5 0;
#X connect 14 0 6 0;
#X connect 15 0 7 0;
#X connect 16 0 17 0;
#X connect 17 0 73 0;
#X connect 18 0 16 0;
#X connect 18 1 92 0;
#X connect 18 2 79 0;
#X connect 19 0 20 0;
#X connect 20 0 98 0;
#X connect 21 0 27 0;
#X connect 22 0 29 0;
#X connect 23 0 30 0;
#X connect 23 1 31 0;
#X connect 24 0 83 0;
#X connect 25 0 85 0;
#X connect 26 0 105 0;
#X connect 27 0 28 0;
#X connect 27 1 28 1;
#X connect 28 0 22 0;
#X connect 29 0 23 0;
#X connect 30 0 24 0;
#X connect 31 0 25 0;
#X connect 32 0 33 0;
#X connect 33 0 73 0;
#X connect 34 0 32 0;
#X connect 34 1 93 0;
#X connect 34 2 76 0;
#X connect 35 0 36 0;
#X connect 36 0 100 0;
#X connect 37 0 44 0;
#X connect 38 0 46 0;
#X connect 39 0 47 0;
#X connect 39 1 48 0;
#X connect 40 0 42 0;
#X connect 41 0 88 0;
#X connect 42 0 43 0;
#X connect 43 0 106 0;
#X connect 44 0 45 0;
#X connect 44 1 45 1;
#X connect 45 0 38 0;
#X connect 46 0 39 0;
#X connect 47 0 40 0;
#X connect 48 0 41 0;
#X connect 49 0 50 0;
#X connect 50 0 73 0;
#X connect 51 0 49 0;
#X connect 51 1 94 0;
#X connect 51 2 77 0;
#X connect 52 0 53 0;
#X connect 53 0 102 0;
#X connect 54 0 60 0;
#X connect 55 0 62 0;
#X connect 56 0 63 0;
#X connect 56 1 64 0;
#X connect 57 0 86 0;
#X connect 58 0 87 0;
#X connect 59 0 107 0;
#X connect 60 0 61 0;
#X connect 60 1 61 1;
#X connect 61 0 55 0;
#X connect 62 0 56 0;
#X connect 63 0 57 0;
#X connect 64 0 58 0;
#X connect 65 0 66 0;
#X connect 66 0 73 0;
#X connect 67 0 65 0;
#X connect 67 1 95 0;
#X connect 67 2 78 0;
#X connect 68 0 69 0;
#X connect 69 0 112 0;
#X connect 70 0 34 0;
#X connect 70 0 24 1;
#X connect 70 0 25 1;
#X connect 71 0 51 0;
#X connect 71 0 40 1;
#X connect 71 0 41 1;
#X connect 72 0 67 0;
#X connect 72 0 57 1;
#X connect 72 0 58 1;
#X connect 73 0 82 0;
#X connect 74 0 10 0;
#X connect 75 0 74 1;
#X connect 76 0 89 0;
#X connect 77 0 90 0;
#X connect 78 0 91 0;
#X connect 79 0 108 0;
#X connect 80 0 74 0;
#X connect 81 0 79 1;
#X connect 81 0 76 1;
#X connect 81 0 77 1;
#X connect 81 0 78 1;
#X connect 83 0 26 0;
#X connect 84 0 9 0;
#X connect 85 0 26 0;
#X connect 86 0 59 0;
#X connect 87 0 59 0;
#X connect 88 0 43 0;
#X connect 89 0 21 0;
#X connect 90 0 37 0;
#X connect 91 0 54 0;
#X connect 92 0 96 0;
#X connect 93 0 109 0;
#X connect 94 0 110 0;
#X connect 95 0 111 0;
#X connect 96 0 97 0;
#X connect 97 0 19 0;
#X connect 98 0 17 1;
#X connect 99 0 35 0;
#X connect 100 0 33 1;
#X connect 101 0 52 0;
#X connect 102 0 50 1;
#X connect 103 0 68 0;
#X connect 104 0 70 0;
#X connect 105 0 71 0;
#X connect 106 0 72 0;
#X connect 107 0 80 0;
#X connect 108 0 3 0;
#X connect 109 0 99 0;
#X connect 110 0 101 0;
#X connect 111 0 103 0;
#X connect 112 0 66 1;
#X coords 0 -1 1 1 70 70 1 90 20;
