#N canvas 40 162 756 581 10;
#X obj 83 38 inlet;
#X floatatom 156 62 5 0 0 1 tone - -;
#X floatatom 229 62 5 0 0 1 interval - -;
#X obj 242 185 random 2;
#X obj 242 208 sel 0, f 8;
#X floatatom 110 347 5 0 0 0 - - -;
#X obj 83 185 metro 1000;
#X obj 83 208 f 0;
#X obj 126 208 + 1;
#X floatatom 83 231 5 0 0 0 - - -;
#X floatatom 326 62 5 0 0 1 repeats - -;
#X msg 51 254 0;
#X obj 110 275 t b b;
#X floatatom 177 346 5 0 0 0 - - -;
#X obj 110 394 route, f 6;
#X floatatom 110 417 5 0 0 0 - - -;
#X obj 110 323 + 5;
#X obj 177 323 - 5;
#X floatatom 242 379 5 0 0 0 - - -;
#X obj 156 282 i 60;
#X obj 110 298 i;
#X obj 83 253 sel 8;
#X msg 242 231 2;
#X msg 287 230 3;
#X msg 110 369 2 \$1;
#X msg 177 368 3 \$1;
#X floatatom 140 137 5 0 0 0 - - -;
#X obj 140 114 * 1000;
#X obj 110 439 expr $f1 \; if($f1>36&&$f1<80 \, $f1 \, $f2);
#X obj 192 299 + 2;
#X floatatom 275 476 5 0 0 0 - - -;
#X obj 357 298 mtof;
#X obj 357 321 osc~;
#X obj 357 276 t f b, f 8;
#X obj 358 382 *~;
#X obj 402 343 vline~;
#X obj 402 366 pow~ 2;
#X obj 402 298 f 500;
#X obj 429 276 / 2;
#X obj 357 450 outlet~;
#X obj 326 38 inlet;
#X obj 229 38 inlet;
#X obj 156 38 inlet;
#X obj 188 10 r tone;
#X obj 262 10 r interval;
#X obj 364 10 r repeats;
#X msg 402 320 0.5 250 \, 0 \$1 250;
#X obj 466 12 r sec;
#X obj 466 98 * 1000;
#X obj 83 162 t b b b, f 53;
#X obj 398 208 / 1000;
#X floatatom 398 253 5 0 0 0 - - -;
#X obj 398 186 random 995;
#X obj 398 231 + 0.001;
#X obj 304 349 expr~ $v1>$f2;
#X connect 0 0 49 0;
#X connect 1 0 19 0;
#X connect 1 0 28 1;
#X connect 2 0 16 1;
#X connect 2 0 29 0;
#X connect 3 0 4 0;
#X connect 4 0 22 0;
#X connect 4 1 23 0;
#X connect 5 0 24 0;
#X connect 6 0 7 0;
#X connect 7 0 8 0;
#X connect 7 0 9 0;
#X connect 8 0 7 1;
#X connect 9 0 21 0;
#X connect 10 0 21 1;
#X connect 11 0 6 0;
#X connect 11 0 7 0;
#X connect 12 0 20 0;
#X connect 12 1 3 0;
#X connect 13 0 25 0;
#X connect 14 0 15 0;
#X connect 15 0 28 0;
#X connect 16 0 5 0;
#X connect 17 0 13 0;
#X connect 18 0 14 1;
#X connect 19 0 20 1;
#X connect 20 0 16 0;
#X connect 20 0 17 0;
#X connect 21 0 11 0;
#X connect 21 1 12 0;
#X connect 22 0 18 0;
#X connect 22 0 27 0;
#X connect 22 0 36 1;
#X connect 23 0 18 0;
#X connect 23 0 27 0;
#X connect 23 0 36 1;
#X connect 24 0 14 0;
#X connect 25 0 14 0;
#X connect 26 0 6 1;
#X connect 26 0 38 0;
#X connect 27 0 26 0;
#X connect 28 1 30 0;
#X connect 29 0 17 1;
#X connect 30 0 20 1;
#X connect 30 0 33 0;
#X connect 31 0 32 0;
#X connect 32 0 54 0;
#X connect 33 0 31 0;
#X connect 33 1 37 0;
#X connect 34 0 39 0;
#X connect 35 0 36 0;
#X connect 36 0 34 1;
#X connect 37 0 46 0;
#X connect 38 0 37 1;
#X connect 40 0 10 0;
#X connect 41 0 2 0;
#X connect 42 0 1 0;
#X connect 43 0 1 0;
#X connect 44 0 2 0;
#X connect 45 0 10 0;
#X connect 46 0 35 0;
#X connect 47 0 48 0;
#X connect 48 0 27 1;
#X connect 49 0 6 0;
#X connect 49 1 3 0;
#X connect 49 2 52 0;
#X connect 50 0 53 0;
#X connect 51 0 54 1;
#X connect 52 0 50 0;
#X connect 53 0 51 0;
#X connect 54 0 34 0;
