#N canvas 319 177 837 535 10;
#X obj 54 101 tgl 15 0 empty empty run 17 7 0 10 -262144 -1 -1 0 1
;
#X obj 54 295 metro 1000;
#X obj 54 341 + 60;
#X obj 180 294 metro 750;
#X floatatom 54 122 5 0 0 1 ms - -;
#X obj 111 274 * 4;
#X obj 231 272 * 3;
#X floatatom 147 122 3 1 6 0 - - -;
#X floatatom 116 122 3 1 6 1 / - -;
#X msg 246 158 seed \$1;
#X floatatom 54 143 5 0 0 1 seed - -;
#X floatatom 116 100 5 0 0 1 tone - -;
#X obj 54 384 outlet;
#X obj 180 383 outlet;
#X obj 54 318 i 0;
#X obj 180 317 i 2;
#X obj 69 239 random 20;
#X obj 195 237 random 20;
#X obj 180 340 + 60;
#X obj 54 80 bng 15 250 50 0 empty empty 1st 17 7 0 10 -191407 -262144
-1;
#X obj 116 80 bng 15 250 50 0 empty empty 2nd 17 7 0 10 -191407 -262144
-1;
#X obj 54 8 inlet;
#X obj 116 7 inlet;
#X obj 244 66 inlet;
#X obj 293 66 inlet;
#X connect 0 0 3 0;
#X connect 0 0 1 0;
#X connect 1 0 14 0;
#X connect 2 0 12 0;
#X connect 3 0 15 0;
#X connect 4 0 5 0;
#X connect 4 0 6 0;
#X connect 5 0 1 1;
#X connect 6 0 3 1;
#X connect 7 0 6 1;
#X connect 8 0 5 1;
#X connect 9 0 16 0;
#X connect 9 0 17 1;
#X connect 10 0 9 0;
#X connect 11 0 2 1;
#X connect 11 0 18 1;
#X connect 14 0 2 0;
#X connect 15 0 18 0;
#X connect 16 0 14 1;
#X connect 17 0 15 1;
#X connect 18 0 13 0;
#X connect 19 0 16 0;
#X connect 20 0 17 0;
#X connect 21 0 19 0;
#X connect 22 0 20 0;
#X connect 23 0 14 1;
#X connect 24 0 15 1;
#X coords 0 -1 1 1 140 125 1 45 45;
