#N canvas 97 116 1095 646 10;
#X obj 521 362 random 2;
#X obj 521 290 bng 15 250 50 0 empty empty empty 17 7 0 10 -262144
-1 -1;
#X floatatom 36 55 5 0 0 1 ms - -;
#X obj 579 338 f;
#X floatatom 36 75 5 0 0 1 tone - -;
#X obj 521 408 route 0 1;
#X obj 521 385 pack 0 0 0, f 20;
#X obj 638 362 f;
#X obj 521 313 t b b b, f 20;
#X obj 521 431 unpack 0 0;
#X floatatom 521 454 5 0 0 0 - - -;
#X floatatom 578 454 5 0 0 0 - - -;
#X obj 36 37 tgl 15 0 empty empty run 17 7 0 10 -262144 -1 -1 1 1;
#X obj 427 87 f;
#X obj 463 88 + 1;
#X obj 35 173 sel 0;
#X obj 422 487 mtof;
#X obj 422 536 osc~;
#X obj 259 510 vline~;
#X obj 259 553 *~;
#X obj 259 578 *~ 0.1;
#X obj 653 338 + 12;
#X obj 259 362 random 2;
#X obj 259 293 bng 15 250 50 0 empty empty empty 17 7 0 10 -262144
-1 -1;
#X obj 317 362 f;
#X obj 259 408 route 0 1;
#X obj 259 385 pack 0 0 0, f 20;
#X obj 376 362 f;
#X obj 259 313 t b b b, f 20;
#X obj 259 431 unpack 0 0;
#X floatatom 259 454 5 0 0 0 - - -;
#X floatatom 316 454 5 0 0 0 - - -;
#X obj 391 338 + 0;
#X obj 463 111 % 2;
#X obj 427 64 metro 1000;
#X obj 506 37 random 2;
#X obj 506 61 sel 0 1;
#X floatatom 36 95 5 0 0 1 rep - -;
#X obj 35 196 f;
#X obj 62 197 + 1;
#X obj 62 220 % 32;
#X floatatom 35 243 5 0 0 0 - - -;
#X obj 35 265 sel 0;
#X obj 35 288 bang;
#X msg 259 487 1 5 \, 0.75 20 5 \, 0 \$1 25;
#X msg 259 21 seed \$1;
#X obj 36 115 nbx 4 14 -1e+37 1e+37 0 0 empty empty seed 48 7 0 10
-228856 -1 -1 20 256;
#X obj 259 601 outlet~;
#X obj 193 21 inlet;
#X floatatom 427 111 5 0 0 0 - - -;
#X floatatom 274 150 5 0 1 0 - - -;
#X obj 259 196 pack 0 0, f 13;
#X obj 259 173 i;
#X obj 304 173 t b f;
#X obj 521 219 route 0 1 2, f 40;
#X obj 521 195 pack 0 0, f 13;
#X obj 521 172 i;
#X obj 566 172 t b f;
#X floatatom 536 149 5 0 2 0 - - -;
#X obj 259 220 route 0 1, f 27;
#X msg 506 85 2;
#X msg 539 85 3;
#X obj 259 247 sel 0 1;
#X obj 338 247 sel 0 1;
#X obj 521 251 sel 0 1 2, f 10;
#X obj 600 251 sel 0 1 2, f 10;
#X obj 679 252 sel 0 1 2, f 10;
#X obj 379 158 pack 0 0, f 13;
#X obj 379 135 i;
#X obj 427 135 t b f;
#X obj 379 182 route 2 3, f 13;
#X floatatom 511 120 5 0 0 0 - - -;
#X obj 274 94 random 2;
#X obj 567 121 random 3;
#X obj 259 531 pow~ 1;
#X obj 105 37 vradio 15 1 0 4 empty empty empty 0 -8 0 10 -262144 -1
-1 1;
#X obj 308 517 + 1;
#X obj 144 21 inlet;
#X obj 579 362 / 2;
#X connect 0 0 6 0;
#X connect 1 0 8 0;
#X connect 2 0 3 1;
#X connect 2 0 24 1;
#X connect 2 0 34 1;
#X connect 3 0 78 0;
#X connect 4 0 32 0;
#X connect 4 0 21 0;
#X connect 5 0 9 0;
#X connect 6 0 5 0;
#X connect 7 0 6 2;
#X connect 8 0 0 0;
#X connect 8 1 3 0;
#X connect 8 2 7 0;
#X connect 9 0 10 0;
#X connect 9 1 11 0;
#X connect 10 0 44 0;
#X connect 11 0 16 0;
#X connect 12 0 34 0;
#X connect 13 0 14 0;
#X connect 13 0 15 0;
#X connect 13 0 49 0;
#X connect 14 0 33 0;
#X connect 15 0 38 0;
#X connect 16 0 17 0;
#X connect 17 0 19 1;
#X connect 18 0 74 0;
#X connect 19 0 20 0;
#X connect 20 0 47 0;
#X connect 21 0 7 1;
#X connect 22 0 26 0;
#X connect 23 0 28 0;
#X connect 24 0 26 1;
#X connect 25 0 29 0;
#X connect 26 0 25 0;
#X connect 27 0 26 2;
#X connect 28 0 22 0;
#X connect 28 1 24 0;
#X connect 28 2 27 0;
#X connect 29 0 30 0;
#X connect 29 1 31 0;
#X connect 30 0 44 0;
#X connect 31 0 16 0;
#X connect 32 0 27 1;
#X connect 33 0 13 1;
#X connect 34 0 13 0;
#X connect 35 0 36 0;
#X connect 36 0 60 0;
#X connect 36 1 61 0;
#X connect 37 0 40 1;
#X connect 38 0 39 0;
#X connect 38 0 41 0;
#X connect 39 0 40 0;
#X connect 40 0 38 1;
#X connect 41 0 42 0;
#X connect 42 0 43 0;
#X connect 43 0 35 0;
#X connect 43 0 72 0;
#X connect 43 0 73 0;
#X connect 44 0 18 0;
#X connect 45 0 0 0;
#X connect 45 0 22 0;
#X connect 45 0 35 0;
#X connect 45 0 72 0;
#X connect 45 0 73 0;
#X connect 46 0 45 0;
#X connect 48 0 4 0;
#X connect 49 0 69 0;
#X connect 50 0 52 1;
#X connect 51 0 59 0;
#X connect 52 0 51 0;
#X connect 53 0 52 0;
#X connect 53 1 51 1;
#X connect 54 0 64 0;
#X connect 54 1 65 0;
#X connect 54 2 66 0;
#X connect 55 0 54 0;
#X connect 56 0 55 0;
#X connect 57 0 56 0;
#X connect 57 1 55 1;
#X connect 58 0 56 1;
#X connect 59 0 62 0;
#X connect 59 1 63 0;
#X connect 60 0 33 1;
#X connect 60 0 71 0;
#X connect 61 0 33 1;
#X connect 61 0 71 0;
#X connect 62 0 23 0;
#X connect 63 0 1 0;
#X connect 63 1 1 0;
#X connect 64 0 23 0;
#X connect 64 2 1 0;
#X connect 65 0 1 0;
#X connect 65 1 23 0;
#X connect 66 0 1 0;
#X connect 66 1 1 0;
#X connect 66 2 1 0;
#X connect 67 0 70 0;
#X connect 68 0 67 0;
#X connect 69 0 68 0;
#X connect 69 1 67 1;
#X connect 70 0 53 0;
#X connect 70 1 57 0;
#X connect 71 0 68 1;
#X connect 72 0 50 0;
#X connect 73 0 58 0;
#X connect 74 0 19 0;
#X connect 75 0 76 0;
#X connect 76 0 74 1;
#X connect 77 0 12 0;
#X connect 78 0 6 1;
#X coords 0 -1 1 1 105 130 1 25 10;
