#N canvas 0 116 1366 652 10;
#X obj 47 50 cnv 15 15 15 empty \$0-color empty 20 12 0 14 -245500
-66577 0;
#X msg 450 119 list #00ff00;
#X obj 450 190 s \$0-color;
#X msg 450 167 color \$1;
#X msg 477 143 list #eeeeee;
#X obj 450 95 sel 1;
#X obj 450 49 r n;
#X obj 39 361 s n;
#X obj 67 50 cnv 15 15 15 empty \$1-color empty 20 12 0 14 -245500
-66577 0;
#X obj 87 50 cnv 15 15 15 empty \$2-color empty 20 12 0 14 -245500
-66577 0;
#X obj 107 50 cnv 15 15 15 empty \$3-color empty 20 12 0 14 -4033 -66577
0;
#X obj 47 70 cnv 15 15 15 empty \$4-color empty 20 12 0 14 -245500
-66577 0;
#X obj 67 70 cnv 15 15 15 empty \$5-color empty 20 12 0 14 -245500
-66577 0;
#X obj 87 70 cnv 15 15 15 empty \$6-color empty 20 12 0 14 -4033 -66577
0;
#X obj 107 70 cnv 15 15 15 empty \$7-color empty 20 12 0 14 -245500
-66577 0;
#X obj 47 90 cnv 15 15 15 empty \$8-color empty 20 12 0 14 -245500
-66577 0;
#X obj 67 90 cnv 15 15 15 empty \$9-color empty 20 12 0 14 -4033 -66577
0;
#X obj 87 90 cnv 15 15 15 empty \$10-color empty 20 12 0 14 -245500
-66577 0;
#X obj 107 90 cnv 15 15 15 empty \$11-color empty 20 12 0 14 -245500
-66577 0;
#X obj 47 110 cnv 15 15 15 empty \$12-color empty 20 12 0 14 -245500
-66577 0;
#X obj 67 110 cnv 15 15 15 empty \$13-color empty 20 12 0 14 -245500
-66577 0;
#X obj 87 110 cnv 15 15 15 empty \$14-color empty 20 12 0 14 -245500
-66577 0;
#X obj 107 110 cnv 15 15 15 empty \$15-color empty 20 12 0 14 -4033
-66577 0;
#X msg 560 119 list #00ff00;
#X msg 560 167 color \$1;
#X msg 587 143 list #eeeeee;
#X obj 560 95 sel 1;
#X obj 560 49 r n;
#X obj 560 190 s \$1-color;
#X msg 670 119 list #00ff00;
#X msg 670 167 color \$1;
#X msg 697 143 list #eeeeee;
#X obj 670 95 sel 1;
#X obj 670 49 r n;
#X obj 670 190 s \$2-color;
#X msg 780 119 list #00ff00;
#X msg 780 167 color \$1;
#X msg 807 143 list #eeeeee;
#X obj 780 95 sel 1;
#X obj 780 49 r n;
#X obj 780 190 s \$3-color;
#X msg 450 289 list #00ff00;
#X msg 450 337 color \$1;
#X msg 477 313 list #eeeeee;
#X obj 450 265 sel 1;
#X msg 560 289 list #00ff00;
#X msg 560 337 color \$1;
#X msg 587 313 list #eeeeee;
#X obj 560 265 sel 1;
#X msg 670 289 list #00ff00;
#X msg 670 337 color \$1;
#X msg 697 313 list #eeeeee;
#X obj 670 265 sel 1;
#X msg 780 289 list #00ff00;
#X msg 780 337 color \$1;
#X msg 807 313 list #eeeeee;
#X obj 780 265 sel 1;
#X obj 450 360 s \$4-color;
#X obj 560 360 s \$5-color;
#X obj 670 360 s \$6-color;
#X obj 780 360 s \$7-color;
#X msg 900 119 list #00ff00;
#X msg 900 167 color \$1;
#X msg 927 143 list #eeeeee;
#X obj 900 95 sel 1;
#X msg 1010 119 list #00ff00;
#X msg 1010 167 color \$1;
#X msg 1037 143 list #eeeeee;
#X obj 1010 95 sel 1;
#X msg 1120 119 list #00ff00;
#X msg 1120 167 color \$1;
#X msg 1147 143 list #eeeeee;
#X obj 1120 95 sel 1;
#X msg 1230 119 list #00ff00;
#X msg 1230 167 color \$1;
#X msg 1257 143 list #eeeeee;
#X obj 1230 95 sel 1;
#X obj 900 190 s \$8-color;
#X obj 1010 190 s \$9-color;
#X obj 1120 190 s \$10-color;
#X obj 1230 190 s \$11-color;
#X msg 900 289 list #00ff00;
#X msg 900 337 color \$1;
#X msg 927 313 list #eeeeee;
#X obj 900 265 sel 1;
#X msg 1010 289 list #00ff00;
#X msg 1010 337 color \$1;
#X msg 1037 313 list #eeeeee;
#X obj 1010 265 sel 1;
#X msg 1120 289 list #00ff00;
#X msg 1120 337 color \$1;
#X msg 1147 313 list #eeeeee;
#X obj 1120 265 sel 1;
#X msg 1230 289 list #00ff00;
#X msg 1230 337 color \$1;
#X msg 1257 313 list #eeeeee;
#X obj 1230 265 sel 1;
#X obj 900 360 s \$12-color;
#X obj 1010 360 s \$13-color;
#X obj 1120 360 s \$14-color;
#X obj 1230 360 s \$15-color;
#X obj 39 292 clip 0 3;
#X obj 39 315 t f f, f 8;
#X obj 84 338 + 0;
#X floatatom 84 361 5 0 0 0 - - -;
#X obj 39 338 + 0;
#X obj 129 292 clip 0 3;
#X obj 129 315 t f f, f 8;
#X floatatom 174 361 5 0 0 0 - - -;
#X obj 174 338 + 5;
#X obj 450 219 r n1;
#X obj 129 361 s n1;
#X obj 560 219 r n1;
#X obj 670 219 r n1;
#X obj 780 219 r n1;
#X obj 129 338 + 4;
#X obj 900 49 r n2;
#X obj 1010 49 r n2;
#X obj 1120 49 r n2;
#X obj 1230 49 r n2;
#X obj 900 219 r n3;
#X obj 1010 219 r n3;
#X obj 1120 219 r n3;
#X obj 1230 219 r n3;
#X obj 450 72 == 3;
#X obj 560 72 == 2;
#X obj 670 72 == 1;
#X obj 780 72 == 0;
#X obj 450 242 == 7;
#X obj 560 242 == 6;
#X obj 670 242 == 5;
#X obj 780 242 == 4;
#X obj 900 72 == 11;
#X obj 1010 72 == 10;
#X obj 1120 72 == 9;
#X obj 1230 72 == 8;
#X obj 900 242 == 15;
#X obj 1010 242 == 14;
#X obj 1120 242 == 13;
#X obj 1230 242 == 12;
#X obj 219 292 clip 0 3;
#X obj 219 315 t f f, f 8;
#X floatatom 264 361 5 0 0 0 - - -;
#X obj 309 292 clip 0 3;
#X obj 309 315 t f f, f 8;
#X floatatom 354 361 5 0 0 0 - - -;
#X obj 219 338 + 8;
#X obj 264 338 + 10;
#X obj 219 361 s n2;
#X obj 309 361 s n3;
#X obj 309 338 + 12;
#X obj 354 338 + 15;
#X obj 39 207 inlet;
#X obj 129 207 inlet;
#X obj 219 207 inlet;
#X obj 309 207 inlet;
#X obj 84 580 outlet;
#X obj 174 580 outlet;
#X obj 264 580 outlet;
#X obj 354 580 outlet;
#X obj 450 455 clip 0 4;
#X obj 450 478 t f f f f, f 76;
#X obj 450 501 == 0;
#X obj 450 524 sel 1;
#X msg 450 559 0;
#X msg 480 559 5;
#X msg 513 559 10;
#X msg 546 559 15;
#X obj 96 316 r v0;
#X obj 186 315 r v1;
#X obj 276 315 r v2;
#X obj 367 315 r v3;
#X obj 450 582 s v0;
#X obj 482 582 s v1;
#X obj 513 582 s v2;
#X obj 546 582 s v3;
#X obj 601 524 sel 1;
#X obj 601 582 s v0;
#X obj 633 582 s v1;
#X obj 664 582 s v2;
#X obj 697 582 s v3;
#X obj 601 501 == 1;
#X msg 601 559 -7;
#X msg 631 559 0;
#X msg 664 559 5;
#X msg 697 559 10;
#X obj 752 524 sel 1;
#X obj 752 582 s v0;
#X obj 784 582 s v1;
#X obj 815 582 s v2;
#X obj 848 582 s v3;
#X obj 752 501 == 2;
#X msg 752 559 -14;
#X msg 782 559 -7;
#X msg 815 559 0;
#X msg 848 559 5;
#X obj 903 524 sel 1;
#X obj 903 582 s v0;
#X obj 935 582 s v1;
#X obj 966 582 s v2;
#X obj 999 582 s v3;
#X obj 903 501 == 3;
#X msg 903 559 -21;
#X msg 933 559 -14;
#X msg 966 559 -7;
#X msg 999 559 0;
#X obj 84 525 + 0;
#X obj 99 500 r off;
#X obj 174 525 + 0;
#X obj 189 500 r off;
#X obj 264 525 + 0;
#X obj 279 500 r off;
#X obj 354 525 + 0;
#X obj 369 500 r off;
#X obj 450 408 loadbang;
#X obj 450 431 f \$1;
#X obj 530 424 f \$2;
#X obj 530 447 s off;
#X obj 388 438 inlet;
#X obj 639 431 inlet;
#X connect 1 0 3 0;
#X connect 3 0 2 0;
#X connect 4 0 3 0;
#X connect 5 0 1 0;
#X connect 5 1 4 0;
#X connect 6 0 124 0;
#X connect 23 0 24 0;
#X connect 24 0 28 0;
#X connect 25 0 24 0;
#X connect 26 0 23 0;
#X connect 26 1 25 0;
#X connect 27 0 125 0;
#X connect 29 0 30 0;
#X connect 30 0 34 0;
#X connect 31 0 30 0;
#X connect 32 0 29 0;
#X connect 32 1 31 0;
#X connect 33 0 126 0;
#X connect 35 0 36 0;
#X connect 36 0 40 0;
#X connect 37 0 36 0;
#X connect 38 0 35 0;
#X connect 38 1 37 0;
#X connect 39 0 127 0;
#X connect 41 0 42 0;
#X connect 42 0 57 0;
#X connect 43 0 42 0;
#X connect 44 0 41 0;
#X connect 44 1 43 0;
#X connect 45 0 46 0;
#X connect 46 0 58 0;
#X connect 47 0 46 0;
#X connect 48 0 45 0;
#X connect 48 1 47 0;
#X connect 49 0 50 0;
#X connect 50 0 59 0;
#X connect 51 0 50 0;
#X connect 52 0 49 0;
#X connect 52 1 51 0;
#X connect 53 0 54 0;
#X connect 54 0 60 0;
#X connect 55 0 54 0;
#X connect 56 0 53 0;
#X connect 56 1 55 0;
#X connect 61 0 62 0;
#X connect 62 0 77 0;
#X connect 63 0 62 0;
#X connect 64 0 61 0;
#X connect 64 1 63 0;
#X connect 65 0 66 0;
#X connect 66 0 78 0;
#X connect 67 0 66 0;
#X connect 68 0 65 0;
#X connect 68 1 67 0;
#X connect 69 0 70 0;
#X connect 70 0 79 0;
#X connect 71 0 70 0;
#X connect 72 0 69 0;
#X connect 72 1 71 0;
#X connect 73 0 74 0;
#X connect 74 0 80 0;
#X connect 75 0 74 0;
#X connect 76 0 73 0;
#X connect 76 1 75 0;
#X connect 81 0 82 0;
#X connect 82 0 97 0;
#X connect 83 0 82 0;
#X connect 84 0 81 0;
#X connect 84 1 83 0;
#X connect 85 0 86 0;
#X connect 86 0 98 0;
#X connect 87 0 86 0;
#X connect 88 0 85 0;
#X connect 88 1 87 0;
#X connect 89 0 90 0;
#X connect 90 0 99 0;
#X connect 91 0 90 0;
#X connect 92 0 89 0;
#X connect 92 1 91 0;
#X connect 93 0 94 0;
#X connect 94 0 100 0;
#X connect 95 0 94 0;
#X connect 96 0 93 0;
#X connect 96 1 95 0;
#X connect 101 0 102 0;
#X connect 102 0 105 0;
#X connect 102 1 103 0;
#X connect 103 0 104 0;
#X connect 104 0 206 0;
#X connect 105 0 7 0;
#X connect 106 0 107 0;
#X connect 107 0 115 0;
#X connect 107 1 109 0;
#X connect 108 0 208 0;
#X connect 109 0 108 0;
#X connect 110 0 128 0;
#X connect 112 0 129 0;
#X connect 113 0 130 0;
#X connect 114 0 131 0;
#X connect 115 0 111 0;
#X connect 116 0 132 0;
#X connect 117 0 133 0;
#X connect 118 0 134 0;
#X connect 119 0 135 0;
#X connect 120 0 136 0;
#X connect 121 0 137 0;
#X connect 122 0 138 0;
#X connect 123 0 139 0;
#X connect 124 0 5 0;
#X connect 125 0 26 0;
#X connect 126 0 32 0;
#X connect 127 0 38 0;
#X connect 128 0 44 0;
#X connect 129 0 48 0;
#X connect 130 0 52 0;
#X connect 131 0 56 0;
#X connect 132 0 64 0;
#X connect 133 0 68 0;
#X connect 134 0 72 0;
#X connect 135 0 76 0;
#X connect 136 0 84 0;
#X connect 137 0 88 0;
#X connect 138 0 92 0;
#X connect 139 0 96 0;
#X connect 140 0 141 0;
#X connect 141 0 146 0;
#X connect 141 1 147 0;
#X connect 142 0 210 0;
#X connect 143 0 144 0;
#X connect 144 0 150 0;
#X connect 144 1 151 0;
#X connect 145 0 212 0;
#X connect 146 0 148 0;
#X connect 147 0 142 0;
#X connect 150 0 149 0;
#X connect 151 0 145 0;
#X connect 152 0 101 0;
#X connect 153 0 106 0;
#X connect 154 0 140 0;
#X connect 155 0 143 0;
#X connect 160 0 161 0;
#X connect 161 0 162 0;
#X connect 161 1 181 0;
#X connect 161 2 191 0;
#X connect 161 3 201 0;
#X connect 162 0 163 0;
#X connect 163 0 164 0;
#X connect 163 0 167 0;
#X connect 163 0 166 0;
#X connect 163 0 165 0;
#X connect 164 0 172 0;
#X connect 165 0 173 0;
#X connect 166 0 174 0;
#X connect 167 0 175 0;
#X connect 168 0 103 1;
#X connect 169 0 109 1;
#X connect 170 0 147 1;
#X connect 171 0 151 1;
#X connect 176 0 182 0;
#X connect 176 0 185 0;
#X connect 176 0 184 0;
#X connect 176 0 183 0;
#X connect 181 0 176 0;
#X connect 182 0 177 0;
#X connect 183 0 178 0;
#X connect 184 0 179 0;
#X connect 185 0 180 0;
#X connect 186 0 192 0;
#X connect 186 0 195 0;
#X connect 186 0 194 0;
#X connect 186 0 193 0;
#X connect 191 0 186 0;
#X connect 192 0 187 0;
#X connect 193 0 188 0;
#X connect 194 0 189 0;
#X connect 195 0 190 0;
#X connect 196 0 202 0;
#X connect 196 0 205 0;
#X connect 196 0 204 0;
#X connect 196 0 203 0;
#X connect 201 0 196 0;
#X connect 202 0 197 0;
#X connect 203 0 198 0;
#X connect 204 0 199 0;
#X connect 205 0 200 0;
#X connect 206 0 156 0;
#X connect 207 0 206 1;
#X connect 208 0 157 0;
#X connect 209 0 208 1;
#X connect 210 0 158 0;
#X connect 211 0 210 1;
#X connect 212 0 159 0;
#X connect 213 0 212 1;
#X connect 214 0 215 0;
#X connect 214 0 216 0;
#X connect 215 0 160 0;
#X connect 216 0 217 0;
#X connect 218 0 160 0;
#X connect 219 0 217 0;
#X coords 0 -1 1 1 86 85 2 42 45;
