#N canvas 557 252 580 477 10;
#X obj 131 209 list prepend;
#X obj 131 232 t b a;
#X obj 131 269 list store, f 23;
#X obj 131 65 bng 15 250 50 0 empty empty gen 0 22 0 10 -1 -262144
-1;
#X obj 131 161 until;
#X obj 131 184 f 0;
#X obj 162 184 + 1;
#X obj 151 65 nbx 2 16 1 12 0 0 empty empty int 0 22 0 10 -1 -262144
-1 3 256;
#X obj 76 65 bng 15 250 50 0 empty empty trg 0 22 0 10 -262144 -1 -1
;
#X obj 96 65 nbx 2 16 1 4 0 0 empty empty out 0 22 0 10 -262144 -1
-1 1 256;
#X obj 76 7 inlet;
#X msg 42 233 get \$1 \$2;
#X obj 42 143 f 0;
#X obj 42 165 + 1;
#X obj 42 188 % 12;
#X obj 42 211 pack 1 1;
#X obj 131 292 unpack 0 0 0 0, f 23;
#X obj 190 184 % 12;
#X obj 131 138 i 12;
#X obj 131 115 t b b b b, f 23;
#X msg 176 138 0;
#X obj 85 118 t f f;
#X obj 85 141 - 1;
#X msg 85 164 12 \$1;
#X obj 85 187 -;
#X obj 131 373 outlet;
#X obj 131 315 + 0;
#X obj 176 373 outlet;
#X obj 176 315 + 0;
#X obj 221 373 outlet;
#X obj 221 315 + 0;
#X obj 266 373 outlet;
#X obj 266 315 + 0;
#X obj 187 65 nbx 2 16 30 88 0 0 empty empty off 0 22 0 10 -228856
-1 -1 50 256;
#X obj 187 7 inlet;
#X obj 354 204 sel 0;
#X obj 354 373 outlet;
#X connect 0 0 1 0;
#X connect 1 0 2 0;
#X connect 1 1 2 1;
#X connect 2 0 0 1;
#X connect 2 0 16 0;
#X connect 3 0 19 0;
#X connect 4 0 5 0;
#X connect 5 0 6 0;
#X connect 5 0 0 0;
#X connect 6 0 17 0;
#X connect 7 0 6 1;
#X connect 8 0 12 0;
#X connect 9 0 21 0;
#X connect 10 0 8 0;
#X connect 11 0 2 0;
#X connect 12 0 13 0;
#X connect 13 0 14 0;
#X connect 14 0 12 1;
#X connect 14 0 15 0;
#X connect 14 0 35 0;
#X connect 15 0 11 0;
#X connect 16 0 26 0;
#X connect 16 1 28 0;
#X connect 16 2 30 0;
#X connect 16 3 32 0;
#X connect 17 0 5 1;
#X connect 18 0 4 0;
#X connect 19 0 18 0;
#X connect 19 1 20 0;
#X connect 19 2 2 0;
#X connect 19 3 2 1;
#X connect 20 0 5 1;
#X connect 21 0 22 0;
#X connect 21 1 15 1;
#X connect 22 0 23 0;
#X connect 23 0 24 0;
#X connect 24 0 14 1;
#X connect 26 0 25 0;
#X connect 28 0 27 0;
#X connect 30 0 29 0;
#X connect 32 0 31 0;
#X connect 33 0 32 1;
#X connect 33 0 30 1;
#X connect 33 0 28 1;
#X connect 33 0 26 1;
#X connect 34 0 33 0;
#X connect 35 0 36 0;
#X coords 0 -1 1 1 160 65 1 65 35;
