#N canvas 544 127 767 594 10;
#X obj 82 46 bng 15 250 50 0 empty empty empty 17 7 0 10 -262144 -1
-1;
#X obj 82 316 mtof;
#X obj 82 385 *~;
#X obj 82 431 *~;
#X obj 82 408 bp~ 100 10;
#X floatatom 157 251 5 0 0 0 - - -;
#X obj 157 186 / 100;
#X obj 157 163 random 80;
#X obj 157 209 + 0.1;
#X obj 234 370 vline~;
#X obj 309 185 * 1000;
#X obj 309 207 * 1;
#X floatatom 309 229 5 0 0 0 - - -;
#X obj 385 162 random 180;
#X floatatom 385 250 5 0 0 0 - - -;
#X obj 309 265 /;
#X floatatom 309 286 5 0 0 0 - - -;
#X obj 249 301 - 50;
#X obj 82 163 tgl 15 0 empty empty empty 17 7 0 10 -262144 -1 -1 1
1;
#X obj 82 183 metro 1000;
#X obj 124 206 + 1;
#X floatatom 82 228 5 0 0 0 - - -;
#X obj 31 124 sel 0;
#X msg 31 147 0;
#X msg 388 391 1 \$1 \, 0 \$1 \$1;
#X obj 388 414 vline~;
#X msg 388 370 \$1;
#X obj 233 186 * 100;
#X obj 82 21 inlet;
#X obj 21 518 outlet~;
#X obj 142 515 outlet~;
#X obj 22 492 *~;
#X obj 157 441 f;
#X obj 157 464 expr 1-$f1;
#X obj 142 489 *~;
#X obj 234 393 pow~ 2;
#X obj 463 185 + 1;
#X obj 82 206 f 0;
#X obj 536 242 f 0;
#X obj 536 264 expr $f1*$f1+$f1*$f2-$f3+$f1;
#X floatatom 536 287 5 0 0 0 - - -;
#X obj 536 308 cos;
#X floatatom 536 330 5 0 0 0 - - -;
#X obj 536 375 * 0.5;
#X floatatom 536 398 5 0 0 0 - - -;
#X obj 536 420 * 128;
#X floatatom 536 489 5 0 0 0 - - -;
#X floatatom 618 243 5 0 0 0 - - -;
#X floatatom 701 244 5 0 0 0 - - -;
#X obj 82 139 t b b b b b b b b, f 89;
#X obj 537 161 random 100;
#X obj 537 184 / 10;
#X obj 613 161 random 100;
#X floatatom 233 251 5 0 0 0 - - -;
#X floatatom 463 250 5 0 0 0 - - -;
#X floatatom 251 462 5 0 0 0 - - -;
#X obj 463 162 random 4;
#X obj 233 209 + 100;
#X obj 385 272 / 2;
#X obj 536 443 mod 64;
#X obj 82 339 osc~;
#X obj 388 310 / 1.02;
#X obj 613 184 / 5;
#X obj 82 454 clip~ -1 1;
#X obj 251 440 * 4;
#X obj 82 362 expr~ $v1>$f2;
#X obj 309 163 random 90;
#X obj 233 163 random 30;
#X obj 537 207 + 1;
#X obj 536 352 + 3;
#X msg 234 347 1 10 \, 0 \$1 \$2;
#X obj 82 267 t f b;
#X obj 234 325 pack f f;
#X obj 309 309 / 3;
#X obj 536 466 clip 36 100;
#X connect 0 0 49 0;
#X connect 1 0 60 0;
#X connect 2 0 4 0;
#X connect 3 0 63 0;
#X connect 4 0 3 0;
#X connect 5 0 32 0;
#X connect 5 0 65 1;
#X connect 6 0 8 0;
#X connect 7 0 6 0;
#X connect 8 0 5 0;
#X connect 9 0 35 0;
#X connect 10 0 11 0;
#X connect 11 0 12 0;
#X connect 12 0 15 0;
#X connect 12 0 61 0;
#X connect 13 0 14 0;
#X connect 14 0 22 1;
#X connect 14 0 58 0;
#X connect 15 0 16 0;
#X connect 16 0 17 0;
#X connect 16 0 19 1;
#X connect 16 0 73 0;
#X connect 17 0 72 0;
#X connect 18 0 19 0;
#X connect 19 0 37 0;
#X connect 20 0 37 1;
#X connect 21 0 22 0;
#X connect 21 0 38 0;
#X connect 22 0 23 0;
#X connect 23 0 18 0;
#X connect 23 0 37 0;
#X connect 23 0 38 1;
#X connect 24 0 25 0;
#X connect 25 0 3 1;
#X connect 26 0 24 0;
#X connect 27 0 57 0;
#X connect 28 0 0 0;
#X connect 31 0 29 0;
#X connect 32 0 31 1;
#X connect 32 0 33 0;
#X connect 33 0 34 1;
#X connect 34 0 30 0;
#X connect 35 0 2 1;
#X connect 36 0 54 0;
#X connect 37 0 20 0;
#X connect 37 0 21 0;
#X connect 38 0 39 0;
#X connect 39 0 40 0;
#X connect 40 0 41 0;
#X connect 41 0 42 0;
#X connect 42 0 38 1;
#X connect 42 0 69 0;
#X connect 43 0 44 0;
#X connect 44 0 45 0;
#X connect 45 0 59 0;
#X connect 46 0 71 0;
#X connect 47 0 39 1;
#X connect 48 0 39 2;
#X connect 49 0 18 0;
#X connect 49 1 7 0;
#X connect 49 2 67 0;
#X connect 49 3 66 0;
#X connect 49 4 13 0;
#X connect 49 5 56 0;
#X connect 49 6 50 0;
#X connect 49 7 52 0;
#X connect 50 0 51 0;
#X connect 51 0 68 0;
#X connect 52 0 62 0;
#X connect 53 0 4 1;
#X connect 54 0 35 1;
#X connect 55 0 4 2;
#X connect 56 0 36 0;
#X connect 57 0 53 0;
#X connect 58 0 15 1;
#X connect 59 0 74 0;
#X connect 60 0 65 0;
#X connect 61 0 26 0;
#X connect 62 0 48 0;
#X connect 63 0 31 0;
#X connect 63 0 34 0;
#X connect 64 0 55 0;
#X connect 65 0 2 0;
#X connect 66 0 10 0;
#X connect 67 0 27 0;
#X connect 68 0 47 0;
#X connect 68 0 64 0;
#X connect 69 0 43 0;
#X connect 70 0 9 0;
#X connect 71 0 1 0;
#X connect 71 1 72 0;
#X connect 72 0 70 0;
#X connect 73 0 72 1;
#X connect 74 0 46 0;
