#N canvas 441 177 850 565 10;
#X obj 345 179 t b l;
#N canvas 0 50 450 250 (subpatch) 0;
#X array \$0-lista 5 float 3;
#A 0 1 3 5 7 9;
#X coords 0 -1 5 1 50 35 1 0 0;
#X restore 757 21 graph;
#X obj 395 195 array set \$0-lista;
#X obj 372 222 list length \$0-lista;
#X floatatom 372 246 5 0 0 0 - - -;
#X obj 372 268 array size \$0-lista;
#X obj 70 86 bng 15 250 50 0 empty empty trg 17 7 0 10 -262144 -1 -1
;
#X obj 211 238 i 0;
#X obj 239 238 + 1;
#X obj 211 261 % 1;
#X floatatom 211 285 5 0 0 0 - - -;
#X obj 211 307 array get \$0-lista;
#X floatatom 46 337 5 0 0 0 - - -;
#X obj 196 352 ==;
#X obj 74 192 + 1;
#X msg 226 214 0;
#X obj 211 190 spigot;
#X obj 46 164 t b b, f 28;
#X obj 260 191 tgl 15 0 empty empty empty 17 7 0 10 -262144 -1 -1 0
1;
#X obj 223 86 bng 15 250 50 0 empty empty reset -32 7 0 10 -262144
-1 -1;
#X obj 75 137 sel 1 2 3 4 5 6 7 8 9 10;
#X obj 70 106 bng 15 250 50 0 empty empty empty 17 7 0 10 -1 -262144
-1;
#X obj 87 106 bng 15 250 50 0 empty empty empty 17 7 0 10 -1 -262144
-1;
#X obj 104 106 bng 15 250 50 0 empty empty empty 17 7 0 10 -1 -262144
-1;
#X obj 121 106 bng 15 250 50 0 empty empty empty 17 7 0 10 -1 -262144
-1;
#X obj 138 106 bng 15 250 50 0 empty empty empty 17 7 0 10 -1 -262144
-1;
#X obj 155 106 bng 15 250 50 0 empty empty empty 17 7 0 10 -1 -262144
-1;
#X obj 172 106 bng 15 250 50 0 empty empty empty 17 7 0 10 -1 -262144
-1;
#X obj 189 106 bng 15 250 50 0 empty empty empty 17 7 0 10 -1 -262144
-1;
#X obj 206 106 bng 15 250 50 0 empty empty empty 17 7 0 10 -1 -262144
-1;
#X obj 223 106 bng 15 250 50 0 empty empty empty 17 7 0 10 -1 -262144
-1;
#X floatatom 196 375 5 0 0 0 - - -;
#X msg 192 461 0;
#X msg 241 460 1;
#X obj 46 500 outlet;
#X obj 196 421 bng 15 250 50 0 empty empty empty 17 7 0 10 -262144
-1 -1;
#X obj 223 420 bng 15 250 50 0 empty empty empty 17 7 0 10 -262144
-1 -1;
#X obj 196 397 sel 0;
#X obj 70 9 inlet;
#X obj 345 9 inlet;
#X floatatom 211 329 5 0 0 0 - - -;
#X obj 46 192 i 1;
#X msg 223 484 1;
#X connect 0 0 19 0;
#X connect 0 1 2 0;
#X connect 0 1 3 0;
#X connect 3 0 4 0;
#X connect 4 0 5 0;
#X connect 4 0 9 1;
#X connect 6 0 17 0;
#X connect 7 0 8 0;
#X connect 7 0 9 0;
#X connect 8 0 7 1;
#X connect 9 0 10 0;
#X connect 10 0 11 0;
#X connect 11 0 40 0;
#X connect 12 0 13 0;
#X connect 12 0 20 0;
#X connect 12 0 34 0;
#X connect 13 0 31 0;
#X connect 14 0 41 1;
#X connect 15 0 7 1;
#X connect 16 0 7 0;
#X connect 17 0 41 0;
#X connect 17 1 16 0;
#X connect 18 0 16 1;
#X connect 19 0 15 0;
#X connect 19 0 36 0;
#X connect 20 0 21 0;
#X connect 20 1 22 0;
#X connect 20 2 23 0;
#X connect 20 3 24 0;
#X connect 20 4 25 0;
#X connect 20 5 26 0;
#X connect 20 6 27 0;
#X connect 20 7 28 0;
#X connect 20 8 29 0;
#X connect 20 9 30 0;
#X connect 31 0 37 0;
#X connect 32 0 18 0;
#X connect 33 0 18 0;
#X connect 35 0 32 0;
#X connect 36 0 33 0;
#X connect 36 0 42 0;
#X connect 37 0 35 0;
#X connect 37 1 36 0;
#X connect 38 0 6 0;
#X connect 39 0 0 0;
#X connect 40 0 13 1;
#X connect 41 0 14 0;
#X connect 41 0 12 0;
#X connect 42 0 41 1;
#X coords 0 -1 1 1 185 70 1 62 60;
