#N canvas 0 116 1366 652 10;
#X obj 57 24 random 16;
#X obj 57 151 vradio 12 1 0 16 empty empty empty 0 -8 0 10 -1 -262144
-1 7;
#X obj 42 382 i;
#X obj 118 24 random 16;
#X obj 70 151 vradio 12 1 0 16 empty empty empty 0 -8 0 10 -1 -262144
-1 5;
#X obj 92 382 i;
#X obj 179 24 random 16;
#X obj 83 151 vradio 12 1 0 16 empty empty empty 0 -8 0 10 -1 -1 -1
0;
#X obj 212 382 i;
#X obj 240 24 random 16;
#X obj 96 151 vradio 12 1 0 16 empty empty empty 0 -8 0 10 -1 -262144
-1 0;
#X obj 262 382 i;
#X obj 301 24 random 16;
#X obj 109 151 vradio 12 1 0 16 empty empty empty 0 -8 0 10 -1 -262144
-1 6;
#X obj 382 382 i;
#X obj 363 24 random 16;
#X obj 122 151 vradio 12 1 0 16 empty empty empty 0 -8 0 10 -1 -262144
-1 3;
#X obj 432 382 i;
#X obj 424 24 random 16;
#X obj 135 151 vradio 12 1 0 16 empty empty empty 0 -8 0 10 -1 -262144
-1 8;
#X obj 552 382 i;
#X obj 485 24 random 16;
#X obj 148 151 vradio 12 1 0 16 empty empty empty 0 -8 0 10 -1 -262144
-1 15;
#X obj 601 382 i;
#X obj 546 24 random 16;
#X obj 161 151 vradio 12 1 0 16 empty empty empty 0 -8 0 10 -1 -262144
-1 7;
#X obj 722 382 i;
#X obj 607 24 random 16;
#X obj 174 151 vradio 12 1 0 16 empty empty empty 0 -8 0 10 -1 -262144
-1 0;
#X obj 771 382 i;
#X obj 668 24 random 16;
#X obj 187 151 vradio 12 1 0 16 empty empty empty 0 -8 0 10 -1 -262144
-1 4;
#X obj 892 382 i;
#X obj 729 24 random 16;
#X obj 200 151 vradio 12 1 0 16 empty empty empty 0 -8 0 10 -1 -262144
-1 5;
#X obj 941 382 i;
#X obj 790 24 random 16;
#X obj 213 151 vradio 12 1 0 16 empty empty empty 0 -8 0 10 -1 -262144
-1 14;
#X obj 1062 382 i;
#X obj 851 24 random 16;
#X obj 226 151 vradio 12 1 0 16 empty empty empty 0 -8 0 10 -1 -262144
-1 9;
#X obj 1111 382 i;
#X obj 912 24 random 16;
#X obj 239 151 vradio 12 1 0 16 empty empty empty 0 -8 0 10 -1 -262144
-1 3;
#X obj 1232 382 i;
#X obj 973 24 random 16;
#X obj 252 151 vradio 12 1 0 16 empty empty empty 0 -8 0 10 -1 -262144
-1 7;
#X obj 1281 382 i;
#X obj 535 136 bng 15 250 50 0 empty empty empty 17 7 0 10 -262144
-1 -1;
#X obj 58 108 tgl 15 0 empty empty run 17 7 0 10 -262144 -1 -1 1 1
;
#X obj 400 162 metro 1000;
#X obj 400 208 f;
#X obj 442 208 + 1;
#X floatatom 457 142 5 0 0 0 - - -;
#X obj 400 231 % 16;
#X obj 56 344 hradio 13 1 0 16 empty empty empty 0 -8 0 10 -262144
-1 -1 7;
#X obj 400 253 sel 0 1 2 3 4 5 6 7 8 9 10 11 12 13 14 15;
#X obj 535 211 sel 15;
#X floatatom 148 128 5 0 0 1 att - -;
#X floatatom 208 128 5 0 0 1 dec - -;
#X floatatom 208 108 5 0 1 1 t - -;
#X obj 400 185 t b b;
#X obj 443 185 random 1000;
#X obj 472 163 + 1000;
#X obj 602 595 /~ 4;
#X floatatom 58 128 5 0 0 1 D_time - -;
#X obj 602 621 outlet~;
#X floatatom 963 190 5 25 75 1 - - -;
#X floatatom 149 88 3 25 75 1 tone - -;
#X obj 748 190 s \$0-a;
#X obj 824 188 s \$0-d;
#X obj 900 189 s \$0-t;
#X obj 42 405 * 1;
#X obj 92 405 * 1;
#X obj 212 405 * 1;
#X obj 262 405 * 1;
#X obj 382 405 * 1;
#X obj 432 405 * 1;
#X obj 552 405 * 1;
#X obj 601 405 * 1;
#X obj 722 405 * 1;
#X obj 771 405 * 1;
#X obj 892 405 * 1;
#X obj 941 405 * 1;
#X obj 1062 405 * 1;
#X obj 1111 405 * 1;
#X obj 1232 405 * 1;
#X obj 1281 405 * 1;
#X floatatom 1296 191 5 0 0 0 - - -;
#X floatatom 208 88 3 0.1 3 1 exp - -;
#N canvas 6 116 537 416 osci 0;
#X obj 36 37 inlet;
#X floatatom 36 133 5 0 0 0 - - -;
#X obj 36 178 mtof;
#X obj 36 155 + 56;
#X obj 36 201 osc~;
#X obj 36 273 *~;
#X obj 70 202 vline~;
#X msg 70 179 1 \$1 \, 0 \$2 \$1;
#X obj 70 156 pack f f;
#X obj 37 250 expr~ $v1<$f2;
#X obj 100 133 f;
#X obj 72 133 f;
#X obj 36 84 t f b b b, f 17;
#X obj 135 208 f;
#X obj 35 296 outlet~;
#X obj 70 225 pow~ 2;
#X obj 74 37 inlet;
#X obj 111 37 inlet;
#X obj 149 37 inlet;
#X obj 187 37 inlet;
#X obj 225 37 inlet;
#X connect 0 0 12 0;
#X connect 1 0 3 0;
#X connect 2 0 4 0;
#X connect 3 0 2 0;
#X connect 4 0 9 0;
#X connect 5 0 14 0;
#X connect 6 0 15 0;
#X connect 7 0 6 0;
#X connect 8 0 7 0;
#X connect 9 0 5 0;
#X connect 10 0 8 1;
#X connect 11 0 8 0;
#X connect 12 0 1 0;
#X connect 12 1 11 0;
#X connect 12 2 10 0;
#X connect 12 3 13 0;
#X connect 13 0 9 1;
#X connect 15 0 5 1;
#X connect 16 0 3 1;
#X connect 17 0 11 1;
#X connect 18 0 10 1;
#X connect 19 0 13 1;
#X connect 20 0 15 1;
#X restore 42 484 pd osci;
#X f 18;
#X obj 77 461 r \$0-a;
#X obj 100 440 r \$0-d;
#X obj 121 461 r \$0-t;
#X obj 144 439 r \$0-p;
#X obj 56 440 r \$0-n;
#N canvas 6 116 537 416 osci 0;
#X obj 36 37 inlet;
#X floatatom 36 133 5 0 0 0 - - -;
#X obj 36 178 mtof;
#X obj 36 155 + 56;
#X obj 36 201 osc~;
#X obj 36 273 *~;
#X obj 70 202 vline~;
#X msg 70 179 1 \$1 \, 0 \$2 \$1;
#X obj 70 156 pack f f;
#X obj 37 250 expr~ $v1<$f2;
#X obj 100 133 f;
#X obj 72 133 f;
#X obj 36 84 t f b b b, f 17;
#X obj 135 208 f;
#X obj 35 296 outlet~;
#X obj 70 225 pow~ 2;
#X obj 74 37 inlet;
#X obj 111 37 inlet;
#X obj 149 37 inlet;
#X obj 187 37 inlet;
#X obj 225 37 inlet;
#X connect 0 0 12 0;
#X connect 1 0 3 0;
#X connect 2 0 4 0;
#X connect 3 0 2 0;
#X connect 4 0 9 0;
#X connect 5 0 14 0;
#X connect 6 0 15 0;
#X connect 7 0 6 0;
#X connect 8 0 7 0;
#X connect 9 0 5 0;
#X connect 10 0 8 1;
#X connect 11 0 8 0;
#X connect 12 0 1 0;
#X connect 12 1 11 0;
#X connect 12 2 10 0;
#X connect 12 3 13 0;
#X connect 13 0 9 1;
#X connect 15 0 5 1;
#X connect 16 0 3 1;
#X connect 17 0 11 1;
#X connect 18 0 10 1;
#X connect 19 0 13 1;
#X connect 20 0 15 1;
#X restore 212 485 pd osci;
#X f 18;
#X obj 247 462 r \$0-a;
#X obj 270 441 r \$0-d;
#X obj 291 462 r \$0-t;
#X obj 314 440 r \$0-p;
#X obj 226 441 r \$0-n;
#N canvas 6 116 537 416 osci 0;
#X obj 36 37 inlet;
#X floatatom 36 133 5 0 0 0 - - -;
#X obj 36 178 mtof;
#X obj 36 155 + 56;
#X obj 36 201 osc~;
#X obj 36 273 *~;
#X obj 70 202 vline~;
#X msg 70 179 1 \$1 \, 0 \$2 \$1;
#X obj 70 156 pack f f;
#X obj 37 250 expr~ $v1<$f2;
#X obj 100 133 f;
#X obj 72 133 f;
#X obj 36 84 t f b b b, f 17;
#X obj 135 208 f;
#X obj 35 296 outlet~;
#X obj 70 225 pow~ 2;
#X obj 74 37 inlet;
#X obj 111 37 inlet;
#X obj 149 37 inlet;
#X obj 187 37 inlet;
#X obj 225 37 inlet;
#X connect 0 0 12 0;
#X connect 1 0 3 0;
#X connect 2 0 4 0;
#X connect 3 0 2 0;
#X connect 4 0 9 0;
#X connect 5 0 14 0;
#X connect 6 0 15 0;
#X connect 7 0 6 0;
#X connect 8 0 7 0;
#X connect 9 0 5 0;
#X connect 10 0 8 1;
#X connect 11 0 8 0;
#X connect 12 0 1 0;
#X connect 12 1 11 0;
#X connect 12 2 10 0;
#X connect 12 3 13 0;
#X connect 13 0 9 1;
#X connect 15 0 5 1;
#X connect 16 0 3 1;
#X connect 17 0 11 1;
#X connect 18 0 10 1;
#X connect 19 0 13 1;
#X connect 20 0 15 1;
#X restore 382 484 pd osci;
#X f 18;
#X obj 417 461 r \$0-a;
#X obj 440 440 r \$0-d;
#X obj 461 461 r \$0-t;
#X obj 484 439 r \$0-p;
#X obj 396 440 r \$0-n;
#N canvas 6 116 537 416 osci 0;
#X obj 36 37 inlet;
#X floatatom 36 133 5 0 0 0 - - -;
#X obj 36 178 mtof;
#X obj 36 155 + 56;
#X obj 36 201 osc~;
#X obj 36 273 *~;
#X obj 70 202 vline~;
#X msg 70 179 1 \$1 \, 0 \$2 \$1;
#X obj 70 156 pack f f;
#X obj 37 250 expr~ $v1<$f2;
#X obj 100 133 f;
#X obj 72 133 f;
#X obj 36 84 t f b b b, f 17;
#X obj 135 208 f;
#X obj 35 296 outlet~;
#X obj 70 225 pow~ 2;
#X obj 74 37 inlet;
#X obj 111 37 inlet;
#X obj 149 37 inlet;
#X obj 187 37 inlet;
#X obj 225 37 inlet;
#X connect 0 0 12 0;
#X connect 1 0 3 0;
#X connect 2 0 4 0;
#X connect 3 0 2 0;
#X connect 4 0 9 0;
#X connect 5 0 14 0;
#X connect 6 0 15 0;
#X connect 7 0 6 0;
#X connect 8 0 7 0;
#X connect 9 0 5 0;
#X connect 10 0 8 1;
#X connect 11 0 8 0;
#X connect 12 0 1 0;
#X connect 12 1 11 0;
#X connect 12 2 10 0;
#X connect 12 3 13 0;
#X connect 13 0 9 1;
#X connect 15 0 5 1;
#X connect 16 0 3 1;
#X connect 17 0 11 1;
#X connect 18 0 10 1;
#X connect 19 0 13 1;
#X connect 20 0 15 1;
#X restore 552 485 pd osci;
#X f 18;
#X obj 587 462 r \$0-a;
#X obj 610 441 r \$0-d;
#X obj 631 462 r \$0-t;
#X obj 654 440 r \$0-p;
#X obj 566 441 r \$0-n;
#N canvas 6 116 537 416 osci 0;
#X obj 36 37 inlet;
#X floatatom 36 133 5 0 0 0 - - -;
#X obj 36 178 mtof;
#X obj 36 155 + 56;
#X obj 36 201 osc~;
#X obj 36 273 *~;
#X obj 70 202 vline~;
#X msg 70 179 1 \$1 \, 0 \$2 \$1;
#X obj 70 156 pack f f;
#X obj 37 250 expr~ $v1<$f2;
#X obj 100 133 f;
#X obj 72 133 f;
#X obj 36 84 t f b b b, f 17;
#X obj 135 208 f;
#X obj 35 296 outlet~;
#X obj 70 225 pow~ 2;
#X obj 74 37 inlet;
#X obj 111 37 inlet;
#X obj 149 37 inlet;
#X obj 187 37 inlet;
#X obj 225 37 inlet;
#X connect 0 0 12 0;
#X connect 1 0 3 0;
#X connect 2 0 4 0;
#X connect 3 0 2 0;
#X connect 4 0 9 0;
#X connect 5 0 14 0;
#X connect 6 0 15 0;
#X connect 7 0 6 0;
#X connect 8 0 7 0;
#X connect 9 0 5 0;
#X connect 10 0 8 1;
#X connect 11 0 8 0;
#X connect 12 0 1 0;
#X connect 12 1 11 0;
#X connect 12 2 10 0;
#X connect 12 3 13 0;
#X connect 13 0 9 1;
#X connect 15 0 5 1;
#X connect 16 0 3 1;
#X connect 17 0 11 1;
#X connect 18 0 10 1;
#X connect 19 0 13 1;
#X connect 20 0 15 1;
#X restore 722 484 pd osci;
#X f 18;
#X obj 757 461 r \$0-a;
#X obj 780 440 r \$0-d;
#X obj 801 461 r \$0-t;
#X obj 824 439 r \$0-p;
#X obj 736 440 r \$0-n;
#N canvas 6 116 537 416 osci 0;
#X obj 36 37 inlet;
#X floatatom 36 133 5 0 0 0 - - -;
#X obj 36 178 mtof;
#X obj 36 155 + 56;
#X obj 36 201 osc~;
#X obj 36 273 *~;
#X obj 70 202 vline~;
#X msg 70 179 1 \$1 \, 0 \$2 \$1;
#X obj 70 156 pack f f;
#X obj 37 250 expr~ $v1<$f2;
#X obj 100 133 f;
#X obj 72 133 f;
#X obj 36 84 t f b b b, f 17;
#X obj 135 208 f;
#X obj 35 296 outlet~;
#X obj 70 225 pow~ 2;
#X obj 74 37 inlet;
#X obj 111 37 inlet;
#X obj 149 37 inlet;
#X obj 187 37 inlet;
#X obj 225 37 inlet;
#X connect 0 0 12 0;
#X connect 1 0 3 0;
#X connect 2 0 4 0;
#X connect 3 0 2 0;
#X connect 4 0 9 0;
#X connect 5 0 14 0;
#X connect 6 0 15 0;
#X connect 7 0 6 0;
#X connect 8 0 7 0;
#X connect 9 0 5 0;
#X connect 10 0 8 1;
#X connect 11 0 8 0;
#X connect 12 0 1 0;
#X connect 12 1 11 0;
#X connect 12 2 10 0;
#X connect 12 3 13 0;
#X connect 13 0 9 1;
#X connect 15 0 5 1;
#X connect 16 0 3 1;
#X connect 17 0 11 1;
#X connect 18 0 10 1;
#X connect 19 0 13 1;
#X connect 20 0 15 1;
#X restore 892 485 pd osci;
#X f 18;
#X obj 927 462 r \$0-a;
#X obj 950 441 r \$0-d;
#X obj 971 462 r \$0-t;
#X obj 994 440 r \$0-p;
#X obj 906 441 r \$0-n;
#N canvas 6 116 537 416 osci 0;
#X obj 36 37 inlet;
#X floatatom 36 133 5 0 0 0 - - -;
#X obj 36 178 mtof;
#X obj 36 155 + 56;
#X obj 36 201 osc~;
#X obj 36 273 *~;
#X obj 70 202 vline~;
#X msg 70 179 1 \$1 \, 0 \$2 \$1;
#X obj 70 156 pack f f;
#X obj 37 250 expr~ $v1<$f2;
#X obj 100 133 f;
#X obj 72 133 f;
#X obj 36 84 t f b b b, f 17;
#X obj 135 208 f;
#X obj 35 296 outlet~;
#X obj 70 225 pow~ 2;
#X obj 74 37 inlet;
#X obj 111 37 inlet;
#X obj 149 37 inlet;
#X obj 187 37 inlet;
#X obj 225 37 inlet;
#X connect 0 0 12 0;
#X connect 1 0 3 0;
#X connect 2 0 4 0;
#X connect 3 0 2 0;
#X connect 4 0 9 0;
#X connect 5 0 14 0;
#X connect 6 0 15 0;
#X connect 7 0 6 0;
#X connect 8 0 7 0;
#X connect 9 0 5 0;
#X connect 10 0 8 1;
#X connect 11 0 8 0;
#X connect 12 0 1 0;
#X connect 12 1 11 0;
#X connect 12 2 10 0;
#X connect 12 3 13 0;
#X connect 13 0 9 1;
#X connect 15 0 5 1;
#X connect 16 0 3 1;
#X connect 17 0 11 1;
#X connect 18 0 10 1;
#X connect 19 0 13 1;
#X connect 20 0 15 1;
#X restore 1062 484 pd osci;
#X f 18;
#X obj 1097 461 r \$0-a;
#X obj 1120 440 r \$0-d;
#X obj 1141 461 r \$0-t;
#X obj 1164 439 r \$0-p;
#X obj 1076 440 r \$0-n;
#N canvas 6 116 537 416 osci 0;
#X obj 36 37 inlet;
#X floatatom 36 133 5 0 0 0 - - -;
#X obj 36 178 mtof;
#X obj 36 155 + 56;
#X obj 36 201 osc~;
#X obj 36 273 *~;
#X obj 70 202 vline~;
#X msg 70 179 1 \$1 \, 0 \$2 \$1;
#X obj 70 156 pack f f;
#X obj 37 250 expr~ $v1<$f2;
#X obj 100 133 f;
#X obj 72 133 f;
#X obj 36 84 t f b b b, f 17;
#X obj 135 208 f;
#X obj 35 296 outlet~;
#X obj 70 225 pow~ 2;
#X obj 74 37 inlet;
#X obj 111 37 inlet;
#X obj 149 37 inlet;
#X obj 187 37 inlet;
#X obj 225 37 inlet;
#X connect 0 0 12 0;
#X connect 1 0 3 0;
#X connect 2 0 4 0;
#X connect 3 0 2 0;
#X connect 4 0 9 0;
#X connect 5 0 14 0;
#X connect 6 0 15 0;
#X connect 7 0 6 0;
#X connect 8 0 7 0;
#X connect 9 0 5 0;
#X connect 10 0 8 1;
#X connect 11 0 8 0;
#X connect 12 0 1 0;
#X connect 12 1 11 0;
#X connect 12 2 10 0;
#X connect 12 3 13 0;
#X connect 13 0 9 1;
#X connect 15 0 5 1;
#X connect 16 0 3 1;
#X connect 17 0 11 1;
#X connect 18 0 10 1;
#X connect 19 0 13 1;
#X connect 20 0 15 1;
#X restore 1232 485 pd osci;
#X f 18;
#X obj 1267 462 r \$0-a;
#X obj 1290 441 r \$0-d;
#X obj 1311 462 r \$0-t;
#X obj 1334 440 r \$0-p;
#X obj 1246 441 r \$0-n;
#N canvas 6 116 537 416 osci 0;
#X obj 36 37 inlet;
#X floatatom 36 133 5 0 0 0 - - -;
#X obj 36 178 mtof;
#X obj 36 155 + 56;
#X obj 36 201 osc~;
#X obj 36 273 *~;
#X obj 70 202 vline~;
#X msg 70 179 1 \$1 \, 0 \$2 \$1;
#X obj 70 156 pack f f;
#X obj 37 250 expr~ $v1<$f2;
#X obj 100 133 f;
#X obj 72 133 f;
#X obj 36 84 t f b b b, f 17;
#X obj 135 208 f;
#X obj 35 296 outlet~;
#X obj 70 225 pow~ 2;
#X obj 74 37 inlet;
#X obj 111 37 inlet;
#X obj 149 37 inlet;
#X obj 187 37 inlet;
#X obj 225 37 inlet;
#X connect 0 0 12 0;
#X connect 1 0 3 0;
#X connect 2 0 4 0;
#X connect 3 0 2 0;
#X connect 4 0 9 0;
#X connect 5 0 14 0;
#X connect 6 0 15 0;
#X connect 7 0 6 0;
#X connect 8 0 7 0;
#X connect 9 0 5 0;
#X connect 10 0 8 1;
#X connect 11 0 8 0;
#X connect 12 0 1 0;
#X connect 12 1 11 0;
#X connect 12 2 10 0;
#X connect 12 3 13 0;
#X connect 13 0 9 1;
#X connect 15 0 5 1;
#X connect 16 0 3 1;
#X connect 17 0 11 1;
#X connect 18 0 10 1;
#X connect 19 0 13 1;
#X connect 20 0 15 1;
#X restore 92 554 pd osci;
#X f 18;
#X obj 127 531 r \$0-a;
#X obj 150 510 r \$0-d;
#X obj 171 531 r \$0-t;
#X obj 194 509 r \$0-p;
#X obj 106 510 r \$0-n;
#N canvas 6 116 537 416 osci 0;
#X obj 36 37 inlet;
#X floatatom 36 133 5 0 0 0 - - -;
#X obj 36 178 mtof;
#X obj 36 155 + 56;
#X obj 36 201 osc~;
#X obj 36 273 *~;
#X obj 70 202 vline~;
#X msg 70 179 1 \$1 \, 0 \$2 \$1;
#X obj 70 156 pack f f;
#X obj 37 250 expr~ $v1<$f2;
#X obj 100 133 f;
#X obj 72 133 f;
#X obj 36 84 t f b b b, f 17;
#X obj 135 208 f;
#X obj 35 296 outlet~;
#X obj 70 225 pow~ 2;
#X obj 74 37 inlet;
#X obj 111 37 inlet;
#X obj 149 37 inlet;
#X obj 187 37 inlet;
#X obj 225 37 inlet;
#X connect 0 0 12 0;
#X connect 1 0 3 0;
#X connect 2 0 4 0;
#X connect 3 0 2 0;
#X connect 4 0 9 0;
#X connect 5 0 14 0;
#X connect 6 0 15 0;
#X connect 7 0 6 0;
#X connect 8 0 7 0;
#X connect 9 0 5 0;
#X connect 10 0 8 1;
#X connect 11 0 8 0;
#X connect 12 0 1 0;
#X connect 12 1 11 0;
#X connect 12 2 10 0;
#X connect 12 3 13 0;
#X connect 13 0 9 1;
#X connect 15 0 5 1;
#X connect 16 0 3 1;
#X connect 17 0 11 1;
#X connect 18 0 10 1;
#X connect 19 0 13 1;
#X connect 20 0 15 1;
#X restore 262 555 pd osci;
#X f 18;
#X obj 297 532 r \$0-a;
#X obj 320 511 r \$0-d;
#X obj 341 532 r \$0-t;
#X obj 364 510 r \$0-p;
#X obj 276 511 r \$0-n;
#N canvas 6 116 537 416 osci 0;
#X obj 36 37 inlet;
#X floatatom 36 133 5 0 0 0 - - -;
#X obj 36 178 mtof;
#X obj 36 155 + 56;
#X obj 36 201 osc~;
#X obj 36 273 *~;
#X obj 70 202 vline~;
#X msg 70 179 1 \$1 \, 0 \$2 \$1;
#X obj 70 156 pack f f;
#X obj 37 250 expr~ $v1<$f2;
#X obj 100 133 f;
#X obj 72 133 f;
#X obj 36 84 t f b b b, f 17;
#X obj 135 208 f;
#X obj 35 296 outlet~;
#X obj 70 225 pow~ 2;
#X obj 74 37 inlet;
#X obj 111 37 inlet;
#X obj 149 37 inlet;
#X obj 187 37 inlet;
#X obj 225 37 inlet;
#X connect 0 0 12 0;
#X connect 1 0 3 0;
#X connect 2 0 4 0;
#X connect 3 0 2 0;
#X connect 4 0 9 0;
#X connect 5 0 14 0;
#X connect 6 0 15 0;
#X connect 7 0 6 0;
#X connect 8 0 7 0;
#X connect 9 0 5 0;
#X connect 10 0 8 1;
#X connect 11 0 8 0;
#X connect 12 0 1 0;
#X connect 12 1 11 0;
#X connect 12 2 10 0;
#X connect 12 3 13 0;
#X connect 13 0 9 1;
#X connect 15 0 5 1;
#X connect 16 0 3 1;
#X connect 17 0 11 1;
#X connect 18 0 10 1;
#X connect 19 0 13 1;
#X connect 20 0 15 1;
#X restore 432 554 pd osci;
#X f 18;
#X obj 467 531 r \$0-a;
#X obj 490 510 r \$0-d;
#X obj 511 531 r \$0-t;
#X obj 534 509 r \$0-p;
#X obj 446 510 r \$0-n;
#N canvas 6 116 537 416 osci 0;
#X obj 36 37 inlet;
#X floatatom 36 133 5 0 0 0 - - -;
#X obj 36 178 mtof;
#X obj 36 155 + 56;
#X obj 36 201 osc~;
#X obj 36 273 *~;
#X obj 70 202 vline~;
#X msg 70 179 1 \$1 \, 0 \$2 \$1;
#X obj 70 156 pack f f;
#X obj 37 250 expr~ $v1<$f2;
#X obj 100 133 f;
#X obj 72 133 f;
#X obj 36 84 t f b b b, f 17;
#X obj 135 208 f;
#X obj 35 296 outlet~;
#X obj 70 225 pow~ 2;
#X obj 74 37 inlet;
#X obj 111 37 inlet;
#X obj 149 37 inlet;
#X obj 187 37 inlet;
#X obj 225 37 inlet;
#X connect 0 0 12 0;
#X connect 1 0 3 0;
#X connect 2 0 4 0;
#X connect 3 0 2 0;
#X connect 4 0 9 0;
#X connect 5 0 14 0;
#X connect 6 0 15 0;
#X connect 7 0 6 0;
#X connect 8 0 7 0;
#X connect 9 0 5 0;
#X connect 10 0 8 1;
#X connect 11 0 8 0;
#X connect 12 0 1 0;
#X connect 12 1 11 0;
#X connect 12 2 10 0;
#X connect 12 3 13 0;
#X connect 13 0 9 1;
#X connect 15 0 5 1;
#X connect 16 0 3 1;
#X connect 17 0 11 1;
#X connect 18 0 10 1;
#X connect 19 0 13 1;
#X connect 20 0 15 1;
#X restore 602 555 pd osci;
#X f 18;
#X obj 637 532 r \$0-a;
#X obj 660 511 r \$0-d;
#X obj 681 532 r \$0-t;
#X obj 704 510 r \$0-p;
#X obj 616 511 r \$0-n;
#N canvas 6 116 537 416 osci 0;
#X obj 36 37 inlet;
#X floatatom 36 133 5 0 0 0 - - -;
#X obj 36 178 mtof;
#X obj 36 155 + 56;
#X obj 36 201 osc~;
#X obj 36 273 *~;
#X obj 70 202 vline~;
#X msg 70 179 1 \$1 \, 0 \$2 \$1;
#X obj 70 156 pack f f;
#X obj 37 250 expr~ $v1<$f2;
#X obj 100 133 f;
#X obj 72 133 f;
#X obj 36 84 t f b b b, f 17;
#X obj 135 208 f;
#X obj 35 296 outlet~;
#X obj 70 225 pow~ 2;
#X obj 74 37 inlet;
#X obj 111 37 inlet;
#X obj 149 37 inlet;
#X obj 187 37 inlet;
#X obj 225 37 inlet;
#X connect 0 0 12 0;
#X connect 1 0 3 0;
#X connect 2 0 4 0;
#X connect 3 0 2 0;
#X connect 4 0 9 0;
#X connect 5 0 14 0;
#X connect 6 0 15 0;
#X connect 7 0 6 0;
#X connect 8 0 7 0;
#X connect 9 0 5 0;
#X connect 10 0 8 1;
#X connect 11 0 8 0;
#X connect 12 0 1 0;
#X connect 12 1 11 0;
#X connect 12 2 10 0;
#X connect 12 3 13 0;
#X connect 13 0 9 1;
#X connect 15 0 5 1;
#X connect 16 0 3 1;
#X connect 17 0 11 1;
#X connect 18 0 10 1;
#X connect 19 0 13 1;
#X connect 20 0 15 1;
#X restore 772 554 pd osci;
#X f 18;
#X obj 807 531 r \$0-a;
#X obj 830 510 r \$0-d;
#X obj 851 531 r \$0-t;
#X obj 874 509 r \$0-p;
#X obj 786 510 r \$0-n;
#N canvas 6 116 537 416 osci 0;
#X obj 36 37 inlet;
#X floatatom 36 133 5 0 0 0 - - -;
#X obj 36 178 mtof;
#X obj 36 155 + 56;
#X obj 36 201 osc~;
#X obj 36 273 *~;
#X obj 70 202 vline~;
#X msg 70 179 1 \$1 \, 0 \$2 \$1;
#X obj 70 156 pack f f;
#X obj 37 250 expr~ $v1<$f2;
#X obj 100 133 f;
#X obj 72 133 f;
#X obj 36 84 t f b b b, f 17;
#X obj 135 208 f;
#X obj 35 296 outlet~;
#X obj 70 225 pow~ 2;
#X obj 74 37 inlet;
#X obj 111 37 inlet;
#X obj 149 37 inlet;
#X obj 187 37 inlet;
#X obj 225 37 inlet;
#X connect 0 0 12 0;
#X connect 1 0 3 0;
#X connect 2 0 4 0;
#X connect 3 0 2 0;
#X connect 4 0 9 0;
#X connect 5 0 14 0;
#X connect 6 0 15 0;
#X connect 7 0 6 0;
#X connect 8 0 7 0;
#X connect 9 0 5 0;
#X connect 10 0 8 1;
#X connect 11 0 8 0;
#X connect 12 0 1 0;
#X connect 12 1 11 0;
#X connect 12 2 10 0;
#X connect 12 3 13 0;
#X connect 13 0 9 1;
#X connect 15 0 5 1;
#X connect 16 0 3 1;
#X connect 17 0 11 1;
#X connect 18 0 10 1;
#X connect 19 0 13 1;
#X connect 20 0 15 1;
#X restore 942 555 pd osci;
#X f 18;
#X obj 977 532 r \$0-a;
#X obj 1000 511 r \$0-d;
#X obj 1021 532 r \$0-t;
#X obj 1044 510 r \$0-p;
#X obj 956 511 r \$0-n;
#N canvas 6 116 537 416 osci 0;
#X obj 36 37 inlet;
#X floatatom 36 133 5 0 0 0 - - -;
#X obj 36 178 mtof;
#X obj 36 155 + 56;
#X obj 36 201 osc~;
#X obj 36 273 *~;
#X obj 70 202 vline~;
#X msg 70 179 1 \$1 \, 0 \$2 \$1;
#X obj 70 156 pack f f;
#X obj 37 250 expr~ $v1<$f2;
#X obj 100 133 f;
#X obj 72 133 f;
#X obj 36 84 t f b b b, f 17;
#X obj 135 208 f;
#X obj 35 296 outlet~;
#X obj 70 225 pow~ 2;
#X obj 74 37 inlet;
#X obj 111 37 inlet;
#X obj 149 37 inlet;
#X obj 187 37 inlet;
#X obj 225 37 inlet;
#X connect 0 0 12 0;
#X connect 1 0 3 0;
#X connect 2 0 4 0;
#X connect 3 0 2 0;
#X connect 4 0 9 0;
#X connect 5 0 14 0;
#X connect 6 0 15 0;
#X connect 7 0 6 0;
#X connect 8 0 7 0;
#X connect 9 0 5 0;
#X connect 10 0 8 1;
#X connect 11 0 8 0;
#X connect 12 0 1 0;
#X connect 12 1 11 0;
#X connect 12 2 10 0;
#X connect 12 3 13 0;
#X connect 13 0 9 1;
#X connect 15 0 5 1;
#X connect 16 0 3 1;
#X connect 17 0 11 1;
#X connect 18 0 10 1;
#X connect 19 0 13 1;
#X connect 20 0 15 1;
#X restore 1112 554 pd osci;
#X f 18;
#X obj 1147 531 r \$0-a;
#X obj 1170 510 r \$0-d;
#X obj 1191 531 r \$0-t;
#X obj 1214 509 r \$0-p;
#X obj 1126 510 r \$0-n;
#N canvas 6 116 537 416 osci 0;
#X obj 36 37 inlet;
#X floatatom 36 133 5 0 0 0 - - -;
#X obj 36 178 mtof;
#X obj 36 155 + 56;
#X obj 36 201 osc~;
#X obj 36 273 *~;
#X obj 70 202 vline~;
#X msg 70 179 1 \$1 \, 0 \$2 \$1;
#X obj 70 156 pack f f;
#X obj 37 250 expr~ $v1<$f2;
#X obj 100 133 f;
#X obj 72 133 f;
#X obj 36 84 t f b b b, f 17;
#X obj 135 208 f;
#X obj 35 296 outlet~;
#X obj 70 225 pow~ 2;
#X obj 74 37 inlet;
#X obj 111 37 inlet;
#X obj 149 37 inlet;
#X obj 187 37 inlet;
#X obj 225 37 inlet;
#X connect 0 0 12 0;
#X connect 1 0 3 0;
#X connect 2 0 4 0;
#X connect 3 0 2 0;
#X connect 4 0 9 0;
#X connect 5 0 14 0;
#X connect 6 0 15 0;
#X connect 7 0 6 0;
#X connect 8 0 7 0;
#X connect 9 0 5 0;
#X connect 10 0 8 1;
#X connect 11 0 8 0;
#X connect 12 0 1 0;
#X connect 12 1 11 0;
#X connect 12 2 10 0;
#X connect 12 3 13 0;
#X connect 13 0 9 1;
#X connect 15 0 5 1;
#X connect 16 0 3 1;
#X connect 17 0 11 1;
#X connect 18 0 10 1;
#X connect 19 0 13 1;
#X connect 20 0 15 1;
#X restore 1282 555 pd osci;
#X f 18;
#X obj 1317 532 r \$0-a;
#X obj 1340 511 r \$0-d;
#X obj 1361 532 r \$0-t;
#X obj 1385 510 r \$0-p;
#X obj 1296 511 r \$0-n;
#X obj 1029 191 s \$0-p;
#X floatatom 149 108 3 1 6 1 pow - -;
#X obj 963 212 s \$0-n;
#X connect 0 0 1 0;
#X connect 1 0 2 1;
#X connect 2 0 72 0;
#X connect 3 0 4 0;
#X connect 4 0 5 1;
#X connect 5 0 73 0;
#X connect 6 0 7 0;
#X connect 7 0 8 1;
#X connect 8 0 74 0;
#X connect 9 0 10 0;
#X connect 10 0 11 1;
#X connect 11 0 75 0;
#X connect 12 0 13 0;
#X connect 13 0 14 1;
#X connect 14 0 76 0;
#X connect 15 0 16 0;
#X connect 16 0 17 1;
#X connect 17 0 77 0;
#X connect 18 0 19 0;
#X connect 19 0 20 1;
#X connect 20 0 78 0;
#X connect 21 0 22 0;
#X connect 22 0 23 1;
#X connect 23 0 79 0;
#X connect 24 0 25 0;
#X connect 25 0 26 1;
#X connect 26 0 80 0;
#X connect 27 0 28 0;
#X connect 28 0 29 1;
#X connect 29 0 81 0;
#X connect 30 0 31 0;
#X connect 31 0 32 1;
#X connect 32 0 82 0;
#X connect 33 0 34 0;
#X connect 34 0 35 1;
#X connect 35 0 83 0;
#X connect 36 0 37 0;
#X connect 37 0 38 1;
#X connect 38 0 84 0;
#X connect 39 0 40 0;
#X connect 40 0 41 1;
#X connect 41 0 85 0;
#X connect 42 0 43 0;
#X connect 43 0 44 1;
#X connect 44 0 86 0;
#X connect 45 0 46 0;
#X connect 46 0 47 1;
#X connect 47 0 87 0;
#X connect 48 0 0 0;
#X connect 48 0 45 0;
#X connect 48 0 42 0;
#X connect 48 0 39 0;
#X connect 48 0 36 0;
#X connect 48 0 33 0;
#X connect 48 0 30 0;
#X connect 48 0 27 0;
#X connect 48 0 24 0;
#X connect 48 0 21 0;
#X connect 48 0 18 0;
#X connect 48 0 15 0;
#X connect 48 0 12 0;
#X connect 48 0 9 0;
#X connect 48 0 6 0;
#X connect 48 0 3 0;
#X connect 49 0 50 0;
#X connect 50 0 61 0;
#X connect 51 0 52 0;
#X connect 51 0 54 0;
#X connect 52 0 51 1;
#X connect 53 0 50 1;
#X connect 54 0 55 0;
#X connect 54 0 56 0;
#X connect 54 0 57 0;
#X connect 56 0 2 0;
#X connect 56 1 5 0;
#X connect 56 2 8 0;
#X connect 56 3 11 0;
#X connect 56 4 14 0;
#X connect 56 5 17 0;
#X connect 56 6 20 0;
#X connect 56 7 23 0;
#X connect 56 8 26 0;
#X connect 56 9 29 0;
#X connect 56 10 32 0;
#X connect 56 11 35 0;
#X connect 56 12 38 0;
#X connect 56 13 41 0;
#X connect 56 14 44 0;
#X connect 56 15 47 0;
#X connect 57 0 48 0;
#X connect 58 0 69 0;
#X connect 59 0 70 0;
#X connect 60 0 71 0;
#X connect 61 0 51 0;
#X connect 61 1 62 0;
#X connect 62 0 63 0;
#X connect 63 0 53 0;
#X connect 64 0 66 0;
#X connect 65 0 63 1;
#X connect 67 0 188 0;
#X connect 68 0 67 0;
#X connect 72 0 90 0;
#X connect 73 0 138 0;
#X connect 74 0 96 0;
#X connect 75 0 144 0;
#X connect 76 0 102 0;
#X connect 77 0 150 0;
#X connect 78 0 108 0;
#X connect 79 0 156 0;
#X connect 80 0 114 0;
#X connect 81 0 162 0;
#X connect 82 0 120 0;
#X connect 83 0 168 0;
#X connect 84 0 126 0;
#X connect 85 0 174 0;
#X connect 86 0 132 0;
#X connect 87 0 180 0;
#X connect 88 0 86 1;
#X connect 88 0 87 1;
#X connect 88 0 85 1;
#X connect 88 0 84 1;
#X connect 88 0 83 1;
#X connect 88 0 82 1;
#X connect 88 0 81 1;
#X connect 88 0 80 1;
#X connect 88 0 79 1;
#X connect 88 0 78 1;
#X connect 88 0 77 1;
#X connect 88 0 76 1;
#X connect 88 0 75 1;
#X connect 88 0 74 1;
#X connect 88 0 73 1;
#X connect 88 0 72 1;
#X connect 89 0 88 0;
#X connect 90 0 64 0;
#X connect 91 0 90 2;
#X connect 92 0 90 3;
#X connect 93 0 90 4;
#X connect 94 0 90 5;
#X connect 95 0 90 1;
#X connect 96 0 64 0;
#X connect 97 0 96 2;
#X connect 98 0 96 3;
#X connect 99 0 96 4;
#X connect 100 0 96 5;
#X connect 101 0 96 1;
#X connect 102 0 64 0;
#X connect 103 0 102 2;
#X connect 104 0 102 3;
#X connect 105 0 102 4;
#X connect 106 0 102 5;
#X connect 107 0 102 1;
#X connect 108 0 64 0;
#X connect 109 0 108 2;
#X connect 110 0 108 3;
#X connect 111 0 108 4;
#X connect 112 0 108 5;
#X connect 113 0 108 1;
#X connect 114 0 64 0;
#X connect 115 0 114 2;
#X connect 116 0 114 3;
#X connect 117 0 114 4;
#X connect 118 0 114 5;
#X connect 119 0 114 1;
#X connect 120 0 64 0;
#X connect 121 0 120 2;
#X connect 122 0 120 3;
#X connect 123 0 120 4;
#X connect 124 0 120 5;
#X connect 125 0 120 1;
#X connect 126 0 64 0;
#X connect 127 0 126 2;
#X connect 128 0 126 3;
#X connect 129 0 126 4;
#X connect 130 0 126 5;
#X connect 131 0 126 1;
#X connect 132 0 64 0;
#X connect 133 0 132 2;
#X connect 134 0 132 3;
#X connect 135 0 132 4;
#X connect 136 0 132 5;
#X connect 137 0 132 1;
#X connect 138 0 64 0;
#X connect 139 0 138 2;
#X connect 140 0 138 3;
#X connect 141 0 138 4;
#X connect 142 0 138 5;
#X connect 143 0 138 1;
#X connect 144 0 64 0;
#X connect 145 0 144 2;
#X connect 146 0 144 3;
#X connect 147 0 144 4;
#X connect 148 0 144 5;
#X connect 149 0 144 1;
#X connect 150 0 64 0;
#X connect 151 0 150 2;
#X connect 152 0 150 3;
#X connect 153 0 150 4;
#X connect 154 0 150 5;
#X connect 155 0 150 1;
#X connect 156 0 64 0;
#X connect 157 0 156 2;
#X connect 158 0 156 3;
#X connect 159 0 156 4;
#X connect 160 0 156 5;
#X connect 161 0 156 1;
#X connect 162 0 64 0;
#X connect 163 0 162 2;
#X connect 164 0 162 3;
#X connect 165 0 162 4;
#X connect 166 0 162 5;
#X connect 167 0 162 1;
#X connect 168 0 64 0;
#X connect 169 0 168 2;
#X connect 170 0 168 3;
#X connect 171 0 168 4;
#X connect 172 0 168 5;
#X connect 173 0 168 1;
#X connect 174 0 64 0;
#X connect 175 0 174 2;
#X connect 176 0 174 3;
#X connect 177 0 174 4;
#X connect 178 0 174 5;
#X connect 179 0 174 1;
#X connect 180 0 64 0;
#X connect 181 0 180 2;
#X connect 182 0 180 3;
#X connect 183 0 180 4;
#X connect 184 0 180 5;
#X connect 185 0 180 1;
#X connect 187 0 186 0;
#X coords 0 -1 1 1 225 295 1 48 70;
