#N canvas 0 116 1366 652 10;
#X obj 367 91 i;
#X obj 367 114 + 1;
#X obj 367 137 mod 4;
#X obj 304 93 sel 0;
#X floatatom 99 78 3 0 8 1 every - -;
#X obj 79 78 bng 15 250 50 0 empty empty empty 17 7 0 10 -262144 -1
-1;
#X obj 79 19 inlet;
#X obj 304 426 *~;
#X obj 82 266 hsl 65 15 0 1 0 0 empty empty vol -2 -8 0 10 -262144
-1 -1 3900 1;
#X obj 342 404 pack \$1 500;
#X obj 342 426 line~;
#X obj 82 235 hsl 65 15 100 10000 0 0 empty empty hpf -2 -8 0 10 -262144
-1 -1 3100 1;
#X obj 373 239 noise~;
#X obj 304 238 pow~ 4;
#X obj 79 142 hradio 14 1 0 5 empty empty empty 0 -8 0 10 -262144 -1
-1 4;
#X floatatom 430 189 5 0 0 0 - - -;
#X floatatom 357 362 5 0 0 0 - - -;
#X obj 304 457 hip~ 2000;
#X msg 304 192 1 \$1 \, 0 \$2 \$1;
#X obj 304 215 vline~;
#X obj 304 165 pack 20 500;
#X floatatom 79 100 4 0 0 1 attack - -;
#X floatatom 79 120 4 0 0 1 release - -;
#X obj 305 281 *~;
#X obj 373 264 *~ 1;
#X floatatom 322 325 5 0 0 0 - - -;
#X obj 322 347 sig~;
#X obj 304 377 vcf~ 1, f 7;
#X obj 430 166 + 2;
#X obj 82 172 hsl 65 15 1000 10000 0 0 empty empty vcf -2 -8 0 10 -262144
-1 -1 4800 1;
#X obj 82 203 hsl 65 15 1 10 0 0 empty empty Q -2 -8 0 10 -262144 -1
-1 2700 1;
#X obj 305 501 outlet~;
#X connect 0 0 1 0;
#X connect 0 0 3 0;
#X connect 1 0 2 0;
#X connect 2 0 0 1;
#X connect 3 0 20 0;
#X connect 4 0 2 1;
#X connect 5 0 0 0;
#X connect 6 0 5 0;
#X connect 7 0 17 0;
#X connect 8 0 9 0;
#X connect 9 0 10 0;
#X connect 10 0 7 1;
#X connect 11 0 17 1;
#X connect 12 0 24 0;
#X connect 13 0 23 0;
#X connect 14 0 28 0;
#X connect 15 0 13 1;
#X connect 16 0 27 2;
#X connect 17 0 31 0;
#X connect 18 0 19 0;
#X connect 19 0 13 0;
#X connect 20 0 18 0;
#X connect 21 0 20 0;
#X connect 22 0 20 1;
#X connect 23 0 27 0;
#X connect 24 0 23 1;
#X connect 25 0 26 0;
#X connect 26 0 27 1;
#X connect 27 0 7 0;
#X connect 28 0 15 0;
#X connect 29 0 25 0;
#X connect 30 0 16 0;
#X coords 0 -1 1 1 88 250 1 70 45;
