#N canvas 18 172 500 516 10;
#X obj 203 256 list store, f 14;
#X msg 138 310 get \$1 1;
#X obj 270 95 list length;
#X obj 270 118 t f f, f 19;
#X obj 203 280 list split, f 19;
#X obj 203 309 t a b;
#X obj 203 332 list append;
#X obj 203 372 list store, f 13;
#X obj 340 234 + 1;
#X obj 366 234 % 2;
#X obj 203 218 t b b;
#X obj 229 165 + 1;
#X obj 255 165 % 2;
#X obj 203 188 t b f;
#X msg 329 205 0;
#X obj 203 141 metro 50;
#X obj 203 120 tgl 15 0 empty empty empty 17 7 0 10 -262144 -1 -1 0
1;
#X obj 243 188 sel 0, f 11;
#X obj 314 234 f 0;
#X obj 203 165 f 0;
#X obj 306 165 - 1;
#X obj 381 205 + 1;
#X obj 270 141 +, f 9;
#X msg 306 395 1;
#X obj 203 467 outlet;
#X msg 358 402 0;
#X obj 138 74 random;
#X obj 138 28 inlet;
#X obj 138 51 t b;
#X obj 253 28 inlet;
#X obj 253 72 t b a a b;
#X obj 203 418 spigot, f 18;
#X connect 0 0 4 0;
#X connect 1 0 7 0;
#X connect 2 0 3 0;
#X connect 3 0 22 0;
#X connect 3 1 21 0;
#X connect 3 1 22 1;
#X connect 4 0 5 0;
#X connect 5 0 6 0;
#X connect 5 1 7 0;
#X connect 6 0 7 1;
#X connect 7 0 6 1;
#X connect 7 0 31 0;
#X connect 8 0 9 0;
#X connect 9 0 18 1;
#X connect 10 0 0 0;
#X connect 10 1 18 0;
#X connect 11 0 12 0;
#X connect 12 0 19 1;
#X connect 13 0 10 0;
#X connect 13 1 17 0;
#X connect 14 0 16 0;
#X connect 14 0 18 1;
#X connect 14 0 19 1;
#X connect 15 0 19 0;
#X connect 16 0 15 0;
#X connect 17 0 14 0;
#X connect 17 1 23 0;
#X connect 18 0 8 0;
#X connect 18 0 4 1;
#X connect 19 0 11 0;
#X connect 19 0 13 0;
#X connect 20 0 17 1;
#X connect 21 0 9 1;
#X connect 22 0 12 1;
#X connect 22 0 20 0;
#X connect 22 0 26 1;
#X connect 23 0 31 1;
#X connect 25 0 31 1;
#X connect 26 0 1 0;
#X connect 27 0 28 0;
#X connect 28 0 26 0;
#X connect 29 0 30 0;
#X connect 30 0 16 0;
#X connect 30 1 2 0;
#X connect 30 2 0 1;
#X connect 30 3 0 1;
#X connect 30 3 25 0;
#X connect 30 3 7 1;
#X connect 31 0 24 0;
