#N canvas 197 197 507 406 10;
#X obj 65 19 inlet;
#X obj 65 355 outlet;
#X obj 170 169 pack 0 0;
#X msg 170 192 \$1 \$2;
#X obj 170 215 line;
#X obj 170 238 i 0;
#X obj 170 261 change -1;
#X obj 170 355 outlet;
#X obj 275 212 pack 0 0;
#X msg 275 235 \$1 \$2;
#X obj 275 258 line;
#X obj 275 281 i 0;
#X obj 275 304 change -1;
#X obj 275 355 outlet;
#X obj 380 212 pack 0 0;
#X msg 380 235 \$1 \$2;
#X obj 380 258 line;
#X obj 380 281 i 0;
#X obj 380 304 change -1;
#X obj 380 355 outlet;
#X obj 320 19 loadbang;
#X obj 320 51 f \$1, f 6;
#X obj 320 74 * 1000;
#X obj 65 106 expr $f1 \; (8 - $f1) \; $f1 + 2 \; (($f1 + 3) % 7 )
+ 1, f 53;
#X obj 170 284 * 4;
#X obj 170 307 % 7;
#X obj 425 145 / 2;
#X obj 320 187 * 2;
#X connect 0 0 23 0;
#X connect 2 0 3 0;
#X connect 3 0 4 0;
#X connect 4 0 5 0;
#X connect 5 0 6 0;
#X connect 6 0 24 0;
#X connect 8 0 9 0;
#X connect 9 0 10 0;
#X connect 10 0 11 0;
#X connect 11 0 12 0;
#X connect 12 0 13 0;
#X connect 14 0 15 0;
#X connect 15 0 16 0;
#X connect 16 0 17 0;
#X connect 17 0 18 0;
#X connect 18 0 19 0;
#X connect 20 0 21 0;
#X connect 21 0 22 0;
#X connect 22 0 2 1;
#X connect 22 0 26 0;
#X connect 22 0 27 0;
#X connect 23 0 1 0;
#X connect 23 1 2 0;
#X connect 23 2 8 0;
#X connect 23 3 14 0;
#X connect 24 0 25 0;
#X connect 25 0 7 0;
#X connect 26 0 14 1;
#X connect 27 0 8 1;
