#N canvas 402 272 760 436 10;
#X obj 114 185 t f b;
#X obj 165 201 random 4;
#X obj 165 224 sel 0 1 2 3;
#X obj 114 208 +;
#X msg 165 247 12;
#X msg 180 269 -12;
#X msg 196 247 7;
#X msg 212 269 -5;
#X floatatom 114 246 5 0 0 0 - - -;
#X obj 114 163 f;
#X floatatom 133 84 5 0 0 1 tone - -;
#X obj 113 84 bng 15 250 50 0 empty empty empty 17 7 0 10 -262144 -1
-1;
#X obj 108 12 inlet;
#X obj 150 12 inlet;
#X obj 244 185 t f b;
#X obj 295 201 random 4;
#X obj 295 224 sel 0 1 2 3;
#X obj 244 208 +;
#X floatatom 244 246 5 0 0 0 - - -;
#X obj 374 185 t f b;
#X obj 425 201 random 4;
#X obj 425 224 sel 0 1 2 3;
#X obj 374 208 +;
#X floatatom 374 246 5 0 0 0 - - -;
#X obj 114 318 outlet;
#X obj 244 318 outlet;
#X obj 374 318 outlet;
#X obj 114 106 nbx 5 14 -1e+37 1e+37 0 0 empty empty seed 55 7 0 10
-262144 -162280 -1 12593 256;
#X msg 295 119 seed \$1;
#X msg 295 247 3;
#X msg 326 247 4;
#X msg 310 269 5;
#X msg 342 269 7;
#X msg 425 247 2;
#X msg 456 247 3;
#X msg 440 269 4;
#X msg 472 269 5;
#X obj 244 268 + 0;
#X obj 374 268 + 12;
#X connect 0 0 3 0;
#X connect 0 1 1 0;
#X connect 1 0 2 0;
#X connect 2 0 4 0;
#X connect 2 1 5 0;
#X connect 2 2 6 0;
#X connect 2 3 7 0;
#X connect 3 0 8 0;
#X connect 4 0 3 1;
#X connect 5 0 3 1;
#X connect 6 0 3 1;
#X connect 7 0 3 1;
#X connect 8 0 14 0;
#X connect 8 0 24 0;
#X connect 9 0 0 0;
#X connect 10 0 9 1;
#X connect 11 0 9 0;
#X connect 12 0 11 0;
#X connect 13 0 10 0;
#X connect 14 0 17 0;
#X connect 14 1 15 0;
#X connect 15 0 16 0;
#X connect 16 0 29 0;
#X connect 16 1 31 0;
#X connect 16 2 30 0;
#X connect 16 3 32 0;
#X connect 17 0 18 0;
#X connect 18 0 19 0;
#X connect 18 0 37 0;
#X connect 19 0 22 0;
#X connect 19 1 20 0;
#X connect 20 0 21 0;
#X connect 21 0 33 0;
#X connect 21 1 35 0;
#X connect 21 2 34 0;
#X connect 21 3 36 0;
#X connect 22 0 23 0;
#X connect 23 0 38 0;
#X connect 27 0 28 0;
#X connect 28 0 1 0;
#X connect 28 0 15 0;
#X connect 28 0 20 0;
#X connect 29 0 17 1;
#X connect 30 0 17 1;
#X connect 31 0 17 1;
#X connect 32 0 17 1;
#X connect 33 0 22 1;
#X connect 34 0 22 1;
#X connect 35 0 22 1;
#X connect 36 0 22 1;
#X connect 37 0 25 0;
#X connect 38 0 26 0;
#X coords 0 -1 1 1 95 70 1 105 60;
