#N canvas 547 163 712 564 10;
#X floatatom 51 95 5 0 0 1 init - -;
#X obj 100 200 / 2;
#X floatatom 100 246 5 0 0 0 - - -;
#X obj 100 223 i;
#X obj 51 200 / 2;
#X floatatom 51 224 5 0 0 0 - - -;
#X obj 51 261 ==;
#X floatatom 51 284 5 0 0 0 - - -;
#X obj 51 306 sel 1;
#X obj 130 361 i;
#X obj 51 177 t f f f f, f 24;
#X obj 177 361 i;
#X obj 130 407 / 2;
#X obj 177 384 * 3;
#X obj 177 407 + 1;
#X floatatom 130 440 5 0 0 0 - - -;
#X obj 177 342 bng 15 250 50 0 empty empty empty 17 7 0 10 -262144
-1 -1;
#X obj 130 342 bng 15 250 50 0 empty empty empty 17 7 0 10 -262144
-1 -1;
#X obj 48 485 outlet;
#X obj 51 6 inlet;
#X obj 48 455 % 24;
#X floatatom 51 116 3 0 0 1 modulo - -;
#X obj 130 462 pipe 100;
#X obj 51 76 bng 15 250 50 0 empty empty empty 17 7 0 10 -262144 -191407
-1;
#X obj 115 151 i;
#X connect 0 0 10 0;
#X connect 1 0 3 0;
#X connect 2 0 6 1;
#X connect 3 0 2 0;
#X connect 4 0 5 0;
#X connect 5 0 6 0;
#X connect 6 0 7 0;
#X connect 7 0 8 0;
#X connect 8 0 17 0;
#X connect 8 1 16 0;
#X connect 9 0 12 0;
#X connect 10 0 4 0;
#X connect 10 1 1 0;
#X connect 10 2 9 1;
#X connect 10 3 11 1;
#X connect 11 0 13 0;
#X connect 12 0 15 0;
#X connect 13 0 14 0;
#X connect 14 0 15 0;
#X connect 15 0 20 0;
#X connect 15 0 22 0;
#X connect 16 0 11 0;
#X connect 17 0 9 0;
#X connect 19 0 23 0;
#X connect 20 0 18 0;
#X connect 21 0 20 1;
#X connect 22 0 24 1;
#X connect 23 0 24 0;
#X connect 24 0 0 0;
#X coords 0 -1 1 1 75 95 1 45 45;
