#N canvas 494 198 784 529 10;
#X obj 107 43 inlet;
#X obj 202 43 inlet;
#X obj 202 66 t a a;
#X obj 107 235 list store, f 21;
#X obj 202 94 list length;
#X obj 107 110 f 0;
#X obj 133 110 + 1;
#X obj 160 110 % 2;
#X obj 107 66 t b b;
#X obj 294 42 inlet;
#X obj 294 65 t a a;
#X obj 264 199 list store;
#X obj 294 144 list length;
#X msg 107 133 get \$1 1;
#X obj 133 160 f 0;
#X obj 159 160 + 1;
#X obj 186 160 % 2;
#X msg 133 183 get \$1 1;
#X obj 264 222 t b f, f 7;
#X obj 264 247 random 100;
#X obj 107 258 + 0;
#X obj 264 272 <=, f 7;
#X obj 264 295 sel 1;
#X obj 264 338 random 2;
#X obj 264 361 sel 0, f 8;
#X msg 264 384 12;
#X msg 291 317 0;
#X msg 309 384 -12;
#X obj 107 384 outlet;
#X connect 0 0 8 0;
#X connect 1 0 2 0;
#X connect 2 0 4 0;
#X connect 2 1 3 1;
#X connect 3 0 20 0;
#X connect 4 0 7 1;
#X connect 5 0 6 0;
#X connect 5 0 13 0;
#X connect 6 0 7 0;
#X connect 7 0 5 1;
#X connect 8 0 5 0;
#X connect 8 1 14 0;
#X connect 9 0 10 0;
#X connect 10 0 12 0;
#X connect 10 1 11 1;
#X connect 11 0 18 0;
#X connect 12 0 16 1;
#X connect 13 0 3 0;
#X connect 14 0 15 0;
#X connect 14 0 17 0;
#X connect 15 0 16 0;
#X connect 16 0 14 1;
#X connect 17 0 11 0;
#X connect 18 0 19 0;
#X connect 18 1 21 1;
#X connect 19 0 21 0;
#X connect 20 0 28 0;
#X connect 21 0 22 0;
#X connect 22 0 23 0;
#X connect 22 1 26 0;
#X connect 23 0 24 0;
#X connect 24 0 25 0;
#X connect 24 1 27 0;
#X connect 25 0 20 1;
#X connect 26 0 20 1;
#X connect 27 0 20 1;
