#N canvas 26 268 1321 467 10;
#X obj 419 64 t l b;
#X obj 51 101 bng 15 250 50 0 empty empty trg 0 26 0 10 -262144 -1
-1;
#X obj 51 8 inlet;
#X floatatom 76 101 5 0 0 3 tone - -;
#X floatatom 51 372 5 0 0 0 - - -;
#X obj 113 101 nbx 4 16 -1e+37 1e+37 0 0 empty empty seed 0 25 0 10
-191407 -262144 -1 0 256;
#X msg 59 218 seed \$1;
#X obj 51 397 outlet;
#X floatatom 51 320 5 0 0 0 - - -;
#X obj 419 117 array set 6thdimMAJ;
#X obj 446 90 array define 6thdimMAJ;
#X obj 51 297 array get 6thdimMAJ;
#X obj 597 89 t l b;
#X obj 624 115 array define 6thdimMIN;
#X obj 597 142 array set 6thdimMIN;
#X floatatom 179 320 5 0 0 0 - - -;
#X obj 179 297 array get 6thdimMIN;
#X obj 51 274 spigot;
#X obj 179 274 spigot;
#X obj 98 274 tgl 15 0 empty empty empty 17 7 0 10 -262144 -1 -1 0
1;
#X obj 225 274 tgl 15 0 empty empty empty 17 7 0 10 -262144 -1 -1 0
1;
#X obj 164 101 hradio 15 1 0 2 empty empty M/m 0 25 0 10 -262144 -1
-1 0;
#X obj 164 218 sel 0 1, f 12;
#X msg 164 244 0;
#X msg 135 244 1;
#X msg 198 244 0;
#X msg 227 244 1;
#X obj 419 9 loadbang;
#X obj 219 101 bng 15 250 50 0 empty empty chr 0 26 0 10 -262144 -191407
-1;
#X obj 219 8 inlet;
#X floatatom 200 101 2 0 7 3 int - -;
#X obj 130 8 inlet;
#X obj 130 194 t f f;
#X obj 130 171 mod 16;
#X floatatom 308 371 5 0 0 0 - - -;
#X obj 308 396 outlet;
#X floatatom 308 319 5 0 0 0 - - -;
#X obj 308 296 array get 6thdimMAJ;
#X floatatom 436 319 5 0 0 0 - - -;
#X obj 436 296 array get 6thdimMIN;
#X obj 308 273 spigot;
#X obj 436 273 spigot;
#X obj 355 273 tgl 15 0 empty empty empty 17 7 0 10 -262144 -1 -1 0
1;
#X obj 482 273 tgl 15 0 empty empty empty 17 7 0 10 -262144 -1 -1 0
1;
#X obj 421 217 sel 0 1, f 12;
#X msg 421 243 0;
#X msg 392 243 1;
#X msg 455 243 0;
#X msg 484 243 1;
#X obj 51 349 + 0;
#X msg 316 220 seed \$1;
#X floatatom 564 371 5 0 0 0 - - -;
#X obj 564 396 outlet;
#X floatatom 564 319 5 0 0 0 - - -;
#X obj 564 296 array get 6thdimMAJ;
#X floatatom 692 319 5 0 0 0 - - -;
#X obj 692 296 array get 6thdimMIN;
#X obj 564 273 spigot;
#X obj 692 273 spigot;
#X obj 611 273 tgl 15 0 empty empty empty 17 7 0 10 -262144 -1 -1 0
1;
#X obj 738 273 tgl 15 0 empty empty empty 17 7 0 10 -262144 -1 -1 0
1;
#X obj 677 217 sel 0 1, f 12;
#X msg 677 243 0;
#X msg 648 243 1;
#X msg 711 243 0;
#X msg 740 243 1;
#X obj 564 220 + 0;
#X obj 308 348 + 0;
#X obj 564 348 + 0;
#X floatatom 818 370 5 0 0 0 - - -;
#X obj 818 395 outlet;
#X floatatom 818 318 5 0 0 0 - - -;
#X obj 818 295 array get 6thdimMAJ;
#X floatatom 946 318 5 0 0 0 - - -;
#X obj 946 295 array get 6thdimMIN;
#X obj 818 272 spigot;
#X obj 946 272 spigot;
#X obj 865 272 tgl 15 0 empty empty empty 17 7 0 10 -262144 -1 -1 0
1;
#X obj 992 272 tgl 15 0 empty empty empty 17 7 0 10 -262144 -1 -1 0
1;
#X obj 931 216 sel 0 1, f 12;
#X msg 931 242 0;
#X msg 902 242 1;
#X msg 965 242 0;
#X msg 994 242 1;
#X obj 818 220 + 0;
#X obj 818 347 + 0;
#X floatatom 1069 368 5 0 0 0 - - -;
#X obj 1069 393 outlet;
#X floatatom 1069 316 5 0 0 0 - - -;
#X obj 1069 293 array get 6thdimMAJ;
#X floatatom 1197 316 5 0 0 0 - - -;
#X obj 1197 293 array get 6thdimMIN;
#X obj 1069 270 spigot;
#X obj 1197 270 spigot;
#X obj 1116 270 tgl 15 0 empty empty empty 17 7 0 10 -262144 -1 -1
0 1;
#X obj 1243 270 tgl 15 0 empty empty empty 17 7 0 10 -262144 -1 -1
0 1;
#X obj 1182 214 sel 0 1, f 12;
#X msg 1182 240 0;
#X msg 1153 240 1;
#X msg 1216 240 0;
#X msg 1245 240 1;
#X obj 1069 218 + 0;
#X obj 1069 345 + 0;
#X msg 419 41 0 2 4 5 7 8 9 11 12 14 16 17 19 20 21 23 24 26 28 29
31 32 33 35, f 65;
#X msg 597 66 0 2 3 5 7 8 9 10 12 14 15 17 19 20 21 22 24 26 27 29
31 32 33 34, f 65;
#X obj 51 241 random 23;
#X obj 308 243 random 23;
#X obj 564 243 mod 24;
#X obj 818 243 mod 24;
#X obj 1069 241 mod 24;
#X obj 89 8 inlet;
#X obj 175 8 inlet;
#X connect 0 0 9 0;
#X connect 0 1 10 0;
#X connect 1 0 105 0;
#X connect 2 0 1 0;
#X connect 3 0 49 1;
#X connect 3 0 67 1;
#X connect 3 0 68 1;
#X connect 3 0 85 1;
#X connect 3 0 102 1;
#X connect 4 0 7 0;
#X connect 5 0 6 0;
#X connect 5 0 50 0;
#X connect 6 0 105 0;
#X connect 8 0 49 0;
#X connect 11 0 8 0;
#X connect 12 0 14 0;
#X connect 12 1 13 0;
#X connect 15 0 49 0;
#X connect 16 0 15 0;
#X connect 17 0 11 0;
#X connect 18 0 16 0;
#X connect 19 0 17 1;
#X connect 20 0 18 1;
#X connect 21 0 22 0;
#X connect 21 0 44 0;
#X connect 21 0 61 0;
#X connect 21 0 79 0;
#X connect 21 0 96 0;
#X connect 22 0 24 0;
#X connect 22 0 23 0;
#X connect 22 1 25 0;
#X connect 22 1 26 0;
#X connect 23 0 20 0;
#X connect 24 0 19 0;
#X connect 25 0 19 0;
#X connect 26 0 20 0;
#X connect 27 0 103 0;
#X connect 27 0 104 0;
#X connect 28 0 106 0;
#X connect 29 0 28 0;
#X connect 30 0 66 1;
#X connect 30 0 84 1;
#X connect 30 0 101 1;
#X connect 31 0 33 0;
#X connect 32 0 17 0;
#X connect 32 1 18 0;
#X connect 33 0 32 0;
#X connect 34 0 35 0;
#X connect 36 0 67 0;
#X connect 37 0 36 0;
#X connect 38 0 67 0;
#X connect 39 0 38 0;
#X connect 40 0 37 0;
#X connect 41 0 39 0;
#X connect 42 0 40 1;
#X connect 43 0 41 1;
#X connect 44 0 46 0;
#X connect 44 0 45 0;
#X connect 44 1 47 0;
#X connect 44 1 48 0;
#X connect 45 0 43 0;
#X connect 46 0 42 0;
#X connect 47 0 42 0;
#X connect 48 0 43 0;
#X connect 49 0 4 0;
#X connect 50 0 106 0;
#X connect 51 0 52 0;
#X connect 53 0 68 0;
#X connect 54 0 53 0;
#X connect 55 0 68 0;
#X connect 56 0 55 0;
#X connect 57 0 54 0;
#X connect 58 0 56 0;
#X connect 59 0 57 1;
#X connect 60 0 58 1;
#X connect 61 0 63 0;
#X connect 61 0 62 0;
#X connect 61 1 64 0;
#X connect 61 1 65 0;
#X connect 62 0 60 0;
#X connect 63 0 59 0;
#X connect 64 0 59 0;
#X connect 65 0 60 0;
#X connect 66 0 107 0;
#X connect 67 0 34 0;
#X connect 68 0 51 0;
#X connect 69 0 70 0;
#X connect 71 0 85 0;
#X connect 72 0 71 0;
#X connect 73 0 85 0;
#X connect 74 0 73 0;
#X connect 75 0 72 0;
#X connect 76 0 74 0;
#X connect 77 0 75 1;
#X connect 78 0 76 1;
#X connect 79 0 81 0;
#X connect 79 0 80 0;
#X connect 79 1 82 0;
#X connect 79 1 83 0;
#X connect 80 0 78 0;
#X connect 81 0 77 0;
#X connect 82 0 77 0;
#X connect 83 0 78 0;
#X connect 84 0 108 0;
#X connect 85 0 69 0;
#X connect 86 0 87 0;
#X connect 88 0 102 0;
#X connect 89 0 88 0;
#X connect 90 0 102 0;
#X connect 91 0 90 0;
#X connect 92 0 89 0;
#X connect 93 0 91 0;
#X connect 94 0 92 1;
#X connect 95 0 93 1;
#X connect 96 0 98 0;
#X connect 96 0 97 0;
#X connect 96 1 99 0;
#X connect 96 1 100 0;
#X connect 97 0 95 0;
#X connect 98 0 94 0;
#X connect 99 0 94 0;
#X connect 100 0 95 0;
#X connect 101 0 109 0;
#X connect 102 0 86 0;
#X connect 103 0 0 0;
#X connect 104 0 12 0;
#X connect 105 0 17 0;
#X connect 105 0 18 0;
#X connect 106 0 40 0;
#X connect 106 0 41 0;
#X connect 106 0 66 0;
#X connect 107 0 57 0;
#X connect 107 0 58 0;
#X connect 107 0 84 0;
#X connect 108 0 75 0;
#X connect 108 0 76 0;
#X connect 108 0 101 0;
#X connect 109 0 92 0;
#X connect 109 0 93 0;
#X connect 110 0 3 0;
#X connect 111 0 5 0;
#X coords 0 -1 1 1 200 70 1 42 70;
