#N canvas 438 172 897 590 10;
#X obj 66 169 bng 15 250 50 0 empty empty empty 17 7 0 10 -262144 -1
-1;
#X obj 66 223 + 200;
#X obj 66 366 osc~;
#X floatatom 93 169 5 0 0 0 - - -;
#X floatatom 129 169 5 0 0 0 - - -;
#X floatatom 66 246 5 0 0 0 - - -;
#X obj 141 246 + 100;
#X floatatom 185 98 5 0 0 0 - - -;
#X obj 66 393 *~;
#X obj 66 270 line;
#X floatatom 66 303 5 0 0 0 - - -;
#X obj 132 376 line~;
#X floatatom 228 170 5 0 0 0 - - -;
#X floatatom 183 271 5 0 0 0 - - -;
#X obj 183 294 pack f f;
#X obj 183 247 pipe 100;
#X obj 183 318 sel \$1;
#X obj 243 294 pack f f;
#X floatatom 288 170 5 0 0 0 - - -;
#X obj 243 318 line;
#X floatatom 93 334 5 0 0 0 - - -;
#X obj 132 350 pack 1 f;
#X obj 191 351 pack f f;
#X obj 243 265 f;
#X obj 108 98 tgl 15 0 empty empty empty 17 7 0 10 -262144 -1 -1 0
1;
#X obj 66 142 metro 10000;
#X floatatom 129 98 8 0 0 0 - - -;
#X obj 228 143 / 3;
#X obj 288 143 / 2;
#X floatatom 223 98 5 1 6 0 - - -;
#X floatatom 260 98 5 1 6 0 - - -;
#X obj 101 461 *~ 0.5;
#X obj 66 201 random 200;
#X obj 129 21 inlet;
#X obj 185 21 inlet;
#X obj 223 21 inlet;
#X obj 260 22 inlet;
#X obj 67 506 outlet~;
#X floatatom 305 473 5 0 0 0 - - -;
#X obj 305 450 / 1000;
#X floatatom 256 472 5 0 0 0 - - -;
#X obj 256 450 / 1000;
#X obj 256 503 outlet;
#X obj 305 503 outlet;
#X obj 90 417 delwrite~ \$0-hulu 10000;
#X obj 101 438 delread~ \$0-hulu 1000;
#X connect 0 0 21 0;
#X connect 0 0 32 0;
#X connect 1 0 5 0;
#X connect 2 0 8 0;
#X connect 3 0 1 1;
#X connect 4 0 32 1;
#X connect 5 0 6 0;
#X connect 5 0 9 0;
#X connect 5 0 23 1;
#X connect 6 0 15 0;
#X connect 7 0 6 1;
#X connect 8 0 37 0;
#X connect 8 0 44 0;
#X connect 9 0 10 0;
#X connect 10 0 2 0;
#X connect 10 0 16 0;
#X connect 10 0 41 0;
#X connect 11 0 8 1;
#X connect 12 0 14 1;
#X connect 12 0 21 1;
#X connect 13 0 14 0;
#X connect 13 0 16 1;
#X connect 13 0 19 0;
#X connect 14 0 9 0;
#X connect 15 0 13 0;
#X connect 16 0 22 0;
#X connect 16 0 23 0;
#X connect 17 0 19 0;
#X connect 18 0 17 1;
#X connect 18 0 22 1;
#X connect 18 0 45 0;
#X connect 19 0 20 0;
#X connect 20 0 2 0;
#X connect 20 0 39 0;
#X connect 21 0 11 0;
#X connect 22 0 11 0;
#X connect 23 0 17 0;
#X connect 24 0 25 0;
#X connect 25 0 0 0;
#X connect 26 0 25 1;
#X connect 26 0 27 0;
#X connect 27 0 12 0;
#X connect 27 0 28 0;
#X connect 28 0 18 0;
#X connect 29 0 27 1;
#X connect 30 0 28 1;
#X connect 31 0 37 0;
#X connect 32 0 1 0;
#X connect 33 0 26 0;
#X connect 34 0 7 0;
#X connect 35 0 29 0;
#X connect 36 0 30 0;
#X connect 38 0 43 0;
#X connect 39 0 38 0;
#X connect 40 0 42 0;
#X connect 41 0 40 0;
#X connect 45 0 31 0;
#X coords 0 -1 1 1 200 60 1 100 65;
