#N canvas 604 232 629 490 10;
#X obj 75 12 inlet;
#X obj 75 85 f 0;
#X obj 101 85 + 1;
#X obj 75 202 random 2;
#X obj 75 225 sel 0 1, f 46;
#X obj 75 248 random 4;
#X obj 75 271 sel 0 1 2 3, f 19;
#X msg 75 294 -12;
#X msg 102 294 0;
#X msg 130 294 12;
#X msg 158 294 24;
#X obj 75 337 + 0;
#X obj 211 248 random 4;
#X obj 211 271 sel 0 1 2 3, f 19;
#X msg 211 294 -12;
#X msg 238 294 0;
#X msg 266 294 12;
#X msg 294 294 24;
#X obj 211 337 + \$2;
#X obj 127 85 % \$1;
#X obj 75 179 sel 0;
#X obj 75 374 + 0;
#X obj 75 425 outlet;
#X obj 232 12 inlet;
#X obj 148 12 inlet;
#X obj 307 12 inlet;
#X obj 393 12 inlet;
#X msg 393 45 seed \$1;
#X connect 0 0 1 0;
#X connect 1 0 2 0;
#X connect 1 0 20 0;
#X connect 2 0 19 0;
#X connect 3 0 4 0;
#X connect 4 0 5 0;
#X connect 4 1 12 0;
#X connect 5 0 6 0;
#X connect 6 0 7 0;
#X connect 6 1 8 0;
#X connect 6 2 9 0;
#X connect 6 3 10 0;
#X connect 7 0 11 0;
#X connect 8 0 11 0;
#X connect 9 0 11 0;
#X connect 10 0 11 0;
#X connect 11 0 21 0;
#X connect 12 0 13 0;
#X connect 13 0 14 0;
#X connect 13 1 15 0;
#X connect 13 2 16 0;
#X connect 13 3 17 0;
#X connect 14 0 18 0;
#X connect 15 0 18 0;
#X connect 16 0 18 0;
#X connect 17 0 18 0;
#X connect 18 0 21 0;
#X connect 19 0 1 1;
#X connect 20 0 3 0;
#X connect 21 0 22 0;
#X connect 23 0 18 1;
#X connect 24 0 19 1;
#X connect 25 0 21 1;
#X connect 26 0 27 0;
#X connect 27 0 3 0;
#X connect 27 0 5 0;
#X connect 27 0 12 0;
