#N canvas 470 292 450 393 10;
#X obj 80 74 t b f;
#X obj 107 209 mtof;
#X obj 64 232 bp~ 0 50, f 15;
#X obj 65 301 clip~ -1 1;
#X obj 65 278 hip~ 5;
#X obj 66 334 outlet~;
#X obj 64 179 biquad~ 0 0 1 -1 0;
#X obj 64 150 1;
#X obj 91 150 0;
#X obj 64 209 *~;
#X obj 91 126 del 3;
#X obj 64 101 t b b;
#X obj 80 16 inlet;
#X obj 80 52 clip 0 127;
#X obj 65 255 *~ 30;
#X connect 0 0 11 0;
#X connect 0 1 1 0;
#X connect 1 0 2 1;
#X connect 2 0 14 0;
#X connect 3 0 5 0;
#X connect 4 0 3 0;
#X connect 6 0 9 0;
#X connect 7 0 6 0;
#X connect 7 0 9 1;
#X connect 8 0 6 0;
#X connect 8 0 9 1;
#X connect 9 0 2 0;
#X connect 10 0 8 0;
#X connect 11 0 7 0;
#X connect 11 1 10 0;
#X connect 12 0 13 0;
#X connect 13 0 0 0;
#X connect 14 0 4 0;
