#N canvas 588 211 730 508 10;
#X msg 155 329 -2;
#X msg 184 329 -5;
#X obj 67 11 inlet;
#X obj 67 281 random 5;
#X obj 67 304 sel 0 1 2 3 4, f 25;
#X floatatom 67 363 5 0 0 0 - - -;
#X obj 78 387 +;
#X msg 67 329 4;
#X msg 96 329 7;
#X msg 125 329 0;
#X obj 67 256 t b f;
#X obj 78 410 +;
#X obj 128 80 hradio 15 1 0 5 empty empty oct 80 7 0 10 -262144 -1
-1 3;
#X obj 128 222 sel 0 1 2 3 4, f 25;
#X floatatom 128 281 5 0 0 0 - - -;
#X msg 186 247 0;
#X msg 128 247 -24;
#X msg 157 247 -12;
#X msg 216 247 12;
#X msg 245 247 24;
#X floatatom 171 35 5 0 0 1 seed - -;
#X msg 75 222 seed \$1;
#X obj 78 469 outlet;
#X obj 128 35 bng 15 250 50 0 empty empty empty 17 7 0 10 -262144 -228856
-1;
#X obj 78 433 spigot;
#X obj 128 57 tgl 15 0 empty empty empty 17 7 0 10 -262144 -1 -1 0
1;
#X obj 263 11 inlet;
#X obj 67 192 spigot;
#X obj 67 34 t f b;
#X obj 94 115 f;
#X obj 122 115 + 1;
#X obj 150 115 % 1;
#X obj 94 138 sel 0, f 12;
#X msg 94 161 1;
#X msg 163 161 0;
#X floatatom 171 57 2 1 8 1 every - -;
#X connect 0 0 5 0;
#X connect 1 0 5 0;
#X connect 2 0 28 0;
#X connect 3 0 4 0;
#X connect 4 0 7 0;
#X connect 4 1 8 0;
#X connect 4 2 9 0;
#X connect 4 3 0 0;
#X connect 4 4 1 0;
#X connect 5 0 6 0;
#X connect 6 0 11 0;
#X connect 7 0 5 0;
#X connect 8 0 5 0;
#X connect 9 0 5 0;
#X connect 10 0 3 0;
#X connect 10 0 23 0;
#X connect 10 1 6 1;
#X connect 11 0 24 0;
#X connect 12 0 13 0;
#X connect 13 0 16 0;
#X connect 13 1 17 0;
#X connect 13 2 15 0;
#X connect 13 3 18 0;
#X connect 13 4 19 0;
#X connect 14 0 11 1;
#X connect 15 0 14 0;
#X connect 16 0 14 0;
#X connect 17 0 14 0;
#X connect 18 0 14 0;
#X connect 19 0 14 0;
#X connect 20 0 21 0;
#X connect 21 0 3 0;
#X connect 24 0 22 0;
#X connect 25 0 24 1;
#X connect 26 0 25 0;
#X connect 27 0 10 0;
#X connect 28 0 27 0;
#X connect 28 1 29 0;
#X connect 29 0 30 0;
#X connect 29 0 32 0;
#X connect 30 0 31 0;
#X connect 31 0 29 1;
#X connect 32 0 33 0;
#X connect 32 1 34 0;
#X connect 33 0 27 1;
#X connect 34 0 27 1;
#X connect 35 0 31 1;
#X coords 0 -1 1 1 115 95 1 120 10;
