#N canvas 6 116 450 300 10;
#X obj 46 56 t a;
#X obj 46 79 t f b;
#X obj 73 101 f 0;
#X obj 73 124 + 1;
#X obj 73 147 % 3;
#X obj 73 170 sel 2;
#X msg 100 217 0;
#X obj 46 18 inlet;
#X obj 46 264 outlet;
#X obj 73 193 f \$1;
#X obj 46 233 - 0;
#X connect 0 0 1 0;
#X connect 1 0 10 0;
#X connect 1 1 2 0;
#X connect 2 0 3 0;
#X connect 3 0 4 0;
#X connect 4 0 2 1;
#X connect 4 0 5 0;
#X connect 5 0 9 0;
#X connect 5 1 6 0;
#X connect 6 0 10 1;
#X connect 7 0 0 0;
#X connect 9 0 10 1;
#X connect 10 0 8 0;
