#N canvas 536 129 773 625 10;
#N canvas 0 50 450 250 (subpatch) 0;
#X array \$0-base 10 float 3;
#A 0 -1.2 2.57143 -2.74286 0 -4.62857 -2.22857 -0.171429 3.42857 -3.77143
1.37143;
#X coords 0 12 10 -12 100 35 1 0 0;
#X restore 116 92 graph;
#X floatatom 116 343 5 0 0 0 - - -;
#X floatatom 116 412 5 0 0 0 - - -;
#X obj 116 388 i;
#X floatatom 116 152 5 0 0 3 tone - -;
#X obj 116 460 i;
#X obj 116 434 t b f;
#X obj 116 483 +, f 5;
#X floatatom 116 518 5 0 0 0 - - -;
#X obj 116 132 tgl 15 0 empty empty run 17 7 0 10 -262144 -1 -1 0 1
;
#X obj 116 231 metro 1000;
#X obj 116 254 i;
#X obj 158 254 + 1;
#X obj 116 277 mod 4;
#X floatatom 184 132 5 0 0 0 - - -;
#X floatatom 173 518 5 0 0 0 - - -;
#X obj 173 427 abs;
#X obj 173 450 + 1;
#X obj 173 495 expr $f2-$f1;
#X floatatom 184 153 5 0 0 3 time - -;
#X obj 173 472 * 62.5;
#X obj 295 358 sel 0;
#X obj 116 565 outlet;
#X obj 295 565 outlet;
#X obj 117 12 inlet;
#X obj 116 365 array get \$0-base;
#X connect 1 0 21 0;
#X connect 1 0 25 0;
#X connect 2 0 6 0;
#X connect 2 0 16 0;
#X connect 3 0 2 0;
#X connect 4 0 5 1;
#X connect 5 0 7 0;
#X connect 6 0 5 0;
#X connect 6 1 7 1;
#X connect 7 0 8 0;
#X connect 8 0 22 0;
#X connect 9 0 10 0;
#X connect 10 0 11 0;
#X connect 11 0 12 0;
#X connect 11 0 13 0;
#X connect 12 0 11 1;
#X connect 13 0 1 0;
#X connect 14 0 13 1;
#X connect 15 0 10 1;
#X connect 16 0 17 0;
#X connect 17 0 20 0;
#X connect 18 0 15 0;
#X connect 19 0 18 1;
#X connect 20 0 18 0;
#X connect 21 0 23 0;
#X connect 24 0 4 0;
#X connect 25 0 3 0;
#X coords 0 -1 1 1 120 140 1 105 50;
