#N canvas 211 264 652 424 10;
#X obj 102 26 inlet;
#X obj 129 94 f 0;
#X obj 155 94 + 1;
#X obj 296 131 r sync;
#X msg 296 154 0;
#X obj 181 94 % \$1;
#X obj 196 26 inlet;
#X obj 196 66 t a a;
#X obj 196 125 list length;
#X obj 166 222 list store;
#X obj 129 170 f 0;
#X obj 155 170 + 1;
#X obj 181 170 % 0;
#X msg 166 199 get \$1 1;
#X obj 102 66 t b b;
#X obj 129 117 sel 0;
#X obj 102 245 f 0;
#X obj 127 245 + 1;
#X obj 102 268 sel 0;
#X obj 152 245 % 0;
#X obj 102 222 del 10;
#X obj 102 291 t b b;
#X obj 129 140 del 10;
#X obj 102 371 outlet;
#X obj 295 284 outlet;
#X connect 0 0 14 0;
#X connect 1 0 2 0;
#X connect 1 0 15 0;
#X connect 2 0 5 0;
#X connect 3 0 4 0;
#X connect 4 0 10 1;
#X connect 4 0 1 1;
#X connect 4 0 16 1;
#X connect 5 0 1 1;
#X connect 6 0 7 0;
#X connect 7 0 8 0;
#X connect 7 1 9 1;
#X connect 8 0 12 1;
#X connect 9 0 19 1;
#X connect 10 0 11 0;
#X connect 10 0 13 0;
#X connect 11 0 12 0;
#X connect 12 0 10 1;
#X connect 13 0 9 0;
#X connect 14 0 20 0;
#X connect 14 1 1 0;
#X connect 15 0 22 0;
#X connect 16 0 17 0;
#X connect 16 0 18 0;
#X connect 17 0 19 0;
#X connect 18 0 21 0;
#X connect 18 1 24 0;
#X connect 19 0 16 1;
#X connect 20 0 16 0;
#X connect 21 0 23 0;
#X connect 21 1 10 0;
#X connect 22 0 10 0;
