#N canvas 380 247 886 502 10;
#X floatatom 178 72 5 0 12 1 int - -;
#X obj 197 190 i;
#X obj 197 213 t f f, f 9;
#X obj 182 239 +;
#X obj 233 239 -;
#X obj 68 156 t f f b f b, f 77;
#X obj 427 190 i;
#X obj 427 213 t f f, f 9;
#X obj 412 239 +;
#X obj 463 239 -;
#X floatatom 68 362 5 0 0 0 - - -;
#X floatatom 182 262 5 0 0 0 - - -;
#X floatatom 233 262 5 0 0 0 - - -;
#X floatatom 412 262 5 0 0 0 - - -;
#X floatatom 463 262 5 0 0 0 - - -;
#X obj 182 317 spigot;
#X obj 122 72 hradio 15 1 0 2 empty empty +/- 34 7 0 10 -262144 -1
-1 0;
#X obj 233 316 spigot;
#X floatatom 182 362 5 0 0 0 - - -;
#X obj 215 295 == 0;
#X obj 266 294 == 1;
#X obj 412 319 spigot;
#X obj 463 319 spigot;
#X floatatom 412 364 5 0 0 0 - - -;
#X obj 445 296 == 0;
#X obj 496 296 == 1;
#X obj 68 384 + 0;
#X obj 182 384 + 0;
#X obj 412 386 + 0;
#X obj 68 407 pipe 0;
#X obj 182 407 pipe 0;
#X obj 412 409 pipe 0;
#X obj 68 430 outlet;
#X obj 182 430 outlet;
#X obj 412 432 outlet;
#X obj 41 23 inlet;
#X floatatom 243 27 5 40 80 1 tone - -;
#X floatatom 244 49 5 0 0 1 delay - -;
#X floatatom 244 72 5 0 0 1 delay - -;
#X floatatom 178 95 5 0 12 1 int - -;
#X obj 122 95 hradio 15 1 0 2 empty empty +/- 34 7 0 10 -262144 -1
-1 1;
#X floatatom 244 95 5 0 0 1 delay - -;
#X obj 68 188 t f f, f 9;
#X obj 53 214 +;
#X obj 104 214 -;
#X floatatom 53 237 5 0 0 0 - - -;
#X floatatom 104 237 5 0 0 0 - - -;
#X obj 53 312 spigot;
#X obj 104 313 spigot;
#X obj 88 290 == 0;
#X obj 137 291 == 1;
#X obj 122 49 hradio 15 1 0 2 empty empty +/- 34 7 0 10 -262144 -1
-1 0;
#X floatatom 178 49 5 0 12 1 int - -;
#X obj 335 11 inlet;
#X obj 41 46 t f f;
#X obj 41 103 outlet;
#X obj 41 81 + 0;
#X obj 411 33 inlet;
#X connect 0 0 1 1;
#X connect 1 0 2 0;
#X connect 2 0 3 1;
#X connect 2 1 4 1;
#X connect 3 0 11 0;
#X connect 4 0 12 0;
#X connect 5 0 42 0;
#X connect 5 1 3 0;
#X connect 5 1 4 0;
#X connect 5 2 1 0;
#X connect 5 3 8 0;
#X connect 5 3 9 0;
#X connect 5 4 6 0;
#X connect 6 0 7 0;
#X connect 7 0 8 1;
#X connect 7 1 9 1;
#X connect 8 0 13 0;
#X connect 9 0 14 0;
#X connect 10 0 26 0;
#X connect 11 0 15 0;
#X connect 12 0 17 0;
#X connect 13 0 21 0;
#X connect 14 0 22 0;
#X connect 15 0 18 0;
#X connect 16 0 19 0;
#X connect 16 0 20 0;
#X connect 17 0 18 0;
#X connect 18 0 27 0;
#X connect 19 0 15 1;
#X connect 20 0 17 1;
#X connect 21 0 23 0;
#X connect 22 0 23 0;
#X connect 23 0 28 0;
#X connect 24 0 21 1;
#X connect 25 0 22 1;
#X connect 26 0 29 0;
#X connect 27 0 30 0;
#X connect 28 0 31 0;
#X connect 29 0 32 0;
#X connect 30 0 33 0;
#X connect 31 0 34 0;
#X connect 35 0 54 0;
#X connect 36 0 26 1;
#X connect 36 0 28 1;
#X connect 36 0 27 1;
#X connect 36 0 56 1;
#X connect 37 0 29 1;
#X connect 38 0 30 1;
#X connect 39 0 6 1;
#X connect 40 0 24 0;
#X connect 40 0 25 0;
#X connect 41 0 31 1;
#X connect 42 0 43 0;
#X connect 42 1 44 0;
#X connect 43 0 45 0;
#X connect 44 0 46 0;
#X connect 45 0 47 0;
#X connect 46 0 48 0;
#X connect 47 0 10 0;
#X connect 48 0 10 0;
#X connect 49 0 47 1;
#X connect 50 0 48 1;
#X connect 51 0 49 0;
#X connect 51 0 50 0;
#X connect 52 0 43 1;
#X connect 52 0 44 1;
#X connect 53 0 36 0;
#X connect 54 0 56 0;
#X connect 54 1 5 0;
#X connect 56 0 55 0;
#X connect 57 0 37 0;
#X connect 57 0 41 0;
#X connect 57 0 38 0;
#X coords 0 -1 1 1 200 105 1 115 15;
