#N canvas 86 252 766 476 10;
#X obj 344 113 unpack 0 0 0 0 0 0;
#X obj 489 113 value sum;
#X floatatom 449 225 5 0 0 0 - - -;
#X obj 98 76 bng 15 250 50 0 empty empty empty 17 7 0 10 -262144 -1
-1;
#X obj 98 119 i 0;
#X obj 98 160 expr if ($f1 < $f2 \, 1 \, if ($f1 < ($f2+$f3) \, 2 \,
if ($f1 < ($f2+$f3+$f4) \, 3 \, if ($f1 < ($f2+$f3+$f4+$f5) \, 4 \,
if ($f1 < ($f2+$f3+$f4+$f5+$f6) \, 5 \, 6))))) \; sum = ($f2+$f3+$f4+$f5+$f6+$f7)
;
#X obj 416 251 random;
#X floatatom 416 274 5 0 0 0 - - -;
#X obj 98 368 expr ($f1 + $f2) %12;
#X obj 98 391 t f f;
#X obj 98 429 outlet;
#X obj 98 19 inlet;
#X msg 489 90 6;
#X obj 344 19 inlet;
#X obj 344 76 t l;
#X obj 489 50 loadbang;
#X obj 417 19 inlet;
#X msg 417 76 seed \$1;
#X obj 98 314 spigot;
#X obj 156 245 expr -$f1;
#X obj 98 222 t f f b, f 20;
#X obj 215 275 random 2;
#X obj 156 339 spigot;
#X obj 131 291 == 0;
#X obj 189 316 == 1;
#X text 486 137 IC 1: semitono \; IC 2: tono intero \; IC 3: terza
minore \; IC 4: terza maggiore \; IC 5: quarta giusta \; IC 6: tritono
, f 22;
#X connect 0 0 5 1;
#X connect 0 1 5 2;
#X connect 0 2 5 3;
#X connect 0 3 5 4;
#X connect 0 4 5 5;
#X connect 0 5 5 6;
#X connect 2 0 6 1;
#X connect 3 0 4 0;
#X connect 3 0 6 0;
#X connect 4 0 5 0;
#X connect 5 0 20 0;
#X connect 5 1 2 0;
#X connect 6 0 7 0;
#X connect 7 0 4 1;
#X connect 8 0 9 0;
#X connect 9 0 10 0;
#X connect 9 1 8 1;
#X connect 11 0 3 0;
#X connect 12 0 1 0;
#X connect 13 0 14 0;
#X connect 14 0 0 0;
#X connect 15 0 12 0;
#X connect 16 0 17 0;
#X connect 17 0 6 0;
#X connect 18 0 8 0;
#X connect 19 0 22 0;
#X connect 20 0 18 0;
#X connect 20 1 19 0;
#X connect 20 2 21 0;
#X connect 21 0 23 0;
#X connect 21 0 24 0;
#X connect 22 0 8 0;
#X connect 23 0 18 1;
#X connect 24 0 22 1;
