#N canvas 75 269 407 374 10;
#X obj 51 133 ftom;
#X obj 51 16 inlet;
#X obj 51 39 clip 0 127;
#X obj 51 161 outlet;
#X obj 108 88 f \$2;
#X obj 51 104 *;
#X obj 51 62 t f b, f 10;
#X connect 0 0 3 0;
#X connect 1 0 2 0;
#X connect 2 0 6 0;
#X connect 4 0 5 1;
#X connect 5 0 0 0;
#X connect 6 0 5 0;
#X connect 6 1 4 0;
