#N canvas 70 287 450 384 10;
#X obj 44 43 bng 15 250 50 0 empty empty empty 17 7 0 10 -262144 -1
-1;
#X obj 103 107 random 2;
#X obj 103 130 sel 0;
#X floatatom 103 185 5 0 0 0 - - -;
#X floatatom 101 43 5 0 0 2 +/- - -;
#X obj 103 207 +;
#X floatatom 44 134 5 0 0 0 - - -;
#X floatatom 103 230 5 0 0 0 - - -;
#X floatatom 65 43 5 0 0 2 tone - -;
#X obj 44 111 i;
#X obj 44 79 t b b;
#X obj 103 325 pipe 50;
#X obj 103 158 + \$1;
#X obj 135 158 - \$1;
#X obj 156 131 + 1;
#X obj 216 27 inlet;
#X obj 224 245 outlet;
#X floatatom 103 298 5 0 0 0 - - -;
#X obj 103 276 expr if ($f1<30 || $f1>90 \, 56 \, $f1);
#X connect 0 0 10 0;
#X connect 1 0 2 0;
#X connect 2 0 12 0;
#X connect 2 1 13 0;
#X connect 3 0 5 0;
#X connect 4 0 12 1;
#X connect 4 0 14 0;
#X connect 5 0 7 0;
#X connect 6 0 5 1;
#X connect 7 0 16 0;
#X connect 7 0 18 0;
#X connect 8 0 9 1;
#X connect 9 0 6 0;
#X connect 10 0 1 0;
#X connect 10 1 9 0;
#X connect 11 0 8 0;
#X connect 12 0 3 0;
#X connect 13 0 3 0;
#X connect 14 0 13 1;
#X connect 15 0 0 0;
#X connect 17 0 11 0;
#X connect 18 0 17 0;
#X coords 0 -1 1 1 105 60 1 35 10;
