#N canvas 120 206 746 535 10;
#X obj 95 394 list store;
#X msg 95 370 get \$1 1;
#X obj 95 347 % 7;
#X obj 95 268 t f f;
#X obj 122 292 div 7;
#X obj 122 315 * 12;
#X obj 95 417 + 0, f 5;
#X obj 360 276 list length;
#X obj 95 13 inlet;
#X obj 333 13 inlet;
#X obj 333 68 t a a;
#X obj 95 479 outlet;
#X obj 95 66 f 0;
#X obj 144 186 % 7;
#X obj 144 164 * 6;
#X obj 159 142 - 1;
#X obj 95 238 spigot;
#X obj 144 238 spigot;
#X obj 221 198 random 2;
#X obj 95 112 t f f f;
#X obj 221 128 sel 0;
#X obj 221 221 t f f, f 8;
#X obj 221 244 == 0;
#X obj 266 244 == 1;
#X obj 132 66 + \$2;
#X obj 169 66 % \$3;
#X obj 95 175 + \$4;
#X obj 114 141 + \$4;
#X obj 153 13 inlet;
#X obj 190 13 inlet;
#X obj 236 13 inlet;
#X connect 0 0 6 0;
#X connect 1 0 0 0;
#X connect 2 0 1 0;
#X connect 3 0 2 0;
#X connect 3 1 4 0;
#X connect 4 0 5 0;
#X connect 5 0 6 1;
#X connect 6 0 11 0;
#X connect 7 0 4 1;
#X connect 7 0 2 1;
#X connect 7 0 13 1;
#X connect 7 0 15 0;
#X connect 8 0 12 0;
#X connect 9 0 10 0;
#X connect 10 0 0 1;
#X connect 10 1 7 0;
#X connect 12 0 24 0;
#X connect 12 0 19 0;
#X connect 13 0 17 0;
#X connect 14 0 13 0;
#X connect 15 0 14 1;
#X connect 16 0 3 0;
#X connect 17 0 3 0;
#X connect 18 0 21 0;
#X connect 19 0 26 0;
#X connect 19 1 27 0;
#X connect 19 2 20 0;
#X connect 20 0 18 0;
#X connect 21 0 22 0;
#X connect 21 1 23 0;
#X connect 22 0 16 1;
#X connect 23 0 17 1;
#X connect 24 0 25 0;
#X connect 25 0 12 1;
#X connect 26 0 16 0;
#X connect 27 0 14 0;
#X connect 28 0 24 1;
#X connect 29 0 25 1;
#X connect 30 0 27 1;
#X connect 30 0 26 1;
