#N canvas 335 253 785 403 10;
#X obj 270 132 array define ratios 8;
#X obj 243 106 t b b;
#X obj 243 181 array set ratios;
#X obj 96 132 array get ratios;
#X floatatom 96 155 5 0 0 0 - - -;
#X obj 96 177 expr $f1 * $f2;
#X obj 177 155 mtof;
#X obj 96 200 ftom;
#X obj 96 325 outlet;
#X msg 243 158 1 1.125 1.25 1.33333 1.5 1.66667 1.875;
#X obj 96 108 % 7;
#X obj 96 70 t f f;
#X obj 177 86 div 7;
#X obj 177 109 * 12;
#X obj 243 59 loadbang;
#X obj 96 22 inlet;
#X connect 1 0 9 0;
#X connect 1 1 0 0;
#X connect 3 0 4 0;
#X connect 4 0 5 0;
#X connect 5 0 7 0;
#X connect 6 0 5 1;
#X connect 7 0 8 0;
#X connect 9 0 2 0;
#X connect 10 0 3 0;
#X connect 11 0 10 0;
#X connect 11 1 12 0;
#X connect 12 0 13 0;
#X connect 13 0 6 0;
#X connect 14 0 1 0;
#X connect 15 0 11 0;
