#N canvas 327 116 886 636 10;
#X obj 282 16 inlet;
#X obj 72 71 bng 15 250 50 0 empty empty init 17 7 0 10 -262144 -1
-1;
#X obj 72 285 f 100;
#X obj 217 285 expr $f1*5/4;
#X floatatom 72 308 5 0 0 0 - - -;
#X floatatom 217 308 5 0 0 0 - - -;
#X obj 373 285 expr $f1*6/5;
#X floatatom 373 308 5 0 0 0 - - -;
#X obj 508 285 expr $f1*5/4;
#X floatatom 508 308 5 0 0 0 - - -;
#X obj 282 71 bng 15 250 50 0 empty empty trg -20 7 0 10 -262144 -99865
-1;
#X obj 97 146 random 4;
#X obj 97 169 sel 0 1 2 3, f 93;
#X obj 57 347 f;
#X obj 85 347 f;
#X obj 112 347 f;
#X obj 139 347 f;
#X obj 57 370 expr $f1*25/24;
#X floatatom 57 393 5 0 0 1 +_semitone - -;
#X floatatom 85 441 5 0 0 1 --_semitone - -;
#X obj 85 418 expr $f1*24/25;
#X floatatom 112 493 5 0 0 1 +_tone - -;
#X floatatom 140 541 5 0 0 1 --_tone - -;
#X obj 112 470 expr $f1*9/8;
#X obj 139 518 expr $f1*8/9;
#X obj 97 192 random 4;
#X obj 97 215 sel 0 1 2 3;
#X obj 97 237 bng 15 250 50 0 empty empty empty 17 7 0 10 -262144 -1
-1;
#X obj 115 237 bng 15 250 50 0 empty empty empty 17 7 0 10 -262144
-1 -1;
#X obj 133 237 bng 15 250 50 0 empty empty empty 17 7 0 10 -262144
-1 -1;
#X obj 152 237 bng 15 250 50 0 empty empty empty 17 7 0 10 -262144
-1 -1;
#X obj 235 192 random 4;
#X obj 235 215 sel 0 1 2 3;
#X obj 235 237 bng 15 250 50 0 empty empty empty 17 7 0 10 -262144
-1 -1;
#X obj 253 237 bng 15 250 50 0 empty empty empty 17 7 0 10 -262144
-1 -1;
#X obj 271 237 bng 15 250 50 0 empty empty empty 17 7 0 10 -262144
-1 -1;
#X obj 290 237 bng 15 250 50 0 empty empty empty 17 7 0 10 -262144
-1 -1;
#X obj 374 192 random 4;
#X obj 374 215 sel 0 1 2 3;
#X obj 374 237 bng 15 250 50 0 empty empty empty 17 7 0 10 -262144
-1 -1;
#X obj 392 237 bng 15 250 50 0 empty empty empty 17 7 0 10 -262144
-1 -1;
#X obj 410 237 bng 15 250 50 0 empty empty empty 17 7 0 10 -262144
-1 -1;
#X obj 429 237 bng 15 250 50 0 empty empty empty 17 7 0 10 -262144
-1 -1;
#X obj 511 192 random 4;
#X obj 511 215 sel 0 1 2 3;
#X obj 511 237 bng 15 250 50 0 empty empty empty 17 7 0 10 -262144
-1 -1;
#X obj 529 237 bng 15 250 50 0 empty empty empty 17 7 0 10 -262144
-1 -1;
#X obj 547 237 bng 15 250 50 0 empty empty empty 17 7 0 10 -262144
-1 -1;
#X obj 566 237 bng 15 250 50 0 empty empty empty 17 7 0 10 -262144
-1 -1;
#X obj 202 347 f;
#X obj 230 347 f;
#X obj 257 347 f;
#X obj 284 347 f;
#X obj 202 370 expr $f1*25/24;
#X floatatom 202 393 5 0 0 1 +_semitone - -;
#X floatatom 230 441 5 0 0 1 --_semitone - -;
#X obj 230 418 expr $f1*24/25;
#X floatatom 257 493 5 0 0 1 +_tone - -;
#X floatatom 285 541 5 0 0 1 --_tone - -;
#X obj 257 470 expr $f1*9/8;
#X obj 284 518 expr $f1*8/9;
#X obj 358 347 f;
#X obj 386 347 f;
#X obj 413 347 f;
#X obj 440 347 f;
#X obj 358 370 expr $f1*25/24;
#X floatatom 358 393 5 0 0 1 +_semitone - -;
#X floatatom 386 441 5 0 0 1 --_semitone - -;
#X obj 386 418 expr $f1*24/25;
#X floatatom 413 493 5 0 0 1 +_tone - -;
#X floatatom 441 541 5 0 0 1 --_tone - -;
#X obj 413 470 expr $f1*9/8;
#X obj 440 518 expr $f1*8/9;
#X obj 493 347 f;
#X obj 521 347 f;
#X obj 548 347 f;
#X obj 575 347 f;
#X obj 493 370 expr $f1*25/24;
#X floatatom 493 393 5 0 0 1 +_semitone - -;
#X floatatom 521 441 5 0 0 1 --_semitone - -;
#X obj 521 418 expr $f1*24/25;
#X floatatom 548 493 5 0 0 1 +_tone - -;
#X floatatom 576 541 5 0 0 1 --_tone - -;
#X obj 548 470 expr $f1*9/8;
#X obj 575 518 expr $f1*8/9;
#X floatatom 57 584 5 0 0 0 - - -;
#X floatatom 202 584 5 0 0 0 - - -;
#X floatatom 358 584 5 0 0 0 - - -;
#X floatatom 493 584 5 0 0 0 - - -;
#X obj 57 606 outlet;
#X obj 202 606 outlet;
#X obj 358 606 outlet;
#X obj 493 606 outlet;
#X obj 72 92 nbx 5 14 -1e+37 1e+37 0 0 empty empty empty 0 -8 0 10
-162280 -262144 -1 337.5 256;
#X obj 129 92 nbx 5 14 -1e+37 1e+37 0 0 empty empty empty 0 -8 0 10
-162280 -262144 -1 421.875 256;
#X obj 186 92 nbx 5 14 -1e+37 1e+37 0 0 empty empty empty 0 -8 0 10
-162280 -262144 -1 400 256;
#X obj 243 92 nbx 5 14 -1e+37 1e+37 0 0 empty empty empty 0 -8 0 10
-162280 -262144 -1 632.812 256;
#X floatatom 129 71 5 0 0 1 set - -;
#X connect 0 0 10 0;
#X connect 1 0 2 0;
#X connect 2 0 4 0;
#X connect 3 0 5 0;
#X connect 4 0 3 0;
#X connect 4 0 13 1;
#X connect 4 0 14 1;
#X connect 4 0 15 1;
#X connect 4 0 16 1;
#X connect 4 0 85 0;
#X connect 5 0 6 0;
#X connect 5 0 49 1;
#X connect 5 0 52 1;
#X connect 5 0 51 1;
#X connect 5 0 50 1;
#X connect 5 0 86 0;
#X connect 6 0 7 0;
#X connect 7 0 8 0;
#X connect 7 0 61 1;
#X connect 7 0 62 1;
#X connect 7 0 63 1;
#X connect 7 0 64 1;
#X connect 7 0 87 0;
#X connect 8 0 9 0;
#X connect 9 0 73 1;
#X connect 9 0 76 1;
#X connect 9 0 75 1;
#X connect 9 0 74 1;
#X connect 9 0 88 0;
#X connect 10 0 11 0;
#X connect 11 0 12 0;
#X connect 12 0 25 0;
#X connect 12 1 31 0;
#X connect 12 2 37 0;
#X connect 12 3 43 0;
#X connect 13 0 17 0;
#X connect 14 0 20 0;
#X connect 15 0 23 0;
#X connect 16 0 24 0;
#X connect 17 0 18 0;
#X connect 18 0 85 0;
#X connect 19 0 85 0;
#X connect 20 0 19 0;
#X connect 21 0 85 0;
#X connect 22 0 85 0;
#X connect 23 0 21 0;
#X connect 24 0 22 0;
#X connect 25 0 26 0;
#X connect 26 0 27 0;
#X connect 26 1 28 0;
#X connect 26 2 29 0;
#X connect 26 3 30 0;
#X connect 27 0 13 0;
#X connect 28 0 14 0;
#X connect 29 0 15 0;
#X connect 30 0 16 0;
#X connect 31 0 32 0;
#X connect 32 0 33 0;
#X connect 32 1 34 0;
#X connect 32 2 35 0;
#X connect 32 3 36 0;
#X connect 33 0 49 0;
#X connect 34 0 50 0;
#X connect 35 0 51 0;
#X connect 36 0 52 0;
#X connect 37 0 38 0;
#X connect 38 0 39 0;
#X connect 38 1 40 0;
#X connect 38 2 41 0;
#X connect 38 3 42 0;
#X connect 39 0 61 0;
#X connect 40 0 62 0;
#X connect 41 0 63 0;
#X connect 42 0 64 0;
#X connect 43 0 44 0;
#X connect 44 0 45 0;
#X connect 44 1 46 0;
#X connect 44 2 47 0;
#X connect 44 3 48 0;
#X connect 45 0 73 0;
#X connect 46 0 74 0;
#X connect 47 0 75 0;
#X connect 48 0 76 0;
#X connect 49 0 53 0;
#X connect 50 0 56 0;
#X connect 51 0 59 0;
#X connect 52 0 60 0;
#X connect 53 0 54 0;
#X connect 54 0 86 0;
#X connect 55 0 86 0;
#X connect 56 0 55 0;
#X connect 57 0 86 0;
#X connect 58 0 86 0;
#X connect 59 0 57 0;
#X connect 60 0 58 0;
#X connect 61 0 65 0;
#X connect 62 0 68 0;
#X connect 63 0 71 0;
#X connect 64 0 72 0;
#X connect 65 0 66 0;
#X connect 66 0 87 0;
#X connect 67 0 87 0;
#X connect 68 0 67 0;
#X connect 69 0 87 0;
#X connect 70 0 87 0;
#X connect 71 0 69 0;
#X connect 72 0 70 0;
#X connect 73 0 77 0;
#X connect 74 0 80 0;
#X connect 75 0 83 0;
#X connect 76 0 84 0;
#X connect 77 0 78 0;
#X connect 78 0 88 0;
#X connect 79 0 88 0;
#X connect 80 0 79 0;
#X connect 81 0 88 0;
#X connect 82 0 88 0;
#X connect 83 0 81 0;
#X connect 84 0 82 0;
#X connect 85 0 89 0;
#X connect 85 0 93 0;
#X connect 86 0 90 0;
#X connect 86 0 94 0;
#X connect 87 0 91 0;
#X connect 87 0 95 0;
#X connect 88 0 92 0;
#X connect 88 0 96 0;
#X connect 97 0 2 1;
#X coords 0 -1 1 1 240 70 1 65 45;
