#N canvas 404 191 985 512 10;
#X obj 55 109 bng 15 250 50 0 empty empty trg 17 7 0 10 -262144 -1
-1;
#X obj 55 339 i;
#X obj 81 339 + 1;
#X obj 107 339 % 2;
#X floatatom 135 109 3 0 127 0 tone - -;
#X obj 55 7 inlet;
#X obj 555 9 inlet;
#X obj 555 69 t a a, f 10;
#N canvas 0 50 450 250 (subpatch) 0;
#X array \$0-seq 4 float 3;
#A 0 0 2 4 7;
#X coords 0 15 4 -15 100 35 1 0 0;
#X restore 55 69 graph;
#X obj 555 148 array set \$0-seq;
#X obj 612 95 list length;
#X obj 664 134 array size \$0-seq;
#X obj 612 118 t f f;
#X obj 55 362 array get \$0-seq;
#X floatatom 55 385 5 0 0 0 - - -;
#X obj 55 407 + 0;
#X obj 165 339 i;
#X obj 191 339 + 1;
#X obj 217 339 % 2;
#X obj 165 362 array get \$0-seq;
#X floatatom 165 385 5 0 0 0 - - -;
#X obj 165 407 + 0;
#X obj 165 430 spigot;
#X obj 55 141 tgl 15 0 empty empty on 0 -7 0 10 -228856 -1 -1 1 1;
#X obj 165 264 i;
#X obj 191 264 + 1;
#X obj 217 264 % 2;
#X obj 165 287 sel 0;
#X obj 86 141 nbx 2 15 1 99 0 0 empty empty jump 0 -7 0 10 -228856
-1 -1 1 256;
#X obj 128 141 nbx 2 15 1 99 0 0 empty empty every 0 -7 0 10 -228856
-1 -1 1 256;
#X obj 55 239 t b b b b b, f 74;
#X obj 55 159 tgl 15 0 empty empty empty 0 -7 0 10 -191407 -1 -1 1
1;
#X obj 86 159 nbx 2 15 1 99 0 0 empty empty empty 0 -7 0 10 -191407
-1 -1 5 256;
#X obj 128 159 nbx 2 15 1 99 0 0 empty empty empty 0 -7 0 10 -191407
-1 -1 2 256;
#X obj 275 339 i;
#X obj 301 339 + 1;
#X obj 327 339 % 2;
#X obj 275 362 array get \$0-seq;
#X floatatom 275 385 5 0 0 0 - - -;
#X obj 275 407 + 0;
#X obj 275 430 spigot;
#X obj 275 264 i;
#X obj 301 264 + 1;
#X obj 327 264 % 2;
#X obj 275 286 sel 0;
#X obj 385 339 i;
#X obj 411 339 + 1;
#X obj 437 339 % 2;
#X obj 385 362 array get \$0-seq;
#X floatatom 385 385 5 0 0 0 - - -;
#X obj 385 407 + 0;
#X obj 385 430 spigot;
#X obj 385 264 i;
#X obj 411 264 + 1;
#X obj 437 264 % 2;
#X obj 385 287 sel 0;
#X obj 496 339 i;
#X obj 522 339 + 1;
#X obj 548 339 % 2;
#X obj 496 362 array get \$0-seq;
#X floatatom 496 385 5 0 0 0 - - -;
#X obj 496 407 + 0;
#X obj 496 430 spigot;
#X obj 496 264 i;
#X obj 522 264 + 1;
#X obj 548 264 % 2;
#X obj 496 287 sel 0;
#X obj 55 177 tgl 15 0 empty empty empty 0 -7 0 10 -162280 -1 -1 1
1;
#X obj 86 177 nbx 2 15 1 99 0 0 empty empty empty 0 -7 0 10 -162280
-1 -1 2 256;
#X obj 128 177 nbx 2 15 1 99 0 0 empty empty empty 0 -7 0 10 -162280
-1 -1 3 256;
#X obj 55 195 tgl 15 0 empty empty empty 0 -7 0 10 -128992 -1 -1 1
1;
#X obj 86 195 nbx 2 15 1 99 0 0 empty empty empty 0 -7 0 10 -128992
-1 -1 6 256;
#X obj 128 195 nbx 2 15 1 99 0 0 empty empty empty 0 -7 0 10 -128992
-1 -1 4 256;
#X obj 140 51 bng 15 250 50 0 empty empty empty 17 7 0 10 -262144 -1
-1;
#X obj 55 459 outlet;
#X obj 165 459 outlet;
#X obj 275 459 outlet;
#X obj 385 459 outlet;
#X obj 496 459 outlet;
#X obj 165 310 bang;
#X obj 275 309 bang;
#X obj 385 310 bang;
#X obj 496 310 bang;
#X msg 298 64 0;
#X connect 0 0 30 0;
#X connect 1 0 2 0;
#X connect 1 0 13 0;
#X connect 2 0 3 0;
#X connect 3 0 1 1;
#X connect 4 0 15 1;
#X connect 4 0 61 1;
#X connect 4 0 50 1;
#X connect 4 0 39 1;
#X connect 4 0 21 1;
#X connect 5 0 0 0;
#X connect 6 0 7 0;
#X connect 7 0 9 0;
#X connect 7 1 10 0;
#X connect 10 0 12 0;
#X connect 12 0 26 1;
#X connect 12 0 18 1;
#X connect 12 0 3 1;
#X connect 12 0 43 1;
#X connect 12 0 36 1;
#X connect 12 0 54 1;
#X connect 12 0 47 1;
#X connect 12 0 65 1;
#X connect 12 0 58 1;
#X connect 12 1 11 0;
#X connect 13 0 14 0;
#X connect 14 0 15 0;
#X connect 15 0 74 0;
#X connect 16 0 17 0;
#X connect 16 0 19 0;
#X connect 17 0 18 0;
#X connect 18 0 16 1;
#X connect 19 0 20 0;
#X connect 20 0 21 0;
#X connect 21 0 22 0;
#X connect 22 0 75 0;
#X connect 23 0 22 1;
#X connect 24 0 25 0;
#X connect 24 0 27 0;
#X connect 25 0 26 0;
#X connect 26 0 24 1;
#X connect 27 0 79 0;
#X connect 28 0 17 1;
#X connect 29 0 26 1;
#X connect 30 0 1 0;
#X connect 30 1 24 0;
#X connect 30 2 41 0;
#X connect 30 3 52 0;
#X connect 30 4 63 0;
#X connect 31 0 40 1;
#X connect 32 0 35 1;
#X connect 33 0 43 1;
#X connect 34 0 35 0;
#X connect 34 0 37 0;
#X connect 35 0 36 0;
#X connect 36 0 34 1;
#X connect 37 0 38 0;
#X connect 38 0 39 0;
#X connect 39 0 40 0;
#X connect 40 0 76 0;
#X connect 41 0 42 0;
#X connect 41 0 44 0;
#X connect 42 0 43 0;
#X connect 43 0 41 1;
#X connect 44 0 80 0;
#X connect 45 0 46 0;
#X connect 45 0 48 0;
#X connect 46 0 47 0;
#X connect 47 0 45 1;
#X connect 48 0 49 0;
#X connect 49 0 50 0;
#X connect 50 0 51 0;
#X connect 51 0 77 0;
#X connect 52 0 53 0;
#X connect 52 0 55 0;
#X connect 53 0 54 0;
#X connect 54 0 52 1;
#X connect 55 0 81 0;
#X connect 56 0 57 0;
#X connect 56 0 59 0;
#X connect 57 0 58 0;
#X connect 58 0 56 1;
#X connect 59 0 60 0;
#X connect 60 0 61 0;
#X connect 61 0 62 0;
#X connect 62 0 78 0;
#X connect 63 0 64 0;
#X connect 63 0 66 0;
#X connect 64 0 65 0;
#X connect 65 0 63 1;
#X connect 66 0 82 0;
#X connect 67 0 51 1;
#X connect 68 0 46 1;
#X connect 69 0 54 1;
#X connect 70 0 62 1;
#X connect 71 0 57 1;
#X connect 72 0 65 1;
#X connect 73 0 83 0;
#X connect 79 0 16 0;
#X connect 80 0 34 0;
#X connect 81 0 45 0;
#X connect 82 0 56 0;
#X connect 83 0 24 1;
#X connect 83 0 52 1;
#X connect 83 0 41 1;
#X connect 83 0 63 1;
#X connect 83 0 1 1;
#X connect 83 0 16 1;
#X connect 83 0 34 1;
#X connect 83 0 45 1;
#X connect 83 0 56 1;
#X coords 0 -1 1 1 120 190 1 45 30;
