#N canvas 724 164 478 488 10;
#X obj 244 271 *~;
#X obj 53 125 mtof;
#X obj 53 239 delread4~ \$0-delay;
#X obj 245 298 +~;
#X obj 243 41 inlet~;
#X obj 245 408 outlet~;
#X obj 245 368 clip~ -1 1;
#X obj 53 102 clip 0 127;
#X obj 53 172 /;
#X msg 53 148 1000 \$1;
#X obj 53 72 t f b;
#X obj 53 38 inlet;
#X floatatom 53 217 5 0 0 0 - - -;
#X obj 53 281 *~ 0.99;
#X obj 52 314 delwrite~ \$0-delay 1000;
#X obj 245 321 lop~ 6000;
#X obj 245 344 hip~ 6;
#X obj 292 255 vline~;
#X obj 53 195 / 1, f 16;
#X obj 146 111 clip 1 8;
#X msg 292 232 1 3 \, 0 \$1 3;
#X obj 146 88 f \$2;
#X connect 0 0 3 1;
#X connect 1 0 9 0;
#X connect 2 0 13 0;
#X connect 3 0 14 0;
#X connect 3 0 15 0;
#X connect 4 0 0 0;
#X connect 6 0 5 0;
#X connect 7 0 1 0;
#X connect 8 0 18 0;
#X connect 9 0 8 0;
#X connect 10 0 7 0;
#X connect 10 1 21 0;
#X connect 11 0 10 0;
#X connect 12 0 2 0;
#X connect 12 0 20 0;
#X connect 13 0 3 0;
#X connect 15 0 16 0;
#X connect 16 0 6 0;
#X connect 17 0 0 1;
#X connect 18 0 12 0;
#X connect 19 0 18 1;
#X connect 20 0 17 0;
#X connect 21 0 19 0;
