#N canvas 323 171 942 455 10;
#X obj 117 201 line~;
#X obj 69 217 *~;
#X floatatom 253 163 5 0 0 0 - - -;
#X obj 253 94 mtof;
#X obj 253 140 /;
#X msg 253 117 1000 \$1;
#X obj 253 71 clip 20 120;
#X obj 253 185 delread4~ \$0-delay;
#X obj 253 231 lop~ 3000;
#X obj 253 254 hip~ 30;
#X obj 70 269 +~;
#X msg 117 178 1 \, 0 \$1;
#X obj 252 285 delwrite~ \$0-delay 100;
#X obj 68 31 inlet~;
#X obj 253 34 inlet;
#X obj 69 363 outlet~;
#X obj 97 93 hsl 50 15 100 6000 0 0 empty empty empty -2 -8 0 10 -262144
-1 -1 4900 1;
#X obj 152 93 nbx 5 15 -1e+37 1e+37 0 0 empty empty lpf 58 7 0 10 -262144
-1 -1 6000 256;
#X obj 97 112 hsl 50 15 0 1000 0 0 empty empty empty -2 -8 0 10 -228856
-1 -1 0 1;
#X obj 152 112 nbx 5 15 -1e+37 1e+37 0 0 empty empty hpf 58 7 0 10
-228856 -1 -1 0 256;
#X obj 70 321 clip~ -1 1;
#X obj 253 208 *~ 0.8;
#X obj 97 130 hsl 50 15 0.5 0.99 1 0 empty empty empty -2 -8 0 10 -1
-262144 -1 4900 1;
#X obj 152 130 nbx 5 15 -1e+37 1e+37 0 0 empty empty res 58 7 0 10
-1 -262144 -1 0.99 256;
#X connect 0 0 1 1;
#X connect 1 0 10 0;
#X connect 2 0 11 0;
#X connect 2 0 7 0;
#X connect 3 0 5 0;
#X connect 4 0 2 0;
#X connect 5 0 4 0;
#X connect 6 0 3 0;
#X connect 7 0 21 0;
#X connect 8 0 9 0;
#X connect 9 0 10 1;
#X connect 10 0 12 0;
#X connect 10 0 20 0;
#X connect 11 0 0 0;
#X connect 13 0 1 0;
#X connect 14 0 6 0;
#X connect 16 0 17 0;
#X connect 17 0 8 1;
#X connect 18 0 19 0;
#X connect 19 0 9 1;
#X connect 20 0 15 0;
#X connect 21 0 8 0;
#X connect 22 0 23 0;
#X connect 23 0 21 1;
#X coords 0 -1 1 1 150 90 1 85 65;
