#N canvas 6 205 724 519 10;
#X obj 479 294 *~;
#X obj 53 125 mtof;
#X obj 53 254 delread4~ \$0-delay;
#X obj 464 344 +~;
#X obj 478 34 inlet~;
#X obj 464 451 outlet~;
#X obj 464 411 clip~ -1 1;
#X obj 53 102 clip 0 127;
#X obj 53 172 /;
#X msg 53 148 1000 \$1;
#X obj 53 72 t f b;
#X obj 53 34 inlet;
#X floatatom 53 217 5 0 0 0 - - -;
#X obj 493 271 vline~;
#X obj 53 195 / 1, f 13;
#X obj 128 88 f \$2;
#X obj 544 34 block~ 16;
#X obj 52 360 delwrite~ \$0-delay 100;
#X obj 464 387 hip~ 5;
#X obj 53 304 *~ \$3, f 28;
#X obj 149 34 inlet;
#X obj 218 34 inlet;
#X msg 218 146 \$1 100;
#X obj 218 169 line;
#X msg 232 255 1 \$2 \, 0 \$1 \$3;
#X obj 278 34 inlet;
#X msg 278 146 \$1 100;
#X obj 278 169 line;
#X obj 325 34 inlet;
#X msg 325 146 \$1 100;
#X obj 325 169 line;
#X obj 374 34 inlet;
#X msg 374 146 \$1 100;
#X obj 374 169 line;
#X obj 421 34 inlet;
#X msg 421 146 \$1 100;
#X obj 421 169 line;
#X obj 232 232 pack 0 \$4 \$5, f 16;
#X obj 53 327 lop~ \$6, f 54;
#X obj 478 232 lop~ \$7;
#X obj 218 88 clip 0.5 0.995;
#X obj 128 111 clip 0.25 4;
#X obj 325 88 clip 1 5000;
#X obj 278 111 clip 1 1000;
#X connect 0 0 3 1;
#X connect 1 0 9 0;
#X connect 2 0 19 0;
#X connect 3 0 17 0;
#X connect 3 0 18 0;
#X connect 4 0 39 0;
#X connect 6 0 5 0;
#X connect 7 0 1 0;
#X connect 8 0 14 0;
#X connect 9 0 8 0;
#X connect 10 0 7 0;
#X connect 10 1 15 0;
#X connect 11 0 10 0;
#X connect 12 0 2 0;
#X connect 12 0 37 0;
#X connect 13 0 0 1;
#X connect 14 0 12 0;
#X connect 15 0 41 0;
#X connect 18 0 6 0;
#X connect 19 0 38 0;
#X connect 20 0 15 1;
#X connect 21 0 40 0;
#X connect 22 0 23 0;
#X connect 23 0 19 1;
#X connect 24 0 13 0;
#X connect 25 0 43 0;
#X connect 26 0 27 0;
#X connect 27 0 37 1;
#X connect 28 0 42 0;
#X connect 29 0 30 0;
#X connect 30 0 37 2;
#X connect 31 0 32 0;
#X connect 32 0 33 0;
#X connect 33 0 38 1;
#X connect 34 0 35 0;
#X connect 35 0 36 0;
#X connect 36 0 39 1;
#X connect 37 0 24 0;
#X connect 38 0 3 0;
#X connect 39 0 0 0;
#X connect 40 0 22 0;
#X connect 41 0 14 1;
#X connect 42 0 29 0;
#X connect 43 0 26 0;
