#N canvas 332 255 902 507 10;
#X obj 92 25 inlet~;
#X floatatom 135 79 5 0 0 0 - - -;
#X obj 135 101 - 100;
#X floatatom 135 124 5 0 0 1 input_dB - -;
#X obj 135 146 >;
#X obj 135 169 sel 0;
#X obj 135 193 bng 15 250 50 0 empty empty empty 17 7 0 10 -262144
-1 -1;
#X obj 162 193 bng 15 250 50 0 empty empty empty 17 7 0 10 -262144
-1 -1;
#X floatatom 279 131 5 0 0 1 threshold - -;
#X obj 199 169 -;
#X floatatom 199 192 5 0 0 0 - - -;
#X obj 199 214 /;
#X floatatom 279 152 5 0 0 1 ratio - -;
#X floatatom 199 237 5 0 0 0 - - -;
#X obj 199 259 +;
#X floatatom 199 282 5 0 0 0 - - -;
#X obj 199 304 -;
#X floatatom 199 327 5 0 0 1 gain_dB - -;
#X obj 199 349 / 20;
#X msg 162 349 10;
#X obj 162 375 pow;
#X floatatom 162 398 5 0 0 0 - - -;
#X msg 135 375 1;
#X obj 92 413 *~;
#X obj 92 436 outlet~;
#X obj 279 173 bng 15 250 50 0 empty empty working 35 7 0 10 -262144
-191407 -1;
#X obj 135 56 env~ 48000;
#X connect 0 0 23 0;
#X connect 0 0 26 0;
#X connect 1 0 2 0;
#X connect 2 0 3 0;
#X connect 3 0 4 0;
#X connect 3 0 9 0;
#X connect 3 0 16 1;
#X connect 4 0 5 0;
#X connect 5 0 6 0;
#X connect 5 1 7 0;
#X connect 6 0 22 0;
#X connect 7 0 19 0;
#X connect 7 0 25 0;
#X connect 8 0 4 1;
#X connect 8 0 9 1;
#X connect 8 0 14 1;
#X connect 9 0 10 0;
#X connect 10 0 11 0;
#X connect 11 0 13 0;
#X connect 12 0 11 1;
#X connect 13 0 14 0;
#X connect 14 0 15 0;
#X connect 15 0 16 0;
#X connect 16 0 17 0;
#X connect 17 0 18 0;
#X connect 18 0 20 1;
#X connect 19 0 20 0;
#X connect 20 0 21 0;
#X connect 21 0 23 1;
#X connect 22 0 21 0;
#X connect 23 0 24 0;
#X connect 26 0 1 0;
#X coords 0 -1 1 1 105 95 1 270 100;
