#N canvas 377 184 756 480 10;
#X obj 139 31 inlet;
#X obj 211 31 inlet;
#X obj 211 144 list length;
#X obj 139 243 list store, f 17;
#X obj 211 122 t a a;
#X obj 139 167 f 0;
#X obj 165 167 + 1;
#X obj 191 167 % 2;
#X msg 139 220 get \$1 1;
#X obj 139 266 +;
#X obj 139 289 -;
#X obj 139 368 outlet;
#X obj 139 97 t b b b, f 54;
#X obj 371 31 inlet;
#X obj 371 144 list length;
#X obj 299 250 list store, f 17;
#X obj 371 122 t a a;
#X obj 299 167 f 0;
#X obj 325 167 + 1;
#X obj 351 167 % 2;
#X msg 299 220 get \$1 1;
#X obj 532 31 inlet;
#X obj 532 144 list length;
#X obj 460 273 list store, f 17;
#X obj 532 122 t a a;
#X obj 460 167 f 0;
#X obj 486 167 + 1;
#X obj 512 167 % 2;
#X msg 460 220 get \$1 1;
#X obj 139 190 t f f;
#X obj 254 206 sel 0;
#X obj 254 300 f 0, f 8;
#X obj 254 372 outlet;
#X obj 299 190 t f f;
#X obj 415 206 sel 0;
#X obj 415 300 f 0, f 8;
#X obj 415 372 outlet;
#X obj 314 49 r sync;
#X msg 314 72 0;
#X connect 0 0 12 0;
#X connect 1 0 4 0;
#X connect 2 0 7 1;
#X connect 3 0 9 0;
#X connect 4 0 2 0;
#X connect 4 1 3 1;
#X connect 5 0 6 0;
#X connect 5 0 29 0;
#X connect 6 0 7 0;
#X connect 7 0 5 1;
#X connect 8 0 3 0;
#X connect 9 0 10 0;
#X connect 10 0 11 0;
#X connect 12 0 5 0;
#X connect 12 1 17 0;
#X connect 12 2 25 0;
#X connect 13 0 16 0;
#X connect 14 0 19 1;
#X connect 15 0 9 1;
#X connect 15 0 31 1;
#X connect 16 0 14 0;
#X connect 16 1 15 1;
#X connect 17 0 18 0;
#X connect 17 0 33 0;
#X connect 18 0 19 0;
#X connect 19 0 17 1;
#X connect 20 0 15 0;
#X connect 21 0 24 0;
#X connect 22 0 27 1;
#X connect 23 0 10 1;
#X connect 23 0 35 1;
#X connect 24 0 22 0;
#X connect 24 1 23 1;
#X connect 25 0 26 0;
#X connect 25 0 28 0;
#X connect 26 0 27 0;
#X connect 27 0 25 1;
#X connect 28 0 23 0;
#X connect 29 0 8 0;
#X connect 29 1 30 0;
#X connect 30 0 31 0;
#X connect 31 0 32 0;
#X connect 33 0 20 0;
#X connect 33 1 34 0;
#X connect 34 0 35 0;
#X connect 35 0 36 0;
#X connect 37 0 38 0;
#X connect 38 0 17 1;
#X connect 38 0 25 1;
#X connect 38 0 5 1;
