#N canvas 827 170 450 592 10;
#X obj 81 275 adc~;
#X obj 79 487 clip~ -1 1;
#X floatatom 125 282 5 0 0 0 - - -;
#X obj 81 320 hip~;
#X obj 81 343 lop~;
#X floatatom 175 305 5 0 0 0 - - -;
#X floatatom 235 328 5 0 0 0 - - -;
#X obj 80 366 *~;
#X floatatom 295 351 5 0 0 0 - - -;
#X obj 197 400 sigmund~ -hop 4096 pitch;
#X obj 80 512 outlet~;
#X obj 242 511 outlet;
#X obj 81 297 *~ 0;
#X obj 86 53 hsl 40 15 0 25 0 0 empty empty IN-v 45 8 0 10 -262144
-1 -1 200 1;
#X obj 125 260 line;
#X msg 125 238 \$1 500;
#X obj 86 72 hsl 40 15 0 500 0 0 empty empty hip 45 8 0 10 -262144
-1 -1 2600 1;
#X obj 175 283 line;
#X msg 175 261 \$1 500;
#X obj 235 305 line;
#X msg 235 283 \$1 500;
#X obj 295 329 line;
#X msg 295 307 \$1 500;
#X obj 86 91 hsl 40 15 0 8000 0 0 empty empty lop 45 8 0 10 -262144
-1 -1 3400 1;
#X obj 86 110 hsl 40 15 0 1 0 0 empty empty vol 45 8 0 10 -262144 -1
-1 3000 1;
#X obj 197 423 moses 20;
#X connect 0 0 12 0;
#X connect 1 0 10 0;
#X connect 2 0 12 1;
#X connect 3 0 4 0;
#X connect 4 0 7 0;
#X connect 5 0 3 1;
#X connect 6 0 4 1;
#X connect 7 0 1 0;
#X connect 7 0 9 0;
#X connect 8 0 7 1;
#X connect 9 0 25 0;
#X connect 12 0 3 0;
#X connect 13 0 15 0;
#X connect 14 0 2 0;
#X connect 15 0 14 0;
#X connect 16 0 18 0;
#X connect 17 0 5 0;
#X connect 18 0 17 0;
#X connect 19 0 6 0;
#X connect 20 0 19 0;
#X connect 21 0 8 0;
#X connect 22 0 21 0;
#X connect 23 0 20 0;
#X connect 24 0 22 0;
#X connect 25 1 11 0;
#X coords 0 -1 1 1 85 115 1 75 20;
