#N canvas 25 135 519 607 10;
#X obj 69 71 f 0;
#X obj 96 71 + 1;
#X obj 123 71 % 4;
#X obj 69 31 inlet;
#X obj 207 31 inlet;
#X obj 207 93 t a a;
#X obj 138 117 sel 0;
#X obj 138 163 f 0;
#X obj 165 163 + 1;
#X obj 192 163 % 4;
#X obj 207 116 list length;
#X msg 138 186 get \$1 1;
#X obj 138 210 list store, f 12;
#X obj 153 31 r sync;
#X msg 153 54 0;
#X msg 111 354 0 1 2 3;
#X msg 171 354 0 2 1 3;
#X msg 232 354 0 1 2 0;
#X msg 293 354 0 2 1 0;
#X msg 126 378 0 1 3 0;
#X msg 186 378 0 3 1 0;
#X msg 247 378 0 2 3 0;
#X msg 308 378 0 3 2 0;
#X msg 140 402 3 2 1 0;
#X msg 200 402 3 1 2 0;
#X msg 261 402 3 1 2 3;
#X msg 322 402 3 2 1 3;
#X msg 154 426 3 1 0 3;
#X msg 214 426 3 0 1 3;
#X msg 275 426 3 2 0 3;
#X msg 336 426 3 0 2 3;
#X obj 111 278 random 16;
#X obj 111 327 sel 0 1 2 3 4 5 6 7 8 9 10 11 12 13 14 15;
#X obj 111 302 t f b;
#X obj 69 492 list store, f 13;
#X obj 69 94 t f f, f 12;
#X msg 69 468 get \$1 1;
#X obj 69 538 + 0, f 12;
#X obj 69 576 outlet;
#X obj 69 515 + 0, f 40;
#X obj 244 179 sel 0 1 2 3, f 21;
#X msg 244 202 0;
#X msg 305 202 2;
#X msg 336 202 4;
#X msg 367 202 0;
#X obj 244 156 random 6;
#X obj 138 233 t f f;
#X obj 69 255 spigot;
#X obj 180 233 sel 0;
#X msg 180 277 0;
#X msg 208 277 1;
#X obj 280 31 inlet;
#X msg 292 116 seed \$1;
#X obj 292 93 f 0;
#X obj 180 256 del 500;
#X msg 274 202 7;
#X obj 164 576 outlet;
#X obj 138 140 t b;
#X obj 280 54 t b f;
#X connect 0 0 1 0;
#X connect 0 0 35 0;
#X connect 1 0 2 0;
#X connect 2 0 0 1;
#X connect 3 0 0 0;
#X connect 4 0 5 0;
#X connect 5 0 10 0;
#X connect 5 1 12 1;
#X connect 6 0 57 0;
#X connect 7 0 8 0;
#X connect 7 0 11 0;
#X connect 8 0 9 0;
#X connect 9 0 7 1;
#X connect 10 0 9 1;
#X connect 11 0 12 0;
#X connect 12 0 46 0;
#X connect 13 0 14 0;
#X connect 14 0 0 1;
#X connect 14 0 7 1;
#X connect 15 0 34 1;
#X connect 16 0 34 1;
#X connect 17 0 34 1;
#X connect 18 0 34 1;
#X connect 19 0 34 1;
#X connect 20 0 34 1;
#X connect 21 0 34 1;
#X connect 22 0 34 1;
#X connect 23 0 34 1;
#X connect 24 0 34 1;
#X connect 25 0 34 1;
#X connect 26 0 34 1;
#X connect 27 0 34 1;
#X connect 28 0 34 1;
#X connect 29 0 34 1;
#X connect 30 0 34 1;
#X connect 31 0 33 0;
#X connect 32 0 15 0;
#X connect 32 1 19 0;
#X connect 32 2 23 0;
#X connect 32 3 27 0;
#X connect 32 4 16 0;
#X connect 32 5 20 0;
#X connect 32 6 24 0;
#X connect 32 7 28 0;
#X connect 32 8 17 0;
#X connect 32 9 21 0;
#X connect 32 10 25 0;
#X connect 32 11 29 0;
#X connect 32 12 18 0;
#X connect 32 13 22 0;
#X connect 32 14 26 0;
#X connect 32 15 30 0;
#X connect 33 0 32 0;
#X connect 33 1 34 1;
#X connect 33 1 45 0;
#X connect 34 0 39 0;
#X connect 35 0 47 0;
#X connect 35 1 6 0;
#X connect 36 0 34 0;
#X connect 37 0 38 0;
#X connect 39 0 37 0;
#X connect 40 0 41 0;
#X connect 40 1 55 0;
#X connect 40 2 42 0;
#X connect 40 3 43 0;
#X connect 40 4 44 0;
#X connect 41 0 39 1;
#X connect 42 0 39 1;
#X connect 43 0 39 1;
#X connect 44 0 39 1;
#X connect 45 0 40 0;
#X connect 46 0 37 1;
#X connect 46 1 48 0;
#X connect 46 1 56 0;
#X connect 47 0 36 0;
#X connect 48 0 54 0;
#X connect 48 1 50 0;
#X connect 49 0 47 1;
#X connect 50 0 47 1;
#X connect 51 0 58 0;
#X connect 52 0 45 0;
#X connect 53 0 52 0;
#X connect 54 0 49 0;
#X connect 55 0 39 1;
#X connect 57 0 7 0;
#X connect 57 0 53 0;
#X connect 58 0 45 0;
#X connect 58 0 31 0;
#X connect 58 1 53 1;
