#N canvas 607 229 450 464 10;
#X obj 52 21 inlet~;
#X obj 53 256 vcf~ 0.25;
#X obj 54 305 outlet~;
#X obj 104 21 inlet;
#X obj 77 207 vline~;
#X msg 77 184 \$1 \$2 \, 0 \$3 \$4;
#X obj 77 160 pack 0 0 0 0, f 16;
#X obj 77 113 f \$1;
#X obj 108 113 f \$2;
#X obj 139 113 f \$3;
#X obj 170 113 f \$4;
#X obj 203 113 f \$5;
#X obj 77 136 clip 0 10000;
#X obj 203 240 clip 0.25 20;
#X obj 104 44 t b b b b b, f 17;
#X connect 0 0 1 0;
#X connect 1 0 2 0;
#X connect 1 1 2 0;
#X connect 3 0 14 0;
#X connect 4 0 1 1;
#X connect 5 0 4 0;
#X connect 6 0 5 0;
#X connect 7 0 12 0;
#X connect 8 0 6 1;
#X connect 9 0 6 2;
#X connect 10 0 6 3;
#X connect 11 0 13 0;
#X connect 12 0 6 0;
#X connect 13 0 1 2;
#X connect 14 0 7 0;
#X connect 14 1 8 0;
#X connect 14 2 9 0;
#X connect 14 3 10 0;
#X connect 14 4 11 0;
