#N canvas 545 129 798 625 10;
#X obj 31 10 inlet;
#X obj 31 74 bng 15 250 50 0 empty empty get 17 7 0 10 -262144 -1 -1
;
#X obj 31 197 random;
#X obj 223 11 loadbang;
#X msg 223 55 0 1 2 3 4 5 6 7 8 9 10 11;
#X obj 223 78 t a a;
#X obj 223 181 list length;
#X obj 256 236 list store;
#X msg 31 220 get \$1 1;
#X obj 250 212 t a a, f 11;
#X obj 193 428 list store;
#X obj 193 314 tgl 15 0 empty empty empty 17 7 0 10 -262144 -1 -1 0
1;
#X obj 193 357 f 0;
#X obj 219 357 + 1;
#X obj 245 357 % 2;
#X obj 193 380 t f f, f 12;
#X msg 193 403 get \$1 1;
#X obj 262 403 sel 0;
#X obj 256 259 t f f, f 9;
#X obj 99 74 nbx 2 15 0 11 0 0 empty empty empty 0 20 0 10 -1 -262144
-1 2 256;
#X obj 220 476 !=, f 15;
#X obj 193 451 t f f;
#X obj 193 502 spigot;
#X msg 193 525 append \$1;
#X obj 193 548 list store;
#X obj 98 93 bng 30 250 50 0 empty empty CUT 0 40 0 10 -258113 -1 -1
;
#X obj 99 335 outlet;
#X obj 350 443 tgl 15 0 empty empty empty 17 7 0 10 -262144 -1 -1 0
1;
#X obj 350 486 f 0;
#X obj 376 486 + 1;
#X obj 402 486 % 2;
#X obj 350 509 t f f, f 12;
#X msg 350 532 get \$1 1;
#X obj 419 532 sel 0;
#X obj 350 392 bng 15 250 50 0 empty empty empty 17 7 0 10 -262144
-1 -1;
#X obj 350 412 t b b, f 9;
#X msg 349 564 append \$1;
#X obj 193 334 metro 20;
#X obj 350 463 metro 20;
#X obj 193 290 t b b b, f 20;
#X obj 31 112 bng 15 250 50 0 empty empty print 17 7 0 10 -262144 -191407
-1;
#X obj 382 251 print;
#X obj 350 354 del 1000;
#X obj 31 93 bng 15 250 50 0 empty empty reset 17 7 0 10 -262144 -1
-1;
#X obj 193 571 list length;
#X floatatom 193 594 5 0 0 0 - - -;
#X obj 86 570 bang;
#X obj 86 547 del 100;
#X connect 0 0 1 0;
#X connect 1 0 2 0;
#X connect 2 0 8 0;
#X connect 3 0 4 0;
#X connect 4 0 5 0;
#X connect 5 0 6 0;
#X connect 5 1 9 0;
#X connect 6 0 2 1;
#X connect 6 0 14 1;
#X connect 6 0 30 1;
#X connect 7 0 18 0;
#X connect 7 0 41 0;
#X connect 8 0 7 0;
#X connect 9 0 10 1;
#X connect 9 1 7 1;
#X connect 10 0 21 0;
#X connect 11 0 37 0;
#X connect 12 0 13 0;
#X connect 12 0 15 0;
#X connect 13 0 14 0;
#X connect 14 0 12 1;
#X connect 15 0 16 0;
#X connect 15 1 17 0;
#X connect 16 0 10 0;
#X connect 17 0 11 0;
#X connect 18 0 19 0;
#X connect 18 1 20 1;
#X connect 19 0 26 0;
#X connect 20 0 22 1;
#X connect 21 0 22 0;
#X connect 21 1 20 0;
#X connect 22 0 23 0;
#X connect 23 0 24 0;
#X connect 24 0 36 0;
#X connect 24 0 44 0;
#X connect 25 0 39 0;
#X connect 27 0 38 0;
#X connect 28 0 29 0;
#X connect 28 0 31 0;
#X connect 29 0 30 0;
#X connect 30 0 28 1;
#X connect 31 0 32 0;
#X connect 31 1 33 0;
#X connect 32 0 24 0;
#X connect 33 0 27 0;
#X connect 33 0 47 0;
#X connect 34 0 35 0;
#X connect 35 0 27 0;
#X connect 35 1 7 1;
#X connect 35 1 10 1;
#X connect 36 0 7 0;
#X connect 36 0 10 0;
#X connect 37 0 12 0;
#X connect 38 0 28 0;
#X connect 39 0 11 0;
#X connect 39 1 24 1;
#X connect 39 2 42 0;
#X connect 40 0 7 0;
#X connect 42 0 34 0;
#X connect 43 0 4 0;
#X connect 44 0 45 0;
#X connect 45 0 2 1;
#X connect 46 0 24 0;
#X connect 47 0 46 0;
#X coords 0 -1 1 1 110 100 1 25 45;
