#N canvas 555 116 594 646 10;
#X obj 109 27 inlet;
#X obj 109 99 t b b b b, f 33;
#X obj 109 122 t b b, f 7;
#X obj 109 146 i \$1;
#X obj 109 276 + 0;
#X obj 148 218 sel 0 1 2;
#X msg 148 260 0;
#X obj 162 308 + 0;
#X obj 218 292 random 12;
#X obj 288 325 random 12;
#X obj 186 427 t f f f, f 39;
#X obj 176 122 i \$2;
#X obj 239 121 i \$3;
#X obj 304 121 i \$4;
#X obj 417 450 ==;
#X floatatom 186 473 5 0 0 0 - - -;
#X floatatom 301 473 5 0 0 0 - - -;
#X floatatom 417 473 5 0 0 0 - - -;
#X obj 148 172 spigot;
#X obj 186 495 sel 1;
#X obj 218 172 spigot;
#X obj 288 172 spigot;
#X obj 301 495 sel 1;
#X obj 417 495 sel 1;
#X obj 417 548 unpack 0 0 0;
#X obj 217 27 loadbang;
#X obj 186 548 unpack 0 0 0;
#X obj 301 548 unpack 0 0 0;
#X msg 186 518 0 1 0;
#X obj 217 70 unpack 0 0 0;
#X msg 217 48 1 0 0;
#X msg 301 518 0 0 1;
#X msg 417 518 0 0 0;
#X obj 218 195 random 2;
#X obj 218 218 sel 0 1, f 8;
#X obj 288 195 random 2;
#X obj 288 218 sel 0 1, f 8;
#X obj 162 285 t b f;
#X obj 288 349 t b f;
#X obj 288 372 - 12;
#X obj 25 597 outlet;
#X obj 529 511 outlet;
#X obj 148 195 random 3, f 9;
#X obj 186 450 <;
#X obj 301 450 >;
#X obj 526 460 del 100;
#X obj 109 388 + 0;
#X obj 150 599 i \$2;
#X obj 109 411 t f f;
#X obj 109 487 spigot;
#X msg 182 599 0;
#X msg 299 601 0;
#X obj 267 601 i \$3;
#X floatatom 109 512 5 0 0 0 - - -;
#X obj 142 468 tgl 15 0 empty empty empty 17 7 0 10 -262144 -1 -1 1
1;
#X obj 150 576 t b b b, f 12;
#X obj 267 578 t b b b, f 12;
#X msg 366 602 1;
#X obj 366 579 del 1000;
#X obj 442 28 inlet;
#X msg 442 51 seed \$1;
#X connect 0 0 1 0;
#X connect 1 0 2 0;
#X connect 1 1 11 0;
#X connect 1 2 12 0;
#X connect 1 3 13 0;
#X connect 2 0 3 0;
#X connect 2 1 18 0;
#X connect 2 1 20 0;
#X connect 2 1 21 0;
#X connect 3 0 4 0;
#X connect 4 0 46 0;
#X connect 5 0 6 0;
#X connect 5 1 8 0;
#X connect 5 2 9 0;
#X connect 5 3 6 0;
#X connect 6 0 4 1;
#X connect 7 0 46 1;
#X connect 8 0 37 0;
#X connect 9 0 38 0;
#X connect 10 0 43 0;
#X connect 10 1 44 0;
#X connect 10 2 14 0;
#X connect 11 0 43 1;
#X connect 12 0 44 1;
#X connect 13 0 14 1;
#X connect 14 0 17 0;
#X connect 15 0 19 0;
#X connect 16 0 22 0;
#X connect 17 0 23 0;
#X connect 18 0 42 0;
#X connect 19 0 28 0;
#X connect 19 0 55 0;
#X connect 20 0 33 0;
#X connect 21 0 35 0;
#X connect 22 0 31 0;
#X connect 22 0 56 0;
#X connect 23 0 32 0;
#X connect 23 0 41 0;
#X connect 23 0 45 0;
#X connect 24 0 18 1;
#X connect 24 1 20 1;
#X connect 24 2 21 1;
#X connect 25 0 30 0;
#X connect 26 0 18 1;
#X connect 26 1 20 1;
#X connect 26 2 21 1;
#X connect 27 0 18 1;
#X connect 27 1 20 1;
#X connect 27 2 21 1;
#X connect 28 0 26 0;
#X connect 29 0 18 1;
#X connect 29 1 20 1;
#X connect 29 2 21 1;
#X connect 30 0 29 0;
#X connect 31 0 27 0;
#X connect 32 0 24 0;
#X connect 33 0 34 0;
#X connect 34 0 8 0;
#X connect 34 1 6 0;
#X connect 35 0 36 0;
#X connect 36 0 9 0;
#X connect 36 1 6 0;
#X connect 37 0 7 0;
#X connect 37 1 7 1;
#X connect 38 0 39 0;
#X connect 38 1 39 1;
#X connect 39 0 46 1;
#X connect 42 0 5 0;
#X connect 43 0 15 0;
#X connect 44 0 16 0;
#X connect 45 0 30 0;
#X connect 46 0 48 0;
#X connect 47 0 53 0;
#X connect 48 0 49 0;
#X connect 48 1 10 0;
#X connect 49 0 53 0;
#X connect 50 0 54 0;
#X connect 51 0 54 0;
#X connect 52 0 53 0;
#X connect 53 0 40 0;
#X connect 54 0 49 1;
#X connect 55 0 47 0;
#X connect 55 1 50 0;
#X connect 55 2 58 0;
#X connect 56 0 52 0;
#X connect 56 1 51 0;
#X connect 56 2 58 0;
#X connect 57 0 54 0;
#X connect 58 0 57 0;
#X connect 59 0 60 0;
#X connect 60 0 42 0;
#X connect 60 0 35 0;
#X connect 60 0 33 0;
#X connect 60 0 8 0;
#X connect 60 0 9 0;
