#N canvas 164 278 450 300 10;
#X obj 198 130 f 9;
#X obj 62 104 t f b b, f 46;
#X obj 62 242 outlet;
#X obj 62 34 inlet;
#X obj 213 34 inlet;
#X obj 356 34 inlet;
#X obj 335 131 f \$1;
#X obj 213 78 clip 1 9;
#X obj 62 154 expr (log(($f1/$f3)*$f2 + 1) / 2.302585) * $f3;
#X obj 62 210 i;
#X obj 134 242 outlet;
#X connect 0 0 8 1;
#X connect 1 0 8 0;
#X connect 1 1 0 0;
#X connect 1 2 6 0;
#X connect 3 0 1 0;
#X connect 4 0 7 0;
#X connect 5 0 6 1;
#X connect 6 0 8 2;
#X connect 7 0 0 1;
#X connect 8 0 9 0;
#X connect 8 0 10 0;
#X connect 9 0 2 0;
