#N canvas 102 180 654 549 10;
#X obj 123 54 tgl 15 0 empty empty empty 17 7 0 10 -262144 -1 -1 1
1;
#X obj 123 128 metro 1000;
#X obj 498 219 sel 0 1 2 3 4;
#X obj 373 220 sel 0 1 2 3 4 5 6;
#X obj 123 300 i 0;
#X obj 123 323 + 0;
#X floatatom 179 54 5 0 0 3 ms - -;
#X floatatom 143 54 5 0 0 3 tone - -;
#X obj 123 151 t b b b b, f 63;
#X floatatom 373 315 5 0 0 0 - - -;
#X msg 373 243 0;
#X msg 387 266 2;
#X msg 401 243 4;
#X msg 415 266 5;
#X msg 429 243 7;
#X msg 443 266 9;
#X msg 457 243 11;
#X msg 498 242 1;
#X msg 513 265 3;
#X msg 528 242 6;
#X msg 543 265 8;
#X msg 556 242 10;
#X floatatom 498 308 5 0 0 0 - - -;
#X obj 248 300 i 0;
#X obj 248 330 + 0;
#X obj 123 346 t f f, f 9;
#X obj 248 353 t f f, f 8;
#X floatatom 123 401 5 0 0 0 - - -;
#X obj 179 300 / 2;
#X floatatom 248 401 5 0 0 0 - - -;
#X obj 174 368 pipe 500;
#X obj 293 375 pipe 500;
#X floatatom 293 422 5 0 0 0 - - -;
#X floatatom 174 422 5 0 0 0 - - -;
#X obj 123 451 outlet;
#X obj 248 451 outlet;
#X obj 174 401 + 12;
#X obj 293 401 + 12;
#X obj 352 17 inlet;
#X obj 73 21 inlet;
#X obj 314 300 / 2;
#X floatatom 329 225 5 0 0 0 - - -;
#X floatatom 194 226 5 0 0 0 - - -;
#X obj 138 275 - 24;
#X obj 263 275 + 0;
#X obj 256 55 hsl 40 15 1 4 0 0 empty empty pattern -2 24 0 10 -262144
-1 -1 3000 1;
#X obj 357 57 int;
#X obj 357 80 t b f f;
#X floatatom 216 54 5 0 12 3 int - -;
#X floatatom 266 31 5 0 0 0 seed - -;
#X msg 266 121 seed \$1;
#X obj 194 274 * 2;
#X obj 329 274 * 2;
#X obj 396 103 expr 5-$f1;
#X obj 373 175 random 100;
#X obj 498 174 random 100;
#X obj 498 197 % 5;
#X obj 373 198 % 7;
#X connect 0 0 1 0;
#X connect 1 0 8 0;
#X connect 2 0 17 0;
#X connect 2 1 18 0;
#X connect 2 2 19 0;
#X connect 2 3 20 0;
#X connect 2 4 21 0;
#X connect 3 0 10 0;
#X connect 3 1 11 0;
#X connect 3 2 12 0;
#X connect 3 3 13 0;
#X connect 3 4 14 0;
#X connect 3 5 15 0;
#X connect 3 6 16 0;
#X connect 4 0 5 0;
#X connect 5 0 25 0;
#X connect 6 0 1 1;
#X connect 6 0 28 0;
#X connect 6 0 40 0;
#X connect 7 0 43 0;
#X connect 7 0 44 0;
#X connect 8 0 4 0;
#X connect 8 1 23 0;
#X connect 8 2 54 0;
#X connect 8 3 55 0;
#X connect 9 0 24 1;
#X connect 10 0 9 0;
#X connect 11 0 9 0;
#X connect 12 0 9 0;
#X connect 13 0 9 0;
#X connect 14 0 9 0;
#X connect 15 0 9 0;
#X connect 16 0 9 0;
#X connect 17 0 22 0;
#X connect 18 0 22 0;
#X connect 19 0 22 0;
#X connect 20 0 22 0;
#X connect 21 0 22 0;
#X connect 22 0 5 1;
#X connect 23 0 24 0;
#X connect 24 0 26 0;
#X connect 25 0 27 0;
#X connect 25 1 30 0;
#X connect 26 0 29 0;
#X connect 26 1 31 0;
#X connect 27 0 34 0;
#X connect 28 0 30 1;
#X connect 29 0 35 0;
#X connect 30 0 36 0;
#X connect 31 0 37 0;
#X connect 32 0 35 0;
#X connect 33 0 34 0;
#X connect 36 0 33 0;
#X connect 37 0 32 0;
#X connect 38 0 7 0;
#X connect 39 0 8 0;
#X connect 40 0 31 1;
#X connect 41 0 52 0;
#X connect 42 0 51 0;
#X connect 43 0 4 1;
#X connect 44 0 23 1;
#X connect 45 0 46 0;
#X connect 46 0 47 0;
#X connect 47 0 6 0;
#X connect 47 1 42 0;
#X connect 47 2 53 0;
#X connect 48 0 36 1;
#X connect 48 0 37 1;
#X connect 49 0 50 0;
#X connect 50 0 54 0;
#X connect 50 0 55 0;
#X connect 51 0 28 1;
#X connect 52 0 40 1;
#X connect 53 0 41 0;
#X connect 54 0 57 0;
#X connect 55 0 56 0;
#X connect 56 0 2 0;
#X connect 57 0 3 0;
#X coords 0 -1 1 1 190 70 1 115 20;
