#N canvas 498 181 751 483 10;
#X obj 181 191 +~ 1, f 6;
#X obj 181 214 *~ 0.5;
#X obj 180 342 *~;
#X obj 180 365 +~;
#X obj 392 191 expr~ if($v1>0.5 \, 1-$v1 \, $v1);
#X obj 392 214 *~ 2;
#X obj 180 414 outlet~;
#X obj 181 145 osc~ 0;
#X obj 233 145 osc~ 0;
#X obj 312 145 phasor~ 0;
#X obj 392 145 phasor~ 0;
#X obj 181 267 *~ 0;
#X obj 233 267 *~ 0;
#X obj 312 273 *~ 0;
#X obj 392 299 *~ 0;
#X obj 254 244 == 1;
#X obj 202 244 == 0;
#X obj 333 244 == 2;
#X obj 413 244 == 3;
#X obj 413 116 clip 0 3;
#X obj 181 100 f \$1;
#X obj 181 29 inlet;
#X obj 259 29 inlet;
#X obj 259 100 f \$2;
#X obj 327 29 inlet;
#X obj 327 326 f \$3;
#X obj 376 29 inlet;
#X obj 376 349 f \$4;
#X obj 518 29 inlet~;
#X obj 181 168 +~;
#X obj 233 168 +~;
#X obj 312 168 +~;
#X obj 392 168 +~;
#X obj 444 382 snapshot~;
#X obj 444 29 inlet;
#X obj 444 355 bang;
#X obj 444 414 outlet;
#X obj 516 84 loadbang;
#X obj 181 74 clip 0 20;
#X obj 181 316 *~ 1;
#X msg 607 129 0;
#X obj 607 107 r sync;
#X obj 516 223 f \$5;
#X obj 516 269 expr if($f1>0 \, $f1 \, 0.5);
#X obj 516 246 clip 0 1;
#X obj 233 214 expr~ if($v1>$f2 \, 1 \, 0);
#X connect 0 0 1 0;
#X connect 1 0 11 0;
#X connect 2 0 3 0;
#X connect 3 0 6 0;
#X connect 4 0 5 0;
#X connect 5 0 14 0;
#X connect 7 0 29 0;
#X connect 8 0 30 0;
#X connect 9 0 31 0;
#X connect 10 0 32 0;
#X connect 11 0 39 0;
#X connect 12 0 39 0;
#X connect 13 0 39 0;
#X connect 14 0 39 0;
#X connect 15 0 12 1;
#X connect 16 0 11 1;
#X connect 17 0 13 1;
#X connect 18 0 14 1;
#X connect 19 0 16 0;
#X connect 19 0 18 0;
#X connect 19 0 17 0;
#X connect 19 0 15 0;
#X connect 20 0 7 0;
#X connect 20 0 10 0;
#X connect 20 0 9 0;
#X connect 20 0 8 0;
#X connect 21 0 38 0;
#X connect 22 0 23 0;
#X connect 23 0 19 0;
#X connect 24 0 25 0;
#X connect 25 0 2 1;
#X connect 26 0 27 0;
#X connect 27 0 3 1;
#X connect 28 0 29 1;
#X connect 28 0 32 1;
#X connect 28 0 31 1;
#X connect 28 0 30 1;
#X connect 29 0 0 0;
#X connect 30 0 45 0;
#X connect 31 0 13 0;
#X connect 32 0 4 0;
#X connect 33 0 36 0;
#X connect 34 0 35 0;
#X connect 35 0 33 0;
#X connect 37 0 27 0;
#X connect 37 0 25 0;
#X connect 37 0 23 0;
#X connect 37 0 20 0;
#X connect 37 0 42 0;
#X connect 38 0 20 0;
#X connect 39 0 33 0;
#X connect 39 0 2 0;
#X connect 40 0 10 1;
#X connect 40 0 9 1;
#X connect 40 0 8 1;
#X connect 40 0 7 1;
#X connect 41 0 40 0;
#X connect 42 0 44 0;
#X connect 43 0 45 1;
#X connect 44 0 43 0;
#X connect 45 0 12 0;
