#N canvas 574 259 670 452 10;
#X obj 245 362 list store;
#X obj 245 404 print stored;
#X obj 78 57 bng 15 250 50 0 empty empty stored 17 7 0 10 -262144 -1
-1;
#X obj 146 200 t l;
#X obj 156 226 bng 15 250 50 0 empty empty empty 17 7 0 10 -262144
-1 -1;
#X obj 101 255 list length;
#X obj 218 198 f 0;
#X obj 245 198 + 1;
#X floatatom 218 221 5 0 0 0 - - -;
#X msg 244 175 0;
#X obj 78 38 tgl 15 0 empty empty run 17 7 0 10 -262144 -1 -1 0 1;
#X obj 394 170 + 1;
#X obj 357 170 f 0;
#X obj 394 193 % 1;
#X obj 357 339 list store;
#X floatatom 357 362 5 0 0 0 - - -;
#X obj 357 384 sel 0 1;
#X obj 357 406 bng 15 250 50 0 empty empty empty 17 7 0 10 -262144
-1 -1;
#X obj 376 406 bng 15 250 50 0 empty empty empty 17 7 0 10 -262144
-1 -1;
#X msg 77 158 0 1;
#X msg 138 159 0;
#X msg 357 315 get \$1 1;
#X msg 372 87 0;
#X obj 394 233 sel 0;
#X floatatom 357 294 5 0 0 0 - - -;
#X obj 218 243 t b b;
#X obj 245 270 i;
#X obj 77 226 list prepend;
#X msg 245 294 get 0 \$1;
#X obj 357 51 metro 100;
#X obj 142 57 nbx 2 16 -1e+37 1e+37 0 0 empty empty interactions 32
7 0 10 -1 -262144 -1 11 256;
#X obj 77 108 random 2;
#X obj 77 131 sel 0 1;
#X obj 142 38 bng 15 250 50 0 empty empty init 17 7 0 10 -262144 -1
-1;
#X obj 198 38 bng 15 250 50 0 empty empty reset 17 7 0 10 -262144 -1
-1;
#X obj 493 263 + 1;
#X obj 456 263 f 0;
#X obj 493 286 % 1;
#X obj 456 342 list store;
#X floatatom 456 365 5 0 0 0 - - -;
#X msg 456 318 get \$1 1;
#X floatatom 456 297 5 0 0 0 - - -;
#X obj 456 239 bng 15 250 50 0 empty empty empty 17 7 0 10 -262144
-1 -1;
#X obj 456 400 outlet;
#X obj 456 18 inlet;
#X connect 0 0 1 0;
#X connect 0 0 14 1;
#X connect 0 0 38 1;
#X connect 2 0 6 0;
#X connect 3 0 27 1;
#X connect 4 0 27 1;
#X connect 5 0 26 1;
#X connect 6 0 7 0;
#X connect 6 0 8 0;
#X connect 7 0 6 1;
#X connect 8 0 25 0;
#X connect 8 0 30 0;
#X connect 9 0 6 1;
#X connect 10 0 29 0;
#X connect 11 0 13 0;
#X connect 12 0 11 0;
#X connect 12 0 24 0;
#X connect 13 0 12 1;
#X connect 13 0 23 0;
#X connect 14 0 15 0;
#X connect 15 0 16 0;
#X connect 16 0 17 0;
#X connect 16 1 18 0;
#X connect 17 0 19 0;
#X connect 18 0 20 0;
#X connect 19 0 27 0;
#X connect 20 0 27 0;
#X connect 21 0 14 0;
#X connect 22 0 12 1;
#X connect 23 0 10 0;
#X connect 23 0 2 0;
#X connect 24 0 21 0;
#X connect 25 0 4 0;
#X connect 25 1 26 0;
#X connect 26 0 28 0;
#X connect 26 0 13 1;
#X connect 26 0 37 1;
#X connect 27 0 3 0;
#X connect 27 0 5 0;
#X connect 27 0 0 1;
#X connect 28 0 0 0;
#X connect 29 0 12 0;
#X connect 31 0 32 0;
#X connect 32 0 19 0;
#X connect 32 1 20 0;
#X connect 33 0 31 0;
#X connect 33 0 2 0;
#X connect 34 0 9 0;
#X connect 34 0 22 0;
#X connect 34 0 4 0;
#X connect 35 0 37 0;
#X connect 36 0 35 0;
#X connect 36 0 41 0;
#X connect 37 0 36 1;
#X connect 38 0 39 0;
#X connect 39 0 43 0;
#X connect 40 0 38 0;
#X connect 41 0 40 0;
#X connect 42 0 36 0;
#X connect 44 0 42 0;
#X coords 0 -1 1 1 180 70 1 70 10;
