#N canvas 79 166 536 411 10;
#X obj 46 97 expr ($f1 % 14) \; if(($f1 % 2) == 0 \, ($f2 % 7) - 7
\, -1) \; if(($f1 % 2) == 0 \, (($f2 % 7) + 2) \, -1) \; if(($f1 %
2) == 0 \, (($f2 % 4) + 6) - 7 \, -1);
#X obj 131 159 t f f, f 6;
#X obj 131 205 spigot;
#X obj 164 182 != -1;
#X obj 216 159 t f f, f 6;
#X obj 216 205 spigot;
#X obj 249 182 != -1;
#X obj 301 159 t f f, f 6;
#X obj 301 205 spigot;
#X obj 334 182 != -1;
#X obj 46 20 inlet;
#X obj 301 20 inlet;
#X obj 46 310 outlet;
#X obj 131 310 outlet;
#X obj 216 310 outlet;
#X obj 301 310 outlet;
#X obj 131 228 change -1;
#X obj 216 228 change -1;
#X obj 301 228 change -1;
#X connect 0 0 12 0;
#X connect 0 1 1 0;
#X connect 0 2 4 0;
#X connect 0 3 7 0;
#X connect 1 0 2 0;
#X connect 1 1 3 0;
#X connect 2 0 16 0;
#X connect 3 0 2 1;
#X connect 4 0 5 0;
#X connect 4 1 6 0;
#X connect 5 0 17 0;
#X connect 6 0 5 1;
#X connect 7 0 8 0;
#X connect 7 1 9 0;
#X connect 8 0 18 0;
#X connect 9 0 8 1;
#X connect 10 0 0 0;
#X connect 11 0 0 1;
#X connect 16 0 13 0;
#X connect 17 0 14 0;
#X connect 18 0 15 0;
