#N canvas 543 172 817 587 10;
#X obj 422 172 list length;
#X obj 308 233 list store, f 24;
#X obj 308 188 f 0;
#X obj 334 188 + 1;
#X obj 360 188 % 2;
#X obj 422 149 t l l;
#X msg 323 136 0;
#X msg 308 211 get \$1 1;
#X floatatom 308 262 5 0 0 0 - - -;
#X obj 240 170 list length;
#X obj 126 231 list store, f 24;
#X obj 126 186 f 0;
#X obj 152 186 + 1;
#X obj 178 186 % 2;
#X obj 240 147 t l l;
#X msg 126 209 get \$1 2;
#X obj 126 254 unpack 0 0;
#X obj 126 277 ==, f 5;
#X obj 126 348 spigot, f 14;
#X msg 126 139 \$1;
#X obj 126 162 until;
#X obj 126 117 f 0;
#X obj 126 300 t b f, f 14;
#X obj 126 324 f 0, f 10;
#X obj 126 371 t f b;
#X obj 126 394 list append;
#X obj 126 475 list store, f 11;
#X obj 126 95 t b b, f 11;
#X obj 126 498 spigot, f 12;
#X msg 217 482 0;
#X obj 35 436 random;
#X obj 247 387 f 0;
#X obj 273 387 + 1;
#X obj 247 420 + 1;
#X msg 35 459 get \$1 1;
#X obj 35 413 t b b;
#X msg 209 429 1;
#X obj 35 60 t b b b b, f 46;
#X obj 126 559 outlet;
#X obj 422 29 inlet;
#X obj 35 29 inlet;
#X connect 0 0 4 1;
#X connect 1 0 8 0;
#X connect 2 0 3 0;
#X connect 2 0 7 0;
#X connect 3 0 4 0;
#X connect 4 0 2 1;
#X connect 5 0 0 0;
#X connect 5 1 1 1;
#X connect 6 0 2 1;
#X connect 6 0 11 1;
#X connect 7 0 1 0;
#X connect 8 0 17 1;
#X connect 9 0 13 1;
#X connect 9 0 21 1;
#X connect 10 0 16 0;
#X connect 11 0 12 0;
#X connect 11 0 15 0;
#X connect 12 0 13 0;
#X connect 13 0 11 1;
#X connect 14 0 9 0;
#X connect 14 1 10 1;
#X connect 15 0 10 0;
#X connect 16 0 17 0;
#X connect 16 1 23 1;
#X connect 17 0 22 0;
#X connect 18 0 24 0;
#X connect 19 0 20 0;
#X connect 20 0 11 0;
#X connect 21 0 19 0;
#X connect 22 0 23 0;
#X connect 22 1 18 1;
#X connect 23 0 18 0;
#X connect 24 0 25 0;
#X connect 24 1 26 0;
#X connect 24 1 31 0;
#X connect 25 0 26 1;
#X connect 26 0 25 1;
#X connect 26 0 28 0;
#X connect 27 0 21 0;
#X connect 27 1 26 1;
#X connect 28 0 38 0;
#X connect 29 0 28 1;
#X connect 29 0 31 1;
#X connect 30 0 34 0;
#X connect 31 0 32 0;
#X connect 31 0 33 0;
#X connect 32 0 31 1;
#X connect 33 0 30 1;
#X connect 34 0 26 0;
#X connect 35 0 30 0;
#X connect 35 1 36 0;
#X connect 36 0 28 1;
#X connect 37 0 35 0;
#X connect 37 1 27 0;
#X connect 37 2 29 0;
#X connect 37 3 2 0;
#X connect 39 0 14 0;
#X connect 39 0 5 0;
#X connect 40 0 37 0;
