#N canvas 452 212 787 544 10;
#X msg 174 221 1;
#X obj 174 418 print;
#X obj 174 244 t f b;
#X obj 174 353 list prepend;
#X obj 257 337 t l;
#X obj 79 70 bng 15 250 50 0 empty empty clear 17 7 0 10 -262144 -1
-1;
#X msg 201 268 2 3;
#X obj 174 317 list append;
#X obj 216 244 t f b;
#X msg 216 221 2;
#X msg 243 268 1 3;
#X obj 258 243 t f b;
#X msg 258 220 3;
#X msg 285 267 1 2;
#X obj 326 371 list store;
#X obj 326 266 f;
#X obj 364 267 + 1;
#X msg 396 327 0;
#X msg 326 336 get \$1 1;
#X floatatom 326 394 5 0 0 0 - - -;
#X obj 326 418 sel 1 2 3;
#X floatatom 132 90 5 0 0 1 interactions - -;
#X obj 79 89 tgl 15 0 empty empty go 17 7 0 10 -262144 -1 -1 0 1;
#X obj 326 240 metro 500;
#X obj 326 289 %;
#X obj 396 305 sel 0;
#X obj 423 283 - 1;
#X obj 174 389 spigot;
#X obj 221 50 tgl 15 0 empty empty print -32 7 0 10 -262144 -1 -1 0
1;
#X obj 132 70 bng 15 250 50 0 empty empty init 17 7 0 10 -262144 -1
-1;
#X obj 174 174 random 3;
#X obj 174 197 sel 0 1 2;
#X obj 57 225 f;
#X obj 90 224 + 1;
#X obj 90 246 %;
#X obj 79 50 bng 15 250 50 0 empty empty trg 17 7 0 10 -262144 -1 -1
;
#X msg 72 199 0;
#X obj 57 318 list store;
#X floatatom 57 377 5 0 0 0 - - -;
#X floatatom 57 269 5 0 0 0 - - -;
#X msg 105 177 3;
#X obj 57 341 unpack 0 0 0;
#X floatatom 91 377 5 0 0 0 - - -;
#X floatatom 126 377 5 0 0 0 - - -;
#X msg 57 295 get \$1 3;
#X obj 119 205 * 3;
#X obj 119 228 + 1;
#X obj 22 418 outlet;
#X obj 78 418 outlet;
#X obj 126 418 outlet;
#X obj 21 33 inlet;
#X connect 0 0 2 0;
#X connect 2 0 7 0;
#X connect 2 1 6 0;
#X connect 3 0 4 0;
#X connect 3 0 14 1;
#X connect 3 0 37 1;
#X connect 3 0 27 0;
#X connect 4 0 3 1;
#X connect 5 0 3 1;
#X connect 5 0 36 0;
#X connect 5 0 40 0;
#X connect 6 0 7 1;
#X connect 7 0 3 0;
#X connect 8 0 7 0;
#X connect 8 1 10 0;
#X connect 9 0 8 0;
#X connect 10 0 7 1;
#X connect 11 0 7 0;
#X connect 11 1 13 0;
#X connect 12 0 11 0;
#X connect 13 0 7 1;
#X connect 14 0 19 0;
#X connect 15 0 16 0;
#X connect 15 0 24 0;
#X connect 16 0 15 1;
#X connect 17 0 15 1;
#X connect 17 0 22 0;
#X connect 18 0 14 0;
#X connect 19 0 20 0;
#X connect 20 0 0 0;
#X connect 20 1 9 0;
#X connect 20 2 12 0;
#X connect 21 0 24 1;
#X connect 21 0 26 0;
#X connect 21 0 45 0;
#X connect 22 0 23 0;
#X connect 23 0 15 0;
#X connect 24 0 25 0;
#X connect 24 0 18 0;
#X connect 25 0 17 0;
#X connect 26 0 25 1;
#X connect 27 0 1 0;
#X connect 28 0 27 1;
#X connect 29 0 30 0;
#X connect 30 0 31 0;
#X connect 31 0 0 0;
#X connect 31 1 9 0;
#X connect 31 2 12 0;
#X connect 32 0 33 0;
#X connect 32 0 39 0;
#X connect 33 0 34 0;
#X connect 34 0 32 1;
#X connect 35 0 32 0;
#X connect 36 0 32 1;
#X connect 37 0 41 0;
#X connect 38 0 47 0;
#X connect 39 0 44 0;
#X connect 40 0 34 1;
#X connect 41 0 38 0;
#X connect 41 1 42 0;
#X connect 41 2 43 0;
#X connect 42 0 48 0;
#X connect 43 0 49 0;
#X connect 44 0 37 0;
#X connect 45 0 46 0;
#X connect 46 0 34 1;
#X connect 50 0 35 0;
#X coords 0 -1 1 1 180 95 1 70 20;
