#N canvas 465 258 450 396 10;
#X obj 58 159 expr $f1*$f2*(1-$f1);
#X obj 58 90 f 0;
#X obj 58 113 expr $f1/$f2, f 16;
#X obj 117 90 % 2;
#X obj 58 28 inlet;
#X obj 58 58 t b b;
#X obj 58 205 outlet;
#X obj 175 136 clip 0 4;
#X obj 196 28 inlet;
#X obj 148 28 inlet;
#X obj 151 74 f \$2;
#X obj 175 113 f \$3;
#X obj 84 90 + \$1;
#X connect 0 0 6 0;
#X connect 1 0 2 0;
#X connect 1 0 12 0;
#X connect 2 0 0 0;
#X connect 3 0 1 1;
#X connect 4 0 5 0;
#X connect 5 0 1 0;
#X connect 5 1 10 0;
#X connect 5 1 11 0;
#X connect 7 0 0 1;
#X connect 8 0 11 1;
#X connect 9 0 10 1;
#X connect 10 0 2 1;
#X connect 10 0 3 1;
#X connect 11 0 7 0;
#X connect 12 0 3 0;
