#N canvas 594 272 677 436 10;
#X obj 41 16 inlet~;
#X obj 40 310 *~;
#X obj 55 200 osc~;
#X obj 55 223 +~ 1;
#X obj 55 246 /~ 2;
#X obj 41 383 outlet~;
#X floatatom 55 179 5 0 0 0 - - -;
#X obj 58 82 hsl 50 15 0 10 0 0 empty empty empty 0 -8 0 10 -262144
-1 -1 0 1;
#X obj 55 269 *~ 0.5;
#X obj 58 101 hsl 50 15 0 1 0 0 empty empty empty 0 -8 0 10 -228856
-1 -1 0 1;
#X obj 126 269 *~ 0.5;
#X obj 111 311 *~;
#X obj 112 383 outlet~;
#X obj 144 119 bng 15 250 50 0 empty empty sh 20 8 0 10 -262144 -1
-1;
#X obj 228 310 snapshot~;
#X floatatom 228 333 5 0 0 0 - - -;
#X obj 228 383 outlet;
#X obj 144 16 inlet;
#X obj 114 82 nbx 4 14 -1e+37 1e+37 0 0 empty empty Hz 50 8 0 10 -1
-262144 -1 0 256;
#X obj 114 101 nbx 4 14 -1e+37 1e+37 0 0 empty empty dp 50 8 0 10 -1
-262144 -1 0 256;
#X connect 0 0 1 0;
#X connect 0 0 11 0;
#X connect 1 0 5 0;
#X connect 2 0 3 0;
#X connect 2 0 10 0;
#X connect 3 0 4 0;
#X connect 4 0 8 0;
#X connect 6 0 2 0;
#X connect 7 0 6 0;
#X connect 7 0 18 0;
#X connect 8 0 1 1;
#X connect 8 0 14 0;
#X connect 9 0 8 1;
#X connect 9 0 10 1;
#X connect 9 0 19 0;
#X connect 10 0 11 1;
#X connect 11 0 12 0;
#X connect 13 0 14 0;
#X connect 14 0 15 0;
#X connect 15 0 16 0;
#X connect 17 0 13 0;
#X coords 0 -1 1 1 135 90 1 50 50;
