#N canvas 227 255 779 480 10;
#X obj 208 219 f 0;
#X msg 247 203 1;
#X obj 223 144 del 10;
#X msg 223 167 0;
#X obj 67 219 f 0;
#X msg 104 201 1;
#X obj 82 151 del 10;
#X msg 82 174 0;
#X obj 67 112 t b b b b, f 10;
#X obj 189 112 t b b b b, f 10;
#X obj 67 247 expr if($f1==$f2 \, 1 \, 0) \; if($f1!=$f2 \, 1 \, 0)
\; if($f1>$f2 \, 1 \, 0) \; if($f1<$f2 \, 1 \, 0) \;;
#X obj 67 309 sel 1;
#X obj 67 352 outlet;
#X obj 114 309 sel 1;
#X obj 114 352 outlet;
#X obj 161 309 sel 1;
#X obj 161 352 outlet;
#X obj 208 309 sel 1;
#X obj 208 352 outlet;
#X obj 67 47 inlet;
#X obj 189 47 inlet;
#X connect 0 0 10 1;
#X connect 1 0 0 1;
#X connect 2 0 3 0;
#X connect 3 0 0 1;
#X connect 4 0 10 0;
#X connect 5 0 4 1;
#X connect 6 0 7 0;
#X connect 7 0 4 1;
#X connect 8 0 4 0;
#X connect 8 1 6 0;
#X connect 8 2 5 0;
#X connect 8 3 0 0;
#X connect 9 0 4 0;
#X connect 9 1 0 0;
#X connect 9 2 2 0;
#X connect 9 3 1 0;
#X connect 10 0 11 0;
#X connect 10 1 13 0;
#X connect 10 2 15 0;
#X connect 10 3 17 0;
#X connect 11 0 12 0;
#X connect 13 0 14 0;
#X connect 15 0 16 0;
#X connect 17 0 18 0;
#X connect 19 0 8 0;
#X connect 20 0 9 0;
