#N canvas 0 116 1366 652 10;
#X obj 162 322 until;
#X obj 162 345 f;
#X obj 189 345 + 1;
#X obj 162 436 - 1;
#X obj 162 300 t f b, f 11;
#X msg 225 322 0;
#X obj 162 523 tabwrite \$0-dist;
#X obj 162 488 clip -1 1;
#X msg 162 277 \$1;
#X obj 873 111 array size \$0-dist;
#X obj 162 390 random 1000;
#X obj 162 413 / 500;
#X obj 162 255 f;
#X obj 162 236 bng 15 250 50 0 empty empty empty 17 7 0 10 -262144
-1 -1;
#X obj 242 436 - 1;
#X obj 242 390 random 1000;
#X obj 242 413 / 500;
#X obj 162 465 expr if($f1<$f2 \, $f1 \, $f2);
#X obj 162 367 t b b f, f 28;
#X obj 348 322 until;
#X obj 348 345 f;
#X obj 375 345 + 1;
#X obj 348 436 - 1;
#X obj 348 300 t f b, f 11;
#X msg 411 322 0;
#X obj 348 523 tabwrite \$0-dist;
#X obj 348 488 clip -1 1;
#X msg 348 277 \$1;
#X obj 348 390 random 1000;
#X obj 348 413 / 500;
#X obj 348 255 f;
#X obj 348 236 bng 15 250 50 0 empty empty empty 17 7 0 10 -262144
-1 -1;
#X obj 428 436 - 1;
#X obj 428 390 random 1000;
#X obj 428 413 / 500;
#X obj 348 367 t b b f, f 28;
#X obj 348 465 expr if($f1>$f2 \, $f1 \, $f2);
#X obj 535 322 until;
#X obj 535 345 f;
#X obj 562 345 + 1;
#X obj 535 436 - 1;
#X obj 535 300 t f b, f 11;
#X msg 598 322 0;
#X obj 535 523 tabwrite \$0-dist;
#X obj 535 488 clip -1 1;
#X msg 535 277 \$1;
#X obj 535 390 random 1000;
#X obj 535 413 / 500;
#X obj 535 255 f;
#X obj 535 236 bng 15 250 50 0 empty empty empty 17 7 0 10 -262144
-1 -1;
#X obj 615 436 - 1;
#X obj 615 390 random 1000;
#X obj 615 413 / 500;
#X obj 535 367 t b b f, f 28;
#X obj 535 465 expr ($f1+$f2)/2;
#X obj 722 322 until;
#X obj 722 345 f;
#X obj 749 345 + 1;
#X obj 722 436 - 1;
#X obj 722 300 t f b, f 11;
#X msg 785 322 0;
#X obj 722 523 tabwrite \$0-dist;
#X obj 722 499 clip -1 1;
#X msg 722 277 \$1;
#X obj 722 390 random 1000;
#X obj 722 413 / 500;
#X obj 722 255 f;
#X obj 722 236 bng 15 250 50 0 empty empty empty 17 7 0 10 -262144
-1 -1;
#X obj 802 436 - 1;
#X obj 802 390 random 1000;
#X obj 802 413 / 500;
#X obj 722 367 t b b f, f 28;
#X obj 722 462 expr if(abs($f1)-(($f1+$f2)/2)>(abs($f2)-(($f1+$f2)/2))
\, $f1 \, $f2);
#X obj 162 211 route 0 1 2 3, f 125;
#X obj 97 139 f;
#X obj 124 139 + 1;
#X obj 151 139 % 2;
#X obj 97 162 tabread \$0-dist;
#X obj 97 594 outlet;
#X obj 278 18 inlet;
#X obj 278 91 clip 0 3;
#X obj 166 95 t f f f;
#X obj 166 72 f \$1;
#X obj 166 18 inlet;
#X obj 182 48 loadbang;
#X obj 97 18 inlet;
#X obj 97 95 bang;
#X obj 176 139 t f f f f, f 94;
#X obj 870 64 array define \$0-dist;
#X obj 203 72 f \$2;
#X connect 0 0 1 0;
#X connect 1 0 2 0;
#X connect 1 0 18 0;
#X connect 2 0 1 1;
#X connect 3 0 17 0;
#X connect 4 0 0 0;
#X connect 4 1 5 0;
#X connect 5 0 1 1;
#X connect 7 0 6 0;
#X connect 8 0 4 0;
#X connect 10 0 11 0;
#X connect 11 0 3 0;
#X connect 12 0 8 0;
#X connect 13 0 12 0;
#X connect 14 0 17 1;
#X connect 15 0 16 0;
#X connect 16 0 14 0;
#X connect 17 0 7 0;
#X connect 18 0 10 0;
#X connect 18 1 15 0;
#X connect 18 2 6 1;
#X connect 19 0 20 0;
#X connect 20 0 21 0;
#X connect 20 0 35 0;
#X connect 21 0 20 1;
#X connect 22 0 36 0;
#X connect 23 0 19 0;
#X connect 23 1 24 0;
#X connect 24 0 20 1;
#X connect 26 0 25 0;
#X connect 27 0 23 0;
#X connect 28 0 29 0;
#X connect 29 0 22 0;
#X connect 30 0 27 0;
#X connect 31 0 30 0;
#X connect 32 0 36 1;
#X connect 33 0 34 0;
#X connect 34 0 32 0;
#X connect 35 0 28 0;
#X connect 35 1 33 0;
#X connect 35 2 25 1;
#X connect 36 0 26 0;
#X connect 37 0 38 0;
#X connect 38 0 39 0;
#X connect 38 0 53 0;
#X connect 39 0 38 1;
#X connect 40 0 54 0;
#X connect 41 0 37 0;
#X connect 41 1 42 0;
#X connect 42 0 38 1;
#X connect 44 0 43 0;
#X connect 45 0 41 0;
#X connect 46 0 47 0;
#X connect 47 0 40 0;
#X connect 48 0 45 0;
#X connect 49 0 48 0;
#X connect 50 0 54 1;
#X connect 51 0 52 0;
#X connect 52 0 50 0;
#X connect 53 0 46 0;
#X connect 53 1 51 0;
#X connect 53 2 43 1;
#X connect 54 0 44 0;
#X connect 55 0 56 0;
#X connect 56 0 57 0;
#X connect 56 0 71 0;
#X connect 57 0 56 1;
#X connect 58 0 72 0;
#X connect 59 0 55 0;
#X connect 59 1 60 0;
#X connect 60 0 56 1;
#X connect 62 0 61 0;
#X connect 63 0 59 0;
#X connect 64 0 65 0;
#X connect 65 0 58 0;
#X connect 66 0 63 0;
#X connect 67 0 66 0;
#X connect 68 0 72 1;
#X connect 69 0 70 0;
#X connect 70 0 68 0;
#X connect 71 0 64 0;
#X connect 71 1 69 0;
#X connect 71 2 61 1;
#X connect 72 0 62 0;
#X connect 73 0 13 0;
#X connect 73 1 31 0;
#X connect 73 2 49 0;
#X connect 73 3 67 0;
#X connect 74 0 75 0;
#X connect 74 0 77 0;
#X connect 75 0 76 0;
#X connect 76 0 74 1;
#X connect 77 0 78 0;
#X connect 79 0 80 0;
#X connect 80 0 73 0;
#X connect 81 0 76 1;
#X connect 81 1 87 0;
#X connect 81 2 9 0;
#X connect 82 0 81 0;
#X connect 83 0 82 0;
#X connect 84 0 82 0;
#X connect 84 0 88 0;
#X connect 84 0 89 0;
#X connect 85 0 86 0;
#X connect 86 0 74 0;
#X connect 87 0 12 1;
#X connect 87 1 30 1;
#X connect 87 2 48 1;
#X connect 87 3 66 1;
#X connect 89 0 73 0;
