#N canvas 315 333 450 300 10;
#X obj 52 114 expr~ pow(sin($v1 * 3.1416) \, $f2);
#X obj 53 91 phasor~;
#X obj 247 91 clip 1 20;
#X obj 53 217 outlet~;
#X obj 53 18 inlet;
#X obj 247 18 inlet;
#X connect 0 0 3 0;
#X connect 1 0 0 0;
#X connect 2 0 0 1;
#X connect 4 0 1 0;
#X connect 5 0 2 0;
