#N canvas 0 116 1366 652 10;
#X obj 278 382 until;
#X obj 278 405 f;
#X obj 305 405 + 1;
#X obj 278 496 - 1;
#X obj 162 406 f;
#X obj 189 406 + 1;
#X obj 162 428 t b f;
#X msg 162 451 0;
#X obj 278 360 t f b, f 11;
#X msg 341 382 0;
#X obj 162 383 until;
#X obj 162 361 t f b, f 11;
#X msg 225 383 0;
#X obj 162 476 tabwrite \$0-dist;
#X obj 278 574 tabwrite \$0-dist;
#X obj 278 548 clip -1 1;
#X obj 97 34 inlet;
#X msg 162 338 \$1;
#X msg 278 337 \$1;
#N canvas 0 50 450 250 (subpatch) 0;
#X array \$0-dist 16 float 3;
#A 0 0.83 0.502 0.31 0.554 -0.304 -0.786 0.668 0.204 0.744 -0.966 0.69
-0.73 0.72 -0.1 0.89 0.492;
#X coords 0 1 16 -1 100 60 1 0 0;
#X restore 174 59 graph;
#X obj 177 166 t f f;
#X obj 226 182 array size \$0-dist;
#X obj 278 450 random 1000;
#X obj 278 473 / 500;
#X obj 278 315 f;
#X obj 298 124 bng 15 250 50 0 empty empty reset 17 7 0 10 -262144
-1 -1;
#X obj 278 296 bng 15 250 50 0 empty empty empty 17 7 0 10 -262144
-1 -1;
#X obj 358 496 - 1;
#X obj 358 450 random 1000;
#X obj 358 473 / 500;
#X obj 278 525 expr if($f1<$f2 \, $f1 \, $f2);
#X obj 278 427 t b b f, f 28;
#X obj 458 382 until;
#X obj 458 405 f;
#X obj 485 405 + 1;
#X obj 458 496 - 1;
#X obj 458 360 t f b, f 11;
#X msg 521 382 0;
#X obj 458 574 tabwrite \$0-dist;
#X obj 458 548 clip -1 1;
#X msg 458 337 \$1;
#X obj 458 450 random 1000;
#X obj 458 473 / 500;
#X obj 458 315 f;
#X obj 458 296 bng 15 250 50 0 empty empty empty 17 7 0 10 -262144
-1 -1;
#X obj 538 496 - 1;
#X obj 538 450 random 1000;
#X obj 538 473 / 500;
#X obj 458 427 t b b f, f 28;
#X obj 458 525 expr if($f1>$f2 \, $f1 \, $f2);
#X obj 648 382 until;
#X obj 648 405 f;
#X obj 675 405 + 1;
#X obj 648 496 - 1;
#X obj 648 360 t f b, f 11;
#X msg 711 382 0;
#X obj 648 574 tabwrite \$0-dist;
#X obj 648 548 clip -1 1;
#X msg 648 337 \$1;
#X obj 648 450 random 1000;
#X obj 648 473 / 500;
#X obj 648 315 f;
#X obj 648 296 bng 15 250 50 0 empty empty empty 17 7 0 10 -262144
-1 -1;
#X obj 728 496 - 1;
#X obj 728 450 random 1000;
#X obj 728 473 / 500;
#X obj 648 427 t b b f, f 28;
#X obj 648 525 expr ($f1+$f2)/2;
#X obj 838 382 until;
#X obj 838 405 f;
#X obj 865 405 + 1;
#X obj 838 496 - 1;
#X obj 838 360 t f b, f 11;
#X msg 901 382 0;
#X obj 838 585 tabwrite \$0-dist;
#X obj 838 559 clip -1 1;
#X msg 838 337 \$1;
#X obj 838 450 random 1000;
#X obj 838 473 / 500;
#X obj 838 315 f;
#X obj 838 296 bng 15 250 50 0 empty empty empty 17 7 0 10 -262144
-1 -1;
#X obj 918 496 - 1;
#X obj 918 450 random 1000;
#X obj 918 473 / 500;
#X obj 838 427 t b b f, f 28;
#X obj 838 522 expr if(abs($f1)-(($f1+$f2)/2)>(abs($f2)-(($f1+$f2)/2))
\, $f1 \, $f2);
#X obj 177 208 t f f f f f, f 113;
#X obj 279 59 vradio 15 1 0 4 empty empty empty 0 -8 0 10 -262144 -1
-1 3;
#X obj 278 251 route 0 1 2 3, f 121;
#X obj 97 209 f;
#X obj 124 209 + 1;
#X obj 151 209 % 2;
#X obj 97 232 tabread \$0-dist;
#X obj 97 278 expr int((($f1-0)*$f2)/(1-0));
#X obj 97 477 + 60;
#X obj 97 255 t f f, f 9;
#X obj 97 574 outlet;
#X obj 148 574 outlet;
#X obj 174 124 nbx 3 14 10 100 0 0 empty empty iter 0 22 0 10 -262144
-1 -1 16 256;
#X obj 162 316 f 10;
#X obj 214 124 nbx 3 14 12 56 0 0 empty empty range 0 22 0 10 -262144
-1 -1 12 256;
#X obj 255 124 nbx 3 14 30 88 0 0 empty empty off 0 22 0 10 -262144
-1 -1 30 256;
#X text 295 88 triangul;
#X text 295 103 specular;
#X obj 97 500 clip 0 127;
#X text 295 58 lower;
#X text 295 72 higher;
#X obj 381 20 inlet;
#X connect 0 0 1 0;
#X connect 1 0 2 0;
#X connect 1 0 31 0;
#X connect 2 0 1 1;
#X connect 3 0 30 0;
#X connect 4 0 5 0;
#X connect 4 0 6 0;
#X connect 5 0 4 1;
#X connect 6 0 7 0;
#X connect 6 1 13 1;
#X connect 7 0 13 0;
#X connect 8 0 0 0;
#X connect 8 1 9 0;
#X connect 9 0 1 1;
#X connect 10 0 4 0;
#X connect 11 0 10 0;
#X connect 11 1 12 0;
#X connect 12 0 4 1;
#X connect 15 0 14 0;
#X connect 16 0 89 0;
#X connect 17 0 11 0;
#X connect 18 0 8 0;
#X connect 20 0 86 0;
#X connect 20 1 21 0;
#X connect 20 1 91 1;
#X connect 22 0 23 0;
#X connect 23 0 3 0;
#X connect 24 0 18 0;
#X connect 25 0 99 0;
#X connect 26 0 24 0;
#X connect 27 0 30 1;
#X connect 28 0 29 0;
#X connect 29 0 27 0;
#X connect 30 0 15 0;
#X connect 31 0 22 0;
#X connect 31 1 28 0;
#X connect 31 2 14 1;
#X connect 32 0 33 0;
#X connect 33 0 34 0;
#X connect 33 0 48 0;
#X connect 34 0 33 1;
#X connect 35 0 49 0;
#X connect 36 0 32 0;
#X connect 36 1 37 0;
#X connect 37 0 33 1;
#X connect 39 0 38 0;
#X connect 40 0 36 0;
#X connect 41 0 42 0;
#X connect 42 0 35 0;
#X connect 43 0 40 0;
#X connect 44 0 43 0;
#X connect 45 0 49 1;
#X connect 46 0 47 0;
#X connect 47 0 45 0;
#X connect 48 0 41 0;
#X connect 48 1 46 0;
#X connect 48 2 38 1;
#X connect 49 0 39 0;
#X connect 50 0 51 0;
#X connect 51 0 52 0;
#X connect 51 0 66 0;
#X connect 52 0 51 1;
#X connect 53 0 67 0;
#X connect 54 0 50 0;
#X connect 54 1 55 0;
#X connect 55 0 51 1;
#X connect 57 0 56 0;
#X connect 58 0 54 0;
#X connect 59 0 60 0;
#X connect 60 0 53 0;
#X connect 61 0 58 0;
#X connect 62 0 61 0;
#X connect 63 0 67 1;
#X connect 64 0 65 0;
#X connect 65 0 63 0;
#X connect 66 0 59 0;
#X connect 66 1 64 0;
#X connect 66 2 56 1;
#X connect 67 0 57 0;
#X connect 68 0 69 0;
#X connect 69 0 70 0;
#X connect 69 0 84 0;
#X connect 70 0 69 1;
#X connect 71 0 85 0;
#X connect 72 0 68 0;
#X connect 72 1 73 0;
#X connect 73 0 69 1;
#X connect 75 0 74 0;
#X connect 76 0 72 0;
#X connect 77 0 78 0;
#X connect 78 0 71 0;
#X connect 79 0 76 0;
#X connect 80 0 79 0;
#X connect 81 0 85 1;
#X connect 82 0 83 0;
#X connect 83 0 81 0;
#X connect 84 0 77 0;
#X connect 84 1 82 0;
#X connect 84 2 74 1;
#X connect 85 0 75 0;
#X connect 86 0 99 1;
#X connect 86 1 24 1;
#X connect 86 2 43 1;
#X connect 86 3 61 1;
#X connect 86 4 79 1;
#X connect 87 0 88 0;
#X connect 88 0 26 0;
#X connect 88 1 44 0;
#X connect 88 2 62 0;
#X connect 88 3 80 0;
#X connect 89 0 90 0;
#X connect 89 0 92 0;
#X connect 90 0 91 0;
#X connect 91 0 89 1;
#X connect 92 0 95 0;
#X connect 93 0 94 0;
#X connect 94 0 104 0;
#X connect 95 0 93 0;
#X connect 95 1 97 0;
#X connect 98 0 20 0;
#X connect 99 0 17 0;
#X connect 100 0 93 1;
#X connect 101 0 94 1;
#X connect 104 0 96 0;
#X connect 107 0 101 0;
#X coords 0 -1 1 1 185 140 1 165 15;
