#N canvas 0 116 1366 652 10;
#X obj 88 293 phasor~;
#X obj 55 348 *~ 2;
#X obj 55 371 -~ 1;
#X obj 88 466 expr~ if($v1>0.5 \, 1 \, -1);
#X obj 144 350 *~ -1;
#X obj 144 373 +~ 1;
#X obj 124 396 min~;
#X obj 124 419 *~ 4;
#X obj 124 442 -~ 1;
#X obj 158 442 noise~;
#X obj 55 543 *~;
#X obj 89 543 *~;
#X obj 123 543 *~;
#X obj 157 543 *~;
#X obj 70 47 vradio 15 1 0 4 empty empty w1 0 -8 0 10 -262144 -1 -1
1;
#X obj 70 491 t f f f f, f 18;
#X obj 55 576 +~;
#X obj 70 520 == 0;
#X obj 104 520 == 1;
#X obj 138 520 == 2;
#X obj 172 520 == 3;
#X obj 278 293 phasor~;
#X obj 245 348 *~ 2;
#X obj 245 371 -~ 1;
#X obj 278 466 expr~ if($v1>0.5 \, 1 \, -1);
#X obj 334 350 *~ -1;
#X obj 334 373 +~ 1;
#X obj 314 396 min~;
#X obj 314 419 *~ 4;
#X obj 314 442 -~ 1;
#X obj 245 543 *~;
#X obj 279 543 *~;
#X obj 313 543 *~;
#X obj 347 543 *~;
#X obj 102 47 vradio 15 1 0 4 empty empty w2 0 -8 0 10 -262144 -1 -1
2;
#X obj 260 491 t f f f f, f 18;
#X obj 245 576 +~;
#X obj 260 520 == 0;
#X obj 294 520 == 1;
#X obj 328 520 == 2;
#X obj 362 520 == 3;
#X obj 88 140 inlet;
#X obj 88 256 t f f;
#X obj 278 272 +;
#X obj 144 638 /~ 2;
#X obj 88 234 mtof;
#X obj 278 246 t b f;
#X obj 55 622 *~;
#X obj 456 607 *~, f 22;
#X obj 586 241 vline~;
#X obj 586 194 pack f f f f, f 25;
#X obj 586 171 f;
#X floatatom 601 105 5 0 0 0 - - -;
#X obj 601 127 t f f;
#X obj 640 151 +;
#X floatatom 640 105 5 0 0 0 - - -;
#X obj 640 127 t b f f, f 14;
#X floatatom 684 172 5 0 0 0 - - -;
#X obj 88 166 t f b;
#X floatatom 733 105 5 0 0 0 - - -;
#X obj 733 167 +;
#X obj 733 127 t b f;
#X obj 88 211 line;
#X obj 88 188 pack 0 0;
#X floatatom 133 140 5 0 0 0 - - -;
#X obj 231 49 vsl 8 55 1 2000 1 0 empty empty A 0 -9 0 10 -262144 -1
-1 2100 1;
#X obj 242 49 vsl 8 55 1 2000 1 0 empty empty D 0 -9 0 10 -262144 -1
-1 5000 1;
#X obj 253 49 vsl 8 55 1 2000 1 0 empty empty S 0 -9 0 10 -262144 -1
-1 4400 1;
#X obj 264 49 vsl 8 55 1 2000 1 0 empty empty R 0 -9 0 10 -262144 -1
-1 3600 1;
#X obj 455 312 hip~;
#X obj 455 335 hip~;
#X obj 455 358 hip~;
#X floatatom 501 343 5 0 0 0 - - -;
#X obj 190 49 vsl 15 55 0.5 5000 1 0 empty empty Hp 0 -9 0 10 -228856
-1 -1 400 1;
#X obj 455 385 lop~;
#X obj 455 408 lop~;
#X obj 455 431 lop~;
#X floatatom 501 416 5 0 0 0 - - -;
#X obj 209 49 vsl 15 55 0.5 10000 0 0 empty empty Lp 0 -9 0 10 -191407
-1 -1 2300 1;
#X obj 501 297 pack 0 20;
#X obj 501 370 pack 0 20;
#X msg 586 218 1 \$1 \, 0.8 \$2 \$1 \, 0 \$3 \$4;
#X floatatom 520 252 5 0 0 0 - - -;
#X obj 472 151 osc~ 1;
#X obj 472 174 +~ 1;
#X obj 472 197 /~ 2;
#X obj 472 243 +~ 100;
#X obj 472 220 *~ 1000;
#X floatatom 511 197 5 0 0 0 - - -;
#X floatatom 527 228 5 0 0 0 - - -;
#X obj 586 264 pow~ 2;
#X obj 134 49 vsl 8 55 0 2000 0 0 empty empty P 0 -9 0 10 -1 -262144
-1 600 1;
#X obj 70 111 nbx 7 14 -24 24 0 0 empty empty empty 0 -8 0 10 -262144
-1 -1 -5 256;
#X obj 153 49 vsl 8 55 100 2000 0 0 empty empty C 0 -9 0 10 -191407
-262144 -1 2100 1;
#X obj 164 49 vsl 8 55 0 1000 0 0 empty empty f 0 -9 0 10 -191407 -262144
-1 2700 1;
#X obj 175 49 vsl 8 55 0 100 0 0 empty empty Q 0 -9 0 10 -191407 -262144
-1 1100 1;
#X obj 153 111 nbx 3 14 0 20 0 0 empty empty hz 40 7 0 10 -191407 -262144
-1 1 256;
#X obj 619 565 clip~ -1 1;
#X obj 619 605 outlet~;
#X obj 456 267 vcf~ 5;
#X obj 245 599 *~;
#X obj 55 599 *~;
#X obj 121 49 vsl 8 55 0.01 1 1 0 empty empty l2 0 -9 0 10 -262144
-1 -1 5000 1;
#X obj 89 49 vsl 8 55 0.01 1 1 0 empty empty l1 0 -9 0 10 -262144 -1
-1 4500 1;
#X obj 501 320 line;
#X obj 501 393 line;
#X obj 305 599 pack 0 20;
#X obj 272 599 line;
#X obj 118 599 pack 0 20;
#X obj 84 599 line;
#X connect 0 0 1 0;
#X connect 0 0 3 0;
#X connect 0 0 4 0;
#X connect 0 0 6 0;
#X connect 1 0 2 0;
#X connect 2 0 10 0;
#X connect 3 0 11 0;
#X connect 4 0 5 0;
#X connect 5 0 6 1;
#X connect 6 0 7 0;
#X connect 7 0 8 0;
#X connect 8 0 12 0;
#X connect 9 0 13 0;
#X connect 10 0 16 0;
#X connect 11 0 16 1;
#X connect 12 0 16 1;
#X connect 13 0 16 1;
#X connect 14 0 15 0;
#X connect 15 0 17 0;
#X connect 15 1 18 0;
#X connect 15 2 19 0;
#X connect 15 3 20 0;
#X connect 16 0 101 0;
#X connect 17 0 10 1;
#X connect 18 0 11 1;
#X connect 19 0 12 1;
#X connect 20 0 13 1;
#X connect 21 0 22 0;
#X connect 21 0 24 0;
#X connect 21 0 25 0;
#X connect 21 0 27 0;
#X connect 22 0 23 0;
#X connect 23 0 30 0;
#X connect 24 0 31 0;
#X connect 24 0 33 0;
#X connect 25 0 26 0;
#X connect 26 0 27 1;
#X connect 27 0 28 0;
#X connect 28 0 29 0;
#X connect 29 0 32 0;
#X connect 30 0 36 0;
#X connect 31 0 36 1;
#X connect 32 0 36 1;
#X connect 33 0 47 1;
#X connect 34 0 35 0;
#X connect 35 0 37 0;
#X connect 35 1 38 0;
#X connect 35 2 39 0;
#X connect 35 3 40 0;
#X connect 36 0 100 0;
#X connect 37 0 30 1;
#X connect 38 0 31 1;
#X connect 39 0 32 1;
#X connect 40 0 33 1;
#X connect 41 0 58 0;
#X connect 42 0 0 0;
#X connect 42 1 43 0;
#X connect 43 0 21 0;
#X connect 44 0 99 0;
#X connect 45 0 42 0;
#X connect 46 0 43 0;
#X connect 46 1 43 1;
#X connect 47 0 44 0;
#X connect 48 0 97 0;
#X connect 49 0 90 0;
#X connect 50 0 81 0;
#X connect 51 0 50 0;
#X connect 52 0 53 0;
#X connect 53 0 51 1;
#X connect 53 1 54 0;
#X connect 54 0 60 0;
#X connect 55 0 56 0;
#X connect 56 0 54 0;
#X connect 56 1 54 1;
#X connect 56 2 50 1;
#X connect 57 0 50 2;
#X connect 58 0 63 0;
#X connect 58 1 51 0;
#X connect 59 0 61 0;
#X connect 60 0 50 3;
#X connect 61 0 60 0;
#X connect 61 1 60 1;
#X connect 62 0 45 0;
#X connect 63 0 62 0;
#X connect 64 0 63 1;
#X connect 65 0 52 0;
#X connect 66 0 55 0;
#X connect 67 0 59 0;
#X connect 68 0 57 0;
#X connect 69 0 70 0;
#X connect 70 0 71 0;
#X connect 71 0 74 0;
#X connect 72 0 69 1;
#X connect 72 0 70 1;
#X connect 72 0 71 1;
#X connect 73 0 79 0;
#X connect 74 0 75 0;
#X connect 75 0 76 0;
#X connect 76 0 48 0;
#X connect 77 0 74 1;
#X connect 77 0 76 1;
#X connect 77 0 75 1;
#X connect 78 0 80 0;
#X connect 79 0 104 0;
#X connect 80 0 105 0;
#X connect 81 0 49 0;
#X connect 82 0 99 2;
#X connect 83 0 84 0;
#X connect 84 0 85 0;
#X connect 85 0 87 0;
#X connect 86 0 99 1;
#X connect 87 0 86 0;
#X connect 88 0 87 1;
#X connect 89 0 86 1;
#X connect 90 0 48 1;
#X connect 91 0 64 0;
#X connect 92 0 46 0;
#X connect 93 0 88 0;
#X connect 94 0 89 0;
#X connect 95 0 82 0;
#X connect 96 0 83 0;
#X connect 97 0 98 0;
#X connect 99 0 69 0;
#X connect 100 0 44 0;
#X connect 101 0 47 0;
#X connect 101 0 44 0;
#X connect 102 0 106 0;
#X connect 103 0 108 0;
#X connect 104 0 72 0;
#X connect 105 0 77 0;
#X connect 106 0 107 0;
#X connect 107 0 100 1;
#X connect 108 0 109 0;
#X connect 109 0 101 1;
#X coords 0 -1 1 1 220 128 1 61 5;
