#N canvas 336 186 948 538 10;
#X floatatom 109 125 3 1 20 2 qta - -;
#N canvas 6 116 450 250 (subpatch) 0;
#X array \$0-prg 20 float 3;
#A 0 5 6 7 4 4 7 1 7 6 1 1 0 4 6 4 13 15 22 21 0;
#X coords 0 25 20 -1 50 17 2 0 0;
#X restore 182 125 graph;
#X obj 88 125 bng 15 250 50 0 empty empty empty 17 7 0 10 -262144 -1
-1;
#X obj 88 160 f;
#X obj 116 160 + 1;
#X floatatom 88 207 5 0 0 0 - - -;
#X obj 88 183 mod 8;
#X obj 594 138 tgl 15 0 empty empty rnd 0 -8 0 10 -262144 -1 -1 0 1
;
#X obj 621 273 random 23;
#X obj 594 183 f;
#X obj 637 183 + 1;
#X floatatom 594 206 5 0 0 0 - - -;
#X obj 594 252 bng 15 250 50 0 empty empty empty 17 7 0 10 -262144
-1 -1;
#X msg 563 185 0;
#X obj 594 228 sel 0;
#X floatatom 621 295 5 0 0 0 - - -;
#X obj 621 252 bng 15 250 50 0 empty empty empty 17 7 0 10 -262144
-1 -1;
#X obj 548 360 array set \$0-prg;
#X obj 88 231 array get \$0-prg;
#X obj 88 275 +;
#X floatatom 182 87 3 0 0 1 root - -;
#X obj 88 15 inlet;
#X obj 182 15 inlet;
#X floatatom 88 303 5 0 0 0 - - -;
#X floatatom 133 125 3 2 24 2 D - -;
#X obj 594 160 metro 50;
#X obj 162 125 bng 15 250 50 0 empty empty rnd 0 -8 0 10 -262144 -1
-1;
#X obj 292 15 inlet;
#X obj 420 304 sel 0;
#X obj 447 282 - 1;
#X floatatom 88 254 5 0 0 0 - - -;
#X obj 440 259 - 24;
#X floatatom 276 157 5 0 0 0 - - -;
#X floatatom 276 202 5 0 0 0 - - -;
#X obj 276 179 % 4;
#X obj 276 224 sel 0 1 2 3;
#X msg 276 248 2;
#X msg 291 274 1;
#X msg 307 248 0.5;
#X msg 324 274 0.25;
#X floatatom 276 307 5 0 0 0 - - -;
#X obj 89 328 outlet;
#X obj 177 327 outlet;
#X obj 276 329 outlet;
#X obj 420 327 outlet;
#X connect 0 0 14 1;
#X connect 0 0 6 1;
#X connect 0 0 29 0;
#X connect 2 0 3 0;
#X connect 3 0 4 0;
#X connect 3 0 6 0;
#X connect 4 0 3 1;
#X connect 5 0 18 0;
#X connect 5 0 28 0;
#X connect 6 0 5 0;
#X connect 7 0 25 0;
#X connect 8 0 15 0;
#X connect 9 0 10 0;
#X connect 9 0 11 0;
#X connect 10 0 9 1;
#X connect 11 0 14 0;
#X connect 11 0 17 1;
#X connect 12 0 13 0;
#X connect 13 0 9 0;
#X connect 13 0 7 0;
#X connect 14 0 12 0;
#X connect 14 1 16 0;
#X connect 15 0 17 0;
#X connect 16 0 8 0;
#X connect 18 0 30 0;
#X connect 19 0 23 0;
#X connect 20 0 31 0;
#X connect 21 0 2 0;
#X connect 22 0 20 0;
#X connect 23 0 41 0;
#X connect 24 0 8 1;
#X connect 25 0 9 0;
#X connect 26 0 7 0;
#X connect 27 0 26 0;
#X connect 28 0 44 0;
#X connect 29 0 28 1;
#X connect 30 0 19 0;
#X connect 30 0 32 0;
#X connect 30 0 42 0;
#X connect 31 0 19 1;
#X connect 32 0 34 0;
#X connect 33 0 35 0;
#X connect 34 0 33 0;
#X connect 35 0 36 0;
#X connect 35 1 37 0;
#X connect 35 2 38 0;
#X connect 35 3 39 0;
#X connect 36 0 40 0;
#X connect 37 0 40 0;
#X connect 38 0 40 0;
#X connect 39 0 40 0;
#X connect 40 0 43 0;
#X coords 0 -1 1 1 160 80 1 80 70;
