#N canvas 592 185 787 562 10;
#X obj 366 148 list length;
#X obj 316 257 list store, f 12;
#X obj 316 188 f 0;
#X obj 342 188 + 1;
#X obj 368 188 % 2;
#X msg 316 234 get \$1 1;
#X msg 331 165 0;
#X obj 513 148 list length;
#X obj 463 258 list store, f 12;
#X obj 463 189 f 0;
#X obj 489 189 + 1;
#X obj 515 189 % 2;
#X msg 463 235 get \$1 1;
#X obj 463 212 t f f;
#X obj 504 212 sel 0;
#X obj 316 313 t f b;
#X obj 316 363 list store, f 15;
#X obj 504 67 bng 15 250 50 0 empty empty empty 17 7 0 10 -262144 -1
-1;
#X obj 431 274 i 0;
#X obj 316 211 t f b f, f 12;
#X obj 316 80 tgl 15 0 empty empty empty 17 7 0 10 -262144 -1 -1 0
1;
#X obj 316 100 metro 100;
#X obj 396 211 sel 0;
#X obj 316 336 list prepend;
#X msg 478 166 0;
#X obj 316 448 outlet;
#X obj 316 408 spigot;
#X msg 347 386 0;
#X msg 504 392 1;
#X obj 155 301 f 0;
#X obj 181 301 + 1;
#X obj 207 301 % 2;
#X msg 170 278 0;
#X obj 170 256 r sync;
#X obj 222 164 t b f;
#X obj 222 190 i;
#X obj 155 28 inlet;
#X obj 555 448 outlet;
#X msg 155 347 get \$1 1;
#X obj 316 290 *;
#X obj 155 324 t f f;
#X obj 630 340 sel 0;
#X obj 630 448 outlet;
#X obj 192 139 t b f, f 8;
#X obj 222 216 *, f 5;
#X obj 366 125 t l l b;
#X obj 512 125 t l l b;
#X obj 268 28 inlet;
#X obj 366 28 inlet;
#X obj 512 28 inlet;
#X obj 268 172 t b b;
#X obj 555 306 t f;
#X connect 0 0 4 1;
#X connect 0 0 43 0;
#X connect 1 0 39 0;
#X connect 2 0 3 0;
#X connect 2 0 19 0;
#X connect 3 0 4 0;
#X connect 4 0 2 1;
#X connect 5 0 1 0;
#X connect 6 0 2 1;
#X connect 7 0 11 1;
#X connect 7 0 34 0;
#X connect 8 0 18 1;
#X connect 9 0 10 0;
#X connect 9 0 13 0;
#X connect 10 0 11 0;
#X connect 11 0 9 1;
#X connect 12 0 8 0;
#X connect 13 0 12 0;
#X connect 13 1 14 0;
#X connect 14 0 17 0;
#X connect 14 0 28 0;
#X connect 15 0 23 0;
#X connect 15 1 16 0;
#X connect 16 0 23 1;
#X connect 16 0 26 0;
#X connect 17 0 20 0;
#X connect 18 0 39 1;
#X connect 19 0 5 0;
#X connect 19 1 18 0;
#X connect 19 2 22 0;
#X connect 20 0 21 0;
#X connect 21 0 2 0;
#X connect 22 0 9 0;
#X connect 23 0 16 1;
#X connect 24 0 9 1;
#X connect 26 0 25 0;
#X connect 27 0 26 1;
#X connect 28 0 26 1;
#X connect 29 0 30 0;
#X connect 29 0 40 0;
#X connect 30 0 31 0;
#X connect 31 0 29 1;
#X connect 32 0 29 1;
#X connect 33 0 32 0;
#X connect 34 0 35 0;
#X connect 34 1 44 1;
#X connect 35 0 44 0;
#X connect 36 0 29 0;
#X connect 38 0 16 0;
#X connect 39 0 15 0;
#X connect 39 0 51 0;
#X connect 40 0 38 0;
#X connect 40 1 41 0;
#X connect 41 0 42 0;
#X connect 43 0 35 0;
#X connect 43 1 35 1;
#X connect 44 0 31 1;
#X connect 45 0 0 0;
#X connect 45 1 1 1;
#X connect 45 2 16 1;
#X connect 46 0 7 0;
#X connect 46 1 8 1;
#X connect 46 2 16 1;
#X connect 47 0 50 0;
#X connect 48 0 45 0;
#X connect 49 0 46 0;
#X connect 50 0 20 0;
#X connect 50 1 27 0;
#X connect 51 0 37 0;
