#N canvas 427 256 537 387 10;
#X obj 436 140 clip 0.1 3;
#X obj 91 169 expr $f3 + (($f4 - $f3) * pow((1 - ((1 + sin($f1 * $f2))
/ 2)) \, $f5));
#X obj 91 142 f 0;
#X obj 117 142 + 1;
#X obj 143 142 % \$1;
#X obj 106 97 r sync;
#X msg 106 120 0;
#X obj 91 69 t b b, f 14;
#X obj 177 98 f \$2;
#X obj 263 98 f \$3;
#X obj 349 95 f \$4;
#X obj 436 85 f \$5;
#X text 184 117 mod freq;
#X text 277 117 min time;
#X text 359 117 max time;
#X text 449 117 exp;
#X obj 46 198 metro;
#X obj 46 328 outlet;
#X obj 46 28 inlet;
#X obj 46 169 == 1;
#X obj 91 28 loadbang;
#X obj 137 284 bng 15 250 50 0 empty empty empty 17 7 0 10 -262144
-1 -1;
#X obj 46 223 t b b;
#X obj 73 246 f 0;
#X obj 99 246 + 1;
#X obj 125 246 % \$1;
#X obj 73 269 sel 0;
#X obj 91 328 outlet;
#X obj 147 28 inlet;
#X obj 198 28 inlet;
#X obj 284 28 inlet;
#X obj 370 28 inlet;
#X obj 457 28 inlet;
#X connect 0 0 1 4;
#X connect 1 0 16 1;
#X connect 1 0 27 0;
#X connect 2 0 3 0;
#X connect 2 0 1 0;
#X connect 3 0 4 0;
#X connect 4 0 2 1;
#X connect 5 0 6 0;
#X connect 6 0 2 1;
#X connect 7 0 2 0;
#X connect 7 1 8 0;
#X connect 7 1 11 0;
#X connect 7 1 10 0;
#X connect 7 1 9 0;
#X connect 8 0 1 1;
#X connect 9 0 1 2;
#X connect 10 0 1 3;
#X connect 11 0 0 0;
#X connect 16 0 22 0;
#X connect 18 0 19 0;
#X connect 19 0 16 0;
#X connect 20 0 7 0;
#X connect 21 0 7 0;
#X connect 22 0 17 0;
#X connect 22 1 23 0;
#X connect 23 0 24 0;
#X connect 23 0 26 0;
#X connect 24 0 25 0;
#X connect 25 0 23 1;
#X connect 26 0 21 0;
#X connect 28 0 4 1;
#X connect 28 0 25 1;
#X connect 29 0 8 1;
#X connect 30 0 9 1;
#X connect 31 0 10 1;
#X connect 32 0 11 1;
