#N canvas 317 276 845 527 10;
#X obj 137 230 f \$1;
#X obj 208 230 f \$2;
#X obj 279 230 f \$3;
#X obj 66 378 outlet;
#X obj 66 52 inlet;
#X obj 158 52 inlet;
#X obj 229 52 inlet;
#X obj 300 52 inlet;
#X obj 66 279 wrap 1;
#X obj 66 302 > 0.5;
#X obj 66 256 expr ($f1+$f4+($f2/$f3))*($f3/$f2), f 36;
#X obj 66 205 t f b b b, f 36;
#X obj 66 325 sel 1, f 36;
#X obj 279 378 outlet;
#X connect 0 0 10 1;
#X connect 1 0 10 2;
#X connect 2 0 10 3;
#X connect 4 0 11 0;
#X connect 5 0 0 1;
#X connect 6 0 1 1;
#X connect 7 0 2 1;
#X connect 8 0 9 0;
#X connect 9 0 12 0;
#X connect 10 0 8 0;
#X connect 11 0 10 0;
#X connect 11 1 0 0;
#X connect 11 2 1 0;
#X connect 11 3 2 0;
#X connect 12 0 3 0;
#X connect 12 1 13 0;
