#N canvas 36 153 1311 609 10;
#X obj 34 17 inlet;
#X obj 34 201 clip 1 127;
#X obj 34 248 t f f f f, f 15;
#X obj 34 271 + 2;
#X obj 63 271 + 5;
#X obj 92 271 + 9;
#X obj 121 271 + 12;
#X obj 175 293 - 5;
#X obj 204 293 - 1;
#X obj 233 293 + 2;
#X obj 262 293 + 5;
#X obj 313 292 + 0;
#X obj 342 292 + 4;
#X obj 371 292 + 7;
#X obj 400 292 + 11;
#X obj 107 17 inlet;
#X floatatom 143 96 5 0 0 3 delay - -;
#X floatatom 34 379 5 0 0 0 - - -;
#X floatatom 178 379 5 0 0 0 - - -;
#X floatatom 283 379 5 0 0 0 - - -;
#X floatatom 400 379 5 0 0 0 - - -;
#X obj 34 224 t f f f, f 47;
#X obj 175 247 pipe \$1;
#X obj 313 247 pipe \$1;
#X obj 352 224 * 2;
#X obj 107 96 hradio 16 1 0 2 empty empty M/m 0 26 0 10 -262144 -1
-1 0;
#X obj 107 150 sel 0 1;
#X obj 107 39 clip 0 1;
#X obj 34 541 outlet;
#X obj 178 541 outlet;
#X obj 283 541 outlet;
#X obj 400 541 outlet;
#X obj 34 40 t f b;
#X obj 88 96 bng 15 250 50 0 empty empty empty 17 7 0 10 -262144 -228856
-1;
#X obj 34 324 + 0;
#X obj 63 324 + 0;
#X obj 92 324 + 0;
#X obj 121 324 + 0;
#X obj 175 324 + 0;
#X obj 204 324 + 0;
#X obj 233 324 + 0;
#X obj 262 324 + 0;
#X obj 313 324 + 0;
#X obj 342 324 + 0;
#X obj 371 324 + 0;
#X obj 400 324 + 0;
#X obj 234 44 sel 0 1 2 3, f 50;
#X obj 234 115 unpack f f f f, f 51;
#X msg 234 67 -12 0 0 0;
#X msg 308 67 0 -12 0 0;
#X msg 382 67 0 0 -12 0;
#X msg 456 67 0 0 0 -12;
#X msg 531 67 0 0 0 0;
#X obj 234 21 random 6;
#X obj 594 44 sel 0 1 2 3, f 50;
#X obj 594 115 unpack f f f f, f 51;
#X msg 594 67 -12 0 0 0;
#X msg 668 67 0 -12 0 0;
#X msg 742 67 0 0 -12 0;
#X msg 816 67 0 0 0 -12;
#X msg 891 67 0 0 0 0;
#X obj 594 21 random 6;
#X obj 954 44 sel 0 1 2 3, f 50;
#X obj 954 115 unpack f f f f, f 51;
#X msg 954 67 -12 0 0 0;
#X msg 1028 67 0 -12 0 0;
#X msg 1102 67 0 0 -12 0;
#X msg 1176 67 0 0 0 -12;
#X msg 1251 67 0 0 0 0;
#X obj 954 21 random 6;
#X obj 107 200 unpack f f f f, f 35;
#X msg 107 174 9 12 4 11;
#X msg 160 150 8 11 3 10;
#X obj 34 501 spigot;
#X obj 178 501 spigot;
#X obj 283 501 spigot;
#X obj 400 501 spigot;
#X obj 493 439 unpack f f f f;
#X msg 493 384 1 1 1 1;
#X msg 550 384 1 1 1 0;
#X msg 605 384 1 1 0 0;
#X msg 661 384 1 0 1 0;
#X msg 719 384 0 1 1 0;
#X msg 777 384 0 1 0 1;
#X msg 833 384 1 0 0 1;
#X obj 493 357 sel 0 1 2 3 4 5 6, f 66;
#X obj 175 270 t f f f f b, f 20;
#X obj 313 269 t f f f f b, f 20;
#X msg 886 384 0 0 0 0;
#X obj 493 334 random 9;
#X connect 0 0 32 0;
#X connect 1 0 21 0;
#X connect 2 0 3 0;
#X connect 2 1 4 0;
#X connect 2 2 5 0;
#X connect 2 3 6 0;
#X connect 3 0 34 0;
#X connect 4 0 35 0;
#X connect 5 0 36 0;
#X connect 6 0 37 0;
#X connect 7 0 38 0;
#X connect 8 0 39 0;
#X connect 9 0 40 0;
#X connect 10 0 41 0;
#X connect 11 0 42 0;
#X connect 12 0 43 0;
#X connect 13 0 44 0;
#X connect 14 0 45 0;
#X connect 15 0 27 0;
#X connect 16 0 22 1;
#X connect 16 0 24 0;
#X connect 17 0 73 0;
#X connect 18 0 74 0;
#X connect 19 0 75 0;
#X connect 20 0 76 0;
#X connect 21 0 2 0;
#X connect 21 1 22 0;
#X connect 21 2 23 0;
#X connect 22 0 86 0;
#X connect 23 0 87 0;
#X connect 24 0 23 1;
#X connect 25 0 26 0;
#X connect 26 0 71 0;
#X connect 26 1 72 0;
#X connect 27 0 25 0;
#X connect 32 0 1 0;
#X connect 32 1 33 0;
#X connect 33 0 53 0;
#X connect 33 0 61 0;
#X connect 33 0 69 0;
#X connect 33 0 89 0;
#X connect 34 0 17 0;
#X connect 35 0 18 0;
#X connect 36 0 19 0;
#X connect 37 0 20 0;
#X connect 38 0 17 0;
#X connect 39 0 18 0;
#X connect 40 0 19 0;
#X connect 41 0 20 0;
#X connect 42 0 17 0;
#X connect 43 0 18 0;
#X connect 44 0 19 0;
#X connect 45 0 20 0;
#X connect 46 0 48 0;
#X connect 46 1 49 0;
#X connect 46 2 50 0;
#X connect 46 3 51 0;
#X connect 46 4 52 0;
#X connect 47 0 34 1;
#X connect 47 1 35 1;
#X connect 47 2 36 1;
#X connect 47 3 37 1;
#X connect 48 0 47 0;
#X connect 49 0 47 0;
#X connect 50 0 47 0;
#X connect 51 0 47 0;
#X connect 52 0 47 0;
#X connect 53 0 46 0;
#X connect 54 0 56 0;
#X connect 54 1 57 0;
#X connect 54 2 58 0;
#X connect 54 3 59 0;
#X connect 54 4 60 0;
#X connect 55 0 38 1;
#X connect 55 1 39 1;
#X connect 55 2 40 1;
#X connect 55 3 41 1;
#X connect 56 0 55 0;
#X connect 57 0 55 0;
#X connect 58 0 55 0;
#X connect 59 0 55 0;
#X connect 60 0 55 0;
#X connect 61 0 54 0;
#X connect 62 0 64 0;
#X connect 62 1 65 0;
#X connect 62 2 66 0;
#X connect 62 3 67 0;
#X connect 62 4 68 0;
#X connect 63 0 42 1;
#X connect 63 1 43 1;
#X connect 63 2 44 1;
#X connect 63 3 45 1;
#X connect 64 0 63 0;
#X connect 65 0 63 0;
#X connect 66 0 63 0;
#X connect 67 0 63 0;
#X connect 68 0 63 0;
#X connect 69 0 62 0;
#X connect 70 0 5 1;
#X connect 70 1 6 1;
#X connect 70 2 12 1;
#X connect 70 3 14 1;
#X connect 71 0 70 0;
#X connect 72 0 70 0;
#X connect 73 0 28 0;
#X connect 74 0 29 0;
#X connect 75 0 30 0;
#X connect 76 0 31 0;
#X connect 77 0 73 1;
#X connect 77 1 74 1;
#X connect 77 2 75 1;
#X connect 77 3 76 1;
#X connect 78 0 77 0;
#X connect 79 0 77 0;
#X connect 80 0 77 0;
#X connect 81 0 77 0;
#X connect 82 0 77 0;
#X connect 83 0 77 0;
#X connect 84 0 77 0;
#X connect 85 0 78 0;
#X connect 85 1 79 0;
#X connect 85 2 80 0;
#X connect 85 3 81 0;
#X connect 85 4 82 0;
#X connect 85 5 83 0;
#X connect 85 6 84 0;
#X connect 85 7 88 0;
#X connect 86 0 7 0;
#X connect 86 1 8 0;
#X connect 86 2 9 0;
#X connect 86 3 10 0;
#X connect 86 4 89 0;
#X connect 87 0 11 0;
#X connect 87 1 12 0;
#X connect 87 2 13 0;
#X connect 87 3 14 0;
#X connect 87 4 89 0;
#X connect 88 0 77 0;
#X connect 89 0 85 0;
#X coords 0 -1 1 1 105 65 1 80 70;
