#N canvas 220 187 450 300 10;
#X obj 55 128 f 0;
#X obj 81 128 + 1;
#X obj 55 176 expr (log($f1)*log($f2)*$f3) % ($f5-$f4+1) + $f4;
#X obj 55 152 + 1;
#X obj 107 128 % \$1;
#X obj 126 152 f \$2;
#X obj 197 152 f \$3;
#X obj 340 152 i \$5;
#X obj 268 152 i \$4;
#X obj 55 222 outlet;
#X obj 55 60 inlet;
#X obj 55 93 bang;
#X obj 147 60 inlet;
#X obj 147 94 clip 0.1 10;
#X obj 218 60 inlet;
#X obj 218 117 clip 0.1 25;
#X obj 289 60 inlet;
#X obj 289 94 clip 30 96;
#X obj 361 60 inlet;
#X obj 361 94 clip 30 96;
#X obj 98 60 r sync;
#X msg 98 83 0;
#X connect 0 0 1 0;
#X connect 0 0 3 0;
#X connect 1 0 4 0;
#X connect 2 0 9 0;
#X connect 3 0 2 0;
#X connect 4 0 0 1;
#X connect 5 0 2 1;
#X connect 6 0 2 2;
#X connect 7 0 2 4;
#X connect 8 0 2 3;
#X connect 10 0 11 0;
#X connect 11 0 0 0;
#X connect 11 0 5 0;
#X connect 11 0 6 0;
#X connect 11 0 8 0;
#X connect 11 0 7 0;
#X connect 12 0 13 0;
#X connect 13 0 5 1;
#X connect 14 0 15 0;
#X connect 15 0 6 1;
#X connect 16 0 17 0;
#X connect 17 0 8 1;
#X connect 18 0 19 0;
#X connect 19 0 7 1;
#X connect 20 0 21 0;
#X connect 21 0 0 1;
