#N canvas 335 196 438 482 10;
#X obj 37 19 inlet;
#X obj 90 219 + 1;
#X obj 116 219 % 2;
#X obj 64 219 f 0;
#X obj 64 242 sel 0 1, f 12;
#X obj 64 313 + 0;
#X obj 98 327 - 0;
#X obj 92 173 + 1;
#X obj 90 82 + 1;
#X obj 116 82 % 2;
#X obj 64 82 f 0;
#X obj 64 105 sel 0;
#X obj 171 219 + 1;
#X obj 197 219 % 2;
#X obj 145 219 f 0;
#X obj 145 242 sel 0 1, f 12;
#X obj 145 265 f 1;
#X obj 179 265 f 2;
#X obj 37 220 f 0;
#X obj 37 389 t f f, f 10;
#X obj 64 196 t b b, f 14;
#X obj 37 58 t b b;
#X obj 37 173 del 10;
#X obj 37 343 + 0, f 5;
#X obj 37 436 outlet;
#X obj 121 436 outlet;
#X obj 121 389 f 0;
#X obj 64 128 t b b b, f 10;
#X obj 92 150 random \$2;
#X obj 37 366 % \$1;
#X connect 0 0 21 0;
#X connect 1 0 2 0;
#X connect 2 0 3 1;
#X connect 3 0 4 0;
#X connect 3 0 1 0;
#X connect 4 0 5 0;
#X connect 4 1 6 0;
#X connect 5 0 23 1;
#X connect 6 0 23 1;
#X connect 7 0 9 1;
#X connect 8 0 9 0;
#X connect 9 0 10 1;
#X connect 10 0 8 0;
#X connect 10 0 11 0;
#X connect 11 0 27 0;
#X connect 12 0 13 0;
#X connect 13 0 14 1;
#X connect 14 0 12 0;
#X connect 14 0 15 0;
#X connect 15 0 16 0;
#X connect 15 1 17 0;
#X connect 16 0 5 1;
#X connect 16 0 6 1;
#X connect 17 0 5 1;
#X connect 17 0 6 1;
#X connect 18 0 23 0;
#X connect 19 0 24 0;
#X connect 19 1 18 1;
#X connect 19 1 26 1;
#X connect 20 0 3 0;
#X connect 20 1 14 0;
#X connect 21 0 22 0;
#X connect 21 1 10 0;
#X connect 22 0 18 0;
#X connect 23 0 29 0;
#X connect 26 0 25 0;
#X connect 27 0 20 0;
#X connect 27 1 28 0;
#X connect 27 2 26 0;
#X connect 28 0 7 0;
#X connect 29 0 19 0;
