#N canvas 602 116 723 627 10;
#X msg 319 159 \$1;
#X obj 319 182 until;
#X obj 319 205 random 12;
#X obj 319 228 - 6;
#X obj 319 251 t f b, f 11;
#X obj 319 298 list store, f 11;
#X obj 319 90 t b b, f 11;
#X obj 319 136 + 3;
#X obj 319 113 random 4;
#X obj 193 189 f 0;
#X obj 219 189 + 1;
#X obj 245 189 % 2;
#X msg 193 282 get \$1 1;
#X obj 319 322 spigot, f 17;
#X msg 418 173 0;
#X msg 459 129 1;
#X obj 459 106 del 20;
#X obj 319 368 i 0;
#X obj 319 345 t b f;
#X obj 319 392 + 0, f 5;
#X obj 319 437 t f f;
#X obj 319 415 % 12;
#X obj 193 144 tgl 15 0 empty empty empty 17 7 0 10 -262144 -1 -1 0
1;
#X obj 360 438 sel 0;
#X obj 193 166 metro 20;
#X obj 319 462 t f b, f 11;
#X obj 319 509 list store, f 17;
#X obj 319 533 spigot, f 24;
#X msg 460 477 1;
#X obj 319 274 list append;
#X obj 319 485 list append;
#X obj 193 119 del 5;
#X msg 459 322 0;
#X obj 89 35 inlet;
#X obj 89 336 f 0;
#X obj 115 336 + 1;
#X obj 141 336 % 2;
#X msg 89 493 get \$1 1;
#X obj 195 349 f 0;
#X obj 221 349 + 1;
#X msg 210 320 0;
#X floatatom 195 395 5 0 0 0 - - -;
#X obj 195 372 + 1;
#X obj 319 586 outlet;
#X obj 319 35 inlet;
#X obj 510 35 inlet;
#X msg 510 188 seed \$1;
#X obj 460 454 del 20;
#X obj 89 450 spigot;
#X obj 131 450 f 0;
#X obj 157 450 + 1;
#X obj 183 450 % 2;
#X obj 89 365 t f f;
#X obj 509 244 t f b, f 11;
#X obj 509 401 list store, f 11;
#X obj 509 277 list append;
#X obj 509 352 % 2;
#X msg 509 375 get \$1 1;
#X obj 509 533 abs;
#X obj 509 586 outlet;
#X obj 509 453 spigot;
#X obj 131 364 sel 0;
#X msg 123 281 1;
#X connect 0 0 1 0;
#X connect 0 0 11 1;
#X connect 0 0 56 1;
#X connect 1 0 2 0;
#X connect 2 0 3 0;
#X connect 3 0 4 0;
#X connect 3 0 53 0;
#X connect 4 0 29 0;
#X connect 4 1 5 0;
#X connect 5 0 13 0;
#X connect 5 0 29 1;
#X connect 6 0 8 0;
#X connect 6 1 5 1;
#X connect 6 1 14 0;
#X connect 6 1 16 0;
#X connect 6 1 26 1;
#X connect 6 1 40 0;
#X connect 6 1 54 1;
#X connect 6 1 62 0;
#X connect 7 0 0 0;
#X connect 8 0 7 0;
#X connect 9 0 10 0;
#X connect 9 0 12 0;
#X connect 10 0 11 0;
#X connect 11 0 9 1;
#X connect 12 0 5 0;
#X connect 13 0 18 0;
#X connect 14 0 9 1;
#X connect 14 0 13 1;
#X connect 14 0 17 1;
#X connect 14 0 27 1;
#X connect 14 0 60 1;
#X connect 15 0 13 1;
#X connect 15 0 32 0;
#X connect 15 0 22 0;
#X connect 15 0 60 1;
#X connect 16 0 15 0;
#X connect 17 0 19 0;
#X connect 18 0 17 0;
#X connect 18 1 19 1;
#X connect 19 0 21 0;
#X connect 20 0 25 0;
#X connect 20 1 17 1;
#X connect 20 1 23 0;
#X connect 21 0 20 0;
#X connect 22 0 24 0;
#X connect 23 0 31 0;
#X connect 23 0 47 0;
#X connect 24 0 9 0;
#X connect 25 0 30 0;
#X connect 25 1 26 0;
#X connect 25 1 38 0;
#X connect 26 0 27 0;
#X connect 26 0 30 1;
#X connect 27 0 43 0;
#X connect 28 0 27 1;
#X connect 29 0 5 1;
#X connect 30 0 26 1;
#X connect 31 0 22 0;
#X connect 32 0 25 0;
#X connect 33 0 34 0;
#X connect 34 0 35 0;
#X connect 34 0 52 0;
#X connect 34 0 56 0;
#X connect 35 0 36 0;
#X connect 36 0 34 1;
#X connect 37 0 26 0;
#X connect 38 0 39 0;
#X connect 38 0 42 0;
#X connect 39 0 38 1;
#X connect 40 0 34 1;
#X connect 40 0 38 1;
#X connect 41 0 36 1;
#X connect 42 0 41 0;
#X connect 44 0 6 0;
#X connect 45 0 46 0;
#X connect 46 0 2 0;
#X connect 47 0 28 0;
#X connect 48 0 37 0;
#X connect 49 0 50 0;
#X connect 49 0 48 1;
#X connect 50 0 51 0;
#X connect 51 0 49 1;
#X connect 52 0 48 0;
#X connect 52 1 61 0;
#X connect 53 0 55 0;
#X connect 53 1 54 0;
#X connect 54 0 55 1;
#X connect 54 0 60 0;
#X connect 55 0 54 1;
#X connect 56 0 57 0;
#X connect 57 0 54 0;
#X connect 58 0 59 0;
#X connect 60 0 58 0;
#X connect 61 0 49 0;
#X connect 62 0 48 1;
