#N canvas 565 277 759 448 10;
#X obj 47 176 phasor~;
#X obj 47 199 cos~;
#X obj 47 222 *~;
#X obj 47 290 +~;
#X obj 47 313 cos~;
#X obj 47 366 *~;
#X floatatom 106 151 5 0 0 0 - - -;
#X obj 106 173 pack 0 50;
#X obj 106 206 line~;
#X floatatom 106 233 5 0 0 0 - - -;
#X obj 106 275 phasor~;
#X obj 106 326 pack 0 30;
#X obj 106 349 line~;
#X obj 47 11 inlet;
#X obj 47 36 mtof;
#X obj 47 87 t f f;
#X obj 74 138 * 1;
#X obj 190 45 hradio 15 1 0 8 empty empty empty 0 -8 0 10 -262144 -1
-1 7;
#X obj 91 58 + 1;
#X obj 193 65 hsl 50 15 0 2 0 0 empty empty empty -2 -8 0 10 -1 -262144
-1 0 1;
#X obj 258 65 hsl 50 15 0.01 1 1 0 empty empty empty -2 -8 0 10 -262144
-1 -1 0 1;
#X obj 106 254 + 0;
#X obj 147 217 t b f;
#X obj 91 116 t b f;
#X obj 47 65 f;
#X obj 193 85 hsl 115 15 0 0.2 0 0 empty empty empty -2 -8 0 10 -191407
-1 -1 0 1;
#X obj 47 401 outlet~;
#X obj 147 196 * 20;
#X obj 91 81 * 0.5;
#X obj 351 11 inlet;
#X obj 351 34 clip 0 2;
#X obj 425 11 inlet;
#X obj 425 34 clip 10 2000;
#X connect 0 0 1 0;
#X connect 1 0 2 0;
#X connect 2 0 3 0;
#X connect 3 0 4 0;
#X connect 4 0 5 0;
#X connect 5 0 26 0;
#X connect 6 0 7 0;
#X connect 7 0 8 0;
#X connect 8 0 2 1;
#X connect 9 0 21 0;
#X connect 10 0 3 1;
#X connect 11 0 12 0;
#X connect 12 0 5 1;
#X connect 13 0 14 0;
#X connect 14 0 24 0;
#X connect 15 0 0 0;
#X connect 15 1 16 0;
#X connect 16 0 9 0;
#X connect 17 0 18 0;
#X connect 18 0 28 0;
#X connect 19 0 6 0;
#X connect 20 0 27 0;
#X connect 21 0 10 0;
#X connect 22 0 9 0;
#X connect 22 1 21 1;
#X connect 23 0 24 0;
#X connect 23 1 16 1;
#X connect 24 0 15 0;
#X connect 25 0 11 0;
#X connect 27 0 22 0;
#X connect 28 0 23 0;
#X connect 29 0 30 0;
#X connect 30 0 19 0;
#X connect 31 0 32 0;
#X connect 32 0 9 0;
#X coords 0 -1 1 1 140 95 1 180 15;
