#N canvas 66 116 1135 638 10;
#X obj 192 450 list store, f 14;
#X msg 192 427 get \$1 4;
#X obj 192 473 unpack 0 0 0 0, f 24;
#X msg 475 434 0 4 7 11 2 5 9 12 16 19 23;
#X obj 192 348 random 7;
#X obj 177 555 + 60;
#X obj 224 555 + 60;
#X obj 271 555 + 60;
#X obj 318 555 + 60;
#X obj 177 578 outlet;
#X obj 224 578 outlet;
#X obj 271 578 outlet;
#X obj 318 578 outlet;
#X obj 192 16 inlet;
#X obj 192 214 t b b;
#X obj 346 230 i \$1;
#X obj 367 16 inlet;
#X obj 475 91 hradio 16 1 0 4 empty empty M/ma/wt/hd 0 -8 0 10 -262144
-1 -1 3;
#X obj 417 401 loadbang;
#X msg 490 462 0 3 7 10 2 5 9 12 15 19 22;
#X floatatom 367 91 5 30 88 2 off - -;
#X obj 219 240 f 0;
#X obj 245 240 + 1;
#X obj 271 240 % 4;
#X obj 219 263 sel 0;
#X obj 219 286 f 0;
#X msg 219 309 seed \$1;
#X obj 475 124 nbx 6 16 0 1e+37 0 0 empty empty seed 0 -8 0 10 -228856
-1 -1 50 256;
#X obj 192 61 f 0;
#X obj 218 61 + 1;
#X obj 192 106 div 1;
#X floatatom 331 91 5 1 16 2 div - -;
#X floatatom 331 124 5 1 16 2 seq - -;
#X obj 192 130 change -1;
#X obj 192 84 t f b, f 14;
#X obj 273 169 random 100;
#X obj 273 192 moses 50;
#X obj 104 426 list store;
#X msg 104 348 get \$1 1;
#X obj 104 208 bang;
#X obj 104 555 + 60;
#X obj 104 578 outlet;
#X obj 161 400 list store, f 14;
#X msg 161 377 get \$1 6;
#X obj 104 325 random 6;
#X obj 308 92 bng 16 250 50 0 empty empty empty 17 7 0 10 -262144 -228856
-1;
#X obj 476 16 inlet;
#X obj 475 401 sel 0 1 2 3;
#X msg 506 492 0 2 4 6 8 10 12 14 16 18 20;
#X msg 522 521 0 2 5 7 9 11 14 16 19 21 24;
#X obj 404 229 random 100;
#X obj 404 252 moses 50;
#X obj 403 92 nbx 2 16 0 100 0 0 empty empty %pr2 0 -8 0 10 -1 -262144
-1 20 256;
#X obj 404 275 bang;
#X obj 177 532 f;
#X obj 474 229 random 100;
#X obj 474 252 moses 50;
#X obj 474 275 bang;
#X obj 544 229 random 100;
#X obj 544 252 moses 50;
#X obj 544 275 bang;
#X obj 614 229 random 100;
#X obj 614 252 moses 50;
#X obj 614 275 bang;
#X obj 436 92 nbx 2 16 0 100 0 0 empty empty %pr3 0 -8 0 10 -1 -262144
-1 30 256;
#X obj 224 530 f;
#X obj 271 530 f;
#X obj 318 530 f;
#X obj 403 125 nbx 2 16 0 100 0 0 empty empty %pr4 0 -8 0 10 -1 -262144
-1 40 256;
#X obj 436 125 nbx 2 16 0 100 0 0 empty empty %pr5 0 -8 0 10 -1 -262144
-1 65 256;
#X obj 368 125 nbx 2 16 0 100 0 0 empty empty %pr1 0 -8 0 10 -1 -262144
-1 65 256;
#X connect 0 0 2 0;
#X connect 1 0 0 0;
#X connect 2 0 54 1;
#X connect 2 1 65 1;
#X connect 2 2 66 1;
#X connect 2 3 67 1;
#X connect 3 0 0 1;
#X connect 3 0 42 1;
#X connect 4 0 1 0;
#X connect 4 0 43 0;
#X connect 5 0 9 0;
#X connect 6 0 10 0;
#X connect 7 0 11 0;
#X connect 8 0 12 0;
#X connect 13 0 28 0;
#X connect 14 0 4 0;
#X connect 14 1 15 0;
#X connect 14 1 21 0;
#X connect 15 0 5 1;
#X connect 15 0 8 1;
#X connect 15 0 7 1;
#X connect 15 0 6 1;
#X connect 15 0 40 1;
#X connect 16 0 20 0;
#X connect 17 0 47 0;
#X connect 18 0 3 0;
#X connect 19 0 0 1;
#X connect 19 0 42 1;
#X connect 20 0 15 1;
#X connect 21 0 22 0;
#X connect 21 0 24 0;
#X connect 22 0 23 0;
#X connect 23 0 21 1;
#X connect 24 0 25 0;
#X connect 25 0 26 0;
#X connect 26 0 4 0;
#X connect 26 0 35 0;
#X connect 26 0 44 0;
#X connect 26 0 50 0;
#X connect 26 0 55 0;
#X connect 26 0 58 0;
#X connect 26 0 61 0;
#X connect 27 0 25 1;
#X connect 28 0 29 0;
#X connect 28 0 34 0;
#X connect 29 0 28 1;
#X connect 30 0 33 0;
#X connect 31 0 30 1;
#X connect 32 0 23 1;
#X connect 33 0 14 0;
#X connect 34 0 30 0;
#X connect 34 1 35 0;
#X connect 34 1 50 0;
#X connect 34 1 55 0;
#X connect 34 1 58 0;
#X connect 34 1 61 0;
#X connect 35 0 36 0;
#X connect 36 0 39 0;
#X connect 36 0 45 0;
#X connect 37 0 40 0;
#X connect 38 0 37 0;
#X connect 39 0 44 0;
#X connect 40 0 41 0;
#X connect 42 0 37 1;
#X connect 43 0 42 0;
#X connect 44 0 38 0;
#X connect 46 0 27 0;
#X connect 47 0 3 0;
#X connect 47 1 19 0;
#X connect 47 2 48 0;
#X connect 47 3 49 0;
#X connect 48 0 0 1;
#X connect 48 0 42 1;
#X connect 49 0 42 1;
#X connect 49 0 0 1;
#X connect 50 0 51 0;
#X connect 51 0 53 0;
#X connect 52 0 51 1;
#X connect 53 0 54 0;
#X connect 54 0 5 0;
#X connect 55 0 56 0;
#X connect 56 0 57 0;
#X connect 57 0 65 0;
#X connect 58 0 59 0;
#X connect 59 0 60 0;
#X connect 60 0 66 0;
#X connect 61 0 62 0;
#X connect 62 0 63 0;
#X connect 63 0 67 0;
#X connect 64 0 56 1;
#X connect 65 0 6 0;
#X connect 66 0 7 0;
#X connect 67 0 8 0;
#X connect 68 0 59 1;
#X connect 69 0 62 1;
#X connect 70 0 36 1;
#X coords 0 -1 1 1 250 100 1 300 50;
