#N canvas 422 276 679 391 10;
#X obj 154 136 t f f f, f 50;
#X obj 154 114 f 0;
#X obj 179 114 + 1;
#X obj 154 182 change -1;
#X obj 302 182 change -1;
#X obj 453 182 change -1;
#X obj 154 205 t b b, f 9;
#X obj 154 228 i 0;
#X obj 154 267 + 0;
#X obj 205 228 f 0;
#X obj 231 228 - 1;
#X obj 205 251 * 1;
#X obj 302 205 t b b, f 9;
#X obj 353 228 f 0;
#X obj 353 251 * 1;
#X obj 379 228 + 1;
#X obj 453 205 t b b, f 9;
#X obj 453 267 + 0;
#X obj 504 228 f 0;
#X obj 504 251 * 1;
#X obj 530 228 + 1;
#X obj 302 267 + 0;
#X obj 302 228 i 2;
#X obj 453 228 i 4;
#X obj 154 159 div \$1;
#X obj 257 228 % \$2;
#X obj 302 159 div \$3;
#X obj 405 228 % \$4;
#X obj 453 159 div \$5;
#X obj 556 228 % \$6;
#X obj 154 323 outlet;
#X obj 302 323 outlet;
#X obj 453 323 outlet;
#X obj 154 45 inlet;
#X obj 519 45 inlet;
#X obj 519 68 clip 1 4;
#X connect 0 0 24 0;
#X connect 0 1 26 0;
#X connect 0 2 28 0;
#X connect 1 0 2 0;
#X connect 1 0 0 0;
#X connect 2 0 1 1;
#X connect 3 0 6 0;
#X connect 4 0 12 0;
#X connect 5 0 16 0;
#X connect 6 0 7 0;
#X connect 6 1 9 0;
#X connect 7 0 8 0;
#X connect 8 0 30 0;
#X connect 9 0 10 0;
#X connect 9 0 11 0;
#X connect 10 0 25 0;
#X connect 11 0 8 1;
#X connect 12 0 22 0;
#X connect 12 1 13 0;
#X connect 13 0 14 0;
#X connect 13 0 15 0;
#X connect 14 0 21 1;
#X connect 15 0 27 0;
#X connect 16 0 23 0;
#X connect 16 1 18 0;
#X connect 17 0 32 0;
#X connect 18 0 19 0;
#X connect 18 0 20 0;
#X connect 19 0 17 1;
#X connect 20 0 29 0;
#X connect 21 0 31 0;
#X connect 22 0 21 0;
#X connect 23 0 17 0;
#X connect 24 0 3 0;
#X connect 25 0 9 1;
#X connect 26 0 4 0;
#X connect 27 0 13 1;
#X connect 28 0 5 0;
#X connect 29 0 18 1;
#X connect 33 0 1 0;
#X connect 34 0 35 0;
#X connect 35 0 11 1;
#X connect 35 0 14 1;
#X connect 35 0 19 1;
