#N canvas 699 293 572 300 10;
#X floatatom 208 97 5 0 0 0 width - -;
#X obj 126 120 expr floor(sin($f1*$f2)*$f3);
#X floatatom 303 97 5 0 0 0 shape - -;
#X obj 303 119 clip 0 12;
#X obj 126 26 inlet;
#X obj 208 26 inlet;
#X obj 303 26 inlet;
#X obj 385 26 loadbang;
#X obj 385 119 f \$1;
#N canvas 6 116 450 250 (subpatch) 0;
#X array \$0-cont 12 float 3;
#A 0 0 -3 4 -5 3 -2 -2 3 -5 4 -3 -1;
#X coords 0 7 12 -7 50 35 1 0 0;
#X restore 27 42 graph;
#X obj 126 97 t f f;
#X obj 126 143 t f f;
#X obj 126 244 outlet;
#X obj 385 142 array size \$0-cont;
#X obj 277 159 abs;
#X obj 277 182 max 1;
#X obj 277 244 outlet;
#X obj 153 167 tabwrite \$0-cont;
#X connect 0 0 1 1;
#X connect 1 0 11 0;
#X connect 2 0 3 0;
#X connect 3 0 1 2;
#X connect 4 0 10 0;
#X connect 5 0 0 0;
#X connect 6 0 2 0;
#X connect 7 0 8 0;
#X connect 8 0 13 0;
#X connect 10 0 1 0;
#X connect 10 1 17 1;
#X connect 11 0 12 0;
#X connect 11 1 14 0;
#X connect 11 1 17 0;
#X connect 14 0 15 0;
#X connect 15 0 16 0;
#X coords 0 -1 1 1 64 64 2 20 20;
