#N canvas 374 179 562 520 10;
#X obj 118 125 != 0;
#X obj 118 148 sel 1;
#X obj 118 171 random 2;
#X obj 118 236 random 3;
#X obj 118 259 t b f, f 8;
#X obj 118 282 i 0;
#X obj 118 305 +, f 8;
#X obj 118 194 sel 0, f 10;
#X obj 175 236 random 3;
#X obj 175 259 t b f, f 8;
#X obj 175 282 i 0;
#X obj 175 305 -, f 8;
#X obj 118 368 t f f, f 18;
#X obj 118 217 bng 15 250 50 0 empty empty empty 17 7 0 10 -262144
-1 -1;
#X obj 175 216 bng 15 250 50 0 empty empty empty 17 7 0 10 -262144
-1 -1;
#X obj 118 102 random 3;
#X obj 118 441 outlet;
#X obj 118 37 inlet;
#X obj 210 37 inlet;
#X msg 210 86 seed \$1;
#X obj 118 342 % 7;
#X connect 0 0 1 0;
#X connect 1 0 2 0;
#X connect 2 0 7 0;
#X connect 3 0 4 0;
#X connect 4 0 5 0;
#X connect 4 1 6 1;
#X connect 5 0 6 0;
#X connect 6 0 20 0;
#X connect 7 0 13 0;
#X connect 7 1 14 0;
#X connect 8 0 9 0;
#X connect 9 0 10 0;
#X connect 9 1 11 1;
#X connect 10 0 11 0;
#X connect 11 0 20 0;
#X connect 12 0 16 0;
#X connect 12 1 5 1;
#X connect 12 1 10 1;
#X connect 13 0 3 0;
#X connect 14 0 8 0;
#X connect 15 0 0 0;
#X connect 17 0 15 0;
#X connect 18 0 19 0;
#X connect 19 0 15 0;
#X connect 19 0 8 0;
#X connect 19 0 3 0;
#X connect 19 0 2 0;
#X connect 20 0 12 0;
