#N canvas 112 204 852 503 10;
#X obj 82 240 random 100;
#X obj 160 208 unpack 0 0 0 0 0, f 53;
#X obj 82 265 expr if($f1<25 \, 0 \, if($f1<45 \, 4 \, if($f1<65 \,
$f2 \, if($f1<70 \, $f3 \, if($f1<80 \, $f4 \, if($f1<90 \, $f5 \,
$f6)))))), f 66;
#X msg 231 143 5 3 2 1 6;
#X msg 303 143 1 2 3 5 6;
#X msg 374 143 3 5 6 1 2;
#X msg 446 143 6 5 3 2 1;
#X msg 517 143 0 3 2 5 6;
#X msg 589 143 4 5 6 3 1;
#X msg 160 143 0 2 5 1 3;
#X obj 82 463 outlet;
#X obj 82 19 inlet;
#X obj 160 19 inlet;
#X obj 160 115 sel 0 1 2 3 4 5, f 72;
#X obj 541 19 inlet;
#X msg 541 224 seed \$1;
#X obj 160 67 f \$1;
#X obj 160 90 clip 0 7;
#X msg 113 328 0 2 4 5 7 9 11;
#X msg 313 328 0 1 3 5 7 8 10;
#X msg 413 328 0 2 4 6 7 9 11;
#X msg 513 328 0 2 4 5 7 9 10;
#X msg 613 328 0 2 3 5 7 8 10;
#X msg 713 328 0 1 3 5 6 8 10;
#X obj 82 67 t b;
#X obj 243 51 loadbang;
#X msg 313 395 set \$1 \$2 \$3 \$4 \$5 \$6 \$7;
#X obj 313 463 outlet;
#X msg 213 328 0 2 3 5 7 9 10;
#X connect 0 0 2 0;
#X connect 1 0 2 1;
#X connect 1 1 2 2;
#X connect 1 2 2 3;
#X connect 1 3 2 4;
#X connect 1 4 2 5;
#X connect 2 0 10 0;
#X connect 3 0 1 0;
#X connect 4 0 1 0;
#X connect 5 0 1 0;
#X connect 6 0 1 0;
#X connect 7 0 1 0;
#X connect 8 0 1 0;
#X connect 9 0 1 0;
#X connect 11 0 24 0;
#X connect 12 0 16 0;
#X connect 13 0 9 0;
#X connect 13 0 18 0;
#X connect 13 1 3 0;
#X connect 13 1 28 0;
#X connect 13 2 4 0;
#X connect 13 2 19 0;
#X connect 13 3 5 0;
#X connect 13 3 20 0;
#X connect 13 4 6 0;
#X connect 13 4 21 0;
#X connect 13 5 7 0;
#X connect 13 5 22 0;
#X connect 13 6 8 0;
#X connect 13 6 23 0;
#X connect 14 0 15 0;
#X connect 15 0 0 0;
#X connect 16 0 17 0;
#X connect 17 0 13 0;
#X connect 18 0 26 0;
#X connect 19 0 26 0;
#X connect 20 0 26 0;
#X connect 21 0 26 0;
#X connect 22 0 26 0;
#X connect 23 0 26 0;
#X connect 24 0 0 0;
#X connect 25 0 16 0;
#X connect 26 0 27 0;
#X connect 28 0 26 0;
