#N canvas 163 190 391 475 10;
#X obj 71 366 *~ 1;
#X obj 70 21 inlet~;
#X obj 111 356 *~;
#X obj 161 317 pack 0 100;
#X obj 161 340 line;
#X obj 111 143 / 100;
#X obj 200 162 pack 0 500;
#X obj 200 185 line;
#X obj 200 140 / 100;
#X obj 200 208 osc~ 0.1;
#X obj 111 201 phasor~ 0.1;
#X obj 112 225 +~;
#X obj 112 248 abs~;
#X obj 111 270 *~ 250;
#X obj 111 438 outlet~;
#X obj 161 270 clip 0 1;
#X obj 161 61 loadbang;
#X obj 111 97 f \$2;
#X obj 200 97 f \$3;
#X obj 161 97 f \$4;
#X obj 111 294 delread4~ \$1;
#X obj 112 383 delwrite~ \$1 2000;
#X obj 111 120 clip -50 50;
#X obj 200 119 clip -20 20;
#X connect 0 0 21 0;
#X connect 1 0 0 0;
#X connect 2 0 14 0;
#X connect 2 0 21 0;
#X connect 3 0 4 0;
#X connect 4 0 2 1;
#X connect 5 0 10 0;
#X connect 6 0 7 0;
#X connect 7 0 9 0;
#X connect 8 0 6 0;
#X connect 9 0 11 1;
#X connect 10 0 11 0;
#X connect 11 0 12 0;
#X connect 12 0 13 0;
#X connect 13 0 20 0;
#X connect 15 0 3 0;
#X connect 16 0 17 0;
#X connect 16 0 18 0;
#X connect 16 0 19 0;
#X connect 17 0 22 0;
#X connect 18 0 23 0;
#X connect 19 0 15 0;
#X connect 20 0 2 0;
#X connect 22 0 5 0;
#X connect 23 0 8 0;
