#N canvas 337 226 845 527 10;
#X obj 138 230 f \$1;
#X obj 211 230 f \$2;
#X floatatom 159 175 5 0 0 2 step - -;
#X floatatom 232 175 5 0 0 2 modulo - -;
#X floatatom 378 175 5 0 0 2 chromatic_transpo - -;
#X obj 284 230 f \$3;
#X floatatom 305 147 5 0 0 2 modal_transpo - -;
#X obj 357 230 f \$4;
#X obj 66 256 expr round(($f1+$f4+60*$f2/$f3)*$f3/$f2)+$f5, f 49;
#X obj 66 205 t f b b b b, f 49;
#X obj 66 350 outlet;
#X obj 66 52 inlet;
#X obj 159 52 inlet;
#X obj 232 52 inlet;
#X obj 305 52 inlet;
#X obj 378 52 inlet;
#X obj 305 175 clip -6 6;
#X connect 0 0 8 1;
#X connect 1 0 8 2;
#X connect 2 0 0 1;
#X connect 3 0 1 1;
#X connect 4 0 7 1;
#X connect 5 0 8 3;
#X connect 6 0 16 0;
#X connect 7 0 8 4;
#X connect 8 0 10 0;
#X connect 9 0 8 0;
#X connect 9 1 0 0;
#X connect 9 2 1 0;
#X connect 9 3 5 0;
#X connect 9 4 7 0;
#X connect 11 0 9 0;
#X connect 12 0 2 0;
#X connect 13 0 3 0;
#X connect 14 0 6 0;
#X connect 15 0 4 0;
#X connect 16 0 5 1;
