#N canvas 683 307 256 343 10;
#X obj 38 124 change -1;
#X obj 38 171 f 0;
#X obj 38 276 outlet;
#X obj 38 10 inlet;
#X obj 38 147 bang;
#X obj 38 79 + \$1;
#X obj 38 101 div \$2;
#X obj 38 194 + \$3;
#X obj 38 217 % \$4;
#X obj 38 240 + \$5;
#X obj 38 33 bang;
#X obj 38 56 f 0;
#X obj 64 56 + 1;
#X connect 0 0 4 0;
#X connect 1 0 7 0;
#X connect 3 0 10 0;
#X connect 4 0 1 0;
#X connect 5 0 6 0;
#X connect 6 0 0 0;
#X connect 7 0 8 0;
#X connect 8 0 1 1;
#X connect 8 0 9 0;
#X connect 9 0 2 0;
#X connect 10 0 11 0;
#X connect 11 0 12 0;
#X connect 11 0 5 0;
#X connect 12 0 11 1;
