#N canvas 364 272 669 444 10;
#X obj 99 264 expr ($f1+$f2)/2;
#X obj 120 311 expr sqrt($f1*$f2);
#X obj 141 359 expr (2*($f1*$f2))/($f1+$f2);
#X obj 99 95 vradio 15 1 0 3 empty empty empty 0 -8 0 10 -262144 -1
-1 2;
#X obj 99 216 route 0 1 2;
#X obj 99 184 pack 0 0 0;
#X obj 99 239 unpack f f;
#X obj 99 77 bng 15 250 50 0 empty empty trg 17 7 0 10 -262144 -228856
-1;
#X obj 120 287 unpack f f;
#X obj 141 336 unpack f f;
#X floatatom 99 375 5 0 0 0 - - -;
#X obj 99 401 outlet;
#X text 116 95 Ari;
#X text 116 110 Geo;
#X text 116 125 Har;
#X obj 99 146 nbx 5 14 -1e+37 1e+37 0 0 empty empty empty 0 -8 0 10
-1 -262144 -1 54 256;
#X obj 128 9 inlet;
#X obj 166 9 inlet;
#X obj 89 9 inlet;
#X connect 0 0 10 0;
#X connect 1 0 10 0;
#X connect 2 0 10 0;
#X connect 3 0 5 0;
#X connect 4 0 6 0;
#X connect 4 1 8 0;
#X connect 4 2 9 0;
#X connect 5 0 4 0;
#X connect 6 0 0 0;
#X connect 6 1 0 1;
#X connect 7 0 3 0;
#X connect 8 0 1 0;
#X connect 8 1 1 1;
#X connect 9 0 2 0;
#X connect 9 1 2 1;
#X connect 10 0 11 0;
#X connect 10 0 15 0;
#X connect 16 0 5 1;
#X connect 17 0 5 2;
#X connect 18 0 7 0;
#X coords 0 -1 1 1 70 120 1 90 50;
