#N canvas 851 152 450 587 10;
#X obj 47 21 inlet~;
#X obj 47 343 *~ 0.5;
#X obj 47 422 /~ 1;
#X obj 46 523 outlet~;
#X obj 130 343 *~ 0.5;
#X obj 130 422 /~ 1;
#X obj 130 521 outlet~;
#X obj 163 21 inlet;
#X obj 163 45 t b b, f 16;
#X obj 163 67 random 1000;
#X obj 163 90 / 1000;
#X floatatom 163 113 5 0 0 0 - - -;
#X obj 163 135 expr 1-$f1;
#X floatatom 163 158 5 0 0 0 - - -;
#X obj 256 67 random 100;
#X obj 256 112 / 20;
#X floatatom 256 134 5 0 0 0 - - -;
#X obj 256 273 line;
#X obj 256 185 t f b, f 8;
#X floatatom 256 318 5 0 0 0 - - -;
#X obj 301 207 f;
#X obj 80 274 line;
#X obj 80 186 t f b, f 8;
#X floatatom 80 319 5 0 0 0 - - -;
#X obj 125 208 f;
#X obj 163 273 line;
#X obj 163 185 t f b, f 8;
#X floatatom 163 318 5 0 0 0 - - -;
#X obj 210 207 f;
#X obj 256 90 + 1;
#X obj 80 297 pipe 120;
#X obj 163 296 pipe 120;
#X obj 256 296 pipe 120;
#X obj 256 156 + 2;
#X obj 83 92 hsl 50 15 0 1 0 0 empty empty empty -2 -8 0 10 -1 -262144
-1 3087 1;
#X obj 80 230 pack f f 100;
#X obj 163 229 pack f f 100;
#X obj 256 229 pack f f 100;
#X msg 80 252 \$2 \, \$1 \$3;
#X msg 163 251 \$2 \, \$1 \$3;
#X msg 256 251 \$2 \, \$1 \$3;
#X obj 362 67 + 20;
#X floatatom 362 45 5 0 0 1 decay - -;
#X obj 362 21 inlet;
#X connect 0 0 1 0;
#X connect 0 0 4 0;
#X connect 1 0 2 0;
#X connect 2 0 3 0;
#X connect 4 0 5 0;
#X connect 5 0 6 0;
#X connect 7 0 8 0;
#X connect 8 0 9 0;
#X connect 8 1 14 0;
#X connect 9 0 10 0;
#X connect 10 0 11 0;
#X connect 11 0 12 0;
#X connect 11 0 22 0;
#X connect 12 0 13 0;
#X connect 13 0 26 0;
#X connect 14 0 29 0;
#X connect 15 0 16 0;
#X connect 16 0 33 0;
#X connect 17 0 32 0;
#X connect 18 0 37 0;
#X connect 18 1 20 0;
#X connect 19 0 20 1;
#X connect 19 0 5 1;
#X connect 19 0 2 1;
#X connect 20 0 37 1;
#X connect 21 0 30 0;
#X connect 22 0 35 0;
#X connect 22 1 24 0;
#X connect 23 0 24 1;
#X connect 23 0 1 1;
#X connect 24 0 35 1;
#X connect 25 0 31 0;
#X connect 26 0 36 0;
#X connect 26 1 28 0;
#X connect 27 0 28 1;
#X connect 27 0 4 1;
#X connect 27 0 34 0;
#X connect 28 0 36 1;
#X connect 29 0 15 0;
#X connect 30 0 23 0;
#X connect 31 0 27 0;
#X connect 32 0 19 0;
#X connect 33 0 18 0;
#X connect 35 0 38 0;
#X connect 36 0 39 0;
#X connect 37 0 40 0;
#X connect 38 0 21 0;
#X connect 39 0 25 0;
#X connect 40 0 17 0;
#X connect 41 0 30 1;
#X connect 41 0 31 1;
#X connect 41 0 32 1;
#X connect 42 0 41 0;
#X connect 42 0 35 2;
#X connect 42 0 36 2;
#X connect 42 0 37 2;
#X connect 43 0 42 0;
#X coords 0 -1 1 1 70 50 1 72 65;
