#N canvas 599 159 550 582 10;
#X obj 45 364 hip~ 10;
#X floatatom 248 284 0 0 0 0 - - -;
#X obj 248 330 line~;
#X obj 248 307 pack 0 100;
#X floatatom 191 256 0 0 0 0 - - -;
#X floatatom 294 358 0 0 0 0 - - -;
#X obj 294 426 line~;
#X obj 294 403 pack 0 100;
#X obj 294 380 * 0.01;
#X floatatom 100 233 0 0 0 0 - - -;
#X obj 100 301 line~;
#X obj 100 278 pack 0 100;
#X obj 45 316 *~;
#X obj 45 341 cos~;
#X floatatom 45 200 0 0 0 0 - - -;
#X obj 45 223 mtof;
#X obj 45 246 * 0.5;
#X obj 100 255 * 0.01;
#X obj 45 410 +~;
#X obj 278 450 *~;
#X obj 191 347 *~;
#X obj 191 278 / 100;
#X obj 45 435 hip~ 5;
#X obj 191 324 +~ 1;
#X obj 191 301 osc~ 0;
#X obj 191 370 +~ 1.46;
#X obj 278 473 clip~ -1 1;
#X obj 45 269 osc~;
#X obj 45 519 *~ 0.1;
#X obj 46 545 outlet~;
#X floatatom 104 458 0 0 0 0 - - -;
#X obj 104 481 pack 0 100;
#X obj 104 503 line;
#X obj 45 8 inlet;
#X obj 48 66 hsl 60 15 0 127 0 0 empty empty pitch 65 8 0 10 -262144
-1 -1 1600 1;
#X obj 48 85 hsl 60 15 0 100 0 0 empty empty timbr 65 8 0 10 -262144
-1 -1 4600 1;
#X obj 48 104 hsl 60 15 0 100 0 0 empty empty cycle 65 8 0 10 -228856
-1 -1 3600 1;
#X obj 48 123 hsl 60 15 0 500 0 0 empty empty depth 65 8 0 10 -228856
-1 -1 5000 1;
#X obj 48 142 hsl 60 15 0 100 0 0 empty empty fback 65 8 0 10 -162280
-262144 -1 4300 1;
#X obj 48 161 hsl 60 15 0 1 0 0 empty empty vol 65 8 0 10 -1 -262144
-1 1500 1;
#X obj 188 36 inlet~;
#X obj 236 36 inlet~;
#X obj 292 36 inlet~;
#X obj 278 496 delwrite~ \$0-morpha 1000;
#X obj 191 393 vd~ \$0-morpha;
#X obj 45 387 clip~ -0.1 0.1;
#X connect 0 0 45 0;
#X connect 1 0 3 0;
#X connect 2 0 20 1;
#X connect 3 0 2 0;
#X connect 4 0 21 0;
#X connect 5 0 8 0;
#X connect 6 0 19 1;
#X connect 7 0 6 0;
#X connect 8 0 7 0;
#X connect 9 0 17 0;
#X connect 10 0 12 1;
#X connect 11 0 10 0;
#X connect 12 0 13 0;
#X connect 13 0 0 0;
#X connect 14 0 15 0;
#X connect 15 0 16 0;
#X connect 16 0 27 0;
#X connect 17 0 11 0;
#X connect 18 0 22 0;
#X connect 19 0 26 0;
#X connect 20 0 25 0;
#X connect 21 0 24 0;
#X connect 22 0 19 0;
#X connect 22 0 28 0;
#X connect 23 0 20 0;
#X connect 24 0 23 0;
#X connect 25 0 44 0;
#X connect 26 0 43 0;
#X connect 27 0 12 0;
#X connect 28 0 29 0;
#X connect 30 0 31 0;
#X connect 31 0 32 0;
#X connect 32 0 28 1;
#X connect 33 0 34 0;
#X connect 34 0 14 0;
#X connect 35 0 9 0;
#X connect 36 0 4 0;
#X connect 37 0 1 0;
#X connect 38 0 5 0;
#X connect 39 0 30 0;
#X connect 40 0 12 1;
#X connect 41 0 20 1;
#X connect 42 0 19 1;
#X connect 44 0 18 1;
#X connect 45 0 18 0;
#X coords 0 -1 1 1 110 150 1 40 35;
