#N canvas 666 147 670 480 10;
#X obj 124 184 i 0;
#X obj 124 299 t f f, f 7;
#X obj 124 359 outlet;
#X obj 124 32 inlet;
#X obj 171 32 inlet;
#X obj 124 276 expr if($f1<-14||$f1>21 \, 0 \, $f1);
#X msg 171 81 seed \$1;
#X obj 124 252 + 0;
#X msg 211 185 1;
#X msg 241 185 -1;
#X msg 281 185 2;
#X msg 311 185 -2;
#X msg 347 185 3;
#X msg 377 185 -3;
#X msg 410 185 4;
#X msg 440 185 -4;
#X msg 171 185 0;
#X msg 470 185 5;
#X obj 124 106 t b b;
#X obj 171 122 random 20;
#X obj 171 145 sel 0 1 2 3 4 5 6 7 8 9 10 11 12 13 14 15 16 17 18 19
;
#X connect 0 0 7 0;
#X connect 1 0 2 0;
#X connect 1 1 0 1;
#X connect 3 0 18 0;
#X connect 4 0 6 0;
#X connect 5 0 1 0;
#X connect 6 0 19 0;
#X connect 7 0 5 0;
#X connect 8 0 7 1;
#X connect 9 0 7 1;
#X connect 10 0 7 1;
#X connect 11 0 7 1;
#X connect 12 0 7 1;
#X connect 13 0 7 1;
#X connect 14 0 7 1;
#X connect 15 0 7 1;
#X connect 16 0 7 1;
#X connect 17 0 7 1;
#X connect 18 0 0 0;
#X connect 18 1 19 0;
#X connect 19 0 20 0;
#X connect 20 0 16 0;
#X connect 20 1 16 0;
#X connect 20 2 8 0;
#X connect 20 3 9 0;
#X connect 20 4 8 0;
#X connect 20 5 9 0;
#X connect 20 6 8 0;
#X connect 20 7 9 0;
#X connect 20 8 8 0;
#X connect 20 9 10 0;
#X connect 20 10 11 0;
#X connect 20 11 10 0;
#X connect 20 12 10 0;
#X connect 20 13 12 0;
#X connect 20 14 11 0;
#X connect 20 15 13 0;
#X connect 20 16 16 0;
#X connect 20 17 14 0;
#X connect 20 18 15 0;
#X connect 20 19 17 0;
