#N canvas 0 116 1366 652 10;
#X obj 19 44 bng 15 250 50 0 empty empty empty 0 -4 0 8 -262144 -1
-1;
#X obj 19 381 f 1;
#X obj 313 57 random 100;
#X floatatom 42 438 3 0 0 1 state - -;
#X obj 378 147 +;
#X floatatom 57 79 3 0 100 2 t2 - -;
#X floatatom 33 79 3 0 100 2 t1 - -;
#X floatatom 81 79 3 0 100 2 t3 - -;
#X obj 378 192 -;
#X msg 378 169 100;
#X obj 378 124 bang;
#X floatatom 105 79 3 0 100 2 t4 - -;
#X obj 415 124 +;
#X obj 415 170 -;
#X msg 415 147 100;
#X obj 313 38 bng 15 250 50 0 empty empty empty 17 7 0 10 -262144 -1
-1;
#X floatatom 340 220 5 0 0 0 - - -;
#X floatatom 378 220 5 0 0 0 - - -;
#X floatatom 415 220 5 0 0 0 - - -;
#X obj 454 124 +;
#X floatatom 454 220 5 0 0 0 - - -;
#X obj 454 169 -;
#X msg 454 146 100;
#X floatatom 129 79 3 0 100 2 t5 - -;
#X obj 492 124 +;
#X obj 492 169 -;
#X msg 492 146 100;
#X floatatom 492 220 5 0 0 0 - - -;
#X floatatom 153 79 3 0 100 2 t6 - -;
#X obj 529 124 +;
#X obj 529 169 -;
#X msg 529 146 100;
#X floatatom 529 220 5 0 0 0 - - -;
#X floatatom 177 79 3 0 100 2 t7 - -;
#X obj 566 124 +;
#X obj 566 169 -;
#X msg 566 146 100;
#X floatatom 566 220 5 0 0 0 - - -;
#X obj 313 242 moses;
#X obj 351 242 moses;
#X obj 390 242 moses;
#X obj 429 242 moses;
#X obj 467 242 moses;
#X obj 504 242 moses;
#X obj 541 242 moses;
#X msg 313 265 1;
#X msg 351 265 2;
#X msg 390 265 3;
#X msg 429 265 4;
#X msg 467 265 5;
#X msg 504 265 6;
#X msg 541 265 7;
#X obj 582 245 bng 15 250 50 0 empty empty empty 17 7 0 10 -262144
-1 -1;
#X obj 34 357 r \$0-state;
#X obj 429 296 s \$0-state;
#X msg 454 51 0;
#X obj 19 410 sel 1 2 3 4 5 6 7;
#X obj 612 59 random 100;
#X obj 677 149 +;
#X floatatom 57 99 3 0 100 2 - - -;
#X floatatom 33 99 3 0 100 0 t2 - -;
#X floatatom 82 99 3 0 100 2 - - -;
#X obj 677 194 -;
#X msg 677 171 100;
#X obj 677 126 bang;
#X floatatom 106 99 3 0 100 2 - - -;
#X obj 714 126 +;
#X obj 714 172 -;
#X msg 714 149 100;
#X obj 612 40 bng 15 250 50 0 empty empty empty 17 7 0 10 -262144 -1
-1;
#X floatatom 639 222 5 0 0 0 - - -;
#X floatatom 677 222 5 0 0 0 - - -;
#X floatatom 714 222 5 0 0 0 - - -;
#X obj 753 126 +;
#X floatatom 753 222 5 0 0 0 - - -;
#X obj 753 171 -;
#X msg 753 148 100;
#X floatatom 130 99 3 0 100 2 - - -;
#X obj 791 126 +;
#X obj 791 171 -;
#X msg 791 148 100;
#X floatatom 791 222 5 0 0 0 - - -;
#X floatatom 154 99 3 0 100 2 - - -;
#X obj 828 126 +;
#X obj 828 171 -;
#X msg 828 148 100;
#X floatatom 828 222 5 0 0 0 - - -;
#X floatatom 178 99 3 0 100 1 - - -;
#X obj 865 126 +;
#X obj 865 171 -;
#X msg 865 148 100;
#X floatatom 865 222 5 0 0 0 - - -;
#X obj 612 244 moses;
#X obj 650 244 moses;
#X obj 689 244 moses;
#X obj 728 244 moses;
#X obj 766 244 moses;
#X obj 803 244 moses;
#X obj 840 244 moses;
#X msg 612 267 1;
#X msg 650 267 2;
#X msg 689 267 3;
#X msg 728 267 4;
#X msg 766 267 5;
#X msg 803 267 6;
#X msg 840 267 7;
#X obj 881 247 bng 15 250 50 0 empty empty empty 17 7 0 10 -262144
-1 -1;
#X obj 728 298 s \$0-state;
#X msg 753 53 0;
#X obj 911 61 random 100;
#X obj 976 151 +;
#X floatatom 57 119 3 0 100 2 - - -;
#X floatatom 33 119 3 0 100 0 t3 - -;
#X floatatom 81 119 3 0 100 2 - - -;
#X obj 976 196 -;
#X msg 976 173 100;
#X obj 976 128 bang;
#X floatatom 105 119 3 0 100 2 - - -;
#X obj 1013 128 +;
#X obj 1013 174 -;
#X msg 1013 151 100;
#X obj 911 42 bng 15 250 50 0 empty empty empty 17 7 0 10 -262144 -1
-1;
#X floatatom 938 224 5 0 0 0 - - -;
#X floatatom 976 224 5 0 0 0 - - -;
#X floatatom 1013 224 5 0 0 0 - - -;
#X obj 1052 128 +;
#X floatatom 1052 224 5 0 0 0 - - -;
#X obj 1052 173 -;
#X msg 1052 150 100;
#X floatatom 129 119 3 0 100 2 - - -;
#X obj 1090 128 +;
#X obj 1090 173 -;
#X msg 1090 150 100;
#X floatatom 1090 224 5 0 0 0 - - -;
#X floatatom 153 119 3 0 100 2 - - -;
#X obj 1127 128 +;
#X obj 1127 173 -;
#X msg 1127 150 100;
#X floatatom 1127 224 5 0 0 0 - - -;
#X floatatom 177 119 3 0 100 2 - - -;
#X obj 1164 128 +;
#X obj 1164 173 -;
#X msg 1164 150 100;
#X floatatom 1164 224 5 0 0 0 - - -;
#X obj 911 246 moses;
#X obj 949 246 moses;
#X obj 988 246 moses;
#X obj 1027 246 moses;
#X obj 1065 246 moses;
#X obj 1102 246 moses;
#X obj 1139 246 moses;
#X msg 911 269 1;
#X msg 949 269 2;
#X msg 988 269 3;
#X msg 1027 269 4;
#X msg 1065 269 5;
#X msg 1102 269 6;
#X msg 1139 269 7;
#X obj 1180 249 bng 15 250 50 0 empty empty empty 17 7 0 10 -262144
-1 -1;
#X obj 1027 300 s \$0-state;
#X msg 1052 55 0;
#X obj 311 361 random 100;
#X obj 376 451 +;
#X floatatom 57 139 3 0 100 2 - - -;
#X floatatom 33 139 3 0 100 0 t4 - -;
#X floatatom 81 139 3 0 100 2 - - -;
#X obj 376 496 -;
#X msg 376 473 100;
#X obj 376 428 bang;
#X floatatom 105 139 3 0 100 2 - - -;
#X obj 413 428 +;
#X obj 413 474 -;
#X msg 413 451 100;
#X obj 311 342 bng 15 250 50 0 empty empty empty 17 7 0 10 -262144
-1 -1;
#X floatatom 338 524 5 0 0 0 - - -;
#X floatatom 376 524 5 0 0 0 - - -;
#X floatatom 413 524 5 0 0 0 - - -;
#X obj 452 428 +;
#X floatatom 452 524 5 0 0 0 - - -;
#X obj 452 473 -;
#X msg 452 450 100;
#X floatatom 129 139 3 0 100 2 - - -;
#X obj 490 428 +;
#X obj 490 473 -;
#X msg 490 450 100;
#X floatatom 490 524 5 0 0 0 - - -;
#X floatatom 153 139 3 0 100 2 - - -;
#X obj 527 428 +;
#X obj 527 473 -;
#X msg 527 450 100;
#X floatatom 527 524 5 0 0 0 - - -;
#X floatatom 177 139 3 0 100 2 - - -;
#X obj 564 428 +;
#X obj 564 473 -;
#X msg 564 450 100;
#X floatatom 564 524 5 0 0 0 - - -;
#X obj 311 546 moses;
#X obj 349 546 moses;
#X obj 388 546 moses;
#X obj 427 546 moses;
#X obj 465 546 moses;
#X obj 502 546 moses;
#X obj 539 546 moses;
#X msg 311 569 1;
#X msg 349 569 2;
#X msg 388 569 3;
#X msg 427 569 4;
#X msg 465 569 5;
#X msg 502 569 6;
#X msg 539 569 7;
#X obj 580 549 bng 15 250 50 0 empty empty empty 17 7 0 10 -262144
-1 -1;
#X obj 427 600 s \$0-state;
#X msg 452 355 0;
#X obj 617 365 random 100;
#X obj 682 455 +;
#X floatatom 57 159 3 0 100 2 - - -;
#X floatatom 33 159 3 0 100 0 t5 - -;
#X floatatom 81 159 3 0 100 2 - - -;
#X obj 682 500 -;
#X msg 682 477 100;
#X obj 682 432 bang;
#X floatatom 105 159 3 0 100 2 - - -;
#X obj 719 432 +;
#X obj 719 478 -;
#X msg 719 455 100;
#X obj 617 346 bng 15 250 50 0 empty empty empty 17 7 0 10 -262144
-1 -1;
#X floatatom 644 528 5 0 0 0 - - -;
#X floatatom 682 528 5 0 0 0 - - -;
#X floatatom 719 528 5 0 0 0 - - -;
#X obj 758 432 +;
#X floatatom 758 528 5 0 0 0 - - -;
#X obj 758 477 -;
#X msg 758 454 100;
#X floatatom 129 159 3 0 100 2 - - -;
#X obj 796 432 +;
#X obj 796 477 -;
#X msg 796 454 100;
#X floatatom 796 528 5 0 0 0 - - -;
#X floatatom 153 159 3 0 100 2 - - -;
#X obj 833 432 +;
#X obj 833 477 -;
#X msg 833 454 100;
#X floatatom 833 528 5 0 0 0 - - -;
#X floatatom 177 159 3 0 100 2 - - -;
#X obj 870 432 +;
#X obj 870 477 -;
#X msg 870 454 100;
#X floatatom 870 528 5 0 0 0 - - -;
#X obj 617 550 moses;
#X obj 655 550 moses;
#X obj 694 550 moses;
#X obj 733 550 moses;
#X obj 771 550 moses;
#X obj 808 550 moses;
#X obj 845 550 moses;
#X msg 617 573 1;
#X msg 655 573 2;
#X msg 694 573 3;
#X msg 733 573 4;
#X msg 771 573 5;
#X msg 808 573 6;
#X msg 845 573 7;
#X obj 886 553 bng 15 250 50 0 empty empty empty 17 7 0 10 -262144
-1 -1;
#X obj 733 604 s \$0-state;
#X msg 758 359 0;
#X obj 916 368 random 100;
#X obj 981 458 +;
#X floatatom 57 179 3 0 100 2 - - -;
#X floatatom 33 179 3 0 100 0 t6 - -;
#X floatatom 81 179 3 0 100 2 - - -;
#X obj 981 503 -;
#X msg 981 480 100;
#X obj 981 435 bang;
#X floatatom 105 179 3 0 100 2 - - -;
#X obj 1018 435 +;
#X obj 1018 481 -;
#X msg 1018 458 100;
#X obj 916 349 bng 15 250 50 0 empty empty empty 17 7 0 10 -262144
-1 -1;
#X floatatom 943 531 5 0 0 0 - - -;
#X floatatom 981 531 5 0 0 0 - - -;
#X floatatom 1018 531 5 0 0 0 - - -;
#X obj 1057 435 +;
#X floatatom 1057 531 5 0 0 0 - - -;
#X obj 1057 480 -;
#X msg 1057 457 100;
#X floatatom 129 179 3 0 100 2 - - -;
#X obj 1095 435 +;
#X obj 1095 480 -;
#X msg 1095 457 100;
#X floatatom 1095 531 5 0 0 0 - - -;
#X floatatom 153 179 3 0 100 2 - - -;
#X obj 1132 435 +;
#X obj 1132 480 -;
#X msg 1132 457 100;
#X floatatom 1132 531 5 0 0 0 - - -;
#X floatatom 177 179 3 0 100 2 - - -;
#X obj 1169 435 +;
#X obj 1169 480 -;
#X msg 1169 457 100;
#X floatatom 1169 531 5 0 0 0 - - -;
#X obj 916 553 moses;
#X obj 954 553 moses;
#X obj 993 553 moses;
#X obj 1032 553 moses;
#X obj 1070 553 moses;
#X obj 1107 553 moses;
#X obj 1144 553 moses;
#X msg 916 576 1;
#X msg 954 576 2;
#X msg 993 576 3;
#X msg 1032 576 4;
#X msg 1070 576 5;
#X msg 1107 576 6;
#X msg 1144 576 7;
#X obj 1185 556 bng 15 250 50 0 empty empty empty 17 7 0 10 -262144
-1 -1;
#X obj 1032 607 s \$0-state;
#X msg 1057 362 0;
#X obj 313 641 random 100;
#X obj 378 731 +;
#X floatatom 57 199 3 0 100 2 - - -;
#X floatatom 33 199 3 0 100 0 t7 - -;
#X floatatom 81 199 3 0 100 2 - - -;
#X obj 378 776 -;
#X msg 378 753 100;
#X obj 378 708 bang;
#X floatatom 105 199 3 0 100 2 - - -;
#X obj 415 708 +;
#X obj 415 754 -;
#X msg 415 731 100;
#X obj 313 622 bng 15 250 50 0 empty empty empty 17 7 0 10 -262144
-1 -1;
#X floatatom 340 804 5 0 0 0 - - -;
#X floatatom 378 804 5 0 0 0 - - -;
#X floatatom 415 804 5 0 0 0 - - -;
#X obj 454 708 +;
#X floatatom 454 804 5 0 0 0 - - -;
#X obj 454 753 -;
#X msg 454 730 100;
#X floatatom 129 199 3 0 100 2 - - -;
#X obj 492 708 +;
#X obj 492 753 -;
#X msg 492 730 100;
#X floatatom 492 804 5 0 0 0 - - -;
#X floatatom 153 199 3 0 100 2 - - -;
#X obj 529 708 +;
#X obj 529 753 -;
#X msg 529 730 100;
#X floatatom 529 804 5 0 0 0 - - -;
#X floatatom 177 199 3 0 100 2 - - -;
#X obj 566 708 +;
#X obj 566 753 -;
#X msg 566 730 100;
#X floatatom 566 804 5 0 0 0 - - -;
#X obj 313 826 moses;
#X obj 351 826 moses;
#X obj 390 826 moses;
#X obj 429 826 moses;
#X obj 467 826 moses;
#X obj 504 826 moses;
#X obj 541 826 moses;
#X msg 313 849 1;
#X msg 351 849 2;
#X msg 390 849 3;
#X msg 429 849 4;
#X msg 467 849 5;
#X msg 504 849 6;
#X msg 541 849 7;
#X obj 582 829 bng 15 250 50 0 empty empty empty 17 7 0 10 -262144
-1 -1;
#X obj 429 880 s \$0-state;
#X msg 454 635 0;
#X obj 181 44 bng 15 250 50 0 empty empty reset -34 5 0 10 -262144
-1 -1;
#X obj 42 460 sel 1 2 3 4 5 6 7;
#X msg 42 484 4;
#X msg 56 508 2;
#X msg 70 484 1;
#X msg 84 508 0.5;
#X msg 98 484 0.25;
#X msg 113 508 0.125;
#X msg 133 484 0.0625;
#X floatatom 42 555 5 0 0 0 - - -;
#X floatatom 165 227 5 0 0 0 bpm - -;
#X floatatom 165 586 5 0 0 0 - - -;
#X obj 42 601 *;
#X floatatom 18 227 5 0 0 1 ms - -;
#X obj 165 551 expr (60*1000)/$f1;
#X obj 224 9 inlet;
#X obj 18 629 outlet;
#X connect 0 0 1 0;
#X connect 1 0 3 0;
#X connect 1 0 56 0;
#X connect 2 0 38 0;
#X connect 3 0 370 0;
#X connect 4 0 8 1;
#X connect 4 0 9 0;
#X connect 4 0 12 1;
#X connect 4 0 17 0;
#X connect 5 0 4 0;
#X connect 6 0 4 1;
#X connect 6 0 16 0;
#X connect 6 0 10 0;
#X connect 7 0 12 0;
#X connect 8 0 7 0;
#X connect 9 0 8 0;
#X connect 10 0 4 0;
#X connect 11 0 19 0;
#X connect 12 0 14 0;
#X connect 12 0 13 1;
#X connect 12 0 18 0;
#X connect 12 0 19 1;
#X connect 13 0 11 0;
#X connect 14 0 13 0;
#X connect 15 0 2 0;
#X connect 16 0 38 1;
#X connect 17 0 39 1;
#X connect 18 0 40 1;
#X connect 19 0 20 0;
#X connect 19 0 22 0;
#X connect 19 0 24 1;
#X connect 19 0 21 1;
#X connect 20 0 41 1;
#X connect 21 0 23 0;
#X connect 22 0 21 0;
#X connect 23 0 24 0;
#X connect 24 0 26 0;
#X connect 24 0 29 1;
#X connect 24 0 25 1;
#X connect 24 0 27 0;
#X connect 25 0 28 0;
#X connect 26 0 25 0;
#X connect 27 0 42 1;
#X connect 28 0 29 0;
#X connect 29 0 31 0;
#X connect 29 0 34 1;
#X connect 29 0 30 1;
#X connect 29 0 32 0;
#X connect 30 0 33 0;
#X connect 31 0 30 0;
#X connect 32 0 43 1;
#X connect 33 0 34 0;
#X connect 34 0 36 0;
#X connect 34 0 35 1;
#X connect 34 0 37 0;
#X connect 36 0 35 0;
#X connect 37 0 44 1;
#X connect 38 0 45 0;
#X connect 38 1 39 0;
#X connect 39 0 46 0;
#X connect 39 1 40 0;
#X connect 40 0 47 0;
#X connect 40 1 41 0;
#X connect 41 0 48 0;
#X connect 41 1 42 0;
#X connect 42 0 49 0;
#X connect 42 1 43 0;
#X connect 43 0 50 0;
#X connect 43 1 44 0;
#X connect 44 0 51 0;
#X connect 44 1 52 0;
#X connect 45 0 54 0;
#X connect 46 0 54 0;
#X connect 47 0 54 0;
#X connect 48 0 54 0;
#X connect 49 0 54 0;
#X connect 50 0 54 0;
#X connect 51 0 54 0;
#X connect 53 0 1 1;
#X connect 55 0 6 0;
#X connect 55 0 33 0;
#X connect 55 0 28 0;
#X connect 55 0 23 0;
#X connect 55 0 11 0;
#X connect 55 0 7 0;
#X connect 55 0 5 0;
#X connect 56 0 15 0;
#X connect 56 1 69 0;
#X connect 56 2 121 0;
#X connect 56 3 173 0;
#X connect 56 4 225 0;
#X connect 56 5 277 0;
#X connect 56 6 329 0;
#X connect 57 0 92 0;
#X connect 58 0 62 1;
#X connect 58 0 63 0;
#X connect 58 0 66 1;
#X connect 58 0 71 0;
#X connect 59 0 58 0;
#X connect 60 0 58 1;
#X connect 60 0 64 0;
#X connect 60 0 70 0;
#X connect 61 0 66 0;
#X connect 62 0 61 0;
#X connect 63 0 62 0;
#X connect 64 0 58 0;
#X connect 65 0 73 0;
#X connect 66 0 68 0;
#X connect 66 0 67 1;
#X connect 66 0 72 0;
#X connect 66 0 73 1;
#X connect 67 0 65 0;
#X connect 68 0 67 0;
#X connect 69 0 57 0;
#X connect 70 0 92 1;
#X connect 71 0 93 1;
#X connect 72 0 94 1;
#X connect 73 0 74 0;
#X connect 73 0 76 0;
#X connect 73 0 78 1;
#X connect 73 0 75 1;
#X connect 74 0 95 1;
#X connect 75 0 77 0;
#X connect 76 0 75 0;
#X connect 77 0 78 0;
#X connect 78 0 80 0;
#X connect 78 0 83 1;
#X connect 78 0 79 1;
#X connect 78 0 81 0;
#X connect 79 0 82 0;
#X connect 80 0 79 0;
#X connect 81 0 96 1;
#X connect 82 0 83 0;
#X connect 83 0 85 0;
#X connect 83 0 88 1;
#X connect 83 0 84 1;
#X connect 83 0 86 0;
#X connect 84 0 87 0;
#X connect 85 0 84 0;
#X connect 86 0 97 1;
#X connect 87 0 88 0;
#X connect 88 0 90 0;
#X connect 88 0 89 1;
#X connect 88 0 91 0;
#X connect 90 0 89 0;
#X connect 91 0 98 1;
#X connect 92 0 99 0;
#X connect 92 1 93 0;
#X connect 93 0 100 0;
#X connect 93 1 94 0;
#X connect 94 0 101 0;
#X connect 94 1 95 0;
#X connect 95 0 102 0;
#X connect 95 1 96 0;
#X connect 96 0 103 0;
#X connect 96 1 97 0;
#X connect 97 0 104 0;
#X connect 97 1 98 0;
#X connect 98 0 105 0;
#X connect 98 1 106 0;
#X connect 99 0 107 0;
#X connect 100 0 107 0;
#X connect 101 0 107 0;
#X connect 102 0 107 0;
#X connect 103 0 107 0;
#X connect 104 0 107 0;
#X connect 105 0 107 0;
#X connect 108 0 60 0;
#X connect 108 0 87 0;
#X connect 108 0 82 0;
#X connect 108 0 77 0;
#X connect 108 0 65 0;
#X connect 108 0 61 0;
#X connect 108 0 59 0;
#X connect 109 0 144 0;
#X connect 110 0 114 1;
#X connect 110 0 115 0;
#X connect 110 0 118 1;
#X connect 110 0 123 0;
#X connect 111 0 110 0;
#X connect 112 0 110 1;
#X connect 112 0 116 0;
#X connect 112 0 122 0;
#X connect 113 0 118 0;
#X connect 114 0 113 0;
#X connect 115 0 114 0;
#X connect 116 0 110 0;
#X connect 117 0 125 0;
#X connect 118 0 120 0;
#X connect 118 0 119 1;
#X connect 118 0 124 0;
#X connect 118 0 125 1;
#X connect 119 0 117 0;
#X connect 120 0 119 0;
#X connect 121 0 109 0;
#X connect 122 0 144 1;
#X connect 123 0 145 1;
#X connect 124 0 146 1;
#X connect 125 0 126 0;
#X connect 125 0 128 0;
#X connect 125 0 130 1;
#X connect 125 0 127 1;
#X connect 126 0 147 1;
#X connect 127 0 129 0;
#X connect 128 0 127 0;
#X connect 129 0 130 0;
#X connect 130 0 132 0;
#X connect 130 0 135 1;
#X connect 130 0 131 1;
#X connect 130 0 133 0;
#X connect 131 0 134 0;
#X connect 132 0 131 0;
#X connect 133 0 148 1;
#X connect 134 0 135 0;
#X connect 135 0 137 0;
#X connect 135 0 140 1;
#X connect 135 0 136 1;
#X connect 135 0 138 0;
#X connect 136 0 139 0;
#X connect 137 0 136 0;
#X connect 138 0 149 1;
#X connect 139 0 140 0;
#X connect 140 0 142 0;
#X connect 140 0 141 1;
#X connect 140 0 143 0;
#X connect 142 0 141 0;
#X connect 143 0 150 1;
#X connect 144 0 151 0;
#X connect 144 1 145 0;
#X connect 145 0 152 0;
#X connect 145 1 146 0;
#X connect 146 0 153 0;
#X connect 146 1 147 0;
#X connect 147 0 154 0;
#X connect 147 1 148 0;
#X connect 148 0 155 0;
#X connect 148 1 149 0;
#X connect 149 0 156 0;
#X connect 149 1 150 0;
#X connect 150 0 157 0;
#X connect 150 1 158 0;
#X connect 151 0 159 0;
#X connect 152 0 159 0;
#X connect 153 0 159 0;
#X connect 154 0 159 0;
#X connect 155 0 159 0;
#X connect 156 0 159 0;
#X connect 157 0 159 0;
#X connect 160 0 112 0;
#X connect 160 0 139 0;
#X connect 160 0 134 0;
#X connect 160 0 129 0;
#X connect 160 0 117 0;
#X connect 160 0 113 0;
#X connect 160 0 111 0;
#X connect 161 0 196 0;
#X connect 162 0 166 1;
#X connect 162 0 167 0;
#X connect 162 0 170 1;
#X connect 162 0 175 0;
#X connect 163 0 162 0;
#X connect 164 0 162 1;
#X connect 164 0 168 0;
#X connect 164 0 174 0;
#X connect 165 0 170 0;
#X connect 166 0 165 0;
#X connect 167 0 166 0;
#X connect 168 0 162 0;
#X connect 169 0 177 0;
#X connect 170 0 172 0;
#X connect 170 0 171 1;
#X connect 170 0 176 0;
#X connect 170 0 177 1;
#X connect 171 0 169 0;
#X connect 172 0 171 0;
#X connect 173 0 161 0;
#X connect 174 0 196 1;
#X connect 175 0 197 1;
#X connect 176 0 198 1;
#X connect 177 0 178 0;
#X connect 177 0 180 0;
#X connect 177 0 182 1;
#X connect 177 0 179 1;
#X connect 178 0 199 1;
#X connect 179 0 181 0;
#X connect 180 0 179 0;
#X connect 181 0 182 0;
#X connect 182 0 184 0;
#X connect 182 0 187 1;
#X connect 182 0 183 1;
#X connect 182 0 185 0;
#X connect 183 0 186 0;
#X connect 184 0 183 0;
#X connect 185 0 200 1;
#X connect 186 0 187 0;
#X connect 187 0 189 0;
#X connect 187 0 192 1;
#X connect 187 0 188 1;
#X connect 187 0 190 0;
#X connect 188 0 191 0;
#X connect 189 0 188 0;
#X connect 190 0 201 1;
#X connect 191 0 192 0;
#X connect 192 0 194 0;
#X connect 192 0 193 1;
#X connect 192 0 195 0;
#X connect 194 0 193 0;
#X connect 195 0 202 1;
#X connect 196 0 203 0;
#X connect 196 1 197 0;
#X connect 197 0 204 0;
#X connect 197 1 198 0;
#X connect 198 0 205 0;
#X connect 198 1 199 0;
#X connect 199 0 206 0;
#X connect 199 1 200 0;
#X connect 200 0 207 0;
#X connect 200 1 201 0;
#X connect 201 0 208 0;
#X connect 201 1 202 0;
#X connect 202 0 209 0;
#X connect 202 1 210 0;
#X connect 203 0 211 0;
#X connect 204 0 211 0;
#X connect 205 0 211 0;
#X connect 206 0 211 0;
#X connect 207 0 211 0;
#X connect 208 0 211 0;
#X connect 209 0 211 0;
#X connect 212 0 164 0;
#X connect 212 0 191 0;
#X connect 212 0 186 0;
#X connect 212 0 181 0;
#X connect 212 0 169 0;
#X connect 212 0 165 0;
#X connect 212 0 163 0;
#X connect 213 0 248 0;
#X connect 214 0 218 1;
#X connect 214 0 219 0;
#X connect 214 0 222 1;
#X connect 214 0 227 0;
#X connect 215 0 214 0;
#X connect 216 0 214 1;
#X connect 216 0 220 0;
#X connect 216 0 226 0;
#X connect 217 0 222 0;
#X connect 218 0 217 0;
#X connect 219 0 218 0;
#X connect 220 0 214 0;
#X connect 221 0 229 0;
#X connect 222 0 224 0;
#X connect 222 0 223 1;
#X connect 222 0 228 0;
#X connect 222 0 229 1;
#X connect 223 0 221 0;
#X connect 224 0 223 0;
#X connect 225 0 213 0;
#X connect 226 0 248 1;
#X connect 227 0 249 1;
#X connect 228 0 250 1;
#X connect 229 0 230 0;
#X connect 229 0 232 0;
#X connect 229 0 234 1;
#X connect 229 0 231 1;
#X connect 230 0 251 1;
#X connect 231 0 233 0;
#X connect 232 0 231 0;
#X connect 233 0 234 0;
#X connect 234 0 236 0;
#X connect 234 0 239 1;
#X connect 234 0 235 1;
#X connect 234 0 237 0;
#X connect 235 0 238 0;
#X connect 236 0 235 0;
#X connect 237 0 252 1;
#X connect 238 0 239 0;
#X connect 239 0 241 0;
#X connect 239 0 244 1;
#X connect 239 0 240 1;
#X connect 239 0 242 0;
#X connect 240 0 243 0;
#X connect 241 0 240 0;
#X connect 242 0 253 1;
#X connect 243 0 244 0;
#X connect 244 0 246 0;
#X connect 244 0 245 1;
#X connect 244 0 247 0;
#X connect 246 0 245 0;
#X connect 247 0 254 1;
#X connect 248 0 255 0;
#X connect 248 1 249 0;
#X connect 249 0 256 0;
#X connect 249 1 250 0;
#X connect 250 0 257 0;
#X connect 250 1 251 0;
#X connect 251 0 258 0;
#X connect 251 1 252 0;
#X connect 252 0 259 0;
#X connect 252 1 253 0;
#X connect 253 0 260 0;
#X connect 253 1 254 0;
#X connect 254 0 261 0;
#X connect 254 1 262 0;
#X connect 255 0 263 0;
#X connect 256 0 263 0;
#X connect 257 0 263 0;
#X connect 258 0 263 0;
#X connect 259 0 263 0;
#X connect 260 0 263 0;
#X connect 261 0 263 0;
#X connect 264 0 216 0;
#X connect 264 0 243 0;
#X connect 264 0 238 0;
#X connect 264 0 233 0;
#X connect 264 0 221 0;
#X connect 264 0 217 0;
#X connect 264 0 215 0;
#X connect 265 0 300 0;
#X connect 266 0 270 1;
#X connect 266 0 271 0;
#X connect 266 0 274 1;
#X connect 266 0 279 0;
#X connect 267 0 266 0;
#X connect 268 0 266 1;
#X connect 268 0 272 0;
#X connect 268 0 278 0;
#X connect 269 0 274 0;
#X connect 270 0 269 0;
#X connect 271 0 270 0;
#X connect 272 0 266 0;
#X connect 273 0 281 0;
#X connect 274 0 276 0;
#X connect 274 0 275 1;
#X connect 274 0 280 0;
#X connect 274 0 281 1;
#X connect 275 0 273 0;
#X connect 276 0 275 0;
#X connect 277 0 265 0;
#X connect 278 0 300 1;
#X connect 279 0 301 1;
#X connect 280 0 302 1;
#X connect 281 0 282 0;
#X connect 281 0 284 0;
#X connect 281 0 286 1;
#X connect 281 0 283 1;
#X connect 282 0 303 1;
#X connect 283 0 285 0;
#X connect 284 0 283 0;
#X connect 285 0 286 0;
#X connect 286 0 288 0;
#X connect 286 0 291 1;
#X connect 286 0 287 1;
#X connect 286 0 289 0;
#X connect 287 0 290 0;
#X connect 288 0 287 0;
#X connect 289 0 304 1;
#X connect 290 0 291 0;
#X connect 291 0 293 0;
#X connect 291 0 296 1;
#X connect 291 0 292 1;
#X connect 291 0 294 0;
#X connect 292 0 295 0;
#X connect 293 0 292 0;
#X connect 294 0 305 1;
#X connect 295 0 296 0;
#X connect 296 0 298 0;
#X connect 296 0 297 1;
#X connect 296 0 299 0;
#X connect 298 0 297 0;
#X connect 299 0 306 1;
#X connect 300 0 307 0;
#X connect 300 1 301 0;
#X connect 301 0 308 0;
#X connect 301 1 302 0;
#X connect 302 0 309 0;
#X connect 302 1 303 0;
#X connect 303 0 310 0;
#X connect 303 1 304 0;
#X connect 304 0 311 0;
#X connect 304 1 305 0;
#X connect 305 0 312 0;
#X connect 305 1 306 0;
#X connect 306 0 313 0;
#X connect 306 1 314 0;
#X connect 307 0 315 0;
#X connect 308 0 315 0;
#X connect 309 0 315 0;
#X connect 310 0 315 0;
#X connect 311 0 315 0;
#X connect 312 0 315 0;
#X connect 313 0 315 0;
#X connect 316 0 268 0;
#X connect 316 0 295 0;
#X connect 316 0 290 0;
#X connect 316 0 285 0;
#X connect 316 0 273 0;
#X connect 316 0 269 0;
#X connect 316 0 267 0;
#X connect 317 0 352 0;
#X connect 318 0 322 1;
#X connect 318 0 323 0;
#X connect 318 0 326 1;
#X connect 318 0 331 0;
#X connect 319 0 318 0;
#X connect 320 0 318 1;
#X connect 320 0 324 0;
#X connect 320 0 330 0;
#X connect 321 0 326 0;
#X connect 322 0 321 0;
#X connect 323 0 322 0;
#X connect 324 0 318 0;
#X connect 325 0 333 0;
#X connect 326 0 328 0;
#X connect 326 0 327 1;
#X connect 326 0 332 0;
#X connect 326 0 333 1;
#X connect 327 0 325 0;
#X connect 328 0 327 0;
#X connect 329 0 317 0;
#X connect 330 0 352 1;
#X connect 331 0 353 1;
#X connect 332 0 354 1;
#X connect 333 0 334 0;
#X connect 333 0 336 0;
#X connect 333 0 338 1;
#X connect 333 0 335 1;
#X connect 334 0 355 1;
#X connect 335 0 337 0;
#X connect 336 0 335 0;
#X connect 337 0 338 0;
#X connect 338 0 340 0;
#X connect 338 0 343 1;
#X connect 338 0 339 1;
#X connect 338 0 341 0;
#X connect 339 0 342 0;
#X connect 340 0 339 0;
#X connect 341 0 356 1;
#X connect 342 0 343 0;
#X connect 343 0 345 0;
#X connect 343 0 348 1;
#X connect 343 0 344 1;
#X connect 343 0 346 0;
#X connect 344 0 347 0;
#X connect 345 0 344 0;
#X connect 346 0 357 1;
#X connect 347 0 348 0;
#X connect 348 0 350 0;
#X connect 348 0 349 1;
#X connect 348 0 351 0;
#X connect 350 0 349 0;
#X connect 351 0 358 1;
#X connect 352 0 359 0;
#X connect 352 1 353 0;
#X connect 353 0 360 0;
#X connect 353 1 354 0;
#X connect 354 0 361 0;
#X connect 354 1 355 0;
#X connect 355 0 362 0;
#X connect 355 1 356 0;
#X connect 356 0 363 0;
#X connect 356 1 357 0;
#X connect 357 0 364 0;
#X connect 357 1 358 0;
#X connect 358 0 365 0;
#X connect 358 1 366 0;
#X connect 359 0 367 0;
#X connect 360 0 367 0;
#X connect 361 0 367 0;
#X connect 362 0 367 0;
#X connect 363 0 367 0;
#X connect 364 0 367 0;
#X connect 365 0 367 0;
#X connect 368 0 320 0;
#X connect 368 0 347 0;
#X connect 368 0 342 0;
#X connect 368 0 337 0;
#X connect 368 0 325 0;
#X connect 368 0 321 0;
#X connect 368 0 319 0;
#X connect 369 0 55 0;
#X connect 369 0 108 0;
#X connect 369 0 160 0;
#X connect 369 0 212 0;
#X connect 369 0 264 0;
#X connect 369 0 316 0;
#X connect 369 0 368 0;
#X connect 370 0 371 0;
#X connect 370 1 372 0;
#X connect 370 2 373 0;
#X connect 370 3 374 0;
#X connect 370 4 375 0;
#X connect 370 5 376 0;
#X connect 370 6 377 0;
#X connect 371 0 378 0;
#X connect 372 0 378 0;
#X connect 373 0 378 0;
#X connect 374 0 378 0;
#X connect 375 0 378 0;
#X connect 376 0 378 0;
#X connect 377 0 378 0;
#X connect 378 0 381 0;
#X connect 379 0 383 0;
#X connect 380 0 381 1;
#X connect 381 0 382 0;
#X connect 382 0 385 0;
#X connect 383 0 380 0;
#X connect 384 0 0 0;
#X coords 0 -1 1 1 195 240 1 10 10;
