#N canvas 211 137 1070 625 10;
#X obj 71 426 *~ 1;
#X obj 285 426 *~;
#X obj 335 341 / 100;
#X floatatom 335 320 5 0 0 0 - - -;
#X obj 335 387 pack 0 100;
#X obj 335 410 line;
#X obj 284 364 delread4~ \$0-b1;
#X obj 410 427 *~;
#X obj 460 342 / 100;
#X floatatom 460 321 5 0 0 0 - - -;
#X obj 460 388 pack 0 100;
#X obj 460 411 line;
#X floatatom 409 180 5 0 0 0 - - -;
#X obj 409 365 delread4~ \$0-b2;
#X obj 635 426 *~;
#X obj 685 341 / 100;
#X floatatom 685 320 5 0 0 0 - - -;
#X obj 685 387 pack 0 100;
#X obj 685 410 line;
#X floatatom 635 181 5 0 0 0 - - -;
#X obj 635 203 / 100;
#X obj 634 364 delread4~ \$0-b3;
#X floatatom 724 180 5 0 0 0 - - -;
#X obj 724 224 pack 0 500;
#X obj 724 247 line;
#X obj 724 202 / 100;
#X obj 724 278 osc~ 0.1;
#X obj 635 271 phasor~ 0.1;
#X obj 795 455 *~;
#X obj 845 370 / 100;
#X floatatom 845 349 5 0 0 0 - - -;
#X obj 845 416 pack 0 100;
#X obj 845 439 line;
#X floatatom 795 180 5 0 0 0 - - -;
#X obj 795 202 / 100;
#X floatatom 884 179 5 0 0 0 - - -;
#X obj 884 223 pack 0 500;
#X obj 884 246 line;
#X obj 884 201 / 100;
#X obj 794 393 delread4~ \$0-b4;
#X obj 795 270 osc~ 0.1;
#X obj 884 276 phasor~ 0.1;
#X obj 795 369 *~ 500;
#X obj 288 66 hsl 50 15 0.1 2000 0 0 empty empty empty -2 -8 0 10 -262144
-1 -1 2000 1;
#X obj 288 102 hsl 50 15 0.1 99 0 0 empty empty empty -2 -8 0 10 -262144
-1 -1 4400 1;
#X obj 348 66 hsl 50 15 1 1000 0 0 empty empty empty -2 -8 0 10 -228856
-1 -1 1000 1;
#X obj 348 102 hsl 50 15 0.1 99 0 0 empty empty empty -2 -8 0 10 -228856
-1 -1 0 1;
#X obj 408 66 hsl 50 15 1 10 1 0 empty empty empty -2 -8 0 10 -191407
-1 -1 400 1;
#X obj 408 84 hsl 50 15 1 100 1 0 empty empty empty -2 -8 0 10 -191407
-1 -1 1700 1;
#X obj 408 102 hsl 50 15 0.1 99 0 0 empty empty empty -2 -8 0 10 -191407
-1 -1 0 1;
#X obj 468 66 hsl 50 15 1 100 1 0 empty empty Hz 55 7 0 10 -162280
-1 -1 1000 1;
#X obj 468 84 hsl 50 15 0.1 100 1 0 empty empty mod 55 7 0 10 -162280
-1 -1 3400 1;
#X obj 468 102 hsl 50 15 0 99 0 0 empty empty fb 55 7 0 10 -162280
-1 -1 0 1;
#X obj 923 473 / 100;
#X floatatom 923 452 5 0 0 0 - - -;
#X obj 923 496 pack 0 100;
#X obj 923 519 line;
#X obj 284 535 *~;
#X obj 288 121 hsl 250 10 0.1 100 1 0 empty empty empty -2 -8 0 10
-1 -262144 -1 18500 1;
#X obj 70 21 inlet~;
#X obj 285 576 outlet~;
#X text 284 50 d1;
#X text 344 50 d2;
#X text 404 50 d3;
#X text 464 50 d4;
#X obj 112 443 delwrite~ \$0-b1 3000;
#X obj 636 295 +~;
#X obj 795 316 abs~;
#X obj 636 318 abs~;
#X obj 795 293 -~;
#X floatatom 284 181 5 0 0 0 - - -;
#X obj 284 205 sig~;
#X obj 99 466 delwrite~ \$0-b2 3000;
#X obj 86 490 delwrite~ \$0-b3 3000;
#X obj 72 513 delwrite~ \$0-b4 3000;
#X obj 284 158 f;
#X obj 884 107 bang;
#X obj 409 158 f;
#X obj 635 159 f;
#X obj 724 158 f;
#X obj 795 158 f;
#X obj 884 156 f;
#X obj 580 19 inlet;
#X obj 635 340 *~ 250;
#X obj 409 207 sig~;
#X obj 423 279 osc~ 0.1;
#X obj 409 338 *~;
#X obj 423 302 +~ 2;
#X obj 524 35 bng 15 250 50 0 empty empty empty 17 7 0 10 -262144 -191407
-1;
#X connect 0 0 65 0;
#X connect 0 0 72 0;
#X connect 0 0 73 0;
#X connect 0 0 74 0;
#X connect 1 0 57 0;
#X connect 1 0 65 0;
#X connect 2 0 4 0;
#X connect 3 0 2 0;
#X connect 4 0 5 0;
#X connect 5 0 1 1;
#X connect 6 0 1 0;
#X connect 7 0 57 0;
#X connect 7 0 72 0;
#X connect 8 0 10 0;
#X connect 9 0 8 0;
#X connect 10 0 11 0;
#X connect 11 0 7 1;
#X connect 12 0 84 0;
#X connect 13 0 7 0;
#X connect 14 0 57 0;
#X connect 14 0 73 0;
#X connect 15 0 17 0;
#X connect 16 0 15 0;
#X connect 17 0 18 0;
#X connect 18 0 14 1;
#X connect 19 0 20 0;
#X connect 20 0 27 0;
#X connect 21 0 14 0;
#X connect 22 0 25 0;
#X connect 23 0 24 0;
#X connect 24 0 26 0;
#X connect 25 0 23 0;
#X connect 26 0 66 1;
#X connect 27 0 66 0;
#X connect 28 0 57 0;
#X connect 28 0 74 0;
#X connect 29 0 31 0;
#X connect 30 0 29 0;
#X connect 31 0 32 0;
#X connect 32 0 28 1;
#X connect 33 0 34 0;
#X connect 34 0 40 0;
#X connect 35 0 38 0;
#X connect 36 0 37 0;
#X connect 37 0 41 0;
#X connect 38 0 36 0;
#X connect 39 0 28 0;
#X connect 40 0 69 0;
#X connect 41 0 69 1;
#X connect 42 0 39 0;
#X connect 43 0 75 1;
#X connect 44 0 3 0;
#X connect 45 0 77 1;
#X connect 46 0 9 0;
#X connect 47 0 78 1;
#X connect 48 0 79 1;
#X connect 49 0 16 0;
#X connect 50 0 80 1;
#X connect 51 0 81 1;
#X connect 52 0 30 0;
#X connect 53 0 55 0;
#X connect 54 0 53 0;
#X connect 55 0 56 0;
#X connect 56 0 57 1;
#X connect 57 0 60 0;
#X connect 58 0 54 0;
#X connect 59 0 0 0;
#X connect 66 0 68 0;
#X connect 67 0 42 0;
#X connect 68 0 83 0;
#X connect 69 0 67 0;
#X connect 70 0 71 0;
#X connect 71 0 6 0;
#X connect 75 0 70 0;
#X connect 76 0 75 0;
#X connect 76 0 77 0;
#X connect 76 0 78 0;
#X connect 76 0 79 0;
#X connect 76 0 80 0;
#X connect 76 0 81 0;
#X connect 77 0 12 0;
#X connect 78 0 19 0;
#X connect 79 0 22 0;
#X connect 80 0 33 0;
#X connect 81 0 35 0;
#X connect 82 0 88 0;
#X connect 83 0 21 0;
#X connect 84 0 86 0;
#X connect 85 0 87 0;
#X connect 86 0 13 0;
#X connect 87 0 86 1;
#X connect 88 0 76 0;
#X coords 0 -1 1 1 272 115 1 276 25;
