#N canvas 376 169 798 567 10;
#X obj 78 160 f 0;
#X obj 104 160 + 1;
#X obj 130 160 % 2;
#X obj 78 35 inlet;
#X obj 93 115 r sync;
#X msg 93 137 0;
#X obj 174 115 random 6;
#X obj 174 144 + 1;
#X obj 119 183 sel 0;
#X obj 78 183 t f f;
#X obj 105 207 expr $f2-$f1;
#X obj 201 199 random 2;
#X obj 78 240 spigot;
#X obj 105 268 spigot;
#X obj 122 240 == 0;
#X obj 150 268 == 1;
#X floatatom 201 225 5 0 0 0 - - -;
#X obj 174 35 inlet;
#X msg 174 65 seed \$1;
#X obj 78 310 + \$1;
#X obj 78 373 outlet;
#X connect 0 0 1 0;
#X connect 0 0 9 0;
#X connect 1 0 2 0;
#X connect 2 0 0 1;
#X connect 3 0 0 0;
#X connect 4 0 5 0;
#X connect 5 0 0 1;
#X connect 6 0 7 0;
#X connect 6 0 10 1;
#X connect 7 0 2 1;
#X connect 8 0 6 0;
#X connect 8 0 11 0;
#X connect 9 0 12 0;
#X connect 9 1 8 0;
#X connect 9 1 10 0;
#X connect 10 0 13 0;
#X connect 11 0 16 0;
#X connect 12 0 19 0;
#X connect 13 0 19 0;
#X connect 14 0 12 1;
#X connect 15 0 13 1;
#X connect 16 0 14 0;
#X connect 16 0 15 0;
#X connect 17 0 18 0;
#X connect 18 0 6 0;
#X connect 18 0 11 0;
#X connect 19 0 20 0;
