#N canvas 566 225 683 513 10;
#X obj 54 30 inlet;
#X obj 250 115 f 0;
#X obj 277 115 + 1;
#X obj 265 30 inlet;
#X obj 265 66 t b;
#X msg 265 89 0;
#X floatatom 250 161 5 0 0 0 - - -;
#X msg 194 139 seed \$1;
#X obj 95 191 random;
#X obj 344 30 inlet;
#X obj 344 66 clip 0 1;
#X obj 344 89 * 100;
#X obj 344 112 t b f;
#X msg 344 135 100;
#X obj 344 175 -, f 5;
#X floatatom 344 199 5 0 0 0 - - -;
#X floatatom 139 315 5 0 0 0 - - -;
#X obj 54 99 t f b b b, f 21;
#X obj 194 229 sel 0 1 2 3 4 5 6, f 34;
#X msg 337 252 -3;
#X obj 54 338 expr if($f2==1 \, $f1+$f3 \, $f1);
#X floatatom 225 315 5 0 0 0 - - -;
#X obj 54 437 outlet;
#X obj 250 138 + \$1;
#X obj 95 214 < 20;
#X obj 194 206 random 8;
#X msg 308 252 3;
#X msg 366 252 4;
#X msg 395 252 -4;
#X msg 194 252 2;
#X msg 222 252 -2;
#X msg 251 252 1;
#X msg 280 252 -1;
#X connect 0 0 17 0;
#X connect 1 0 2 0;
#X connect 1 0 23 0;
#X connect 2 0 1 1;
#X connect 3 0 4 0;
#X connect 4 0 5 0;
#X connect 5 0 1 1;
#X connect 7 0 8 0;
#X connect 7 0 25 0;
#X connect 8 0 24 0;
#X connect 9 0 10 0;
#X connect 10 0 11 0;
#X connect 11 0 12 0;
#X connect 12 0 13 0;
#X connect 12 1 14 1;
#X connect 13 0 14 0;
#X connect 14 0 15 0;
#X connect 14 0 8 1;
#X connect 16 0 20 1;
#X connect 17 0 20 0;
#X connect 17 1 8 0;
#X connect 17 2 25 0;
#X connect 17 3 1 0;
#X connect 18 0 29 0;
#X connect 18 1 30 0;
#X connect 18 2 31 0;
#X connect 18 3 32 0;
#X connect 18 4 26 0;
#X connect 18 5 19 0;
#X connect 18 6 27 0;
#X connect 18 7 28 0;
#X connect 19 0 21 0;
#X connect 20 0 22 0;
#X connect 21 0 20 2;
#X connect 23 0 6 0;
#X connect 23 0 7 0;
#X connect 24 0 16 0;
#X connect 25 0 18 0;
#X connect 26 0 21 0;
#X connect 27 0 21 0;
#X connect 28 0 21 0;
#X connect 29 0 21 0;
#X connect 30 0 21 0;
#X connect 31 0 21 0;
#X connect 32 0 21 0;
