#N canvas 476 319 602 409 10;
#X obj 127 93 inlet~;
#X obj 127 179 *~;
#X obj 128 207 +~;
#X obj 185 93 inlet~;
#X obj 186 192 *~;
#X obj 142 133 sig~ 1;
#X obj 142 156 -~;
#X obj 127 287 outlet~;
#X obj 261 140 f \$1;
#X obj 317 124 loadbang;
#X obj 261 92 inlet;
#X connect 0 0 1 0;
#X connect 1 0 2 0;
#X connect 2 0 7 0;
#X connect 3 0 4 0;
#X connect 4 0 2 1;
#X connect 5 0 6 0;
#X connect 6 0 1 1;
#X connect 8 0 4 1;
#X connect 8 0 6 1;
#X connect 9 0 8 0;
#X connect 10 0 8 0;
