#N canvas 504 116 856 636 10;
#N canvas 0 50 450 250 (subpatch) 0;
#X array \$0-pitch 12 float 3;
#A 0 50 50 50 50 50 50 50 50 50 50 50 50;
#X coords 0 108 12 20 50 35 1 0 0;
#X restore 49 98 graph;
#X msg 502 150 50 50 50 50 50 50 50 50 50 50 50 50;
#N canvas 6 116 450 250 (subpatch) 0;
#X array \$0-tempo 6 float 3;
#A 0 3 3 3 3 3 3;
#X coords 0 1 6 6 50 35 1 0 0;
#X restore 103 98 graph;
#N canvas 6 116 450 250 (subpatch) 0;
#X array \$0-pedal 4 float 3;
#A 0 2 2 2 2;
#X coords 0 4 4 1 50 35 1 0 0;
#X restore 157 98 graph;
#X msg 502 244 2 2 2 2;
#N canvas 6 116 450 250 (subpatch) 0;
#X array \$0-amp 4 float 3;
#A 0 0.5 0.5 0.5 0.5;
#X coords 0 1 4 0 50 35 1 0 0;
#X restore 211 98 graph;
#X msg 502 291 0.5 0.5 0.5 0.5;
#X obj 246 137 bng 15 250 50 0 empty empty reset -32 7 0 10 -262144
-1 -1;
#X obj 309 121 loadbang;
#X obj 103 137 bng 15 250 50 0 empty empty trg 17 7 0 10 -262144 -191407
-1;
#X obj 61 249 t b b b b, f 53;
#X obj 61 272 random 12;
#X floatatom 61 372 5 0 0 1 tone - -;
#X obj 61 317 i;
#X floatatom 166 339 5 0 0 0 - - -;
#X obj 166 272 random 8;
#X obj 166 317 i;
#X msg 502 197 3 3 3 3 3 3;
#X obj 61 339 mtof;
#X obj 166 361 expr pow(2 \, $f1);
#X floatatom 166 384 5 0 0 0 - - -;
#X obj 166 406 t b f;
#X obj 166 429 4000;
#X obj 166 452 /, f 5;
#X floatatom 166 475 5 0 0 1 ms - -;
#X floatatom 187 137 3 0 0 0 bpm - -;
#X obj 187 217 expr (60000/$f1)*4;
#X floatatom 271 428 5 0 0 1 decay - -;
#X obj 271 317 i;
#X floatatom 376 454 5 0 0 1 intensity - -;
#X obj 271 272 random 4;
#X obj 376 317 f;
#X obj 376 272 random 4;
#X obj 502 387 osc~;
#X obj 679 420 vline~;
#X obj 679 443 pow~ 1;
#X obj 501 460 *~;
#X obj 500 484 *~;
#X obj 735 467 line~;
#X obj 735 419 / 5;
#X obj 166 497 t b f;
#X obj 166 520 del \$1;
#X obj 166 543 spigot;
#X obj 49 137 tgl 15 0 empty empty run 17 7 0 10 -262144 -1 -1 0 1
;
#X obj 735 441 pack \$1 5;
#X msg 679 387 1 10 \, 0.7 90 10 \, 0 \$1 100;
#X obj 502 437 +~;
#X obj 610 399 phasor~;
#X obj 610 376 *~ 3;
#X obj 610 422 *~ 0.06;
#X obj 502 410 +~;
#X obj 557 372 osc~;
#X obj 558 395 *~ 0.2;
#X obj 61 394 t f f f;
#X obj 557 350 + 5;
#X obj 501 541 outlet~;
#X obj 104 19 inlet;
#X obj 61 294 tabread \$0-pitch;
#X obj 166 294 tabread \$0-tempo;
#X obj 271 294 tabread \$0-pedal;
#X obj 376 294 tabread \$0-amp;
#X obj 502 173 array set \$0-pitch;
#X obj 502 220 array set \$0-tempo;
#X obj 502 267 array set \$0-pedal;
#X obj 502 314 array set \$0-amp;
#X connect 1 0 61 0;
#X connect 4 0 63 0;
#X connect 6 0 64 0;
#X connect 7 0 1 0;
#X connect 7 0 6 0;
#X connect 7 0 4 0;
#X connect 7 0 17 0;
#X connect 8 0 7 0;
#X connect 9 0 10 0;
#X connect 10 0 11 0;
#X connect 10 1 15 0;
#X connect 10 2 30 0;
#X connect 10 3 32 0;
#X connect 11 0 57 0;
#X connect 12 0 53 0;
#X connect 13 0 18 0;
#X connect 14 0 19 0;
#X connect 15 0 58 0;
#X connect 16 0 14 0;
#X connect 17 0 62 0;
#X connect 18 0 12 0;
#X connect 19 0 20 0;
#X connect 20 0 21 0;
#X connect 21 0 22 0;
#X connect 21 1 23 1;
#X connect 22 0 23 0;
#X connect 23 0 24 0;
#X connect 24 0 45 0;
#X connect 24 0 40 0;
#X connect 25 0 26 0;
#X connect 26 0 22 1;
#X connect 27 0 35 1;
#X connect 28 0 27 0;
#X connect 29 0 39 0;
#X connect 30 0 59 0;
#X connect 31 0 29 0;
#X connect 32 0 60 0;
#X connect 33 0 50 0;
#X connect 34 0 35 0;
#X connect 35 0 36 1;
#X connect 36 0 37 0;
#X connect 37 0 55 0;
#X connect 38 0 37 1;
#X connect 39 0 44 0;
#X connect 40 0 41 0;
#X connect 40 1 41 1;
#X connect 41 0 42 0;
#X connect 42 0 9 0;
#X connect 43 0 42 1;
#X connect 44 0 38 0;
#X connect 45 0 34 0;
#X connect 46 0 36 0;
#X connect 47 0 49 0;
#X connect 48 0 47 0;
#X connect 49 0 46 1;
#X connect 50 0 46 0;
#X connect 51 0 52 0;
#X connect 52 0 50 1;
#X connect 53 0 48 0;
#X connect 53 1 54 0;
#X connect 53 2 33 0;
#X connect 54 0 51 0;
#X connect 56 0 9 0;
#X connect 57 0 13 0;
#X connect 58 0 16 0;
#X connect 59 0 28 0;
#X connect 60 0 31 0;
#X coords 0 -1 1 1 230 100 1 40 60;
