#N canvas 6 116 723 646 10;
#X obj 100 3 inlet;
#X obj 118 95 hradio 15 1 0 4 empty empty M/m(up/down) 0 -8 0 10 -262144
-1 -1 3;
#X obj 118 148 hradio 15 1 0 2 empty empty II_M/m 35 7 0 10 -262144
-1 -1 1;
#X obj 118 130 hradio 15 1 0 2 empty empty I_M/m 35 7 0 10 -262144
-1 -1 1;
#X obj 260 234 del \$1;
#X obj 293 125 * 1000;
#X msg 293 79 4;
#X obj 293 55 loadbang;
#X obj 174 3 inlet;
#X obj 118 113 nbx 2 14 1 10 0 0 empty empty d(sec) 35 7 0 10 -1 -262144
-1 3 256;
#X obj 421 265 + 0;
#X obj 436 208 sel 0 1 2 3, f 22;
#X obj 100 357 t f f f, f 34;
#X obj 200 429 + 0;
#X obj 215 381 sel 0 1, f 11;
#X msg 215 404 3;
#X msg 246 404 4;
#X obj 301 429 + 7;
#X obj 100 332 i 0;
#X obj 100 208 t f b f, f 54;
#X obj 279 316 i 0;
#X obj 260 257 t b b b;
#X obj 118 166 hradio 15 1 0 2 empty empty Oct_UP 35 7 0 10 -262144
-1 -1 1;
#X obj 200 509 + 0;
#X obj 215 461 sel 0 1, f 11;
#X msg 215 484 0;
#X msg 246 484 12;
#X obj 100 553 outlet;
#X obj 200 553 outlet;
#X obj 100 427 t f f, f 9;
#X obj 100 450 - 24;
#X obj 151 553 outlet;
#X obj 301 553 outlet;
#X msg 436 231 4;
#X msg 468 231 3;
#X msg 500 231 -4;
#X msg 532 231 -3;
#X msg 323 79 0;
#X obj 240 3 inlet;
#X obj 305 3 inlet;
#X obj 100 26 clip 0 127;
#X obj 174 26 clip 0 3;
#X obj 240 26 clip 0 10;
#X obj 305 26 clip 0 1;
#X obj 365 3 inlet;
#X obj 365 26 clip 0 1;
#X connect 0 0 40 0;
#X connect 1 0 11 0;
#X connect 2 0 14 0;
#X connect 3 0 14 0;
#X connect 4 0 21 0;
#X connect 5 0 4 1;
#X connect 6 0 9 0;
#X connect 7 0 6 0;
#X connect 7 0 37 0;
#X connect 8 0 41 0;
#X connect 9 0 5 0;
#X connect 10 0 20 1;
#X connect 11 0 33 0;
#X connect 11 1 34 0;
#X connect 11 2 35 0;
#X connect 11 3 36 0;
#X connect 12 0 29 0;
#X connect 12 1 13 0;
#X connect 12 2 17 0;
#X connect 13 0 23 0;
#X connect 14 0 15 0;
#X connect 14 1 16 0;
#X connect 15 0 13 1;
#X connect 16 0 13 1;
#X connect 17 0 32 0;
#X connect 18 0 12 0;
#X connect 19 0 18 0;
#X connect 19 1 4 0;
#X connect 19 2 10 0;
#X connect 20 0 18 1;
#X connect 21 0 18 0;
#X connect 21 1 20 0;
#X connect 21 2 2 0;
#X connect 22 0 24 0;
#X connect 23 0 28 0;
#X connect 24 0 25 0;
#X connect 24 1 26 0;
#X connect 25 0 23 1;
#X connect 26 0 23 1;
#X connect 29 0 30 0;
#X connect 29 1 31 0;
#X connect 30 0 27 0;
#X connect 33 0 10 1;
#X connect 34 0 10 1;
#X connect 35 0 10 1;
#X connect 36 0 10 1;
#X connect 37 0 1 0;
#X connect 37 0 3 0;
#X connect 37 0 2 0;
#X connect 37 0 22 0;
#X connect 38 0 42 0;
#X connect 39 0 43 0;
#X connect 40 0 19 0;
#X connect 41 0 1 0;
#X connect 42 0 9 0;
#X connect 43 0 3 0;
#X connect 44 0 45 0;
#X connect 45 0 2 0;
#X coords 0 -1 1 1 85 140 1 110 50;
