#N canvas 6 116 1366 652 10;
#X obj 49 11 inlet;
#X obj 49 81 bng 15 250 50 0 empty empty empty 17 7 0 10 -262144 -1
-1;
#X obj 162 11 inlet;
#X obj 125 309 list store;
#X obj 49 287 f 0;
#X obj 77 287 + 1;
#X obj 106 287 % 2;
#X obj 162 224 t a a;
#X obj 189 271 list length;
#X msg 49 310 get \$1 1;
#X obj 393 309 list store;
#X obj 317 287 f 0;
#X obj 345 287 + 1;
#X obj 374 287 % 2;
#X obj 430 224 t a a;
#X obj 457 271 list length;
#X msg 317 310 get \$1 1;
#X obj 662 309 list store;
#X obj 586 287 f 0;
#X obj 614 287 + 1;
#X obj 643 287 % 2;
#X obj 699 224 t a a;
#X obj 726 271 list length;
#X msg 586 310 get \$1 1;
#X obj 49 248 t b b b, f 90;
#X obj 86 81 nbx 2 15 30 88 0 0 empty empty tone 0 -8 0 10 -262144
-1 -1 60 256;
#X obj 125 332 + 0;
#X obj 117 81 nbx 4 15 100 9999 0 0 empty empty ms 0 -8 0 10 -262144
-1 -1 1000 256;
#X obj 393 354 *;
#X obj 86 11 inlet;
#X obj 125 355 t f f;
#X obj 125 408 outlet;
#X obj 393 408 outlet;
#X obj 662 378 t f f;
#X obj 662 408 outlet;
#X obj 49 100 nbx 2 15 -1e+37 1e+37 0 0 empty empty empty 0 -8 0 10
-1 -262144 -1 68 256;
#X obj 79 100 nbx 4 15 -1e+37 1e+37 0 0 empty empty empty 0 -8 0 10
-128992 -262144 -1 4 256;
#X obj 393 332 t f f;
#X obj 126 100 nbx 3 15 -1e+37 1e+37 0 0 empty empty empty 0 -8 0 10
-262144 -1 -1 0.5 256;
#X obj 203 224 array set \$0-gra;
#X obj 469 62 array sum \$0-gra;
#X floatatom 469 85 5 0 0 0 - - -;
#X obj 306 13 array define \$0-gra;
#X obj 306 35 array define \$0-dur;
#X obj 306 57 array define \$0-amp;
#X floatatom 587 85 5 0 0 0 - - -;
#X obj 560 13 bng 15 250 50 0 empty empty empty 17 7 0 10 -262144 -1
-1;
#X obj 587 62 array sum \$0-dur;
#X obj 472 225 array set \$0-dur;
#X obj 741 224 array set \$0-amp;
#X floatatom 469 143 5 0 0 0 - - -;
#X obj 207 345 tgl 15 0 empty empty empty 17 7 0 10 -262144 -1 -1 0
1;
#X obj 207 388 f 0;
#X obj 234 388 + 1;
#X obj 261 388 % 2;
#X obj 207 434 random 12;
#X obj 306 86 array define \$0-Ngra;
#X obj 306 108 array define \$0-Ndur;
#X obj 306 436 sel \$1;
#X obj 339 411 - 1;
#X msg 306 463 0;
#X obj 207 411 t b f, f 17;
#X obj 171 583 list append;
#X obj 234 559 list store;
#X obj 207 457 t f b;
#X obj 114 617 list store;
#X obj 114 546 bng 15 250 50 0 empty empty empty 17 7 0 10 -262144
-1 -1;
#X obj 114 640 array set \$0-Ngra;
#X floatatom 819 85 5 0 0 0 - - -;
#X floatatom 937 85 5 0 0 0 - - -;
#X obj 910 13 bng 15 250 50 0 empty empty empty 17 7 0 10 -262144 -1
-1;
#X floatatom 819 143 5 0 0 0 - - -;
#X obj 819 62 array sum \$0-Ngra;
#X obj 937 62 array sum \$0-Ndur;
#X obj 207 365 metro 100;
#X obj 485 345 tgl 15 0 empty empty empty 17 7 0 10 -262144 -1 -1 0
1;
#X obj 485 388 f 0;
#X obj 512 388 + 1;
#X obj 539 388 % 2;
#X obj 584 436 sel \$1;
#X obj 617 411 - 1;
#X msg 584 463 0;
#X obj 485 411 t b f, f 17;
#X obj 449 583 list append;
#X obj 512 559 list store;
#X obj 485 457 t f b;
#X obj 392 617 list store;
#X obj 392 546 bng 15 250 50 0 empty empty empty 17 7 0 10 -262144
-1 -1;
#X obj 485 365 metro 100;
#X obj 485 434 random 6;
#X obj 392 640 array set \$0-Ndur;
#X obj 392 488 sel 0 1 2 3 4 5, f 30;
#X msg 392 511 4;
#X msg 421 511 2;
#X msg 451 511 1;
#X msg 480 511 0.5;
#X msg 510 511 0.25;
#X msg 546 511 0.125;
#X obj 49 127 bng 15 250 50 0 empty empty new 17 7 0 10 -262144 -1
-1;
#X obj 49 146 bng 15 250 50 0 empty empty compare 17 7 0 10 -262144
-1 -1;
#X obj 721 18 del 100;
#X floatatom 130 145 5 0 0 0 - - -;
#X obj 43 599 list store;
#X obj 302 599 list store;
#X obj 49 166 bng 15 250 50 0 empty empty use_this! 17 7 0 10 -262144
-4034 -1;
#X obj 650 158 expr abs($f1-$f2);
#X text 107 144 ---;
#X obj 722 40 t b b;
#X obj 162 199 route gra dur amp off, f 146;
#X obj 469 120 expr abs(cos($f1*$f2));
#X obj 560 33 t b b;
#X obj 819 120 expr abs(cos($f1*$f2));
#X obj 910 33 t b b;
#X connect 0 0 1 0;
#X connect 1 0 24 0;
#X connect 2 0 108 0;
#X connect 3 0 26 0;
#X connect 4 0 5 0;
#X connect 4 0 9 0;
#X connect 5 0 6 0;
#X connect 6 0 4 1;
#X connect 7 0 3 1;
#X connect 7 1 8 0;
#X connect 7 1 39 0;
#X connect 8 0 6 1;
#X connect 8 0 54 1;
#X connect 8 0 59 0;
#X connect 9 0 3 0;
#X connect 10 0 37 0;
#X connect 11 0 12 0;
#X connect 11 0 16 0;
#X connect 12 0 13 0;
#X connect 13 0 11 1;
#X connect 14 0 10 1;
#X connect 14 1 15 0;
#X connect 14 1 48 0;
#X connect 15 0 13 1;
#X connect 15 0 78 1;
#X connect 15 0 80 1;
#X connect 16 0 10 0;
#X connect 17 0 33 0;
#X connect 18 0 19 0;
#X connect 18 0 23 0;
#X connect 19 0 20 0;
#X connect 20 0 18 1;
#X connect 21 0 17 1;
#X connect 21 1 22 0;
#X connect 21 1 49 0;
#X connect 22 0 20 1;
#X connect 23 0 17 0;
#X connect 24 0 4 0;
#X connect 24 1 11 0;
#X connect 24 2 18 0;
#X connect 25 0 26 1;
#X connect 26 0 30 0;
#X connect 27 0 28 1;
#X connect 28 0 32 0;
#X connect 29 0 25 0;
#X connect 30 0 31 0;
#X connect 30 1 35 0;
#X connect 33 0 34 0;
#X connect 33 1 38 0;
#X connect 37 0 28 0;
#X connect 37 1 36 0;
#X connect 40 0 41 0;
#X connect 41 0 109 0;
#X connect 45 0 109 1;
#X connect 46 0 110 0;
#X connect 47 0 45 0;
#X connect 50 0 105 0;
#X connect 51 0 74 0;
#X connect 52 0 53 0;
#X connect 52 0 61 0;
#X connect 53 0 54 0;
#X connect 54 0 52 1;
#X connect 55 0 64 0;
#X connect 58 0 60 0;
#X connect 59 0 58 1;
#X connect 60 0 51 0;
#X connect 61 0 55 0;
#X connect 61 1 58 0;
#X connect 62 0 65 1;
#X connect 62 0 63 1;
#X connect 62 0 102 1;
#X connect 63 0 62 1;
#X connect 64 0 62 0;
#X connect 64 1 63 0;
#X connect 65 0 67 0;
#X connect 66 0 65 0;
#X connect 66 0 63 1;
#X connect 68 0 111 0;
#X connect 69 0 111 1;
#X connect 70 0 112 0;
#X connect 71 0 105 1;
#X connect 72 0 68 0;
#X connect 73 0 69 0;
#X connect 74 0 52 0;
#X connect 75 0 88 0;
#X connect 76 0 77 0;
#X connect 76 0 82 0;
#X connect 77 0 78 0;
#X connect 78 0 76 1;
#X connect 79 0 81 0;
#X connect 80 0 79 1;
#X connect 81 0 75 0;
#X connect 82 0 89 0;
#X connect 82 1 79 0;
#X connect 83 0 86 1;
#X connect 83 0 84 1;
#X connect 83 0 103 1;
#X connect 84 0 83 1;
#X connect 85 0 91 0;
#X connect 85 1 84 0;
#X connect 86 0 90 0;
#X connect 87 0 86 0;
#X connect 87 0 84 1;
#X connect 88 0 76 0;
#X connect 89 0 85 0;
#X connect 91 0 92 0;
#X connect 91 1 93 0;
#X connect 91 2 94 0;
#X connect 91 3 95 0;
#X connect 91 4 96 0;
#X connect 91 5 97 0;
#X connect 92 0 83 0;
#X connect 93 0 83 0;
#X connect 94 0 83 0;
#X connect 95 0 83 0;
#X connect 96 0 83 0;
#X connect 97 0 83 0;
#X connect 98 0 51 0;
#X connect 98 0 75 0;
#X connect 99 0 66 0;
#X connect 99 0 87 0;
#X connect 99 0 100 0;
#X connect 100 0 107 0;
#X connect 102 0 7 0;
#X connect 103 0 14 0;
#X connect 104 0 102 0;
#X connect 104 0 103 0;
#X connect 105 0 101 0;
#X connect 107 0 46 0;
#X connect 107 1 70 0;
#X connect 108 0 7 0;
#X connect 108 1 14 0;
#X connect 108 2 21 0;
#X connect 108 3 25 0;
#X connect 108 4 27 0;
#X connect 109 0 50 0;
#X connect 110 0 40 0;
#X connect 110 1 47 0;
#X connect 111 0 71 0;
#X connect 112 0 72 0;
#X connect 112 1 73 0;
#X coords 0 -1 1 1 130 145 1 40 45;
