#N canvas 655 244 450 431 10;
#X obj 175 181 t f b, f 9;
#X obj 175 126 spigot;
#X obj 270 197 f 0;
#X obj 296 197 + 1;
#X msg 270 243 0;
#X msg 208 104 1;
#X obj 211 79 t b b;
#X obj 84 198 f 0;
#X obj 110 198 + 1;
#X msg 84 221 get \$1 1;
#X floatatom 175 260 5 0 0 0 - - -;
#X obj 51 126 spigot;
#X msg 84 95 0;
#X obj 51 275 f 0;
#X obj 76 275 + 1;
#X obj 51 298 sel 0;
#X obj 102 275 % 1;
#X obj 51 321 t b b, f 6;
#X msg 118 110 1;
#X obj 99 151 r sync;
#X msg 99 174 0;
#X obj 285 151 r sync;
#X msg 285 174 0;
#X obj 175 237 list store, f 11;
#X obj 175 208 list prepend;
#X obj 311 220 - 1;
#X obj 270 220 sel 0;
#X obj 136 198 % 2;
#X obj 322 197 % 2;
#X obj 311 95 f \$1;
#X obj 211 54 loadbang;
#X obj 51 384 outlet;
#X obj 51 26 inlet;
#X obj 175 26 inlet;
#X connect 0 0 24 0;
#X connect 0 1 2 0;
#X connect 0 1 23 0;
#X connect 1 0 0 0;
#X connect 2 0 3 0;
#X connect 2 0 26 0;
#X connect 3 0 28 0;
#X connect 4 0 1 1;
#X connect 4 0 7 0;
#X connect 5 0 1 1;
#X connect 6 0 5 0;
#X connect 6 0 12 0;
#X connect 6 1 23 1;
#X connect 6 1 29 0;
#X connect 7 0 8 0;
#X connect 7 0 9 0;
#X connect 8 0 27 0;
#X connect 9 0 23 0;
#X connect 10 0 16 1;
#X connect 11 0 13 0;
#X connect 12 0 11 1;
#X connect 13 0 14 0;
#X connect 13 0 15 0;
#X connect 14 0 16 0;
#X connect 15 0 17 0;
#X connect 16 0 13 1;
#X connect 17 0 31 0;
#X connect 17 1 7 0;
#X connect 18 0 11 1;
#X connect 19 0 20 0;
#X connect 20 0 7 1;
#X connect 21 0 22 0;
#X connect 22 0 2 1;
#X connect 23 0 10 0;
#X connect 23 0 24 1;
#X connect 24 0 23 1;
#X connect 25 0 26 1;
#X connect 26 0 4 0;
#X connect 26 0 18 0;
#X connect 27 0 7 1;
#X connect 28 0 2 1;
#X connect 29 0 27 1;
#X connect 29 0 25 0;
#X connect 29 0 28 1;
#X connect 30 0 6 0;
#X connect 32 0 11 0;
#X connect 33 0 1 0;
