#N canvas 0 116 1366 652 10;
#X obj 100 33 inlet;
#X obj 100 136 f 0;
#X obj 126 136 + 1;
#X obj 115 90 r sync;
#X msg 115 113 0;
#X obj 100 167 expr if($f1==0 \, 1 \, 0) \; if($f1==1 \, 1 \, 0) \;
if($f1>1&&$f1<($f2-1) \, 1 \, 0) \; if($f1==($f2-1) \, 1 \, 0) \; if($f1==$f2
\, 1 \, 0);
#X obj 152 136 % 0;
#X obj 271 120 f \$1;
#X obj 271 62 loadbang;
#X obj 33 252 sel 1;
#X obj 31 392 sel 1;
#X obj 153 251 sel 1;
#X obj 294 387 sel 1;
#X obj 293 244 sel 1;
#X obj 271 143 - 1;
#X obj 419 110 i 0, f 7;
#X obj 419 184 t b;
#X obj 452 184 t b b;
#X obj 533 184 t b b;
#X obj 662 184 t b b;
#X obj 778 184 t b b;
#X obj 904 184 t b b;
#X obj 419 133 sel 0 1 2 3 4 5 6 7, f 138;
#X obj 1025 184 t b b;
#X obj 1142 184 t b b;
#X obj 1225 191 * 0.25;
#X obj 1169 207 del 0;
#X obj 1169 230 del 0;
#X obj 1169 253 del 0;
#X obj 1094 192 * 0.25;
#X obj 1094 215 * 0.375;
#X obj 1052 208 del 0;
#X obj 1052 231 del 0;
#X obj 971 192 * 0.5;
#X obj 971 215 * 0.375;
#X obj 931 208 del 0;
#X obj 931 231 del 0;
#X obj 846 193 * 0.25;
#X obj 846 216 * 0.5;
#X obj 805 209 del 0;
#X obj 805 232 del 0;
#X obj 728 194 * 0.5;
#X obj 729 217 * 0.25;
#X obj 689 210 del 0;
#X obj 689 233 del 0;
#X obj 601 194 * 0.33;
#X obj 560 233 del 0;
#X obj 560 210 del 0;
#X obj 601 217 * 0.34;
#X obj 490 184 * 0.5;
#X obj 479 209 del 0;
#X obj 419 270 s b;
#X obj 536 366 r b;
#X obj 452 270 s b;
#X obj 533 270 s b;
#X obj 662 270 s b;
#X obj 778 270 s b;
#X obj 904 270 s b;
#X obj 1025 270 s b;
#X obj 1142 270 s b;
#X obj 1225 78 f \$2;
#X obj 33 321 t b f;
#X obj 33 344 s c;
#X obj 60 344 s f;
#X obj 419 87 r c;
#X obj 458 87 r f;
#X obj 31 461 t b f;
#X obj 31 484 s c;
#X obj 58 484 s f;
#X obj 31 438 random 4;
#X obj 153 342 t b f;
#X obj 153 365 s c;
#X obj 180 365 s f;
#X obj 153 320 + 2;
#X obj 293 313 t b f;
#X obj 293 336 s c;
#X obj 320 336 s f;
#X obj 294 478 t b f;
#X obj 294 501 s c;
#X obj 321 501 s f;
#X obj 294 456 + 1;
#X obj 536 414 random 0;
#X msg 536 460 get \$1 1;
#X obj 536 483 list store, f 11;
#X obj 536 438 % 15;
#X obj 33 275 t b b, f 10;
#X obj 90 344 s e;
#X obj 581 366 r e;
#X obj 536 390 bang;
#X obj 31 415 t b b, f 10;
#X obj 88 484 s e;
#X obj 88 461 + 2;
#X obj 88 438 random 4;
#X obj 153 274 t b b, f 10;
#X obj 210 365 s e;
#X obj 294 410 t b b, f 10;
#X obj 351 501 s e;
#X obj 351 433 random 8;
#X obj 351 456 + 5;
#X obj 293 267 t b b, f 10;
#X obj 350 336 s e;
#X obj 536 596 outlet;
#X obj 193 33 inlet;
#X msg 177 499 seed \$1;
#X obj 178 91 f 0;
#X msg 599 460 2 0 1 3 -1 4 -2 6 -3 5 -5 8 -4 7 9;
#X obj 90 298 random 4;
#X obj 294 433 random 4;
#X obj 210 297 random 10;
#X obj 210 320 + 4;
#X obj 293 290 random 2;
#X obj 350 290 random 5;
#X obj 33 298 random 2;
#X obj 153 297 random 8;
#X connect 0 0 1 0;
#X connect 1 0 2 0;
#X connect 1 0 5 0;
#X connect 2 0 6 0;
#X connect 3 0 4 0;
#X connect 4 0 1 1;
#X connect 5 0 9 0;
#X connect 5 1 10 0;
#X connect 5 2 11 0;
#X connect 5 3 12 0;
#X connect 5 4 13 0;
#X connect 6 0 1 1;
#X connect 7 0 6 1;
#X connect 7 0 14 0;
#X connect 8 0 7 0;
#X connect 8 0 60 0;
#X connect 8 0 105 0;
#X connect 9 0 85 0;
#X connect 10 0 89 0;
#X connect 11 0 93 0;
#X connect 12 0 95 0;
#X connect 13 0 99 0;
#X connect 14 0 5 1;
#X connect 15 0 22 0;
#X connect 16 0 51 0;
#X connect 17 0 53 0;
#X connect 17 1 50 0;
#X connect 18 0 54 0;
#X connect 18 1 47 0;
#X connect 19 0 55 0;
#X connect 19 1 43 0;
#X connect 20 0 56 0;
#X connect 20 1 39 0;
#X connect 21 0 57 0;
#X connect 21 1 35 0;
#X connect 22 0 16 0;
#X connect 22 1 17 0;
#X connect 22 2 18 0;
#X connect 22 3 19 0;
#X connect 22 4 20 0;
#X connect 22 5 21 0;
#X connect 22 6 23 0;
#X connect 22 7 24 0;
#X connect 22 8 18 0;
#X connect 23 0 58 0;
#X connect 23 1 31 0;
#X connect 24 0 59 0;
#X connect 24 1 26 0;
#X connect 25 0 26 1;
#X connect 25 0 27 1;
#X connect 25 0 28 1;
#X connect 26 0 27 0;
#X connect 26 0 59 0;
#X connect 27 0 28 0;
#X connect 27 0 59 0;
#X connect 28 0 59 0;
#X connect 29 0 31 1;
#X connect 30 0 32 1;
#X connect 31 0 32 0;
#X connect 31 0 58 0;
#X connect 32 0 58 0;
#X connect 33 0 35 1;
#X connect 34 0 36 1;
#X connect 35 0 36 0;
#X connect 35 0 57 0;
#X connect 36 0 57 0;
#X connect 37 0 39 1;
#X connect 38 0 40 1;
#X connect 39 0 40 0;
#X connect 39 0 56 0;
#X connect 40 0 56 0;
#X connect 41 0 43 1;
#X connect 42 0 44 1;
#X connect 43 0 44 0;
#X connect 43 0 55 0;
#X connect 44 0 55 0;
#X connect 45 0 47 1;
#X connect 46 0 54 0;
#X connect 47 0 46 0;
#X connect 47 0 54 0;
#X connect 48 0 46 1;
#X connect 49 0 50 1;
#X connect 50 0 53 0;
#X connect 52 0 88 0;
#X connect 60 0 25 0;
#X connect 60 0 29 0;
#X connect 60 0 30 0;
#X connect 60 0 33 0;
#X connect 60 0 34 0;
#X connect 60 0 37 0;
#X connect 60 0 38 0;
#X connect 60 0 41 0;
#X connect 60 0 42 0;
#X connect 60 0 45 0;
#X connect 60 0 48 0;
#X connect 60 0 49 0;
#X connect 61 0 62 0;
#X connect 61 1 63 0;
#X connect 64 0 15 0;
#X connect 65 0 15 1;
#X connect 66 0 67 0;
#X connect 66 1 68 0;
#X connect 69 0 66 0;
#X connect 70 0 71 0;
#X connect 70 1 72 0;
#X connect 73 0 70 0;
#X connect 74 0 75 0;
#X connect 74 1 76 0;
#X connect 77 0 78 0;
#X connect 77 1 79 0;
#X connect 80 0 77 0;
#X connect 81 0 84 0;
#X connect 82 0 83 0;
#X connect 83 0 101 0;
#X connect 84 0 82 0;
#X connect 85 0 112 0;
#X connect 85 1 106 0;
#X connect 87 0 81 1;
#X connect 88 0 81 0;
#X connect 89 0 69 0;
#X connect 89 1 92 0;
#X connect 91 0 90 0;
#X connect 92 0 91 0;
#X connect 93 0 113 0;
#X connect 93 1 108 0;
#X connect 95 0 107 0;
#X connect 95 1 97 0;
#X connect 97 0 98 0;
#X connect 98 0 96 0;
#X connect 99 0 110 0;
#X connect 99 1 104 0;
#X connect 99 1 111 0;
#X connect 102 0 104 1;
#X connect 103 0 69 0;
#X connect 103 0 92 0;
#X connect 103 0 97 0;
#X connect 103 0 81 0;
#X connect 103 0 106 0;
#X connect 103 0 107 0;
#X connect 103 0 108 0;
#X connect 103 0 110 0;
#X connect 103 0 111 0;
#X connect 103 0 112 0;
#X connect 103 0 113 0;
#X connect 104 0 103 0;
#X connect 105 0 83 1;
#X connect 106 0 86 0;
#X connect 107 0 80 0;
#X connect 108 0 109 0;
#X connect 109 0 94 0;
#X connect 110 0 74 0;
#X connect 111 0 100 0;
#X connect 112 0 61 0;
#X connect 113 0 73 0;
