#N canvas 6 116 1338 641 10;
#X obj 34 17 inlet;
#X obj 34 201 clip 1 127;
#X obj 34 248 t f f f f, f 15;
#X obj 107 17 inlet;
#X floatatom 143 96 5 0 0 3 delay - -;
#X floatatom 34 379 5 0 0 0 - - -;
#X floatatom 178 379 5 0 0 0 - - -;
#X floatatom 283 379 5 0 0 0 - - -;
#X floatatom 400 379 5 0 0 0 - - -;
#X obj 175 247 pipe \$1;
#X obj 313 247 pipe \$1;
#X obj 352 195 * 2;
#X obj 107 96 hradio 16 1 0 2 empty empty m/M 0 26 0 10 -262144 -1
-1 0;
#X obj 107 150 sel 0 1;
#X obj 107 39 clip 0 1;
#X obj 34 571 outlet;
#X obj 178 571 outlet;
#X obj 283 571 outlet;
#X obj 400 571 outlet;
#X obj 34 40 t f b;
#X obj 88 96 bng 15 250 50 0 empty empty empty 17 7 0 10 -262144 -228856
-1;
#X obj 34 324 + 0;
#X obj 63 324 + 0;
#X obj 92 324 + 0;
#X obj 121 324 + 0;
#X obj 175 324 + 0;
#X obj 204 324 + 0;
#X obj 233 324 + 0;
#X obj 262 324 + 0;
#X obj 313 324 + 0;
#X obj 342 324 + 0;
#X obj 371 324 + 0;
#X obj 400 324 + 0;
#X obj 234 44 sel 0 1 2 3, f 50;
#X obj 234 115 unpack f f f f, f 51;
#X msg 234 67 -12 0 0 0;
#X msg 308 67 0 -12 0 0;
#X msg 382 67 0 0 -12 0;
#X msg 456 67 0 0 0 -12;
#X msg 531 67 0 0 0 0;
#X obj 594 44 sel 0 1 2 3, f 50;
#X obj 594 115 unpack f f f f, f 51;
#X msg 594 67 -12 0 0 0;
#X msg 668 67 0 -12 0 0;
#X msg 742 67 0 0 -12 0;
#X msg 816 67 0 0 0 -12;
#X msg 891 67 0 0 0 0;
#X obj 954 44 sel 0 1 2 3, f 50;
#X obj 954 115 unpack f f f f, f 51;
#X msg 954 67 -12 0 0 0;
#X msg 1028 67 0 -12 0 0;
#X msg 1102 67 0 0 -12 0;
#X msg 1176 67 0 0 0 -12;
#X msg 1251 67 0 0 0 0;
#X obj 954 21 random 6;
#X obj 34 531 spigot;
#X obj 178 531 spigot;
#X obj 283 531 spigot;
#X obj 400 531 spigot;
#X obj 493 479 unpack f f f f;
#X msg 493 424 1 1 1 1;
#X msg 550 424 1 1 1 0;
#X msg 605 424 1 1 0 0;
#X msg 661 424 1 0 1 0;
#X msg 719 424 0 1 1 0;
#X msg 777 424 0 1 0 1;
#X msg 833 424 1 0 0 1;
#X obj 493 397 sel 0 1 2 3 4 5 6, f 66;
#X obj 175 270 t f f f f b, f 20;
#X obj 313 269 t f f f f b, f 20;
#X msg 886 424 0 0 0 0;
#X obj 34 224 t f f f f, f 71;
#X obj 457 247 pipe \$1;
#X obj 457 324 + 0;
#X obj 486 324 + 0;
#X obj 515 324 + 0;
#X obj 544 324 + 0;
#X obj 457 269 t f f f f b, f 20;
#X obj 496 195 * 3;
#X obj 952 185 sel 0 1 2 3, f 50;
#X obj 952 256 unpack f f f f, f 51;
#X msg 952 208 -12 0 0 0;
#X msg 1026 208 0 -12 0 0;
#X msg 1100 208 0 0 -12 0;
#X msg 1174 208 0 0 0 -12;
#X msg 1249 208 0 0 0 0;
#X obj 952 162 random 6;
#X obj 34 271 + 0;
#X obj 63 271 + 4;
#X obj 92 271 + 7;
#X obj 121 271 + 11;
#X obj 175 293 + 9;
#X obj 204 293 + 12;
#X obj 233 293 + 16;
#X obj 262 293 + 19;
#X obj 313 292 + 2;
#X obj 342 292 + 5;
#X obj 371 292 + 9;
#X obj 400 292 + 12;
#X obj 457 292 + 7;
#X obj 486 292 + 11;
#X obj 515 292 + 14;
#X obj 544 292 + 17;
#X msg 107 174 0 12 5;
#X obj 107 200 unpack f f f, f 35;
#X msg 160 150 14 13 6;
#X obj 234 21 random 5;
#X obj 594 21 random 5;
#X obj 493 374 random 8;
#X connect 0 0 19 0;
#X connect 1 0 71 0;
#X connect 2 0 87 0;
#X connect 2 1 88 0;
#X connect 2 2 89 0;
#X connect 2 3 90 0;
#X connect 3 0 14 0;
#X connect 4 0 9 1;
#X connect 4 0 11 0;
#X connect 4 0 78 0;
#X connect 5 0 55 0;
#X connect 6 0 56 0;
#X connect 7 0 57 0;
#X connect 8 0 58 0;
#X connect 9 0 68 0;
#X connect 10 0 69 0;
#X connect 11 0 10 1;
#X connect 12 0 13 0;
#X connect 13 0 103 0;
#X connect 13 1 105 0;
#X connect 14 0 12 0;
#X connect 19 0 1 0;
#X connect 19 1 20 0;
#X connect 20 0 54 0;
#X connect 20 0 86 0;
#X connect 20 0 106 0;
#X connect 20 0 107 0;
#X connect 20 0 108 0;
#X connect 21 0 5 0;
#X connect 22 0 6 0;
#X connect 23 0 7 0;
#X connect 24 0 8 0;
#X connect 25 0 5 0;
#X connect 26 0 6 0;
#X connect 27 0 7 0;
#X connect 28 0 8 0;
#X connect 29 0 5 0;
#X connect 30 0 6 0;
#X connect 31 0 7 0;
#X connect 32 0 8 0;
#X connect 33 0 35 0;
#X connect 33 1 36 0;
#X connect 33 2 37 0;
#X connect 33 3 38 0;
#X connect 33 4 39 0;
#X connect 34 0 21 1;
#X connect 34 1 22 1;
#X connect 34 2 23 1;
#X connect 34 3 24 1;
#X connect 35 0 34 0;
#X connect 36 0 34 0;
#X connect 37 0 34 0;
#X connect 38 0 34 0;
#X connect 39 0 34 0;
#X connect 40 0 42 0;
#X connect 40 1 43 0;
#X connect 40 2 44 0;
#X connect 40 3 45 0;
#X connect 40 4 46 0;
#X connect 41 0 25 1;
#X connect 41 1 26 1;
#X connect 41 2 27 1;
#X connect 41 3 28 1;
#X connect 42 0 41 0;
#X connect 43 0 41 0;
#X connect 44 0 41 0;
#X connect 45 0 41 0;
#X connect 46 0 41 0;
#X connect 47 0 49 0;
#X connect 47 1 50 0;
#X connect 47 2 51 0;
#X connect 47 3 52 0;
#X connect 47 4 53 0;
#X connect 48 0 29 1;
#X connect 48 1 30 1;
#X connect 48 2 31 1;
#X connect 48 3 32 1;
#X connect 49 0 48 0;
#X connect 50 0 48 0;
#X connect 51 0 48 0;
#X connect 52 0 48 0;
#X connect 53 0 48 0;
#X connect 54 0 47 0;
#X connect 55 0 15 0;
#X connect 56 0 16 0;
#X connect 57 0 17 0;
#X connect 58 0 18 0;
#X connect 59 0 55 1;
#X connect 59 1 56 1;
#X connect 59 2 57 1;
#X connect 59 3 58 1;
#X connect 60 0 59 0;
#X connect 61 0 59 0;
#X connect 62 0 59 0;
#X connect 63 0 59 0;
#X connect 64 0 59 0;
#X connect 65 0 59 0;
#X connect 66 0 59 0;
#X connect 67 0 60 0;
#X connect 67 1 61 0;
#X connect 67 2 62 0;
#X connect 67 3 63 0;
#X connect 67 4 64 0;
#X connect 67 5 65 0;
#X connect 67 6 66 0;
#X connect 67 7 70 0;
#X connect 68 0 91 0;
#X connect 68 1 92 0;
#X connect 68 2 93 0;
#X connect 68 3 94 0;
#X connect 68 4 108 0;
#X connect 69 0 95 0;
#X connect 69 1 96 0;
#X connect 69 2 97 0;
#X connect 69 3 98 0;
#X connect 69 4 108 0;
#X connect 70 0 59 0;
#X connect 71 0 2 0;
#X connect 71 1 9 0;
#X connect 71 2 10 0;
#X connect 71 3 72 0;
#X connect 72 0 77 0;
#X connect 73 0 5 0;
#X connect 74 0 6 0;
#X connect 75 0 7 0;
#X connect 76 0 8 0;
#X connect 77 0 99 0;
#X connect 77 1 100 0;
#X connect 77 2 101 0;
#X connect 77 3 102 0;
#X connect 78 0 72 1;
#X connect 79 0 81 0;
#X connect 79 1 82 0;
#X connect 79 2 83 0;
#X connect 79 3 84 0;
#X connect 79 4 85 0;
#X connect 80 0 73 1;
#X connect 80 1 74 1;
#X connect 80 2 75 1;
#X connect 80 3 76 1;
#X connect 81 0 80 0;
#X connect 82 0 80 0;
#X connect 83 0 80 0;
#X connect 84 0 80 0;
#X connect 85 0 80 0;
#X connect 86 0 79 0;
#X connect 87 0 21 0;
#X connect 88 0 22 0;
#X connect 89 0 23 0;
#X connect 90 0 24 0;
#X connect 91 0 25 0;
#X connect 92 0 26 0;
#X connect 93 0 27 0;
#X connect 94 0 28 0;
#X connect 95 0 29 0;
#X connect 96 0 30 0;
#X connect 97 0 31 0;
#X connect 98 0 32 0;
#X connect 99 0 73 0;
#X connect 100 0 74 0;
#X connect 101 0 75 0;
#X connect 102 0 76 0;
#X connect 103 0 104 0;
#X connect 104 0 87 1;
#X connect 104 1 92 1;
#X connect 104 2 96 1;
#X connect 105 0 104 0;
#X connect 106 0 33 0;
#X connect 107 0 40 0;
#X connect 108 0 67 0;
#X coords 0 -1 1 1 105 65 1 80 70;
