#N canvas 374 216 672 417 10;
#X obj 185 181 i 3;
#X obj 185 204 until;
#X obj 185 227 f 0;
#X obj 210 227 + 1;
#X obj 236 227 % 3;
#X obj 185 273 random 12;
#X obj 185 250 t b f;
#X obj 185 318 array set \$0-seq;
#X obj 269 266 sel 0;
#X obj 185 296 - 6;
#X obj 265 90 array define \$0-seq;
#X obj 268 158 array size \$0-seq;
#X obj 265 66 loadbang;
#X obj 62 158 f 0;
#X obj 87 158 + 1;
#X obj 113 158 % 3;
#X obj 62 181 t f f, f 7;
#X obj 178 142 t f f f f;
#X obj 62 204 array get \$0-seq;
#X obj 101 226 sel 0;
#X obj 101 249 t b b;
#X obj 101 272 random 12;
#X obj 128 297 random;
#X obj 101 297 - 6;
#X obj 101 344 array set \$0-seq;
#X obj 77 99 r sync;
#X msg 77 122 0;
#X obj 62 70 bang;
#X obj 62 390 outlet;
#X obj 62 25 inlet;
#X obj 185 25 inlet;
#X obj 185 68 i \$1;
#X obj 185 91 t b f;
#X connect 0 0 1 0;
#X connect 1 0 2 0;
#X connect 2 0 3 0;
#X connect 2 0 6 0;
#X connect 3 0 4 0;
#X connect 4 0 2 1;
#X connect 5 0 9 0;
#X connect 6 0 5 0;
#X connect 6 1 7 1;
#X connect 6 1 8 0;
#X connect 8 0 1 1;
#X connect 9 0 7 0;
#X connect 12 0 10 0;
#X connect 13 0 14 0;
#X connect 13 0 16 0;
#X connect 14 0 15 0;
#X connect 15 0 13 1;
#X connect 16 0 18 0;
#X connect 16 1 19 0;
#X connect 17 0 15 1;
#X connect 17 0 22 1;
#X connect 17 1 0 1;
#X connect 17 2 4 1;
#X connect 17 3 11 0;
#X connect 18 0 28 0;
#X connect 19 0 20 0;
#X connect 20 0 21 0;
#X connect 20 1 22 0;
#X connect 21 0 23 0;
#X connect 22 0 24 1;
#X connect 23 0 24 0;
#X connect 25 0 26 0;
#X connect 26 0 13 1;
#X connect 26 0 2 1;
#X connect 27 0 13 0;
#X connect 29 0 27 0;
#X connect 30 0 31 0;
#X connect 31 0 32 0;
#X connect 32 0 0 0;
#X connect 32 1 17 0;
