#N canvas 96 233 863 435 10;
#X obj 27 212 *~;
#X obj 42 168 pack 1 100;
#X obj 42 190 line;
#X obj 28 23 inlet~;
#X obj 576 64 vsl 15 50 0 1 0 0 empty empty R 0 -9 0 10 -262144 -1
-1 0 1;
#X obj 96 212 *~;
#X obj 111 168 pack 1 100;
#X obj 111 190 line;
#X obj 594 64 vsl 15 50 0 1 0 0 empty empty L 0 -9 0 10 -262144 -1
-1 0 1;
#X obj 177 212 *~;
#X obj 192 168 pack 1 100;
#X obj 192 190 line;
#X obj 178 23 inlet~;
#X obj 616 64 vsl 15 50 0 1 0 0 empty empty R 0 -9 0 10 -262144 -1
-1 0 1;
#X obj 246 212 *~;
#X obj 261 168 pack 1 100;
#X obj 261 190 line;
#X obj 634 64 vsl 15 50 0 1 0 0 empty empty L 0 -9 0 10 -262144 -1
-1 0 1;
#X obj 327 212 *~;
#X obj 342 168 pack 1 100;
#X obj 342 190 line;
#X obj 328 23 inlet~;
#X obj 657 64 vsl 15 50 0 1 0 0 empty empty R 0 -9 0 10 -262144 -1
-1 0 1;
#X obj 396 212 *~;
#X obj 411 168 pack 1 100;
#X obj 411 190 line;
#X obj 675 64 vsl 15 50 0 1 0 0 empty empty L 0 -9 0 10 -262144 -1
-1 0 1;
#X obj 477 212 *~;
#X obj 492 168 pack 1 100;
#X obj 492 190 line;
#X obj 478 23 inlet~;
#X obj 697 64 vsl 15 50 0 1 0 0 empty empty R 0 -9 0 10 -262144 -1
-1 0 1;
#X obj 546 212 *~;
#X obj 561 168 pack 1 100;
#X obj 561 190 line;
#X obj 715 64 vsl 15 50 0 1 0 0 empty empty L 0 -9 0 10 -262144 -1
-1 0 1;
#X obj 739 172 pack 1 100;
#X obj 739 194 line;
#X obj 739 54 vsl 20 60 0.001 1 1 0 empty empty empty 0 -9 0 10 -228856
-1 -1 0 1;
#X obj 765 35 vu 15 80 empty empty -1 -8 0 10 -66577 -1 0 0;
#X obj 331 365 env~;
#X obj 255 348 dac~;
#X obj 785 35 vu 15 80 empty empty -1 -8 0 10 -66577 -1 0 0;
#X obj 178 331 *~;
#X obj 330 331 *~;
#X obj 331 387 - 100;
#X obj 178 360 env~;
#X obj 178 382 - 100;
#X obj 103 384 outlet~;
#X obj 411 386 outlet~;
#X obj 178 304 *~ 1;
#X obj 331 304 *~ 1;
#X text 573 33 ch1;
#X text 613 33 ch2;
#X text 653 33 ch3;
#X text 693 33 ch4;
#X floatatom 739 33 3 0 4 2 gain - -;
#X connect 0 0 50 0;
#X connect 1 0 2 0;
#X connect 2 0 0 1;
#X connect 3 0 0 0;
#X connect 3 0 5 0;
#X connect 4 0 1 0;
#X connect 5 0 51 0;
#X connect 6 0 7 0;
#X connect 7 0 5 1;
#X connect 8 0 6 0;
#X connect 9 0 50 0;
#X connect 10 0 11 0;
#X connect 11 0 9 1;
#X connect 12 0 9 0;
#X connect 12 0 14 0;
#X connect 13 0 10 0;
#X connect 14 0 51 0;
#X connect 15 0 16 0;
#X connect 16 0 14 1;
#X connect 17 0 15 0;
#X connect 18 0 50 0;
#X connect 19 0 20 0;
#X connect 20 0 18 1;
#X connect 21 0 18 0;
#X connect 21 0 23 0;
#X connect 22 0 19 0;
#X connect 23 0 51 0;
#X connect 24 0 25 0;
#X connect 25 0 23 1;
#X connect 26 0 24 0;
#X connect 27 0 50 0;
#X connect 28 0 29 0;
#X connect 29 0 27 1;
#X connect 30 0 27 0;
#X connect 30 0 32 0;
#X connect 31 0 28 0;
#X connect 32 0 51 0;
#X connect 33 0 34 0;
#X connect 34 0 32 1;
#X connect 35 0 33 0;
#X connect 36 0 37 0;
#X connect 37 0 43 1;
#X connect 37 0 44 1;
#X connect 38 0 36 0;
#X connect 40 0 45 0;
#X connect 43 0 41 0;
#X connect 43 0 46 0;
#X connect 43 0 48 0;
#X connect 44 0 41 1;
#X connect 44 0 40 0;
#X connect 44 0 49 0;
#X connect 45 0 42 0;
#X connect 46 0 47 0;
#X connect 47 0 39 0;
#X connect 50 0 43 0;
#X connect 51 0 44 0;
#X connect 56 0 50 1;
#X connect 56 0 51 1;
#X coords 0 -1 1 1 240 120 1 570 5;
