#N canvas 33 155 1085 575 10;
#X floatatom 329 242 5 0 0 0 - - -;
#X obj 122 343 t f f;
#X obj 122 206 f 0, f 5;
#X obj 732 226 expr abs(($f1 - $f2) / $f3), f 28;
#X obj 122 291 expr if ($f1 == $f2 \, $f1 \, if($f1 < $f2 \, min($f2
\, $f1 + $f3) \, max($f2 \, $f1 - $f3))), f 35;
#X obj 732 190 % 12;
#X obj 814 190 % 12;
#X obj 897 190 % 12;
#X obj 897 166 f 0;
#X obj 814 166 f 0;
#X obj 732 27 inlet;
#X obj 772 27 inlet;
#X obj 812 27 inlet;
#X obj 732 166 f 0;
#X obj 772 111 t b f b, f 21;
#X obj 732 85 t f b b, f 22;
#X obj 812 135 t b b f, f 18;
#X obj 122 37 inlet;
#X obj 122 528 outlet;
#X obj 191 376 expr if ($f1 == $f2 \, $f1 \, if($f1 < $f2 \, min($f2
\, $f1 + $f3) \, max($f2 \, $f1 - $f3))), f 35;
#X obj 191 528 outlet;
#X obj 122 366 % 12;
#X obj 451 377 expr if ($f1 == $f2 \, $f1 \, if($f1 < $f2 \, min($f2
\, $f1 + $f3) \, max($f2 \, $f1 - $f3))), f 35;
#X obj 122 85 t b, f 5;
#X obj 451 528 outlet;
#X obj 711 377 expr if ($f1 == $f2 \, $f1 \, if($f1 < $f2 \, min($f2
\, $f1 + $f3) \, max($f2 \, $f1 - $f3))), f 35;
#X obj 711 528 outlet;
#X obj 451 354 + 7;
#X obj 554 354 + 7;
#X obj 711 354 + 9;
#X obj 814 354 + 9;
#X obj 191 353 + 4;
#X obj 294 353 + 4;
#X obj 191 449 % 12;
#X obj 451 450 % 12;
#X obj 711 450 % 12;
#X connect 0 0 4 2;
#X connect 1 0 21 0;
#X connect 1 1 2 1;
#X connect 2 0 4 0;
#X connect 2 0 29 0;
#X connect 2 0 31 0;
#X connect 2 0 27 0;
#X connect 3 0 0 0;
#X connect 3 0 25 2;
#X connect 3 0 22 2;
#X connect 3 0 19 2;
#X connect 4 0 1 0;
#X connect 5 0 3 0;
#X connect 5 0 2 1;
#X connect 6 0 3 1;
#X connect 6 0 4 1;
#X connect 6 0 30 0;
#X connect 6 0 32 0;
#X connect 6 0 28 0;
#X connect 7 0 3 2;
#X connect 8 0 7 0;
#X connect 9 0 6 0;
#X connect 10 0 15 0;
#X connect 11 0 14 0;
#X connect 12 0 16 0;
#X connect 13 0 5 0;
#X connect 14 0 13 0;
#X connect 14 1 9 0;
#X connect 14 2 8 0;
#X connect 15 0 13 0;
#X connect 15 1 9 0;
#X connect 15 2 8 0;
#X connect 16 0 13 0;
#X connect 16 1 9 0;
#X connect 16 2 8 0;
#X connect 17 0 23 0;
#X connect 19 0 33 0;
#X connect 21 0 18 0;
#X connect 22 0 34 0;
#X connect 23 0 2 0;
#X connect 25 0 35 0;
#X connect 27 0 22 0;
#X connect 28 0 22 1;
#X connect 29 0 25 0;
#X connect 30 0 25 1;
#X connect 31 0 19 0;
#X connect 32 0 19 1;
#X connect 33 0 20 0;
#X connect 34 0 24 0;
#X connect 35 0 26 0;
