#N canvas 547 196 768 530 10;
#X obj 77 108 f 0;
#X obj 103 108 + 1;
#X obj 129 108 % 2;
#X obj 77 154 % 4;
#X obj 77 177 sel 0 1 2 3, f 62;
#X obj 470 99 random 100;
#X msg 470 146 0;
#X obj 565 168 +, f 9;
#X obj 144 83 t f b;
#X floatatom 661 153 5 0 0 0 - - -;
#X floatatom 565 191 5 0 0 0 - - -;
#X obj 77 201 random 100;
#X obj 77 224 moses 40;
#X msg 77 290 0;
#X msg 122 290 2;
#X msg 167 290 4;
#X obj 122 246 moses 60;
#X obj 167 268 moses 80;
#X obj 470 122 moses 50;
#X msg 515 146 7;
#X msg 212 290 -1;
#X floatatom 616 145 5 0 0 0 - - -;
#X obj 616 122 change;
#X floatatom 565 145 5 0 0 0 - - -;
#X obj 565 122 change;
#X obj 103 341 random 100;
#X obj 103 364 moses 40;
#X msg 103 430 0;
#X msg 148 430 2;
#X obj 148 386 moses 60;
#X obj 193 408 moses 80;
#X obj 261 201 random 100;
#X obj 261 224 moses 40;
#X msg 306 290 2;
#X obj 306 246 moses 60;
#X obj 351 268 moses 80;
#X obj 287 341 random 100;
#X obj 287 364 moses 40;
#X msg 287 430 0;
#X msg 332 430 2;
#X msg 377 430 4;
#X obj 332 386 moses 60;
#X obj 377 408 moses 80;
#X msg 422 430 -1;
#X msg 193 430 -2;
#X msg 238 430 -4;
#X msg 351 290 3;
#X msg 396 290 -3;
#X msg 261 290 -2;
#X obj 77 131 t f f, f 12;
#X obj 565 213 expr if($f1>24||$f1<-12 \, 0 \, $f1);
#X obj 77 32 inlet;
#X obj 565 377 outlet;
#X obj 144 32 inlet;
#X obj 288 131 f;
#X msg 288 154 seed \$1;
#X obj 146 155 sel 0;
#X obj 303 32 inlet;
#X obj 614 329 f;
#X obj 614 352 change;
#X obj 614 376 outlet;
#X obj 565 236 t f f f, f 22;
#X obj 77 313 s \$0-i;
#X obj 122 313 s \$0-i;
#X obj 167 313 s \$0-i;
#X obj 212 313 s \$0-i;
#X obj 261 313 s \$0-i;
#X obj 306 313 s \$0-i;
#X obj 351 313 s \$0-i;
#X obj 396 313 s \$0-i;
#X obj 470 169 s \$0-s;
#X obj 515 169 s \$0-s;
#X obj 694 260 s \$0-n;
#X obj 565 100 r \$0-i;
#X obj 616 100 r \$0-n;
#X obj 661 99 r \$0-s;
#X obj 103 453 s \$0-i;
#X obj 148 453 s \$0-i;
#X obj 193 453 s \$0-i;
#X obj 238 453 s \$0-i;
#X obj 287 453 s \$0-i;
#X obj 332 453 s \$0-i;
#X obj 377 453 s \$0-i;
#X obj 422 453 s \$0-i;
#X connect 0 0 1 0;
#X connect 0 0 49 0;
#X connect 1 0 2 0;
#X connect 2 0 0 1;
#X connect 3 0 4 0;
#X connect 4 0 11 0;
#X connect 4 1 25 0;
#X connect 4 2 31 0;
#X connect 4 3 36 0;
#X connect 5 0 18 0;
#X connect 6 0 70 0;
#X connect 7 0 10 0;
#X connect 8 0 2 1;
#X connect 8 1 5 0;
#X connect 9 0 7 1;
#X connect 10 0 50 0;
#X connect 11 0 12 0;
#X connect 12 0 13 0;
#X connect 12 1 16 0;
#X connect 13 0 62 0;
#X connect 14 0 63 0;
#X connect 15 0 64 0;
#X connect 16 0 14 0;
#X connect 16 1 17 0;
#X connect 17 0 15 0;
#X connect 17 1 20 0;
#X connect 18 0 6 0;
#X connect 18 1 19 0;
#X connect 19 0 71 0;
#X connect 20 0 65 0;
#X connect 21 0 7 1;
#X connect 22 0 21 0;
#X connect 23 0 7 0;
#X connect 24 0 23 0;
#X connect 25 0 26 0;
#X connect 26 0 27 0;
#X connect 26 1 29 0;
#X connect 27 0 76 0;
#X connect 28 0 77 0;
#X connect 29 0 28 0;
#X connect 29 1 30 0;
#X connect 30 0 44 0;
#X connect 30 1 45 0;
#X connect 31 0 32 0;
#X connect 32 0 48 0;
#X connect 32 1 34 0;
#X connect 33 0 67 0;
#X connect 34 0 33 0;
#X connect 34 1 35 0;
#X connect 35 0 46 0;
#X connect 35 1 47 0;
#X connect 36 0 37 0;
#X connect 37 0 38 0;
#X connect 37 1 41 0;
#X connect 38 0 80 0;
#X connect 39 0 81 0;
#X connect 40 0 82 0;
#X connect 41 0 39 0;
#X connect 41 1 42 0;
#X connect 42 0 40 0;
#X connect 42 1 43 0;
#X connect 43 0 83 0;
#X connect 44 0 78 0;
#X connect 45 0 79 0;
#X connect 46 0 68 0;
#X connect 47 0 69 0;
#X connect 48 0 66 0;
#X connect 49 0 3 0;
#X connect 49 1 56 0;
#X connect 50 0 61 0;
#X connect 51 0 0 0;
#X connect 53 0 8 0;
#X connect 54 0 55 0;
#X connect 55 0 11 0;
#X connect 55 0 25 0;
#X connect 55 0 31 0;
#X connect 55 0 36 0;
#X connect 56 0 54 0;
#X connect 56 0 58 0;
#X connect 57 0 54 1;
#X connect 58 0 59 0;
#X connect 59 0 60 0;
#X connect 61 0 52 0;
#X connect 61 1 58 1;
#X connect 61 2 72 0;
#X connect 73 0 24 0;
#X connect 74 0 22 0;
#X connect 75 0 9 0;
