#N canvas 462 116 781 644 10;
#X obj 69 136 tgl 15 0 empty empty 0 4 24 0 8 -262144 -1 -1 0 1;
#X obj 36 191 spigot;
#X obj 69 17 inlet;
#X obj 69 113 bng 15 250 50 0 empty empty trg 17 7 0 10 -262144 -1
-1;
#X obj 87 136 tgl 15 0 empty empty +1 4 24 0 8 -262144 -1 -1 0 1;
#X obj 54 213 spigot;
#X obj 105 136 tgl 15 0 empty empty +2 4 24 0 8 -262144 -1 -1 0 1;
#X obj 72 236 spigot;
#X obj 123 136 tgl 15 0 empty empty +3 0 24 0 8 -262144 -1 -1 0 1;
#X obj 90 258 spigot;
#X obj 141 136 tgl 15 0 empty empty +4 0 24 0 8 -262144 -1 -1 0 1;
#X obj 108 191 spigot;
#X obj 159 136 tgl 15 0 empty empty +5 4 24 0 8 -262144 -1 -1 0 1;
#X obj 126 213 spigot;
#X obj 177 136 tgl 15 0 empty empty +6 4 24 0 8 -262144 -1 -1 0 1;
#X obj 144 236 spigot;
#X floatatom 268 113 5 0 0 0 seed - -;
#X msg 112 290 seed \$1;
#X floatatom 123 113 5 0 0 1 tone - -;
#X obj 54 427 f;
#X obj 54 451 + 0, f 6;
#X msg 96 372 0;
#X msg 125 372 1;
#X msg 154 372 2;
#X msg 183 372 3;
#X msg 212 372 4;
#X msg 243 372 5;
#X msg 273 372 6;
#X msg 301 372 7;
#X msg 330 372 8;
#X msg 359 372 9;
#X msg 388 372 10;
#X msg 419 372 11;
#X msg 449 372 12;
#X obj 195 136 tgl 15 0 empty empty +7 4 24 0 8 -262144 -1 -1 0 1;
#X obj 162 191 spigot;
#X obj 213 136 tgl 15 0 empty empty +8 4 24 0 8 -262144 -1 -1 0 1;
#X obj 180 213 spigot;
#X obj 231 136 tgl 15 0 empty empty +9 4 24 0 8 -262144 -1 -1 0 1;
#X obj 198 236 spigot;
#X obj 249 136 tgl 15 0 empty empty +10 0 24 0 8 -262144 -1 -1 0 1
;
#X obj 216 191 spigot;
#X obj 267 136 tgl 15 0 empty empty +11 4 24 0 8 -262144 -1 -1 0 1
;
#X obj 234 213 spigot;
#X obj 285 136 tgl 15 0 empty empty +12 4 24 0 8 -262144 -1 -1 0 1
;
#X obj 252 236 spigot;
#X obj 96 337 sel 0 1 2 3 4 5 6 7 8 9 10 11 12, f 59;
#X obj 96 314 random 13;
#X obj 123 511 +;
#X obj 138 406 random 3;
#X obj 138 429 sel 0 1 2, f 15;
#X msg 138 452 -12;
#X msg 167 452 0;
#X msg 196 452 12;
#X obj 69 47 t b b b;
#X obj 123 555 outlet;
#X obj 123 17 inlet;
#X obj 268 17 inlet;
#X connect 0 0 1 1;
#X connect 1 0 20 1;
#X connect 2 0 54 0;
#X connect 3 0 19 0;
#X connect 4 0 5 1;
#X connect 5 0 20 1;
#X connect 6 0 7 1;
#X connect 7 0 20 1;
#X connect 8 0 9 1;
#X connect 9 0 20 1;
#X connect 10 0 11 1;
#X connect 11 0 20 1;
#X connect 12 0 13 1;
#X connect 13 0 20 1;
#X connect 14 0 15 1;
#X connect 15 0 20 1;
#X connect 16 0 17 0;
#X connect 17 0 47 0;
#X connect 18 0 19 1;
#X connect 19 0 20 0;
#X connect 20 0 48 0;
#X connect 21 0 1 0;
#X connect 22 0 5 0;
#X connect 23 0 7 0;
#X connect 24 0 9 0;
#X connect 25 0 11 0;
#X connect 26 0 13 0;
#X connect 27 0 15 0;
#X connect 28 0 35 0;
#X connect 29 0 37 0;
#X connect 30 0 39 0;
#X connect 31 0 41 0;
#X connect 32 0 43 0;
#X connect 33 0 45 0;
#X connect 34 0 35 1;
#X connect 35 0 20 1;
#X connect 36 0 37 1;
#X connect 37 0 20 1;
#X connect 38 0 39 1;
#X connect 39 0 20 1;
#X connect 40 0 41 1;
#X connect 41 0 20 1;
#X connect 42 0 43 1;
#X connect 43 0 20 1;
#X connect 44 0 45 1;
#X connect 45 0 20 1;
#X connect 46 0 21 0;
#X connect 46 1 22 0;
#X connect 46 2 23 0;
#X connect 46 3 24 0;
#X connect 46 4 25 0;
#X connect 46 5 26 0;
#X connect 46 6 27 0;
#X connect 46 7 28 0;
#X connect 46 8 29 0;
#X connect 46 9 30 0;
#X connect 46 10 31 0;
#X connect 46 11 32 0;
#X connect 46 12 33 0;
#X connect 47 0 46 0;
#X connect 48 0 55 0;
#X connect 49 0 50 0;
#X connect 50 0 51 0;
#X connect 50 1 52 0;
#X connect 50 2 53 0;
#X connect 51 0 48 1;
#X connect 52 0 48 1;
#X connect 53 0 48 1;
#X connect 54 0 3 0;
#X connect 54 1 47 0;
#X connect 54 2 49 0;
#X connect 56 0 18 0;
#X connect 57 0 16 0;
#X coords 0 -1 1 1 250 85 1 60 85;
