#N canvas 587 180 610 551 10;
#X obj 61 33 inlet;
#X obj 61 143 f 0;
#X obj 113 143 % 2;
#X obj 128 73 random 10;
#X obj 128 33 loadbang;
#X obj 76 73 r sync;
#X msg 76 96 0;
#X obj 100 189 sel 0;
#X obj 145 173 - 1;
#X obj 128 96 + 1;
#X obj 128 119 t f f f f;
#X obj 87 143 + 1;
#X obj 61 166 t f f f;
#X floatatom 179 275 5 0 0 0 - - -;
#X obj 61 290 spigot;
#X obj 80 268 spigot;
#X obj 179 302 == 0;
#X obj 61 359 outlet;
#X floatatom 179 325 5 0 0 0 - - -;
#X obj 61 219 + 0;
#X obj 80 245 expr $f2-$f1, f 14;
#X obj 179 143 > 6;
#X connect 0 0 1 0;
#X connect 1 0 11 0;
#X connect 1 0 12 0;
#X connect 2 0 1 1;
#X connect 3 0 9 0;
#X connect 4 0 3 0;
#X connect 5 0 6 0;
#X connect 6 0 1 1;
#X connect 7 0 3 0;
#X connect 8 0 7 1;
#X connect 9 0 10 0;
#X connect 10 0 2 1;
#X connect 10 1 8 0;
#X connect 10 2 19 1;
#X connect 10 2 20 1;
#X connect 10 3 21 0;
#X connect 11 0 2 0;
#X connect 12 0 19 0;
#X connect 12 1 20 0;
#X connect 12 2 7 0;
#X connect 13 0 14 1;
#X connect 13 0 16 0;
#X connect 14 0 17 0;
#X connect 15 0 17 0;
#X connect 16 0 18 0;
#X connect 18 0 15 1;
#X connect 19 0 14 0;
#X connect 20 0 15 0;
#X connect 21 0 13 0;
