#N canvas 532 172 450 559 10;
#X obj 69 136 tgl 15 0 empty empty 4 4 24 0 10 -262144 -1 -1 0 1;
#X obj 36 191 spigot;
#X obj 69 24 inlet;
#X obj 69 47 t b b;
#X obj 69 93 bng 15 250 50 0 empty empty trg 17 7 0 10 -262144 -1 -1
;
#X obj 87 136 tgl 15 0 empty empty 2 4 24 0 10 -262144 -1 -1 0 1;
#X obj 54 213 spigot;
#X obj 105 136 tgl 15 0 empty empty 1 4 24 0 10 -262144 -1 -1 0 1;
#X obj 72 236 spigot;
#X obj 123 136 tgl 15 0 empty empty /8 0 24 0 8 -262144 -1 -1 0 1;
#X obj 90 258 spigot;
#X obj 141 136 tgl 15 0 empty empty /16 0 24 0 8 -262144 -1 -1 0 1
;
#X obj 108 191 spigot;
#X obj 159 136 tgl 15 0 empty empty /32 4 24 0 8 -262144 -1 -1 0 1
;
#X obj 126 213 spigot;
#X obj 177 136 tgl 15 0 empty empty /64 4 24 0 8 -262144 -1 -1 0 1
;
#X obj 144 236 spigot;
#X floatatom 160 113 5 0 0 0 seed - -;
#X msg 112 290 seed \$1;
#X floatatom 69 113 5 0 0 1 ms - -;
#X obj 96 314 random 7;
#X obj 96 337 sel 0 1 2 3 4 5 6;
#X obj 54 427 f;
#X obj 54 451 * 1, f 6;
#X msg 96 372 4;
#X msg 125 372 2;
#X msg 154 372 1;
#X msg 183 372 0.5;
#X msg 212 372 0.25;
#X msg 247 372 0.125;
#X msg 288 372 0.625;
#X floatatom 54 474 5 0 0 0 - - -;
#X obj 54 515 outlet;
#X connect 0 0 1 1;
#X connect 1 0 23 1;
#X connect 2 0 3 0;
#X connect 3 0 4 0;
#X connect 3 1 20 0;
#X connect 4 0 22 0;
#X connect 5 0 6 1;
#X connect 6 0 23 1;
#X connect 7 0 8 1;
#X connect 8 0 23 1;
#X connect 9 0 10 1;
#X connect 10 0 23 1;
#X connect 11 0 12 1;
#X connect 12 0 23 1;
#X connect 13 0 14 1;
#X connect 14 0 23 1;
#X connect 15 0 16 1;
#X connect 16 0 23 1;
#X connect 17 0 18 0;
#X connect 18 0 20 0;
#X connect 19 0 22 1;
#X connect 20 0 21 0;
#X connect 21 0 24 0;
#X connect 21 1 25 0;
#X connect 21 2 26 0;
#X connect 21 3 27 0;
#X connect 21 4 28 0;
#X connect 21 5 29 0;
#X connect 21 6 30 0;
#X connect 22 0 23 0;
#X connect 23 0 31 0;
#X connect 24 0 1 0;
#X connect 25 0 6 0;
#X connect 26 0 8 0;
#X connect 27 0 10 0;
#X connect 28 0 12 0;
#X connect 29 0 14 0;
#X connect 30 0 16 0;
#X connect 31 0 32 0;
#X coords 0 -1 1 1 140 100 1 60 70;
