#N canvas 398 116 853 621 10;
#X obj 192 450 list store, f 14;
#X msg 192 427 get \$1 4;
#X obj 192 473 unpack 0 0 0 0, f 24;
#X floatatom 192 496 5 0 0 0 - - -;
#X floatatom 239 496 5 0 0 0 - - -;
#X floatatom 286 496 5 0 0 0 - - -;
#X floatatom 333 496 5 0 0 0 - - -;
#X msg 475 434 0 4 7 11 2 5 9 12 16 19 23;
#X obj 192 348 random 7;
#X obj 192 555 + 60;
#X obj 239 555 + 60;
#X obj 286 555 + 60;
#X obj 333 555 + 60;
#X obj 192 578 outlet;
#X obj 239 578 outlet;
#X obj 286 578 outlet;
#X obj 333 578 outlet;
#X obj 192 16 inlet;
#X obj 192 214 t b b;
#X obj 357 230 i \$1;
#X obj 403 16 inlet;
#X obj 475 92 hradio 16 1 0 3 empty empty M/ma/mm 0 -8 0 10 -262144
-1 -1 0;
#X obj 475 401 sel 0 1 2;
#X obj 417 401 loadbang;
#X msg 492 462 0 3 7 10 2 5 9 12 15 19 22;
#X msg 509 492 0 3 7 11 2 5 9 12 15 19 23;
#X floatatom 403 92 5 30 88 2 off - -;
#X obj 219 240 f 0;
#X obj 245 240 + 1;
#X obj 271 240 % 4;
#X obj 219 263 sel 0;
#X obj 219 286 f 0;
#X msg 219 309 seed \$1;
#X obj 527 92 nbx 5 16 0 1e+37 0 0 empty empty seed 0 -8 0 10 -228856
-1 -1 50 256;
#X obj 192 61 f 0;
#X obj 218 61 + 1;
#X obj 192 107 div 1;
#X floatatom 331 92 5 1 16 2 div - -;
#X floatatom 367 92 5 1 8 2 seq - -;
#X obj 192 130 change -1;
#X obj 192 84 t f b, f 14;
#X obj 273 130 random 100;
#X obj 273 153 moses 50;
#X floatatom 439 92 5 0 100 2 %pr - -;
#X obj 104 426 list store;
#X msg 104 348 get \$1 1;
#X obj 104 169 bang;
#X obj 104 555 + 60;
#X obj 104 578 outlet;
#X obj 161 400 list store, f 14;
#X msg 161 377 get \$1 6;
#X obj 104 325 random 6;
#X obj 308 93 bng 16 250 50 0 empty empty empty 17 7 0 10 -262144 -228856
-1;
#X obj 527 16 inlet;
#X obj 630 16 inlet;
#X connect 0 0 2 0;
#X connect 1 0 0 0;
#X connect 2 0 3 0;
#X connect 2 1 4 0;
#X connect 2 2 5 0;
#X connect 2 3 6 0;
#X connect 3 0 9 0;
#X connect 4 0 10 0;
#X connect 5 0 11 0;
#X connect 6 0 12 0;
#X connect 7 0 0 1;
#X connect 7 0 49 1;
#X connect 8 0 1 0;
#X connect 8 0 50 0;
#X connect 9 0 13 0;
#X connect 10 0 14 0;
#X connect 11 0 15 0;
#X connect 12 0 16 0;
#X connect 17 0 34 0;
#X connect 18 0 8 0;
#X connect 18 1 19 0;
#X connect 18 1 27 0;
#X connect 19 0 9 1;
#X connect 19 0 12 1;
#X connect 19 0 11 1;
#X connect 19 0 10 1;
#X connect 19 0 47 1;
#X connect 20 0 26 0;
#X connect 21 0 22 0;
#X connect 22 0 7 0;
#X connect 22 1 24 0;
#X connect 22 2 25 0;
#X connect 23 0 7 0;
#X connect 24 0 0 1;
#X connect 24 0 49 1;
#X connect 25 0 0 1;
#X connect 25 0 49 1;
#X connect 26 0 19 1;
#X connect 27 0 28 0;
#X connect 27 0 30 0;
#X connect 28 0 29 0;
#X connect 29 0 27 1;
#X connect 30 0 31 0;
#X connect 31 0 32 0;
#X connect 32 0 8 0;
#X connect 32 0 41 0;
#X connect 32 0 51 0;
#X connect 33 0 31 1;
#X connect 34 0 35 0;
#X connect 34 0 40 0;
#X connect 35 0 34 1;
#X connect 36 0 39 0;
#X connect 37 0 36 1;
#X connect 38 0 29 1;
#X connect 39 0 18 0;
#X connect 40 0 36 0;
#X connect 40 1 41 0;
#X connect 41 0 42 0;
#X connect 42 0 46 0;
#X connect 42 0 52 0;
#X connect 43 0 42 1;
#X connect 44 0 47 0;
#X connect 45 0 44 0;
#X connect 46 0 51 0;
#X connect 47 0 48 0;
#X connect 49 0 44 1;
#X connect 50 0 49 0;
#X connect 51 0 45 0;
#X connect 53 0 33 0;
#X connect 54 0 49 1;
#X connect 54 0 0 1;
#X coords 0 -1 1 1 290 70 1 300 50;
