#N canvas 562 152 524 495 10;
#X obj 67 35 inlet;
#X obj 94 100 f 0;
#X obj 121 100 + 1;
#X obj 94 123 sel 0, f 10;
#X obj 67 76 t b b;
#X obj 67 192 spigot, f 10;
#X obj 121 169 f 0;
#X obj 148 169 + 1;
#X obj 175 169 % 2;
#X obj 67 218 f 0;
#X obj 94 146 t b b;
#X obj 67 276 + 0;
#X obj 94 229 random 3;
#X obj 94 260 *;
#X obj 151 197 random 2;
#X obj 151 219 sel 0;
#X msg 151 244 1;
#X msg 178 266 -1;
#X obj 151 146 bang;
#X obj 67 299 t f f;
#X obj 67 368 outlet;
#X obj 203 35 inlet;
#X msg 203 76 seed \$1;
#X obj 109 35 r sync;
#X msg 109 76 0;
#X obj 258 35 loadbang;
#X obj 278 61 f \$1;
#X obj 148 100 % 3;
#X obj 258 213 clip 2 8;
#X obj 258 190 f \$2;
#X obj 82 324 % 12;
#X obj 238 285 f \$3;
#X obj 238 308 clip 6 24;
#X obj 278 84 clip 2 20;
#X connect 0 0 4 0;
#X connect 1 0 2 0;
#X connect 1 0 3 0;
#X connect 2 0 27 0;
#X connect 3 0 10 0;
#X connect 3 1 18 0;
#X connect 4 0 5 0;
#X connect 4 1 1 0;
#X connect 5 0 9 0;
#X connect 6 0 7 0;
#X connect 6 0 5 1;
#X connect 7 0 8 0;
#X connect 8 0 6 1;
#X connect 9 0 11 0;
#X connect 10 0 12 0;
#X connect 10 1 6 0;
#X connect 11 0 19 0;
#X connect 12 0 13 0;
#X connect 13 0 11 1;
#X connect 14 0 15 0;
#X connect 15 0 16 0;
#X connect 15 1 17 0;
#X connect 16 0 13 1;
#X connect 17 0 13 1;
#X connect 18 0 14 0;
#X connect 19 0 20 0;
#X connect 19 1 30 0;
#X connect 21 0 22 0;
#X connect 22 0 12 0;
#X connect 22 0 14 0;
#X connect 23 0 24 0;
#X connect 24 0 1 1;
#X connect 24 0 6 1;
#X connect 25 0 26 0;
#X connect 25 0 29 0;
#X connect 25 0 31 0;
#X connect 26 0 33 0;
#X connect 27 0 1 1;
#X connect 28 0 12 1;
#X connect 29 0 28 0;
#X connect 30 0 9 1;
#X connect 31 0 32 0;
#X connect 32 0 30 1;
#X connect 33 0 27 1;
