#N canvas 130 293 912 429 10;
#X obj 38 71 bng 15 250 50 0 empty empty empty 17 7 0 10 -262144 -1
-1;
#X obj 38 195 random 2;
#X obj 38 218 * 1;
#X obj 38 241 + 0;
#X obj 38 264 % 88;
#X floatatom 38 287 5 0 0 0 - - -;
#X obj 39 95 nbx 2 14 1 12 0 0 empty empty empty 0 -8 0 10 -262144
-1 -1 1 256;
#X obj 39 112 nbx 2 14 1 12 0 0 empty empty empty 0 -8 0 10 -262144
-1 -1 1 256;
#X obj 39 129 nbx 2 14 20 80 0 0 empty empty empty 0 -8 0 10 -262144
-1 -1 20 256;
#X obj 38 10 inlet;
#X obj 38 376 outlet;
#X obj 70 71 bng 15 250 50 0 empty empty empty 17 7 0 10 -228856 -1
-1;
#X obj 108 195 random 2;
#X obj 108 218 * 1;
#X obj 108 241 + 0;
#X obj 108 264 % 88;
#X floatatom 108 287 5 0 0 0 - - -;
#X obj 71 95 nbx 2 14 1 12 0 0 empty empty empty 0 -8 0 10 -228856
-1 -1 1 256;
#X obj 71 112 nbx 2 14 1 12 0 0 empty empty empty 0 -8 0 10 -228856
-1 -1 1 256;
#X obj 71 129 nbx 2 14 20 80 0 0 empty empty empty 0 -8 0 10 -228856
-1 -1 20 256;
#X obj 108 10 inlet;
#X obj 108 376 outlet;
#X obj 102 71 bng 15 250 50 0 empty empty empty 17 7 0 10 -191407 -1
-1;
#X obj 168 195 random 2;
#X obj 168 218 * 1;
#X obj 168 241 + 0;
#X obj 168 264 % 88;
#X floatatom 168 287 5 0 0 0 - - -;
#X obj 103 95 nbx 2 14 1 12 0 0 empty empty empty 0 -8 0 10 -191407
-1 -1 1 256;
#X obj 103 112 nbx 2 14 1 12 0 0 empty empty empty 0 -8 0 10 -191407
-1 -1 1 256;
#X obj 103 129 nbx 2 14 20 80 0 0 empty empty empty 0 -8 0 10 -191407
-1 -1 20 256;
#X obj 168 10 inlet;
#X obj 168 376 outlet;
#X obj 134 71 bng 15 250 50 0 empty empty empty 17 7 0 10 -162280 -262144
-1;
#X obj 238 195 random 2;
#X obj 238 218 * 1;
#X obj 238 241 + 0;
#X obj 238 264 % 88;
#X floatatom 238 287 5 0 0 0 - - -;
#X obj 135 95 nbx 2 14 1 12 0 0 empty empty empty 0 -8 0 10 -162280
-262144 -1 1 256;
#X obj 135 112 nbx 2 14 1 12 0 0 empty empty empty 0 -8 0 10 -162280
-262144 -1 1 256;
#X obj 135 129 nbx 2 14 20 80 0 0 empty empty empty 0 -8 0 10 -162280
-262144 -1 20 256;
#X obj 238 10 inlet;
#X obj 238 376 outlet;
#X obj 166 71 bng 15 250 50 0 empty empty empty 17 7 0 10 -128992 -262144
-1;
#X obj 298 195 random 2;
#X obj 298 218 * 1;
#X obj 298 241 + 0;
#X obj 298 264 % 88;
#X floatatom 298 287 5 0 0 0 - - -;
#X obj 167 95 nbx 2 14 1 12 0 0 empty empty empty 0 -8 0 10 -128992
-262144 -1 1 256;
#X obj 167 112 nbx 2 14 1 12 0 0 empty empty empty 0 -8 0 10 -128992
-262144 -1 1 256;
#X obj 167 129 nbx 2 14 20 80 0 0 empty empty empty 0 -8 0 10 -128992
-262144 -1 20 256;
#X obj 298 10 inlet;
#X obj 298 376 outlet;
#X obj 198 71 bng 15 250 50 0 empty empty empty 17 7 0 10 -99865 -262144
-1;
#X obj 368 195 random 2;
#X obj 368 218 * 1;
#X obj 368 241 + 0;
#X obj 368 264 % 88;
#X floatatom 368 287 5 0 0 0 - - -;
#X obj 199 95 nbx 2 14 1 12 0 0 empty empty num 30 7 0 10 -99865 -262144
-1 1 256;
#X obj 199 112 nbx 2 14 1 12 0 0 empty empty int 30 7 0 10 -99865 -262144
-1 1 256;
#X obj 199 129 nbx 2 14 20 80 0 0 empty empty off 30 7 0 10 -99865
-262144 -1 20 256;
#X obj 368 10 inlet;
#X obj 368 376 outlet;
#X connect 0 0 1 0;
#X connect 1 0 2 0;
#X connect 2 0 3 0;
#X connect 3 0 4 0;
#X connect 4 0 5 0;
#X connect 5 0 10 0;
#X connect 6 0 1 1;
#X connect 7 0 2 1;
#X connect 8 0 3 1;
#X connect 9 0 0 0;
#X connect 11 0 12 0;
#X connect 12 0 13 0;
#X connect 13 0 14 0;
#X connect 14 0 15 0;
#X connect 15 0 16 0;
#X connect 16 0 21 0;
#X connect 17 0 12 1;
#X connect 18 0 13 1;
#X connect 19 0 14 1;
#X connect 20 0 11 0;
#X connect 22 0 23 0;
#X connect 23 0 24 0;
#X connect 24 0 25 0;
#X connect 25 0 26 0;
#X connect 26 0 27 0;
#X connect 27 0 32 0;
#X connect 28 0 23 1;
#X connect 29 0 24 1;
#X connect 30 0 25 1;
#X connect 31 0 22 0;
#X connect 33 0 34 0;
#X connect 34 0 35 0;
#X connect 35 0 36 0;
#X connect 36 0 37 0;
#X connect 37 0 38 0;
#X connect 38 0 43 0;
#X connect 39 0 34 1;
#X connect 40 0 35 1;
#X connect 41 0 36 1;
#X connect 42 0 33 0;
#X connect 44 0 45 0;
#X connect 45 0 46 0;
#X connect 46 0 47 0;
#X connect 47 0 48 0;
#X connect 48 0 49 0;
#X connect 49 0 54 0;
#X connect 50 0 45 1;
#X connect 51 0 46 1;
#X connect 52 0 47 1;
#X connect 53 0 44 0;
#X connect 55 0 56 0;
#X connect 56 0 57 0;
#X connect 57 0 58 0;
#X connect 58 0 59 0;
#X connect 59 0 60 0;
#X connect 60 0 65 0;
#X connect 61 0 56 1;
#X connect 62 0 57 1;
#X connect 63 0 58 1;
#X connect 64 0 55 0;
#X coords 0 -1 1 1 225 115 1 30 40;
