#N canvas 0 116 1366 652 10;
#X obj 74 36 inlet;
#X obj 74 62 t b b b b b b b b b b, f 178;
#X obj 74 223 bng 15 250 50 0 empty empty empty 17 7 0 10 -262144 -1
-1;
#X obj 145 246 vsl 15 60 0 23 0 0 empty empty empty 0 -9 0 10 -228856
-262144 -1 4200 1;
#X floatatom 145 223 2 0 0 0 - - -;
#X obj 130 399 i;
#X obj 128 87 f;
#X obj 154 87 + 1;
#X obj 154 110 % 1;
#X obj 128 134 sel 0;
#X obj 130 422 + 0;
#X obj 130 445 mtof;
#X obj 128 376 t b b;
#X msg 162 422 1 5 \, 0.75 10 5 \, 0 \$1 15;
#X obj 162 399 f 100;
#X obj 162 445 vline~;
#X obj 162 476 pow~ 2;
#X obj 130 468 osc~;
#X obj 130 491 *~;
#X floatatom 74 244 2 20 90 1 offset - -;
#X floatatom 74 264 4 50 5000 1 dec - -;
#X floatatom 74 284 3 1 10 1 reso - -;
#X floatatom 145 313 2 0 0 0 - - -;
#X obj 164 246 vsl 15 60 0 23 0 0 empty empty empty 0 -9 0 10 -191407
-262144 -1 3100 1;
#X floatatom 164 223 2 0 0 0 - - -;
#X obj 312 399 i;
#X obj 310 87 f;
#X obj 336 87 + 1;
#X obj 336 110 % 1;
#X obj 310 134 sel 0;
#X obj 312 422 + 0;
#X obj 312 445 mtof;
#X obj 310 376 t b b;
#X msg 344 422 1 5 \, 0.75 10 5 \, 0 \$1 15;
#X obj 344 399 f 100;
#X obj 344 445 vline~;
#X obj 344 476 pow~ 2;
#X obj 312 468 osc~;
#X obj 312 491 *~;
#X floatatom 164 313 2 0 0 0 - - -;
#X obj 183 246 vsl 15 60 0 23 0 0 empty empty empty 0 -9 0 10 -162280
-262144 -1 1900 1;
#X floatatom 183 223 2 0 0 0 - - -;
#X obj 431 374 i;
#X obj 429 87 f;
#X obj 455 87 + 1;
#X obj 455 110 % 1;
#X obj 429 134 sel 0;
#X obj 431 397 + 0;
#X obj 431 444 mtof;
#X obj 429 351 t b b;
#X msg 463 397 1 5 \, 0.75 10 5 \, 0 \$1 15;
#X obj 463 374 f 100;
#X obj 463 444 vline~;
#X obj 463 475 pow~ 2;
#X obj 431 467 osc~;
#X obj 431 490 *~;
#X floatatom 183 313 2 0 0 0 - - -;
#X obj 202 246 vsl 15 60 0 23 0 0 empty empty empty 0 -9 0 10 -99865
-262144 -1 600 1;
#X floatatom 202 223 2 0 0 0 - - -;
#X obj 549 429 i;
#X obj 547 87 f;
#X obj 573 87 + 1;
#X obj 573 110 % 1;
#X obj 547 134 sel 0;
#X obj 549 452 + 0;
#X obj 549 475 mtof;
#X obj 547 366 t b b;
#X msg 581 452 1 5 \, 0.75 10 5 \, 0 \$1 15;
#X obj 581 429 f 100;
#X obj 581 475 vline~;
#X obj 581 506 pow~ 2;
#X obj 549 498 osc~;
#X obj 549 521 *~;
#X floatatom 202 313 2 0 0 0 - - -;
#X obj 221 246 vsl 15 60 0 23 0 0 empty empty empty 0 -9 0 10 -33289
-262144 -1 0 1;
#X floatatom 221 223 2 0 0 0 - - -;
#X obj 667 399 i;
#X obj 665 87 f;
#X obj 691 87 + 1;
#X obj 691 110 % 1;
#X obj 665 134 sel 0;
#X obj 667 422 + 0;
#X obj 667 475 mtof;
#X obj 665 336 t b b;
#X msg 699 422 1 5 \, 0.75 10 5 \, 0 \$1 15;
#X obj 699 399 f 100;
#X obj 699 475 vline~;
#X obj 699 506 pow~ 2;
#X obj 667 498 osc~;
#X obj 667 521 *~;
#X floatatom 221 313 2 0 0 0 - - -;
#X obj 240 246 vsl 15 60 0 23 0 0 empty empty empty 0 -9 0 10 -99865
-262144 -1 1200 1;
#X floatatom 240 223 2 0 0 0 - - -;
#X obj 786 389 i;
#X obj 784 87 f;
#X obj 810 87 + 1;
#X obj 810 110 % 1;
#X obj 784 134 sel 0;
#X obj 786 452 + 0;
#X obj 786 475 mtof;
#X obj 784 366 t b b;
#X msg 818 452 1 5 \, 0.75 10 5 \, 0 \$1 15;
#X obj 818 389 f 100;
#X obj 818 475 vline~;
#X obj 818 506 pow~ 2;
#X obj 786 498 osc~;
#X obj 786 521 *~;
#X floatatom 240 313 2 0 0 0 - - -;
#X obj 259 246 vsl 15 60 0 23 0 0 empty empty empty 0 -9 0 10 -162280
-262144 -1 2500 1;
#X floatatom 259 223 2 0 0 0 - - -;
#X obj 904 399 i;
#X obj 902 87 f;
#X obj 928 87 + 1;
#X obj 928 110 % 1;
#X obj 902 134 sel 0;
#X obj 904 422 + 0;
#X obj 904 475 mtof;
#X obj 902 336 t b b;
#X msg 936 422 1 5 \, 0.75 10 5 \, 0 \$1 15;
#X obj 936 399 f 100;
#X obj 936 475 vline~;
#X obj 936 506 pow~ 2;
#X obj 904 498 osc~;
#X obj 904 521 *~;
#X floatatom 259 313 2 0 0 0 - - -;
#X obj 278 246 vsl 15 60 0 23 0 0 empty empty empty 0 -9 0 10 -191407
-262144 -1 3600 1;
#X floatatom 278 223 2 0 0 0 - - -;
#X obj 1022 398 i;
#X obj 1020 87 f;
#X obj 1046 87 + 1;
#X obj 1046 110 % 1;
#X obj 1020 134 sel 0;
#X obj 1022 452 + 0;
#X obj 1022 475 mtof;
#X obj 1020 366 t b b;
#X msg 1054 452 1 5 \, 0.75 10 5 \, 0 \$1 15;
#X obj 1054 398 f 100;
#X obj 1054 475 vline~;
#X obj 1054 506 pow~ 2;
#X obj 1022 498 osc~;
#X obj 1022 521 *~;
#X floatatom 278 313 2 0 0 0 - - -;
#X obj 297 246 vsl 15 60 0 23 0 0 empty empty empty 0 -9 0 10 -228856
-262144 -1 4900 1;
#X floatatom 297 223 2 0 0 0 - - -;
#X obj 1142 401 i;
#X obj 1140 87 f;
#X obj 1166 87 + 1;
#X obj 1166 110 % 1;
#X obj 1140 134 sel 0;
#X obj 1142 424 + 0;
#X obj 1142 475 mtof;
#X obj 1140 366 t b b;
#X msg 1174 424 1 5 \, 0.75 10 5 \, 0 \$1 15;
#X obj 1174 401 f 100;
#X obj 1174 475 vline~;
#X obj 1174 506 pow~ 2;
#X obj 1142 498 osc~;
#X obj 1142 521 *~;
#X floatatom 297 313 2 0 0 0 - - -;
#X obj 611 608 outlet~;
#X obj 611 585 *~ 0.5;
#X obj 145 354 i;
#X obj 326 356 i;
#X obj 446 329 i;
#X obj 564 344 i;
#X obj 682 312 i;
#X obj 801 342 i;
#X obj 919 313 i;
#X obj 1036 341 i;
#X obj 1157 341 i;
#X obj 75 312 bng 15 250 50 0 empty empty reset 17 7 0 10 -262144 -1
-1;
#X msg 547 28 0;
#X connect 0 0 1 0;
#X connect 1 0 2 0;
#X connect 1 1 6 0;
#X connect 1 2 26 0;
#X connect 1 3 43 0;
#X connect 1 4 60 0;
#X connect 1 5 77 0;
#X connect 1 6 94 0;
#X connect 1 7 111 0;
#X connect 1 8 128 0;
#X connect 1 9 145 0;
#X connect 3 0 161 0;
#X connect 5 0 10 0;
#X connect 6 0 7 0;
#X connect 6 0 9 0;
#X connect 7 0 8 0;
#X connect 8 0 6 1;
#X connect 9 0 12 0;
#X connect 10 0 11 0;
#X connect 11 0 17 0;
#X connect 12 0 5 0;
#X connect 12 1 14 0;
#X connect 13 0 15 0;
#X connect 14 0 13 0;
#X connect 15 0 16 0;
#X connect 16 0 18 1;
#X connect 17 0 18 0;
#X connect 18 0 160 0;
#X connect 19 0 10 1;
#X connect 19 0 30 1;
#X connect 19 0 47 1;
#X connect 19 0 64 1;
#X connect 19 0 81 1;
#X connect 19 0 98 1;
#X connect 19 0 115 1;
#X connect 19 0 132 1;
#X connect 19 0 149 1;
#X connect 20 0 34 1;
#X connect 20 0 51 1;
#X connect 20 0 68 1;
#X connect 20 0 85 1;
#X connect 20 0 102 1;
#X connect 20 0 119 1;
#X connect 20 0 136 1;
#X connect 20 0 153 1;
#X connect 20 0 14 1;
#X connect 21 0 16 1;
#X connect 21 0 36 1;
#X connect 21 0 53 1;
#X connect 21 0 70 1;
#X connect 21 0 87 1;
#X connect 21 0 104 1;
#X connect 21 0 121 1;
#X connect 21 0 138 1;
#X connect 21 0 155 1;
#X connect 22 0 8 1;
#X connect 23 0 162 0;
#X connect 25 0 30 0;
#X connect 26 0 27 0;
#X connect 26 0 29 0;
#X connect 27 0 28 0;
#X connect 28 0 26 1;
#X connect 29 0 32 0;
#X connect 30 0 31 0;
#X connect 31 0 37 0;
#X connect 32 0 25 0;
#X connect 32 1 34 0;
#X connect 33 0 35 0;
#X connect 34 0 33 0;
#X connect 35 0 36 0;
#X connect 36 0 38 1;
#X connect 37 0 38 0;
#X connect 38 0 160 0;
#X connect 39 0 28 1;
#X connect 40 0 163 0;
#X connect 42 0 47 0;
#X connect 43 0 44 0;
#X connect 43 0 46 0;
#X connect 44 0 45 0;
#X connect 45 0 43 1;
#X connect 46 0 49 0;
#X connect 47 0 48 0;
#X connect 48 0 54 0;
#X connect 49 0 42 0;
#X connect 49 1 51 0;
#X connect 50 0 52 0;
#X connect 51 0 50 0;
#X connect 52 0 53 0;
#X connect 53 0 55 1;
#X connect 54 0 55 0;
#X connect 55 0 160 0;
#X connect 56 0 45 1;
#X connect 57 0 164 0;
#X connect 59 0 64 0;
#X connect 60 0 61 0;
#X connect 60 0 63 0;
#X connect 61 0 62 0;
#X connect 62 0 60 1;
#X connect 63 0 66 0;
#X connect 64 0 65 0;
#X connect 65 0 71 0;
#X connect 66 0 59 0;
#X connect 66 1 68 0;
#X connect 67 0 69 0;
#X connect 68 0 67 0;
#X connect 69 0 70 0;
#X connect 70 0 72 1;
#X connect 71 0 72 0;
#X connect 72 0 160 0;
#X connect 73 0 62 1;
#X connect 74 0 165 0;
#X connect 76 0 81 0;
#X connect 77 0 78 0;
#X connect 77 0 80 0;
#X connect 78 0 79 0;
#X connect 79 0 77 1;
#X connect 80 0 83 0;
#X connect 81 0 82 0;
#X connect 82 0 88 0;
#X connect 83 0 76 0;
#X connect 83 1 85 0;
#X connect 84 0 86 0;
#X connect 85 0 84 0;
#X connect 86 0 87 0;
#X connect 87 0 89 1;
#X connect 88 0 89 0;
#X connect 89 0 160 0;
#X connect 90 0 79 1;
#X connect 91 0 166 0;
#X connect 93 0 98 0;
#X connect 94 0 95 0;
#X connect 94 0 97 0;
#X connect 95 0 96 0;
#X connect 96 0 94 1;
#X connect 97 0 100 0;
#X connect 98 0 99 0;
#X connect 99 0 105 0;
#X connect 100 0 93 0;
#X connect 100 1 102 0;
#X connect 101 0 103 0;
#X connect 102 0 101 0;
#X connect 103 0 104 0;
#X connect 104 0 106 1;
#X connect 105 0 106 0;
#X connect 106 0 160 0;
#X connect 107 0 96 1;
#X connect 108 0 167 0;
#X connect 110 0 115 0;
#X connect 111 0 112 0;
#X connect 111 0 114 0;
#X connect 112 0 113 0;
#X connect 113 0 111 1;
#X connect 114 0 117 0;
#X connect 115 0 116 0;
#X connect 116 0 122 0;
#X connect 117 0 110 0;
#X connect 117 1 119 0;
#X connect 118 0 120 0;
#X connect 119 0 118 0;
#X connect 120 0 121 0;
#X connect 121 0 123 1;
#X connect 122 0 123 0;
#X connect 123 0 160 0;
#X connect 124 0 113 1;
#X connect 125 0 168 0;
#X connect 127 0 132 0;
#X connect 128 0 129 0;
#X connect 128 0 131 0;
#X connect 129 0 130 0;
#X connect 130 0 128 1;
#X connect 131 0 134 0;
#X connect 132 0 133 0;
#X connect 133 0 139 0;
#X connect 134 0 127 0;
#X connect 134 1 136 0;
#X connect 135 0 137 0;
#X connect 136 0 135 0;
#X connect 137 0 138 0;
#X connect 138 0 140 1;
#X connect 139 0 140 0;
#X connect 140 0 160 0;
#X connect 141 0 130 1;
#X connect 142 0 169 0;
#X connect 144 0 149 0;
#X connect 145 0 146 0;
#X connect 145 0 148 0;
#X connect 146 0 147 0;
#X connect 147 0 145 1;
#X connect 148 0 151 0;
#X connect 149 0 150 0;
#X connect 150 0 156 0;
#X connect 151 0 144 0;
#X connect 151 1 153 0;
#X connect 152 0 154 0;
#X connect 153 0 152 0;
#X connect 154 0 155 0;
#X connect 155 0 157 1;
#X connect 156 0 157 0;
#X connect 157 0 160 0;
#X connect 158 0 147 1;
#X connect 160 0 159 0;
#X connect 161 0 5 1;
#X connect 161 0 4 0;
#X connect 162 0 25 1;
#X connect 162 0 24 0;
#X connect 163 0 42 1;
#X connect 163 0 41 0;
#X connect 164 0 59 1;
#X connect 164 0 58 0;
#X connect 165 0 76 1;
#X connect 165 0 75 0;
#X connect 166 0 93 1;
#X connect 166 0 92 0;
#X connect 167 0 110 1;
#X connect 167 0 109 0;
#X connect 168 0 127 1;
#X connect 168 0 126 0;
#X connect 169 0 144 1;
#X connect 169 0 143 0;
#X connect 170 0 171 0;
#X connect 171 0 6 0;
#X connect 171 0 145 0;
#X connect 171 0 128 0;
#X connect 171 0 111 0;
#X connect 171 0 94 0;
#X connect 171 0 77 0;
#X connect 171 0 60 0;
#X connect 171 0 43 0;
#X connect 171 0 26 0;
#X coords 0 -1 1 1 256 146 1 65 190;
