#N canvas 471 116 682 587 10;
#X obj 56 32 inlet;
#X obj 56 438 % 7;
#X obj 292 327 sel 0 1 2, f 14;
#X obj 292 32 inlet;
#X obj 292 117 clip 0 4;
#X obj 108 438 pipe 0;
#X obj 108 508 + 0;
#X obj 281 438 pipe 0;
#X obj 281 508 + 0;
#X obj 418 438 pipe 0;
#X obj 418 508 + 0;
#X obj 281 563 outlet;
#X obj 56 484 + 0;
#X obj 108 484 + 0;
#X obj 281 484 + 0;
#X obj 418 484 + 0;
#X obj 451 32 inlet;
#X obj 451 117 max 0;
#X obj 155 32 inlet;
#X obj 192 155 t b b, f 10;
#X obj 249 178 random 3;
#X obj 249 201 sel 0 1 2, f 15;
#X msg 249 224 0;
#X msg 278 224 1;
#X msg 309 224 -1;
#X obj 192 178 random 3;
#X obj 192 253 pack 0 0, f 15;
#X obj 192 276 route 0 1 2, f 23;
#X obj 320 401 unpack 0 0 0;
#X msg 320 350 0 -8 0;
#X msg 346 372 0 0 -8;
#X msg 123 203 0;
#X msg 373 350 -8 0 0;
#X msg 292 372 0 0 0;
#X obj 56 401 f 0, f 17;
#X obj 526 81 random 4;
#X obj 526 140 + 1;
#X obj 155 65 t f b;
#X obj 56 65 t b b, f 12;
#X obj 123 88 f 0;
#X obj 149 88 + 1;
#X obj 176 88 % 2;
#X obj 123 111 sel 0, f 12;
#X obj 526 32 inlet;
#X msg 526 56 seed \$1;
#X obj 56 508 + \$1;
#X obj 108 461 + \$2;
#X obj 281 461 + \$3;
#X obj 418 461 + \$4;
#X connect 0 0 38 0;
#X connect 1 0 12 0;
#X connect 2 0 33 0;
#X connect 2 1 29 0;
#X connect 2 2 30 0;
#X connect 2 3 32 0;
#X connect 3 0 4 0;
#X connect 4 0 2 0;
#X connect 5 0 46 0;
#X connect 6 0 11 0;
#X connect 7 0 47 0;
#X connect 8 0 11 0;
#X connect 9 0 48 0;
#X connect 10 0 11 0;
#X connect 12 0 5 0;
#X connect 12 0 45 0;
#X connect 13 0 6 0;
#X connect 14 0 8 0;
#X connect 15 0 10 0;
#X connect 16 0 17 0;
#X connect 17 0 9 1;
#X connect 17 0 7 1;
#X connect 17 0 5 1;
#X connect 18 0 37 0;
#X connect 19 0 25 0;
#X connect 19 1 20 0;
#X connect 20 0 21 0;
#X connect 21 0 22 0;
#X connect 21 1 23 0;
#X connect 21 2 24 0;
#X connect 22 0 26 1;
#X connect 23 0 26 1;
#X connect 24 0 26 1;
#X connect 25 0 26 0;
#X connect 26 0 27 0;
#X connect 27 0 13 1;
#X connect 27 1 14 1;
#X connect 27 2 15 1;
#X connect 28 0 6 1;
#X connect 28 1 8 1;
#X connect 28 2 10 1;
#X connect 29 0 28 0;
#X connect 30 0 28 0;
#X connect 31 0 13 1;
#X connect 31 0 15 1;
#X connect 31 0 14 1;
#X connect 32 0 28 0;
#X connect 33 0 28 0;
#X connect 34 0 1 0;
#X connect 35 0 36 0;
#X connect 36 0 41 1;
#X connect 37 0 34 1;
#X connect 37 1 35 0;
#X connect 38 0 34 0;
#X connect 38 1 39 0;
#X connect 39 0 40 0;
#X connect 39 0 42 0;
#X connect 40 0 41 0;
#X connect 41 0 39 1;
#X connect 42 0 31 0;
#X connect 42 1 19 0;
#X connect 43 0 44 0;
#X connect 44 0 35 0;
#X connect 44 0 20 0;
#X connect 44 0 25 0;
#X connect 45 0 11 0;
#X connect 46 0 7 0;
#X connect 46 0 13 0;
#X connect 47 0 9 0;
#X connect 47 0 14 0;
#X connect 48 0 15 0;
