#N canvas 225 251 766 439 10;
#X obj 81 32 inlet;
#X obj 198 32 inlet;
#X obj 198 98 t a a;
#X obj 198 121 list length;
#X obj 81 256 list store;
#X obj 285 32 inlet;
#X obj 285 98 t a a;
#X obj 285 194 list length;
#X obj 168 232 list store;
#X obj 81 183 f 0;
#X obj 108 183 + 1;
#X obj 136 183 % 4;
#X obj 81 98 t b b, f 15;
#X obj 168 183 f 0;
#X obj 195 183 + 1;
#X obj 223 183 % 4;
#X msg 168 208 get \$1 1;
#X obj 81 209 % 4;
#X msg 81 232 get \$1 1;
#X obj 81 121 del 50;
#X obj 81 309 outlet;
#X obj 358 33 r sync;
#X msg 358 56 0;
#X connect 0 0 12 0;
#X connect 1 0 2 0;
#X connect 2 0 3 0;
#X connect 2 1 8 1;
#X connect 3 0 15 1;
#X connect 4 0 20 0;
#X connect 5 0 6 0;
#X connect 6 0 7 0;
#X connect 6 1 4 1;
#X connect 7 0 17 1;
#X connect 7 0 11 1;
#X connect 8 0 10 1;
#X connect 9 0 10 0;
#X connect 9 0 17 0;
#X connect 10 0 11 0;
#X connect 11 0 9 1;
#X connect 12 0 19 0;
#X connect 12 1 13 0;
#X connect 13 0 14 0;
#X connect 13 0 16 0;
#X connect 14 0 15 0;
#X connect 15 0 13 1;
#X connect 16 0 8 0;
#X connect 17 0 18 0;
#X connect 18 0 4 0;
#X connect 19 0 9 0;
#X connect 21 0 22 0;
#X connect 22 0 9 1;
#X connect 22 0 13 1;
