#N canvas 464 285 450 300 10;
#X obj 112 102 f 0;
#X obj 112 185 -, f 20;
#X obj 112 127 expr floor($f1*$f2) \; $f1*$f2;
#X obj 112 208 abs;
#X obj 139 250 outlet;
#X obj 112 26 inlet;
#X obj 112 77 bang;
#X obj 160 86 clip 0 1;
#X obj 160 63 f \$1;
#X obj 229 63 f \$2;
#X obj 229 26 loadbang;
#X obj 112 163 t f f;
#X obj 160 26 inlet;
#X connect 0 0 2 0;
#X connect 1 0 3 0;
#X connect 2 0 11 0;
#X connect 2 1 1 1;
#X connect 3 0 0 1;
#X connect 5 0 6 0;
#X connect 6 0 0 0;
#X connect 7 0 0 1;
#X connect 8 0 7 0;
#X connect 9 0 2 1;
#X connect 10 0 8 0;
#X connect 10 0 9 0;
#X connect 11 0 1 0;
#X connect 11 1 4 0;
#X connect 12 0 8 0;
