#N canvas 548 222 771 524 10;
#X obj 134 63 bng 15 250 50 0 empty empty empty 17 7 0 10 -262144 -1
-1;
#X floatatom 197 62 5 0 0 0 - - -;
#X obj 45 173 i;
#X floatatom 45 236 5 0 0 0 - - -;
#X obj 72 173 i;
#X obj 197 84 t b f, f 12;
#X obj 72 196 + 2;
#X obj 99 173 i;
#X obj 99 196 + 5;
#X obj 134 251 i;
#X obj 134 274 mtof;
#X obj 134 297 phasor~;
#X obj 134 319 expr~ $v1>$f2;
#X obj 245 274 / 100;
#X obj 245 297 + 0.05;
#X obj 245 251 random 90;
#X floatatom 245 320 5 0 0 0 - - -;
#X obj 134 342 *~;
#X obj 316 326 vline~;
#X msg 316 302 1 10 \, 0 \$1 10;
#X obj 298 65 bng 15 250 50 0 empty empty empty 17 7 0 10 -262144 -1
-1;
#X floatatom 316 182 5 0 0 0 - - -;
#X msg 316 279 \$1;
#X obj 134 421 *~ 0.2;
#X obj 316 161 * 1;
#X obj 316 139 i 50;
#X obj 357 105 i 1;
#X obj 383 105 + 1;
#X obj 357 129 % 10;
#X obj 357 152 + 1;
#X floatatom 337 64 5 0 0 0 - - -;
#X floatatom 378 64 5 0 0 0 - - -;
#X obj 316 204 t f f;
#X floatatom 343 383 5 0 0 0 - - -;
#X obj 343 361 / 5000;
#X obj 343 405 clip 0 1;
#X obj 357 252 random 500;
#X floatatom 357 275 5 0 0 0 - - -;
#X obj 135 383 bp~ 500 10;
#X obj 298 112 del 10;
#X obj 298 89 t b b;
#X obj 135 470 outlet~;
#X obj 298 12 inlet;
#X obj 343 428 expr 1-$f1;
#X obj 296 444 *~;
#X obj 296 467 outlet~;
#X obj 134 11 r init;
#X obj 197 11 r tone;
#X obj 134 227 t b b b b b, f 75;
#X obj 469 275 + 50;
#X obj 469 252 random 200;
#X obj 581 252 random 20;
#X obj 581 275 + 1;
#X obj 142 128 sel 0 1 2 3 4 5 6 7 8;
#X obj 144 105 random 9;
#X obj 125 173 i;
#X obj 156 173 i;
#X obj 187 173 i;
#X obj 125 196 - 12;
#X obj 156 196 - 10;
#X obj 187 196 - 7;
#X obj 213 173 i;
#X obj 244 173 i;
#X obj 275 173 i;
#X obj 213 196 + 12;
#X obj 244 196 + 14;
#X obj 275 196 + 17;
#X connect 0 0 48 0;
#X connect 1 0 5 0;
#X connect 2 0 3 0;
#X connect 3 0 9 1;
#X connect 4 0 6 0;
#X connect 5 0 54 0;
#X connect 5 1 2 1;
#X connect 5 1 4 1;
#X connect 5 1 7 1;
#X connect 5 1 55 1;
#X connect 5 1 56 1;
#X connect 5 1 57 1;
#X connect 5 1 61 1;
#X connect 5 1 62 1;
#X connect 5 1 63 1;
#X connect 6 0 3 0;
#X connect 7 0 8 0;
#X connect 8 0 3 0;
#X connect 9 0 10 0;
#X connect 10 0 11 0;
#X connect 11 0 12 0;
#X connect 12 0 17 0;
#X connect 13 0 14 0;
#X connect 14 0 16 0;
#X connect 15 0 13 0;
#X connect 16 0 12 1;
#X connect 17 0 38 0;
#X connect 18 0 17 1;
#X connect 19 0 18 0;
#X connect 20 0 40 0;
#X connect 21 0 32 0;
#X connect 21 0 39 1;
#X connect 22 0 19 0;
#X connect 23 0 41 0;
#X connect 24 0 21 0;
#X connect 25 0 24 0;
#X connect 26 0 27 0;
#X connect 26 0 28 0;
#X connect 27 0 26 1;
#X connect 28 0 29 0;
#X connect 29 0 24 1;
#X connect 30 0 25 1;
#X connect 31 0 28 1;
#X connect 32 0 22 0;
#X connect 32 1 34 0;
#X connect 33 0 35 0;
#X connect 34 0 33 0;
#X connect 35 0 23 1;
#X connect 35 0 43 0;
#X connect 36 0 37 0;
#X connect 37 0 38 1;
#X connect 38 0 23 0;
#X connect 38 0 44 0;
#X connect 39 0 25 0;
#X connect 39 0 9 0;
#X connect 40 0 39 0;
#X connect 40 1 26 0;
#X connect 42 0 20 0;
#X connect 43 0 44 1;
#X connect 44 0 45 0;
#X connect 46 0 0 0;
#X connect 47 0 1 0;
#X connect 48 0 9 0;
#X connect 48 1 15 0;
#X connect 48 2 36 0;
#X connect 48 3 50 0;
#X connect 48 4 51 0;
#X connect 49 0 30 0;
#X connect 50 0 49 0;
#X connect 51 0 52 0;
#X connect 52 0 31 0;
#X connect 53 0 2 0;
#X connect 53 1 4 0;
#X connect 53 2 7 0;
#X connect 53 3 55 0;
#X connect 53 4 56 0;
#X connect 53 5 57 0;
#X connect 53 6 61 0;
#X connect 53 7 62 0;
#X connect 53 8 63 0;
#X connect 54 0 53 0;
#X connect 55 0 58 0;
#X connect 56 0 59 0;
#X connect 57 0 60 0;
#X connect 58 0 3 0;
#X connect 59 0 3 0;
#X connect 60 0 3 0;
#X connect 61 0 64 0;
#X connect 62 0 65 0;
#X connect 63 0 66 0;
#X connect 64 0 3 0;
#X connect 65 0 3 0;
#X connect 66 0 3 0;
