#N canvas 541 159 733 551 10;
#X obj 56 164 sel 0 1 2 3, f 22;
#X msg 56 187 0;
#X msg 88 187 2;
#X msg 120 187 4;
#X msg 152 187 8;
#X obj 56 64 t b b b, f 25;
#X obj 203 223 random 2;
#X obj 129 110 sel 0 1, f 11;
#X obj 129 87 random 2;
#X msg 129 133 0;
#X msg 160 133 1;
#X obj 56 225 +, f 13;
#X obj 56 318 spigot;
#X obj 89 295 == 0;
#X obj 56 248 t f f, f 13;
#X obj 131 318 spigot;
#X obj 164 295 == 1;
#X obj 56 271 +;
#X obj 131 271 -;
#X obj 56 355 abs;
#X obj 56 383 outlet;
#X obj 146 226 i \$1;
#X obj 56 39 inlet;
#X obj 165 39 inlet;
#X obj 109 383 outlet;
#X obj 56 87 random 6;
#X obj 275 39 inlet;
#X msg 275 164 seed \$1;
#X connect 0 0 1 0;
#X connect 0 1 2 0;
#X connect 0 2 3 0;
#X connect 0 3 4 0;
#X connect 1 0 11 0;
#X connect 2 0 11 0;
#X connect 3 0 11 0;
#X connect 4 0 11 0;
#X connect 5 0 25 0;
#X connect 5 1 8 0;
#X connect 5 2 6 0;
#X connect 5 2 21 0;
#X connect 6 0 13 0;
#X connect 6 0 16 0;
#X connect 7 0 9 0;
#X connect 7 1 10 0;
#X connect 8 0 7 0;
#X connect 9 0 11 1;
#X connect 9 0 24 0;
#X connect 10 0 11 1;
#X connect 10 0 24 0;
#X connect 11 0 14 0;
#X connect 12 0 19 0;
#X connect 13 0 12 1;
#X connect 14 0 17 0;
#X connect 14 1 18 0;
#X connect 15 0 19 0;
#X connect 16 0 15 1;
#X connect 17 0 12 0;
#X connect 18 0 15 0;
#X connect 19 0 20 0;
#X connect 21 0 17 1;
#X connect 21 0 18 1;
#X connect 22 0 5 0;
#X connect 23 0 21 1;
#X connect 25 0 0 0;
#X connect 26 0 27 0;
#X connect 27 0 8 0;
#X connect 27 0 25 0;
#X connect 27 0 6 0;
