#N canvas 0 116 1366 652 10;
#X obj 335 128 random 2;
#X obj 282 250 +;
#X obj 332 250 -;
#X obj 233 225 t f f f, f 17;
#X obj 282 275 spigot;
#X obj 332 274 spigot;
#X floatatom 335 202 5 0 0 0 - - -;
#X obj 335 179 expr if($f1==1 \, 0 \, 1);
#X obj 436 152 t f f f;
#X obj 218 340 pack 0 0 0, f 41;
#X msg 218 363 \$1 \, \$2 \$3;
#X obj 218 304 f;
#X obj 267 304 f;
#X obj 461 304 f;
#X obj 132 288 t b b b;
#X obj 394 477 vline~;
#X obj 218 524 *~;
#X obj 233 152 + 20;
#X obj 639 130 random 2;
#X obj 587 252 +;
#X obj 637 252 -;
#X obj 538 227 t f f f, f 17;
#X obj 587 277 spigot;
#X obj 637 276 spigot;
#X floatatom 639 204 5 0 0 0 - - -;
#X obj 639 181 expr if($f1==1 \, 0 \, 1);
#X obj 741 154 t f f f;
#X obj 523 342 pack 0 0 0, f 41;
#X msg 522 365 \$1 \, \$2 \$3;
#X obj 523 304 f;
#X obj 572 304 f;
#X obj 765 304 f;
#X obj 538 154 + 20;
#X obj 218 462 *~;
#X obj 394 382 +;
#X obj 394 507 *~;
#X obj 219 561 clip~ -1 1;
#X obj 218 588 outlet~;
#X obj 132 104 t b b b b b b b, f 102;
#X msg 741 58 seed \$1;
#X obj 132 25 inlet;
#X obj 741 25 inlet;
#X obj 233 129 random \$1;
#X obj 436 129 random \$2;
#X obj 538 131 random \$3;
#X obj 741 131 random \$4;
#X msg 394 405 1 10 \, 0 \$1 10;
#X obj 218 386 line~;
#X obj 522 388 line~;
#X obj 522 445 osc~;
#X obj 218 432 sqrt~;
#X obj 218 491 expr~ atan($v1);
#X obj 218 409 osc~;
#X connect 0 0 7 0;
#X connect 1 0 4 0;
#X connect 2 0 5 0;
#X connect 3 0 11 1;
#X connect 3 1 1 0;
#X connect 3 2 2 0;
#X connect 4 0 12 1;
#X connect 5 0 12 1;
#X connect 6 0 5 1;
#X connect 6 0 22 1;
#X connect 7 0 6 0;
#X connect 8 0 1 1;
#X connect 8 1 2 1;
#X connect 8 2 13 1;
#X connect 9 0 10 0;
#X connect 10 0 47 0;
#X connect 11 0 9 0;
#X connect 12 0 9 1;
#X connect 13 0 9 2;
#X connect 13 0 34 0;
#X connect 14 0 11 0;
#X connect 14 0 29 0;
#X connect 14 1 12 0;
#X connect 14 1 30 0;
#X connect 14 2 13 0;
#X connect 14 2 31 0;
#X connect 15 0 35 0;
#X connect 15 0 35 1;
#X connect 16 0 36 0;
#X connect 17 0 3 0;
#X connect 18 0 25 0;
#X connect 19 0 22 0;
#X connect 20 0 23 0;
#X connect 21 0 29 1;
#X connect 21 1 19 0;
#X connect 21 2 20 0;
#X connect 22 0 30 1;
#X connect 23 0 30 1;
#X connect 24 0 23 1;
#X connect 24 0 4 1;
#X connect 25 0 24 0;
#X connect 26 0 19 1;
#X connect 26 1 20 1;
#X connect 26 2 31 1;
#X connect 27 0 28 0;
#X connect 28 0 48 0;
#X connect 29 0 27 0;
#X connect 30 0 27 1;
#X connect 31 0 27 2;
#X connect 31 0 34 1;
#X connect 32 0 21 0;
#X connect 33 0 51 0;
#X connect 34 0 46 0;
#X connect 35 0 16 1;
#X connect 36 0 37 0;
#X connect 38 0 14 0;
#X connect 38 1 42 0;
#X connect 38 2 0 0;
#X connect 38 3 43 0;
#X connect 38 4 44 0;
#X connect 38 5 18 0;
#X connect 38 6 45 0;
#X connect 39 0 18 0;
#X connect 39 0 0 0;
#X connect 39 0 42 0;
#X connect 39 0 43 0;
#X connect 39 0 44 0;
#X connect 39 0 45 0;
#X connect 40 0 38 0;
#X connect 41 0 39 0;
#X connect 42 0 17 0;
#X connect 43 0 8 0;
#X connect 44 0 32 0;
#X connect 45 0 26 0;
#X connect 46 0 15 0;
#X connect 47 0 52 0;
#X connect 48 0 49 0;
#X connect 49 0 33 1;
#X connect 50 0 33 0;
#X connect 51 0 16 0;
#X connect 52 0 50 0;
