#N canvas 611 203 645 540 10;
#X obj 196 260 moses 50, f 10;
#X obj 334 244 random 100;
#X obj 124 259 i 0;
#X obj 124 320 + 0;
#X obj 124 221 t b b;
#X obj 124 389 t f f, f 11;
#X obj 196 237 random 100;
#X obj 196 304 i 0;
#X obj 196 282 t b b;
#X msg 223 327 0;
#X obj 124 343 - 0;
#X obj 257 304 i 0;
#X obj 257 282 t b b;
#X msg 284 327 0;
#X obj 124 449 outlet;
#X obj 124 32 inlet;
#X obj 211 32 inlet;
#X obj 124 366 expr if($f1<-14||$f1>21 \, 0 \, $f1);
#X obj 211 203 random 7;
#X obj 272 237 random 7;
#X obj 211 146 t b b b, f 21;
#X obj 289 178 + 100;
#X obj 352 178 + 1000;
#X obj 281 32 loadbang;
#X msg 250 120 seed \$1;
#X obj 211 96 t b f f f, f 20;
#X msg 289 201 seed \$1;
#X msg 352 201 seed \$1;
#X connect 0 0 8 0;
#X connect 0 1 12 0;
#X connect 1 0 0 1;
#X connect 2 0 3 0;
#X connect 3 0 10 0;
#X connect 4 0 2 0;
#X connect 4 1 6 0;
#X connect 5 0 14 0;
#X connect 5 1 2 1;
#X connect 6 0 0 0;
#X connect 7 0 3 1;
#X connect 8 0 7 0;
#X connect 8 1 9 0;
#X connect 9 0 10 1;
#X connect 10 0 17 0;
#X connect 11 0 10 1;
#X connect 12 0 11 0;
#X connect 12 1 13 0;
#X connect 13 0 3 1;
#X connect 15 0 4 0;
#X connect 16 0 25 0;
#X connect 17 0 5 0;
#X connect 18 0 7 1;
#X connect 19 0 11 1;
#X connect 20 0 18 0;
#X connect 20 1 19 0;
#X connect 20 2 1 0;
#X connect 21 0 26 0;
#X connect 22 0 27 0;
#X connect 23 0 25 0;
#X connect 24 0 18 0;
#X connect 25 0 20 0;
#X connect 25 1 24 0;
#X connect 25 2 21 0;
#X connect 25 3 22 0;
#X connect 26 0 19 0;
#X connect 27 0 1 0;
