#N canvas 249 134 1099 605 10;
#X floatatom 166 44 2 0 11 1 init - -;
#X obj 59 419 random 100;
#X msg 480 48 seed \$1;
#X obj 59 441 moses 50;
#X floatatom 59 508 5 0 0 0 - - -;
#X obj 59 463 bng 15 250 50 0 empty empty empty 17 7 0 10 -262144 -1
-1;
#X obj 104 462 bng 15 250 50 0 empty empty empty 17 7 0 10 -262144
-1 -1;
#X obj 59 483 f 0;
#X obj 104 482 f 0;
#X floatatom 173 71 2 0 11 0 0_>_ - -;
#X floatatom 191 71 2 0 11 1 - - -;
#X floatatom 301 44 5 0 0 0 seed - -;
#X floatatom 173 91 2 0 11 0 1_>_ - -;
#X floatatom 191 91 2 0 11 1 - - -;
#X obj 138 419 random 100;
#X obj 138 441 moses 50;
#X floatatom 138 508 5 0 0 0 - - -;
#X obj 138 463 bng 15 250 50 0 empty empty empty 17 7 0 10 -262144
-1 -1;
#X obj 183 462 bng 15 250 50 0 empty empty empty 17 7 0 10 -262144
-1 -1;
#X obj 138 483 f 0;
#X obj 183 482 f 0;
#X floatatom 173 111 2 0 11 0 2_>_ - -;
#X floatatom 191 111 2 0 11 1 - - -;
#X floatatom 173 131 2 0 11 0 3_>_ - -;
#X floatatom 191 131 2 0 11 1 - - -;
#X obj 213 419 random 100;
#X obj 213 441 moses 50;
#X floatatom 213 508 5 0 0 0 - - -;
#X obj 213 463 bng 15 250 50 0 empty empty empty 17 7 0 10 -262144
-1 -1;
#X obj 258 462 bng 15 250 50 0 empty empty empty 17 7 0 10 -262144
-1 -1;
#X obj 213 483 f 0;
#X obj 258 482 f 0;
#X obj 293 419 random 100;
#X obj 293 441 moses 50;
#X floatatom 293 508 5 0 0 0 - - -;
#X obj 293 463 bng 15 250 50 0 empty empty empty 17 7 0 10 -262144
-1 -1;
#X obj 338 462 bng 15 250 50 0 empty empty empty 17 7 0 10 -262144
-1 -1;
#X obj 293 483 f 0;
#X obj 338 482 f 0;
#X obj 370 419 random 100;
#X obj 370 441 moses 50;
#X floatatom 370 508 5 0 0 0 - - -;
#X obj 370 463 bng 15 250 50 0 empty empty empty 17 7 0 10 -262144
-1 -1;
#X obj 415 462 bng 15 250 50 0 empty empty empty 17 7 0 10 -262144
-1 -1;
#X obj 370 483 f 0;
#X obj 415 482 f 0;
#X obj 449 419 random 100;
#X obj 449 441 moses 50;
#X floatatom 449 508 5 0 0 0 - - -;
#X obj 449 463 bng 15 250 50 0 empty empty empty 17 7 0 10 -262144
-1 -1;
#X obj 494 462 bng 15 250 50 0 empty empty empty 17 7 0 10 -262144
-1 -1;
#X obj 449 483 f 0;
#X obj 494 482 f 0;
#X obj 524 419 random 100;
#X obj 524 441 moses 50;
#X floatatom 524 508 5 0 0 0 - - -;
#X obj 524 463 bng 15 250 50 0 empty empty empty 17 7 0 10 -262144
-1 -1;
#X obj 569 462 bng 15 250 50 0 empty empty empty 17 7 0 10 -262144
-1 -1;
#X obj 524 483 f 0;
#X obj 569 482 f 0;
#X obj 604 419 random 100;
#X obj 604 441 moses 50;
#X floatatom 604 508 5 0 0 0 - - -;
#X obj 604 463 bng 15 250 50 0 empty empty empty 17 7 0 10 -262144
-1 -1;
#X obj 649 462 bng 15 250 50 0 empty empty empty 17 7 0 10 -262144
-1 -1;
#X obj 604 483 f 0;
#X obj 649 482 f 0;
#X obj 681 418 random 100;
#X obj 681 440 moses 50;
#X floatatom 681 507 5 0 0 0 - - -;
#X obj 681 462 bng 15 250 50 0 empty empty empty 17 7 0 10 -262144
-1 -1;
#X obj 726 461 bng 15 250 50 0 empty empty empty 17 7 0 10 -262144
-1 -1;
#X obj 681 482 f 0;
#X obj 726 481 f 0;
#X obj 760 418 random 100;
#X obj 760 440 moses 50;
#X floatatom 760 507 5 0 0 0 - - -;
#X obj 760 462 bng 15 250 50 0 empty empty empty 17 7 0 10 -262144
-1 -1;
#X obj 805 461 bng 15 250 50 0 empty empty empty 17 7 0 10 -262144
-1 -1;
#X obj 760 482 f 0;
#X obj 805 481 f 0;
#X obj 835 418 random 100;
#X obj 835 440 moses 50;
#X floatatom 835 507 5 0 0 0 - - -;
#X obj 835 462 bng 15 250 50 0 empty empty empty 17 7 0 10 -262144
-1 -1;
#X obj 880 461 bng 15 250 50 0 empty empty empty 17 7 0 10 -262144
-1 -1;
#X obj 835 482 f 0;
#X obj 880 481 f 0;
#X obj 915 418 random 100;
#X obj 915 440 moses 50;
#X floatatom 915 507 5 0 0 0 - - -;
#X obj 915 462 bng 15 250 50 0 empty empty empty 17 7 0 10 -262144
-1 -1;
#X obj 960 461 bng 15 250 50 0 empty empty empty 17 7 0 10 -262144
-1 -1;
#X obj 915 482 f 0;
#X obj 960 481 f 0;
#X floatatom 237 71 2 0 11 0 4_>_ - -;
#X floatatom 255 71 2 0 11 1 - - -;
#X floatatom 237 91 2 0 11 0 5_>_ - -;
#X floatatom 255 91 2 0 11 1 - - -;
#X floatatom 237 111 2 0 11 0 6_>_ - -;
#X floatatom 255 111 2 0 11 1 - - -;
#X floatatom 237 131 2 0 11 0 7_>_ - -;
#X floatatom 255 131 2 0 11 1 - - -;
#X floatatom 301 71 2 0 11 0 8_>_ - -;
#X floatatom 319 71 2 0 11 1 - - -;
#X floatatom 301 91 2 0 11 0 9_>_ - -;
#X floatatom 319 91 2 0 11 1 - - -;
#X floatatom 301 111 2 0 11 0 10>_ - -;
#X floatatom 319 111 2 0 11 1 - - -;
#X floatatom 301 131 2 0 11 0 11>_ - -;
#X floatatom 319 131 2 0 11 1 - - -;
#X obj 449 559 s \$0-new;
#X obj 30 23 r \$0-new;
#X obj 145 376 sel 0 1 2 3 4 5 6 7 8 9 10 11, f 133;
#X obj 15 56 f;
#X obj 146 44 bng 15 250 50 0 empty empty empty 17 7 0 10 -262144 -1
-1;
#X obj 15 328 outlet;
#X obj 95 16 inlet;
#X connect 0 0 113 0;
#X connect 1 0 3 0;
#X connect 2 0 1 0;
#X connect 2 0 14 0;
#X connect 2 0 25 0;
#X connect 2 0 32 0;
#X connect 2 0 39 0;
#X connect 2 0 46 0;
#X connect 2 0 60 0;
#X connect 2 0 53 0;
#X connect 2 0 88 0;
#X connect 2 0 81 0;
#X connect 2 0 74 0;
#X connect 2 0 67 0;
#X connect 3 0 5 0;
#X connect 3 1 6 0;
#X connect 4 0 111 0;
#X connect 5 0 7 0;
#X connect 6 0 8 0;
#X connect 7 0 4 0;
#X connect 8 0 4 0;
#X connect 9 0 7 1;
#X connect 10 0 8 1;
#X connect 11 0 2 0;
#X connect 12 0 19 1;
#X connect 13 0 20 1;
#X connect 14 0 15 0;
#X connect 15 0 17 0;
#X connect 15 1 18 0;
#X connect 16 0 111 0;
#X connect 17 0 19 0;
#X connect 18 0 20 0;
#X connect 19 0 16 0;
#X connect 20 0 16 0;
#X connect 21 0 30 1;
#X connect 22 0 31 1;
#X connect 23 0 37 1;
#X connect 24 0 38 1;
#X connect 25 0 26 0;
#X connect 26 0 28 0;
#X connect 26 1 29 0;
#X connect 27 0 111 0;
#X connect 28 0 30 0;
#X connect 29 0 31 0;
#X connect 30 0 27 0;
#X connect 31 0 27 0;
#X connect 32 0 33 0;
#X connect 33 0 35 0;
#X connect 33 1 36 0;
#X connect 34 0 111 0;
#X connect 35 0 37 0;
#X connect 36 0 38 0;
#X connect 37 0 34 0;
#X connect 38 0 34 0;
#X connect 39 0 40 0;
#X connect 40 0 42 0;
#X connect 40 1 43 0;
#X connect 41 0 111 0;
#X connect 42 0 44 0;
#X connect 43 0 45 0;
#X connect 44 0 41 0;
#X connect 45 0 41 0;
#X connect 46 0 47 0;
#X connect 47 0 49 0;
#X connect 47 1 50 0;
#X connect 48 0 111 0;
#X connect 49 0 51 0;
#X connect 50 0 52 0;
#X connect 51 0 48 0;
#X connect 52 0 48 0;
#X connect 53 0 54 0;
#X connect 54 0 56 0;
#X connect 54 1 57 0;
#X connect 55 0 111 0;
#X connect 56 0 58 0;
#X connect 57 0 59 0;
#X connect 58 0 55 0;
#X connect 59 0 55 0;
#X connect 60 0 61 0;
#X connect 61 0 63 0;
#X connect 61 1 64 0;
#X connect 62 0 111 0;
#X connect 63 0 65 0;
#X connect 64 0 66 0;
#X connect 65 0 62 0;
#X connect 66 0 62 0;
#X connect 67 0 68 0;
#X connect 68 0 70 0;
#X connect 68 1 71 0;
#X connect 69 0 111 0;
#X connect 70 0 72 0;
#X connect 71 0 73 0;
#X connect 72 0 69 0;
#X connect 73 0 69 0;
#X connect 74 0 75 0;
#X connect 75 0 77 0;
#X connect 75 1 78 0;
#X connect 76 0 111 0;
#X connect 77 0 79 0;
#X connect 78 0 80 0;
#X connect 79 0 76 0;
#X connect 80 0 76 0;
#X connect 81 0 82 0;
#X connect 82 0 84 0;
#X connect 82 1 85 0;
#X connect 83 0 111 0;
#X connect 84 0 86 0;
#X connect 85 0 87 0;
#X connect 86 0 83 0;
#X connect 87 0 83 0;
#X connect 88 0 89 0;
#X connect 89 0 91 0;
#X connect 89 1 92 0;
#X connect 90 0 111 0;
#X connect 91 0 93 0;
#X connect 92 0 94 0;
#X connect 93 0 90 0;
#X connect 94 0 90 0;
#X connect 95 0 44 1;
#X connect 96 0 45 1;
#X connect 97 0 51 1;
#X connect 98 0 52 1;
#X connect 99 0 58 1;
#X connect 100 0 59 1;
#X connect 101 0 65 1;
#X connect 102 0 66 1;
#X connect 103 0 72 1;
#X connect 104 0 73 1;
#X connect 105 0 79 1;
#X connect 106 0 80 1;
#X connect 107 0 86 1;
#X connect 108 0 87 1;
#X connect 109 0 93 1;
#X connect 110 0 94 1;
#X connect 112 0 114 1;
#X connect 113 0 1 0;
#X connect 113 1 14 0;
#X connect 113 2 25 0;
#X connect 113 3 32 0;
#X connect 113 4 39 0;
#X connect 113 5 46 0;
#X connect 113 6 53 0;
#X connect 113 7 60 0;
#X connect 113 8 67 0;
#X connect 113 9 74 0;
#X connect 113 10 81 0;
#X connect 113 11 88 0;
#X connect 114 0 0 0;
#X connect 114 0 116 0;
#X connect 115 0 114 0;
#X connect 117 0 115 0;
#X coords 0 -1 1 1 200 140 1 140 15;
