#N canvas 205 269 450 300 10;
#X obj 47 26 inlet;
#X obj 47 119 f 0;
#X obj 72 119 + 1;
#X obj 97 119 % 4;
#X obj 62 68 r sync;
#X msg 62 91 0;
#X obj 112 68 i \$1;
#X obj 47 142 t b f, f 11;
#X obj 47 203 spigot;
#X obj 47 242 outlet;
#X obj 234 68 i \$2;
#X obj 359 68 i \$3;
#X obj 261 158 sel 0;
#X obj 133 26 inlet;
#X obj 255 26 inlet;
#X obj 380 26 inlet;
#X obj 110 187 expr if(($f1>=$f2)&&($f1<($f2+$f3)) \, 1 \, 0);
#X connect 0 0 1 0;
#X connect 1 0 2 0;
#X connect 1 0 7 0;
#X connect 2 0 3 0;
#X connect 3 0 1 1;
#X connect 4 0 5 0;
#X connect 5 0 1 1;
#X connect 6 0 3 1;
#X connect 7 0 8 0;
#X connect 7 1 12 0;
#X connect 7 1 16 0;
#X connect 8 0 9 0;
#X connect 10 0 16 1;
#X connect 11 0 16 2;
#X connect 12 0 6 0;
#X connect 12 0 11 0;
#X connect 12 0 10 0;
#X connect 13 0 6 1;
#X connect 14 0 10 1;
#X connect 15 0 11 1;
#X connect 16 0 8 1;
