#N canvas 404 223 887 487 10;
#X obj 43 270 expr~ if($v1>$f2 \, 1 \, 0);
#X obj 43 315 *~;
#X obj 43 225 * 1;
#X obj 58 14 inlet;
#X obj 47 104 hsl 50 15 0 4 0 0 empty empty empty -2 -8 0 10 -262144
-1 -1 400 1;
#X obj 101 104 nbx 5 15 0 4 0 0 empty empty mul 60 7 0 10 -262144 -1
-1 0.326531 256;
#X obj 47 122 hsl 50 15 0 1 0 0 empty empty empty -2 -8 0 10 -228856
-1 -1 0 1;
#X obj 101 123 nbx 5 15 0 1 0 0 empty empty pha 60 7 0 10 -228856 -1
-1 0 256;
#X obj 47 141 hsl 50 15 0 1 0 0 empty empty empty -2 -8 0 10 -191407
-1 -1 4400 1;
#X obj 101 142 nbx 5 15 0 1 0 0 empty empty pwm 60 7 0 10 -191407 -1
-1 0.897959 256;
#X obj 47 160 hsl 50 15 0 5000 0 0 empty empty empty -2 -8 0 10 -128992
-262144 -1 2500 1;
#X obj 101 160 nbx 5 15 0 5000 0 0 empty empty hip 60 7 0 10 -128992
-262144 -1 2551.02 256;
#X obj 43 408 outlet~;
#X obj 47 178 hsl 50 15 0 1 0 0 empty empty empty -2 -8 0 10 -1 -262144
-1 1000 1;
#X obj 101 178 nbx 5 15 0 1 0 0 empty empty vol 60 7 0 10 -1 -262144
-1 0.204082 256;
#X obj 43 368 *~;
#X obj 88 300 noise~;
#X obj 43 338 hip~;
#X obj 43 247 phasor~;
#X obj 58 37 clip 0 5;
#X connect 0 0 1 0;
#X connect 1 0 17 0;
#X connect 2 0 18 0;
#X connect 3 0 19 0;
#X connect 4 0 5 0;
#X connect 5 0 2 0;
#X connect 6 0 7 0;
#X connect 7 0 18 1;
#X connect 8 0 9 0;
#X connect 9 0 0 1;
#X connect 10 0 11 0;
#X connect 11 0 17 1;
#X connect 13 0 14 0;
#X connect 14 0 15 1;
#X connect 15 0 12 0;
#X connect 16 0 1 1;
#X connect 17 0 15 0;
#X connect 18 0 0 0;
#X connect 19 0 2 1;
#X coords 0 -1 1 1 150 140 1 35 65;
