#N canvas 172 196 704 507 10;
#X obj 68 50 inlet;
#X obj 68 88 f 0, f 5;
#X obj 68 114 sel 0 1 2 3 4 5 6 7, f 82;
#X obj 68 186 sel 0 1 2 3 4;
#X obj 68 163 random 5;
#X msg 68 213 1;
#X msg 98 213 3;
#X msg 128 213 2;
#X msg 202 293 2;
#X obj 130 243 random 6;
#X obj 130 266 sel 0 1 2 3 4 5;
#X msg 130 293 0;
#X msg 173 293 4;
#X msg 190 214 0;
#X obj 190 164 random 8;
#X obj 190 187 sel 0 1 2 3 4 5 6 7, f 28;
#X msg 220 214 1;
#X msg 251 214 3;
#X msg 281 214 4;
#X msg 313 214 5;
#X msg 344 214 7;
#X msg 250 293 0;
#X msg 280 293 2;
#X msg 310 293 6;
#X obj 342 243 random 5;
#X obj 250 243 random 5;
#X obj 250 266 sel 0 1 2 3 4;
#X obj 342 266 sel 0 1 2 3 4;
#X msg 342 293 1;
#X msg 372 293 2;
#X msg 402 293 8;
#X msg 431 214 2;
#X obj 373 164 random 6;
#X obj 373 187 sel 0 1 2 3 4 5;
#X msg 373 214 8;
#X msg 402 214 6;
#X obj 434 243 random 2;
#X obj 434 266 sel 0 1, f 8;
#X msg 434 293 3;
#X msg 464 293 5;
#X obj 495 186 sel 0 1 2 3 4;
#X obj 495 163 random 5;
#X msg 495 213 2;
#X msg 525 213 8;
#X msg 555 213 5;
#X obj 526 243 random 4;
#X obj 526 266 sel 0 1 2 3;
#X msg 573 293 4;
#X obj 68 356 t f f;
#X obj 68 413 outlet;
#X obj 526 50 inlet;
#X msg 526 80 seed \$1;
#X obj 68 138 bng 15 250 50 0 empty empty empty 17 7 0 10 -262144 -1
-1;
#X obj 129 138 bng 15 250 50 0 empty empty empty 17 7 0 10 -262144
-1 -1;
#X obj 190 138 bng 15 250 50 0 empty empty empty 17 7 0 10 -262144
-1 -1;
#X obj 251 138 bng 15 250 50 0 empty empty empty 17 7 0 10 -262144
-1 -1;
#X obj 312 138 bng 15 250 50 0 empty empty empty 17 7 0 10 -262144
-1 -1;
#X obj 373 138 bng 15 250 50 0 empty empty empty 17 7 0 10 -262144
-1 -1;
#X obj 434 138 bng 15 250 50 0 empty empty empty 17 7 0 10 -262144
-1 -1;
#X obj 495 138 bng 15 250 50 0 empty empty empty 17 7 0 10 -262144
-1 -1;
#X obj 557 138 bng 15 250 50 0 empty empty empty 17 7 0 10 -262144
-1 -1;
#X msg 541 293 7;
#X connect 0 0 1 0;
#X connect 1 0 2 0;
#X connect 2 0 52 0;
#X connect 2 1 53 0;
#X connect 2 2 54 0;
#X connect 2 3 55 0;
#X connect 2 4 56 0;
#X connect 2 5 57 0;
#X connect 2 6 58 0;
#X connect 2 7 59 0;
#X connect 2 8 60 0;
#X connect 3 0 5 0;
#X connect 3 1 5 0;
#X connect 3 2 6 0;
#X connect 3 3 6 0;
#X connect 3 4 7 0;
#X connect 3 5 6 0;
#X connect 4 0 3 0;
#X connect 5 0 48 0;
#X connect 6 0 48 0;
#X connect 7 0 48 0;
#X connect 8 0 48 0;
#X connect 9 0 10 0;
#X connect 10 0 11 0;
#X connect 10 1 11 0;
#X connect 10 2 12 0;
#X connect 10 3 12 0;
#X connect 10 4 12 0;
#X connect 10 5 8 0;
#X connect 10 6 12 0;
#X connect 11 0 48 0;
#X connect 12 0 48 0;
#X connect 13 0 48 0;
#X connect 14 0 15 0;
#X connect 15 0 13 0;
#X connect 15 1 16 0;
#X connect 15 2 16 0;
#X connect 15 3 17 0;
#X connect 15 4 17 0;
#X connect 15 5 18 0;
#X connect 15 6 19 0;
#X connect 15 7 20 0;
#X connect 15 8 17 0;
#X connect 16 0 48 0;
#X connect 17 0 48 0;
#X connect 18 0 48 0;
#X connect 19 0 48 0;
#X connect 20 0 48 0;
#X connect 21 0 48 0;
#X connect 22 0 48 0;
#X connect 23 0 48 0;
#X connect 24 0 27 0;
#X connect 25 0 26 0;
#X connect 26 0 21 0;
#X connect 26 1 21 0;
#X connect 26 2 22 0;
#X connect 26 3 23 0;
#X connect 26 4 23 0;
#X connect 26 5 23 0;
#X connect 27 0 28 0;
#X connect 27 1 28 0;
#X connect 27 2 29 0;
#X connect 27 3 29 0;
#X connect 27 4 30 0;
#X connect 27 5 29 0;
#X connect 28 0 48 0;
#X connect 29 0 48 0;
#X connect 30 0 48 0;
#X connect 31 0 48 0;
#X connect 32 0 33 0;
#X connect 33 0 34 0;
#X connect 33 1 35 0;
#X connect 33 2 35 0;
#X connect 33 3 31 0;
#X connect 33 4 31 0;
#X connect 33 5 31 0;
#X connect 33 6 31 0;
#X connect 34 0 48 0;
#X connect 35 0 48 0;
#X connect 36 0 37 0;
#X connect 37 0 38 0;
#X connect 37 1 39 0;
#X connect 37 2 39 0;
#X connect 38 0 48 0;
#X connect 39 0 48 0;
#X connect 40 0 42 0;
#X connect 40 1 42 0;
#X connect 40 2 43 0;
#X connect 40 3 43 0;
#X connect 40 4 44 0;
#X connect 40 5 43 0;
#X connect 41 0 40 0;
#X connect 42 0 48 0;
#X connect 43 0 48 0;
#X connect 44 0 48 0;
#X connect 45 0 46 0;
#X connect 46 0 61 0;
#X connect 46 1 61 0;
#X connect 46 2 61 0;
#X connect 46 3 47 0;
#X connect 46 4 61 0;
#X connect 47 0 48 0;
#X connect 48 0 49 0;
#X connect 48 1 1 1;
#X connect 50 0 51 0;
#X connect 51 0 4 0;
#X connect 51 0 45 0;
#X connect 51 0 36 0;
#X connect 51 0 25 0;
#X connect 51 0 24 0;
#X connect 51 0 9 0;
#X connect 51 0 41 0;
#X connect 51 0 32 0;
#X connect 51 0 14 0;
#X connect 52 0 4 0;
#X connect 53 0 9 0;
#X connect 54 0 14 0;
#X connect 55 0 25 0;
#X connect 56 0 24 0;
#X connect 57 0 32 0;
#X connect 58 0 36 0;
#X connect 59 0 41 0;
#X connect 60 0 45 0;
#X connect 61 0 48 0;
