#N canvas 337 248 983 509 10;
#X obj 70 108 bng 15 250 50 0 empty empty empty 17 7 0 10 -262144 -191407
-1;
#X obj 70 144 f 0;
#X obj 96 144 + 1;
#X obj 122 144 % 2;
#X msg 70 167 get \$1 1;
#X obj 127 10 inlet;
#X obj 127 39 t a a, f 13;
#X obj 202 128 list length;
#X obj 70 190 list store;
#X floatatom 70 213 5 0 0 0 - - -;
#X obj 70 235 t b f f f, f 33;
#X obj 173 378 f 0;
#X obj 199 378 + 1;
#X obj 225 378 % 2;
#X obj 173 401 sel 0;
#X obj 173 335 tgl 15 0 empty empty empty 17 7 0 10 -262144 -1 -1 0
1;
#X obj 173 355 metro;
#X obj 200 269 expr $f2/$f1;
#X obj 70 10 inlet;
#X obj 90 108 nbx 5 15 100 20000 0 0 empty empty ms 60 7 0 10 -191407
-1 -1 4000 256;
#X obj 200 332 t f f;
#X obj 120 446 i;
#X msg 142 401 0;
#X msg 70 319 1;
#X obj 120 469 outlet;
#X obj 281 469 outlet;
#X obj 173 469 spigot;
#X obj 173 446 bang;
#X obj 70 88 tgl 15 0 empty empty empty 17 7 0 10 -262144 -1 -1 0 1
;
#X obj 281 348 - 50;
#X obj 223 417 bang;
#X obj 365 462 outlet;
#X obj 31 144 sel 0;
#X msg 31 167 0;
#X obj 280 269 expr $f2*$f1;
#X obj 200 292 spigot;
#X obj 280 292 spigot;
#X obj 90 88 hradio 15 1 0 2 empty empty div/mul 32 7 0 10 -262144
-191407 -1 0;
#X obj 314 176 sel 0 1, f 26;
#X msg 314 211 0;
#X msg 345 211 1;
#X msg 390 211 0;
#X msg 421 211 1;
#X connect 0 0 1 0;
#X connect 1 0 2 0;
#X connect 1 0 4 0;
#X connect 2 0 3 0;
#X connect 3 0 1 1;
#X connect 4 0 8 0;
#X connect 5 0 6 0;
#X connect 6 0 8 1;
#X connect 6 1 7 0;
#X connect 7 0 3 1;
#X connect 8 0 9 0;
#X connect 9 0 10 0;
#X connect 10 0 23 0;
#X connect 10 1 21 1;
#X connect 10 2 17 0;
#X connect 10 2 34 0;
#X connect 10 3 13 1;
#X connect 11 0 12 0;
#X connect 11 0 14 0;
#X connect 12 0 13 0;
#X connect 13 0 11 1;
#X connect 14 0 22 0;
#X connect 14 0 27 0;
#X connect 14 1 30 0;
#X connect 15 0 16 0;
#X connect 16 0 11 0;
#X connect 17 0 35 0;
#X connect 18 0 0 0;
#X connect 19 0 17 1;
#X connect 19 0 34 1;
#X connect 20 0 16 1;
#X connect 20 1 29 0;
#X connect 21 0 24 0;
#X connect 22 0 15 0;
#X connect 23 0 15 0;
#X connect 26 0 0 0;
#X connect 27 0 26 0;
#X connect 27 0 31 0;
#X connect 28 0 26 1;
#X connect 28 0 32 0;
#X connect 29 0 25 0;
#X connect 30 0 21 0;
#X connect 32 0 33 0;
#X connect 33 0 1 1;
#X connect 34 0 36 0;
#X connect 35 0 20 0;
#X connect 36 0 20 0;
#X connect 37 0 38 0;
#X connect 38 0 39 0;
#X connect 38 0 40 0;
#X connect 38 1 41 0;
#X connect 38 1 42 0;
#X connect 39 0 36 1;
#X connect 40 0 35 1;
#X connect 41 0 35 1;
#X connect 42 0 36 1;
#X coords 0 -1 1 1 110 75 1 60 60;
