#N canvas 0 116 1366 652 10;
#X obj 252 11 inlet;
#X obj 252 174 mtof;
#X obj 352 245 expr if($f1>0 \, $f1 \, 1);
#X obj 252 284 osc~;
#X obj 252 334 *~;
#X obj 352 318 expr if($f1>0 \, $f1 \, 0);
#X obj 352 295 clip 0 1;
#X obj 252 566 *~;
#X obj 334 527 vline~;
#X obj 253 596 outlet~;
#X msg 334 504 1 15 \, 0 \$1 15;
#X obj 380 481 r dur;
#X obj 381 527 r dec;
#X obj 333 550 pow~ 1;
#X obj 252 360 +~;
#X obj 497 255 expr if($f1>0 \, $f1 \, 1);
#X obj 410 294 osc~;
#X obj 410 344 *~;
#X obj 497 328 expr if($f1>0 \, $f1 \, 0);
#X obj 497 305 clip 0 1;
#X obj 252 53 t f b b, f 28;
#X obj 641 265 expr if($f1>0 \, $f1 \, 1);
#X obj 555 304 osc~;
#X obj 555 366 *~;
#X obj 641 350 expr if($f1>0 \, $f1 \, 0);
#X obj 641 315 clip 0 1;
#X obj 252 383 +~;
#X obj 410 271 *;
#X obj 252 261 *;
#X obj 555 281 *;
#X obj 789 276 expr if($f1>0 \, $f1 \, 1);
#X obj 700 315 osc~;
#X obj 700 389 *~;
#X obj 789 373 expr if($f1>0 \, $f1 \, 0);
#X obj 789 326 clip 0 1;
#X obj 252 406 +~;
#X obj 700 292 *;
#X obj 936 286 expr if($f1>0 \, $f1 \, 1);
#X obj 847 325 osc~;
#X obj 847 413 *~;
#X obj 936 397 expr if($f1>0 \, $f1 \, 0);
#X obj 936 336 clip 0 1;
#X obj 847 302 *;
#X obj 252 429 +~;
#X obj 1083 296 expr if($f1>0 \, $f1 \, 1);
#X obj 994 335 osc~;
#X obj 994 437 *~;
#X obj 1083 421 expr if($f1>0 \, $f1 \, 0);
#X obj 1083 346 clip 0 1;
#X obj 994 312 *;
#X obj 252 452 +~;
#X obj 334 481 f 1000;
#X obj 156 141 f;
#X obj 144 69 clip 0 127;
#X obj 144 91 t b f;
#X obj 156 168 pack 0 0 0;
#X msg 156 191 \$2 \, \$1 \$3;
#X obj 156 214 line;
#X obj 144 115 t b b b, f 14;
#X obj 184 141 f 0;
#X obj 156 237 t f f;
#X obj 246 116 r por;
#X obj 352 272 f \$4;
#X obj 497 232 f \$5;
#X obj 497 282 f \$6;
#X obj 352 222 f \$3;
#X obj 225 152 f \$2;
#X obj 641 242 f \$7;
#X obj 641 292 f \$8;
#X obj 789 253 f \$9;
#X obj 789 303 f \$10;
#X obj 936 263 f \$11;
#X obj 936 313 f \$12;
#X obj 1083 273 f \$13;
#X obj 1083 323 f \$14;
#X obj 381 550 clip 0.1 10;
#X connect 0 0 20 0;
#X connect 1 0 27 0;
#X connect 1 0 28 0;
#X connect 1 0 29 0;
#X connect 1 0 36 0;
#X connect 1 0 42 0;
#X connect 1 0 49 0;
#X connect 2 0 28 1;
#X connect 3 0 4 0;
#X connect 4 0 14 0;
#X connect 5 0 4 1;
#X connect 6 0 5 0;
#X connect 7 0 9 0;
#X connect 8 0 13 0;
#X connect 10 0 8 0;
#X connect 11 0 51 1;
#X connect 12 0 75 0;
#X connect 13 0 7 1;
#X connect 14 0 26 0;
#X connect 15 0 27 1;
#X connect 16 0 17 0;
#X connect 17 0 14 1;
#X connect 18 0 17 1;
#X connect 19 0 18 0;
#X connect 20 0 53 0;
#X connect 20 1 51 0;
#X connect 20 2 62 0;
#X connect 20 2 63 0;
#X connect 20 2 64 0;
#X connect 20 2 65 0;
#X connect 20 2 67 0;
#X connect 20 2 68 0;
#X connect 20 2 69 0;
#X connect 20 2 70 0;
#X connect 20 2 71 0;
#X connect 20 2 72 0;
#X connect 20 2 73 0;
#X connect 20 2 74 0;
#X connect 21 0 29 1;
#X connect 22 0 23 0;
#X connect 23 0 26 1;
#X connect 24 0 23 1;
#X connect 25 0 24 0;
#X connect 26 0 35 0;
#X connect 27 0 16 0;
#X connect 28 0 3 0;
#X connect 29 0 22 0;
#X connect 30 0 36 1;
#X connect 31 0 32 0;
#X connect 32 0 35 1;
#X connect 33 0 32 1;
#X connect 34 0 33 0;
#X connect 35 0 43 0;
#X connect 36 0 31 0;
#X connect 37 0 42 1;
#X connect 38 0 39 0;
#X connect 39 0 43 1;
#X connect 40 0 39 1;
#X connect 41 0 40 0;
#X connect 42 0 38 0;
#X connect 43 0 50 0;
#X connect 44 0 49 1;
#X connect 45 0 46 0;
#X connect 46 0 50 1;
#X connect 47 0 46 1;
#X connect 48 0 47 0;
#X connect 49 0 45 0;
#X connect 50 0 7 0;
#X connect 51 0 10 0;
#X connect 52 0 55 0;
#X connect 53 0 54 0;
#X connect 54 0 58 0;
#X connect 54 1 52 1;
#X connect 55 0 56 0;
#X connect 56 0 57 0;
#X connect 57 0 60 0;
#X connect 58 0 52 0;
#X connect 58 1 59 0;
#X connect 58 2 66 0;
#X connect 59 0 55 1;
#X connect 60 0 59 1;
#X connect 60 1 1 0;
#X connect 61 0 66 1;
#X connect 62 0 6 0;
#X connect 63 0 15 0;
#X connect 64 0 19 0;
#X connect 65 0 2 0;
#X connect 66 0 55 2;
#X connect 67 0 21 0;
#X connect 68 0 25 0;
#X connect 69 0 30 0;
#X connect 70 0 34 0;
#X connect 71 0 37 0;
#X connect 72 0 41 0;
#X connect 73 0 44 0;
#X connect 74 0 48 0;
#X connect 75 0 13 1;
