#N canvas 0 116 1366 652 10;
#X obj 307 51 noise~;
#X obj 308 81 lop~ 50;
#X obj 308 105 lop~ 50;
#X obj 308 129 lop~ 50;
#X obj 308 153 lop~ 50;
#X obj 478 51 noise~;
#X obj 478 75 hip~ 50;
#X obj 478 99 hip~ 50;
#X obj 478 123 hip~ 50;
#X obj 478 147 hip~ 50;
#X obj 478 171 lop~ 250;
#X obj 478 195 lop~ 250;
#X obj 478 219 lop~ 250;
#X obj 478 243 lop~ 250;
#X obj 646 49 noise~;
#X obj 646 73 hip~ 500;
#X obj 646 97 hip~ 500;
#X obj 646 121 hip~ 500;
#X obj 646 145 hip~ 500;
#X obj 646 169 lop~ 1000;
#X obj 646 193 lop~ 1000;
#X obj 646 217 lop~ 1000;
#X obj 646 241 lop~ 1000;
#X obj 816 52 noise~;
#X obj 816 76 hip~ 1000;
#X obj 816 100 hip~ 1000;
#X obj 816 124 hip~ 1000;
#X obj 816 148 hip~ 1000;
#X obj 816 172 lop~ 3000;
#X obj 816 196 lop~ 3000;
#X obj 816 220 lop~ 3000;
#X obj 816 244 lop~ 3000;
#X obj 986 51 noise~;
#X obj 986 75 hip~ 7000;
#X obj 986 99 hip~ 7000;
#X obj 986 123 hip~ 7000;
#X obj 986 147 hip~ 7000;
#X obj 986 171 lop~ 15000;
#X obj 986 195 lop~ 15000;
#X obj 986 219 lop~ 15000;
#X obj 986 243 lop~ 15000;
#X obj 1156 50 noise~;
#X obj 1156 74 hip~ 15000;
#X obj 1156 98 hip~ 15000;
#X obj 1156 122 hip~ 15000;
#X obj 1156 146 hip~ 15000;
#X obj 1156 170 lop~ 20000;
#X obj 1156 194 lop~ 20000;
#X obj 1156 218 lop~ 20000;
#X obj 1156 242 lop~ 20000;
#X obj 58 55 vsl 15 60 0 1 0 0 empty empty empty 0 -9 0 10 -262144
-1 -1 0 1;
#X obj 130 55 vsl 15 60 0 1 0 0 empty empty empty 0 -9 0 10 -128992
-4160 -1 0 1;
#X obj 76 55 vsl 15 60 0 1 0 0 empty empty empty 0 -9 0 10 -228856
-86277 -1 0 1;
#X obj 94 55 vsl 15 60 0 1 0 0 empty empty empty 0 -9 0 10 -191407
-260097 -1 0 1;
#X obj 112 55 vsl 15 60 0 1 0 0 empty empty empty 0 -9 0 10 -162280
-257985 -1 0 1;
#X obj 148 55 vsl 15 60 0 1 0 0 empty empty empty 0 -9 0 10 -99865
-261234 -1 5900 1;
#X obj 166 55 vsl 15 60 0 1 0 0 empty empty empty 0 -9 0 10 -66577
-262144 -1 5900 1;
#X obj 166 271 pack f 50;
#X obj 166 296 line~;
#X obj 151 347 *~;
#X obj 81 347 *~;
#X obj 81 272 noise~;
#X obj 97 372 osc~;
#X obj 81 444 *~;
#X obj 166 372 osc~;
#X obj 150 444 *~;
#X obj 97 222 t f f, f 6;
#X obj 97 395 +~ 1;
#X obj 97 418 /~ 2;
#X obj 166 395 +~ 1;
#X obj 166 418 /~ 2;
#X obj 97 245 / 2;
#X obj 130 245 / 3;
#X obj 394 331 pack f 50;
#X obj 394 356 line~;
#X obj 379 407 *~;
#X obj 309 407 *~;
#X obj 325 432 osc~;
#X obj 309 504 *~;
#X obj 394 432 osc~;
#X obj 378 504 *~;
#X obj 325 282 t f f, f 6;
#X obj 325 455 +~ 1;
#X obj 325 478 /~ 2;
#X obj 394 455 +~ 1;
#X obj 394 478 /~ 2;
#X obj 325 305 / 2;
#X obj 358 305 / 3;
#X obj 81 468 *~ 0.025;
#X obj 150 467 *~ 0.025;
#X obj 309 527 *~ 8;
#X obj 378 527 *~ 8;
#X obj 564 331 pack f 50;
#X obj 564 356 line~;
#X obj 549 407 *~;
#X obj 479 407 *~;
#X obj 495 432 osc~;
#X obj 479 504 *~;
#X obj 564 432 osc~;
#X obj 548 504 *~;
#X obj 495 282 t f f, f 6;
#X obj 495 455 +~ 1;
#X obj 495 478 /~ 2;
#X obj 564 455 +~ 1;
#X obj 564 478 /~ 2;
#X obj 495 305 / 2;
#X obj 528 305 / 3;
#X obj 479 527 *~ 4;
#X obj 548 527 *~ 4;
#X obj 732 331 pack f 50;
#X obj 732 356 line~;
#X obj 717 407 *~;
#X obj 647 407 *~;
#X obj 663 432 osc~;
#X obj 647 504 *~;
#X obj 732 432 osc~;
#X obj 716 504 *~;
#X obj 663 282 t f f, f 6;
#X obj 663 455 +~ 1;
#X obj 663 478 /~ 2;
#X obj 732 455 +~ 1;
#X obj 732 478 /~ 2;
#X obj 663 305 / 2;
#X obj 696 305 / 3;
#X obj 647 527 *~ 2;
#X obj 716 527 *~ 2;
#X obj 902 331 pack f 50;
#X obj 902 356 line~;
#X obj 887 407 *~;
#X obj 817 407 *~;
#X obj 833 432 osc~;
#X obj 817 504 *~;
#X obj 902 432 osc~;
#X obj 886 504 *~;
#X obj 833 282 t f f, f 6;
#X obj 833 455 +~ 1;
#X obj 833 478 /~ 2;
#X obj 902 455 +~ 1;
#X obj 902 478 /~ 2;
#X obj 833 305 / 2;
#X obj 866 305 / 3;
#X obj 817 527 *~ 1;
#X obj 886 527 *~ 1;
#X obj 1072 331 pack f 50;
#X obj 1072 356 line~;
#X obj 1057 407 *~;
#X obj 987 407 *~;
#X obj 1003 432 osc~;
#X obj 987 504 *~;
#X obj 1072 432 osc~;
#X obj 1056 504 *~;
#X obj 1003 282 t f f, f 6;
#X obj 1003 455 +~ 1;
#X obj 1003 478 /~ 2;
#X obj 1072 455 +~ 1;
#X obj 1072 478 /~ 2;
#X obj 1003 305 / 2;
#X obj 1036 305 / 3;
#X obj 987 527 *~ 1;
#X obj 1056 527 *~ 1;
#X obj 1242 331 pack f 50;
#X obj 1242 356 line~;
#X obj 1227 407 *~;
#X obj 1157 407 *~;
#X obj 1173 432 osc~;
#X obj 1157 504 *~;
#X obj 1242 432 osc~;
#X obj 1226 504 *~;
#X obj 1173 282 t f f, f 6;
#X obj 1173 455 +~ 1;
#X obj 1173 478 /~ 2;
#X obj 1242 455 +~ 1;
#X obj 1242 478 /~ 2;
#X obj 1173 305 / 2;
#X obj 1206 305 / 3;
#X obj 1226 527 *~ 1;
#X obj 1157 527 *~ 1;
#X obj 80 552 clip~ -1 1;
#X obj 208 553 clip~ -1 1;
#X obj 80 576 outlet~;
#X obj 208 576 outlet~;
#X obj 81 491 throw~ \$0-L;
#X obj 154 491 throw~ \$0-R;
#X obj 80 529 catch~ \$0-L;
#X obj 208 530 catch~ \$0-R;
#X obj 309 551 throw~ \$0-L;
#X obj 383 551 throw~ \$0-R;
#X obj 479 551 throw~ \$0-L;
#X obj 552 551 throw~ \$0-R;
#X obj 647 551 throw~ \$0-L;
#X obj 720 551 throw~ \$0-R;
#X obj 817 551 throw~ \$0-L;
#X obj 890 551 throw~ \$0-R;
#X obj 987 551 throw~ \$0-L;
#X obj 1060 551 throw~ \$0-R;
#X obj 1157 551 throw~ \$0-L;
#X obj 1231 551 throw~ \$0-R;
#X connect 0 0 1 0;
#X connect 1 0 2 0;
#X connect 2 0 3 0;
#X connect 3 0 4 0;
#X connect 4 0 76 0;
#X connect 4 0 75 0;
#X connect 5 0 6 0;
#X connect 6 0 7 0;
#X connect 7 0 8 0;
#X connect 8 0 9 0;
#X connect 9 0 10 0;
#X connect 10 0 11 0;
#X connect 11 0 12 0;
#X connect 12 0 13 0;
#X connect 13 0 95 0;
#X connect 13 0 94 0;
#X connect 14 0 15 0;
#X connect 15 0 16 0;
#X connect 16 0 17 0;
#X connect 17 0 18 0;
#X connect 18 0 19 0;
#X connect 19 0 20 0;
#X connect 20 0 21 0;
#X connect 21 0 22 0;
#X connect 22 0 112 0;
#X connect 22 0 111 0;
#X connect 23 0 24 0;
#X connect 24 0 25 0;
#X connect 25 0 26 0;
#X connect 26 0 27 0;
#X connect 27 0 28 0;
#X connect 28 0 29 0;
#X connect 29 0 30 0;
#X connect 30 0 31 0;
#X connect 31 0 129 0;
#X connect 31 0 128 0;
#X connect 32 0 33 0;
#X connect 33 0 34 0;
#X connect 34 0 35 0;
#X connect 35 0 36 0;
#X connect 36 0 37 0;
#X connect 37 0 38 0;
#X connect 38 0 39 0;
#X connect 39 0 40 0;
#X connect 40 0 146 0;
#X connect 40 0 145 0;
#X connect 41 0 42 0;
#X connect 42 0 43 0;
#X connect 43 0 44 0;
#X connect 44 0 45 0;
#X connect 45 0 46 0;
#X connect 46 0 47 0;
#X connect 47 0 48 0;
#X connect 48 0 49 0;
#X connect 49 0 163 0;
#X connect 49 0 162 0;
#X connect 50 0 73 0;
#X connect 50 0 81 0;
#X connect 51 0 151 0;
#X connect 51 0 143 0;
#X connect 52 0 100 0;
#X connect 52 0 92 0;
#X connect 53 0 117 0;
#X connect 53 0 109 0;
#X connect 54 0 134 0;
#X connect 54 0 126 0;
#X connect 55 0 168 0;
#X connect 55 0 160 0;
#X connect 56 0 57 0;
#X connect 56 0 66 0;
#X connect 57 0 58 0;
#X connect 58 0 59 1;
#X connect 58 0 60 1;
#X connect 59 0 65 0;
#X connect 60 0 63 0;
#X connect 61 0 60 0;
#X connect 61 0 59 0;
#X connect 62 0 67 0;
#X connect 63 0 88 0;
#X connect 64 0 69 0;
#X connect 65 0 89 0;
#X connect 66 0 71 0;
#X connect 66 1 72 0;
#X connect 67 0 68 0;
#X connect 68 0 63 1;
#X connect 69 0 70 0;
#X connect 70 0 65 1;
#X connect 71 0 62 0;
#X connect 72 0 64 0;
#X connect 73 0 74 0;
#X connect 74 0 75 1;
#X connect 74 0 76 1;
#X connect 75 0 80 0;
#X connect 76 0 78 0;
#X connect 77 0 82 0;
#X connect 78 0 90 0;
#X connect 79 0 84 0;
#X connect 80 0 91 0;
#X connect 81 0 86 0;
#X connect 81 1 87 0;
#X connect 82 0 83 0;
#X connect 83 0 78 1;
#X connect 84 0 85 0;
#X connect 85 0 80 1;
#X connect 86 0 77 0;
#X connect 87 0 79 0;
#X connect 88 0 181 0;
#X connect 89 0 182 0;
#X connect 90 0 185 0;
#X connect 91 0 186 0;
#X connect 92 0 93 0;
#X connect 93 0 94 1;
#X connect 93 0 95 1;
#X connect 94 0 99 0;
#X connect 95 0 97 0;
#X connect 96 0 101 0;
#X connect 97 0 107 0;
#X connect 98 0 103 0;
#X connect 99 0 108 0;
#X connect 100 0 105 0;
#X connect 100 1 106 0;
#X connect 101 0 102 0;
#X connect 102 0 97 1;
#X connect 103 0 104 0;
#X connect 104 0 99 1;
#X connect 105 0 96 0;
#X connect 106 0 98 0;
#X connect 107 0 187 0;
#X connect 108 0 188 0;
#X connect 109 0 110 0;
#X connect 110 0 111 1;
#X connect 110 0 112 1;
#X connect 111 0 116 0;
#X connect 112 0 114 0;
#X connect 113 0 118 0;
#X connect 114 0 124 0;
#X connect 115 0 120 0;
#X connect 116 0 125 0;
#X connect 117 0 122 0;
#X connect 117 1 123 0;
#X connect 118 0 119 0;
#X connect 119 0 114 1;
#X connect 120 0 121 0;
#X connect 121 0 116 1;
#X connect 122 0 113 0;
#X connect 123 0 115 0;
#X connect 124 0 189 0;
#X connect 125 0 190 0;
#X connect 126 0 127 0;
#X connect 127 0 128 1;
#X connect 127 0 129 1;
#X connect 128 0 133 0;
#X connect 129 0 131 0;
#X connect 130 0 135 0;
#X connect 131 0 141 0;
#X connect 132 0 137 0;
#X connect 133 0 142 0;
#X connect 134 0 139 0;
#X connect 134 1 140 0;
#X connect 135 0 136 0;
#X connect 136 0 131 1;
#X connect 137 0 138 0;
#X connect 138 0 133 1;
#X connect 139 0 130 0;
#X connect 140 0 132 0;
#X connect 141 0 191 0;
#X connect 142 0 192 0;
#X connect 143 0 144 0;
#X connect 144 0 145 1;
#X connect 144 0 146 1;
#X connect 145 0 150 0;
#X connect 146 0 148 0;
#X connect 147 0 152 0;
#X connect 148 0 158 0;
#X connect 149 0 154 0;
#X connect 150 0 159 0;
#X connect 151 0 156 0;
#X connect 151 1 157 0;
#X connect 152 0 153 0;
#X connect 153 0 148 1;
#X connect 154 0 155 0;
#X connect 155 0 150 1;
#X connect 156 0 147 0;
#X connect 157 0 149 0;
#X connect 158 0 193 0;
#X connect 159 0 194 0;
#X connect 160 0 161 0;
#X connect 161 0 162 1;
#X connect 161 0 163 1;
#X connect 162 0 167 0;
#X connect 163 0 165 0;
#X connect 164 0 169 0;
#X connect 165 0 176 0;
#X connect 166 0 171 0;
#X connect 167 0 175 0;
#X connect 168 0 173 0;
#X connect 168 1 174 0;
#X connect 169 0 170 0;
#X connect 170 0 165 1;
#X connect 171 0 172 0;
#X connect 172 0 167 1;
#X connect 173 0 164 0;
#X connect 174 0 166 0;
#X connect 175 0 196 0;
#X connect 176 0 195 0;
#X connect 177 0 179 0;
#X connect 178 0 180 0;
#X connect 183 0 177 0;
#X connect 184 0 178 0;
#X coords 0 -1 1 1 140 100 1 50 25;
