#N canvas 425 193 752 490 10;
#X obj 46 15 inlet;
#X obj 46 58 t b;
#X obj 46 131 f 0;
#X obj 72 131 + 1;
#X obj 61 85 r sync;
#X msg 61 108 0;
#X obj 46 177 * 2;
#X obj 46 217 + 0, f 10;
#X obj 103 15 inlet;
#X obj 46 154 t f f;
#X obj 46 259 + 0, f 13;
#X msg 154 216 0;
#X obj 46 305 outlet;
#X msg 121 216 \$1;
#X obj 99 131 % \$1;
#X obj 121 193 f \$3;
#X obj 121 170 sel \$2;
#X obj 154 15 inlet;
#X connect 0 0 1 0;
#X connect 1 0 2 0;
#X connect 2 0 3 0;
#X connect 2 0 9 0;
#X connect 3 0 14 0;
#X connect 4 0 5 0;
#X connect 5 0 2 1;
#X connect 6 0 7 0;
#X connect 7 0 10 0;
#X connect 8 0 7 1;
#X connect 9 0 6 0;
#X connect 9 1 16 0;
#X connect 10 0 12 0;
#X connect 11 0 10 1;
#X connect 13 0 10 1;
#X connect 14 0 2 1;
#X connect 15 0 13 0;
#X connect 16 0 15 0;
#X connect 16 1 11 0;
#X connect 17 0 16 1;
