#N canvas 116 239 450 432 10;
#X obj 167 247 vline~;
#X msg 167 225 \$1 \$2 \, 0 \$3 \$2;
#X obj 167 203 pack 0 0 0, f 14;
#X obj 167 158 t b b b, f 14;
#X obj 57 40 inlet;
#X obj 57 213 mtof;
#X obj 57 258 osc~;
#X obj 57 85 t b f;
#X obj 57 236 * 1;
#X obj 57 299 *~;
#X obj 57 367 outlet~;
#X obj 84 107 clip 0 127;
#X obj 167 284 pow~;
#X obj 57 133 t b b b b, f 28;
#X obj 57 190 f 0, f 5;
#X obj 112 220 f \$1;
#X obj 167 180 f \$2;
#X obj 207 180 f \$3;
#X obj 248 180 f \$4;
#X obj 221 268 f \$5;
#X connect 0 0 12 0;
#X connect 1 0 0 0;
#X connect 2 0 1 0;
#X connect 3 0 16 0;
#X connect 3 1 17 0;
#X connect 3 2 18 0;
#X connect 4 0 7 0;
#X connect 5 0 8 0;
#X connect 6 0 9 0;
#X connect 7 0 13 0;
#X connect 7 1 11 0;
#X connect 8 0 6 0;
#X connect 9 0 10 0;
#X connect 11 0 14 1;
#X connect 12 0 9 1;
#X connect 13 0 14 0;
#X connect 13 1 15 0;
#X connect 13 2 3 0;
#X connect 13 3 19 0;
#X connect 14 0 5 0;
#X connect 15 0 8 1;
#X connect 16 0 2 0;
#X connect 17 0 2 1;
#X connect 18 0 2 2;
#X connect 19 0 12 1;
