#N canvas 594 116 666 571 10;
#X floatatom 31 52 5 0 0 1 tone - -;
#X obj 31 28 inlet;
#X obj 43 201 mtof;
#X obj 43 246 osc~;
#X obj 129 28 inlet;
#X floatatom 129 73 5 1 16 1 over - -;
#X floatatom 202 73 5 0 0 1 amp - -;
#X obj 202 28 inlet;
#X obj 275 28 inlet;
#X floatatom 275 96 5 0 0 1 A - -;
#X obj 329 28 inlet;
#X floatatom 329 96 5 0 0 1 S - -;
#X obj 390 28 inlet;
#X floatatom 390 96 5 0 0 1 R - -;
#X obj 449 28 inlet;
#X floatatom 449 73 5 1 8 1 pow - -;
#X obj 58 95 clip 1 127;
#X obj 202 95 clip 0 1;
#X obj 449 95 clip 1 8;
#X obj 43 178 f;
#X obj 187 178 f;
#X obj 434 178 f;
#X obj 31 73 t b f;
#X obj 31 121 t b b b b b b b, f 67;
#X obj 43 224 * 1;
#X obj 114 178 f 1;
#X obj 129 95 clip 1 16;
#X floatatom 114 209 5 0 0 0 - - -;
#X obj 114 388 + 1;
#X obj 114 411 outlet;
#X obj 43 317 *~;
#X obj 187 201 t f b, f 7;
#X obj 226 246 + 1;
#X floatatom 226 292 5 0 0 0 - - -;
#X floatatom 187 337 5 0 0 0 - - -;
#X obj 226 411 outlet;
#X obj 226 223 random 98;
#X obj 226 269 / 100;
#X msg 306 256 1 \$1 \, 0 \$3 \$2;
#X obj 306 279 vline~;
#X obj 306 234 pack f f f;
#X obj 363 178 f 100;
#X obj 314 178 f 0;
#X obj 254 178 f 10;
#X obj 329 154 +;
#X obj 340 70 t b f;
#X obj 306 302 pow~ 1;
#X obj 44 411 outlet~;
#X obj 43 352 *~ 0.1;
#X obj 44 6 r tone;
#X obj 142 6 r over;
#X obj 210 6 r amp;
#X obj 285 6 r A;
#X obj 340 6 r S;
#X obj 400 6 r R;
#X obj 461 6 r pow;
#X connect 0 0 22 0;
#X connect 1 0 0 0;
#X connect 2 0 24 0;
#X connect 3 0 30 0;
#X connect 4 0 5 0;
#X connect 5 0 26 0;
#X connect 6 0 17 0;
#X connect 7 0 6 0;
#X connect 8 0 9 0;
#X connect 9 0 43 1;
#X connect 9 0 45 0;
#X connect 10 0 11 0;
#X connect 11 0 44 0;
#X connect 12 0 13 0;
#X connect 13 0 41 1;
#X connect 14 0 15 0;
#X connect 15 0 18 0;
#X connect 16 0 19 1;
#X connect 17 0 20 1;
#X connect 18 0 21 1;
#X connect 19 0 2 0;
#X connect 20 0 31 0;
#X connect 21 0 46 1;
#X connect 22 0 23 0;
#X connect 22 1 16 0;
#X connect 23 0 19 0;
#X connect 23 1 25 0;
#X connect 23 2 20 0;
#X connect 23 3 43 0;
#X connect 23 4 42 0;
#X connect 23 5 41 0;
#X connect 23 6 21 0;
#X connect 24 0 3 0;
#X connect 25 0 27 0;
#X connect 26 0 25 1;
#X connect 27 0 24 1;
#X connect 27 0 28 0;
#X connect 28 0 29 0;
#X connect 30 0 48 0;
#X connect 31 0 34 0;
#X connect 31 1 36 0;
#X connect 32 0 37 0;
#X connect 33 0 35 0;
#X connect 34 0 48 1;
#X connect 36 0 32 0;
#X connect 37 0 33 0;
#X connect 38 0 39 0;
#X connect 39 0 46 0;
#X connect 40 0 38 0;
#X connect 41 0 40 2;
#X connect 42 0 40 1;
#X connect 43 0 40 0;
#X connect 44 0 42 1;
#X connect 45 0 11 0;
#X connect 45 1 44 1;
#X connect 46 0 30 1;
#X connect 48 0 47 0;
#X connect 49 0 0 0;
#X connect 50 0 5 0;
#X connect 51 0 6 0;
#X connect 52 0 9 0;
#X connect 53 0 11 0;
#X connect 54 0 13 0;
#X connect 55 0 15 0;
