#N canvas 211 134 713 574 10;
#X obj 54 356 mtof;
#X obj 54 379 osc~;
#X floatatom 27 37 5 0 0 0 - - -;
#X obj 27 14 inlet;
#X obj 27 58 t b f;
#X obj 53 125 bng 15 250 50 0 empty empty empty 17 7 0 10 -262144 -1
-1;
#X obj 52 426 outlet~;
#X obj 53 404 *~;
#X floatatom 103 389 5 0 0 0 - - -;
#X obj 103 367 line;
#X msg 103 345 \$1 500;
#X obj 54 330 +, f 4;
#X obj 74 125 vradio 15 1 0 8 empty empty empty 0 -8 0 10 -262144 -1
-1 7;
#X obj 74 279 sel 0 1 2 3 4 5 6 7, f 46;
#X obj 74 302 + 0;
#X obj 108 302 + 4;
#X obj 142 302 + 7;
#X obj 176 302 + 12;
#X obj 210 302 + 24;
#X obj 278 302 - 12;
#X obj 244 302 - 5;
#X obj 312 302 - 24;
#X obj 53 152 vsl 15 90 0 0.1 0 0 empty empty empty 0 -9 0 10 -228856
-1 -1 2800 1;
#X text 102 124 0;
#X text 96 138 +4;
#X text 96 153 +7;
#X text 90 168 +12;
#X text 90 183 +24;
#X text 96 198 -5;
#X text 90 213 -12;
#X text 90 228 -24;
#X connect 0 0 1 0;
#X connect 1 0 7 0;
#X connect 2 0 4 0;
#X connect 3 0 2 0;
#X connect 4 0 5 0;
#X connect 4 1 11 0;
#X connect 7 0 6 0;
#X connect 8 0 7 1;
#X connect 9 0 8 0;
#X connect 10 0 9 0;
#X connect 11 0 0 0;
#X connect 12 0 13 0;
#X connect 13 0 14 0;
#X connect 13 1 15 0;
#X connect 13 2 16 0;
#X connect 13 3 17 0;
#X connect 13 4 18 0;
#X connect 13 5 20 0;
#X connect 13 6 19 0;
#X connect 13 7 21 0;
#X connect 14 0 11 1;
#X connect 15 0 11 1;
#X connect 16 0 11 1;
#X connect 17 0 11 1;
#X connect 18 0 11 1;
#X connect 19 0 11 1;
#X connect 20 0 11 1;
#X connect 21 0 11 1;
#X connect 22 0 10 0;
#X coords 0 -1 1 1 75 156 1 45 95;
