#N canvas 139 327 621 401 10;
#X obj 41 30 inlet~;
#X obj 41 209 *~;
#N canvas 6 116 450 250 (subpatch) 0;
#X array \$0-out 441 float 2;
#X coords 0 1 441 -1 80 35 1 0 0;
#X restore 210 46 graph;
#X obj 213 85 hsl 95 15 0 100 0 0 empty empty empty -2 -8 0 10 -1 -262144
-1 8200 1;
#X obj 210 170 dbtorms;
#X obj 210 193 t f f;
#X obj 237 217 sel 0;
#X obj 294 46 tgl 15 0 empty empty empty 17 7 0 10 -1 -262144 -1 0
1;
#X msg 383 82 \; pd dsp \$1;
#X obj 383 59 > 0;
#X obj 294 66 tgl 15 0 empty empty empty 17 7 0 10 -262144 -1 -1 0
1;
#X obj 294 326 metro 100;
#X obj 294 349 tabwrite~ \$0-out;
#X obj 131 30 inlet~;
#X obj 131 248 *~;
#X obj 42 288 dac~;
#X obj 131 369 outlet~ R;
#X obj 18 370 outlet~ L;
#X obj 41 120 hip~ 10;
#X obj 131 120 hip~ 10;
#X obj 210 119 pack \$1 50;
#X obj 210 142 line;
#X obj 41 232 clip~ -1 1;
#X obj 131 271 clip~ -1 1;
#X obj 99 334 /~ 2;
#X connect 0 0 18 0;
#X connect 1 0 22 0;
#X connect 3 0 20 0;
#X connect 4 0 5 0;
#X connect 5 0 1 1;
#X connect 5 0 14 1;
#X connect 5 1 6 0;
#X connect 6 0 7 0;
#X connect 6 1 7 0;
#X connect 7 0 9 0;
#X connect 9 0 8 0;
#X connect 10 0 11 0;
#X connect 11 0 12 0;
#X connect 13 0 19 0;
#X connect 14 0 23 0;
#X connect 18 0 1 0;
#X connect 19 0 14 0;
#X connect 20 0 21 0;
#X connect 21 0 4 0;
#X connect 22 0 15 0;
#X connect 22 0 17 0;
#X connect 22 0 24 0;
#X connect 23 0 15 1;
#X connect 23 0 16 0;
#X connect 23 0 24 0;
#X connect 24 0 12 0;
#X coords 0 -1 1 1 120 100 1 200 10;
