#N canvas 325 179 609 545 10;
#X obj 105 36 inlet;
#X obj 223 36 inlet;
#X obj 223 59 t a a;
#X obj 250 89 list length;
#X obj 105 82 t b;
#X obj 105 105 f 0;
#X obj 132 105 + 1;
#X obj 160 105 % 2;
#X obj 105 174 list store;
#X msg 105 151 get \$1 1;
#X obj 105 197 % 3;
#X obj 105 389 route 0 1 2, f 35;
#X obj 105 412 i 0;
#X obj 174 412 i 5;
#X obj 243 412 i 10;
#X obj 105 128 t f b, f 24;
#X obj 246 151 f 0;
#X obj 273 151 + 1;
#X obj 301 151 % \$1;
#X obj 163 36 inlet;
#X obj 246 174 sel 0;
#X obj 246 197 random 3;
#X obj 246 220 t f b, f 8;
#X obj 291 243 random 3;
#X obj 291 266 sel 0 1 2, f 18;
#X obj 105 435 + 0;
#X obj 174 435 + 0;
#X obj 243 435 + 0;
#X msg 291 290 -1;
#X msg 326 290 0;
#X msg 361 290 1;
#X obj 246 333 pack 0 0;
#X obj 246 356 route 0 1 2;
#X obj 105 509 outlet;
#X connect 0 0 4 0;
#X connect 1 0 2 0;
#X connect 2 0 8 1;
#X connect 2 1 3 0;
#X connect 3 0 7 1;
#X connect 4 0 5 0;
#X connect 5 0 6 0;
#X connect 5 0 15 0;
#X connect 6 0 7 0;
#X connect 7 0 5 1;
#X connect 8 0 10 0;
#X connect 9 0 8 0;
#X connect 10 0 11 0;
#X connect 11 0 12 0;
#X connect 11 1 13 0;
#X connect 11 2 14 0;
#X connect 12 0 25 0;
#X connect 13 0 26 0;
#X connect 14 0 27 0;
#X connect 15 0 9 0;
#X connect 15 1 16 0;
#X connect 16 0 17 0;
#X connect 16 0 20 0;
#X connect 17 0 18 0;
#X connect 18 0 16 1;
#X connect 19 0 18 1;
#X connect 20 0 21 0;
#X connect 21 0 22 0;
#X connect 22 0 31 0;
#X connect 22 1 23 0;
#X connect 23 0 24 0;
#X connect 24 0 28 0;
#X connect 24 1 29 0;
#X connect 24 2 30 0;
#X connect 25 0 33 0;
#X connect 26 0 33 0;
#X connect 27 0 33 0;
#X connect 28 0 31 1;
#X connect 29 0 31 1;
#X connect 30 0 31 1;
#X connect 31 0 32 0;
#X connect 32 0 25 1;
#X connect 32 1 26 1;
#X connect 32 2 27 1;
