#N canvas 540 282 450 435 10;
#X obj 38 237 makenote;
#X floatatom 69 215 5 0 0 0 - - -;
#X floatatom 104 222 5 0 0 0 - - -;
#X obj 38 260 noteout;
#X obj 38 22 inlet;
#X obj 38 45 clip 0 127;
#X obj 38 215 + 0;
#X obj 72 119 hsl 60 15 0 127 0 0 empty empty vol 65 7 0 10 -262144
-1 -1 0 1;
#X obj 72 138 hsl 60 15 0 127 0 0 empty empty dur 65 7 0 10 -228856
-1 -1 0 1;
#X obj 104 199 * 50;
#X obj 97 157 nbx 3 14 0 127 0 0 empty empty chn 40 7 0 10 -1 -262144
-1 0 256;
#X obj 98 101 nbx 3 14 -24 24 0 0 empty empty off 40 7 0 10 -262144
-1 -1 0 256;
#X obj 115 22 inlet;
#X obj 76 22 inlet;
#X connect 0 0 3 0;
#X connect 0 1 3 1;
#X connect 1 0 0 1;
#X connect 2 0 0 2;
#X connect 4 0 5 0;
#X connect 5 0 6 0;
#X connect 6 0 0 0;
#X connect 7 0 1 0;
#X connect 8 0 9 0;
#X connect 9 0 2 0;
#X connect 10 0 3 2;
#X connect 11 0 6 1;
#X connect 12 0 0 2;
#X connect 13 0 7 0;
#X coords 0 -1 1 1 100 105 1 60 75;
