#N canvas 328 260 775 410 10;
#X obj 91 16 inlet;
#X obj 91 81 bng 15 250 50 0 empty empty trg 18 8 0 10 -262144 -1 -1
;
#X obj 91 176 t b b;
#X obj 91 199 f 0;
#X floatatom 42 215 5 0 0 0 - - -;
#X obj 91 245 t f f f;
#X obj 91 268 abs;
#X obj 91 291 > 2;
#X obj 91 314 sel 1;
#X obj 91 337 s reset;
#X obj 111 387 outlet;
#X obj 280 238 t f f f;
#X obj 280 261 abs;
#X obj 280 284 > 2;
#X obj 280 307 sel 1;
#X obj 280 330 s reset;
#X obj 300 387 outlet;
#X obj 280 215 expr 2*$f1*$f2+$f3;
#X obj 91 222 expr $f1*$f1-$f2*$f2+$f3;
#X obj 332 192 f 0;
#X floatatom 405 208 5 0 0 0 - - -;
#X obj 155 56 r reset;
#X obj 155 80 bng 15 250 50 0 empty empty reset 18 8 0 10 -262144 -1
-1;
#X msg 155 146 0;
#X obj 206 56 loadbang;
#X obj 155 16 inlet;
#X obj 232 16 inlet;
#X obj 232 142 f \$1;
#X text 199 141 real;
#X obj 385 16 inlet;
#X text 352 138 imgn;
#X obj 385 139 f \$2;
#X connect 0 0 1 0;
#X connect 1 0 2 0;
#X connect 2 0 3 0;
#X connect 2 1 19 0;
#X connect 3 0 4 0;
#X connect 3 0 17 0;
#X connect 3 0 18 0;
#X connect 5 0 6 0;
#X connect 5 1 10 0;
#X connect 5 2 3 1;
#X connect 6 0 7 0;
#X connect 7 0 8 0;
#X connect 8 0 9 0;
#X connect 11 0 12 0;
#X connect 11 1 16 0;
#X connect 11 2 19 1;
#X connect 12 0 13 0;
#X connect 13 0 14 0;
#X connect 14 0 15 0;
#X connect 17 0 11 0;
#X connect 18 0 5 0;
#X connect 19 0 17 1;
#X connect 19 0 20 0;
#X connect 19 0 18 1;
#X connect 21 0 22 0;
#X connect 22 0 23 0;
#X connect 23 0 3 1;
#X connect 23 0 19 1;
#X connect 24 0 23 0;
#X connect 24 0 27 0;
#X connect 24 0 31 0;
#X connect 25 0 22 0;
#X connect 26 0 27 0;
#X connect 27 0 18 2;
#X connect 29 0 31 0;
#X connect 31 0 17 2;
