#N canvas 287 262 747 425 10;
#X obj 67 13 inlet;
#X obj 337 13 inlet;
#X obj 136 222 pipe 0;
#X obj 169 199 * 1;
#X obj 203 222 pipe 0;
#X obj 236 199 * 2;
#X obj 67 358 outlet;
#X obj 136 358 outlet;
#X obj 203 358 outlet;
#X obj 289 358 outlet;
#X obj 316 128 * 3;
#X obj 67 58 t f b;
#X obj 67 96 t f f;
#X obj 67 309 + 0;
#X msg 82 287 0;
#X msg 112 293 12;
#X obj 203 309 + 0;
#X msg 218 287 0;
#X msg 249 293 -12;
#X obj 215 249 sel 0 1 2;
#X obj 316 74 f \$3;
#X obj 236 11 inlet;
#X obj 215 39 f \$2;
#X obj 215 64 clip 0 2;
#X obj 136 135 t f f;
#X obj 136 112 + \$1;
#X obj 203 112 + \$1;
#X obj 203 135 t f f b;
#X obj 289 175 random 3;
#X obj 289 198 sel 0 1 2, f 15;
#X obj 289 249 f 0;
#X obj 318 249 f 0;
#X obj 347 249 f 0;
#X obj 94 120 s n1;
#X obj 163 158 s n2;
#X obj 222 158 s n3;
#X obj 304 226 r n1;
#X obj 289 151 del 0;
#X obj 334 226 r n2;
#X obj 364 226 r n3;
#X obj 289 293 + 12;
#X connect 0 0 11 0;
#X connect 1 0 20 1;
#X connect 2 0 7 0;
#X connect 3 0 2 1;
#X connect 4 0 16 0;
#X connect 5 0 4 1;
#X connect 10 0 37 1;
#X connect 11 0 12 0;
#X connect 11 1 20 0;
#X connect 11 1 22 0;
#X connect 12 0 13 0;
#X connect 12 1 25 0;
#X connect 12 1 33 0;
#X connect 13 0 6 0;
#X connect 14 0 13 1;
#X connect 15 0 13 1;
#X connect 16 0 8 0;
#X connect 17 0 16 1;
#X connect 18 0 16 1;
#X connect 19 0 14 0;
#X connect 19 0 17 0;
#X connect 19 1 15 0;
#X connect 19 1 17 0;
#X connect 19 2 14 0;
#X connect 19 2 18 0;
#X connect 20 0 10 0;
#X connect 20 0 5 0;
#X connect 20 0 3 0;
#X connect 21 0 22 1;
#X connect 22 0 23 0;
#X connect 23 0 19 0;
#X connect 24 0 2 0;
#X connect 24 1 26 0;
#X connect 24 1 34 0;
#X connect 25 0 24 0;
#X connect 26 0 27 0;
#X connect 27 0 4 0;
#X connect 27 1 35 0;
#X connect 27 2 37 0;
#X connect 28 0 29 0;
#X connect 29 0 30 0;
#X connect 29 1 31 0;
#X connect 29 2 32 0;
#X connect 30 0 40 0;
#X connect 31 0 40 0;
#X connect 32 0 40 0;
#X connect 36 0 30 1;
#X connect 37 0 28 0;
#X connect 38 0 31 1;
#X connect 39 0 32 1;
#X connect 40 0 9 0;
