#N canvas 179 167 403 571 10;
#X obj 31 28 inlet;
#X obj 31 201 mtof;
#X obj 31 246 osc~;
#X obj 31 73 t b f;
#X obj 31 224 * 1;
#X obj 31 317 *~;
#X msg 154 256 1 \$1 \, 0 \$3 \$2;
#X obj 154 279 vline~;
#X obj 154 233 pack f f f, f 14;
#X obj 154 302 pow~ 1;
#X obj 32 411 outlet~;
#X obj 31 352 *~ 0.1;
#X obj 31 178 f;
#X obj 72 208 f \$2;
#X obj 113 336 f \$3;
#X obj 154 200 f \$4;
#X obj 194 178 f \$5;
#X obj 269 217 f \$6;
#X obj 269 286 f \$7;
#X obj 31 121 t b b b b b, f 28;
#X obj 154 148 t b b b, f 14;
#X obj 194 202 +;
#X obj 235 186 f \$4;
#X obj 58 95 clip 0 127;
#X connect 0 0 3 0;
#X connect 1 0 4 0;
#X connect 2 0 5 0;
#X connect 3 0 19 0;
#X connect 3 1 23 0;
#X connect 4 0 2 0;
#X connect 5 0 11 0;
#X connect 6 0 7 0;
#X connect 7 0 9 0;
#X connect 8 0 6 0;
#X connect 9 0 5 1;
#X connect 11 0 10 0;
#X connect 12 0 1 0;
#X connect 13 0 4 1;
#X connect 14 0 11 1;
#X connect 15 0 8 0;
#X connect 16 0 21 0;
#X connect 17 0 8 2;
#X connect 18 0 9 1;
#X connect 19 0 12 0;
#X connect 19 1 13 0;
#X connect 19 2 14 0;
#X connect 19 3 20 0;
#X connect 19 4 18 0;
#X connect 20 0 15 0;
#X connect 20 1 16 0;
#X connect 20 2 17 0;
#X connect 20 2 22 0;
#X connect 21 0 8 1;
#X connect 22 0 21 1;
#X connect 23 0 12 1;
