#N canvas 625 212 450 300 10;
#X obj 200 80 list length;
#X obj 126 149 list store, f 16;
#X obj 126 103 f 0;
#X obj 153 103 + 1;
#X obj 185 103 % 2;
#X msg 126 126 get \$1 1;
#X obj 126 73 bng 15 250 50 0 empty empty empty 17 7 0 10 -262144 -1
-1;
#X obj 180 57 t b a a;
#X obj 111 172 ==;
#X obj 78 196 spigot;
#X obj 78 149 t f f;
#X obj 192 188 sel 1;
#X obj 78 21 inlet;
#X obj 180 21 inlet;
#X obj 78 264 outlet;
#X connect 0 0 4 1;
#X connect 1 0 8 1;
#X connect 2 0 3 0;
#X connect 2 0 5 0;
#X connect 3 0 4 0;
#X connect 4 0 2 1;
#X connect 5 0 1 0;
#X connect 6 0 2 0;
#X connect 7 0 6 0;
#X connect 7 1 0 0;
#X connect 7 2 1 1;
#X connect 8 0 9 1;
#X connect 8 0 11 0;
#X connect 9 0 14 0;
#X connect 10 0 9 0;
#X connect 10 1 8 0;
#X connect 11 0 6 0;
#X connect 12 0 10 0;
#X connect 13 0 7 0;
