#N canvas 214 293 738 469 10;
#X obj 95 40 inlet;
#X obj 95 179 f 0;
#X obj 125 179 + 1;
#X obj 95 202 sel 0, f 8;
#X obj 205 39 loadbang;
#X obj 95 133 metro;
#X obj 152 179 %;
#X obj 205 70 t b b b b, f 13;
#X obj 230 204 f \$4;
#X obj 205 108 f \$1;
#X obj 95 243 i 0;
#X obj 95 320 outlet;
#X obj 238 163 +;
#X obj 205 227 *, f 4;
#X obj 95 267 % \$5;
#X obj 280 117 f \$2;
#X obj 255 140 f \$3;
#X connect 0 0 5 0;
#X connect 1 0 2 0;
#X connect 1 0 3 0;
#X connect 2 0 6 0;
#X connect 3 0 10 0;
#X connect 4 0 7 0;
#X connect 5 0 1 0;
#X connect 6 0 1 1;
#X connect 7 0 9 0;
#X connect 7 1 8 0;
#X connect 7 2 16 0;
#X connect 7 3 15 0;
#X connect 8 0 13 1;
#X connect 9 0 12 0;
#X connect 9 0 13 0;
#X connect 10 0 14 0;
#X connect 12 0 6 1;
#X connect 13 0 10 1;
#X connect 14 0 11 0;
#X connect 15 0 5 1;
#X connect 16 0 12 1;
