#N canvas 324 116 846 632 10;
#X obj 395 518 array set \$0-scale;
#X obj 395 424 t a a;
#X obj 422 472 list length;
#X obj 422 495 array define \$0-scale \$1;
#X obj 108 42 inlet;
#X obj 108 117 bng 15 250 50 0 empty empty empty 17 7 0 10 -262144
-1 -1;
#X obj 58 271 f 0;
#X obj 85 271 + 1;
#X obj 112 271 % 4;
#X obj 158 117 nbx 2 15 1 32 0 0 empty empty num 0 -8 0 10 -262144
-1 -1 1 256;
#X obj 58 294 t b f, f 12;
#X obj 58 418 random 21;
#X obj 127 317 sel 0;
#X msg 127 362 seed \$1;
#X obj 127 340 f 0;
#X obj 289 117 nbx 5 15 1 10000 0 0 empty empty seed 0 -8 0 10 -228856
-1 -1 1 256;
#X obj 190 117 nbx 2 15 1 8 0 0 empty empty oct 0 -8 0 10 -262144 -1
-1 1 256;
#X obj 109 396 * 7;
#X obj 43 465 t f f;
#X obj 43 488 % 7;
#X obj 43 511 tabread \$0-scale;
#X obj 157 481 div 7;
#X obj 157 518 * 12;
#X obj 43 534 +;
#X obj 395 42 inlet;
#X obj 43 441 f;
#X obj 31 246 t b b;
#X obj 31 339 random 100;
#X obj 222 117 nbx 2 15 0 100 0 0 empty empty pr% 0 -8 0 10 -262144
-1 -1 0 256;
#X obj 31 385 sel 1;
#X obj 31 362 < 1;
#X obj 43 594 outlet;
#X obj 126 117 nbx 2 15 1 32 0 0 empty empty div 0 -8 0 10 -262144
-1 -1 1 256;
#X obj 31 157 f 0;
#X obj 58 157 + 1;
#X obj 31 180 div 1;
#X obj 254 117 nbx 2 15 0 88 0 0 empty empty off 0 -8 0 10 -262144
-1 -1 0 256;
#X obj 43 557 + 0;
#X obj 31 224 bang;
#X obj 31 203 change -1;
#X obj 254 42 inlet;
#X obj 127 594 outlet;
#X connect 1 0 0 0;
#X connect 1 1 2 0;
#X connect 2 0 3 0;
#X connect 2 0 19 1;
#X connect 4 0 5 0;
#X connect 5 0 33 0;
#X connect 6 0 7 0;
#X connect 6 0 10 0;
#X connect 7 0 8 0;
#X connect 8 0 6 1;
#X connect 9 0 8 1;
#X connect 10 0 11 0;
#X connect 10 1 12 0;
#X connect 11 0 25 1;
#X connect 12 0 14 0;
#X connect 12 0 41 0;
#X connect 13 0 11 0;
#X connect 13 0 27 0;
#X connect 14 0 13 0;
#X connect 15 0 14 1;
#X connect 16 0 17 0;
#X connect 17 0 11 1;
#X connect 18 0 19 0;
#X connect 18 1 21 0;
#X connect 19 0 20 0;
#X connect 20 0 23 0;
#X connect 21 0 22 0;
#X connect 22 0 23 1;
#X connect 23 0 37 0;
#X connect 24 0 1 0;
#X connect 25 0 18 0;
#X connect 26 0 27 0;
#X connect 26 1 6 0;
#X connect 27 0 30 0;
#X connect 28 0 30 1;
#X connect 29 0 25 0;
#X connect 30 0 29 0;
#X connect 32 0 35 1;
#X connect 33 0 34 0;
#X connect 33 0 35 0;
#X connect 34 0 33 1;
#X connect 35 0 39 0;
#X connect 36 0 37 1;
#X connect 37 0 31 0;
#X connect 38 0 26 0;
#X connect 39 0 38 0;
#X connect 40 0 36 0;
#X coords 0 -1 1 1 250 60 1 100 80;
