#N canvas 730 152 553 547 10;
#X obj 48 16 inlet;
#X obj 48 67 bng 15 250 50 0 empty empty empty 17 7 0 10 -262144 -162280
-1;
#X obj 75 183 + 1;
#X obj 102 183 % 2;
#X obj 48 183 f 0;
#X obj 216 16 inlet;
#X obj 257 76 list length;
#X obj 320 122 * 2;
#X obj 320 145 - 1;
#X floatatom 320 168 5 0 0 0 - - -;
#X msg 241 274 get \$1 1;
#X obj 257 99 t f f, f 11;
#X floatatom 257 145 5 0 0 0 - - -;
#X obj 216 46 t b a a a, f 21;
#X obj 241 297 list store;
#X obj 240 396 list store;
#X obj 270 324 list prepend;
#X obj 257 122 - 2;
#X obj 241 212 f;
#X obj 269 212 - 1;
#X obj 257 174 t b f;
#X obj 241 235 t f f;
#X obj 328 251 sel 0;
#X obj 172 190 tgl 15 0 empty empty empty 17 7 0 10 -262144 -1 -1 0
1;
#X msg 328 274 0;
#X obj 270 347 t b a;
#X obj 172 212 metro 100;
#X msg 48 206 get \$1 1;
#X obj 240 474 outlet;
#X obj 68 67 nbx 4 14 -1e+37 1e+37 0 0 empty empty empty 0 -8 0 10
-262144 -128992 -1 60 256;
#X obj 240 419 t f f;
#X connect 0 0 1 0;
#X connect 1 0 4 0;
#X connect 2 0 3 0;
#X connect 3 0 4 1;
#X connect 4 0 2 0;
#X connect 4 0 27 0;
#X connect 5 0 13 0;
#X connect 6 0 11 0;
#X connect 7 0 8 0;
#X connect 8 0 9 0;
#X connect 9 0 3 1;
#X connect 10 0 14 0;
#X connect 11 0 17 0;
#X connect 11 1 7 0;
#X connect 12 0 20 0;
#X connect 13 1 6 0;
#X connect 13 2 14 1;
#X connect 13 3 16 1;
#X connect 14 0 16 0;
#X connect 15 0 30 0;
#X connect 15 0 16 1;
#X connect 16 0 25 0;
#X connect 17 0 12 0;
#X connect 18 0 19 0;
#X connect 18 0 21 0;
#X connect 19 0 18 1;
#X connect 20 0 23 0;
#X connect 20 1 18 1;
#X connect 21 0 10 0;
#X connect 21 1 22 0;
#X connect 22 0 24 0;
#X connect 23 0 26 0;
#X connect 24 0 23 0;
#X connect 25 0 15 0;
#X connect 25 1 15 1;
#X connect 26 0 18 0;
#X connect 27 0 15 0;
#X connect 30 0 28 0;
#X connect 30 1 29 0;
#X coords 0 -1 1 1 85 50 1 40 40;
