#N canvas 831 116 529 646 10;
#X obj 128 252 metro;
#X obj 158 205 /, f 11;
#X obj 158 182 * 1000;
#X obj 158 158 clip 1 8;
#X obj 221 158 clip 1 16;
#X obj 158 135 f \$1;
#X obj 221 135 i \$2;
#X obj 65 19 inlet;
#X obj 128 63 clip 0 1;
#X obj 158 88 loadbang;
#X obj 65 603 outlet;
#X obj 158 228 t f f, f 6;
#X obj 155 603 outlet;
#X obj 158 111 t b b, f 11;
#X obj 221 181 t f f, f 7;
#X obj 143 278 r sync;
#X msg 143 301 0;
#X obj 128 324 f 0;
#X obj 154 324 + 1;
#X obj 179 324 % 2, f 14;
#X obj 128 347 sel 0;
#X obj 128 393 random 4;
#X obj 128 416 + 1;
#X obj 128 439 t b f;
#X obj 128 462 f 0, f 11;
#X obj 128 485 /, f 5;
#X obj 65 485 clip 0 1;
#X obj 65 531 metro, f 11;
#X obj 65 47 t f f;
#X obj 128 508 t f f;
#X obj 65 554 spigot, f 27;
#X obj 332 19 inlet;
#X obj 317 439 f 0;
#X msg 317 462 seed \$1;
#X obj 128 370 t b b b, f 32;
#X obj 317 393 f 0;
#X obj 343 393 + 1;
#X obj 368 393 % \$3;
#X obj 317 416 sel 0;
#X obj 224 394 random 4;
#X obj 224 417 <= 2;
#X connect 0 0 17 0;
#X connect 1 0 11 0;
#X connect 2 0 1 0;
#X connect 3 0 2 0;
#X connect 4 0 14 0;
#X connect 5 0 3 0;
#X connect 6 0 4 0;
#X connect 7 0 28 0;
#X connect 8 0 0 0;
#X connect 9 0 13 0;
#X connect 11 0 0 1;
#X connect 11 1 24 1;
#X connect 13 0 5 0;
#X connect 13 1 6 0;
#X connect 14 0 1 1;
#X connect 14 1 19 1;
#X connect 15 0 16 0;
#X connect 16 0 17 1;
#X connect 17 0 18 0;
#X connect 17 0 20 0;
#X connect 18 0 19 0;
#X connect 19 0 17 1;
#X connect 20 0 34 0;
#X connect 21 0 22 0;
#X connect 22 0 23 0;
#X connect 23 0 24 0;
#X connect 23 1 25 1;
#X connect 24 0 25 0;
#X connect 25 0 29 0;
#X connect 26 0 27 0;
#X connect 27 0 30 0;
#X connect 28 0 26 0;
#X connect 28 1 8 0;
#X connect 29 0 27 1;
#X connect 29 1 12 0;
#X connect 30 0 10 0;
#X connect 31 0 32 1;
#X connect 32 0 33 0;
#X connect 33 0 21 0;
#X connect 33 0 39 0;
#X connect 34 0 21 0;
#X connect 34 1 39 0;
#X connect 34 2 35 0;
#X connect 35 0 36 0;
#X connect 35 0 38 0;
#X connect 36 0 37 0;
#X connect 37 0 35 1;
#X connect 38 0 32 0;
#X connect 39 0 40 0;
#X connect 40 0 30 1;
