#N canvas 573 116 787 646 10;
#X obj 128 252 metro;
#X obj 158 205 /, f 11;
#X obj 158 182 * 1000;
#X obj 158 158 clip 1 8;
#X obj 158 135 f \$1;
#X obj 221 135 i \$2;
#X obj 65 19 inlet;
#X obj 128 63 clip 0 1;
#X obj 158 87 loadbang;
#X obj 65 603 outlet;
#X obj 158 228 t f f, f 6;
#X obj 158 111 t b b, f 11;
#X obj 221 181 t f f, f 7;
#X obj 143 278 r sync;
#X msg 143 301 0;
#X obj 128 324 f 0;
#X obj 154 324 + 1;
#X obj 179 324 % 2, f 14;
#X obj 128 393 random 4;
#X obj 128 416 + 1;
#X obj 128 439 t b f;
#X obj 128 462 f 0, f 11;
#X obj 128 485 /, f 5;
#X obj 65 485 clip 0 1;
#X obj 65 531 metro, f 11;
#X obj 65 47 t f f;
#X obj 65 554 spigot, f 27;
#X obj 332 19 inlet;
#X obj 317 439 f 0;
#X msg 317 530 seed \$1;
#X obj 128 370 t b b b, f 32;
#X obj 317 393 f 0;
#X obj 343 393 + 1;
#X obj 368 393 % \$3;
#X obj 317 416 sel 0;
#X obj 224 394 random 4;
#X obj 224 417 <= 2;
#X obj 221 158 clip 1 16;
#X obj 128 347 sel 0, f 8;
#X obj 574 244 metro;
#X obj 415 603 outlet;
#X obj 589 278 r sync;
#X msg 589 301 0;
#X obj 574 324 f 0;
#X obj 600 324 + 1;
#X obj 625 324 % 2, f 4;
#X obj 415 457 clip 0 1;
#X obj 415 531 metro, f 11;
#X obj 415 554 spigot, f 27;
#X obj 574 430 random 4;
#X obj 574 453 <= 2;
#X obj 574 347 sel 1, f 8;
#X obj 493 501 expr $f2-$f1;
#X obj 649 603 outlet;
#X obj 493 523 max 125;
#X obj 574 370 t b b, f 13;
#X obj 532 371 / 4;
#X obj 172 603 outlet;
#X obj 493 603 outlet;
#X connect 0 0 15 0;
#X connect 1 0 10 0;
#X connect 2 0 1 0;
#X connect 3 0 2 0;
#X connect 4 0 3 0;
#X connect 5 0 37 0;
#X connect 6 0 25 0;
#X connect 7 0 0 0;
#X connect 7 0 39 0;
#X connect 8 0 11 0;
#X connect 10 0 0 1;
#X connect 10 1 21 1;
#X connect 10 1 39 1;
#X connect 10 1 52 1;
#X connect 10 1 56 0;
#X connect 11 0 4 0;
#X connect 11 1 5 0;
#X connect 12 0 1 1;
#X connect 12 1 17 1;
#X connect 13 0 14 0;
#X connect 14 0 15 1;
#X connect 15 0 16 0;
#X connect 15 0 38 0;
#X connect 16 0 17 0;
#X connect 17 0 15 1;
#X connect 18 0 19 0;
#X connect 19 0 20 0;
#X connect 20 0 21 0;
#X connect 20 1 22 1;
#X connect 21 0 22 0;
#X connect 22 0 24 1;
#X connect 22 0 52 0;
#X connect 22 0 57 0;
#X connect 23 0 24 0;
#X connect 24 0 26 0;
#X connect 25 0 23 0;
#X connect 25 0 46 0;
#X connect 25 1 7 0;
#X connect 26 0 9 0;
#X connect 27 0 28 1;
#X connect 28 0 29 0;
#X connect 29 0 18 0;
#X connect 29 0 35 0;
#X connect 29 0 49 0;
#X connect 30 0 18 0;
#X connect 30 1 35 0;
#X connect 30 2 31 0;
#X connect 31 0 32 0;
#X connect 31 0 34 0;
#X connect 32 0 33 0;
#X connect 33 0 31 1;
#X connect 34 0 28 0;
#X connect 35 0 36 0;
#X connect 36 0 26 1;
#X connect 37 0 12 0;
#X connect 38 0 30 0;
#X connect 39 0 43 0;
#X connect 41 0 42 0;
#X connect 42 0 43 1;
#X connect 43 0 44 0;
#X connect 43 0 51 0;
#X connect 44 0 45 0;
#X connect 45 0 43 1;
#X connect 46 0 47 0;
#X connect 47 0 48 0;
#X connect 48 0 40 0;
#X connect 49 0 50 0;
#X connect 50 0 48 1;
#X connect 51 0 55 0;
#X connect 52 0 54 0;
#X connect 54 0 47 1;
#X connect 54 0 58 0;
#X connect 55 0 49 0;
#X connect 55 1 53 0;
#X connect 56 0 54 1;
