#N canvas 359 136 968 626 10;
#X floatatom 49 447 5 0 0 0 - - -;
#X obj 49 348 expr 0.5*(pow($f1 \, 2)+$f1);
#X obj 110 371 expr pow($f1 \, 2);
#X floatatom 110 447 5 0 0 0 - - -;
#X floatatom 173 447 5 0 0 0 - - -;
#X obj 173 394 expr 0.5*(3*pow($f1 \, 2)-$f1);
#X floatatom 235 447 5 0 0 0 - - -;
#X obj 235 370 expr 0.5*(4*pow($f1 \, 2)-(2*$f1));
#X floatatom 297 447 5 0 0 0 - - -;
#X obj 297 349 expr 0.5*(5*pow($f1 \, 2)-(3*$f1));
#X floatatom 359 447 5 0 0 0 - - -;
#X obj 359 393 expr 0.5*(6*pow($f1 \, 2)-(4*$f1));
#X floatatom 421 447 5 0 0 0 - - -;
#X obj 421 415 expr 0.5*(7*pow($f1 \, 2)-(5*$f1));
#X floatatom 484 447 5 0 0 0 - - -;
#X obj 484 371 expr 0.5*(8*pow($f1 \, 2)-(6*$f1));
#X obj 49 324 t f f f f f f f f, f 73;
#X obj 49 68 bng 15 250 50 0 empty empty empty 17 7 0 10 -262144 -1
-1;
#X obj 49 113 i;
#X obj 75 113 + 1;
#X obj 101 113 % 2;
#X obj 100 68 nbx 2 15 1 20 0 0 empty empty iter -25 7 0 10 -262144
-1 -1 3 256;
#X obj 49 6 inlet;
#X obj 49 86 hradio 10 1 0 8 empty empty empty 0 -8 0 10 -262144 -1
-1 0;
#X obj 261 94 + 1;
#X obj 49 503 spigot;
#X obj 61 479 == 1;
#X obj 110 503 spigot;
#X obj 122 479 == 2;
#X obj 173 503 spigot;
#X obj 235 503 spigot;
#X obj 185 479 == 3;
#X obj 247 479 == 4;
#X obj 297 503 spigot;
#X obj 359 503 spigot;
#X obj 421 503 spigot;
#X obj 484 503 spigot;
#X obj 309 479 == 5;
#X obj 371 479 == 6;
#X obj 433 479 == 7;
#X obj 496 479 == 8;
#X obj 49 566 t f f;
#X obj 49 598 outlet;
#X obj 49 272 spigot;
#X floatatom 49 302 5 0 0 0 - - -;
#X obj 124 160 expr $f2-$f1;
#X obj 124 274 spigot;
#X obj 49 137 t f f f, f 13;
#X obj 82 206 sel 0;
#X obj 82 254 tgl 15 0 empty empty empty 17 7 0 10 -262144 -1 -1 1
1;
#X obj 82 183 t f f, f 12;
#X obj 151 206 sel \$1;
#X obj 155 254 tgl 15 0 empty empty empty 17 7 0 10 -262144 -1 -1 0
1;
#X obj 167 183 - 1;
#X msg 156 49 0;
#X obj 150 97 t f f f b;
#X obj 100 6 inlet;
#X msg 189 49 1;
#X connect 0 0 25 0;
#X connect 1 0 0 0;
#X connect 2 0 3 0;
#X connect 3 0 27 0;
#X connect 4 0 29 0;
#X connect 5 0 4 0;
#X connect 6 0 30 0;
#X connect 7 0 6 0;
#X connect 8 0 33 0;
#X connect 9 0 8 0;
#X connect 10 0 34 0;
#X connect 11 0 10 0;
#X connect 12 0 35 0;
#X connect 13 0 12 0;
#X connect 14 0 36 0;
#X connect 15 0 14 0;
#X connect 16 0 1 0;
#X connect 16 1 2 0;
#X connect 16 2 5 0;
#X connect 16 3 7 0;
#X connect 16 4 9 0;
#X connect 16 5 11 0;
#X connect 16 6 13 0;
#X connect 16 7 15 0;
#X connect 17 0 18 0;
#X connect 18 0 19 0;
#X connect 18 0 47 0;
#X connect 19 0 20 0;
#X connect 20 0 18 1;
#X connect 21 0 55 0;
#X connect 22 0 17 0;
#X connect 23 0 24 0;
#X connect 24 0 26 0;
#X connect 24 0 40 0;
#X connect 24 0 39 0;
#X connect 24 0 38 0;
#X connect 24 0 37 0;
#X connect 24 0 32 0;
#X connect 24 0 31 0;
#X connect 24 0 28 0;
#X connect 25 0 41 0;
#X connect 26 0 25 1;
#X connect 27 0 41 0;
#X connect 28 0 27 1;
#X connect 29 0 41 0;
#X connect 30 0 41 0;
#X connect 31 0 29 1;
#X connect 32 0 30 1;
#X connect 33 0 41 0;
#X connect 34 0 41 0;
#X connect 35 0 41 0;
#X connect 36 0 41 0;
#X connect 37 0 33 1;
#X connect 38 0 34 1;
#X connect 39 0 35 1;
#X connect 40 0 36 1;
#X connect 41 0 42 0;
#X connect 43 0 44 0;
#X connect 44 0 16 0;
#X connect 45 0 46 0;
#X connect 46 0 44 0;
#X connect 47 0 43 0;
#X connect 47 1 50 0;
#X connect 47 2 45 0;
#X connect 48 0 49 0;
#X connect 49 0 43 1;
#X connect 50 0 48 0;
#X connect 50 1 51 0;
#X connect 51 0 52 0;
#X connect 52 0 46 1;
#X connect 53 0 51 1;
#X connect 54 0 52 0;
#X connect 55 0 20 1;
#X connect 55 1 53 0;
#X connect 55 2 45 1;
#X connect 55 3 54 0;
#X connect 55 3 57 0;
#X connect 56 0 23 0;
#X connect 57 0 49 0;
#X coords 0 -1 1 1 100 65 1 40 40;
