#N canvas 621 208 674 526 10;
#X floatatom 182 199 5 0 0 0 - - -;
#X obj 182 221 mtof;
#X obj 182 244 t b f;
#X msg 182 267 1000;
#X obj 182 290 /;
#X floatatom 182 313 5 0 0 0 - - -;
#X obj 78 222 vline~;
#X obj 32 199 noise~;
#X obj 33 260 *~;
#X obj 33 306 delwrite~ \$0-plu 500;
#X floatatom 64 283 5 0 0 0 - - -;
#X obj 182 335 delread4~ \$0-plu;
#X obj 32 222 lop~;
#X floatatom 53 174 5 0 0 0 - - -;
#X obj 78 245 pow~ 1;
#X obj 182 453 outlet~;
#X obj 155 14 inlet;
#X obj 37 53 hradio 15 1 0 4 empty empty empty 0 -8 0 10 -262144 -1
-1 3;
#X obj 111 174 + 1;
#X obj 40 72 hsl 55 15 100 2000 0 0 empty empty empty -2 -8 0 10 -262144
-1 -1 1400 1;
#X obj 40 91 hsl 55 15 0 1 0 0 empty empty empty -2 -8 0 10 -191407
-1 -1 3900 1;
#X obj 33 283 *~;
#X obj 155 37 t b f;
#X obj 82 34 bng 15 250 50 0 empty empty empty 17 7 0 10 -262144 -228856
-1;
#X msg 78 199 1 5 \, 0 20 5;
#X obj 182 358 *~ 0.99;
#X connect 0 0 1 0;
#X connect 1 0 2 0;
#X connect 2 0 3 0;
#X connect 2 1 4 1;
#X connect 3 0 4 0;
#X connect 4 0 5 0;
#X connect 5 0 11 0;
#X connect 6 0 14 0;
#X connect 7 0 12 0;
#X connect 8 0 21 0;
#X connect 10 0 21 1;
#X connect 11 0 25 0;
#X connect 12 0 8 0;
#X connect 13 0 12 1;
#X connect 14 0 8 1;
#X connect 16 0 22 0;
#X connect 17 0 18 0;
#X connect 18 0 14 1;
#X connect 19 0 13 0;
#X connect 20 0 10 0;
#X connect 21 0 9 0;
#X connect 22 0 24 0;
#X connect 22 0 23 0;
#X connect 22 1 0 0;
#X connect 24 0 6 0;
#X connect 25 0 9 0;
#X connect 25 0 15 0;
#X coords 0 -1 1 1 75 90 1 30 25;
