#N canvas 0 116 1366 652 10;
#X obj 29 106 f 0;
#X obj 54 106 + 1;
#X obj 83 106 % 16;
#X obj 80 228 sel 0;
#X floatatom 80 206 5 0 0 0 - - -;
#X obj 80 183 % 4;
#X obj 131 229 bng 15 250 50 0 empty empty empty 17 7 0 10 -262144
-1 -1;
#X obj 206 249 bng 15 250 50 0 empty empty empty 17 7 0 10 -262144
-1 -1;
#X obj 261 145 div 4;
#X obj 131 160 f 0;
#X obj 157 161 + 1;
#X obj 184 161 % 16;
#X obj 29 129 t b f b f, f 26;
#X obj 131 183 t f f, f 13;
#X obj 131 206 sel 0;
#X obj 206 207 sel 4;
#X obj 205 92 t f f;
#X obj 233 117 / 2;
#X obj 95 160 / 4;
#X text 41 230 clock;
#X text 150 228 phrase up;
#X text 225 248 phrase down;
#X text 50 349 syllable;
#N canvas 0 50 450 250 (subpatch) 0;
#X array syllable 9 float 3;
#A 0 0.2 0.3 0.5 0.5 0.2 0.3 0.5 0.5 0;
#X coords 0 1 9 0 100 70 1 0 0;
#X restore 922 35 graph;
#X obj 1409 86 array set syllable;
#X obj 611 99 random 1000;
#X obj 611 122 / 1000;
#X obj 344 180 t f f;
#X obj 29 63 metro 250;
#X text 1031 28 # STATI DI USCITA (j) \; # 0 = Breve / 1 = Lunga /
2 = Accento Tonico \; # Pesi da 0 a 1 (Somma di ogni riga = 1.0) \;
# INDICI 0 \, 1 \, 2: Transizione da S0 (Breve) \; # INDICI 3 \, 4
\, 5: Transizione da S1 (Lunga) \; # INDICI 6 \, 7 \, 8: Transizione
da S2 (Accento Tonico);
#X obj 29 303 f 0;
#X obj 54 303 + 1;
#X obj 29 326 sel 0;
#X obj 29 350 bng 15 250 50 0 empty empty empty 17 7 0 10 -262144 -1
-1;
#X obj 83 303 % 2;
#X obj 344 122 f 0, f 5;
#X obj 344 203 sel 0 1 2;
#X msg 344 268 1;
#X msg 389 287 2;
#X obj 344 321 *, f 11;
#X floatatom 384 181 5 0 0 0 - - -;
#N canvas 0 50 450 250 (subpatch) 0;
#X array word 25 float 3;
#A 0 0.4 0.2 0.2 0.1 0.1 0.3 0.35 0.15 0.15 0.05 0.3 0.15 0.35 0.05
0.15 0.35 0.2 0.2 0.15 0.1 0.35 0.1 0.2 0.1 0.25;
#X coords 0 0.5 25 0 100 70 1 0 0;
#X restore 922 145 graph;
#X msg 1407 115 0.4 0.2 0.2 0.1 0.1 0.3 0.35 0.15 0.15 0.05 0.3 0.15
0.35 0.05 0.15 0.35 0.2 0.2 0.15 0.1 0.35 0.1 0.2 0.1 0.25, f 24;
#X obj 1407 190 array set word;
#X obj 453 252 expr if($f2 < word[\$15+0] \, 0 \, if($f2 < (word[\$15+0]
+ word[\$15+1]) \, 1 \, if($f2 < (word[\$15+0] + word[\$15+1] + word[\$15+2])
\, 2 \, if($f2 < (word[\$15+0] + word[\$15+1] + word[\$15+2] + word[\$15+3])
\, 3 \, 4))));
#X text 1031 141 # Indici 0-4: Transizione da Stato 0 (Statico) \;
# Indici 5-9: Transizione da Stato 1 (Poco S첫) \; # Indici 10-14:
Transizione da Stato 2 (Poco Gi첫) \; # Indici 15-19: Transizione da
Stato 3 (Tanto S첫) \; # Indici 20-24: Transizione da Stato 4 (Tanto
Gi첫);
#X obj 453 190 t b b;
#X obj 774 206 random 1000;
#X obj 774 229 / 1000;
#X obj 453 229 f 0, f 5;
#X obj 453 314 t f f;
#X floatatom 493 314 5 0 0 0 - - -;
#X obj 453 337 sel 0 1 2 3, f 24;
#X msg 453 360 0;
#X msg 488 370 1;
#X msg 523 380 -1;
#X msg 558 390 2;
#X msg 594 400 -2;
#X obj 344 83 t b b b, f 37;
#X obj 29 370 t b b;
#X obj 29 393 i 0, f 5;
#X obj 29 416 + 0;
#X obj 29 487 t f f;
#X obj 29 439 % 7;
#N canvas 0 50 450 250 (subpatch) 0;
#X array phrase_d 4 float 3;
#A 0 0.2 0.35 0.3 0.15;
#X coords 0 0.5 4 0 100 70 1 0 0;
#X restore 922 245 graph;
#X floatatom 645 446 5 0 0 0 - - -;
#X obj 645 397 expr if($f1 < phrase_d[0] \, 0 \, if($f1 < (phrase_d[0]
+ phrase_d[1]) \, 1 \, if($f1 < (phrase_d[0] + phrase_d[1] + phrase_d[2])
\, 2 \, 3)));
#X obj 645 468 sel 0 1 2, f 18;
#X msg 645 521 3;
#X msg 680 511 5;
#X msg 715 501 7;
#X msg 750 491 9;
#X obj 1409 267 array set phrase_d;
#X msg 1409 244 0.2 0.35 0.3 0.15;
#X text 1031 241 # L3 (Frase Molto Breve): 3 sillabe \; # L5 (Frase
Breve): 5 sillabe \; # L7 (Frase Media): 7 sillabe \; # L9 (Frase Lunga):
9 sillabe.;
#X floatatom 1605 109 5 0 0 0 - - -;
#X obj 1605 86 array sum syllable;
#X obj 1605 28 bng 15 250 50 0 empty empty empty 17 7 0 10 -262144
-1 -1;
#X msg 1657 64 -1;
#X obj 1605 48 t b b;
#X floatatom 1605 219 5 0 0 0 - - -;
#X obj 1605 138 bng 15 250 50 0 empty empty empty 17 7 0 10 -262144
-1 -1;
#X msg 1645 173 -1;
#X obj 1605 158 t b b;
#X obj 1605 196 array sum word;
#X floatatom 1606 330 5 0 0 0 - - -;
#X obj 1606 249 bng 15 250 50 0 empty empty empty 17 7 0 10 -262144
-1 -1;
#X msg 1658 285 -1;
#X obj 1606 269 t b b;
#X obj 1606 307 array sum phrase_d;
#X obj 29 278 spigot;
#X obj 99 265 tgl 15 0 empty empty empty 17 7 0 10 -262144 -1 -1 1
1;
#X msg 131 262 1;
#X obj 137 363 f 0;
#X obj 162 363 + 1;
#X obj 191 363 % 2;
#X obj 137 386 sel 0;
#X msg 137 431 0;
#N canvas 0 50 450 250 (subpatch) 0;
#X array phrase_c 3 float 3;
#A 0 0.25 0.35 0.4;
#X coords 0 0.5 3 0 100 70 1 0 0;
#X restore 1034 355 graph;
#X obj 823 447 t b;
#X obj 823 517 expr if($f1 < phrase_c[0] \, 0 \, if($f1 < (phrase_c[0]
+ phrase_c[1]) \, 1 \, 2));
#X obj 645 328 t b b, f 30;
#X floatatom 1606 440 5 0 0 0 - - -;
#X obj 1606 359 bng 15 250 50 0 empty empty empty 17 7 0 10 -262144
-1 -1;
#X msg 1658 395 -1;
#X obj 1606 379 t b b;
#X obj 1606 417 array sum phrase_d;
#X obj 1409 377 array set phrase_c;
#X msg 1409 354 0.25 0.35 0.4;
#X floatatom 823 553 5 0 0 0 - - -;
#X text 1141 351 # C0 andamento ascendente \; # C1 andamento discendente
\; # C2 andamento ad arco.;
#X obj 645 351 random 1000;
#X obj 645 374 / 1000;
#X obj 823 470 random 1000;
#X obj 823 493 / 1000;
#X obj 29 462 + 0;
#X floatatom 261 569 5 0 0 0 - - -;
#X obj 29 602 outlet;
#X obj 344 602 outlet;
#X obj 81 602 outlet;
#X obj 81 575 t b;
#X obj 389 602 outlet;
#X obj 389 575 t b;
#X obj 406 12 inlet;
#X obj 29 12 inlet;
#X obj 29 39 clip 0 1;
#X obj 333 30 loadbang;
#X obj 153 12 r sync;
#X msg 153 40 0;
#X obj 693 12 inlet;
#X msg 693 43 seed \$1;
#X floatatom 643 163 5 0 0 0 - - -;
#X obj 344 144 expr if($f2 < syllable[\$1*3+0] \, 0 \, if($f2 < (syllable[\$1*3+0]
+ syllable[\$1*3+1]) \, 1 \, 2));
#X obj 104 76 f 16;
#X obj 406 47 f 500;
#X obj 261 546 expr if($f3==0 \, $f1 \, if($f3==1 \, -$f1 \, if($f2<=2
\, $f1 \, -$f1))), f 63;
#X msg 1409 28 0.2 0.3 0.5 0.5 0.2 0.3 0.5 0.5 0, f 14;
#X obj 104 12 inlet;
#X connect 0 0 1 0;
#X connect 0 0 12 0;
#X connect 1 0 2 0;
#X connect 2 0 0 1;
#X connect 3 0 120 0;
#X connect 4 0 3 0;
#X connect 4 0 135 1;
#X connect 5 0 4 0;
#X connect 6 0 92 0;
#X connect 7 0 92 0;
#X connect 8 0 135 0;
#X connect 9 0 10 0;
#X connect 9 0 13 0;
#X connect 10 0 11 0;
#X connect 11 0 9 1;
#X connect 12 0 90 0;
#X connect 12 1 5 0;
#X connect 12 2 9 0;
#X connect 12 3 8 0;
#X connect 13 0 14 0;
#X connect 13 1 15 0;
#X connect 14 0 6 0;
#X connect 15 0 7 0;
#X connect 16 0 11 1;
#X connect 16 0 18 0;
#X connect 16 1 17 0;
#X connect 17 0 15 1;
#X connect 18 0 5 1;
#X connect 25 0 26 0;
#X connect 26 0 131 0;
#X connect 26 0 132 1;
#X connect 27 0 36 0;
#X connect 27 1 40 0;
#X connect 27 1 35 1;
#X connect 28 0 0 0;
#X connect 30 0 31 0;
#X connect 30 0 32 0;
#X connect 31 0 34 0;
#X connect 32 0 33 0;
#X connect 33 0 59 0;
#X connect 33 0 93 0;
#X connect 34 0 30 1;
#X connect 35 0 132 0;
#X connect 36 0 37 0;
#X connect 36 1 38 0;
#X connect 36 2 37 0;
#X connect 37 0 34 1;
#X connect 37 0 39 0;
#X connect 38 0 34 1;
#X connect 38 0 39 0;
#X connect 38 0 122 0;
#X connect 39 0 118 0;
#X connect 42 0 43 0;
#X connect 44 0 50 0;
#X connect 46 0 49 0;
#X connect 46 1 47 0;
#X connect 47 0 48 0;
#X connect 48 0 44 1;
#X connect 49 0 44 0;
#X connect 50 0 52 0;
#X connect 50 1 51 0;
#X connect 50 1 49 1;
#X connect 52 0 53 0;
#X connect 52 1 54 0;
#X connect 52 2 55 0;
#X connect 52 3 56 0;
#X connect 52 4 57 0;
#X connect 53 0 61 1;
#X connect 54 0 61 1;
#X connect 55 0 61 1;
#X connect 56 0 61 1;
#X connect 57 0 61 1;
#X connect 58 0 35 0;
#X connect 58 1 46 0;
#X connect 58 2 25 0;
#X connect 59 0 60 0;
#X connect 59 1 58 0;
#X connect 60 0 61 0;
#X connect 61 0 63 0;
#X connect 62 0 117 0;
#X connect 62 1 60 1;
#X connect 63 0 115 0;
#X connect 65 0 67 0;
#X connect 66 0 65 0;
#X connect 67 0 68 0;
#X connect 67 1 69 0;
#X connect 67 2 70 0;
#X connect 67 3 71 0;
#X connect 68 0 95 1;
#X connect 69 0 95 1;
#X connect 70 0 95 1;
#X connect 71 0 95 1;
#X connect 73 0 72 0;
#X connect 76 0 75 0;
#X connect 77 0 79 0;
#X connect 78 0 76 1;
#X connect 79 0 76 0;
#X connect 79 1 78 0;
#X connect 81 0 83 0;
#X connect 82 0 84 1;
#X connect 83 0 84 0;
#X connect 83 1 82 0;
#X connect 84 0 80 0;
#X connect 86 0 88 0;
#X connect 87 0 89 1;
#X connect 88 0 89 0;
#X connect 88 1 87 0;
#X connect 89 0 85 0;
#X connect 90 0 30 0;
#X connect 91 0 90 1;
#X connect 92 0 91 0;
#X connect 92 0 101 0;
#X connect 93 0 94 0;
#X connect 93 0 96 0;
#X connect 94 0 95 0;
#X connect 95 0 93 1;
#X connect 96 0 97 0;
#X connect 97 0 91 0;
#X connect 99 0 113 0;
#X connect 100 0 109 0;
#X connect 100 0 135 2;
#X connect 101 0 111 0;
#X connect 101 1 99 0;
#X connect 103 0 105 0;
#X connect 104 0 106 1;
#X connect 105 0 106 0;
#X connect 105 1 104 0;
#X connect 106 0 102 0;
#X connect 108 0 107 0;
#X connect 111 0 112 0;
#X connect 112 0 66 0;
#X connect 113 0 114 0;
#X connect 114 0 100 0;
#X connect 115 0 62 0;
#X connect 120 0 119 0;
#X connect 122 0 121 0;
#X connect 123 0 134 0;
#X connect 124 0 125 0;
#X connect 125 0 28 0;
#X connect 126 0 133 0;
#X connect 126 0 134 0;
#X connect 127 0 128 0;
#X connect 128 0 0 1;
#X connect 128 0 9 1;
#X connect 128 0 93 1;
#X connect 128 0 30 1;
#X connect 129 0 130 0;
#X connect 130 0 25 0;
#X connect 130 0 113 0;
#X connect 130 0 111 0;
#X connect 130 0 47 0;
#X connect 132 0 27 0;
#X connect 133 0 2 1;
#X connect 133 0 16 0;
#X connect 134 0 28 1;
#X connect 134 0 39 1;
#X connect 135 0 116 0;
#X connect 135 0 115 1;
#X connect 136 0 24 0;
#X connect 137 0 133 0;
