#N canvas 169 173 616 518 10;
#X obj 338 133 list split 4;
#X obj 146 176 list store;
#X obj 281 275 list store;
#X obj 310 160 list append;
#X obj 338 184 list prepend;
#X obj 491 116 list store;
#X msg 146 152 get \$1 1;
#X msg 281 252 get \$1 1;
#X obj 77 21 inlet;
#X obj 77 199 f 0;
#X obj 104 199 + 1;
#X obj 131 199 % 1;
#X obj 77 222 sel 0;
#X obj 146 129 f 0;
#X obj 173 129 + 1;
#X obj 200 129 % 1;
#X obj 77 245 t b b;
#X obj 215 59 t a a, f 21;
#X obj 215 82 list length;
#X obj 281 229 f 0;
#X obj 308 229 + 1;
#X obj 335 229 % 1;
#X obj 77 83 t b b, f 18;
#X obj 182 298 f 0;
#X obj 209 298 + 1;
#X obj 266 298 % 1;
#X obj 182 321 sel 0;
#X obj 182 344 t b b;
#X obj 407 98 clip 1 8;
#X obj 77 374 outlet;
#X obj 182 374 outlet;
#X obj 215 21 inlet;
#X obj 407 59 f \$1;
#X obj 491 21 inlet;
#X obj 491 59 t b;
#X obj 407 21 loadbang;
#X obj 358 59 del 20;
#X connect 0 0 3 0;
#X connect 0 0 4 0;
#X connect 0 1 3 1;
#X connect 0 1 4 1;
#X connect 1 0 11 1;
#X connect 2 0 25 1;
#X connect 3 0 1 1;
#X connect 4 0 2 1;
#X connect 4 0 5 1;
#X connect 5 0 0 0;
#X connect 6 0 1 0;
#X connect 7 0 2 0;
#X connect 8 0 22 0;
#X connect 9 0 10 0;
#X connect 9 0 12 0;
#X connect 10 0 11 0;
#X connect 11 0 9 1;
#X connect 12 0 16 0;
#X connect 13 0 14 0;
#X connect 13 0 6 0;
#X connect 14 0 15 0;
#X connect 15 0 13 1;
#X connect 16 0 29 0;
#X connect 16 1 13 0;
#X connect 17 0 18 0;
#X connect 17 1 0 0;
#X connect 18 0 15 1;
#X connect 18 0 21 1;
#X connect 18 0 28 2;
#X connect 19 0 20 0;
#X connect 19 0 7 0;
#X connect 20 0 21 0;
#X connect 21 0 19 1;
#X connect 22 0 9 0;
#X connect 22 1 23 0;
#X connect 23 0 24 0;
#X connect 23 0 26 0;
#X connect 24 0 25 0;
#X connect 25 0 23 1;
#X connect 26 0 27 0;
#X connect 27 0 30 0;
#X connect 27 1 19 0;
#X connect 28 0 0 1;
#X connect 31 0 17 0;
#X connect 32 0 28 0;
#X connect 33 0 34 0;
#X connect 34 0 5 0;
#X connect 35 0 32 0;
#X connect 35 0 36 0;
#X connect 36 0 13 0;
#X connect 36 0 19 0;
