#N canvas 108 256 596 425 10;
#X obj 37 204 metro 1000;
#X obj 94 153 * 1000;
#X obj 94 177 /;
#X obj 53 128 t b f, f 10;
#X obj 37 314 outlet;
#X obj 37 26 inlet;
#X obj 53 103 f \$1;
#X obj 94 104 f \$2;
#X obj 37 227 t b b, f 10;
#X obj 94 250 f 0;
#X obj 120 250 + 1;
#X obj 146 250 % \$1;
#X obj 94 273 sel 0;
#X obj 94 314 outlet;
#X obj 53 77 loadbang;
#X obj 111 76 t b f;
#X obj 111 27 inlet;
#X connect 0 0 8 0;
#X connect 1 0 2 0;
#X connect 2 0 0 1;
#X connect 3 0 7 0;
#X connect 3 1 2 1;
#X connect 5 0 0 0;
#X connect 6 0 3 0;
#X connect 7 0 1 0;
#X connect 8 0 4 0;
#X connect 8 1 9 0;
#X connect 9 0 10 0;
#X connect 9 0 12 0;
#X connect 10 0 11 0;
#X connect 11 0 9 1;
#X connect 12 0 13 0;
#X connect 14 0 6 0;
#X connect 15 0 7 0;
#X connect 15 1 2 1;
#X connect 16 0 15 0;
