#N canvas 165 400 450 300 10;
#X obj 41 150 biquad~ 0 0 1 -1 0;
#X obj 41 121 1;
#X obj 68 121 0;
#X obj 41 180 *~;
#X obj 68 97 del 3;
#X obj 41 72 t b b;
#X obj 41 235 outlet~;
#X obj 41 25 inlet;
#X connect 0 0 3 0;
#X connect 1 0 0 0;
#X connect 1 0 3 1;
#X connect 2 0 0 0;
#X connect 2 0 3 1;
#X connect 3 0 6 0;
#X connect 4 0 2 0;
#X connect 5 0 1 0;
#X connect 5 1 4 0;
#X connect 7 0 5 0;
