#N canvas 46 256 584 484 10;
#X floatatom 96 113 5 0 0 0 - - -;
#X obj 115 182 expr int(96*pow($f1/1000 \, 3)+1)+$f2;
#X floatatom 322 113 5 0 0 0 - - -;
#X obj 322 84 random 32;
#X obj 96 91 random 999;
#X obj 96 68 t b b;
#X obj 135 203 expr int(1000/pow(10 \, $f1%125/124));
#X obj 96 161 expr int(30*pow($f1/1000 \, 3)*sin(8*atan(1)*480*$f1/1000)+66)
;
#X obj 96 135 t f f f;
#X obj 96 336 outlet;
#X obj 115 307 outlet;
#X obj 135 278 outlet;
#X obj 96 12 inlet;
#X obj 322 12 inlet;
#X msg 322 35 seed \$1;
#X connect 0 0 8 0;
#X connect 1 0 10 0;
#X connect 2 0 1 1;
#X connect 3 0 2 0;
#X connect 4 0 0 0;
#X connect 5 0 4 0;
#X connect 5 1 3 0;
#X connect 6 0 11 0;
#X connect 7 0 9 0;
#X connect 8 0 7 0;
#X connect 8 1 1 0;
#X connect 8 2 6 0;
#X connect 12 0 5 0;
#X connect 13 0 14 0;
#X connect 14 0 3 0;
#X connect 14 0 4 0;
