#N canvas 480 210 788 492 10;
#X obj 225 100 t b l;
#X obj 252 236 list length;
#X obj 39 70 bng 15 250 50 0 empty empty trg 17 7 0 10 -262144 -1 -1
;
#X obj 39 229 f;
#X msg 225 122 0;
#X obj 75 229 + 1;
#X floatatom 39 253 5 0 0 0 - - -;
#X obj 75 252 % 1;
#X obj 39 169 f;
#X obj 78 169 + 1;
#X obj 78 192 % 1;
#X obj 39 192 sel 0;
#X obj 39 90 hradio 15 1 0 8 empty empty every 0 24 0 10 -262144 -1
-1 7;
#X obj 106 169 + 1;
#X floatatom 127 69 5 0 0 0 from - -;
#X obj 39 9 inlet;
#X obj 225 9 inlet;
#X obj 39 376 outlet;
#X obj 272 9 table \$0-seq;
#X obj 272 116 array set \$0-seq;
#X obj 252 259 array size \$0-seq;
#X obj 39 298 array get \$0-seq;
#X connect 0 0 4 0;
#X connect 0 1 1 0;
#X connect 0 1 19 0;
#X connect 1 0 7 1;
#X connect 1 0 14 0;
#X connect 1 0 20 0;
#X connect 2 0 8 0;
#X connect 3 0 5 0;
#X connect 3 0 6 0;
#X connect 4 0 3 1;
#X connect 5 0 7 0;
#X connect 6 0 21 0;
#X connect 7 0 3 1;
#X connect 8 0 9 0;
#X connect 8 0 11 0;
#X connect 9 0 10 0;
#X connect 10 0 8 1;
#X connect 11 0 3 0;
#X connect 12 0 13 0;
#X connect 13 0 10 1;
#X connect 14 0 3 1;
#X connect 15 0 2 0;
#X connect 16 0 0 0;
#X connect 21 0 17 0;
#X coords 0 -1 1 1 130 85 1 35 40;
