#N canvas 0 116 1366 652 10;
#X obj 175 19 inlet;
#X obj 449 79 f 0;
#X obj 476 79 + 1;
#X obj 503 79 % 16;
#X obj 299 109 clip -12 12;
#X obj 299 86 % 12;
#X msg 777 63 0;
#X obj 175 87 t f b, f 6;
#X obj 175 110 f 0;
#X obj 208 142 f 0;
#X obj 175 158 -;
#X obj 175 181 abs;
#X obj 241 126 pipe 20;
#N canvas 0 50 450 250 (subpatch) 0;
#X array \$0-intervals 16 float 3;
#A 0 2 0 2 0 0 12 0 3 3 2 0 2 0 0 3 3;
#X coords 0 24 16 -1 100 35 1 0 0;
#X restore -16 932 graph;
#X obj 299 132 array set \$0-sequence, f 34;
#X obj 175 63 t f f b, f 42;
#X obj 449 102 t f f, f 13;
#X obj 548 118 sel 15;
#N canvas 6 116 450 250 (subpatch) 0;
#X array \$0-inter-pow 16 float 3;
#A 0 4 0 4 0 0 144 0 9 9 4 0 4 0 0 9 9;
#X coords 0 576 16 0 100 35 1 0 0;
#X restore -16 984 graph;
#X obj 175 204 t f f;
#X obj 175 227 *, f 5;
#X obj 294 220 array set \$0-intervals, f 35;
#X obj 548 141 t b b, f 6;
#X obj 175 252 array set \$0-inter-pow, f 55;
#X obj 653 157 array sum \$0-intervals;
#X obj 548 180 array sum \$0-inter-pow;
#X obj 548 204 expr (sqrt(($f1 - ($f2 * $f2) / 16) / 16)) / 12, f
18;
#X text 663 206 dev std norm;
#X obj 548 283 t f f b;
#X obj 602 283 f 0;
#X obj 629 283 + 1;
#X obj 656 283 % 16;
#X obj 567 312 array set \$0-dev-std-norm;
#X obj 175 292 sel 0;
#X msg 175 315 1;
#X msg 207 315 0;
#N canvas 6 116 450 250 (subpatch) 0;
#X array \$0-rep-density 16 float 3;
#A 0 0 1 0 1 1 0 1 0 0 0 1 0 1 1 0 0;
#X coords 0 1.1 16 -0.1 100 35 1 0 0;
#X restore 94 932 graph;
#X obj 175 347 array set \$0-rep-density;
#X obj 751 205 array sum \$0-rep-density;
#X obj 751 283 t f f b;
#X obj 805 283 f 0;
#X obj 832 283 + 1;
#X obj 859 283 % 16;
#X obj 751 228 / 16;
#X text 782 227 repetitions density;
#X obj 770 312 array set \$0-rep-norm;
#X obj 424 276 t b b;
#X obj 424 300 timer;
#N canvas 6 116 450 250 (subpatch) 0;
#X array \$0-time-values 16 float 3;
#A 0 0.25 0.5 0.25 0.5 0.25 0.5 0.25 1 0.25 0.25 0.5 0.25 0.5 0.25
1 0.25;
#X coords 0 8 16 0 100 35 1 0 0;
#X restore 201 932 graph;
#X obj 424 323 / 1000;
#X obj 424 346 t f f;
#X obj 424 369 *, f 5;
#N canvas 6 116 450 250 (subpatch) 0;
#X array \$0-times-val-pow 16 float 3;
#A 0 0.0625 0.25 0.0625 0.25 0.0625 0.25 0.0625 1 0.0625 0.0625 0.25
0.0625 0.25 0.0625 1 0.0625;
#X coords 0 16 16 0 100 35 1 0 0;
#X restore 201 984 graph;
#X obj 424 393 array set \$0-times-val-pow;
#X obj 474 362 array set \$0-time-values;
#X obj 918 134 t b b, f 6;
#X obj 918 283 t f f b;
#X obj 972 283 f 0;
#X obj 999 283 + 1;
#X obj 1026 283 % 16;
#X text 1033 206 dev time std norm;
#X obj 918 180 array sum \$0-times-val-pow;
#X obj 1023 150 array sum \$0-time-values;
#X obj 937 332 array set \$0-dev-time-norm;
#X obj 180 409 expr (abs($f1 - $f2)) % 12;
#X obj 333 385 f 48;
#X obj 333 19 inlet;
#X text 366 385 tonica;
#X obj 180 432 expr min($f1 \, 12 - $f1);
#X text 329 432 distanza min;
#X msg 1197 58 16;
#X obj 1197 83 until;
#X msg 1197 105 0;
#X obj 566 258 r reset;
#X obj 766 258 r reset;
#X obj 931 258 r reset;
#X obj 1197 128 s reset;
#N canvas 0 50 450 250 (subpatch) 0;
#X array \$0-dis-ton 16 float 3;
#A 0 5 5 5 5 5 5 5 2 5 5 5 5 5 5 2 5;
#X coords 0 7 16 -1 100 35 1 0 0;
#X restore 94 984 graph;
#X obj 180 455 array set \$0-dis-ton;
#X obj 1027 374 array sum \$0-dis-ton;
#X obj 1027 450 t f f b;
#X obj 1081 450 f 0;
#X obj 1108 450 + 1;
#X obj 1135 450 % 16;
#X obj 1040 425 r reset;
#X obj 1027 397 / 96;
#X obj 1046 479 array set \$0-dis-ton-norm;
#X obj 918 356 clip 0 1;
#X obj 937 309 clip 0 1;
#X obj 1197 263 array max \$0-sequence;
#X obj 1197 208 t b b;
#X obj 1197 294 -, f 5;
#X obj 1197 317 / 24;
#X text 1232 315 range dinamico norm;
#X obj 1197 370 t f f b;
#X obj 1251 370 f 0;
#X obj 1278 370 + 1;
#X obj 1305 370 % 16;
#X obj 1210 345 r reset;
#X obj 1216 399 array set \$0-range-din-norm;
#X obj 1224 237 array min \$0-sequence;
#X obj 777 19 inlet;
#X obj 777 42 t b b;
#X obj 548 579 outlet;
#X obj 751 579 outlet;
#X obj 918 579 outlet;
#X obj 1027 579 outlet;
#X obj 1197 579 outlet;
#X obj 31 23 cnv 15 108 78 empty empty empty 20 12 0 14 -262130 -66577
0;
#X obj 31 100 cnv 15 107 100 empty empty empty 20 12 0 14 -261682 -66577
0;
#X obj 31 201 cnv 15 107 50 empty empty empty 20 12 0 14 -204786 -66577
0;
#X obj 31 252 cnv 15 107 105 empty empty empty 20 12 0 14 -204800 -66577
0;
#N canvas 0 50 450 250 (subpatch) 0;
#X array \$0-sequence 16 float 3;
#A 0 7 7 5 5 5 5 5 2 5 7 7 5 5 5 2 5;
#X coords 0 12 16 -12 100 35 1 0 0;
#X restore 35 62 graph;
#N canvas 6 116 450 250 (subpatch) 0;
#X array \$0-dev-std-norm 16 float 1;
#A 0 1.03953 0.0772521 0.101529 0.353553 0.410369 0.106102 0.105718
0.0908104 0.0877724 0.101529 0.393083 0.394047 0.126617 0.109746 0.147957
0.14987;
#X coords 0 1 15 0 100 35 1 0 0;
#X restore 35 113 graph;
#N canvas 6 116 450 250 (subpatch) 0;
#X array \$0-rep-norm 16 float 1;
#A 0 0.25 0.125 0.1875 0.0625 0.0625 0.375 0.4375 0.25 0.125 0.1875
0 0.25 0 0 0 0;
#X coords 0 1.1 15 -0.1 100 35 1 0 0;
#X restore 35 164 graph;
#N canvas 6 116 450 250 (subpatch) 0;
#X array \$0-dev-time-norm 16 float 1;
#A 0 1 0.0706373 0.0613915 0.0613915 0.0706373 0.0620098 0.0613915
0.0613915 0.0706373 0.0613915 0.0613915 0.0706373 0.000823551 0.0410314
0.114413 0.107194;
#X coords 0 1 15 0 100 35 1 0 0;
#X restore 35 215 graph;
#N canvas 6 116 450 250 (subpatch) 0;
#X array \$0-dis-ton-norm 16 float 1;
#A 0 0.729167 0.739583 0.729167 0.614583 0.375 0.166667 0.166667 0.1875
0.239583 0.270833 0.479167 0.666667 0.489583 0.479167 0.458333 0.520833
;
#X coords 0 1 15 0 100 35 1 0 0;
#X restore 35 266 graph;
#N canvas 6 116 450 250 (subpatch) 0;
#X array \$0-range-din-norm 16 float 1;
#A 0 0.25 0.208333 0.208333 0.416667 0.416667 0.375 0.375 0.375 0.416667
0.416667 0.416667 0.333333 0.5 0.625 0.708333 0.708333;
#X coords 0 1 15 0 100 35 1 0 0;
#X restore 35 317 graph;
#X obj 918 204 expr (sqrt(($f1 - ($f2 * $f2) / 16) / 16)) / 2, f 18
;
#X connect 0 0 15 0;
#X connect 1 0 2 0;
#X connect 1 0 16 0;
#X connect 2 0 3 0;
#X connect 3 0 1 1;
#X connect 4 0 14 0;
#X connect 5 0 4 0;
#X connect 6 0 1 1;
#X connect 6 0 29 1;
#X connect 6 0 40 1;
#X connect 6 0 57 1;
#X connect 6 0 95 1;
#X connect 7 0 8 0;
#X connect 7 1 9 0;
#X connect 8 0 10 0;
#X connect 8 0 12 0;
#X connect 9 0 10 1;
#X connect 10 0 11 0;
#X connect 11 0 19 0;
#X connect 12 0 9 1;
#X connect 15 0 7 0;
#X connect 15 1 5 0;
#X connect 15 1 64 0;
#X connect 15 2 1 0;
#X connect 15 2 46 0;
#X connect 16 0 14 1;
#X connect 16 0 21 1;
#X connect 16 0 23 1;
#X connect 16 0 37 1;
#X connect 16 0 53 1;
#X connect 16 0 54 1;
#X connect 16 0 78 1;
#X connect 16 1 17 0;
#X connect 17 0 22 0;
#X connect 17 0 55 0;
#X connect 19 0 20 0;
#X connect 19 1 20 1;
#X connect 19 1 21 0;
#X connect 19 1 33 0;
#X connect 20 0 23 0;
#X connect 22 0 25 0;
#X connect 22 1 24 0;
#X connect 22 1 38 0;
#X connect 24 0 26 1;
#X connect 25 0 26 0;
#X connect 26 0 28 0;
#X connect 28 0 103 0;
#X connect 28 1 32 0;
#X connect 28 2 29 0;
#X connect 29 0 30 0;
#X connect 29 0 32 1;
#X connect 30 0 31 0;
#X connect 31 0 29 1;
#X connect 33 0 34 0;
#X connect 33 1 35 0;
#X connect 34 0 37 0;
#X connect 35 0 37 0;
#X connect 38 0 43 0;
#X connect 39 0 104 0;
#X connect 39 1 45 0;
#X connect 39 2 40 0;
#X connect 40 0 41 0;
#X connect 40 0 45 1;
#X connect 41 0 42 0;
#X connect 42 0 40 1;
#X connect 43 0 39 0;
#X connect 46 0 47 0;
#X connect 46 1 47 1;
#X connect 47 0 49 0;
#X connect 49 0 50 0;
#X connect 50 0 51 0;
#X connect 50 1 51 1;
#X connect 50 1 54 0;
#X connect 51 0 53 0;
#X connect 55 0 61 0;
#X connect 55 1 62 0;
#X connect 55 1 79 0;
#X connect 55 1 90 0;
#X connect 56 0 87 0;
#X connect 56 1 88 0;
#X connect 56 2 57 0;
#X connect 57 0 58 0;
#X connect 57 0 63 1;
#X connect 58 0 59 0;
#X connect 59 0 57 1;
#X connect 61 0 118 0;
#X connect 62 0 118 1;
#X connect 64 0 68 0;
#X connect 65 0 64 1;
#X connect 66 0 65 0;
#X connect 68 0 78 0;
#X connect 70 0 71 0;
#X connect 71 0 72 0;
#X connect 72 0 76 0;
#X connect 73 0 28 0;
#X connect 74 0 39 0;
#X connect 75 0 56 0;
#X connect 79 0 85 0;
#X connect 80 0 106 0;
#X connect 80 1 86 0;
#X connect 80 2 81 0;
#X connect 81 0 82 0;
#X connect 81 0 86 1;
#X connect 82 0 83 0;
#X connect 83 0 81 1;
#X connect 84 0 80 0;
#X connect 85 0 80 0;
#X connect 87 0 105 0;
#X connect 88 0 63 0;
#X connect 89 0 91 0;
#X connect 90 0 89 0;
#X connect 90 1 100 0;
#X connect 91 0 92 0;
#X connect 92 0 94 0;
#X connect 94 0 107 0;
#X connect 94 1 99 0;
#X connect 94 2 95 0;
#X connect 95 0 96 0;
#X connect 95 0 99 1;
#X connect 96 0 97 0;
#X connect 97 0 95 1;
#X connect 98 0 94 0;
#X connect 100 0 91 1;
#X connect 101 0 102 0;
#X connect 102 1 70 0;
#X connect 118 0 56 0;
#X coords 0 -1 1 1 110 340 1 30 20;
