#N canvas 177 184 479 480 10;
#X obj 50 65 i 0;
#X obj 76 65 + 1;
#X obj 50 280 random 100;
#X msg 119 249 seed \$1;
#X obj 50 326 sel 1;
#X obj 119 227 f 0, f 8;
#X obj 119 181 i 0;
#X obj 145 181 + 1;
#X obj 119 204 sel 0;
#X obj 50 369 i;
#X obj 50 111 change -1;
#X msg 50 134 bang;
#X obj 50 88 div \$1;
#X obj 171 181 % \$2;
#X obj 50 13 inlet;
#X obj 164 13 inlet;
#X obj 50 303 < \$3, f 5;
#X obj 84 353 random \$4;
#X obj 50 157 t b b b, f 12;
#X obj 50 422 outlet;
#X obj 134 65 r sync;
#X msg 134 88 0;
#X connect 0 0 1 0;
#X connect 0 0 12 0;
#X connect 1 0 0 1;
#X connect 2 0 16 0;
#X connect 3 0 2 0;
#X connect 3 0 17 0;
#X connect 4 0 9 0;
#X connect 5 0 3 0;
#X connect 6 0 7 0;
#X connect 6 0 8 0;
#X connect 7 0 13 0;
#X connect 8 0 5 0;
#X connect 9 0 19 0;
#X connect 10 0 11 0;
#X connect 11 0 18 0;
#X connect 12 0 10 0;
#X connect 13 0 6 1;
#X connect 14 0 0 0;
#X connect 15 0 5 1;
#X connect 16 0 4 0;
#X connect 17 0 9 1;
#X connect 18 0 2 0;
#X connect 18 1 17 0;
#X connect 18 2 6 0;
#X connect 20 0 21 0;
#X connect 21 0 6 1;
#X connect 21 0 0 1;
