#N canvas 18 265 468 406 10;
#X obj 129 198 line~;
#X obj 305 104 noise~;
#X obj 128 281 *~;
#X obj 197 265 +~;
#X obj 326 174 + 100;
#X obj 305 197 lop~;
#X obj 129 129 t a b, f 33;
#X obj 197 104 osc~ \$2;
#X obj 129 221 pow~ 2;
#X obj 162 165 f \$4;
#X obj 129 11 inlet;
#X obj 127 313 outlet~;
#X obj 230 153 f \$5;
#X obj 369 181 f \$6;
#X obj 230 175 clip 0 0.5;
#X obj 369 204 clip 0 0.5;
#X obj 353 128 f \$7;
#X msg 129 103 1 \, 0 \$1;
#X obj 129 81 f \$3;
#X obj 326 150 random 200;
#X obj 197 199 *~;
#X obj 305 250 *~;
#X obj 305 220 hip~;
#X obj 402 149 f \$8;
#X obj 129 54 t b b b b b b, f 46;
#X connect 0 0 8 0;
#X connect 1 0 5 0;
#X connect 2 0 11 0;
#X connect 3 0 2 1;
#X connect 4 0 5 1;
#X connect 5 0 22 0;
#X connect 6 0 0 0;
#X connect 6 1 19 0;
#X connect 7 0 20 0;
#X connect 8 0 2 0;
#X connect 9 0 8 1;
#X connect 10 0 24 0;
#X connect 12 0 14 0;
#X connect 13 0 15 0;
#X connect 14 0 20 1;
#X connect 15 0 21 1;
#X connect 16 0 4 1;
#X connect 17 0 6 0;
#X connect 18 0 17 0;
#X connect 19 0 4 0;
#X connect 20 0 3 0;
#X connect 21 0 3 1;
#X connect 22 0 21 0;
#X connect 23 0 22 1;
#X connect 24 0 18 0;
#X connect 24 1 9 0;
#X connect 24 2 12 0;
#X connect 24 3 13 0;
#X connect 24 4 16 0;
#X connect 24 5 23 0;
