#N canvas 161 234 714 505 10;
#X obj 149 119 inlet;
#X obj 149 167 t b b, f 29;
#X obj 149 195 f 0;
#X obj 175 195 + 1;
#X obj 320 195 f 0;
#X obj 346 195 + 1;
#X obj 149 218 sel 0;
#X obj 320 218 sel 0;
#X obj 201 195 % \$1;
#X obj 372 195 % \$2;
#X obj 149 294 outlet;
#X connect 0 0 1 0;
#X connect 1 0 2 0;
#X connect 1 1 4 0;
#X connect 2 0 3 0;
#X connect 2 0 6 0;
#X connect 3 0 8 0;
#X connect 4 0 5 0;
#X connect 4 0 7 0;
#X connect 5 0 9 0;
#X connect 6 0 10 0;
#X connect 7 0 10 0;
#X connect 8 0 2 1;
#X connect 9 0 4 1;
