#N canvas 495 196 786 480 10;
#X obj 71 22 inlet;
#X obj 71 108 f 0;
#X obj 129 108 % \$1;
#X obj 164 133 div \$2;
#X obj 71 208 - 0;
#X obj 71 85 t b b, f 16;
#X obj 164 109 f 0;
#X obj 217 109 % \$1;
#X obj 190 109 + 1;
#X obj 150 22 inlet;
#X obj 197 22 inlet;
#X obj 408 22 inlet;
#X obj 71 252 outlet;
#X obj 164 192 expr if($f1!=0 \, $f1*$f2 \, 0);
#X obj 323 167 f \$3;
#X obj 97 108 + \$4;
#X obj 344 22 inlet;
#X connect 0 0 5 0;
#X connect 1 0 15 0;
#X connect 1 0 4 0;
#X connect 2 0 1 1;
#X connect 3 0 13 0;
#X connect 4 0 12 0;
#X connect 5 0 1 0;
#X connect 5 1 6 0;
#X connect 5 1 14 0;
#X connect 6 0 8 0;
#X connect 6 0 3 0;
#X connect 7 0 6 1;
#X connect 8 0 7 0;
#X connect 9 0 2 1;
#X connect 9 0 7 1;
#X connect 10 0 3 1;
#X connect 11 0 15 1;
#X connect 13 0 4 1;
#X connect 14 0 13 1;
#X connect 15 0 2 0;
#X connect 16 0 14 1;
