#N canvas 378 203 813 535 10;
#X obj 82 31 inlet;
#X obj 158 31 inlet;
#X msg 158 54 seed \$1;
#X obj 82 100 random 13;
#X obj 82 217 pack 0 0;
#X obj 82 240 route 0 1 2 3, f 49;
#X obj 82 123 t b f;
#X msg 82 403 1;
#X obj 82 193 i 0;
#X obj 97 146 r state;
#X obj 155 445 s state;
#X msg 227 331 0;
#X obj 227 354 s state;
#X msg 154 331 0;
#X obj 154 354 s state;
#X msg 118 403 0;
#X msg 155 403 2;
#X msg 193 403 3;
#X obj 82 380 sel 0 4 7 11 12, f 31;
#X msg 228 404 1;
#X obj 55 289 t f f;
#X obj 55 477 outlet;
#X obj 97 169 t f b;
#X obj 339 185 outlet;
#X obj 227 289 sel 7 11 5;
#X obj 154 289 sel 0 4 2;
#X connect 0 0 3 0;
#X connect 1 0 2 0;
#X connect 2 0 3 0;
#X connect 3 0 6 0;
#X connect 4 0 5 0;
#X connect 5 0 20 0;
#X connect 5 1 25 0;
#X connect 5 2 24 0;
#X connect 5 3 24 0;
#X connect 6 0 8 0;
#X connect 6 1 4 1;
#X connect 7 0 10 0;
#X connect 8 0 4 0;
#X connect 9 0 22 0;
#X connect 11 0 12 0;
#X connect 13 0 14 0;
#X connect 15 0 10 0;
#X connect 16 0 10 0;
#X connect 17 0 10 0;
#X connect 18 0 7 0;
#X connect 18 1 15 0;
#X connect 18 2 16 0;
#X connect 18 3 17 0;
#X connect 18 4 19 0;
#X connect 19 0 10 0;
#X connect 20 0 21 0;
#X connect 20 1 18 0;
#X connect 22 0 8 1;
#X connect 22 1 23 0;
#X connect 24 0 11 0;
#X connect 24 1 11 0;
#X connect 24 2 11 0;
#X connect 25 0 13 0;
#X connect 25 1 13 0;
#X connect 25 2 13 0;
