#N canvas 0 116 1366 652 10;
#X obj 48 51 tgl 15 0 empty empty empty 17 7 0 10 -262144 -1 -1 0 1
;
#X obj 47 253 metro 1000;
#X floatatom 68 51 5 0 0 2 delay - -;
#X obj 47 325 pack 1 \$1;
#X obj 47 377 line;
#X obj 74 349 pack 0 \$1;
#X obj 74 302 del \$1;
#X obj 47 277 t b b;
#X obj 149 51 hsl 50 15 0 1 0 0 empty empty empty -2 -8 0 10 -262144
-1 -1 0 1;
#X obj 130 51 bng 15 250 50 0 empty empty empty 17 7 0 10 -262144 -1
-1;
#X obj 202 51 bng 15 250 50 0 empty empty empty 17 7 0 10 -262144 -1
-1;
#X obj 47 399 sel 0 1, f 43;
#X floatatom 106 51 3 20 80 2 n1 - -;
#X floatatom 221 51 3 20 80 2 n2 - -;
#X obj 47 444 f;
#X obj 47 467 mtof;
#X obj 47 490 osc~;
#X obj 47 529 *~;
#X obj 47 421 t b b;
#X obj 174 421 t b b;
#X msg 82 467 1 20 \, 0 \$1 20;
#X obj 82 444 f;
#X obj 97 372 * 0.8;
#X obj 82 490 vline~;
#X obj 81 513 pow~ 4;
#X obj 174 443 f;
#X obj 174 466 mtof;
#X obj 174 489 osc~;
#X obj 174 528 *~;
#X msg 209 466 1 20 \, 0 \$1 20;
#X obj 209 443 f;
#X obj 209 489 vline~;
#X obj 208 512 pow~ 4;
#X obj 116 229 + 20;
#X obj 116 252 * 2;
#X obj 48 72 tgl 15 0 empty empty empty 17 7 0 10 -262144 -1 -1 0 1
;
#X obj 321 252 metro 1000;
#X floatatom 68 72 5 0 0 2 - - -;
#X obj 321 324 pack 1 \$1;
#X obj 321 376 line;
#X obj 348 348 pack 0 \$1;
#X obj 348 301 del \$1;
#X obj 321 276 t b b;
#X obj 149 72 hsl 50 15 0 1 0 0 empty empty empty -2 -8 0 10 -262144
-1 -1 0 1;
#X obj 130 72 bng 15 250 50 0 empty empty empty 17 7 0 10 -262144 -1
-1;
#X obj 202 72 bng 15 250 50 0 empty empty empty 17 7 0 10 -262144 -1
-1;
#X obj 321 398 sel 0 1, f 43;
#X floatatom 106 72 3 20 80 2 - - -;
#X floatatom 221 72 3 20 80 2 - - -;
#X obj 321 443 f;
#X obj 321 466 mtof;
#X obj 321 489 osc~;
#X obj 321 528 *~;
#X obj 321 420 t b b;
#X obj 448 420 t b b;
#X msg 356 466 1 20 \, 0 \$1 20;
#X obj 356 443 f;
#X obj 371 371 * 0.8;
#X obj 356 489 vline~;
#X obj 355 512 pow~ 4;
#X obj 448 442 f;
#X obj 448 465 mtof;
#X obj 448 488 osc~;
#X obj 448 527 *~;
#X msg 483 465 1 20 \, 0 \$1 20;
#X obj 483 442 f;
#X obj 483 488 vline~;
#X obj 482 511 pow~ 4;
#X obj 390 228 + 20;
#X obj 390 251 * 2;
#X obj 48 93 tgl 15 0 empty empty empty 17 7 0 10 -262144 -1 -1 0 1
;
#X obj 590 251 metro 1000;
#X floatatom 68 93 5 0 0 2 - - -;
#X obj 590 323 pack 1 \$1;
#X obj 590 375 line;
#X obj 617 347 pack 0 \$1;
#X obj 617 300 del \$1;
#X obj 590 275 t b b;
#X obj 149 93 hsl 50 15 0 1 0 0 empty empty empty -2 -8 0 10 -262144
-1 -1 0 1;
#X obj 130 93 bng 15 250 50 0 empty empty empty 17 7 0 10 -262144 -1
-1;
#X obj 202 93 bng 15 250 50 0 empty empty empty 17 7 0 10 -262144 -1
-1;
#X obj 590 397 sel 0 1, f 43;
#X floatatom 106 93 3 20 80 2 - - -;
#X floatatom 221 93 3 20 80 2 - - -;
#X obj 590 442 f;
#X obj 590 465 mtof;
#X obj 590 488 osc~;
#X obj 590 527 *~;
#X obj 590 419 t b b;
#X obj 717 419 t b b;
#X msg 625 465 1 20 \, 0 \$1 20;
#X obj 625 442 f;
#X obj 640 370 * 0.8;
#X obj 625 488 vline~;
#X obj 624 511 pow~ 4;
#X obj 717 441 f;
#X obj 717 464 mtof;
#X obj 717 487 osc~;
#X obj 717 526 *~;
#X msg 752 464 1 20 \, 0 \$1 20;
#X obj 752 441 f;
#X obj 752 487 vline~;
#X obj 751 510 pow~ 4;
#X obj 659 227 + 20;
#X obj 659 250 * 2;
#X obj 48 113 tgl 15 0 empty empty empty 17 7 0 10 -262144 -1 -1 0
1;
#X obj 858 250 metro 1000;
#X floatatom 68 113 5 0 0 2 - - -;
#X obj 858 322 pack 1 \$1;
#X obj 858 374 line;
#X obj 885 346 pack 0 \$1;
#X obj 885 299 del \$1;
#X obj 858 274 t b b;
#X obj 149 113 hsl 50 15 0 1 0 0 empty empty empty -2 -8 0 10 -262144
-1 -1 0 1;
#X obj 130 113 bng 15 250 50 0 empty empty empty 17 7 0 10 -262144
-1 -1;
#X obj 202 113 bng 15 250 50 0 empty empty empty 17 7 0 10 -262144
-1 -1;
#X obj 858 396 sel 0 1, f 43;
#X floatatom 106 113 3 20 80 2 - - -;
#X floatatom 221 113 3 20 80 2 - - -;
#X obj 858 441 f;
#X obj 858 464 mtof;
#X obj 858 487 osc~;
#X obj 858 526 *~;
#X obj 858 418 t b b;
#X obj 985 418 t b b;
#X msg 893 464 1 20 \, 0 \$1 20;
#X obj 893 441 f;
#X obj 908 369 * 0.8;
#X obj 893 487 vline~;
#X obj 892 510 pow~ 4;
#X obj 985 440 f;
#X obj 985 463 mtof;
#X obj 985 486 osc~;
#X obj 985 525 *~;
#X msg 1020 463 1 20 \, 0 \$1 20;
#X obj 1020 440 f;
#X obj 1020 486 vline~;
#X obj 1019 509 pow~ 4;
#X obj 927 226 + 20;
#X obj 927 249 * 2;
#X obj 48 133 tgl 15 0 empty empty empty 17 7 0 10 -262144 -1 -1 0
1;
#X obj 1126 249 metro 1000;
#X floatatom 68 133 5 0 0 2 - - -;
#X obj 1126 321 pack 1 \$1;
#X obj 1126 373 line;
#X obj 1153 345 pack 0 \$1;
#X obj 1153 298 del \$1;
#X obj 1126 273 t b b;
#X obj 149 133 hsl 50 15 0 1 0 0 empty empty empty -2 -8 0 10 -262144
-1 -1 0 1;
#X obj 130 133 bng 15 250 50 0 empty empty empty 17 7 0 10 -262144
-1 -1;
#X obj 202 133 bng 15 250 50 0 empty empty empty 17 7 0 10 -262144
-1 -1;
#X obj 1126 395 sel 0 1, f 43;
#X floatatom 106 133 3 20 80 2 - - -;
#X floatatom 221 133 3 20 80 2 - - -;
#X obj 1126 440 f;
#X obj 1126 463 mtof;
#X obj 1126 486 osc~;
#X obj 1126 525 *~;
#X obj 1126 417 t b b;
#X obj 1253 417 t b b;
#X msg 1161 463 1 20 \, 0 \$1 20;
#X obj 1161 440 f;
#X obj 1176 368 * 0.8;
#X obj 1161 486 vline~;
#X obj 1160 509 pow~ 4;
#X obj 1253 439 f;
#X obj 1253 462 mtof;
#X obj 1253 485 osc~;
#X obj 1253 524 *~;
#X msg 1288 462 1 20 \, 0 \$1 20;
#X obj 1288 439 f;
#X obj 1288 485 vline~;
#X obj 1287 508 pow~ 4;
#X obj 1195 225 + 20;
#X obj 1195 248 * 2;
#X obj 652 598 /~ 10;
#X obj 652 630 outlet~;
#X floatatom 873 82 5 0 0 0 - - -;
#X obj 186 20 hradio 15 1 0 5 empty empty empty 0 -8 0 10 -262144 -1
-1 0;
#X obj 873 33 + 1;
#X obj 873 56 * 2;
#X obj 245 51 bng 15 250 50 0 empty empty rnd 0 -8 0 10 -262144 -1
-1;
#X obj 363 64 random 60;
#X obj 363 87 + 20;
#X obj 425 64 random 60;
#X obj 425 87 + 20;
#X obj 245 72 bng 15 250 50 0 empty empty empty 17 7 0 10 -262144 -1
-1;
#X obj 498 64 random 60;
#X obj 498 87 + 20;
#X obj 560 64 random 60;
#X obj 560 87 + 20;
#X obj 245 93 bng 15 250 50 0 empty empty empty 17 7 0 10 -262144 -1
-1;
#X obj 627 64 random 60;
#X obj 627 87 + 20;
#X obj 689 64 random 60;
#X obj 689 87 + 20;
#X obj 364 118 random 60;
#X obj 364 141 + 20;
#X obj 426 118 random 60;
#X obj 426 141 + 20;
#X obj 499 118 random 60;
#X obj 499 141 + 20;
#X obj 561 118 random 60;
#X obj 561 141 + 20;
#X obj 245 113 bng 15 250 50 0 empty empty empty 17 7 0 10 -262144
-1 -1;
#X obj 245 134 bng 15 250 50 0 empty empty empty 17 7 0 10 -262144
-1 -1;
#X connect 0 0 1 0;
#X connect 1 0 7 0;
#X connect 2 0 3 1;
#X connect 2 0 5 1;
#X connect 2 0 6 1;
#X connect 2 0 33 0;
#X connect 2 0 22 0;
#X connect 3 0 4 0;
#X connect 4 0 8 0;
#X connect 4 0 11 0;
#X connect 5 0 4 0;
#X connect 6 0 5 0;
#X connect 7 0 3 0;
#X connect 7 1 6 0;
#X connect 11 0 9 0;
#X connect 11 0 18 0;
#X connect 11 1 10 0;
#X connect 11 1 19 0;
#X connect 12 0 14 1;
#X connect 13 0 25 1;
#X connect 14 0 15 0;
#X connect 15 0 16 0;
#X connect 16 0 17 0;
#X connect 17 0 175 0;
#X connect 18 0 14 0;
#X connect 18 1 21 0;
#X connect 19 0 25 0;
#X connect 19 1 30 0;
#X connect 20 0 23 0;
#X connect 21 0 20 0;
#X connect 22 0 21 1;
#X connect 22 0 30 1;
#X connect 23 0 24 0;
#X connect 24 0 17 1;
#X connect 25 0 26 0;
#X connect 26 0 27 0;
#X connect 27 0 28 0;
#X connect 28 0 175 0;
#X connect 29 0 31 0;
#X connect 30 0 29 0;
#X connect 31 0 32 0;
#X connect 32 0 28 1;
#X connect 33 0 34 0;
#X connect 34 0 1 1;
#X connect 35 0 36 0;
#X connect 36 0 42 0;
#X connect 37 0 38 1;
#X connect 37 0 40 1;
#X connect 37 0 41 1;
#X connect 37 0 68 0;
#X connect 37 0 57 0;
#X connect 38 0 39 0;
#X connect 39 0 43 0;
#X connect 39 0 46 0;
#X connect 40 0 39 0;
#X connect 41 0 40 0;
#X connect 42 0 38 0;
#X connect 42 1 41 0;
#X connect 46 0 44 0;
#X connect 46 0 53 0;
#X connect 46 1 45 0;
#X connect 46 1 54 0;
#X connect 47 0 49 1;
#X connect 48 0 60 1;
#X connect 49 0 50 0;
#X connect 50 0 51 0;
#X connect 51 0 52 0;
#X connect 52 0 175 0;
#X connect 53 0 49 0;
#X connect 53 1 56 0;
#X connect 54 0 60 0;
#X connect 54 1 65 0;
#X connect 55 0 58 0;
#X connect 56 0 55 0;
#X connect 57 0 56 1;
#X connect 57 0 65 1;
#X connect 58 0 59 0;
#X connect 59 0 52 1;
#X connect 60 0 61 0;
#X connect 61 0 62 0;
#X connect 62 0 63 0;
#X connect 63 0 175 0;
#X connect 64 0 66 0;
#X connect 65 0 64 0;
#X connect 66 0 67 0;
#X connect 67 0 63 1;
#X connect 68 0 69 0;
#X connect 69 0 36 1;
#X connect 70 0 71 0;
#X connect 71 0 77 0;
#X connect 72 0 73 1;
#X connect 72 0 75 1;
#X connect 72 0 76 1;
#X connect 72 0 103 0;
#X connect 72 0 92 0;
#X connect 73 0 74 0;
#X connect 74 0 78 0;
#X connect 74 0 81 0;
#X connect 75 0 74 0;
#X connect 76 0 75 0;
#X connect 77 0 73 0;
#X connect 77 1 76 0;
#X connect 81 0 79 0;
#X connect 81 0 88 0;
#X connect 81 1 80 0;
#X connect 81 1 89 0;
#X connect 82 0 84 1;
#X connect 83 0 95 1;
#X connect 84 0 85 0;
#X connect 85 0 86 0;
#X connect 86 0 87 0;
#X connect 87 0 175 0;
#X connect 88 0 84 0;
#X connect 88 1 91 0;
#X connect 89 0 95 0;
#X connect 89 1 100 0;
#X connect 90 0 93 0;
#X connect 91 0 90 0;
#X connect 92 0 91 1;
#X connect 92 0 100 1;
#X connect 93 0 94 0;
#X connect 94 0 87 1;
#X connect 95 0 96 0;
#X connect 96 0 97 0;
#X connect 97 0 98 0;
#X connect 98 0 175 0;
#X connect 99 0 101 0;
#X connect 100 0 99 0;
#X connect 101 0 102 0;
#X connect 102 0 98 1;
#X connect 103 0 104 0;
#X connect 104 0 71 1;
#X connect 105 0 106 0;
#X connect 106 0 112 0;
#X connect 107 0 108 1;
#X connect 107 0 110 1;
#X connect 107 0 111 1;
#X connect 107 0 138 0;
#X connect 107 0 127 0;
#X connect 108 0 109 0;
#X connect 109 0 113 0;
#X connect 109 0 116 0;
#X connect 110 0 109 0;
#X connect 111 0 110 0;
#X connect 112 0 108 0;
#X connect 112 1 111 0;
#X connect 116 0 114 0;
#X connect 116 0 123 0;
#X connect 116 1 115 0;
#X connect 116 1 124 0;
#X connect 117 0 119 1;
#X connect 118 0 130 1;
#X connect 119 0 120 0;
#X connect 120 0 121 0;
#X connect 121 0 122 0;
#X connect 122 0 175 0;
#X connect 123 0 119 0;
#X connect 123 1 126 0;
#X connect 124 0 130 0;
#X connect 124 1 135 0;
#X connect 125 0 128 0;
#X connect 126 0 125 0;
#X connect 127 0 126 1;
#X connect 127 0 135 1;
#X connect 128 0 129 0;
#X connect 129 0 122 1;
#X connect 130 0 131 0;
#X connect 131 0 132 0;
#X connect 132 0 133 0;
#X connect 133 0 175 0;
#X connect 134 0 136 0;
#X connect 135 0 134 0;
#X connect 136 0 137 0;
#X connect 137 0 133 1;
#X connect 138 0 139 0;
#X connect 139 0 106 1;
#X connect 140 0 141 0;
#X connect 141 0 147 0;
#X connect 142 0 143 1;
#X connect 142 0 145 1;
#X connect 142 0 146 1;
#X connect 142 0 173 0;
#X connect 142 0 162 0;
#X connect 143 0 144 0;
#X connect 144 0 148 0;
#X connect 144 0 151 0;
#X connect 145 0 144 0;
#X connect 146 0 145 0;
#X connect 147 0 143 0;
#X connect 147 1 146 0;
#X connect 151 0 149 0;
#X connect 151 0 158 0;
#X connect 151 1 150 0;
#X connect 151 1 159 0;
#X connect 152 0 154 1;
#X connect 153 0 165 1;
#X connect 154 0 155 0;
#X connect 155 0 156 0;
#X connect 156 0 157 0;
#X connect 157 0 175 0;
#X connect 158 0 154 0;
#X connect 158 1 161 0;
#X connect 159 0 165 0;
#X connect 159 1 170 0;
#X connect 160 0 163 0;
#X connect 161 0 160 0;
#X connect 162 0 161 1;
#X connect 162 0 170 1;
#X connect 163 0 164 0;
#X connect 164 0 157 1;
#X connect 165 0 166 0;
#X connect 166 0 167 0;
#X connect 167 0 168 0;
#X connect 168 0 175 0;
#X connect 169 0 171 0;
#X connect 170 0 169 0;
#X connect 171 0 172 0;
#X connect 172 0 168 1;
#X connect 173 0 174 0;
#X connect 174 0 141 1;
#X connect 175 0 176 0;
#X connect 177 0 164 1;
#X connect 177 0 172 1;
#X connect 177 0 137 1;
#X connect 177 0 129 1;
#X connect 177 0 102 1;
#X connect 177 0 94 1;
#X connect 177 0 67 1;
#X connect 177 0 59 1;
#X connect 177 0 32 1;
#X connect 177 0 24 1;
#X connect 178 0 179 0;
#X connect 179 0 180 0;
#X connect 180 0 177 0;
#X connect 181 0 182 0;
#X connect 181 0 184 0;
#X connect 182 0 183 0;
#X connect 183 0 12 0;
#X connect 184 0 185 0;
#X connect 185 0 13 0;
#X connect 186 0 187 0;
#X connect 186 0 189 0;
#X connect 187 0 188 0;
#X connect 188 0 47 0;
#X connect 189 0 190 0;
#X connect 190 0 48 0;
#X connect 191 0 192 0;
#X connect 191 0 194 0;
#X connect 192 0 193 0;
#X connect 193 0 82 0;
#X connect 194 0 195 0;
#X connect 195 0 83 0;
#X connect 196 0 197 0;
#X connect 197 0 117 0;
#X connect 198 0 199 0;
#X connect 199 0 118 0;
#X connect 200 0 201 0;
#X connect 201 0 152 0;
#X connect 202 0 203 0;
#X connect 203 0 153 0;
#X connect 204 0 196 0;
#X connect 204 0 198 0;
#X connect 205 0 200 0;
#X connect 205 0 202 0;
#X coords 0 -1 1 1 230 150 1 40 8;
