#N canvas 555 198 450 462 10;
#X obj 98 211 i;
#X obj 98 234 + 1;
#X obj 98 257 mod 4;
#X obj 35 213 sel 0;
#X obj 35 258 line~;
#X obj 35 281 *~;
#X obj 35 327 osc~;
#X obj 35 350 *~;
#X floatatom 79 85 3 0 0 1 tone - -;
#X msg 35 235 1 \, 0 90;
#X floatatom 79 65 3 0 8 1 every - -;
#X obj 35 304 *~ 180;
#X obj 59 65 bng 15 250 50 0 empty empty empty 17 7 0 10 -262144 -1
-1;
#X obj 59 6 inlet;
#X obj 35 373 *~;
#X obj 63 156 hsl 65 15 0 1 0 0 empty empty vol -2 -8 0 10 -262144
-1 -1 3700 1;
#X obj 73 351 pack \$1 500;
#X obj 73 373 line~;
#X obj 35 430 outlet~;
#X obj 35 404 lop~ 100;
#X obj 63 125 hsl 65 15 50 500 0 0 empty empty lpf -2 -8 0 10 -262144
-1 -1 2000 1;
#X connect 0 0 1 0;
#X connect 0 0 3 0;
#X connect 1 0 2 0;
#X connect 2 0 0 1;
#X connect 3 0 9 0;
#X connect 4 0 5 0;
#X connect 4 0 5 1;
#X connect 5 0 7 1;
#X connect 5 0 11 0;
#X connect 6 0 7 0;
#X connect 7 0 14 0;
#X connect 8 0 11 1;
#X connect 9 0 4 0;
#X connect 10 0 2 1;
#X connect 11 0 6 0;
#X connect 12 0 0 0;
#X connect 13 0 12 0;
#X connect 14 0 19 0;
#X connect 15 0 16 0;
#X connect 16 0 17 0;
#X connect 17 0 14 1;
#X connect 19 0 18 0;
#X connect 20 0 19 1;
#X coords 0 -1 1 1 90 140 1 50 40;
