#N canvas 421 116 881 636 10;
#X obj 62 92 bng 15 250 50 0 empty empty init 17 7 0 10 -262144 -1
-1;
#X obj 370 292 random 6;
#X obj 370 362 list store;
#X obj 370 315 list append;
#X obj 370 338 t b l;
#X obj 249 325 bng 15 250 50 0 empty empty clear 17 7 0 10 -262144
-1 -1;
#X obj 445 186 random 5;
#X obj 445 209 + 1;
#X floatatom 445 232 5 0 0 0 - - -;
#X obj 115 92 tgl 15 0 empty empty run 17 7 0 10 -262144 -1 -1 0 1
;
#X obj 370 223 f;
#X obj 407 224 + 1;
#X obj 407 247 % 1;
#X obj 370 273 bng 15 250 50 0 empty empty empty 17 7 0 10 -262144
-1 -1;
#X obj 407 270 sel 0;
#X obj 62 72 bng 15 250 50 0 empty empty trg 17 7 0 10 -262144 -1 -1
;
#X obj 62 224 f;
#X obj 98 224 + 1;
#X obj 98 247 % 1;
#X floatatom 62 247 5 0 0 0 - - -;
#X msg 62 346 get \$1 1;
#X floatatom 370 452 5 0 0 0 - - -;
#X obj 98 270 sel 0;
#X obj 98 293 bang;
#X obj 98 316 f;
#X obj 125 316 + 1;
#X obj 153 316 % 1;
#X floatatom 505 232 5 0 0 0 - - -;
#X obj 505 186 random 3;
#X obj 505 209 + 2;
#X msg 98 202 0;
#X obj 182 316 sel 0;
#X obj 182 339 t b b b;
#X obj 62 11 inlet;
#X obj 98 384 bang;
#X obj 98 455 random 7;
#X obj 98 478 +;
#X floatatom 115 70 2 40 80 1 tone - -;
#X obj 98 546 t f f;
#X obj 98 591 outlet;
#X obj 370 591 outlet;
#X obj 115 11 inlet;
#X obj 98 407 random 2;
#X obj 157 455 random 7;
#X obj 157 478 -;
#X obj 98 430 sel 0 1;
#X floatatom 98 501 5 0 0 0 - - -;
#X obj 98 523 expr if($f1<40||$f1>80 \, $f2 \, $f1);
#X obj 126 569 i;
#X obj 115 112 nbx 2 14 -1e+37 1e+37 0 0 empty empty grade 0 20 0 10
-1 -262144 -1 0 256;
#X obj 62 112 nbx 2 14 -1e+37 1e+37 0 0 empty empty tone 0 20 0 10
-99865 -262144 -1 75 256;
#X obj 370 429 spigot;
#X obj 403 408 tgl 15 0 empty empty empty 17 7 0 10 -262144 -1 -1 1
1;
#X obj 249 369 t b b;
#X obj 276 392 del 100;
#X obj 370 201 metro 20;
#X connect 0 0 6 0;
#X connect 0 0 28 0;
#X connect 0 0 30 0;
#X connect 1 0 3 0;
#X connect 2 0 3 1;
#X connect 2 0 51 0;
#X connect 3 0 4 0;
#X connect 4 0 2 0;
#X connect 4 1 2 1;
#X connect 5 0 4 0;
#X connect 5 0 53 0;
#X connect 6 0 7 0;
#X connect 7 0 8 0;
#X connect 8 0 12 1;
#X connect 8 0 18 1;
#X connect 9 0 55 0;
#X connect 10 0 11 0;
#X connect 10 0 13 0;
#X connect 11 0 12 0;
#X connect 12 0 10 1;
#X connect 12 0 14 0;
#X connect 13 0 1 0;
#X connect 14 0 9 0;
#X connect 15 0 16 0;
#X connect 16 0 17 0;
#X connect 16 0 19 0;
#X connect 17 0 18 0;
#X connect 18 0 16 1;
#X connect 18 0 22 0;
#X connect 19 0 20 0;
#X connect 20 0 2 0;
#X connect 21 0 40 0;
#X connect 21 0 49 0;
#X connect 22 0 23 0;
#X connect 23 0 24 0;
#X connect 24 0 25 0;
#X connect 24 0 34 0;
#X connect 25 0 26 0;
#X connect 26 0 24 1;
#X connect 26 0 31 0;
#X connect 27 0 26 1;
#X connect 28 0 29 0;
#X connect 29 0 27 0;
#X connect 30 0 16 1;
#X connect 31 0 32 0;
#X connect 32 0 9 0;
#X connect 32 1 0 0;
#X connect 32 2 5 0;
#X connect 33 0 15 0;
#X connect 34 0 42 0;
#X connect 35 0 36 0;
#X connect 36 0 46 0;
#X connect 37 0 48 0;
#X connect 37 0 47 1;
#X connect 38 0 39 0;
#X connect 38 1 48 0;
#X connect 41 0 37 0;
#X connect 42 0 45 0;
#X connect 43 0 44 0;
#X connect 44 0 46 0;
#X connect 45 0 35 0;
#X connect 45 1 43 0;
#X connect 46 0 47 0;
#X connect 47 0 38 0;
#X connect 48 0 36 1;
#X connect 48 0 44 1;
#X connect 48 0 50 0;
#X connect 51 0 21 0;
#X connect 52 0 51 1;
#X connect 53 0 52 0;
#X connect 53 1 54 0;
#X connect 54 0 52 0;
#X connect 55 0 10 0;
#X coords 0 -1 1 1 110 106 1 52 40;
