#N canvas 0 116 1366 652 10;
#X obj 205 71 bng 10 250 50 0 empty empty empty 17 7 0 10 -1 -257985
-1;
#X obj 205 83 tgl 10 0 empty empty empty 17 7 0 10 -1 -262144 -1 0
1;
#X obj 172 269 spigot;
#X obj 205 95 tgl 10 0 empty empty empty 17 7 0 10 -1 -262144 -1 0
1;
#X obj 172 313 spigot;
#X obj 205 107 tgl 10 0 empty empty empty 17 7 0 10 -1 -262144 -1 0
1;
#X obj 172 356 spigot;
#X obj 205 119 tgl 10 0 empty empty empty 17 7 0 10 -1 -262144 -1 0
1;
#X obj 172 401 spigot;
#X obj 205 131 tgl 10 0 empty empty empty 17 7 0 10 -1 -262144 -1 0
1;
#X obj 172 445 spigot;
#X obj 205 143 tgl 10 0 empty empty empty 17 7 0 10 -1 -262144 -1 0
1;
#X obj 172 488 spigot;
#X obj 205 155 tgl 10 0 empty empty empty 17 7 0 10 -1 -262144 -1 0
1;
#X obj 172 541 spigot;
#X obj 205 167 tgl 10 0 empty empty empty 17 7 0 10 -1 -262144 -1 0
1;
#X obj 172 585 spigot;
#X obj 205 179 tgl 10 0 empty empty empty 17 7 0 10 -1 -262144 -1 0
1;
#X obj 172 628 spigot;
#X obj 205 191 tgl 10 0 empty empty empty 17 7 0 10 -1 -262144 -1 0
1;
#X obj 172 673 spigot;
#X obj 205 203 tgl 10 0 empty empty empty 17 7 0 10 -1 -262144 -1 0
1;
#X obj 172 717 spigot;
#X obj 205 215 tgl 10 0 empty empty empty 17 7 0 10 -1 -262144 -1 0
1;
#X obj 172 760 spigot;
#X obj 172 246 t b b b b b b b b b b b b;
#X floatatom 280 798 5 0 0 0 - - -;
#X obj 172 291 i 11;
#X obj 172 334 i 10;
#X obj 172 378 i 9;
#X obj 172 423 i 8;
#X obj 172 466 i 7;
#X obj 172 510 i 6;
#X obj 172 563 i 5;
#X obj 172 606 i 4;
#X obj 172 650 i 3;
#X obj 172 695 i 2;
#X obj 172 738 i 1;
#X obj 172 782 i 0;
#X obj 217 71 bng 10 250 50 0 empty empty empty 17 7 0 10 -1 -257985
-1;
#X obj 217 83 tgl 10 0 empty empty empty 17 7 0 10 -1 -262144 -1 0
1;
#X obj 332 269 spigot;
#X obj 217 95 tgl 10 0 empty empty empty 17 7 0 10 -1 -262144 -1 0
1;
#X obj 332 313 spigot;
#X obj 217 107 tgl 10 0 empty empty empty 17 7 0 10 -1 -262144 -1 0
1;
#X obj 332 356 spigot;
#X obj 217 119 tgl 10 0 empty empty empty 17 7 0 10 -1 -262144 -1 0
1;
#X obj 332 401 spigot;
#X obj 217 131 tgl 10 0 empty empty empty 17 7 0 10 -1 -262144 -1 0
1;
#X obj 332 445 spigot;
#X obj 217 143 tgl 10 0 empty empty empty 17 7 0 10 -1 -262144 -1 0
1;
#X obj 332 488 spigot;
#X obj 217 155 tgl 10 0 empty empty empty 17 7 0 10 -1 -262144 -1 0
1;
#X obj 332 541 spigot;
#X obj 217 167 tgl 10 0 empty empty empty 17 7 0 10 -1 -262144 -1 0
1;
#X obj 332 585 spigot;
#X obj 217 179 tgl 10 0 empty empty empty 17 7 0 10 -1 -262144 -1 0
1;
#X obj 332 628 spigot;
#X obj 217 191 tgl 10 0 empty empty empty 17 7 0 10 -1 -262144 -1 0
1;
#X obj 332 673 spigot;
#X obj 217 203 tgl 10 0 empty empty empty 17 7 0 10 -1 -262144 -1 0
1;
#X obj 332 717 spigot;
#X obj 217 215 tgl 10 0 empty empty empty 17 7 0 10 -1 -262144 -1 0
1;
#X obj 332 760 spigot;
#X obj 332 246 t b b b b b b b b b b b b;
#X floatatom 440 798 5 0 0 0 - - -;
#X obj 332 291 i 11;
#X obj 332 334 i 10;
#X obj 332 378 i 9;
#X obj 332 423 i 8;
#X obj 332 466 i 7;
#X obj 332 510 i 6;
#X obj 332 563 i 5;
#X obj 332 606 i 4;
#X obj 332 650 i 3;
#X obj 332 695 i 2;
#X obj 332 738 i 1;
#X obj 332 782 i 0;
#X obj 229 71 bng 10 250 50 0 empty empty empty 17 7 0 10 -1 -257985
-1;
#X obj 229 83 tgl 10 0 empty empty empty 17 7 0 10 -1 -262144 -1 0
1;
#X obj 492 269 spigot;
#X obj 229 95 tgl 10 0 empty empty empty 17 7 0 10 -1 -262144 -1 0
1;
#X obj 492 313 spigot;
#X obj 229 107 tgl 10 0 empty empty empty 17 7 0 10 -1 -262144 -1 0
1;
#X obj 492 356 spigot;
#X obj 229 119 tgl 10 0 empty empty empty 17 7 0 10 -1 -262144 -1 0
1;
#X obj 492 401 spigot;
#X obj 229 131 tgl 10 0 empty empty empty 17 7 0 10 -1 -262144 -1 0
1;
#X obj 492 445 spigot;
#X obj 229 143 tgl 10 0 empty empty empty 17 7 0 10 -1 -262144 -1 0
1;
#X obj 492 488 spigot;
#X obj 229 155 tgl 10 0 empty empty empty 17 7 0 10 -1 -262144 -1 0
1;
#X obj 492 541 spigot;
#X obj 229 167 tgl 10 0 empty empty empty 17 7 0 10 -1 -262144 -1 0
1;
#X obj 492 585 spigot;
#X obj 229 179 tgl 10 0 empty empty empty 17 7 0 10 -1 -262144 -1 0
1;
#X obj 492 628 spigot;
#X obj 229 191 tgl 10 0 empty empty empty 17 7 0 10 -1 -262144 -1 0
1;
#X obj 492 673 spigot;
#X obj 229 203 tgl 10 0 empty empty empty 17 7 0 10 -1 -262144 -1 0
1;
#X obj 492 717 spigot;
#X obj 229 215 tgl 10 0 empty empty empty 17 7 0 10 -1 -262144 -1 0
1;
#X obj 492 760 spigot;
#X obj 492 246 t b b b b b b b b b b b b;
#X floatatom 600 798 5 0 0 0 - - -;
#X obj 492 291 i 11;
#X obj 492 334 i 10;
#X obj 492 378 i 9;
#X obj 492 423 i 8;
#X obj 492 466 i 7;
#X obj 492 510 i 6;
#X obj 492 563 i 5;
#X obj 492 606 i 4;
#X obj 492 650 i 3;
#X obj 492 695 i 2;
#X obj 492 738 i 1;
#X obj 492 782 i 0;
#X obj 241 71 bng 10 250 50 0 empty empty empty 17 7 0 10 -1 -257985
-1;
#X obj 241 83 tgl 10 0 empty empty empty 17 7 0 10 -1 -262144 -1 0
1;
#X obj 652 269 spigot;
#X obj 241 95 tgl 10 0 empty empty empty 17 7 0 10 -1 -262144 -1 0
1;
#X obj 652 313 spigot;
#X obj 241 107 tgl 10 0 empty empty empty 17 7 0 10 -1 -262144 -1 0
1;
#X obj 652 356 spigot;
#X obj 241 119 tgl 10 0 empty empty empty 17 7 0 10 -1 -262144 -1 0
1;
#X obj 652 401 spigot;
#X obj 241 131 tgl 10 0 empty empty empty 17 7 0 10 -1 -262144 -1 0
1;
#X obj 652 445 spigot;
#X obj 241 143 tgl 10 0 empty empty empty 17 7 0 10 -1 -262144 -1 0
1;
#X obj 652 488 spigot;
#X obj 241 155 tgl 10 0 empty empty empty 17 7 0 10 -1 -262144 -1 0
1;
#X obj 652 541 spigot;
#X obj 241 167 tgl 10 0 empty empty empty 17 7 0 10 -1 -262144 -1 0
1;
#X obj 652 585 spigot;
#X obj 241 179 tgl 10 0 empty empty empty 17 7 0 10 -1 -262144 -1 0
1;
#X obj 652 628 spigot;
#X obj 241 191 tgl 10 0 empty empty empty 17 7 0 10 -1 -262144 -1 0
1;
#X obj 652 673 spigot;
#X obj 241 203 tgl 10 0 empty empty empty 17 7 0 10 -1 -262144 -1 0
1;
#X obj 652 717 spigot;
#X obj 241 215 tgl 10 0 empty empty empty 17 7 0 10 -1 -262144 -1 0
1;
#X obj 652 760 spigot;
#X obj 652 246 t b b b b b b b b b b b b;
#X floatatom 760 798 5 0 0 0 - - -;
#X obj 652 291 i 11;
#X obj 652 334 i 10;
#X obj 652 378 i 9;
#X obj 652 423 i 8;
#X obj 652 466 i 7;
#X obj 652 510 i 6;
#X obj 652 563 i 5;
#X obj 652 606 i 4;
#X obj 652 650 i 3;
#X obj 652 695 i 2;
#X obj 652 738 i 1;
#X obj 652 782 i 0;
#X obj 253 71 bng 10 250 50 0 empty empty empty 17 7 0 10 -1 -257985
-1;
#X obj 253 83 tgl 10 0 empty empty empty 17 7 0 10 -1 -262144 -1 0
1;
#X obj 812 269 spigot;
#X obj 253 95 tgl 10 0 empty empty empty 17 7 0 10 -1 -262144 -1 0
1;
#X obj 812 313 spigot;
#X obj 253 107 tgl 10 0 empty empty empty 17 7 0 10 -1 -262144 -1 0
1;
#X obj 812 356 spigot;
#X obj 253 119 tgl 10 0 empty empty empty 17 7 0 10 -1 -262144 -1 0
1;
#X obj 812 401 spigot;
#X obj 253 131 tgl 10 0 empty empty empty 17 7 0 10 -1 -262144 -1 0
1;
#X obj 812 445 spigot;
#X obj 253 143 tgl 10 0 empty empty empty 17 7 0 10 -1 -262144 -1 0
1;
#X obj 812 488 spigot;
#X obj 253 155 tgl 10 0 empty empty empty 17 7 0 10 -1 -262144 -1 0
1;
#X obj 812 541 spigot;
#X obj 253 167 tgl 10 0 empty empty empty 17 7 0 10 -1 -262144 -1 0
1;
#X obj 812 585 spigot;
#X obj 253 179 tgl 10 0 empty empty empty 17 7 0 10 -1 -262144 -1 0
1;
#X obj 812 628 spigot;
#X obj 253 191 tgl 10 0 empty empty empty 17 7 0 10 -1 -262144 -1 0
1;
#X obj 812 673 spigot;
#X obj 253 203 tgl 10 0 empty empty empty 17 7 0 10 -1 -262144 -1 0
1;
#X obj 812 717 spigot;
#X obj 253 215 tgl 10 0 empty empty empty 17 7 0 10 -1 -262144 -1 0
1;
#X obj 812 760 spigot;
#X obj 812 246 t b b b b b b b b b b b b;
#X floatatom 920 798 5 0 0 0 - - -;
#X obj 812 291 i 11;
#X obj 812 334 i 10;
#X obj 812 378 i 9;
#X obj 812 423 i 8;
#X obj 812 466 i 7;
#X obj 812 510 i 6;
#X obj 812 563 i 5;
#X obj 812 606 i 4;
#X obj 812 650 i 3;
#X obj 812 695 i 2;
#X obj 812 738 i 1;
#X obj 812 782 i 0;
#X obj 265 71 bng 10 250 50 0 empty empty empty 17 7 0 10 -1 -257985
-1;
#X obj 265 83 tgl 10 0 empty empty empty 17 7 0 10 -1 -262144 -1 0
1;
#X obj 972 269 spigot;
#X obj 265 95 tgl 10 0 empty empty empty 17 7 0 10 -1 -262144 -1 0
1;
#X obj 972 313 spigot;
#X obj 265 107 tgl 10 0 empty empty empty 17 7 0 10 -1 -262144 -1 0
1;
#X obj 972 356 spigot;
#X obj 265 119 tgl 10 0 empty empty empty 17 7 0 10 -1 -262144 -1 0
1;
#X obj 972 401 spigot;
#X obj 265 131 tgl 10 0 empty empty empty 17 7 0 10 -1 -262144 -1 0
1;
#X obj 972 445 spigot;
#X obj 265 143 tgl 10 0 empty empty empty 17 7 0 10 -1 -262144 -1 0
1;
#X obj 972 488 spigot;
#X obj 265 155 tgl 10 0 empty empty empty 17 7 0 10 -1 -262144 -1 0
1;
#X obj 972 541 spigot;
#X obj 265 167 tgl 10 0 empty empty empty 17 7 0 10 -1 -262144 -1 0
1;
#X obj 972 585 spigot;
#X obj 265 179 tgl 10 0 empty empty empty 17 7 0 10 -1 -262144 -1 0
1;
#X obj 972 628 spigot;
#X obj 265 191 tgl 10 0 empty empty empty 17 7 0 10 -1 -262144 -1 0
1;
#X obj 972 673 spigot;
#X obj 265 203 tgl 10 0 empty empty empty 17 7 0 10 -1 -262144 -1 0
1;
#X obj 972 717 spigot;
#X obj 265 215 tgl 10 0 empty empty empty 17 7 0 10 -1 -262144 -1 0
1;
#X obj 972 760 spigot;
#X obj 972 246 t b b b b b b b b b b b b;
#X floatatom 1080 798 5 0 0 0 - - -;
#X obj 972 291 i 11;
#X obj 972 334 i 10;
#X obj 972 378 i 9;
#X obj 972 423 i 8;
#X obj 972 466 i 7;
#X obj 972 510 i 6;
#X obj 972 563 i 5;
#X obj 972 606 i 4;
#X obj 972 650 i 3;
#X obj 972 695 i 2;
#X obj 972 738 i 1;
#X obj 972 782 i 0;
#X obj 277 71 bng 10 250 50 0 empty empty empty 17 7 0 10 -1 -257985
-1;
#X obj 277 83 tgl 10 0 empty empty empty 17 7 0 10 -1 -262144 -1 0
1;
#X obj 1132 269 spigot;
#X obj 277 95 tgl 10 0 empty empty empty 17 7 0 10 -1 -262144 -1 0
1;
#X obj 1132 313 spigot;
#X obj 277 107 tgl 10 0 empty empty empty 17 7 0 10 -1 -262144 -1 0
1;
#X obj 1132 356 spigot;
#X obj 277 119 tgl 10 0 empty empty empty 17 7 0 10 -1 -262144 -1 0
1;
#X obj 1132 401 spigot;
#X obj 277 131 tgl 10 0 empty empty empty 17 7 0 10 -1 -262144 -1 0
1;
#X obj 1132 445 spigot;
#X obj 277 143 tgl 10 0 empty empty empty 17 7 0 10 -1 -262144 -1 0
1;
#X obj 1132 488 spigot;
#X obj 277 155 tgl 10 0 empty empty empty 17 7 0 10 -1 -262144 -1 0
1;
#X obj 1132 541 spigot;
#X obj 277 167 tgl 10 0 empty empty empty 17 7 0 10 -1 -262144 -1 0
1;
#X obj 1132 585 spigot;
#X obj 277 179 tgl 10 0 empty empty empty 17 7 0 10 -1 -262144 -1 0
1;
#X obj 1132 628 spigot;
#X obj 277 191 tgl 10 0 empty empty empty 17 7 0 10 -1 -262144 -1 0
1;
#X obj 1132 673 spigot;
#X obj 277 203 tgl 10 0 empty empty empty 17 7 0 10 -1 -262144 -1 0
1;
#X obj 1132 717 spigot;
#X obj 277 215 tgl 10 0 empty empty empty 17 7 0 10 -1 -262144 -1 0
1;
#X obj 1132 760 spigot;
#X obj 1132 246 t b b b b b b b b b b b b;
#X floatatom 1240 798 5 0 0 0 - - -;
#X obj 1132 291 i 11;
#X obj 1132 334 i 10;
#X obj 1132 378 i 9;
#X obj 1132 423 i 8;
#X obj 1132 466 i 7;
#X obj 1132 510 i 6;
#X obj 1132 563 i 5;
#X obj 1132 606 i 4;
#X obj 1132 650 i 3;
#X obj 1132 695 i 2;
#X obj 1132 738 i 1;
#X obj 1132 782 i 0;
#X obj 289 71 bng 10 250 50 0 empty empty empty 17 7 0 10 -1 -257985
-1;
#X obj 289 83 tgl 10 0 empty empty empty 17 7 0 10 -1 -262144 -1 0
1;
#X obj 1292 269 spigot;
#X obj 289 95 tgl 10 0 empty empty empty 17 7 0 10 -1 -262144 -1 0
1;
#X obj 1292 313 spigot;
#X obj 289 107 tgl 10 0 empty empty empty 17 7 0 10 -1 -262144 -1 0
1;
#X obj 1292 356 spigot;
#X obj 289 119 tgl 10 0 empty empty empty 17 7 0 10 -1 -262144 -1 0
1;
#X obj 1292 401 spigot;
#X obj 289 131 tgl 10 0 empty empty empty 17 7 0 10 -1 -262144 -1 0
1;
#X obj 1292 445 spigot;
#X obj 289 143 tgl 10 0 empty empty empty 17 7 0 10 -1 -262144 -1 0
1;
#X obj 1292 488 spigot;
#X obj 289 155 tgl 10 0 empty empty empty 17 7 0 10 -1 -262144 -1 0
1;
#X obj 1292 541 spigot;
#X obj 289 167 tgl 10 0 empty empty empty 17 7 0 10 -1 -262144 -1 0
1;
#X obj 1292 585 spigot;
#X obj 289 179 tgl 10 0 empty empty empty 17 7 0 10 -1 -262144 -1 0
1;
#X obj 1292 628 spigot;
#X obj 289 191 tgl 10 0 empty empty empty 17 7 0 10 -1 -262144 -1 0
1;
#X obj 1292 673 spigot;
#X obj 289 203 tgl 10 0 empty empty empty 17 7 0 10 -1 -262144 -1 0
1;
#X obj 1292 717 spigot;
#X obj 289 215 tgl 10 0 empty empty empty 17 7 0 10 -1 -262144 -1 0
1;
#X obj 1292 760 spigot;
#X obj 1292 246 t b b b b b b b b b b b b;
#X floatatom 1400 798 5 0 0 0 - - -;
#X obj 1292 291 i 11;
#X obj 1292 334 i 10;
#X obj 1292 378 i 9;
#X obj 1292 423 i 8;
#X obj 1292 466 i 7;
#X obj 1292 510 i 6;
#X obj 1292 563 i 5;
#X obj 1292 606 i 4;
#X obj 1292 650 i 3;
#X obj 1292 695 i 2;
#X obj 1292 738 i 1;
#X obj 1292 782 i 0;
#X obj 301 71 bng 10 250 50 0 empty empty empty 17 7 0 10 -1 -257985
-1;
#X obj 301 83 tgl 10 0 empty empty empty 17 7 0 10 -1 -262144 -1 0
1;
#X obj 1452 269 spigot;
#X obj 301 95 tgl 10 0 empty empty empty 17 7 0 10 -1 -262144 -1 0
1;
#X obj 1452 313 spigot;
#X obj 301 107 tgl 10 0 empty empty empty 17 7 0 10 -1 -262144 -1 0
1;
#X obj 1452 356 spigot;
#X obj 301 119 tgl 10 0 empty empty empty 17 7 0 10 -1 -262144 -1 0
1;
#X obj 1452 401 spigot;
#X obj 301 131 tgl 10 0 empty empty empty 17 7 0 10 -1 -262144 -1 0
1;
#X obj 1452 445 spigot;
#X obj 301 143 tgl 10 0 empty empty empty 17 7 0 10 -1 -262144 -1 0
1;
#X obj 1452 488 spigot;
#X obj 301 155 tgl 10 0 empty empty empty 17 7 0 10 -1 -262144 -1 0
1;
#X obj 1452 541 spigot;
#X obj 301 167 tgl 10 0 empty empty empty 17 7 0 10 -1 -262144 -1 0
1;
#X obj 1452 585 spigot;
#X obj 301 179 tgl 10 0 empty empty empty 17 7 0 10 -1 -262144 -1 0
1;
#X obj 1452 628 spigot;
#X obj 301 191 tgl 10 0 empty empty empty 17 7 0 10 -1 -262144 -1 0
1;
#X obj 1452 673 spigot;
#X obj 301 203 tgl 10 0 empty empty empty 17 7 0 10 -1 -262144 -1 0
1;
#X obj 1452 717 spigot;
#X obj 301 215 tgl 10 0 empty empty empty 17 7 0 10 -1 -262144 -1 0
1;
#X obj 1452 760 spigot;
#X obj 1452 246 t b b b b b b b b b b b b;
#X floatatom 1560 798 5 0 0 0 - - -;
#X obj 1452 291 i 11;
#X obj 1452 334 i 10;
#X obj 1452 378 i 9;
#X obj 1452 423 i 8;
#X obj 1452 466 i 7;
#X obj 1452 510 i 6;
#X obj 1452 563 i 5;
#X obj 1452 606 i 4;
#X obj 1452 650 i 3;
#X obj 1452 695 i 2;
#X obj 1452 738 i 1;
#X obj 1452 782 i 0;
#X obj 313 71 bng 10 250 50 0 empty empty empty 17 7 0 10 -1 -257985
-1;
#X obj 313 83 tgl 10 0 empty empty empty 17 7 0 10 -1 -262144 -1 0
1;
#X obj 1612 269 spigot;
#X obj 313 95 tgl 10 0 empty empty empty 17 7 0 10 -1 -262144 -1 0
1;
#X obj 1612 313 spigot;
#X obj 313 107 tgl 10 0 empty empty empty 17 7 0 10 -1 -262144 -1 0
1;
#X obj 1612 356 spigot;
#X obj 313 119 tgl 10 0 empty empty empty 17 7 0 10 -1 -262144 -1 0
1;
#X obj 1612 401 spigot;
#X obj 313 131 tgl 10 0 empty empty empty 17 7 0 10 -1 -262144 -1 0
1;
#X obj 1612 445 spigot;
#X obj 313 143 tgl 10 0 empty empty empty 17 7 0 10 -1 -262144 -1 0
1;
#X obj 1612 488 spigot;
#X obj 313 155 tgl 10 0 empty empty empty 17 7 0 10 -1 -262144 -1 0
1;
#X obj 1612 541 spigot;
#X obj 313 167 tgl 10 0 empty empty empty 17 7 0 10 -1 -262144 -1 0
1;
#X obj 1612 585 spigot;
#X obj 313 179 tgl 10 0 empty empty empty 17 7 0 10 -1 -262144 -1 0
1;
#X obj 1612 628 spigot;
#X obj 313 191 tgl 10 0 empty empty empty 17 7 0 10 -1 -262144 -1 0
1;
#X obj 1612 673 spigot;
#X obj 313 203 tgl 10 0 empty empty empty 17 7 0 10 -1 -262144 -1 0
1;
#X obj 1612 717 spigot;
#X obj 313 215 tgl 10 0 empty empty empty 17 7 0 10 -1 -262144 -1 0
1;
#X obj 1612 760 spigot;
#X obj 1612 246 t b b b b b b b b b b b b;
#X floatatom 1720 798 5 0 0 0 - - -;
#X obj 1612 291 i 11;
#X obj 1612 334 i 10;
#X obj 1612 378 i 9;
#X obj 1612 423 i 8;
#X obj 1612 466 i 7;
#X obj 1612 510 i 6;
#X obj 1612 563 i 5;
#X obj 1612 606 i 4;
#X obj 1612 650 i 3;
#X obj 1612 695 i 2;
#X obj 1612 738 i 1;
#X obj 1612 782 i 0;
#X obj 325 71 bng 10 250 50 0 empty empty empty 17 7 0 10 -1 -257985
-1;
#X obj 325 83 tgl 10 0 empty empty empty 17 7 0 10 -1 -262144 -1 0
1;
#X obj 1772 269 spigot;
#X obj 325 95 tgl 10 0 empty empty empty 17 7 0 10 -1 -262144 -1 0
1;
#X obj 1772 313 spigot;
#X obj 325 107 tgl 10 0 empty empty empty 17 7 0 10 -1 -262144 -1 0
1;
#X obj 1772 356 spigot;
#X obj 325 119 tgl 10 0 empty empty empty 17 7 0 10 -1 -262144 -1 0
1;
#X obj 1772 401 spigot;
#X obj 325 131 tgl 10 0 empty empty empty 17 7 0 10 -1 -262144 -1 0
1;
#X obj 1772 445 spigot;
#X obj 325 143 tgl 10 0 empty empty empty 17 7 0 10 -1 -262144 -1 0
1;
#X obj 1772 488 spigot;
#X obj 325 155 tgl 10 0 empty empty empty 17 7 0 10 -1 -262144 -1 0
1;
#X obj 1772 541 spigot;
#X obj 325 167 tgl 10 0 empty empty empty 17 7 0 10 -1 -262144 -1 0
1;
#X obj 1772 585 spigot;
#X obj 325 179 tgl 10 0 empty empty empty 17 7 0 10 -1 -262144 -1 0
1;
#X obj 1772 628 spigot;
#X obj 325 191 tgl 10 0 empty empty empty 17 7 0 10 -1 -262144 -1 0
1;
#X obj 1772 673 spigot;
#X obj 325 203 tgl 10 0 empty empty empty 17 7 0 10 -1 -262144 -1 0
1;
#X obj 1772 717 spigot;
#X obj 325 215 tgl 10 0 empty empty empty 17 7 0 10 -1 -262144 -1 0
1;
#X obj 1772 760 spigot;
#X obj 1772 246 t b b b b b b b b b b b b;
#X floatatom 1880 798 5 0 0 0 - - -;
#X obj 1772 291 i 11;
#X obj 1772 334 i 10;
#X obj 1772 378 i 9;
#X obj 1772 423 i 8;
#X obj 1772 466 i 7;
#X obj 1772 510 i 6;
#X obj 1772 563 i 5;
#X obj 1772 606 i 4;
#X obj 1772 650 i 3;
#X obj 1772 695 i 2;
#X obj 1772 738 i 1;
#X obj 1772 782 i 0;
#X obj 337 71 bng 10 250 50 0 empty empty empty 17 7 0 10 -1 -257985
-1;
#X obj 337 83 tgl 10 0 empty empty empty 17 7 0 10 -1 -262144 -1 0
1;
#X obj 1932 269 spigot;
#X obj 337 95 tgl 10 0 empty empty empty 17 7 0 10 -1 -262144 -1 0
1;
#X obj 1932 313 spigot;
#X obj 337 107 tgl 10 0 empty empty empty 17 7 0 10 -1 -262144 -1 0
1;
#X obj 1932 356 spigot;
#X obj 337 119 tgl 10 0 empty empty empty 17 7 0 10 -1 -262144 -1 0
1;
#X obj 1932 401 spigot;
#X obj 337 131 tgl 10 0 empty empty empty 17 7 0 10 -1 -262144 -1 0
1;
#X obj 1932 445 spigot;
#X obj 337 143 tgl 10 0 empty empty empty 17 7 0 10 -1 -262144 -1 0
1;
#X obj 1932 488 spigot;
#X obj 337 155 tgl 10 0 empty empty empty 17 7 0 10 -1 -262144 -1 0
1;
#X obj 1932 541 spigot;
#X obj 337 167 tgl 10 0 empty empty empty 17 7 0 10 -1 -262144 -1 0
1;
#X obj 1932 585 spigot;
#X obj 337 179 tgl 10 0 empty empty empty 17 7 0 10 -1 -262144 -1 0
1;
#X obj 1932 628 spigot;
#X obj 337 191 tgl 10 0 empty empty empty 17 7 0 10 -1 -262144 -1 0
1;
#X obj 1932 673 spigot;
#X obj 337 203 tgl 10 0 empty empty empty 17 7 0 10 -1 -262144 -1 0
1;
#X obj 1932 717 spigot;
#X obj 337 215 tgl 10 0 empty empty empty 17 7 0 10 -1 -262144 -1 0
1;
#X obj 1932 760 spigot;
#X obj 1932 246 t b b b b b b b b b b b b;
#X floatatom 2040 798 5 0 0 0 - - -;
#X obj 1932 291 i 11;
#X obj 1932 334 i 10;
#X obj 1932 378 i 9;
#X obj 1932 423 i 8;
#X obj 1932 466 i 7;
#X obj 1932 510 i 6;
#X obj 1932 563 i 5;
#X obj 1932 606 i 4;
#X obj 1932 650 i 3;
#X obj 1932 695 i 2;
#X obj 1932 738 i 1;
#X obj 1932 782 i 0;
#X obj 74 7 inlet;
#X obj 74 87 f 0;
#X obj 99 87 + 1;
#X obj 124 87 % 12;
#X obj 205 7 sel 0 1 2 3 4 5 6 7 8 9 10 11;
#X obj 168 852 outlet;
#X obj 89 38 r sync;
#X msg 89 61 0;
#X obj 145 7 inlet;
#X obj 654 48 outlet;
#X obj 376 32 bang;
#X connect 0 0 25 0;
#X connect 1 0 2 1;
#X connect 2 0 27 0;
#X connect 3 0 4 1;
#X connect 4 0 28 0;
#X connect 5 0 6 1;
#X connect 6 0 29 0;
#X connect 7 0 8 1;
#X connect 8 0 30 0;
#X connect 9 0 10 1;
#X connect 10 0 31 0;
#X connect 11 0 12 1;
#X connect 12 0 32 0;
#X connect 13 0 14 1;
#X connect 14 0 33 0;
#X connect 15 0 16 1;
#X connect 16 0 34 0;
#X connect 17 0 18 1;
#X connect 18 0 35 0;
#X connect 19 0 20 1;
#X connect 20 0 36 0;
#X connect 21 0 22 1;
#X connect 22 0 37 0;
#X connect 23 0 24 1;
#X connect 24 0 38 0;
#X connect 25 0 2 0;
#X connect 25 1 4 0;
#X connect 25 2 6 0;
#X connect 25 3 8 0;
#X connect 25 4 10 0;
#X connect 25 5 12 0;
#X connect 25 6 14 0;
#X connect 25 7 16 0;
#X connect 25 8 18 0;
#X connect 25 9 20 0;
#X connect 25 10 22 0;
#X connect 25 11 24 0;
#X connect 26 0 473 0;
#X connect 27 0 26 0;
#X connect 28 0 26 0;
#X connect 29 0 26 0;
#X connect 30 0 26 0;
#X connect 31 0 26 0;
#X connect 32 0 26 0;
#X connect 33 0 26 0;
#X connect 34 0 26 0;
#X connect 35 0 26 0;
#X connect 36 0 26 0;
#X connect 37 0 26 0;
#X connect 38 0 26 0;
#X connect 39 0 64 0;
#X connect 40 0 41 1;
#X connect 41 0 66 0;
#X connect 42 0 43 1;
#X connect 43 0 67 0;
#X connect 44 0 45 1;
#X connect 45 0 68 0;
#X connect 46 0 47 1;
#X connect 47 0 69 0;
#X connect 48 0 49 1;
#X connect 49 0 70 0;
#X connect 50 0 51 1;
#X connect 51 0 71 0;
#X connect 52 0 53 1;
#X connect 53 0 72 0;
#X connect 54 0 55 1;
#X connect 55 0 73 0;
#X connect 56 0 57 1;
#X connect 57 0 74 0;
#X connect 58 0 59 1;
#X connect 59 0 75 0;
#X connect 60 0 61 1;
#X connect 61 0 76 0;
#X connect 62 0 63 1;
#X connect 63 0 77 0;
#X connect 64 0 41 0;
#X connect 64 1 43 0;
#X connect 64 2 45 0;
#X connect 64 3 47 0;
#X connect 64 4 49 0;
#X connect 64 5 51 0;
#X connect 64 6 53 0;
#X connect 64 7 55 0;
#X connect 64 8 57 0;
#X connect 64 9 59 0;
#X connect 64 10 61 0;
#X connect 64 11 63 0;
#X connect 65 0 473 0;
#X connect 66 0 65 0;
#X connect 67 0 65 0;
#X connect 68 0 65 0;
#X connect 69 0 65 0;
#X connect 70 0 65 0;
#X connect 71 0 65 0;
#X connect 72 0 65 0;
#X connect 73 0 65 0;
#X connect 74 0 65 0;
#X connect 75 0 65 0;
#X connect 76 0 65 0;
#X connect 77 0 65 0;
#X connect 78 0 103 0;
#X connect 79 0 80 1;
#X connect 80 0 105 0;
#X connect 81 0 82 1;
#X connect 82 0 106 0;
#X connect 83 0 84 1;
#X connect 84 0 107 0;
#X connect 85 0 86 1;
#X connect 86 0 108 0;
#X connect 87 0 88 1;
#X connect 88 0 109 0;
#X connect 89 0 90 1;
#X connect 90 0 110 0;
#X connect 91 0 92 1;
#X connect 92 0 111 0;
#X connect 93 0 94 1;
#X connect 94 0 112 0;
#X connect 95 0 96 1;
#X connect 96 0 113 0;
#X connect 97 0 98 1;
#X connect 98 0 114 0;
#X connect 99 0 100 1;
#X connect 100 0 115 0;
#X connect 101 0 102 1;
#X connect 102 0 116 0;
#X connect 103 0 80 0;
#X connect 103 1 82 0;
#X connect 103 2 84 0;
#X connect 103 3 86 0;
#X connect 103 4 88 0;
#X connect 103 5 90 0;
#X connect 103 6 92 0;
#X connect 103 7 94 0;
#X connect 103 8 96 0;
#X connect 103 9 98 0;
#X connect 103 10 100 0;
#X connect 103 11 102 0;
#X connect 104 0 473 0;
#X connect 105 0 104 0;
#X connect 106 0 104 0;
#X connect 107 0 104 0;
#X connect 108 0 104 0;
#X connect 109 0 104 0;
#X connect 110 0 104 0;
#X connect 111 0 104 0;
#X connect 112 0 104 0;
#X connect 113 0 104 0;
#X connect 114 0 104 0;
#X connect 115 0 104 0;
#X connect 116 0 104 0;
#X connect 117 0 142 0;
#X connect 118 0 119 1;
#X connect 119 0 144 0;
#X connect 120 0 121 1;
#X connect 121 0 145 0;
#X connect 122 0 123 1;
#X connect 123 0 146 0;
#X connect 124 0 125 1;
#X connect 125 0 147 0;
#X connect 126 0 127 1;
#X connect 127 0 148 0;
#X connect 128 0 129 1;
#X connect 129 0 149 0;
#X connect 130 0 131 1;
#X connect 131 0 150 0;
#X connect 132 0 133 1;
#X connect 133 0 151 0;
#X connect 134 0 135 1;
#X connect 135 0 152 0;
#X connect 136 0 137 1;
#X connect 137 0 153 0;
#X connect 138 0 139 1;
#X connect 139 0 154 0;
#X connect 140 0 141 1;
#X connect 141 0 155 0;
#X connect 142 0 119 0;
#X connect 142 1 121 0;
#X connect 142 2 123 0;
#X connect 142 3 125 0;
#X connect 142 4 127 0;
#X connect 142 5 129 0;
#X connect 142 6 131 0;
#X connect 142 7 133 0;
#X connect 142 8 135 0;
#X connect 142 9 137 0;
#X connect 142 10 139 0;
#X connect 142 11 141 0;
#X connect 143 0 473 0;
#X connect 144 0 143 0;
#X connect 145 0 143 0;
#X connect 146 0 143 0;
#X connect 147 0 143 0;
#X connect 148 0 143 0;
#X connect 149 0 143 0;
#X connect 150 0 143 0;
#X connect 151 0 143 0;
#X connect 152 0 143 0;
#X connect 153 0 143 0;
#X connect 154 0 143 0;
#X connect 155 0 143 0;
#X connect 156 0 181 0;
#X connect 157 0 158 1;
#X connect 158 0 183 0;
#X connect 159 0 160 1;
#X connect 160 0 184 0;
#X connect 161 0 162 1;
#X connect 162 0 185 0;
#X connect 163 0 164 1;
#X connect 164 0 186 0;
#X connect 165 0 166 1;
#X connect 166 0 187 0;
#X connect 167 0 168 1;
#X connect 168 0 188 0;
#X connect 169 0 170 1;
#X connect 170 0 189 0;
#X connect 171 0 172 1;
#X connect 172 0 190 0;
#X connect 173 0 174 1;
#X connect 174 0 191 0;
#X connect 175 0 176 1;
#X connect 176 0 192 0;
#X connect 177 0 178 1;
#X connect 178 0 193 0;
#X connect 179 0 180 1;
#X connect 180 0 194 0;
#X connect 181 0 158 0;
#X connect 181 1 160 0;
#X connect 181 2 162 0;
#X connect 181 3 164 0;
#X connect 181 4 166 0;
#X connect 181 5 168 0;
#X connect 181 6 170 0;
#X connect 181 7 172 0;
#X connect 181 8 174 0;
#X connect 181 9 176 0;
#X connect 181 10 178 0;
#X connect 181 11 180 0;
#X connect 182 0 473 0;
#X connect 183 0 182 0;
#X connect 184 0 182 0;
#X connect 185 0 182 0;
#X connect 186 0 182 0;
#X connect 187 0 182 0;
#X connect 188 0 182 0;
#X connect 189 0 182 0;
#X connect 190 0 182 0;
#X connect 191 0 182 0;
#X connect 192 0 182 0;
#X connect 193 0 182 0;
#X connect 194 0 182 0;
#X connect 195 0 220 0;
#X connect 196 0 197 1;
#X connect 197 0 222 0;
#X connect 198 0 199 1;
#X connect 199 0 223 0;
#X connect 200 0 201 1;
#X connect 201 0 224 0;
#X connect 202 0 203 1;
#X connect 203 0 225 0;
#X connect 204 0 205 1;
#X connect 205 0 226 0;
#X connect 206 0 207 1;
#X connect 207 0 227 0;
#X connect 208 0 209 1;
#X connect 209 0 228 0;
#X connect 210 0 211 1;
#X connect 211 0 229 0;
#X connect 212 0 213 1;
#X connect 213 0 230 0;
#X connect 214 0 215 1;
#X connect 215 0 231 0;
#X connect 216 0 217 1;
#X connect 217 0 232 0;
#X connect 218 0 219 1;
#X connect 219 0 233 0;
#X connect 220 0 197 0;
#X connect 220 1 199 0;
#X connect 220 2 201 0;
#X connect 220 3 203 0;
#X connect 220 4 205 0;
#X connect 220 5 207 0;
#X connect 220 6 209 0;
#X connect 220 7 211 0;
#X connect 220 8 213 0;
#X connect 220 9 215 0;
#X connect 220 10 217 0;
#X connect 220 11 219 0;
#X connect 221 0 473 0;
#X connect 222 0 221 0;
#X connect 223 0 221 0;
#X connect 224 0 221 0;
#X connect 225 0 221 0;
#X connect 226 0 221 0;
#X connect 227 0 221 0;
#X connect 228 0 221 0;
#X connect 229 0 221 0;
#X connect 230 0 221 0;
#X connect 231 0 221 0;
#X connect 232 0 221 0;
#X connect 233 0 221 0;
#X connect 234 0 259 0;
#X connect 235 0 236 1;
#X connect 236 0 261 0;
#X connect 237 0 238 1;
#X connect 238 0 262 0;
#X connect 239 0 240 1;
#X connect 240 0 263 0;
#X connect 241 0 242 1;
#X connect 242 0 264 0;
#X connect 243 0 244 1;
#X connect 244 0 265 0;
#X connect 245 0 246 1;
#X connect 246 0 266 0;
#X connect 247 0 248 1;
#X connect 248 0 267 0;
#X connect 249 0 250 1;
#X connect 250 0 268 0;
#X connect 251 0 252 1;
#X connect 252 0 269 0;
#X connect 253 0 254 1;
#X connect 254 0 270 0;
#X connect 255 0 256 1;
#X connect 256 0 271 0;
#X connect 257 0 258 1;
#X connect 258 0 272 0;
#X connect 259 0 236 0;
#X connect 259 1 238 0;
#X connect 259 2 240 0;
#X connect 259 3 242 0;
#X connect 259 4 244 0;
#X connect 259 5 246 0;
#X connect 259 6 248 0;
#X connect 259 7 250 0;
#X connect 259 8 252 0;
#X connect 259 9 254 0;
#X connect 259 10 256 0;
#X connect 259 11 258 0;
#X connect 260 0 473 0;
#X connect 261 0 260 0;
#X connect 262 0 260 0;
#X connect 263 0 260 0;
#X connect 264 0 260 0;
#X connect 265 0 260 0;
#X connect 266 0 260 0;
#X connect 267 0 260 0;
#X connect 268 0 260 0;
#X connect 269 0 260 0;
#X connect 270 0 260 0;
#X connect 271 0 260 0;
#X connect 272 0 260 0;
#X connect 273 0 298 0;
#X connect 274 0 275 1;
#X connect 275 0 300 0;
#X connect 276 0 277 1;
#X connect 277 0 301 0;
#X connect 278 0 279 1;
#X connect 279 0 302 0;
#X connect 280 0 281 1;
#X connect 281 0 303 0;
#X connect 282 0 283 1;
#X connect 283 0 304 0;
#X connect 284 0 285 1;
#X connect 285 0 305 0;
#X connect 286 0 287 1;
#X connect 287 0 306 0;
#X connect 288 0 289 1;
#X connect 289 0 307 0;
#X connect 290 0 291 1;
#X connect 291 0 308 0;
#X connect 292 0 293 1;
#X connect 293 0 309 0;
#X connect 294 0 295 1;
#X connect 295 0 310 0;
#X connect 296 0 297 1;
#X connect 297 0 311 0;
#X connect 298 0 275 0;
#X connect 298 1 277 0;
#X connect 298 2 279 0;
#X connect 298 3 281 0;
#X connect 298 4 283 0;
#X connect 298 5 285 0;
#X connect 298 6 287 0;
#X connect 298 7 289 0;
#X connect 298 8 291 0;
#X connect 298 9 293 0;
#X connect 298 10 295 0;
#X connect 298 11 297 0;
#X connect 299 0 473 0;
#X connect 300 0 299 0;
#X connect 301 0 299 0;
#X connect 302 0 299 0;
#X connect 303 0 299 0;
#X connect 304 0 299 0;
#X connect 305 0 299 0;
#X connect 306 0 299 0;
#X connect 307 0 299 0;
#X connect 308 0 299 0;
#X connect 309 0 299 0;
#X connect 310 0 299 0;
#X connect 311 0 299 0;
#X connect 312 0 337 0;
#X connect 313 0 314 1;
#X connect 314 0 339 0;
#X connect 315 0 316 1;
#X connect 316 0 340 0;
#X connect 317 0 318 1;
#X connect 318 0 341 0;
#X connect 319 0 320 1;
#X connect 320 0 342 0;
#X connect 321 0 322 1;
#X connect 322 0 343 0;
#X connect 323 0 324 1;
#X connect 324 0 344 0;
#X connect 325 0 326 1;
#X connect 326 0 345 0;
#X connect 327 0 328 1;
#X connect 328 0 346 0;
#X connect 329 0 330 1;
#X connect 330 0 347 0;
#X connect 331 0 332 1;
#X connect 332 0 348 0;
#X connect 333 0 334 1;
#X connect 334 0 349 0;
#X connect 335 0 336 1;
#X connect 336 0 350 0;
#X connect 337 0 314 0;
#X connect 337 1 316 0;
#X connect 337 2 318 0;
#X connect 337 3 320 0;
#X connect 337 4 322 0;
#X connect 337 5 324 0;
#X connect 337 6 326 0;
#X connect 337 7 328 0;
#X connect 337 8 330 0;
#X connect 337 9 332 0;
#X connect 337 10 334 0;
#X connect 337 11 336 0;
#X connect 338 0 473 0;
#X connect 339 0 338 0;
#X connect 340 0 338 0;
#X connect 341 0 338 0;
#X connect 342 0 338 0;
#X connect 343 0 338 0;
#X connect 344 0 338 0;
#X connect 345 0 338 0;
#X connect 346 0 338 0;
#X connect 347 0 338 0;
#X connect 348 0 338 0;
#X connect 349 0 338 0;
#X connect 350 0 338 0;
#X connect 351 0 376 0;
#X connect 352 0 353 1;
#X connect 353 0 378 0;
#X connect 354 0 355 1;
#X connect 355 0 379 0;
#X connect 356 0 357 1;
#X connect 357 0 380 0;
#X connect 358 0 359 1;
#X connect 359 0 381 0;
#X connect 360 0 361 1;
#X connect 361 0 382 0;
#X connect 362 0 363 1;
#X connect 363 0 383 0;
#X connect 364 0 365 1;
#X connect 365 0 384 0;
#X connect 366 0 367 1;
#X connect 367 0 385 0;
#X connect 368 0 369 1;
#X connect 369 0 386 0;
#X connect 370 0 371 1;
#X connect 371 0 387 0;
#X connect 372 0 373 1;
#X connect 373 0 388 0;
#X connect 374 0 375 1;
#X connect 375 0 389 0;
#X connect 376 0 353 0;
#X connect 376 1 355 0;
#X connect 376 2 357 0;
#X connect 376 3 359 0;
#X connect 376 4 361 0;
#X connect 376 5 363 0;
#X connect 376 6 365 0;
#X connect 376 7 367 0;
#X connect 376 8 369 0;
#X connect 376 9 371 0;
#X connect 376 10 373 0;
#X connect 376 11 375 0;
#X connect 377 0 473 0;
#X connect 378 0 377 0;
#X connect 379 0 377 0;
#X connect 380 0 377 0;
#X connect 381 0 377 0;
#X connect 382 0 377 0;
#X connect 383 0 377 0;
#X connect 384 0 377 0;
#X connect 385 0 377 0;
#X connect 386 0 377 0;
#X connect 387 0 377 0;
#X connect 388 0 377 0;
#X connect 389 0 377 0;
#X connect 390 0 415 0;
#X connect 391 0 392 1;
#X connect 392 0 417 0;
#X connect 393 0 394 1;
#X connect 394 0 418 0;
#X connect 395 0 396 1;
#X connect 396 0 419 0;
#X connect 397 0 398 1;
#X connect 398 0 420 0;
#X connect 399 0 400 1;
#X connect 400 0 421 0;
#X connect 401 0 402 1;
#X connect 402 0 422 0;
#X connect 403 0 404 1;
#X connect 404 0 423 0;
#X connect 405 0 406 1;
#X connect 406 0 424 0;
#X connect 407 0 408 1;
#X connect 408 0 425 0;
#X connect 409 0 410 1;
#X connect 410 0 426 0;
#X connect 411 0 412 1;
#X connect 412 0 427 0;
#X connect 413 0 414 1;
#X connect 414 0 428 0;
#X connect 415 0 392 0;
#X connect 415 1 394 0;
#X connect 415 2 396 0;
#X connect 415 3 398 0;
#X connect 415 4 400 0;
#X connect 415 5 402 0;
#X connect 415 6 404 0;
#X connect 415 7 406 0;
#X connect 415 8 408 0;
#X connect 415 9 410 0;
#X connect 415 10 412 0;
#X connect 415 11 414 0;
#X connect 416 0 473 0;
#X connect 417 0 416 0;
#X connect 418 0 416 0;
#X connect 419 0 416 0;
#X connect 420 0 416 0;
#X connect 421 0 416 0;
#X connect 422 0 416 0;
#X connect 423 0 416 0;
#X connect 424 0 416 0;
#X connect 425 0 416 0;
#X connect 426 0 416 0;
#X connect 427 0 416 0;
#X connect 428 0 416 0;
#X connect 429 0 454 0;
#X connect 430 0 431 1;
#X connect 431 0 456 0;
#X connect 432 0 433 1;
#X connect 433 0 457 0;
#X connect 434 0 435 1;
#X connect 435 0 458 0;
#X connect 436 0 437 1;
#X connect 437 0 459 0;
#X connect 438 0 439 1;
#X connect 439 0 460 0;
#X connect 440 0 441 1;
#X connect 441 0 461 0;
#X connect 442 0 443 1;
#X connect 443 0 462 0;
#X connect 444 0 445 1;
#X connect 445 0 463 0;
#X connect 446 0 447 1;
#X connect 447 0 464 0;
#X connect 448 0 449 1;
#X connect 449 0 465 0;
#X connect 450 0 451 1;
#X connect 451 0 466 0;
#X connect 452 0 453 1;
#X connect 453 0 467 0;
#X connect 454 0 431 0;
#X connect 454 1 433 0;
#X connect 454 2 435 0;
#X connect 454 3 437 0;
#X connect 454 4 439 0;
#X connect 454 5 441 0;
#X connect 454 6 443 0;
#X connect 454 7 445 0;
#X connect 454 8 447 0;
#X connect 454 9 449 0;
#X connect 454 10 451 0;
#X connect 454 11 453 0;
#X connect 455 0 473 0;
#X connect 456 0 455 0;
#X connect 457 0 455 0;
#X connect 458 0 455 0;
#X connect 459 0 455 0;
#X connect 460 0 455 0;
#X connect 461 0 455 0;
#X connect 462 0 455 0;
#X connect 463 0 455 0;
#X connect 464 0 455 0;
#X connect 465 0 455 0;
#X connect 466 0 455 0;
#X connect 467 0 455 0;
#X connect 468 0 469 0;
#X connect 469 0 470 0;
#X connect 469 0 472 0;
#X connect 470 0 471 0;
#X connect 471 0 469 1;
#X connect 472 0 0 0;
#X connect 472 1 39 0;
#X connect 472 2 78 0;
#X connect 472 3 117 0;
#X connect 472 4 156 0;
#X connect 472 5 195 0;
#X connect 472 6 234 0;
#X connect 472 7 273 0;
#X connect 472 8 312 0;
#X connect 472 9 351 0;
#X connect 472 10 390 0;
#X connect 472 11 429 0;
#X connect 472 12 478 0;
#X connect 474 0 475 0;
#X connect 475 0 469 1;
#X connect 476 0 471 1;
#X connect 478 0 477 0;
#X coords 0 -1 1 1 155 180 1 198 50;
