#N canvas 0 116 1366 652 10;
#X obj 79 79 cnv 10 10 40 empty \$0-color empty 20 12 0 14 -245500
-66577 0;
#X msg 20 267 list #00ff00;
#X obj 31 338 s \$0-color;
#X msg 31 315 color \$1;
#X msg 31 288 list #eeeeee;
#X obj 31 220 == 24;
#X obj 31 243 sel 1;
#X obj 31 197 r n;
#X obj 91 79 cnv 10 10 40 empty \$2-color empty 20 12 0 14 -245500
-66577 0;
#X obj 103 79 cnv 10 10 40 empty \$4-color empty 20 12 0 14 -245500
-66577 0;
#X obj 115 79 cnv 10 10 40 empty \$5-color empty 20 12 0 14 -245500
-66577 0;
#X obj 127 79 cnv 10 10 40 empty \$7-color empty 20 12 0 14 -245500
-66577 0;
#X obj 139 79 cnv 10 10 40 empty \$9-color empty 20 12 0 14 -245500
-66577 0;
#X obj 151 79 cnv 10 10 40 empty \$11-color empty 20 12 0 14 -245500
-66577 0;
#X obj 86 79 cnv 7 7 22 empty \$1-color empty 20 12 0 14 -49933 -66577
0;
#X obj 98 79 cnv 7 7 22 empty \$3-color empty 20 12 0 14 -49933 -66577
0;
#X obj 122 79 cnv 7 7 22 empty \$6-color empty 20 12 0 14 -49933 -66577
0;
#X obj 134 79 cnv 7 7 22 empty \$8-color empty 20 12 0 14 -49933 -66577
0;
#X obj 146 79 cnv 7 7 22 empty \$10-color empty 20 12 0 14 -49933 -66577
0;
#X msg 110 267 list #00ff00;
#X msg 121 315 color \$1;
#X obj 121 243 sel 1;
#X obj 121 197 r n;
#X msg 200 267 list #00ff00;
#X msg 211 315 color \$1;
#X msg 211 288 list #eeeeee;
#X obj 211 197 r n;
#X msg 290 267 list #00ff00;
#X msg 301 315 color \$1;
#X obj 301 197 r n;
#X msg 380 267 list #00ff00;
#X msg 391 315 color \$1;
#X msg 391 288 list #eeeeee;
#X obj 391 197 r n;
#X msg 470 267 list #00ff00;
#X msg 481 315 color \$1;
#X msg 481 288 list #eeeeee;
#X obj 481 197 r n;
#X msg 560 267 list #00ff00;
#X msg 571 315 color \$1;
#X obj 571 197 r n;
#X msg 650 267 list #00ff00;
#X msg 661 315 color \$1;
#X msg 661 288 list #eeeeee;
#X obj 661 197 r n;
#X msg 740 267 list #00ff00;
#X msg 751 315 color \$1;
#X obj 751 197 r n;
#X msg 830 267 list #00ff00;
#X msg 841 315 color \$1;
#X msg 841 288 list #eeeeee;
#X obj 841 197 r n;
#X msg 920 267 list #00ff00;
#X msg 931 315 color \$1;
#X obj 931 197 r n;
#X msg 1010 267 list #00ff00;
#X msg 1021 315 color \$1;
#X msg 1021 288 list #eeeeee;
#X obj 1021 197 r n;
#X obj 121 338 s \$1-color;
#X obj 211 338 s \$2-color;
#X obj 301 338 s \$3-color;
#X obj 121 220 == 25;
#X obj 211 220 == 26;
#X obj 301 220 == 27;
#X obj 391 220 == 28;
#X obj 481 220 == 29;
#X obj 571 220 == 30;
#X obj 661 220 == 31;
#X obj 751 220 == 32;
#X obj 841 220 == 33;
#X obj 931 220 == 34;
#X obj 1021 220 == 35;
#X obj 391 338 s \$4-color;
#X obj 481 338 s \$5-color;
#X obj 571 338 s \$6-color;
#X obj 661 338 s \$7-color;
#X obj 751 338 s \$8-color;
#X obj 841 338 s \$9-color;
#X obj 931 338 s \$10-color;
#X obj 1021 338 s \$11-color;
#X msg 121 288 list #333333;
#X msg 301 288 list #333333;
#X msg 571 288 list #333333;
#X msg 751 288 list #333333;
#X msg 931 288 list #333333;
#X obj 163 79 cnv 10 10 40 empty \$12-color empty 20 12 0 14 -245500
-66577 0;
#X obj 175 79 cnv 10 10 40 empty \$14-color empty 20 12 0 14 -245500
-66577 0;
#X obj 187 79 cnv 10 10 40 empty \$16-color empty 20 12 0 14 -245500
-66577 0;
#X obj 199 79 cnv 10 10 40 empty \$17-color empty 20 12 0 14 -245500
-66577 0;
#X obj 211 79 cnv 10 10 40 empty \$19-color empty 20 12 0 14 -245500
-66577 0;
#X obj 223 79 cnv 10 10 40 empty \$21-color empty 20 12 0 14 -245500
-66577 0;
#X obj 235 79 cnv 10 10 40 empty \$23-color empty 20 12 0 14 -245500
-66577 0;
#X obj 170 79 cnv 7 7 22 empty \$13-color empty 20 12 0 14 -49933 -66577
0;
#X obj 182 79 cnv 7 7 22 empty \$15-color empty 20 12 0 14 -49933 -66577
0;
#X obj 206 79 cnv 7 7 22 empty \$18-color empty 20 12 0 14 -49933 -66577
0;
#X obj 218 79 cnv 7 7 22 empty \$20-color empty 20 12 0 14 -49933 -66577
0;
#X obj 230 79 cnv 7 7 22 empty \$22-color empty 20 12 0 14 -49933 -66577
0;
#X msg 20 437 list #00ff00;
#X msg 31 485 color \$1;
#X msg 31 458 list #eeeeee;
#X obj 31 367 r n;
#X msg 110 437 list #00ff00;
#X msg 121 485 color \$1;
#X obj 121 367 r n;
#X msg 200 437 list #00ff00;
#X msg 211 485 color \$1;
#X msg 211 458 list #eeeeee;
#X obj 211 367 r n;
#X msg 290 437 list #00ff00;
#X msg 301 485 color \$1;
#X obj 301 367 r n;
#X msg 380 437 list #00ff00;
#X msg 391 485 color \$1;
#X msg 391 458 list #eeeeee;
#X obj 391 367 r n;
#X msg 470 437 list #00ff00;
#X msg 481 485 color \$1;
#X msg 481 458 list #eeeeee;
#X obj 481 367 r n;
#X msg 560 437 list #00ff00;
#X msg 571 485 color \$1;
#X obj 571 367 r n;
#X msg 650 437 list #00ff00;
#X msg 661 485 color \$1;
#X msg 661 458 list #eeeeee;
#X obj 661 367 r n;
#X msg 740 437 list #00ff00;
#X msg 751 485 color \$1;
#X obj 751 367 r n;
#X msg 830 437 list #00ff00;
#X msg 841 485 color \$1;
#X msg 841 458 list #eeeeee;
#X obj 841 367 r n;
#X msg 920 437 list #00ff00;
#X msg 931 485 color \$1;
#X obj 931 367 r n;
#X msg 1010 437 list #00ff00;
#X msg 1021 485 color \$1;
#X msg 1021 458 list #eeeeee;
#X obj 1021 367 r n;
#X msg 121 458 list #333333;
#X msg 301 458 list #333333;
#X msg 571 458 list #333333;
#X msg 751 458 list #333333;
#X msg 931 458 list #333333;
#X obj 31 390 == 36;
#X obj 121 390 == 37;
#X obj 211 390 == 38;
#X obj 301 390 == 39;
#X obj 391 390 == 40;
#X obj 481 390 == 41;
#X obj 571 390 == 42;
#X obj 661 390 == 43;
#X obj 751 390 == 44;
#X obj 841 390 == 45;
#X obj 931 390 == 46;
#X obj 1021 390 == 47;
#X obj 31 508 s \$12-color;
#X obj 121 508 s \$13-color;
#X obj 211 508 s \$14-color;
#X obj 301 508 s \$15-color;
#X obj 391 508 s \$16-color;
#X obj 481 508 s \$17-color;
#X obj 571 508 s \$18-color;
#X obj 661 508 s \$19-color;
#X obj 751 508 s \$20-color;
#X obj 841 508 s \$21-color;
#X obj 931 508 s \$22-color;
#X obj 1021 508 s \$23-color;
#X obj 247 79 cnv 10 10 40 empty \$24-color empty 20 12 0 14 -245500
-66577 0;
#X obj 259 79 cnv 10 10 40 empty \$26-color empty 20 12 0 14 -245500
-66577 0;
#X obj 271 79 cnv 10 10 40 empty \$28-color empty 20 12 0 14 -245500
-66577 0;
#X obj 283 79 cnv 10 10 40 empty \$29-color empty 20 12 0 14 -245500
-66577 0;
#X obj 295 79 cnv 10 10 40 empty \$31-color empty 20 12 0 14 -245500
-66577 0;
#X obj 307 79 cnv 10 10 40 empty \$33-color empty 20 12 0 14 -245500
-66577 0;
#X obj 319 79 cnv 10 10 40 empty \$35-color empty 20 12 0 14 -245500
-66577 0;
#X obj 254 79 cnv 7 7 22 empty \$25-color empty 20 12 0 14 -49933 -66577
0;
#X obj 266 79 cnv 7 7 22 empty \$27-color empty 20 12 0 14 -49933 -66577
0;
#X obj 290 79 cnv 7 7 22 empty \$30-color empty 20 12 0 14 -49933 -66577
0;
#X obj 302 79 cnv 7 7 22 empty \$32-color empty 20 12 0 14 -49933 -66577
0;
#X obj 314 79 cnv 7 7 22 empty \$34-color empty 20 12 0 14 -49933 -66577
0;
#X msg 20 617 list #00ff00;
#X msg 31 665 color \$1;
#X msg 31 638 list #eeeeee;
#X obj 31 547 r n;
#X msg 110 617 list #00ff00;
#X msg 121 665 color \$1;
#X obj 121 547 r n;
#X msg 200 617 list #00ff00;
#X msg 211 665 color \$1;
#X msg 211 638 list #eeeeee;
#X obj 211 547 r n;
#X msg 290 617 list #00ff00;
#X msg 301 665 color \$1;
#X obj 301 547 r n;
#X msg 380 617 list #00ff00;
#X msg 391 665 color \$1;
#X msg 391 638 list #eeeeee;
#X obj 391 547 r n;
#X msg 470 617 list #00ff00;
#X msg 481 665 color \$1;
#X msg 481 638 list #eeeeee;
#X obj 481 547 r n;
#X msg 560 617 list #00ff00;
#X msg 571 665 color \$1;
#X obj 571 547 r n;
#X msg 650 617 list #00ff00;
#X msg 661 665 color \$1;
#X msg 661 638 list #eeeeee;
#X obj 661 547 r n;
#X msg 740 617 list #00ff00;
#X msg 751 665 color \$1;
#X obj 751 547 r n;
#X msg 830 617 list #00ff00;
#X msg 841 665 color \$1;
#X msg 841 638 list #eeeeee;
#X obj 841 547 r n;
#X msg 920 617 list #00ff00;
#X msg 931 665 color \$1;
#X obj 931 547 r n;
#X msg 1010 617 list #00ff00;
#X msg 1021 665 color \$1;
#X msg 1021 638 list #eeeeee;
#X obj 1021 547 r n;
#X msg 121 638 list #333333;
#X msg 301 638 list #333333;
#X msg 571 638 list #333333;
#X msg 751 638 list #333333;
#X msg 931 638 list #333333;
#X obj 31 570 == 48;
#X obj 121 570 == 49;
#X obj 211 570 == 50;
#X obj 301 570 == 51;
#X obj 391 570 == 52;
#X obj 481 570 == 53;
#X obj 571 570 == 54;
#X obj 661 570 == 55;
#X obj 751 570 == 56;
#X obj 841 570 == 57;
#X obj 931 570 == 58;
#X obj 1021 570 == 59;
#X obj 31 688 s \$24-color;
#X obj 121 688 s \$25-color;
#X obj 211 688 s \$26-color;
#X obj 301 688 s \$27-color;
#X obj 391 688 s \$28-color;
#X obj 481 688 s \$29-color;
#X obj 571 688 s \$30-color;
#X obj 661 688 s \$31-color;
#X obj 751 688 s \$32-color;
#X obj 841 688 s \$33-color;
#X obj 931 688 s \$34-color;
#X obj 1021 688 s \$35-color;
#X msg 20 798 list #00ff00;
#X msg 31 846 color \$1;
#X msg 31 819 list #eeeeee;
#X obj 31 728 r n;
#X msg 110 798 list #00ff00;
#X msg 121 846 color \$1;
#X obj 121 728 r n;
#X msg 200 798 list #00ff00;
#X msg 211 846 color \$1;
#X msg 211 819 list #eeeeee;
#X obj 211 728 r n;
#X msg 290 798 list #00ff00;
#X msg 301 846 color \$1;
#X obj 301 728 r n;
#X msg 380 798 list #00ff00;
#X msg 391 846 color \$1;
#X msg 391 819 list #eeeeee;
#X obj 391 728 r n;
#X msg 470 798 list #00ff00;
#X msg 481 846 color \$1;
#X msg 481 819 list #eeeeee;
#X obj 481 728 r n;
#X msg 560 798 list #00ff00;
#X msg 571 846 color \$1;
#X obj 571 728 r n;
#X msg 650 798 list #00ff00;
#X msg 661 846 color \$1;
#X msg 661 819 list #eeeeee;
#X obj 661 728 r n;
#X msg 740 798 list #00ff00;
#X msg 751 846 color \$1;
#X obj 751 728 r n;
#X msg 830 798 list #00ff00;
#X msg 841 846 color \$1;
#X msg 841 819 list #eeeeee;
#X obj 841 728 r n;
#X msg 920 798 list #00ff00;
#X msg 931 846 color \$1;
#X obj 931 728 r n;
#X msg 1010 798 list #00ff00;
#X msg 1021 846 color \$1;
#X msg 1021 819 list #eeeeee;
#X obj 1021 728 r n;
#X msg 121 819 list #333333;
#X msg 301 819 list #333333;
#X msg 571 819 list #333333;
#X msg 751 819 list #333333;
#X msg 931 819 list #333333;
#X msg 20 968 list #00ff00;
#X msg 31 1016 color \$1;
#X msg 31 989 list #eeeeee;
#X obj 31 898 r n;
#X msg 110 968 list #00ff00;
#X msg 121 1016 color \$1;
#X obj 121 898 r n;
#X msg 200 968 list #00ff00;
#X msg 211 1016 color \$1;
#X msg 211 989 list #eeeeee;
#X obj 211 898 r n;
#X msg 290 968 list #00ff00;
#X msg 301 1016 color \$1;
#X obj 301 898 r n;
#X msg 380 968 list #00ff00;
#X msg 391 1016 color \$1;
#X msg 391 989 list #eeeeee;
#X obj 391 898 r n;
#X msg 470 968 list #00ff00;
#X msg 481 1016 color \$1;
#X msg 481 989 list #eeeeee;
#X obj 481 898 r n;
#X msg 560 968 list #00ff00;
#X msg 571 1016 color \$1;
#X obj 571 898 r n;
#X msg 650 968 list #00ff00;
#X msg 661 1016 color \$1;
#X msg 661 989 list #eeeeee;
#X obj 661 898 r n;
#X msg 740 968 list #00ff00;
#X msg 751 1016 color \$1;
#X obj 751 898 r n;
#X msg 830 968 list #00ff00;
#X msg 841 1016 color \$1;
#X msg 841 989 list #eeeeee;
#X obj 841 898 r n;
#X msg 920 968 list #00ff00;
#X msg 931 1016 color \$1;
#X obj 931 898 r n;
#X msg 1010 968 list #00ff00;
#X msg 1021 1016 color \$1;
#X msg 1021 989 list #eeeeee;
#X obj 1021 898 r n;
#X msg 121 989 list #333333;
#X msg 301 989 list #333333;
#X msg 571 989 list #333333;
#X msg 751 989 list #333333;
#X msg 931 989 list #333333;
#X msg 20 1148 list #00ff00;
#X msg 31 1196 color \$1;
#X msg 31 1169 list #eeeeee;
#X obj 31 1078 r n;
#X msg 110 1148 list #00ff00;
#X msg 121 1196 color \$1;
#X obj 121 1078 r n;
#X msg 200 1148 list #00ff00;
#X msg 211 1196 color \$1;
#X msg 211 1169 list #eeeeee;
#X obj 211 1078 r n;
#X msg 290 1148 list #00ff00;
#X msg 301 1196 color \$1;
#X obj 301 1078 r n;
#X msg 380 1148 list #00ff00;
#X msg 391 1196 color \$1;
#X msg 391 1169 list #eeeeee;
#X obj 391 1078 r n;
#X msg 470 1148 list #00ff00;
#X msg 481 1196 color \$1;
#X msg 481 1169 list #eeeeee;
#X obj 481 1078 r n;
#X msg 560 1148 list #00ff00;
#X msg 571 1196 color \$1;
#X obj 571 1078 r n;
#X msg 650 1148 list #00ff00;
#X msg 661 1196 color \$1;
#X msg 661 1169 list #eeeeee;
#X obj 661 1078 r n;
#X msg 740 1148 list #00ff00;
#X msg 751 1196 color \$1;
#X obj 751 1078 r n;
#X msg 830 1148 list #00ff00;
#X msg 841 1196 color \$1;
#X msg 841 1169 list #eeeeee;
#X obj 841 1078 r n;
#X msg 920 1148 list #00ff00;
#X msg 931 1196 color \$1;
#X obj 931 1078 r n;
#X msg 1010 1148 list #00ff00;
#X msg 1021 1196 color \$1;
#X msg 1021 1169 list #eeeeee;
#X obj 1021 1078 r n;
#X msg 121 1169 list #333333;
#X msg 301 1169 list #333333;
#X msg 571 1169 list #333333;
#X msg 751 1169 list #333333;
#X msg 931 1169 list #333333;
#X obj 31 751 == 60;
#X obj 121 751 == 61;
#X obj 211 751 == 62;
#X obj 301 751 == 63;
#X obj 391 751 == 64;
#X obj 481 751 == 65;
#X obj 571 751 == 66;
#X obj 661 751 == 67;
#X obj 751 751 == 68;
#X obj 841 751 == 69;
#X obj 931 751 == 70;
#X obj 1021 751 == 71;
#X obj 31 921 == 72;
#X obj 121 921 == 73;
#X obj 211 921 == 74;
#X obj 301 921 == 75;
#X obj 391 921 == 76;
#X obj 481 921 == 77;
#X obj 571 921 == 78;
#X obj 661 921 == 79;
#X obj 751 921 == 80;
#X obj 841 921 == 81;
#X obj 931 921 == 82;
#X obj 1021 921 == 83;
#X obj 31 1101 == 84;
#X obj 121 1101 == 85;
#X obj 211 1101 == 86;
#X obj 301 1101 == 87;
#X obj 391 1101 == 88;
#X obj 481 1101 == 89;
#X obj 571 1101 == 90;
#X obj 661 1101 == 91;
#X obj 751 1101 == 92;
#X obj 841 1101 == 93;
#X obj 931 1101 == 94;
#X obj 1021 1101 == 95;
#X obj 31 869 s \$36-color;
#X obj 121 869 s \$37-color;
#X obj 211 869 s \$38-color;
#X obj 301 869 s \$39-color;
#X obj 391 869 s \$40-color;
#X obj 481 869 s \$41-color;
#X obj 571 869 s \$42-color;
#X obj 661 869 s \$43-color;
#X obj 751 869 s \$44-color;
#X obj 841 869 s \$45-color;
#X obj 931 869 s \$46-color;
#X obj 1021 869 s \$47-color;
#X obj 31 1039 s \$48-color;
#X obj 121 1039 s \$49-color;
#X obj 211 1039 s \$50-color;
#X obj 301 1039 s \$51-color;
#X obj 391 1039 s \$52-color;
#X obj 481 1039 s \$53-color;
#X obj 571 1039 s \$54-color;
#X obj 661 1039 s \$55-color;
#X obj 751 1039 s \$56-color;
#X obj 841 1039 s \$57-color;
#X obj 931 1039 s \$58-color;
#X obj 1021 1039 s \$59-color;
#X obj 31 1219 s \$60-color;
#X obj 121 1219 s \$61-color;
#X obj 211 1219 s \$62-color;
#X obj 301 1219 s \$63-color;
#X obj 391 1219 s \$64-color;
#X obj 481 1219 s \$65-color;
#X obj 571 1219 s \$66-color;
#X obj 661 1219 s \$67-color;
#X obj 751 1219 s \$68-color;
#X obj 841 1219 s \$69-color;
#X obj 931 1219 s \$70-color;
#X obj 1021 1219 s \$71-color;
#X obj 331 79 cnv 10 10 40 empty \$36-color empty 20 12 0 14 -245500
-66577 0;
#X obj 343 79 cnv 10 10 40 empty \$38-color empty 20 12 0 14 -245500
-66577 0;
#X obj 355 79 cnv 10 10 40 empty \$40-color empty 20 12 0 14 -245500
-66577 0;
#X obj 367 79 cnv 10 10 40 empty \$41-color empty 20 12 0 14 -245500
-66577 0;
#X obj 379 79 cnv 10 10 40 empty \$43-color empty 20 12 0 14 -245500
-66577 0;
#X obj 391 79 cnv 10 10 40 empty \$45-color empty 20 12 0 14 -245500
-66577 0;
#X obj 403 79 cnv 10 10 40 empty \$47-color empty 20 12 0 14 -245500
-66577 0;
#X obj 338 79 cnv 7 7 22 empty \$37-color empty 20 12 0 14 -49933 -66577
0;
#X obj 350 79 cnv 7 7 22 empty \$39-color empty 20 12 0 14 -49933 -66577
0;
#X obj 374 79 cnv 7 7 22 empty \$42-color empty 20 12 0 14 -49933 -66577
0;
#X obj 386 79 cnv 7 7 22 empty \$44-color empty 20 12 0 14 -49933 -66577
0;
#X obj 398 79 cnv 7 7 22 empty \$46-color empty 20 12 0 14 -49933 -66577
0;
#X obj 415 79 cnv 10 10 40 empty \$48-color empty 20 12 0 14 -245500
-66577 0;
#X obj 427 79 cnv 10 10 40 empty \$50-color empty 20 12 0 14 -245500
-66577 0;
#X obj 439 79 cnv 10 10 40 empty \$52-color empty 20 12 0 14 -245500
-66577 0;
#X obj 451 79 cnv 10 10 40 empty \$53-color empty 20 12 0 14 -245500
-66577 0;
#X obj 463 79 cnv 10 10 40 empty \$55-color empty 20 12 0 14 -245500
-66577 0;
#X obj 475 79 cnv 10 10 40 empty \$57-color empty 20 12 0 14 -245500
-66577 0;
#X obj 487 79 cnv 10 10 40 empty \$59-color empty 20 12 0 14 -245500
-66577 0;
#X obj 422 79 cnv 7 7 22 empty \$49-color empty 20 12 0 14 -49933 -66577
0;
#X obj 434 79 cnv 7 7 22 empty \$51-color empty 20 12 0 14 -49933 -66577
0;
#X obj 458 79 cnv 7 7 22 empty \$54-color empty 20 12 0 14 -49933 -66577
0;
#X obj 470 79 cnv 7 7 22 empty \$56-color empty 20 12 0 14 -49933 -66577
0;
#X obj 482 79 cnv 7 7 22 empty \$58-color empty 20 12 0 14 -49933 -66577
0;
#X obj 499 79 cnv 10 10 40 empty \$60-color empty 20 12 0 14 -245500
-66577 0;
#X obj 511 79 cnv 10 10 40 empty \$62-color empty 20 12 0 14 -245500
-66577 0;
#X obj 523 79 cnv 10 10 40 empty \$64-color empty 20 12 0 14 -245500
-66577 0;
#X obj 535 79 cnv 10 10 40 empty \$65-color empty 20 12 0 14 -245500
-66577 0;
#X obj 547 79 cnv 10 10 40 empty \$67-color empty 20 12 0 14 -245500
-66577 0;
#X obj 559 79 cnv 10 10 40 empty \$69-color empty 20 12 0 14 -245500
-66577 0;
#X obj 571 79 cnv 10 10 40 empty \$71-color empty 20 12 0 14 -245500
-66577 0;
#X obj 506 79 cnv 7 7 22 empty \$61-color empty 20 12 0 14 -49933 -66577
0;
#X obj 518 79 cnv 7 7 22 empty \$63-color empty 20 12 0 14 -49933 -66577
0;
#X obj 542 79 cnv 7 7 22 empty \$66-color empty 20 12 0 14 -49933 -66577
0;
#X obj 554 79 cnv 7 7 22 empty \$68-color empty 20 12 0 14 -49933 -66577
0;
#X obj 566 79 cnv 7 7 22 empty \$70-color empty 20 12 0 14 -49933 -66577
0;
#X obj 750 27 inlet;
#X obj 750 94 clip 24 95;
#X obj 750 118 unpack 0 0 0 0 0 0 0 0 0 0, f 45;
#X obj 750 141 s n;
#X obj 779 141 s n;
#X obj 809 141 s n;
#X obj 839 141 s n;
#X obj 868 141 s n;
#X obj 898 141 s n;
#X obj 928 141 s n;
#X obj 957 141 s n;
#X obj 987 141 s n;
#X obj 1017 141 s n;
#X obj 71 244 del \$1;
#X obj 161 244 del \$1;
#X obj 211 243 sel 1;
#X obj 301 243 sel 1;
#X obj 251 244 del \$1;
#X obj 341 244 del \$1;
#X obj 391 243 sel 1;
#X obj 481 243 sel 1;
#X obj 431 244 del \$1;
#X obj 521 244 del \$1;
#X obj 571 243 sel 1;
#X obj 661 243 sel 1;
#X obj 611 244 del \$1;
#X obj 701 244 del \$1;
#X obj 751 243 sel 1;
#X obj 841 243 sel 1;
#X obj 791 244 del \$1;
#X obj 881 244 del \$1;
#X obj 931 243 sel 1;
#X obj 1021 243 sel 1;
#X obj 971 244 del \$1;
#X obj 1061 244 del \$1;
#X obj 1089 27 inlet;
#X obj 1089 72 s d;
#X obj 78 196 r d;
#X obj 168 196 r d;
#X obj 258 196 r d;
#X obj 348 196 r d;
#X obj 437 196 r d;
#X obj 527 196 r d;
#X obj 617 196 r d;
#X obj 707 196 r d;
#X obj 797 196 r d;
#X obj 887 196 r d;
#X obj 977 196 r d;
#X obj 1067 196 r d;
#X obj 31 413 sel 1;
#X obj 121 413 sel 1;
#X obj 71 414 del \$1;
#X obj 161 414 del \$1;
#X obj 211 413 sel 1;
#X obj 301 413 sel 1;
#X obj 251 414 del \$1;
#X obj 341 414 del \$1;
#X obj 391 413 sel 1;
#X obj 481 413 sel 1;
#X obj 431 414 del \$1;
#X obj 521 414 del \$1;
#X obj 571 413 sel 1;
#X obj 661 413 sel 1;
#X obj 611 414 del \$1;
#X obj 701 414 del \$1;
#X obj 751 413 sel 1;
#X obj 841 413 sel 1;
#X obj 791 414 del \$1;
#X obj 881 414 del \$1;
#X obj 931 413 sel 1;
#X obj 1021 413 sel 1;
#X obj 971 414 del \$1;
#X obj 1061 414 del \$1;
#X obj 78 366 r d;
#X obj 168 366 r d;
#X obj 258 366 r d;
#X obj 348 366 r d;
#X obj 437 366 r d;
#X obj 527 366 r d;
#X obj 617 366 r d;
#X obj 707 366 r d;
#X obj 797 366 r d;
#X obj 887 366 r d;
#X obj 977 366 r d;
#X obj 1067 366 r d;
#X obj 1171 27 loadbang;
#X obj 31 593 sel 1;
#X obj 121 593 sel 1;
#X obj 71 594 del \$1;
#X obj 161 594 del \$1;
#X obj 211 593 sel 1;
#X obj 301 593 sel 1;
#X obj 251 594 del \$1;
#X obj 341 594 del \$1;
#X obj 391 593 sel 1;
#X obj 481 593 sel 1;
#X obj 431 594 del \$1;
#X obj 521 594 del \$1;
#X obj 571 593 sel 1;
#X obj 661 593 sel 1;
#X obj 611 594 del \$1;
#X obj 701 594 del \$1;
#X obj 751 593 sel 1;
#X obj 841 593 sel 1;
#X obj 791 594 del \$1;
#X obj 881 594 del \$1;
#X obj 931 593 sel 1;
#X obj 1021 593 sel 1;
#X obj 971 594 del \$1;
#X obj 1061 594 del \$1;
#X obj 78 546 r d;
#X obj 168 546 r d;
#X obj 258 546 r d;
#X obj 348 546 r d;
#X obj 437 546 r d;
#X obj 527 546 r d;
#X obj 617 546 r d;
#X obj 707 546 r d;
#X obj 797 546 r d;
#X obj 887 546 r d;
#X obj 977 546 r d;
#X obj 1067 546 r d;
#X obj 31 775 sel 1;
#X obj 121 775 sel 1;
#X obj 71 776 del \$1;
#X obj 161 776 del \$1;
#X obj 211 775 sel 1;
#X obj 301 775 sel 1;
#X obj 251 776 del \$1;
#X obj 341 776 del \$1;
#X obj 391 775 sel 1;
#X obj 481 775 sel 1;
#X obj 431 776 del \$1;
#X obj 521 776 del \$1;
#X obj 571 775 sel 1;
#X obj 661 775 sel 1;
#X obj 611 776 del \$1;
#X obj 701 776 del \$1;
#X obj 751 775 sel 1;
#X obj 841 775 sel 1;
#X obj 791 776 del \$1;
#X obj 881 776 del \$1;
#X obj 931 775 sel 1;
#X obj 1021 775 sel 1;
#X obj 971 776 del \$1;
#X obj 1061 776 del \$1;
#X obj 78 728 r d;
#X obj 168 728 r d;
#X obj 258 728 r d;
#X obj 348 728 r d;
#X obj 437 728 r d;
#X obj 527 728 r d;
#X obj 617 728 r d;
#X obj 707 728 r d;
#X obj 797 728 r d;
#X obj 887 728 r d;
#X obj 977 728 r d;
#X obj 1067 728 r d;
#X obj 30 944 sel 1;
#X obj 120 944 sel 1;
#X obj 70 945 del \$1;
#X obj 160 945 del \$1;
#X obj 210 944 sel 1;
#X obj 300 944 sel 1;
#X obj 250 945 del \$1;
#X obj 340 945 del \$1;
#X obj 390 944 sel 1;
#X obj 480 944 sel 1;
#X obj 430 945 del \$1;
#X obj 520 945 del \$1;
#X obj 570 944 sel 1;
#X obj 660 944 sel 1;
#X obj 610 945 del \$1;
#X obj 700 945 del \$1;
#X obj 750 944 sel 1;
#X obj 840 944 sel 1;
#X obj 790 945 del \$1;
#X obj 880 945 del \$1;
#X obj 930 944 sel 1;
#X obj 1020 944 sel 1;
#X obj 970 945 del \$1;
#X obj 1060 945 del \$1;
#X obj 77 897 r d;
#X obj 167 897 r d;
#X obj 257 897 r d;
#X obj 347 897 r d;
#X obj 436 897 r d;
#X obj 526 897 r d;
#X obj 616 897 r d;
#X obj 706 897 r d;
#X obj 796 897 r d;
#X obj 886 897 r d;
#X obj 976 897 r d;
#X obj 1066 897 r d;
#X obj 31 1124 sel 1;
#X obj 121 1124 sel 1;
#X obj 71 1125 del \$1;
#X obj 161 1125 del \$1;
#X obj 211 1124 sel 1;
#X obj 301 1124 sel 1;
#X obj 251 1125 del \$1;
#X obj 341 1125 del \$1;
#X obj 391 1124 sel 1;
#X obj 481 1124 sel 1;
#X obj 431 1125 del \$1;
#X obj 521 1125 del \$1;
#X obj 571 1124 sel 1;
#X obj 661 1124 sel 1;
#X obj 611 1125 del \$1;
#X obj 701 1125 del \$1;
#X obj 751 1124 sel 1;
#X obj 841 1124 sel 1;
#X obj 791 1125 del \$1;
#X obj 881 1125 del \$1;
#X obj 931 1124 sel 1;
#X obj 1021 1124 sel 1;
#X obj 971 1125 del \$1;
#X obj 1061 1125 del \$1;
#X obj 78 1077 r d;
#X obj 168 1077 r d;
#X obj 258 1077 r d;
#X obj 348 1077 r d;
#X obj 437 1077 r d;
#X obj 527 1077 r d;
#X obj 617 1077 r d;
#X obj 707 1077 r d;
#X obj 797 1077 r d;
#X obj 887 1077 r d;
#X obj 977 1077 r d;
#X obj 1067 1077 r d;
#X msg 1171 56 500;
#X msg 1237 57 0;
#X obj 1237 80 s n;
#X obj 1237 27 r sync;
#X connect 1 0 3 0;
#X connect 3 0 2 0;
#X connect 4 0 3 0;
#X connect 5 0 6 0;
#X connect 6 0 1 0;
#X connect 6 0 519 0;
#X connect 7 0 5 0;
#X connect 19 0 20 0;
#X connect 20 0 59 0;
#X connect 21 0 19 0;
#X connect 21 0 520 0;
#X connect 22 0 62 0;
#X connect 23 0 24 0;
#X connect 24 0 60 0;
#X connect 25 0 24 0;
#X connect 26 0 63 0;
#X connect 27 0 28 0;
#X connect 28 0 61 0;
#X connect 29 0 64 0;
#X connect 30 0 31 0;
#X connect 31 0 73 0;
#X connect 32 0 31 0;
#X connect 33 0 65 0;
#X connect 34 0 35 0;
#X connect 35 0 74 0;
#X connect 36 0 35 0;
#X connect 37 0 66 0;
#X connect 38 0 39 0;
#X connect 39 0 75 0;
#X connect 40 0 67 0;
#X connect 41 0 42 0;
#X connect 42 0 76 0;
#X connect 43 0 42 0;
#X connect 44 0 68 0;
#X connect 45 0 46 0;
#X connect 46 0 77 0;
#X connect 47 0 69 0;
#X connect 48 0 49 0;
#X connect 49 0 78 0;
#X connect 50 0 49 0;
#X connect 51 0 70 0;
#X connect 52 0 53 0;
#X connect 53 0 79 0;
#X connect 54 0 71 0;
#X connect 55 0 56 0;
#X connect 56 0 80 0;
#X connect 57 0 56 0;
#X connect 58 0 72 0;
#X connect 62 0 21 0;
#X connect 63 0 521 0;
#X connect 64 0 522 0;
#X connect 65 0 525 0;
#X connect 66 0 526 0;
#X connect 67 0 529 0;
#X connect 68 0 530 0;
#X connect 69 0 533 0;
#X connect 70 0 534 0;
#X connect 71 0 537 0;
#X connect 72 0 538 0;
#X connect 81 0 20 0;
#X connect 82 0 28 0;
#X connect 83 0 39 0;
#X connect 84 0 46 0;
#X connect 85 0 53 0;
#X connect 98 0 99 0;
#X connect 99 0 158 0;
#X connect 100 0 99 0;
#X connect 101 0 146 0;
#X connect 102 0 103 0;
#X connect 103 0 159 0;
#X connect 104 0 147 0;
#X connect 105 0 106 0;
#X connect 106 0 160 0;
#X connect 107 0 106 0;
#X connect 108 0 148 0;
#X connect 109 0 110 0;
#X connect 110 0 161 0;
#X connect 111 0 149 0;
#X connect 112 0 113 0;
#X connect 113 0 162 0;
#X connect 114 0 113 0;
#X connect 115 0 150 0;
#X connect 116 0 117 0;
#X connect 117 0 163 0;
#X connect 118 0 117 0;
#X connect 119 0 151 0;
#X connect 120 0 121 0;
#X connect 121 0 164 0;
#X connect 122 0 152 0;
#X connect 123 0 124 0;
#X connect 124 0 165 0;
#X connect 125 0 124 0;
#X connect 126 0 153 0;
#X connect 127 0 128 0;
#X connect 128 0 166 0;
#X connect 129 0 154 0;
#X connect 130 0 131 0;
#X connect 131 0 167 0;
#X connect 132 0 131 0;
#X connect 133 0 155 0;
#X connect 134 0 135 0;
#X connect 135 0 168 0;
#X connect 136 0 156 0;
#X connect 137 0 138 0;
#X connect 138 0 169 0;
#X connect 139 0 138 0;
#X connect 140 0 157 0;
#X connect 141 0 103 0;
#X connect 142 0 110 0;
#X connect 143 0 121 0;
#X connect 144 0 128 0;
#X connect 145 0 135 0;
#X connect 146 0 555 0;
#X connect 147 0 556 0;
#X connect 148 0 559 0;
#X connect 149 0 560 0;
#X connect 150 0 563 0;
#X connect 151 0 564 0;
#X connect 152 0 567 0;
#X connect 153 0 568 0;
#X connect 154 0 571 0;
#X connect 155 0 572 0;
#X connect 156 0 575 0;
#X connect 157 0 576 0;
#X connect 182 0 183 0;
#X connect 183 0 242 0;
#X connect 184 0 183 0;
#X connect 185 0 230 0;
#X connect 186 0 187 0;
#X connect 187 0 243 0;
#X connect 188 0 231 0;
#X connect 189 0 190 0;
#X connect 190 0 244 0;
#X connect 191 0 190 0;
#X connect 192 0 232 0;
#X connect 193 0 194 0;
#X connect 194 0 245 0;
#X connect 195 0 233 0;
#X connect 196 0 197 0;
#X connect 197 0 246 0;
#X connect 198 0 197 0;
#X connect 199 0 234 0;
#X connect 200 0 201 0;
#X connect 201 0 247 0;
#X connect 202 0 201 0;
#X connect 203 0 235 0;
#X connect 204 0 205 0;
#X connect 205 0 248 0;
#X connect 206 0 236 0;
#X connect 207 0 208 0;
#X connect 208 0 249 0;
#X connect 209 0 208 0;
#X connect 210 0 237 0;
#X connect 211 0 212 0;
#X connect 212 0 250 0;
#X connect 213 0 238 0;
#X connect 214 0 215 0;
#X connect 215 0 251 0;
#X connect 216 0 215 0;
#X connect 217 0 239 0;
#X connect 218 0 219 0;
#X connect 219 0 252 0;
#X connect 220 0 240 0;
#X connect 221 0 222 0;
#X connect 222 0 253 0;
#X connect 223 0 222 0;
#X connect 224 0 241 0;
#X connect 225 0 187 0;
#X connect 226 0 194 0;
#X connect 227 0 205 0;
#X connect 228 0 212 0;
#X connect 229 0 219 0;
#X connect 230 0 592 0;
#X connect 231 0 593 0;
#X connect 232 0 596 0;
#X connect 233 0 597 0;
#X connect 234 0 600 0;
#X connect 235 0 601 0;
#X connect 236 0 604 0;
#X connect 237 0 605 0;
#X connect 238 0 608 0;
#X connect 239 0 609 0;
#X connect 240 0 612 0;
#X connect 241 0 613 0;
#X connect 254 0 255 0;
#X connect 255 0 434 0;
#X connect 256 0 255 0;
#X connect 257 0 398 0;
#X connect 258 0 259 0;
#X connect 259 0 435 0;
#X connect 260 0 399 0;
#X connect 261 0 262 0;
#X connect 262 0 436 0;
#X connect 263 0 262 0;
#X connect 264 0 400 0;
#X connect 265 0 266 0;
#X connect 266 0 437 0;
#X connect 267 0 401 0;
#X connect 268 0 269 0;
#X connect 269 0 438 0;
#X connect 270 0 269 0;
#X connect 271 0 402 0;
#X connect 272 0 273 0;
#X connect 273 0 439 0;
#X connect 274 0 273 0;
#X connect 275 0 403 0;
#X connect 276 0 277 0;
#X connect 277 0 440 0;
#X connect 278 0 404 0;
#X connect 279 0 280 0;
#X connect 280 0 441 0;
#X connect 281 0 280 0;
#X connect 282 0 405 0;
#X connect 283 0 284 0;
#X connect 284 0 442 0;
#X connect 285 0 406 0;
#X connect 286 0 287 0;
#X connect 287 0 443 0;
#X connect 288 0 287 0;
#X connect 289 0 407 0;
#X connect 290 0 291 0;
#X connect 291 0 444 0;
#X connect 292 0 408 0;
#X connect 293 0 294 0;
#X connect 294 0 445 0;
#X connect 295 0 294 0;
#X connect 296 0 409 0;
#X connect 297 0 259 0;
#X connect 298 0 266 0;
#X connect 299 0 277 0;
#X connect 300 0 284 0;
#X connect 301 0 291 0;
#X connect 302 0 303 0;
#X connect 303 0 446 0;
#X connect 304 0 303 0;
#X connect 305 0 410 0;
#X connect 306 0 307 0;
#X connect 307 0 447 0;
#X connect 308 0 411 0;
#X connect 309 0 310 0;
#X connect 310 0 448 0;
#X connect 311 0 310 0;
#X connect 312 0 412 0;
#X connect 313 0 314 0;
#X connect 314 0 449 0;
#X connect 315 0 413 0;
#X connect 316 0 317 0;
#X connect 317 0 450 0;
#X connect 318 0 317 0;
#X connect 319 0 414 0;
#X connect 320 0 321 0;
#X connect 321 0 451 0;
#X connect 322 0 321 0;
#X connect 323 0 415 0;
#X connect 324 0 325 0;
#X connect 325 0 452 0;
#X connect 326 0 416 0;
#X connect 327 0 328 0;
#X connect 328 0 453 0;
#X connect 329 0 328 0;
#X connect 330 0 417 0;
#X connect 331 0 332 0;
#X connect 332 0 454 0;
#X connect 333 0 418 0;
#X connect 334 0 335 0;
#X connect 335 0 455 0;
#X connect 336 0 335 0;
#X connect 337 0 419 0;
#X connect 338 0 339 0;
#X connect 339 0 456 0;
#X connect 340 0 420 0;
#X connect 341 0 342 0;
#X connect 342 0 457 0;
#X connect 343 0 342 0;
#X connect 344 0 421 0;
#X connect 345 0 307 0;
#X connect 346 0 314 0;
#X connect 347 0 325 0;
#X connect 348 0 332 0;
#X connect 349 0 339 0;
#X connect 350 0 351 0;
#X connect 351 0 458 0;
#X connect 352 0 351 0;
#X connect 353 0 422 0;
#X connect 354 0 355 0;
#X connect 355 0 459 0;
#X connect 356 0 423 0;
#X connect 357 0 358 0;
#X connect 358 0 460 0;
#X connect 359 0 358 0;
#X connect 360 0 424 0;
#X connect 361 0 362 0;
#X connect 362 0 461 0;
#X connect 363 0 425 0;
#X connect 364 0 365 0;
#X connect 365 0 462 0;
#X connect 366 0 365 0;
#X connect 367 0 426 0;
#X connect 368 0 369 0;
#X connect 369 0 463 0;
#X connect 370 0 369 0;
#X connect 371 0 427 0;
#X connect 372 0 373 0;
#X connect 373 0 464 0;
#X connect 374 0 428 0;
#X connect 375 0 376 0;
#X connect 376 0 465 0;
#X connect 377 0 376 0;
#X connect 378 0 429 0;
#X connect 379 0 380 0;
#X connect 380 0 466 0;
#X connect 381 0 430 0;
#X connect 382 0 383 0;
#X connect 383 0 467 0;
#X connect 384 0 383 0;
#X connect 385 0 431 0;
#X connect 386 0 387 0;
#X connect 387 0 468 0;
#X connect 388 0 432 0;
#X connect 389 0 390 0;
#X connect 390 0 469 0;
#X connect 391 0 390 0;
#X connect 392 0 433 0;
#X connect 393 0 355 0;
#X connect 394 0 362 0;
#X connect 395 0 373 0;
#X connect 396 0 380 0;
#X connect 397 0 387 0;
#X connect 398 0 628 0;
#X connect 399 0 629 0;
#X connect 400 0 632 0;
#X connect 401 0 633 0;
#X connect 402 0 636 0;
#X connect 403 0 637 0;
#X connect 404 0 640 0;
#X connect 405 0 641 0;
#X connect 406 0 644 0;
#X connect 407 0 645 0;
#X connect 408 0 648 0;
#X connect 409 0 649 0;
#X connect 410 0 664 0;
#X connect 411 0 665 0;
#X connect 412 0 668 0;
#X connect 413 0 669 0;
#X connect 414 0 672 0;
#X connect 415 0 673 0;
#X connect 416 0 676 0;
#X connect 417 0 677 0;
#X connect 418 0 680 0;
#X connect 419 0 681 0;
#X connect 420 0 684 0;
#X connect 421 0 685 0;
#X connect 422 0 700 0;
#X connect 423 0 701 0;
#X connect 424 0 704 0;
#X connect 425 0 705 0;
#X connect 426 0 708 0;
#X connect 427 0 709 0;
#X connect 428 0 712 0;
#X connect 429 0 713 0;
#X connect 430 0 716 0;
#X connect 431 0 717 0;
#X connect 432 0 720 0;
#X connect 433 0 721 0;
#X connect 506 0 507 0;
#X connect 507 0 508 0;
#X connect 508 0 509 0;
#X connect 508 1 510 0;
#X connect 508 2 511 0;
#X connect 508 3 512 0;
#X connect 508 4 513 0;
#X connect 508 5 514 0;
#X connect 508 6 515 0;
#X connect 508 7 516 0;
#X connect 508 8 517 0;
#X connect 508 9 518 0;
#X connect 519 0 4 0;
#X connect 520 0 81 0;
#X connect 521 0 523 0;
#X connect 521 0 23 0;
#X connect 522 0 524 0;
#X connect 522 0 27 0;
#X connect 523 0 25 0;
#X connect 524 0 82 0;
#X connect 525 0 527 0;
#X connect 525 0 30 0;
#X connect 526 0 528 0;
#X connect 526 0 34 0;
#X connect 527 0 32 0;
#X connect 528 0 36 0;
#X connect 529 0 531 0;
#X connect 529 0 38 0;
#X connect 530 0 532 0;
#X connect 530 0 41 0;
#X connect 531 0 83 0;
#X connect 532 0 43 0;
#X connect 533 0 535 0;
#X connect 533 0 45 0;
#X connect 534 0 536 0;
#X connect 534 0 48 0;
#X connect 535 0 84 0;
#X connect 536 0 50 0;
#X connect 537 0 539 0;
#X connect 537 0 52 0;
#X connect 538 0 540 0;
#X connect 538 0 55 0;
#X connect 539 0 85 0;
#X connect 540 0 57 0;
#X connect 541 0 542 0;
#X connect 543 0 519 1;
#X connect 544 0 520 1;
#X connect 545 0 523 1;
#X connect 546 0 524 1;
#X connect 547 0 527 1;
#X connect 548 0 528 1;
#X connect 549 0 531 1;
#X connect 550 0 532 1;
#X connect 551 0 535 1;
#X connect 552 0 536 1;
#X connect 553 0 539 1;
#X connect 554 0 540 1;
#X connect 555 0 557 0;
#X connect 555 0 98 0;
#X connect 556 0 558 0;
#X connect 556 0 102 0;
#X connect 557 0 100 0;
#X connect 558 0 141 0;
#X connect 559 0 561 0;
#X connect 559 0 105 0;
#X connect 560 0 562 0;
#X connect 560 0 109 0;
#X connect 561 0 107 0;
#X connect 562 0 142 0;
#X connect 563 0 565 0;
#X connect 563 0 112 0;
#X connect 564 0 566 0;
#X connect 564 0 116 0;
#X connect 565 0 114 0;
#X connect 566 0 118 0;
#X connect 567 0 569 0;
#X connect 567 0 120 0;
#X connect 568 0 570 0;
#X connect 568 0 123 0;
#X connect 569 0 143 0;
#X connect 570 0 125 0;
#X connect 571 0 573 0;
#X connect 571 0 127 0;
#X connect 572 0 574 0;
#X connect 572 0 130 0;
#X connect 573 0 144 0;
#X connect 574 0 132 0;
#X connect 575 0 577 0;
#X connect 575 0 134 0;
#X connect 576 0 578 0;
#X connect 576 0 137 0;
#X connect 577 0 145 0;
#X connect 578 0 139 0;
#X connect 579 0 557 1;
#X connect 580 0 558 1;
#X connect 581 0 561 1;
#X connect 582 0 562 1;
#X connect 583 0 565 1;
#X connect 584 0 566 1;
#X connect 585 0 569 1;
#X connect 586 0 570 1;
#X connect 587 0 573 1;
#X connect 588 0 574 1;
#X connect 589 0 577 1;
#X connect 590 0 578 1;
#X connect 591 0 736 0;
#X connect 591 0 737 0;
#X connect 592 0 594 0;
#X connect 592 0 182 0;
#X connect 593 0 595 0;
#X connect 593 0 186 0;
#X connect 594 0 184 0;
#X connect 595 0 225 0;
#X connect 596 0 598 0;
#X connect 596 0 189 0;
#X connect 597 0 599 0;
#X connect 597 0 193 0;
#X connect 598 0 191 0;
#X connect 599 0 226 0;
#X connect 600 0 602 0;
#X connect 600 0 196 0;
#X connect 601 0 603 0;
#X connect 601 0 200 0;
#X connect 602 0 198 0;
#X connect 603 0 202 0;
#X connect 604 0 606 0;
#X connect 604 0 204 0;
#X connect 605 0 607 0;
#X connect 605 0 207 0;
#X connect 606 0 227 0;
#X connect 607 0 209 0;
#X connect 608 0 610 0;
#X connect 608 0 211 0;
#X connect 609 0 611 0;
#X connect 609 0 214 0;
#X connect 610 0 228 0;
#X connect 611 0 216 0;
#X connect 612 0 614 0;
#X connect 612 0 218 0;
#X connect 613 0 615 0;
#X connect 613 0 221 0;
#X connect 614 0 229 0;
#X connect 615 0 223 0;
#X connect 616 0 594 1;
#X connect 617 0 595 1;
#X connect 618 0 598 1;
#X connect 619 0 599 1;
#X connect 620 0 602 1;
#X connect 621 0 603 1;
#X connect 622 0 606 1;
#X connect 623 0 607 1;
#X connect 624 0 610 1;
#X connect 625 0 611 1;
#X connect 626 0 614 1;
#X connect 627 0 615 1;
#X connect 628 0 630 0;
#X connect 628 0 254 0;
#X connect 629 0 631 0;
#X connect 629 0 258 0;
#X connect 630 0 256 0;
#X connect 631 0 297 0;
#X connect 632 0 634 0;
#X connect 632 0 261 0;
#X connect 633 0 635 0;
#X connect 633 0 265 0;
#X connect 634 0 263 0;
#X connect 635 0 298 0;
#X connect 636 0 638 0;
#X connect 636 0 268 0;
#X connect 637 0 639 0;
#X connect 637 0 272 0;
#X connect 638 0 270 0;
#X connect 639 0 274 0;
#X connect 640 0 642 0;
#X connect 640 0 276 0;
#X connect 641 0 643 0;
#X connect 641 0 279 0;
#X connect 642 0 299 0;
#X connect 643 0 281 0;
#X connect 644 0 646 0;
#X connect 644 0 283 0;
#X connect 645 0 647 0;
#X connect 645 0 286 0;
#X connect 646 0 300 0;
#X connect 647 0 288 0;
#X connect 648 0 650 0;
#X connect 648 0 290 0;
#X connect 649 0 651 0;
#X connect 649 0 293 0;
#X connect 650 0 301 0;
#X connect 651 0 295 0;
#X connect 652 0 630 1;
#X connect 653 0 631 1;
#X connect 654 0 634 1;
#X connect 655 0 635 1;
#X connect 656 0 638 1;
#X connect 657 0 639 1;
#X connect 658 0 642 1;
#X connect 659 0 643 1;
#X connect 660 0 646 1;
#X connect 661 0 647 1;
#X connect 662 0 650 1;
#X connect 663 0 651 1;
#X connect 664 0 666 0;
#X connect 664 0 302 0;
#X connect 665 0 667 0;
#X connect 665 0 306 0;
#X connect 666 0 304 0;
#X connect 667 0 345 0;
#X connect 668 0 670 0;
#X connect 668 0 309 0;
#X connect 669 0 671 0;
#X connect 669 0 313 0;
#X connect 670 0 311 0;
#X connect 671 0 346 0;
#X connect 672 0 674 0;
#X connect 672 0 316 0;
#X connect 673 0 675 0;
#X connect 673 0 320 0;
#X connect 674 0 318 0;
#X connect 675 0 322 0;
#X connect 676 0 678 0;
#X connect 676 0 324 0;
#X connect 677 0 679 0;
#X connect 677 0 327 0;
#X connect 678 0 347 0;
#X connect 679 0 329 0;
#X connect 680 0 682 0;
#X connect 680 0 331 0;
#X connect 681 0 683 0;
#X connect 681 0 334 0;
#X connect 682 0 348 0;
#X connect 683 0 336 0;
#X connect 684 0 686 0;
#X connect 684 0 338 0;
#X connect 685 0 687 0;
#X connect 685 0 341 0;
#X connect 686 0 349 0;
#X connect 687 0 343 0;
#X connect 688 0 666 1;
#X connect 689 0 667 1;
#X connect 690 0 670 1;
#X connect 691 0 671 1;
#X connect 692 0 674 1;
#X connect 693 0 675 1;
#X connect 694 0 678 1;
#X connect 695 0 679 1;
#X connect 696 0 682 1;
#X connect 697 0 683 1;
#X connect 698 0 686 1;
#X connect 699 0 687 1;
#X connect 700 0 702 0;
#X connect 700 0 350 0;
#X connect 701 0 703 0;
#X connect 701 0 354 0;
#X connect 702 0 352 0;
#X connect 703 0 393 0;
#X connect 704 0 706 0;
#X connect 704 0 357 0;
#X connect 705 0 707 0;
#X connect 705 0 361 0;
#X connect 706 0 359 0;
#X connect 707 0 394 0;
#X connect 708 0 710 0;
#X connect 708 0 364 0;
#X connect 709 0 711 0;
#X connect 709 0 368 0;
#X connect 710 0 366 0;
#X connect 711 0 370 0;
#X connect 712 0 714 0;
#X connect 712 0 372 0;
#X connect 713 0 715 0;
#X connect 713 0 375 0;
#X connect 714 0 395 0;
#X connect 715 0 377 0;
#X connect 716 0 718 0;
#X connect 716 0 379 0;
#X connect 717 0 719 0;
#X connect 717 0 382 0;
#X connect 718 0 396 0;
#X connect 719 0 384 0;
#X connect 720 0 722 0;
#X connect 720 0 386 0;
#X connect 721 0 723 0;
#X connect 721 0 389 0;
#X connect 722 0 397 0;
#X connect 723 0 391 0;
#X connect 724 0 702 1;
#X connect 725 0 703 1;
#X connect 726 0 706 1;
#X connect 727 0 707 1;
#X connect 728 0 710 1;
#X connect 729 0 711 1;
#X connect 730 0 714 1;
#X connect 731 0 715 1;
#X connect 732 0 718 1;
#X connect 733 0 719 1;
#X connect 734 0 722 1;
#X connect 735 0 723 1;
#X connect 736 0 542 0;
#X connect 737 0 738 0;
#X connect 739 0 737 0;
#X coords 0 -1 1 1 510 50 2 75 75;
