#N canvas 93 236 580 493 10;
#X obj 37 142 t f f;
#X obj 167 158 pipe 10;
#X obj 37 15 inlet;
#X obj 37 65 t b;
#X obj 37 291 outlet;
#X obj 298 15 inlet;
#X obj 298 65 clip 0 1;
#X obj 37 89 expr if($f3 == 1 \, if($f2 < 2 && $f2 > -2 \, 0 \, if($f2
< 4 && $f2 > 2 \, 2 \, if($f2 < 6 && $f2 > 4 \, 4 \, 0))) \, ($f2 +
random(-2 \, 2))%7), f 44;
#X obj 110 196 expr ($f1 - if($f1 == 0 || $f1 == 1 \, 4 \, if($f1 ==
2 || $f1 == 3 \, 6 \, 0)))%7 -7, f 32;
#X obj 110 248 change -1;
#X obj 110 291 outlet;
#X connect 0 0 4 0;
#X connect 0 1 1 0;
#X connect 0 1 8 0;
#X connect 1 0 7 1;
#X connect 2 0 3 0;
#X connect 3 0 7 0;
#X connect 5 0 6 0;
#X connect 6 0 7 2;
#X connect 7 0 0 0;
#X connect 8 0 9 0;
#X connect 9 0 10 0;
