#N canvas 58 141 638 621 10;
#X obj 79 15 inlet;
#X obj 98 101 bng 15 250 50 0 empty empty empty 17 7 0 10 -262144 -191407
-1;
#X obj 79 142 i 0;
#X obj 105 142 + 1;
#X obj 79 165 div 8, f 6;
#X obj 117 101 nbx 2 15 1 8 0 0 empty empty div 0 -8 0 10 -262144 -1
-1 1 256;
#X obj 79 361 random 100;
#X obj 79 384 < 100, f 11;
#X obj 213 101 nbx 5 15 0 10000 0 0 empty empty seed 0 -8 0 10 -228856
-1 -1 0 256;
#X obj 181 101 nbx 2 15 0 100 0 0 empty empty %pr 0 -8 0 10 -262144
-1 -1 0 256;
#X msg 113 330 seed \$1;
#X obj 79 407 sel 1;
#X obj 113 308 f 0;
#X obj 113 262 i 0;
#X obj 139 262 + 1;
#X obj 165 262 % 8;
#X obj 113 285 sel 0;
#X obj 130 434 random 3;
#X obj 79 238 t b b b b;
#X obj 79 450 i;
#X obj 79 473 sel 0 1 2, f 28;
#X obj 79 188 change -1;
#X msg 79 211 bang;
#X obj 149 101 nbx 2 15 1 16 0 0 empty empty seq 0 -8 0 10 -262144
-1 -1 1 256;
#X obj 79 526 outlet;
#X obj 134 526 outlet;
#X obj 189 526 outlet;
#X obj 142 410 spigot;
#X obj 271 101 tgl 15 0 empty empty empty 17 7 0 10 -262144 -1 -1 0
1;
#X obj 213 15 inlet;
#X connect 0 0 2 0;
#X connect 2 0 3 0;
#X connect 2 0 4 0;
#X connect 3 0 2 1;
#X connect 4 0 21 0;
#X connect 5 0 4 1;
#X connect 6 0 7 0;
#X connect 7 0 11 0;
#X connect 8 0 12 1;
#X connect 9 0 7 1;
#X connect 10 0 6 0;
#X connect 10 0 27 0;
#X connect 11 0 19 0;
#X connect 12 0 10 0;
#X connect 13 0 14 0;
#X connect 13 0 16 0;
#X connect 14 0 15 0;
#X connect 15 0 13 1;
#X connect 16 0 12 0;
#X connect 17 0 19 1;
#X connect 18 0 6 0;
#X connect 18 1 1 0;
#X connect 18 2 13 0;
#X connect 18 3 17 0;
#X connect 19 0 20 0;
#X connect 20 0 24 0;
#X connect 20 1 25 0;
#X connect 20 2 26 0;
#X connect 21 0 22 0;
#X connect 22 0 18 0;
#X connect 23 0 15 1;
#X connect 27 0 17 0;
#X connect 28 0 27 1;
#X connect 29 0 8 0;
#X coords 0 -1 1 1 205 65 1 90 60;
