#N canvas 133 219 775 484 10;
#X obj 117 201 line~;
#X obj 69 217 *~;
#X floatatom 253 163 5 0 0 0 - - -;
#X obj 253 94 mtof;
#X obj 253 140 /;
#X msg 253 117 1000 \$1;
#X obj 253 71 clip 20 120;
#X obj 253 185 delread4~ \$0-delay;
#X obj 70 269 +~;
#X msg 117 178 1 \, 0 \$1;
#X obj 252 285 delwrite~ \$0-delay 100;
#X obj 253 11 inlet;
#X obj 69 363 outlet~;
#X obj 70 321 clip~ -1 1;
#X obj 70 35 noise~;
#X obj 343 116 f \$2;
#X obj 343 139 clip 0 0.99;
#X obj 423 116 f \$3;
#X obj 423 139 clip 0 6000;
#X obj 503 116 f \$4;
#X obj 503 139 clip 0 5000;
#X obj 583 139 clip 0 6000;
#X obj 663 139 clip 0 5000;
#X obj 583 116 f \$5;
#X obj 663 116 f \$6;
#X obj 70 59 lop~ 6000;
#X obj 70 82 hip~ 50;
#X obj 253 231 lop~ 6000;
#X obj 253 254 hip~ 50;
#X obj 253 208 *~ 0.99;
#X obj 253 34 t f b, f 16;
#X connect 0 0 1 1;
#X connect 1 0 8 0;
#X connect 2 0 9 0;
#X connect 2 0 7 0;
#X connect 3 0 5 0;
#X connect 4 0 2 0;
#X connect 5 0 4 0;
#X connect 6 0 3 0;
#X connect 7 0 29 0;
#X connect 8 0 10 0;
#X connect 8 0 13 0;
#X connect 9 0 0 0;
#X connect 11 0 30 0;
#X connect 13 0 12 0;
#X connect 14 0 25 0;
#X connect 15 0 16 0;
#X connect 16 0 29 1;
#X connect 17 0 18 0;
#X connect 18 0 27 1;
#X connect 19 0 20 0;
#X connect 20 0 28 1;
#X connect 21 0 25 1;
#X connect 22 0 26 1;
#X connect 23 0 21 0;
#X connect 24 0 22 0;
#X connect 25 0 26 0;
#X connect 26 0 1 0;
#X connect 27 0 28 0;
#X connect 28 0 8 1;
#X connect 29 0 27 0;
#X connect 30 0 6 0;
#X connect 30 1 15 0;
#X connect 30 1 17 0;
#X connect 30 1 19 0;
#X connect 30 1 23 0;
#X connect 30 1 24 0;
