#N canvas 428 177 371 337 10;
#X obj 47 24 inlet;
#X obj 47 127 f 0;
#X obj 47 150 t f f, f 11;
#X obj 110 172 sel 0;
#X obj 72 127 + 1;
#X obj 47 238 % 12;
#X msg 158 199 12;
#X obj 110 195 f 0;
#X obj 47 173 + 0;
#X msg 125 92 0;
#X obj 158 127 loadbang;
#X obj 97 127 % \$1;
#X obj 118 24 inlet;
#X obj 47 213 * \$2;
#X obj 164 24 inlet;
#X obj 110 218 + \$3;
#X obj 212 24 inlet;
#X obj 158 222 * \$4;
#X obj 257 24 inlet;
#X obj 47 261 t f f;
#X obj 47 296 outlet;
#X obj 257 47 t b f;
#X obj 146 63 clip 1 12;
#X obj 284 73 clip 1 5;
#X obj 87 63 clip 2 6;
#X obj 171 92 clip -2 6;
#X connect 0 0 1 0;
#X connect 1 0 2 0;
#X connect 1 0 4 0;
#X connect 2 0 8 0;
#X connect 2 1 3 0;
#X connect 3 0 7 0;
#X connect 4 0 11 0;
#X connect 5 0 19 0;
#X connect 6 0 17 0;
#X connect 7 0 15 0;
#X connect 8 0 13 0;
#X connect 9 0 1 1;
#X connect 9 0 7 1;
#X connect 10 0 9 0;
#X connect 10 0 6 0;
#X connect 11 0 1 1;
#X connect 12 0 24 0;
#X connect 13 0 5 0;
#X connect 14 0 22 0;
#X connect 15 0 8 1;
#X connect 16 0 25 0;
#X connect 17 0 5 1;
#X connect 18 0 21 0;
#X connect 19 0 20 0;
#X connect 19 1 7 1;
#X connect 21 0 6 0;
#X connect 21 1 23 0;
#X connect 22 0 13 1;
#X connect 23 0 17 1;
#X connect 24 0 11 1;
#X connect 25 0 15 1;
