#N canvas 454 278 687 390 10;
#X obj 183 191 expr $f3 + ($f4 * sin(2 * 3.14159 * ($f2 / $f5)));
#X obj 474 146 clip 1 32;
#X obj 255 116 f 0;
#X obj 255 139 + 1;
#X obj 255 162 % 2;
#X obj 183 100 t b b;
#X obj 307 167 clip 0.2 0.8;
#X obj 378 138 clip 0.1 0.4;
#X obj 88 159 random 100;
#X obj 183 214 * 100;
#X floatatom 88 253 5 0 0 0 - - -;
#X obj 88 230 >;
#X obj 54 276 spigot;
#X obj 54 18 inlet;
#X obj 54 84 t a b b, f 12;
#X obj 54 346 outlet;
#X obj 307 54 f \$1;
#X obj 378 54 f \$2;
#X obj 474 54 f \$3;
#X obj 328 18 inlet;
#X obj 399 18 inlet;
#X obj 495 18 inlet;
#X obj 323 100 r sync;
#X msg 292 100 0;
#X connect 0 0 9 0;
#X connect 1 0 0 4;
#X connect 1 0 4 1;
#X connect 2 0 3 0;
#X connect 3 0 4 0;
#X connect 4 0 0 1;
#X connect 4 0 2 1;
#X connect 5 0 0 0;
#X connect 5 1 2 0;
#X connect 5 1 16 0;
#X connect 5 1 17 0;
#X connect 5 1 18 0;
#X connect 6 0 0 2;
#X connect 7 0 0 3;
#X connect 8 0 11 0;
#X connect 9 0 11 1;
#X connect 10 0 12 1;
#X connect 11 0 10 0;
#X connect 12 0 15 0;
#X connect 13 0 14 0;
#X connect 14 0 12 0;
#X connect 14 1 8 0;
#X connect 14 2 5 0;
#X connect 16 0 6 0;
#X connect 17 0 7 0;
#X connect 18 0 1 0;
#X connect 19 0 16 1;
#X connect 20 0 17 1;
#X connect 21 0 18 1;
#X connect 22 0 23 0;
#X connect 23 0 2 1;
