#N canvas 385 230 975 466 10;
#X obj 55 23 inlet;
#X obj 55 220 f 0;
#X obj 82 220 + 1;
#X obj 55 243 sel 0;
#X obj 55 90 f 0;
#X obj 82 90 + 1;
#X obj 92 136 sel 0;
#X obj 55 197 spigot 0;
#X obj 55 113 t b f f, f 13;
#X msg 92 159 0;
#X msg 130 159 1;
#X obj 55 316 outlet;
#X obj 110 90 % \$1;
#X obj 130 136 sel \$2;
#X obj 110 220 % \$3;
#X obj 189 23 inlet;
#X obj 189 74 unpack 0 0 0;
#X msg 218 204 0;
#X obj 218 165 loadbang;
#X obj 189 46 t a b;
#X connect 0 0 4 0;
#X connect 1 0 2 0;
#X connect 1 0 3 0;
#X connect 2 0 14 0;
#X connect 3 0 11 0;
#X connect 4 0 5 0;
#X connect 4 0 8 0;
#X connect 5 0 12 0;
#X connect 6 0 9 0;
#X connect 7 0 1 0;
#X connect 8 0 7 0;
#X connect 8 1 6 0;
#X connect 8 2 13 0;
#X connect 9 0 7 1;
#X connect 10 0 7 1;
#X connect 12 0 4 1;
#X connect 13 0 10 0;
#X connect 14 0 1 1;
#X connect 15 0 19 0;
#X connect 16 0 12 1;
#X connect 16 1 13 1;
#X connect 16 2 14 1;
#X connect 17 0 4 1;
#X connect 17 0 1 1;
#X connect 18 0 17 0;
#X connect 19 0 16 0;
#X connect 19 1 17 0;
