#N canvas 141 297 450 300 10;
#X obj 49 117 expr floor($f1 * $f2);
#X obj 49 22 inlet;
#X obj 49 199 outlet;
#X obj 172 92 f \$1;
#X obj 49 76 t f b;
#X obj 193 22 inlet;
#X obj 49 144 + \$2;
#X connect 0 0 6 0;
#X connect 1 0 4 0;
#X connect 3 0 0 1;
#X connect 4 0 0 0;
#X connect 4 1 3 0;
#X connect 5 0 3 1;
#X connect 6 0 2 0;
