#N canvas 555 186 729 538 10;
#X obj 337 219 unpack 1 2 3 4 5;
#X obj 309 249 bp~ 100 10;
#X obj 332 272 bp~ 100 10;
#X obj 356 297 bp~ 100 10;
#X obj 373 323 bp~ 100 10;
#X msg 446 285 1 \$1 \, 0 \$2 \$1;
#X floatatom 458 240 5 0 0 0 - - -;
#X floatatom 491 221 5 0 0 0 - - -;
#X obj 447 358 *~;
#X obj 446 219 t;
#X obj 446 308 vline~;
#X obj 556 274 noise~;
#X floatatom 602 297 5 0 0 0 - - -;
#X obj 556 297 *~ 0.1;
#X obj 541 342 +~;
#X floatatom 481 405 5 0 0 0 - - -;
#X obj 447 550 outlet~;
#X obj 89 11 inlet;
#X obj 89 77 bng 15 250 50 0 empty empty empty 17 7 0 10 -262144 -1
-1;
#X floatatom 112 77 5 0 2000 1 freq - -;
#X obj 132 11 inlet;
#X floatatom 541 92 5 0 0 0 - - -;
#X obj 446 262 pack 2 f;
#X obj 337 195 pack 1 2 3 4 5;
#X obj 92 100 hsl 50 15 0 10000 0 0 empty empty empty -2 -8 0 10 -262144
-1 -1 3000 1;
#X floatatom 149 100 6 0 0 1 r1 - -;
#X obj 92 121 hsl 50 15 0 10000 0 0 empty empty empty -2 -8 0 10 -262144
-1 -1 1700 1;
#X floatatom 149 121 6 0 0 1 r2 - -;
#X obj 92 142 hsl 50 15 0 10000 0 0 empty empty empty -2 -8 0 10 -262144
-1 -1 1900 1;
#X floatatom 149 142 6 0 0 1 r3 - -;
#X obj 92 163 hsl 50 15 0 10000 0 0 empty empty empty -2 -8 0 10 -262144
-1 -1 2500 1;
#X floatatom 149 163 6 0 0 1 r4 - -;
#X obj 92 184 hsl 50 15 20 100 1 0 empty empty empty -2 -8 0 10 -228856
-1 -1 2000 1;
#X floatatom 149 184 6 10 1000 1 Q - -;
#X obj 92 214 hsl 50 15 0 20 0 0 empty empty empty -2 -8 0 10 -1 -262144
-1 100 1;
#X floatatom 149 214 3 0 0 1 att - -;
#X obj 92 234 hsl 50 15 0 999 0 0 empty empty empty -2 -8 0 10 -1 -262144
-1 2400 1;
#X floatatom 149 234 5 0 0 1 dec - -;
#X obj 92 254 hsl 50 15 0 1 0 0 empty empty empty -2 -8 0 10 -262144
-1 -1 100 1;
#X floatatom 149 254 3 0 0 1 noise - -;
#X obj 92 325 hsl 50 15 0 1 0 0 empty empty empty -2 -8 0 10 -262144
-1 -1 600 1;
#X floatatom 149 325 3 0 0 1 vol - -;
#X obj 456 427 delwrite~ \$0-bres 1000;
#X floatatom 487 449 5 0 0 0 - - -;
#X obj 487 471 sig~;
#X obj 487 494 delread4~ \$0-bres;
#X obj 487 517 *~ 0;
#X floatatom 521 517 5 0 0 0 - - -;
#X obj 92 274 hsl 50 15 0 1000 0 0 empty empty empty -2 -8 0 10 -228856
-1 -1 0 1;
#X floatatom 149 274 5 0 0 1 del - -;
#X obj 92 294 hsl 50 15 0 1 0 0 empty empty empty -2 -8 0 10 -228856
-1 -1 1300 1;
#X floatatom 149 294 3 0 0 1 fb - -;
#X obj 541 221 osc~ 0;
#X obj 542 246 *~ 2;
#X obj 337 167 f;
#X obj 446 331 pow~ 4;
#X obj 446 405 *~ 0;
#X connect 0 0 1 1;
#X connect 0 1 2 1;
#X connect 0 2 3 1;
#X connect 0 3 4 1;
#X connect 0 4 1 2;
#X connect 0 4 2 2;
#X connect 0 4 3 2;
#X connect 0 4 4 2;
#X connect 0 4 9 0;
#X connect 1 0 56 0;
#X connect 2 0 56 0;
#X connect 3 0 56 0;
#X connect 4 0 56 0;
#X connect 5 0 10 0;
#X connect 6 0 22 0;
#X connect 7 0 22 1;
#X connect 8 0 1 0;
#X connect 8 0 2 0;
#X connect 8 0 3 0;
#X connect 8 0 4 0;
#X connect 9 0 22 0;
#X connect 10 0 55 0;
#X connect 11 0 13 0;
#X connect 12 0 13 1;
#X connect 13 0 14 1;
#X connect 14 0 8 1;
#X connect 15 0 56 1;
#X connect 17 0 18 0;
#X connect 18 0 54 0;
#X connect 19 0 21 0;
#X connect 20 0 19 0;
#X connect 21 0 52 0;
#X connect 22 0 5 0;
#X connect 23 0 0 0;
#X connect 24 0 25 0;
#X connect 25 0 54 1;
#X connect 26 0 27 0;
#X connect 27 0 23 1;
#X connect 28 0 29 0;
#X connect 29 0 23 2;
#X connect 30 0 31 0;
#X connect 31 0 23 3;
#X connect 32 0 33 0;
#X connect 33 0 23 4;
#X connect 34 0 35 0;
#X connect 35 0 6 0;
#X connect 36 0 37 0;
#X connect 37 0 7 0;
#X connect 38 0 39 0;
#X connect 38 0 12 0;
#X connect 39 0 12 0;
#X connect 40 0 41 0;
#X connect 41 0 15 0;
#X connect 43 0 44 0;
#X connect 44 0 45 0;
#X connect 45 0 46 0;
#X connect 46 0 42 0;
#X connect 46 0 16 0;
#X connect 47 0 46 1;
#X connect 48 0 49 0;
#X connect 49 0 43 0;
#X connect 50 0 51 0;
#X connect 50 0 47 0;
#X connect 51 0 47 0;
#X connect 52 0 53 0;
#X connect 53 0 14 0;
#X connect 54 0 23 0;
#X connect 55 0 8 0;
#X connect 56 0 16 0;
#X connect 56 0 42 0;
#X coords 0 -1 1 1 130 300 1 80 50;
