#N canvas 124 363 450 300 10;
#X obj 143 36 inlet;
#X obj 52 161 biquad~ 0 0 1 -1 0;
#X obj 52 132 1;
#X obj 87 132 0;
#X obj 52 191 *~;
#X obj 87 108 del 3;
#X obj 53 305 outlet~;
#X obj 52 36 inlet;
#X obj 52 217 bp~ 500 50;
#X obj 157 241 / 2;
#X obj 53 257 *~ 25;
#X obj 52 83 t b b b b, f 18;
#X obj 178 59 inlet;
#X obj 122 132 f \$1;
#X obj 157 131 f \$2;
#X connect 0 0 13 1;
#X connect 1 0 4 0;
#X connect 2 0 1 0;
#X connect 2 0 4 1;
#X connect 3 0 1 0;
#X connect 3 0 4 1;
#X connect 4 0 8 0;
#X connect 5 0 3 0;
#X connect 7 0 11 0;
#X connect 8 0 10 0;
#X connect 9 0 10 1;
#X connect 10 0 6 0;
#X connect 11 0 2 0;
#X connect 11 1 5 0;
#X connect 11 2 13 0;
#X connect 11 3 14 0;
#X connect 12 0 14 1;
#X connect 13 0 8 1;
#X connect 14 0 8 2;
#X connect 14 0 9 0;
