#N canvas 6 116 450 434 10;
#X obj 51 49 inlet;
#X obj 51 78 random 100;
#X obj 51 250 del \$1;
#X obj 51 124 t b f, f 20;
#X obj 51 316 line;
#X obj 51 177 del \$1;
#X obj 51 199 pack 0 \$2;
#X obj 120 199 pack 1 \$2;
#X obj 120 250 del \$1;
#X obj 153 228 * 2;
#X obj 84 228 * 3;
#X obj 120 273 pack -1 \$2;
#X obj 51 273 pack 0 \$2;
#X obj 51 339 outlet;
#X obj 51 101 * 1000;
#X connect 0 0 1 0;
#X connect 1 0 14 0;
#X connect 2 0 12 0;
#X connect 3 0 7 0;
#X connect 3 0 5 0;
#X connect 3 0 2 0;
#X connect 3 0 8 0;
#X connect 3 1 5 1;
#X connect 3 1 7 1;
#X connect 3 1 10 0;
#X connect 3 1 9 0;
#X connect 3 1 11 1;
#X connect 3 1 12 1;
#X connect 3 1 6 1;
#X connect 4 0 13 0;
#X connect 5 0 6 0;
#X connect 6 0 4 0;
#X connect 7 0 4 0;
#X connect 8 0 11 0;
#X connect 9 0 8 1;
#X connect 10 0 2 1;
#X connect 11 0 4 0;
#X connect 12 0 4 0;
#X connect 14 0 3 0;
