#N canvas 0 116 1366 652 10;
#X obj 25 20 inlet~;
#X obj 585 287 +~;
#X obj 625 287 +~;
#X obj 439 606 outlet~;
#X obj 786 606 outlet~;
#X obj 544 366 +~;
#X obj 647 366 +~;
#X obj 586 366 -~;
#X obj 686 366 -~;
#X obj 543 422 +~;
#X obj 587 422 +~;
#X obj 631 422 -~;
#X obj 670 422 -~;
#X obj 630 464 *~ 0;
#X obj 588 464 *~ 0;
#X obj 543 464 *~ 0;
#X obj 671 464 *~ 0;
#X obj 841 38 inlet;
#X obj 841 448 / 200;
#X obj 841 400 min 100;
#X obj 841 423 max 0;
#X obj 21 541 +~;
#X obj 94 519 -~;
#X obj 94 543 delread~ \$0-ed6 55.5437;
#X obj 22 410 +~;
#X obj 95 438 -~;
#X obj 95 463 delread~ \$0-ed5 34.3876;
#X obj 22 332 +~;
#X obj 95 359 -~;
#X obj 23 251 +~;
#X obj 96 278 -~;
#X obj 23 176 +~;
#X obj 96 198 -~;
#X obj 24 122 +~;
#X obj 97 122 -~;
#X obj 544 560 delwrite~ \$0-ld1 60;
#X obj 641 251 delread~ \$0-ld2 71.9345;
#X obj 687 280 delread~ \$0-ld3 86.7545;
#X obj 702 305 delread~ \$0-ld4 95.945;
#X msg 476 131 seed \$1;
#X obj 289 108 random 999999;
#X obj 289 131 / 100000;
#X obj 127 122 delwrite~ \$0-ed1 10;
#X obj 126 198 delwrite~ \$0-ed2 15;
#X obj 126 278 delwrite~ \$0-ed3 20;
#X obj 125 359 delwrite~ \$0-ed4 30;
#X obj 125 438 delwrite~ \$0-ed5 40;
#X obj 124 519 delwrite~ \$0-ed6 60;
#X obj 289 161 random 999999;
#X obj 96 223 delread~ \$0-ed2 1;
#X obj 97 147 delread~ \$0-ed1 1;
#X obj 289 241 random 999999;
#X obj 289 287 + 10;
#X obj 96 303 delread~ \$0-ed3 1;
#X obj 95 383 delread~ \$0-ed4 1;
#X obj 289 321 random 999999;
#X obj 289 367 + 20;
#X obj 289 401 random 999999;
#X obj 289 447 + 30;
#X obj 449 91 t b f;
#X obj 289 184 / 100005;
#X obj 289 207 + 5;
#X obj 289 264 / 100010;
#X obj 289 344 / 100020;
#X obj 289 424 / 100030;
#X obj 289 481 random 999999;
#X obj 289 527 + 50;
#X obj 289 504 / 100100;
#X obj 589 538 delwrite~ \$0-ld2 72.5;
#X obj 670 492 delwrite~ \$0-ld4 96;
#X obj 631 515 delwrite~ \$0-ld3 86.5;
#X obj 601 226 delread~ \$0-ld1 1;
#X obj 601 107 random 100;
#X obj 601 130 / 2;
#X obj 601 153 + 10;
#X obj 641 129 random 100;
#X obj 641 152 / 2;
#X obj 641 175 + 23;
#X obj 687 155 random 100;
#X obj 687 178 / 2;
#X obj 687 201 + 37;
#X obj 723 178 random 100;
#X obj 723 201 / 2;
#X obj 723 224 + 49;
#X obj 1010 75 inlet;
#X obj 25 59 *~ 0.5;
#X connect 0 0 85 0;
#X connect 1 0 3 0;
#X connect 1 0 5 0;
#X connect 1 0 7 0;
#X connect 2 0 4 0;
#X connect 2 0 5 1;
#X connect 2 0 7 1;
#X connect 5 0 9 0;
#X connect 5 0 11 0;
#X connect 6 0 11 1;
#X connect 6 0 9 1;
#X connect 7 0 10 0;
#X connect 7 0 12 0;
#X connect 8 0 10 1;
#X connect 8 0 12 1;
#X connect 9 0 15 0;
#X connect 10 0 14 0;
#X connect 11 0 13 0;
#X connect 12 0 16 0;
#X connect 13 0 70 0;
#X connect 14 0 68 0;
#X connect 15 0 35 0;
#X connect 16 0 69 0;
#X connect 17 0 19 0;
#X connect 18 0 16 1;
#X connect 18 0 15 1;
#X connect 18 0 14 1;
#X connect 18 0 13 1;
#X connect 19 0 20 0;
#X connect 20 0 18 0;
#X connect 21 0 1 0;
#X connect 22 0 47 0;
#X connect 23 0 2 0;
#X connect 24 0 21 0;
#X connect 24 0 22 1;
#X connect 25 0 46 0;
#X connect 26 0 22 0;
#X connect 26 0 21 1;
#X connect 27 0 24 0;
#X connect 27 0 25 1;
#X connect 28 0 45 0;
#X connect 29 0 27 0;
#X connect 29 0 28 1;
#X connect 30 0 44 0;
#X connect 31 0 29 0;
#X connect 31 0 30 1;
#X connect 32 0 43 0;
#X connect 33 0 31 0;
#X connect 33 0 32 1;
#X connect 34 0 42 0;
#X connect 36 0 2 1;
#X connect 37 0 6 0;
#X connect 37 0 8 0;
#X connect 38 0 6 1;
#X connect 38 0 8 1;
#X connect 39 0 40 0;
#X connect 39 0 48 0;
#X connect 39 0 51 0;
#X connect 39 0 55 0;
#X connect 39 0 57 0;
#X connect 39 0 65 0;
#X connect 39 0 72 0;
#X connect 39 0 75 0;
#X connect 39 0 78 0;
#X connect 39 0 81 0;
#X connect 40 0 41 0;
#X connect 41 0 50 0;
#X connect 48 0 60 0;
#X connect 49 0 30 0;
#X connect 49 0 29 1;
#X connect 50 0 32 0;
#X connect 50 0 31 1;
#X connect 51 0 62 0;
#X connect 52 0 53 0;
#X connect 53 0 28 0;
#X connect 53 0 27 1;
#X connect 54 0 25 0;
#X connect 54 0 24 1;
#X connect 55 0 63 0;
#X connect 56 0 54 0;
#X connect 57 0 64 0;
#X connect 58 0 26 0;
#X connect 59 0 40 0;
#X connect 59 0 48 0;
#X connect 59 0 51 0;
#X connect 59 0 55 0;
#X connect 59 0 57 0;
#X connect 59 0 65 0;
#X connect 59 0 72 0;
#X connect 59 0 75 0;
#X connect 59 0 78 0;
#X connect 59 0 81 0;
#X connect 59 1 39 0;
#X connect 60 0 61 0;
#X connect 61 0 49 0;
#X connect 62 0 52 0;
#X connect 63 0 56 0;
#X connect 64 0 58 0;
#X connect 65 0 67 0;
#X connect 66 0 23 0;
#X connect 67 0 66 0;
#X connect 71 0 1 1;
#X connect 72 0 73 0;
#X connect 73 0 74 0;
#X connect 74 0 71 0;
#X connect 75 0 76 0;
#X connect 76 0 77 0;
#X connect 77 0 36 0;
#X connect 78 0 79 0;
#X connect 79 0 80 0;
#X connect 80 0 37 0;
#X connect 81 0 82 0;
#X connect 82 0 83 0;
#X connect 83 0 38 0;
#X connect 84 0 59 0;
#X connect 85 0 33 0;
#X connect 85 0 34 0;
