#N canvas 568 130 450 628 10;
#X obj 98 69 bng 15 250 50 0 empty empty empty 17 7 0 10 -262144 -1
-1;
#X obj 98 252 random 12;
#X floatatom 41 500 5 0 0 0 - - -;
#X floatatom 119 90 5 0 0 1 max - -;
#X obj 98 275 + 0;
#X floatatom 119 69 5 0 0 1 min - -;
#X obj 149 207 -;
#X obj 149 230 + 1;
#X floatatom 119 111 5 0 0 1 depth - -;
#X obj 184 291 bng 15 250 50 0 empty empty empty 17 7 0 10 -262144
-1 -1;
#X floatatom 139 321 5 0 0 0 - - -;
#X floatatom 98 321 5 0 0 0 - - -;
#X floatatom 184 337 5 0 0 0 - - -;
#X floatatom 98 365 5 0 0 0 - - -;
#X obj 139 298 f;
#X obj 98 298 f;
#X obj 184 312 f 0;
#X obj 98 343 -;
#X floatatom 98 433 5 0 0 0 - - -;
#X obj 98 455 sel 1;
#X obj 41 364 f;
#X obj 98 501 bng 15 250 50 0 empty empty empty 17 7 0 10 -262144 -1
-1;
#X obj 98 387 abs;
#X obj 139 458 bng 15 250 50 0 empty empty empty 17 7 0 10 -262144
-1 -1;
#X obj 139 434 del 50;
#X obj 98 478 del 50;
#X obj 98 9 inlet;
#X obj 41 571 outlet;
#X floatatom 119 132 5 0 0 1 seed - -;
#X obj 98 410 <= 0;
#X msg 58 207 seed \$1;
#X connect 0 0 1 0;
#X connect 1 0 4 0;
#X connect 2 0 10 0;
#X connect 2 0 27 0;
#X connect 3 0 6 0;
#X connect 4 0 9 0;
#X connect 4 0 15 0;
#X connect 5 0 6 1;
#X connect 5 0 14 0;
#X connect 5 0 4 1;
#X connect 6 0 7 0;
#X connect 7 0 1 1;
#X connect 8 0 16 1;
#X connect 9 0 16 0;
#X connect 10 0 17 1;
#X connect 11 0 17 0;
#X connect 11 0 20 1;
#X connect 12 0 29 1;
#X connect 13 0 22 0;
#X connect 14 0 10 0;
#X connect 15 0 11 0;
#X connect 16 0 12 0;
#X connect 17 0 13 0;
#X connect 18 0 19 0;
#X connect 19 0 25 0;
#X connect 19 1 24 0;
#X connect 20 0 2 0;
#X connect 21 0 20 0;
#X connect 22 0 29 0;
#X connect 23 0 1 0;
#X connect 24 0 23 0;
#X connect 25 0 21 0;
#X connect 26 0 0 0;
#X connect 28 0 30 0;
#X connect 29 0 18 0;
#X connect 30 0 1 0;
#X coords 0 -1 1 1 100 110 1 90 50;
