#N canvas 18 199 489 493 10;
#X obj 38 103 i 0, f 5;
#X obj 38 300 t f f;
#X obj 38 181 expr $f1 + ($f2 * (random(0 \, 3) - 1));
#X obj 38 29 inlet;
#X obj 38 77 t b;
#X obj 38 385 outlet;
#X obj 293 77 i \$1;
#X obj 204 77 i \$2;
#X obj 371 77 i \$3;
#X obj 371 385 outlet;
#X obj 293 29 loadbang;
#X obj 371 298 t f f;
#X obj 371 345 spigot;
#X obj 38 241 expr $f1 \; if (random(0 \, 100) < $f2 * 10 \, $f1 +
(random(0 \, ($f3 * 2) + 1)) \, -12), f 56;
#X obj 404 321 != -12;
#X obj 293 165 clip 0 7;
#X obj 204 213 clip 0 9;
#X obj 371 213 clip 0 12;
#X obj 38 126 expr if (($f1 % 2) == 0 \, ($f1 + 2) % 7 \, ($f1 - 1)
% 7);
#X connect 0 0 18 0;
#X connect 1 0 5 0;
#X connect 1 1 0 1;
#X connect 2 0 13 0;
#X connect 3 0 4 0;
#X connect 4 0 0 0;
#X connect 6 0 15 0;
#X connect 7 0 16 0;
#X connect 8 0 17 0;
#X connect 10 0 6 0;
#X connect 10 0 8 0;
#X connect 10 0 7 0;
#X connect 11 0 12 0;
#X connect 11 1 14 0;
#X connect 12 0 9 0;
#X connect 13 0 1 0;
#X connect 13 1 11 0;
#X connect 14 0 12 1;
#X connect 15 0 2 1;
#X connect 16 0 13 1;
#X connect 17 0 13 2;
#X connect 18 0 2 0;
