#N canvas 135 370 450 300 10;
#X obj 89 12 inlet;
#X obj 188 12 inlet;
#X obj 89 110 f 0;
#X obj 117 110 + 1;
#X obj 145 110 % 4;
#X msg 89 133 get \$1 1;
#X obj 207 94 list length;
#X obj 89 166 list store;
#X obj 89 189 sel 1;
#X obj 50 256 outlet;
#X obj 146 12 inlet;
#X msg 146 36 0;
#X obj 139 256 outlet;
#X obj 188 67 t a a b;
#X obj 89 62 f 0;
#X obj 117 62 + 1;
#X obj 145 62 % \$1;
#X obj 89 85 sel 0;
#X connect 0 0 14 0;
#X connect 1 0 13 0;
#X connect 2 0 3 0;
#X connect 2 0 5 0;
#X connect 3 0 4 0;
#X connect 4 0 2 1;
#X connect 5 0 7 0;
#X connect 6 0 4 1;
#X connect 7 0 8 0;
#X connect 8 0 9 0;
#X connect 8 1 12 0;
#X connect 10 0 11 0;
#X connect 11 0 2 1;
#X connect 13 0 7 1;
#X connect 13 1 6 0;
#X connect 13 2 11 0;
#X connect 14 0 15 0;
#X connect 14 0 17 0;
#X connect 15 0 16 0;
#X connect 16 0 14 1;
#X connect 17 0 2 0;
