#N canvas 256 257 987 462 10;
#X obj 59 16 inlet~;
#X obj 115 215 delread4~ \$0-del;
#X obj 268 405 outlet~;
#X obj 60 329 delwrite~ \$0-del 10000;
#X obj 116 144 random 1000;
#X obj 116 167 + 100;
#X obj 116 191 sig~;
#X obj 116 87 bng 15 250 50 0 empty empty set 18 7 0 10 -262144 -228856
-1;
#X obj 225 215 delread4~ \$0-del;
#X obj 226 191 sig~;
#X obj 335 215 delread4~ \$0-del;
#X obj 336 191 sig~;
#X obj 445 215 delread4~ \$0-del;
#X obj 446 191 sig~;
#X obj 226 144 random 2000;
#X obj 336 144 random 3000;
#X obj 446 144 random 4000;
#X obj 226 167 + 200;
#X obj 336 167 + 300;
#X obj 446 167 + 400;
#X obj 161 87 hsl 50 15 0.005 0.5 1 0 empty empty fb 55 7 0 10 -262144
-1 -1 3300 1;
#X obj 114 296 *~;
#X obj 268 296 /~ 4;
#X obj 116 16 inlet;
#X connect 0 0 3 0;
#X connect 1 0 21 0;
#X connect 1 0 22 0;
#X connect 4 0 5 0;
#X connect 5 0 6 0;
#X connect 6 0 1 0;
#X connect 7 0 4 0;
#X connect 7 0 14 0;
#X connect 7 0 15 0;
#X connect 7 0 16 0;
#X connect 8 0 21 0;
#X connect 8 0 22 0;
#X connect 9 0 8 0;
#X connect 10 0 21 0;
#X connect 10 0 22 0;
#X connect 11 0 10 0;
#X connect 12 0 21 0;
#X connect 12 0 22 0;
#X connect 13 0 12 0;
#X connect 14 0 17 0;
#X connect 15 0 18 0;
#X connect 16 0 19 0;
#X connect 17 0 9 0;
#X connect 18 0 11 0;
#X connect 19 0 13 0;
#X connect 20 0 21 1;
#X connect 21 0 3 0;
#X connect 22 0 2 0;
#X connect 23 0 7 0;
#X coords 0 -1 1 1 125 50 1 110 60;
