#N canvas 32 267 670 465 10;
#X obj 49 18 inlet;
#X obj 146 121 random 2;
#X obj 49 112 random 2;
#X obj 49 137 pack 0 0;
#X obj 49 160 route 0 1, f 16;
#X obj 49 183 t b f;
#X obj 49 232 +;
#X obj 49 208 i 0;
#X obj 95 183 t b f;
#X obj 95 208 i 0;
#X obj 95 232 -;
#X obj 243 114 f 0;
#X obj 243 137 + 1;
#X obj 243 160 % 4, f 5;
#X obj 243 183 sel 0;
#X obj 243 206 f 0, f 15;
#X msg 243 229 seed \$1;
#X obj 212 18 inlet;
#X obj 291 18 inlet;
#X obj 101 18 inlet;
#X obj 142 18 inlet;
#X obj 49 419 outlet;
#X obj 330 18 inlet;
#X obj 49 288 expr if($f1<$f2||$f1>$f3 \, ($f2+$f3)/2 \, $f1);
#X obj 49 334 t f f;
#X obj 49 311 i;
#X obj 176 265 f \$2;
#X obj 304 265 f \$3;
#X obj 191 99 f \$4;
#X obj 270 137 f \$5;
#X obj 49 58 t b b b b, f 49;
#X connect 0 0 30 0;
#X connect 1 0 3 1;
#X connect 2 0 3 0;
#X connect 3 0 4 0;
#X connect 4 0 5 0;
#X connect 4 1 8 0;
#X connect 5 0 7 0;
#X connect 5 1 6 1;
#X connect 6 0 23 0;
#X connect 7 0 6 0;
#X connect 8 0 9 0;
#X connect 8 1 10 1;
#X connect 9 0 10 0;
#X connect 10 0 23 0;
#X connect 11 0 12 0;
#X connect 12 0 13 0;
#X connect 13 0 14 0;
#X connect 13 0 11 1;
#X connect 14 0 15 0;
#X connect 15 0 16 0;
#X connect 16 0 2 0;
#X connect 16 0 1 0;
#X connect 17 0 28 1;
#X connect 18 0 29 1;
#X connect 19 0 26 1;
#X connect 20 0 27 1;
#X connect 22 0 15 1;
#X connect 23 0 25 0;
#X connect 24 0 21 0;
#X connect 24 1 7 1;
#X connect 24 1 9 1;
#X connect 25 0 24 0;
#X connect 26 0 23 1;
#X connect 27 0 23 2;
#X connect 28 0 1 1;
#X connect 29 0 13 1;
#X connect 30 0 2 0;
#X connect 30 1 1 0;
#X connect 30 2 11 0;
#X connect 30 3 28 0;
#X connect 30 3 26 0;
#X connect 30 3 27 0;
#X connect 30 3 29 0;
