#N canvas 128 127 1111 564 10;
#X obj 306 117 t f f;
#X obj 610 240 list length;
#X obj 514 256 %;
#X obj 96 473 outlet;
#X obj 514 473 outlet;
#X obj 514 306 list store, f 12;
#X obj 583 150 t l l;
#X msg 514 282 get \$1 4;
#X obj 514 329 unpack 0 0 0 0, f 23;
#X obj 514 352 +;
#X obj 557 352 +;
#X obj 602 352 +;
#X obj 649 352 +;
#X obj 416 178 - 12;
#X obj 514 375 - 12;
#X obj 345 245 f 0;
#X obj 371 245 + 1;
#X obj 345 268 sel 0;
#X obj 306 325 spigot, f 7;
#X msg 345 291 1;
#X msg 372 291 0;
#X obj 514 207 + \$2;
#X obj 305 79 loadbang;
#X obj 514 426 pipe 0;
#X obj 532 404 * 0;
#X obj 557 426 pipe 0;
#X obj 575 404 * 1;
#X obj 602 426 pipe 0;
#X obj 620 404 * 2;
#X obj 649 426 pipe 0;
#X obj 667 404 * 3;
#X obj 535 28 inlet;
#X obj 557 473 outlet;
#X obj 602 473 outlet;
#X obj 649 473 outlet;
#X obj 535 182 clip 0 6;
#X obj 306 217 t f b, f 7;
#X obj 306 348 pipe \$4;
#X msg 583 95 0 4 7 11 2 5 9 12 4 7 11 14 5 9 12 16 7 11 14 17 9 12
16 19 11 14 17 21, f 24;
#X obj 409 364 * 4;
#X obj 96 238 list store, f 12;
#X msg 96 214 get \$1 1;
#X obj 96 142 t f f;
#X obj 123 191 * 12;
#X obj 192 152 list length;
#X obj 96 118 clip 0 127;
#X obj 123 168 div;
#X obj 96 191 %;
#X obj 165 118 t l l;
#X obj 306 141 % 12;
#X obj 96 261 +, f 5;
#X obj 96 284 t f f;
#X obj 192 292 list store;
#X msg 192 269 get \$1 1;
#X obj 123 308 -;
#X obj 96 28 inlet;
#X obj 192 218 f \$1;
#X obj 192 28 inlet;
#X obj 398 245 % \$3;
#X obj 666 293 f \$5;
#X msg 165 95 0 2 3 5 7 9 10;
#X connect 0 0 49 0;
#X connect 0 1 13 0;
#X connect 1 0 2 1;
#X connect 2 0 7 0;
#X connect 5 0 8 0;
#X connect 6 0 5 1;
#X connect 6 1 1 0;
#X connect 7 0 5 0;
#X connect 8 0 9 0;
#X connect 8 1 10 0;
#X connect 8 2 11 0;
#X connect 8 3 12 0;
#X connect 9 0 14 0;
#X connect 10 0 25 0;
#X connect 11 0 27 0;
#X connect 12 0 29 0;
#X connect 13 0 9 1;
#X connect 13 0 12 1;
#X connect 13 0 11 1;
#X connect 13 0 10 1;
#X connect 14 0 23 0;
#X connect 15 0 16 0;
#X connect 15 0 17 0;
#X connect 16 0 58 0;
#X connect 17 0 19 0;
#X connect 17 1 20 0;
#X connect 18 0 37 0;
#X connect 19 0 18 1;
#X connect 20 0 18 1;
#X connect 21 0 2 0;
#X connect 22 0 38 0;
#X connect 22 0 60 0;
#X connect 22 0 56 0;
#X connect 22 0 59 0;
#X connect 23 0 4 0;
#X connect 24 0 23 1;
#X connect 25 0 32 0;
#X connect 26 0 25 1;
#X connect 27 0 33 0;
#X connect 28 0 27 1;
#X connect 29 0 34 0;
#X connect 30 0 29 1;
#X connect 31 0 35 0;
#X connect 35 0 21 1;
#X connect 36 0 18 0;
#X connect 36 1 15 0;
#X connect 37 0 39 0;
#X connect 38 0 6 0;
#X connect 39 0 21 0;
#X connect 40 0 50 0;
#X connect 41 0 40 0;
#X connect 42 0 47 0;
#X connect 42 1 46 0;
#X connect 43 0 50 1;
#X connect 44 0 46 1;
#X connect 44 0 47 1;
#X connect 45 0 42 0;
#X connect 46 0 43 0;
#X connect 47 0 41 0;
#X connect 48 0 40 1;
#X connect 48 1 44 0;
#X connect 48 1 52 1;
#X connect 49 0 36 0;
#X connect 50 0 51 0;
#X connect 51 0 3 0;
#X connect 51 1 54 0;
#X connect 52 0 54 1;
#X connect 53 0 52 0;
#X connect 54 0 0 0;
#X connect 55 0 45 0;
#X connect 56 0 53 0;
#X connect 57 0 56 0;
#X connect 58 0 15 1;
#X connect 59 0 30 0;
#X connect 59 0 28 0;
#X connect 59 0 26 0;
#X connect 59 0 24 0;
#X connect 60 0 48 0;
