#N canvas 322 262 767 407 10;
#X obj 70 70 bng 15 250 50 0 empty empty trg 40 7 0 10 -262144 -191407
-1;
#X obj 97 174 + 1;
#X obj 125 174 % 2;
#X floatatom 70 197 5 0 0 0 - - -;
#X obj 70 12 inlet;
#X obj 196 12 inlet;
#X obj 349 159 list length;
#X floatatom 349 271 5 0 0 0 - - -;
#X obj 272 159 list append;
#X obj 196 229 list store;
#X msg 196 207 get \$1 1;
#X floatatom 196 186 5 0 0 0 - - -;
#X obj 196 134 t b a a, f 26;
#X msg 196 159 0;
#X msg 85 150 1;
#X obj 124 286 + 1;
#X obj 152 286 % 2;
#X floatatom 97 309 5 0 0 0 - - -;
#X obj 97 286 f;
#X obj 70 174 f;
#X obj 97 241 sel 0;
#X obj 131 12 inlet;
#X obj 70 219 t b f;
#X obj 70 241 f;
#X obj 70 342 t f f;
#X obj 97 367 outlet;
#X obj 70 89 nbx 3 14 -1e+37 1e+37 0 0 empty empty times 40 7 0 10
-1 -262144 -1 0 256;
#X obj 196 252 t f f;
#X obj 70 107 nbx 3 14 -1e+37 1e+37 0 0 empty empty tone 40 7 0 10
-262144 -1 -1 0 256;
#X obj 148 367 outlet;
#X obj 97 264 t b b;
#X connect 0 0 19 0;
#X connect 1 0 2 0;
#X connect 2 0 19 1;
#X connect 3 0 22 0;
#X connect 4 0 0 0;
#X connect 5 0 12 0;
#X connect 6 0 7 0;
#X connect 7 0 16 1;
#X connect 8 0 9 1;
#X connect 9 0 27 0;
#X connect 10 0 9 0;
#X connect 11 0 10 0;
#X connect 12 0 13 0;
#X connect 12 0 14 0;
#X connect 12 1 8 0;
#X connect 12 2 6 0;
#X connect 13 0 11 0;
#X connect 13 0 18 1;
#X connect 14 0 19 1;
#X connect 15 0 16 0;
#X connect 16 0 18 1;
#X connect 17 0 11 0;
#X connect 18 0 15 0;
#X connect 18 0 17 0;
#X connect 19 0 1 0;
#X connect 19 0 3 0;
#X connect 20 0 30 0;
#X connect 21 0 23 1;
#X connect 22 0 23 0;
#X connect 22 1 20 0;
#X connect 23 0 24 0;
#X connect 24 0 28 0;
#X connect 24 1 25 0;
#X connect 27 0 26 0;
#X connect 27 1 2 1;
#X connect 30 0 18 0;
#X connect 30 1 29 0;
#X coords 0 -1 1 1 85 85 1 62 45;
