#N canvas 474 194 539 521 10;
#X obj 66 13 inlet;
#X obj 66 196 spigot;
#X obj 99 177 tgl 15 0 empty empty empty 17 7 0 10 -262144 -1 -1 1
1;
#X obj 179 196 spigot;
#X obj 212 177 tgl 15 0 empty empty empty 17 7 0 10 -262144 -1 -1 0
1;
#X obj 292 196 spigot;
#X obj 324 177 tgl 15 0 empty empty empty 17 7 0 10 -262144 -1 -1 1
1;
#X obj 292 219 t f b, f 6;
#X obj 325 241 f 0;
#X obj 351 241 + 1;
#X obj 325 264 sel 0;
#X obj 405 225 i \$1;
#X obj 292 320 list append;
#X obj 235 388 list store;
#X obj 327 375 bng 15 250 50 0 empty empty empty 17 7 0 10 -262144
-1 -1;
#X obj 292 296 t f b, f 6;
#X obj 377 241 % 4;
#X obj 179 242 f 0;
#X obj 205 242 + 1;
#X obj 179 288 sel 0;
#X obj 246 220 i \$1;
#X obj 231 242 % 4;
#X obj 179 265 t f f, f 10;
#X msg 235 351 get \$1 1;
#X obj 179 312 f 0;
#X obj 205 312 + 1;
#X obj 231 312 % 2;
#X obj 246 290 i \$2;
#X obj 178 359 sel 1;
#X obj 254 13 inlet;
#X obj 66 473 outlet;
#X obj 235 430 spigot;
#X obj 359 417 tgl 15 0 empty empty empty 17 7 0 10 -262144 -1 -1 0
1;
#X obj 254 109 unpack 0 0 0 0, f 18;
#X msg 202 73 1 0 0 0;
#X msg 254 73 1 0 1 0;
#X obj 205 337 - 1;
#X obj 66 138 t f b f b, f 57;
#X obj 202 42 loadbang;
#X obj 235 471 outlet;
#X msg 308 73 1 1 0 1;
#X connect 0 0 37 0;
#X connect 1 0 30 0;
#X connect 2 0 1 1;
#X connect 3 0 17 0;
#X connect 4 0 3 1;
#X connect 5 0 7 0;
#X connect 6 0 5 1;
#X connect 7 0 15 0;
#X connect 7 1 8 0;
#X connect 8 0 9 0;
#X connect 8 0 10 0;
#X connect 9 0 16 0;
#X connect 10 0 40 0;
#X connect 11 0 16 1;
#X connect 12 0 13 1;
#X connect 13 0 12 1;
#X connect 13 0 31 0;
#X connect 14 0 13 1;
#X connect 15 0 12 0;
#X connect 15 1 13 0;
#X connect 16 0 8 1;
#X connect 17 0 18 0;
#X connect 17 0 22 0;
#X connect 18 0 21 0;
#X connect 19 0 24 0;
#X connect 20 0 21 1;
#X connect 21 0 17 1;
#X connect 22 0 19 0;
#X connect 22 1 23 0;
#X connect 23 0 13 0;
#X connect 24 0 25 0;
#X connect 24 0 28 0;
#X connect 25 0 26 0;
#X connect 26 0 24 1;
#X connect 27 0 26 1;
#X connect 27 0 36 0;
#X connect 28 0 34 0;
#X connect 28 0 14 0;
#X connect 29 0 35 0;
#X connect 31 0 39 0;
#X connect 32 0 31 1;
#X connect 33 0 2 0;
#X connect 33 1 4 0;
#X connect 33 2 6 0;
#X connect 33 3 32 0;
#X connect 34 0 33 0;
#X connect 35 0 33 0;
#X connect 36 0 28 1;
#X connect 37 0 1 0;
#X connect 37 1 3 0;
#X connect 37 2 5 0;
#X connect 37 3 11 0;
#X connect 37 3 20 0;
#X connect 37 3 27 0;
#X connect 38 0 34 0;
#X connect 40 0 33 0;
