#N canvas -34 226 808 445 10;
#X obj 166 263 t f f;
#X obj 209 263 != -1;
#X obj 166 286 spigot, f 8;
#X obj 103 328 outlet;
#X obj 166 328 outlet;
#X obj 103 143 f 0;
#X obj 129 143 + 1;
#X obj 155 143 % 4;
#X obj 103 21 inlet;
#X obj 103 72 t b;
#X obj 118 97 r sync;
#X msg 118 120 0;
#X obj 170 21 inlet;
#X obj 412 119 f \$1;
#X obj 412 142 clip 0 1;
#X obj 166 213 expr if(random(0 \, 100) < $f2 \, ($f1 + if($f1 == 0
|| $f1 == 4 || $f1 == 7 \, 7 \, 5) -14) % 12 \, -1), f 33;
#X obj 381 237 clip 0 99;
#X obj 381 214 f \$2;
#X obj 671 103 loadbang;
#X obj 456 255 t f f;
#X obj 499 255 != -1;
#X obj 456 278 spigot, f 8;
#X obj 456 328 outlet;
#X obj 671 229 clip 0 99;
#X obj 103 189 t f f f, f 21;
#X obj 671 206 f \$3;
#X obj 103 166 expr (round(cos($f1 * $f2) * random(1 \, 4) + 6)) %
12;
#X obj 456 205 expr if(random(0 \, 100) < $f2 \, ($f1 + if($f1 == 2
|| $f1 == 5 || $f1 == 9 \, 7 \, 5) +5) % 12 \, -1), f 33;
#X connect 0 0 2 0;
#X connect 0 1 1 0;
#X connect 1 0 2 1;
#X connect 2 0 4 0;
#X connect 5 0 6 0;
#X connect 5 0 26 0;
#X connect 6 0 7 0;
#X connect 7 0 5 1;
#X connect 8 0 9 0;
#X connect 9 0 5 0;
#X connect 10 0 11 0;
#X connect 11 0 5 1;
#X connect 12 0 7 1;
#X connect 13 0 14 0;
#X connect 14 0 26 1;
#X connect 15 0 0 0;
#X connect 16 0 15 1;
#X connect 17 0 16 0;
#X connect 18 0 17 0;
#X connect 18 0 13 0;
#X connect 18 0 25 0;
#X connect 19 0 21 0;
#X connect 19 1 20 0;
#X connect 20 0 21 1;
#X connect 21 0 22 0;
#X connect 23 0 27 1;
#X connect 24 0 3 0;
#X connect 24 1 15 0;
#X connect 24 2 27 0;
#X connect 25 0 23 0;
#X connect 26 0 24 0;
#X connect 27 0 19 0;
