#N canvas 70 169 505 430 10;
#X obj 104 31 inlet;
#X obj 104 79 clip 0 127;
#X obj 104 116 mtof;
#X obj 104 139 *;
#X obj 189 77 f \$1;
#X obj 189 100 + 1;
#X obj 208 198 / 100;
#X obj 189 123 t f b b;
#X msg 224 151 seed \$1;
#X obj 240 123 f 0, f 5;
#X obj 189 53 loadbang;
#X obj 104 192 osc~;
#X obj 105 223 *~;
#X obj 32 399 outlet~;
#X msg 125 167 0;
#X obj 240 99 t b f;
#X obj 208 175 random 50;
#X obj 240 77 random 9999;
#X obj 240 31 r new;
#X obj 31 80 clip 0 127;
#X obj 31 117 mtof;
#X obj 31 140 *;
#X obj 31 183 osc~;
#X obj 32 215 *~;
#X obj 32 238 -~;
#X obj 189 258 /;
#X msg 189 234 1 \$1;
#X floatatom 189 281 5 0 0 0 - - -;
#X obj 32 261 hip~ 25;
#X obj 32 284 hip~ 25;
#X obj 32 307 lop~ 5000;
#X obj 32 330 lop~ 5000;
#X obj 240 338 vline~;
#X obj 32 353 *~;
#X msg 240 315 0 0 \, 1 1000 0;
#X connect 0 0 1 0;
#X connect 0 0 19 0;
#X connect 1 0 2 0;
#X connect 2 0 3 0;
#X connect 3 0 11 0;
#X connect 4 0 5 0;
#X connect 4 0 21 1;
#X connect 5 0 7 0;
#X connect 6 0 12 1;
#X connect 6 0 23 1;
#X connect 7 0 26 0;
#X connect 7 1 16 0;
#X connect 7 2 9 0;
#X connect 8 0 16 0;
#X connect 9 0 8 0;
#X connect 10 0 4 0;
#X connect 10 0 14 0;
#X connect 11 0 12 0;
#X connect 12 0 24 1;
#X connect 14 0 11 1;
#X connect 14 0 22 1;
#X connect 15 0 4 0;
#X connect 15 0 34 0;
#X connect 15 1 9 1;
#X connect 16 0 6 0;
#X connect 17 0 15 0;
#X connect 18 0 17 0;
#X connect 19 0 20 0;
#X connect 20 0 21 0;
#X connect 21 0 22 0;
#X connect 22 0 23 0;
#X connect 23 0 24 0;
#X connect 24 0 28 0;
#X connect 25 0 27 0;
#X connect 25 0 3 1;
#X connect 26 0 25 0;
#X connect 28 0 29 0;
#X connect 29 0 30 0;
#X connect 30 0 31 0;
#X connect 31 0 33 0;
#X connect 32 0 33 1;
#X connect 33 0 13 0;
#X connect 34 0 32 0;
