#N canvas 76 253 705 403 10;
#X obj 40 180 expr ($f1 - $f2) / ($f3 - $f2) * ($f5 - $f4) + $f4;
#X obj 40 23 inlet;
#X obj 40 254 outlet;
#X obj 114 145 f \$1;
#X obj 188 145 f \$2;
#X obj 262 145 f \$3;
#X obj 337 145 f \$4;
#X obj 283 23 inlet;
#X obj 358 23 inlet;
#X obj 40 69 t f b;
#X obj 40 203 t f f;
#X obj 250 219 expr round($f1);
#X obj 250 254 outlet;
#X connect 0 0 10 0;
#X connect 1 0 9 0;
#X connect 3 0 0 1;
#X connect 4 0 0 2;
#X connect 5 0 0 3;
#X connect 6 0 0 4;
#X connect 7 0 5 1;
#X connect 8 0 6 1;
#X connect 9 0 0 0;
#X connect 9 1 3 0;
#X connect 9 1 6 0;
#X connect 9 1 5 0;
#X connect 9 1 4 0;
#X connect 10 0 2 0;
#X connect 10 1 11 0;
#X connect 11 0 12 0;
