#N canvas 0 116 1366 652 10;
#X floatatom 91 137 3 0 0 0 - - -;
#X obj 48 5 inlet;
#X obj 52 231 i;
#X floatatom 184 154 5 0 0 0 - - -;
#X obj 169 229 i;
#X obj 52 137 bng 15 250 50 0 empty empty trg 17 7 0 10 -262144 -1
-1;
#X floatatom 52 259 5 0 0 0 - - -;
#X floatatom 79 356 5 0 0 0 - - -;
#X floatatom 79 401 5 0 0 0 - - -;
#X floatatom 79 446 5 0 0 0 - - -;
#X floatatom 169 253 5 0 0 0 - - -;
#X floatatom 169 333 5 0 0 0 - - -;
#X floatatom 322 346 5 0 0 0 - - -;
#X obj 369 528 i;
#X obj 369 479 bng 15 250 50 0 empty empty empty 17 7 0 10 -262144
-1 -1;
#X obj 169 280 expr $f1 \; if($f1!=$f2&&$f1!=$f2-12&&$f1!=$f2+12 \,
$f1-$f2 \, 0), f 26;
#X obj 369 499 del 100;
#X obj 322 392 expr $f1 \; if($f1>0 \, 1 \, 0);
#X floatatom 409 430 5 0 0 0 - - -;
#X obj 320 454 sel 0 1, f 17;
#X obj 320 529 i;
#X obj 320 479 bng 15 250 50 0 empty empty empty 17 7 0 10 -262144
-1 -1;
#X obj 320 500 del 100;
#X obj 322 368 spigot;
#X obj 369 322 sel 0;
#X obj 369 369 tgl 15 0 empty empty empty 17 7 0 10 -262144 -1 -1 0
1;
#X obj 320 578 spigot;
#X msg 369 345 0;
#X obj 79 333 + 4;
#X obj 79 378 + 3;
#X obj 79 423 + 4;
#X floatatom 447 154 5 0 0 0 - - -;
#X obj 432 227 i;
#X floatatom 432 251 5 0 0 0 - - -;
#X floatatom 432 331 5 0 0 0 - - -;
#X floatatom 585 344 5 0 0 0 - - -;
#X obj 632 526 i;
#X obj 632 477 bng 15 250 50 0 empty empty empty 17 7 0 10 -262144
-1 -1;
#X obj 432 278 expr $f1 \; if($f1!=$f2&&$f1!=$f2-12&&$f1!=$f2+12 \,
$f1-$f2 \, 0), f 26;
#X obj 632 497 del 100;
#X obj 585 390 expr $f1 \; if($f1>0 \, 1 \, 0);
#X floatatom 672 426 5 0 0 0 - - -;
#X obj 583 452 sel 0 1, f 17;
#X obj 583 527 i;
#X obj 583 477 bng 15 250 50 0 empty empty empty 17 7 0 10 -262144
-1 -1;
#X obj 583 498 del 100;
#X obj 585 366 spigot;
#X obj 632 320 sel 0;
#X obj 632 367 tgl 15 0 empty empty empty 17 7 0 10 -262144 -1 -1 1
1;
#X obj 583 576 spigot;
#X msg 632 343 0;
#X floatatom 724 154 5 0 0 0 - - -;
#X obj 709 229 i;
#X floatatom 709 253 5 0 0 0 - - -;
#X floatatom 709 333 5 0 0 0 - - -;
#X floatatom 862 346 5 0 0 0 - - -;
#X obj 909 528 i;
#X obj 909 479 bng 15 250 50 0 empty empty empty 17 7 0 10 -262144
-1 -1;
#X obj 709 280 expr $f1 \; if($f1!=$f2&&$f1!=$f2-12&&$f1!=$f2+12 \,
$f1-$f2 \, 0), f 26;
#X obj 909 499 del 100;
#X obj 862 392 expr $f1 \; if($f1>0 \, 1 \, 0);
#X floatatom 949 428 5 0 0 0 - - -;
#X obj 860 454 sel 0 1, f 17;
#X obj 860 529 i;
#X obj 860 479 bng 15 250 50 0 empty empty empty 17 7 0 10 -262144
-1 -1;
#X obj 860 500 del 100;
#X obj 862 368 spigot;
#X obj 909 322 sel 0;
#X obj 909 369 tgl 15 0 empty empty empty 17 7 0 10 -262144 -1 -1 1
1;
#X obj 860 578 spigot;
#X msg 909 345 0;
#X obj 52 184 t b b b b, f 46;
#X floatatom 52 602 5 0 0 0 - - -;
#X obj 52 624 outlet;
#X obj 307 624 outlet;
#X obj 184 131 +;
#X obj 447 131 +;
#X obj 724 131 +;
#X obj 184 57 t b b b, f 89;
#X obj 48 28 t f b;
#X obj 117 137 bng 15 250 50 0 empty empty rnd 17 7 0 10 -262144 -1
-1;
#X obj 147 5 inlet;
#X obj 98 5 inlet;
#X obj 307 600 i;
#X obj 568 624 outlet;
#X obj 568 600 i;
#X obj 845 626 outlet;
#X obj 845 602 i;
#X msg 102 44 1;
#X obj 184 108 random 30;
#X obj 447 108 random 35;
#X obj 724 108 random 40;
#X obj 320 551 + 1;
#X obj 369 550 - 1;
#X obj 583 549 + 1;
#X obj 632 548 - 1;
#X obj 860 551 + 1;
#X obj 909 550 - 1;
#X obj 200 86 - 20;
#X obj 463 86 - 20;
#X obj 740 86 - 20;
#X connect 0 0 2 1;
#X connect 0 0 98 0;
#X connect 0 0 99 0;
#X connect 0 0 100 0;
#X connect 1 0 79 0;
#X connect 2 0 6 0;
#X connect 3 0 4 1;
#X connect 4 0 10 0;
#X connect 5 0 71 0;
#X connect 6 0 28 0;
#X connect 6 0 72 0;
#X connect 7 0 15 1;
#X connect 7 0 29 0;
#X connect 8 0 30 0;
#X connect 8 0 38 1;
#X connect 9 0 58 1;
#X connect 10 0 15 0;
#X connect 11 0 13 1;
#X connect 11 0 20 1;
#X connect 12 0 23 0;
#X connect 13 0 93 0;
#X connect 14 0 16 0;
#X connect 15 0 11 0;
#X connect 15 1 12 0;
#X connect 15 1 24 0;
#X connect 16 0 13 0;
#X connect 17 1 18 0;
#X connect 18 0 19 0;
#X connect 19 0 21 0;
#X connect 19 1 14 0;
#X connect 20 0 92 0;
#X connect 21 0 22 0;
#X connect 22 0 20 0;
#X connect 23 0 17 0;
#X connect 24 0 27 0;
#X connect 25 0 23 1;
#X connect 25 0 26 1;
#X connect 26 0 4 1;
#X connect 26 0 83 1;
#X connect 27 0 25 0;
#X connect 28 0 7 0;
#X connect 29 0 8 0;
#X connect 30 0 9 0;
#X connect 31 0 32 1;
#X connect 32 0 33 0;
#X connect 33 0 38 0;
#X connect 34 0 36 1;
#X connect 34 0 43 1;
#X connect 35 0 46 0;
#X connect 36 0 95 0;
#X connect 37 0 39 0;
#X connect 38 0 34 0;
#X connect 38 1 35 0;
#X connect 38 1 47 0;
#X connect 39 0 36 0;
#X connect 40 1 41 0;
#X connect 41 0 42 0;
#X connect 42 0 44 0;
#X connect 42 1 37 0;
#X connect 43 0 94 0;
#X connect 44 0 45 0;
#X connect 45 0 43 0;
#X connect 46 0 40 0;
#X connect 47 0 50 0;
#X connect 48 0 46 1;
#X connect 48 0 49 1;
#X connect 49 0 32 1;
#X connect 49 0 85 1;
#X connect 50 0 48 0;
#X connect 51 0 52 1;
#X connect 52 0 53 0;
#X connect 53 0 58 0;
#X connect 54 0 56 1;
#X connect 54 0 63 1;
#X connect 55 0 66 0;
#X connect 56 0 97 0;
#X connect 57 0 59 0;
#X connect 58 0 54 0;
#X connect 58 1 55 0;
#X connect 58 1 67 0;
#X connect 59 0 56 0;
#X connect 60 1 61 0;
#X connect 61 0 62 0;
#X connect 62 0 64 0;
#X connect 62 1 57 0;
#X connect 63 0 96 0;
#X connect 64 0 65 0;
#X connect 65 0 63 0;
#X connect 66 0 60 0;
#X connect 67 0 70 0;
#X connect 68 0 66 1;
#X connect 68 0 69 1;
#X connect 69 0 52 1;
#X connect 69 0 87 1;
#X connect 70 0 68 0;
#X connect 71 0 2 0;
#X connect 71 0 83 0;
#X connect 71 0 85 0;
#X connect 71 0 87 0;
#X connect 71 1 4 0;
#X connect 71 2 32 0;
#X connect 71 3 52 0;
#X connect 72 0 73 0;
#X connect 75 0 3 0;
#X connect 76 0 31 0;
#X connect 77 0 51 0;
#X connect 78 0 89 0;
#X connect 78 1 90 0;
#X connect 78 2 91 0;
#X connect 79 0 0 0;
#X connect 79 1 88 0;
#X connect 80 0 78 0;
#X connect 80 0 88 0;
#X connect 81 0 80 0;
#X connect 82 0 5 0;
#X connect 83 0 74 0;
#X connect 85 0 84 0;
#X connect 87 0 86 0;
#X connect 88 0 25 0;
#X connect 88 0 48 0;
#X connect 88 0 68 0;
#X connect 89 0 75 0;
#X connect 90 0 76 0;
#X connect 91 0 77 0;
#X connect 92 0 26 0;
#X connect 93 0 26 0;
#X connect 94 0 49 0;
#X connect 95 0 49 0;
#X connect 96 0 69 0;
#X connect 97 0 69 0;
#X connect 98 0 75 1;
#X connect 99 0 76 1;
#X connect 100 0 77 1;
#X coords 0 -1 1 1 115 60 1 45 100;
