#N canvas 329 232 750 509 10;
#X obj 38 70 i 0;
#X floatatom 38 333 5 0 0 0 - - -;
#X obj 57 118 sel -3 -2 -1 0 1 2 3 4, f 52;
#X obj 172 194 random 4;
#X obj 172 217 sel 0 1 2 3, f 22;
#X msg 172 240 -3;
#X msg 204 240 -1;
#X msg 236 240 2;
#X msg 268 240 4;
#X msg 211 142 4;
#X obj 250 142 random 2;
#X obj 250 164 sel 0 1, f 12;
#X msg 250 187 0;
#X msg 282 187 4;
#X msg 311 142 0;
#X obj 327 197 random 2;
#X obj 327 219 sel 0 1, f 12;
#X msg 327 242 0;
#X msg 359 242 2;
#X msg 134 142 0;
#X msg 95 142 -3;
#X msg 57 142 0;
#X obj 212 344 s g;
#X obj 67 70 r g;
#X obj 38 93 t f f f;
#X obj 452 109 sel 0;
#X obj 38 355 t f f;
#X obj 38 447 outlet;
#X obj 437 387 + 0;
#X msg 452 238 4;
#X msg 482 238 2;
#X msg 513 238 -2;
#X msg 544 238 -4;
#X obj 38 15 inlet;
#X obj 38 45 t b;
#X obj 452 215 sel 0 1 2 3, f 21;
#X obj 452 132 random 5;
#X obj 212 322 t f b;
#X obj 239 344 random 2;
#X obj 206 371 spigot;
#X msg 575 238 5;
#X obj 481 447 outlet;
#X obj 482 167 t b;
#X obj 452 15 inlet;
#X obj 452 54 % 7;
#X obj 452 77 - 3;
#X obj 437 447 outlet;
#X floatatom 212 300 5 0 0 0 - - -;
#X msg 366 142 1;
#X obj 593 15 inlet;
#X msg 239 31 seed \$1;
#X connect 0 0 24 0;
#X connect 1 0 26 0;
#X connect 2 0 21 0;
#X connect 2 1 20 0;
#X connect 2 2 19 0;
#X connect 2 3 3 0;
#X connect 2 4 9 0;
#X connect 2 5 10 0;
#X connect 2 6 14 0;
#X connect 2 7 15 0;
#X connect 2 8 48 0;
#X connect 3 0 4 0;
#X connect 4 0 5 0;
#X connect 4 1 6 0;
#X connect 4 2 7 0;
#X connect 4 3 8 0;
#X connect 5 0 47 0;
#X connect 6 0 47 0;
#X connect 7 0 47 0;
#X connect 8 0 47 0;
#X connect 9 0 47 0;
#X connect 10 0 11 0;
#X connect 11 0 12 0;
#X connect 11 1 13 0;
#X connect 12 0 47 0;
#X connect 13 0 47 0;
#X connect 14 0 47 0;
#X connect 15 0 16 0;
#X connect 16 0 17 0;
#X connect 16 1 18 0;
#X connect 17 0 47 0;
#X connect 18 0 47 0;
#X connect 19 0 47 0;
#X connect 20 0 47 0;
#X connect 21 0 47 0;
#X connect 23 0 0 1;
#X connect 24 0 1 0;
#X connect 24 1 2 0;
#X connect 24 2 25 0;
#X connect 25 0 36 0;
#X connect 26 0 27 0;
#X connect 26 1 39 0;
#X connect 28 0 46 0;
#X connect 29 0 28 1;
#X connect 30 0 28 1;
#X connect 31 0 28 1;
#X connect 32 0 28 1;
#X connect 33 0 34 0;
#X connect 34 0 0 0;
#X connect 35 0 29 0;
#X connect 35 1 30 0;
#X connect 35 2 31 0;
#X connect 35 3 32 0;
#X connect 35 4 40 0;
#X connect 36 0 35 0;
#X connect 36 0 42 0;
#X connect 37 0 22 0;
#X connect 37 1 38 0;
#X connect 38 0 39 1;
#X connect 39 0 28 0;
#X connect 40 0 28 1;
#X connect 42 0 41 0;
#X connect 43 0 44 0;
#X connect 44 0 45 0;
#X connect 45 0 24 0;
#X connect 47 0 37 0;
#X connect 48 0 47 0;
#X connect 49 0 50 0;
#X connect 50 0 10 0;
#X connect 50 0 36 0;
#X connect 50 0 3 0;
#X connect 50 0 15 0;
#X connect 50 0 38 0;
