#N canvas 639 171 671 553 10;
#X obj 152 35 bng 15 250 50 0 empty empty empty 17 7 0 10 -262144 -1
-1;
#X floatatom 168 75 5 0 0 0 - - -;
#X floatatom 454 31 5 0 0 0 - - -;
#X obj 152 262 i;
#X obj 152 305 mtof;
#X obj 152 328 osc~;
#X obj 152 351 expr~ $v1>$f2;
#X obj 152 374 *~;
#X obj 152 420 *~;
#X obj 152 397 bp~ 100 10;
#X floatatom 227 329 5 0 0 0 - - -;
#X obj 227 175 / 100;
#X obj 227 152 random 80;
#X obj 227 198 + 0.1;
#X obj 152 128 t b b b b b, f 51;
#X msg 304 336 1 10 \, 0 \$1 10;
#X obj 304 359 vline~;
#X obj 379 152 random 60;
#X obj 379 174 * 1000;
#X obj 379 196 * 1;
#X obj 454 73 i;
#X floatatom 379 218 5 0 0 0 - - -;
#X obj 455 151 random 180;
#X floatatom 455 223 5 0 0 0 - - -;
#X obj 379 238 /;
#X floatatom 379 275 5 0 0 0 - - -;
#X obj 319 290 - 50;
#X obj 152 152 tgl 15 0 empty empty empty 17 7 0 10 -262144 -1 -1 0
1;
#X obj 152 172 metro 1000;
#X obj 152 195 f;
#X obj 194 195 + 1;
#X floatatom 152 217 5 0 0 0 - - -;
#X obj 85 237 sel 0;
#X msg 85 260 0;
#X obj 152 240 t b b;
#X obj 458 299 / 2;
#X msg 458 380 1 \$1 \, 0 \$1 \$1;
#X obj 458 403 vline~;
#X msg 458 359 \$1;
#X obj 304 314 f;
#X obj 303 152 random 10;
#X obj 303 175 * 100;
#X obj 152 10 inlet;
#X obj 91 507 outlet~;
#X obj 408 10 r tone;
#X obj 454 10 r dur;
#X obj 212 504 outlet~;
#X obj 92 481 *~;
#X obj 227 430 f;
#X obj 227 453 expr 1-$f1;
#X obj 212 478 *~;
#X obj 220 72 i;
#X obj 248 71 i;
#X obj 281 71 i;
#X obj 281 94 + 12;
#X obj 408 32 del 20;
#X obj 408 55 bng 15 250 50 0 empty empty empty 17 7 0 10 -262144 -1
-1;
#X obj 240 10 random 5;
#X obj 240 33 sel 0 1 2 3 4;
#X obj 248 94 - 12;
#X obj 313 70 i;
#X obj 345 69 i;
#X obj 313 93 - 24;
#X obj 345 92 + 24;
#X connect 0 0 14 0;
#X connect 1 0 3 1;
#X connect 2 0 20 0;
#X connect 3 0 4 0;
#X connect 4 0 5 0;
#X connect 5 0 6 0;
#X connect 6 0 7 0;
#X connect 7 0 9 0;
#X connect 8 0 47 0;
#X connect 8 0 50 0;
#X connect 9 0 8 0;
#X connect 10 0 6 1;
#X connect 10 0 48 0;
#X connect 11 0 13 0;
#X connect 12 0 11 0;
#X connect 13 0 10 0;
#X connect 14 0 27 0;
#X connect 14 1 12 0;
#X connect 14 2 40 0;
#X connect 14 3 17 0;
#X connect 14 4 22 0;
#X connect 15 0 16 0;
#X connect 16 0 7 1;
#X connect 17 0 18 0;
#X connect 18 0 19 0;
#X connect 19 0 21 0;
#X connect 20 0 19 1;
#X connect 21 0 24 0;
#X connect 21 0 35 0;
#X connect 22 0 23 0;
#X connect 23 0 24 1;
#X connect 23 0 32 1;
#X connect 24 0 25 0;
#X connect 25 0 26 0;
#X connect 25 0 28 1;
#X connect 26 0 39 1;
#X connect 27 0 28 0;
#X connect 28 0 29 0;
#X connect 29 0 30 0;
#X connect 29 0 31 0;
#X connect 30 0 29 1;
#X connect 31 0 32 0;
#X connect 31 0 34 0;
#X connect 32 0 33 0;
#X connect 33 0 27 0;
#X connect 33 0 29 0;
#X connect 34 0 3 0;
#X connect 34 1 39 0;
#X connect 35 0 38 0;
#X connect 36 0 37 0;
#X connect 37 0 8 1;
#X connect 38 0 36 0;
#X connect 39 0 15 0;
#X connect 40 0 41 0;
#X connect 41 0 9 1;
#X connect 42 0 0 0;
#X connect 44 0 51 1;
#X connect 44 0 52 1;
#X connect 44 0 53 1;
#X connect 44 0 55 0;
#X connect 44 0 60 1;
#X connect 44 0 61 1;
#X connect 45 0 2 0;
#X connect 47 0 43 0;
#X connect 48 0 47 1;
#X connect 48 0 49 0;
#X connect 49 0 50 1;
#X connect 50 0 46 0;
#X connect 51 0 1 0;
#X connect 52 0 59 0;
#X connect 53 0 54 0;
#X connect 54 0 1 0;
#X connect 55 0 56 0;
#X connect 56 0 57 0;
#X connect 57 0 58 0;
#X connect 58 0 51 0;
#X connect 58 1 52 0;
#X connect 58 2 53 0;
#X connect 58 3 60 0;
#X connect 58 4 61 0;
#X connect 59 0 1 0;
#X connect 60 0 62 0;
#X connect 61 0 63 0;
#X connect 62 0 1 0;
#X connect 63 0 1 0;
