#N canvas 548 182 528 537 10;
#X obj 142 15 inlet;
#X obj 142 208 t b f;
#X obj 100 247 f;
#X obj 100 15 inlet;
#X obj 100 108 bng 15 250 50 0 empty empty trg 17 7 0 10 -262144 -228856
-1;
#X obj 100 270 t f f;
#X obj 127 294 * 1.618;
#X obj 127 317 t f f;
#X obj 154 339 * 1.618;
#X obj 142 38 clip 0 127;
#X obj 100 468 outlet;
#X obj 127 495 outlet;
#X obj 154 468 outlet;
#X obj 100 127 vradio 15 1 0 3 empty empty empty 0 -8 0 10 -262144
-1 -1 0;
#X obj 248 170 sel 0 1 2;
#X msg 248 193 1.618;
#X msg 266 216 2.4142;
#X msg 283 240 3.3027;
#X text 117 124 golden;
#X text 117 139 silver;
#X text 117 154 bronze;
#X obj 169 231 mtof;
#X obj 100 338 ftom;
#X obj 127 359 ftom;
#X obj 127 382 % 1200;
#X obj 154 402 ftom;
#X obj 154 423 % 1200;
#X obj 189 15 inlet;
#X connect 0 0 9 0;
#X connect 1 1 21 0;
#X connect 2 0 5 0;
#X connect 3 0 4 0;
#X connect 4 0 2 0;
#X connect 5 0 22 0;
#X connect 5 1 6 0;
#X connect 6 0 7 0;
#X connect 7 0 23 0;
#X connect 7 1 8 0;
#X connect 8 0 25 0;
#X connect 9 0 1 0;
#X connect 13 0 14 0;
#X connect 14 0 15 0;
#X connect 14 1 16 0;
#X connect 14 2 17 0;
#X connect 15 0 6 1;
#X connect 15 0 8 1;
#X connect 16 0 6 1;
#X connect 16 0 8 1;
#X connect 17 0 6 1;
#X connect 17 0 8 1;
#X connect 21 0 2 1;
#X connect 22 0 10 0;
#X connect 23 0 24 0;
#X connect 24 0 11 0;
#X connect 25 0 26 0;
#X connect 26 0 12 0;
#X connect 27 0 13 0;
#X coords 0 -1 1 1 75 100 1 90 80;
