#N canvas 552 233 670 465 10;
#X obj 49 38 inlet;
#X obj 49 78 t b b b, f 33;
#X obj 146 121 random 2;
#X obj 49 112 random 2;
#X obj 49 137 pack 0 0;
#X obj 49 160 route 0 1, f 16;
#X obj 49 183 t b f;
#X obj 49 232 +;
#X obj 49 208 i 0;
#X obj 95 183 t b f;
#X obj 95 208 i 0;
#X obj 95 232 -;
#X obj 244 114 f 0;
#X obj 244 137 + 1;
#X obj 244 160 % 4, f 5;
#X obj 244 183 sel 0;
#X obj 244 206 f 0, f 13;
#X msg 244 229 seed \$1;
#X obj 191 38 inlet;
#X obj 271 38 inlet;
#X obj 101 38 inlet;
#X obj 142 38 inlet;
#X obj 49 419 outlet;
#X obj 319 38 inlet;
#X obj 49 288 expr if($f1<$f2||$f1>$f3 \, ($f2+$f3)/2 \, $f1);
#X obj 49 334 t f f;
#X obj 49 311 i;
#X connect 0 0 1 0;
#X connect 1 0 3 0;
#X connect 1 1 2 0;
#X connect 1 2 12 0;
#X connect 2 0 4 1;
#X connect 3 0 4 0;
#X connect 4 0 5 0;
#X connect 5 0 6 0;
#X connect 5 1 9 0;
#X connect 6 0 8 0;
#X connect 6 1 7 1;
#X connect 7 0 24 0;
#X connect 8 0 7 0;
#X connect 9 0 10 0;
#X connect 9 1 11 1;
#X connect 10 0 11 0;
#X connect 11 0 24 0;
#X connect 12 0 13 0;
#X connect 13 0 14 0;
#X connect 14 0 15 0;
#X connect 14 0 12 1;
#X connect 15 0 16 0;
#X connect 16 0 17 0;
#X connect 17 0 3 0;
#X connect 17 0 2 0;
#X connect 18 0 2 1;
#X connect 19 0 14 1;
#X connect 20 0 24 1;
#X connect 21 0 24 2;
#X connect 23 0 16 1;
#X connect 24 0 26 0;
#X connect 25 0 22 0;
#X connect 25 1 8 1;
#X connect 25 1 10 1;
#X connect 26 0 25 0;
