#N canvas 27 116 733 652 10;
#X obj 48 30 inlet;
#X obj 48 575 outlet;
#X obj 155 116 pipe 100;
#X floatatom 76 155 5 0 0 0 - - -;
#X obj 76 178 pack 0 0, f 14;
#X obj 76 201 route 0 1, f 74;
#X obj 76 227 sel 0 1 2 3 4 5 6, f 32;
#X obj 296 227 sel 0 1 2 3 4 5 6, f 40;
#X obj 114 470 t b f;
#X obj 114 493 i 0;
#X obj 114 516 + 0, f 5;
#X obj 48 70 t f f f, f 10;
#X obj 114 400 t f f, f 6;
#X obj 114 447 spigot;
#X obj 147 423 > 0;
#X obj 331 400 t f f, f 6;
#X obj 331 447 spigot;
#X obj 364 423 > 0;
#X obj 549 400 t f f, f 6;
#X obj 549 447 spigot;
#X obj 582 423 > 0;
#X obj 331 470 t b f;
#X obj 331 493 i 0;
#X obj 331 516 + 0, f 5;
#X obj 549 470 t b f;
#X obj 549 493 i 0;
#X obj 549 516 + 0, f 5;
#X obj 114 575 outlet;
#X obj 331 575 outlet;
#X obj 549 575 outlet;
#X msg 114 359 7;
#X msg 331 359 4;
#X msg 153 359 9;
#X msg 398 359 5;
#X msg 549 359 4;
#X obj 76 100 % 7;
#X msg 297 359 7;
#X msg 513 359 2;
#X obj 76 132 < 0;
#X msg 191 359 8;
#X msg 365 359 3;
#X msg 584 359 3;
#X connect 0 0 11 0;
#X connect 2 0 38 1;
#X connect 3 0 4 0;
#X connect 4 0 5 0;
#X connect 5 0 6 0;
#X connect 5 1 7 0;
#X connect 6 0 30 0;
#X connect 6 0 31 0;
#X connect 6 1 32 0;
#X connect 6 1 33 0;
#X connect 6 1 41 0;
#X connect 6 2 32 0;
#X connect 6 2 40 0;
#X connect 6 3 32 0;
#X connect 6 3 36 0;
#X connect 6 3 34 0;
#X connect 6 4 30 0;
#X connect 6 4 31 0;
#X connect 6 5 32 0;
#X connect 6 5 40 0;
#X connect 6 6 32 0;
#X connect 6 6 36 0;
#X connect 6 6 41 0;
#X connect 7 0 30 0;
#X connect 7 0 31 0;
#X connect 7 1 32 0;
#X connect 7 1 33 0;
#X connect 7 1 41 0;
#X connect 7 2 32 0;
#X connect 7 2 40 0;
#X connect 7 3 32 0;
#X connect 7 3 36 0;
#X connect 7 3 37 0;
#X connect 7 4 30 0;
#X connect 7 4 31 0;
#X connect 7 5 39 0;
#X connect 7 5 33 0;
#X connect 7 5 41 0;
#X connect 7 6 32 0;
#X connect 7 6 40 0;
#X connect 8 0 9 0;
#X connect 8 1 10 1;
#X connect 9 0 10 0;
#X connect 10 0 27 0;
#X connect 11 0 1 0;
#X connect 11 1 35 0;
#X connect 11 2 9 1;
#X connect 11 2 22 1;
#X connect 11 2 25 1;
#X connect 12 0 13 0;
#X connect 12 1 14 0;
#X connect 13 0 8 0;
#X connect 14 0 13 1;
#X connect 15 0 16 0;
#X connect 15 1 17 0;
#X connect 16 0 21 0;
#X connect 17 0 16 1;
#X connect 18 0 19 0;
#X connect 18 1 20 0;
#X connect 19 0 24 0;
#X connect 20 0 19 1;
#X connect 21 0 22 0;
#X connect 21 1 23 1;
#X connect 22 0 23 0;
#X connect 23 0 28 0;
#X connect 24 0 25 0;
#X connect 24 1 26 1;
#X connect 25 0 26 0;
#X connect 26 0 29 0;
#X connect 30 0 12 0;
#X connect 31 0 15 0;
#X connect 32 0 12 0;
#X connect 33 0 15 0;
#X connect 34 0 18 0;
#X connect 35 0 2 0;
#X connect 35 0 4 1;
#X connect 35 0 38 0;
#X connect 36 0 15 0;
#X connect 37 0 18 0;
#X connect 38 0 3 0;
#X connect 39 0 12 0;
#X connect 40 0 15 0;
#X connect 41 0 18 0;
