#N canvas 734 228 528 478 10;
#X obj 69 219 f;
#X obj 69 265 + 60;
#X obj 98 219 + 2;
#X obj 128 219 % 12;
#X obj 69 242 + 0;
#X floatatom 169 227 5 0 0 0 - - -;
#X msg 84 195 0;
#X floatatom 202 250 5 0 0 0 - - -;
#X obj 69 69 bng 15 250 50 0 empty empty empty 17 7 0 10 -262144 -1
-1;
#X obj 165 69 bng 15 250 50 0 empty empty reset -32 7 0 10 -262144
-1 -1;
#X obj 69 89 nbx 1 14 2 6 0 0 empty empty notes_for_group 22 7 0 10
-1 -262144 -1 3 256;
#X obj 69 123 nbx 2 14 12 48 0 0 empty empty scale_width 32 7 0 10
-191407 -1 -1 20 256;
#X obj 69 106 nbx 1 14 1 4 0 0 empty empty start_octave 22 7 0 10 -191407
-1 -1 2 256;
#X obj 202 170 sel 1 2 3 4, f 23;
#X msg 202 193 36;
#X msg 235 193 48;
#X msg 269 193 60;
#X msg 303 193 72;
#X obj 69 140 nbx 1 14 0 1 0 0 empty empty transpose 22 7 0 10 -262144
-1 -1 1 256;
#X obj 69 342 outlet;
#X obj 69 3 inlet;
#X connect 0 0 2 0;
#X connect 0 0 4 0;
#X connect 1 0 19 0;
#X connect 2 0 3 0;
#X connect 3 0 0 1;
#X connect 4 0 1 0;
#X connect 5 0 4 1;
#X connect 6 0 0 1;
#X connect 7 0 1 1;
#X connect 8 0 0 0;
#X connect 9 0 6 0;
#X connect 10 0 2 1;
#X connect 11 0 3 1;
#X connect 12 0 13 0;
#X connect 13 0 14 0;
#X connect 13 1 15 0;
#X connect 13 2 16 0;
#X connect 13 3 17 0;
#X connect 14 0 7 0;
#X connect 15 0 7 0;
#X connect 16 0 7 0;
#X connect 17 0 7 0;
#X connect 18 0 5 0;
#X connect 20 0 8 0;
#X coords 0 -1 1 1 130 125 1 60 40;
