#N canvas 541 141 819 621 10;
#X floatatom 69 43 2 40 80 1 tone - -;
#X floatatom 69 64 2 1 20 1 qta - -;
#X obj 69 222 metro 500;
#X obj 69 245 f;
#X obj 105 245 + 1;
#X obj 69 268 mod 1;
#X msg 39 291 0;
#X obj 96 315 bng 15 250 50 0 empty empty empty 17 7 0 10 -262144 -1
-1;
#N canvas 0 50 450 250 (subpatch) 0;
#X array \$0-rand 6 float 3;
#A 0 64 54 48 69 31 61;
#X coords 0 128 6 -1 50 35 1 0 0;
#X restore 126 43 graph;
#X floatatom 151 335 5 0 0 0 - - -;
#X obj 96 335 i 60;
#X obj 124 268 - 1;
#X floatatom 124 291 5 0 0 0 - - -;
#X obj 69 291 sel 4;
#X obj 69 197 t b f f f, f 14;
#X obj 69 110 bng 15 250 50 0 empty empty rnd 17 8 0 10 -1 -262144
-1;
#X obj 326 99 random 100;
#X obj 326 76 t b b b, f 27;
#X floatatom 326 122 5 0 0 0 - - -;
#X obj 405 128 f 1;
#X floatatom 371 51 5 0 0 1 - - -;
#X obj 326 144 mod 1;
#X floatatom 326 167 5 0 0 0 - - -;
#X obj 326 210 +;
#X floatatom 326 255 5 0 0 0 - - -;
#X obj 383 194 -;
#X obj 371 144 / 2;
#X floatatom 381 255 5 0 0 0 - - -;
#X obj 326 233 i;
#X obj 485 101 random 10;
#X floatatom 485 124 5 0 0 0 - - -;
#X obj 69 92 bng 15 250 50 0 empty empty trg 17 8 0 10 -262144 -1 -1
;
#X obj 250 278 f;
#X obj 281 278 + 1;
#X obj 250 301 mod 1;
#X floatatom 250 324 5 0 0 0 - - -;
#X floatatom 250 388 5 0 0 0 - - -;
#X obj 381 362 sel 0;
#X obj 381 339 mod 1;
#X floatatom 408 318 5 0 0 0 - - -;
#X obj 129 90 hsl 35 15 0 80 0 0 empty empty wd 40 8 0 10 -262144 -1
-1 3100 1;
#X obj 371 29 i;
#X obj 326 317 i;
#X obj 129 110 hsl 35 15 1 40 0 0 empty empty -f 40 8 0 10 -262144
-1 -1 3400 1;
#X obj 250 470 outlet;
#X obj 318 433 / 100;
#X obj 318 470 outlet;
#X obj 10 10 inlet;
#X obj 150 244 array size \$0-rand;
#X obj 96 359 array set \$0-rand;
#X obj 250 358 array get \$0-rand;
#X obj 326 277 array set \$0-rand;
#X obj 150 223 - 1;
#X obj 371 167 t b f;
#X obj 406 434 mod 12;
#X obj 406 470 outlet;
#X connect 0 0 10 1;
#X connect 0 0 25 0;
#X connect 1 0 14 0;
#X connect 1 0 34 1;
#X connect 2 0 3 0;
#X connect 3 0 4 0;
#X connect 3 0 5 0;
#X connect 4 0 3 1;
#X connect 5 0 9 0;
#X connect 5 0 13 0;
#X connect 6 0 2 0;
#X connect 6 0 3 0;
#X connect 7 0 10 0;
#X connect 9 0 49 1;
#X connect 10 0 49 0;
#X connect 11 0 12 0;
#X connect 12 0 13 1;
#X connect 12 0 29 1;
#X connect 13 0 6 0;
#X connect 13 1 7 0;
#X connect 14 0 2 0;
#X connect 14 1 5 1;
#X connect 14 2 11 0;
#X connect 14 3 52 0;
#X connect 15 0 17 0;
#X connect 16 0 18 0;
#X connect 17 0 16 0;
#X connect 17 1 19 0;
#X connect 17 2 29 0;
#X connect 18 0 21 0;
#X connect 19 0 21 1;
#X connect 20 0 19 1;
#X connect 20 0 26 0;
#X connect 21 0 22 0;
#X connect 22 0 23 0;
#X connect 23 0 28 0;
#X connect 24 0 51 0;
#X connect 25 0 23 1;
#X connect 26 0 53 0;
#X connect 27 0 51 1;
#X connect 28 0 24 0;
#X connect 29 0 30 0;
#X connect 30 0 27 0;
#X connect 31 0 32 0;
#X connect 32 0 33 0;
#X connect 32 0 34 0;
#X connect 33 0 32 1;
#X connect 34 0 35 0;
#X connect 35 0 38 0;
#X connect 35 0 50 0;
#X connect 36 0 44 0;
#X connect 36 0 45 0;
#X connect 36 0 54 0;
#X connect 37 0 15 0;
#X connect 38 0 37 0;
#X connect 39 0 38 1;
#X connect 40 0 41 0;
#X connect 41 0 20 0;
#X connect 42 0 39 0;
#X connect 43 0 42 0;
#X connect 45 0 46 0;
#X connect 47 0 31 0;
#X connect 50 0 36 0;
#X connect 52 0 48 0;
#X connect 53 0 0 0;
#X connect 53 1 25 1;
#X connect 54 0 55 0;
#X coords 0 -1 1 1 125 125 1 60 10;
