#N canvas 446 139 914 564 10;
#X obj 95 219 list store, f 12;
#X msg 95 195 get \$1 1;
#X obj 95 123 t f f;
#X obj 122 172 * 12;
#X obj 95 270 + 0, f 5;
#X obj 191 133 list length;
#X obj 95 16 inlet;
#X obj 95 99 clip 0 127;
#X msg 164 76 0 2 4 5 7 9 11;
#X obj 122 149 div;
#X obj 95 172 %;
#X obj 399 221 list length;
#X obj 303 237 %;
#X obj 95 464 outlet;
#X obj 303 464 outlet;
#X obj 303 287 list store, f 12;
#X obj 372 99 t l l;
#X obj 164 99 t l l;
#X msg 303 263 get \$1 4;
#X obj 303 310 unpack 0 0 0 0, f 23;
#X obj 303 333 +;
#X obj 346 333 +;
#X obj 391 333 +;
#X obj 438 333 +;
#X obj 195 188 - 12;
#X obj 303 356 - 12;
#X obj 176 312 f 0;
#X obj 202 312 + 1;
#X obj 229 312 % \$1;
#X obj 176 335 sel 0;
#X obj 135 392 spigot;
#X msg 176 358 1;
#X msg 203 358 0;
#X obj 95 242 t f f b, f 14;
#X obj 303 188 + \$2;
#X obj 372 16 loadbang;
#X msg 372 76 0 7 2 9 4 11 6 17 8 15 10 17 12 19;
#X obj 303 407 pipe 0;
#X obj 321 385 * 0;
#X obj 346 407 pipe 0;
#X obj 364 385 * 1;
#X obj 391 407 pipe 0;
#X obj 409 385 * 2;
#X obj 438 407 pipe 0;
#X obj 456 385 * 3;
#X obj 455 274 f \$3;
#X connect 0 0 33 0;
#X connect 1 0 0 0;
#X connect 2 0 10 0;
#X connect 2 1 9 0;
#X connect 3 0 4 1;
#X connect 3 0 24 0;
#X connect 4 0 13 0;
#X connect 5 0 9 1;
#X connect 5 0 10 1;
#X connect 6 0 7 0;
#X connect 7 0 2 0;
#X connect 8 0 17 0;
#X connect 9 0 3 0;
#X connect 10 0 1 0;
#X connect 11 0 12 1;
#X connect 12 0 18 0;
#X connect 15 0 19 0;
#X connect 16 0 15 1;
#X connect 16 1 11 0;
#X connect 17 0 0 1;
#X connect 17 1 5 0;
#X connect 18 0 15 0;
#X connect 19 0 20 0;
#X connect 19 1 21 0;
#X connect 19 2 22 0;
#X connect 19 3 23 0;
#X connect 20 0 25 0;
#X connect 21 0 39 0;
#X connect 22 0 41 0;
#X connect 23 0 43 0;
#X connect 24 0 20 1;
#X connect 24 0 23 1;
#X connect 24 0 22 1;
#X connect 24 0 21 1;
#X connect 25 0 37 0;
#X connect 26 0 27 0;
#X connect 26 0 29 0;
#X connect 27 0 28 0;
#X connect 28 0 26 1;
#X connect 29 0 31 0;
#X connect 29 1 32 0;
#X connect 30 0 34 0;
#X connect 31 0 30 1;
#X connect 32 0 30 1;
#X connect 33 0 4 0;
#X connect 33 1 30 0;
#X connect 33 2 26 0;
#X connect 34 0 12 0;
#X connect 35 0 8 0;
#X connect 35 0 36 0;
#X connect 35 0 45 0;
#X connect 36 0 16 0;
#X connect 37 0 14 0;
#X connect 38 0 37 1;
#X connect 39 0 14 0;
#X connect 40 0 39 1;
#X connect 41 0 14 0;
#X connect 42 0 41 1;
#X connect 43 0 14 0;
#X connect 44 0 43 1;
#X connect 45 0 44 0;
#X connect 45 0 42 0;
#X connect 45 0 40 0;
#X connect 45 0 38 0;
