#N canvas 580 212 780 460 10;
#X obj 56 32 inlet;
#X obj 56 221 f 0;
#X obj 82 221 + 1;
#X obj 223 152 i 3;
#X obj 223 175 until;
#X obj 223 245 random 8;
#X obj 223 316 list store;
#X obj 223 198 f 0;
#X obj 248 198 + 1;
#X obj 274 198 % 3;
#X obj 223 221 t b f;
#X obj 262 221 sel 2;
#X obj 223 268 t b f, f 10;
#X obj 280 292 list append;
#X obj 223 128 t b b b b, f 15;
#X obj 310 206 f 0;
#X msg 310 229 seed \$1;
#X obj 223 32 inlet;
#X obj 326 128 i 3;
#X obj 365 205 - 1;
#X obj 180 32 inlet;
#X msg 56 246 get \$1 1;
#X obj 223 345 spigot;
#X obj 223 104 t b f b b b, f 35;
#X msg 430 128 0;
#X msg 378 151 1;
#X obj 314 174 t f f f f;
#X obj 223 388 outlet;
#X obj 56 189 bang;
#X obj 123 32 inlet;
#X obj 123 190 + 0;
#X obj 123 129 t b f;
#X obj 378 128 del 20;
#X obj 108 221 % 4;
#X obj 141 103 i \$1;
#X obj 341 80 i \$2;
#X obj 141 64 loadbang;
#X obj 284 34 r sync;
#X msg 284 57 0;
#X connect 0 0 28 0;
#X connect 1 0 2 0;
#X connect 1 0 21 0;
#X connect 2 0 33 0;
#X connect 3 0 4 0;
#X connect 4 0 7 0;
#X connect 5 0 12 0;
#X connect 6 0 13 1;
#X connect 6 0 22 0;
#X connect 7 0 8 0;
#X connect 7 0 10 0;
#X connect 8 0 9 0;
#X connect 9 0 7 1;
#X connect 10 0 5 0;
#X connect 10 1 11 0;
#X connect 11 0 4 1;
#X connect 12 0 6 0;
#X connect 12 1 13 0;
#X connect 13 0 6 1;
#X connect 14 0 3 0;
#X connect 14 1 6 0;
#X connect 14 2 6 1;
#X connect 14 3 15 0;
#X connect 15 0 16 0;
#X connect 16 0 5 0;
#X connect 17 0 23 0;
#X connect 18 0 26 0;
#X connect 19 0 11 1;
#X connect 20 0 18 1;
#X connect 21 0 6 0;
#X connect 22 0 27 0;
#X connect 23 0 14 0;
#X connect 23 1 15 1;
#X connect 23 2 18 0;
#X connect 23 3 32 0;
#X connect 23 4 24 0;
#X connect 24 0 22 1;
#X connect 25 0 22 1;
#X connect 26 0 30 0;
#X connect 26 1 3 1;
#X connect 26 2 9 1;
#X connect 26 3 19 0;
#X connect 28 0 1 0;
#X connect 29 0 31 0;
#X connect 30 0 33 1;
#X connect 31 0 30 0;
#X connect 31 1 30 1;
#X connect 32 0 25 0;
#X connect 33 0 1 1;
#X connect 34 0 31 0;
#X connect 35 0 18 1;
#X connect 36 0 34 0;
#X connect 36 0 35 0;
#X connect 37 0 38 0;
#X connect 38 0 1 1;
#X connect 38 0 7 1;
