#N canvas 399 263 592 419 10;
#X obj 21 15 inlet;
#X obj 21 58 t f b;
#X floatatom 48 127 5 0 0 0 - - -;
#X obj 134 91 hradio 15 1 0 4 empty empty play/mute 4 24 0 10 -262144
-1 -1 0;
#X obj 21 150 spigot;
#X obj 48 104 > 1;
#X obj 48 81 random 6;
#X obj 21 194 outlet;
#X connect 0 0 1 0;
#X connect 1 0 4 0;
#X connect 1 1 6 0;
#X connect 2 0 4 1;
#X connect 3 0 5 1;
#X connect 4 0 7 0;
#X connect 5 0 2 0;
#X connect 6 0 5 0;
#X coords 0 -1 1 1 80 70 1 125 60;
