#N canvas 6 127 692 615 10;
#X obj 112 34 inlet;
#X obj 97 443 t b f;
#X obj 97 466 i 0;
#X obj 97 489 + 0, f 5;
#X obj 97 560 outlet;
#X obj 158 443 t b f;
#X obj 158 466 i 0;
#X obj 158 489 + 0, f 5;
#X obj 158 560 outlet;
#X obj 219 443 t b f;
#X obj 219 466 i 0;
#X obj 219 489 + 0, f 5;
#X obj 219 560 outlet;
#X obj 280 443 t b f;
#X obj 280 466 i 0;
#X obj 280 489 + 0, f 5;
#X obj 280 560 outlet;
#X obj 302 34 inlet;
#X msg 302 137 seed \$1;
#X obj 97 418 unpack 0 0 0 0, f 31;
#X msg 199 278 0 4 7 11;
#X msg 214 301 -1 0 4 7;
#X msg 230 324 -5 -1 0 4;
#X obj 199 215 sel 0 1 2 3;
#X obj 302 231 random 4;
#X obj 302 253 sel 0 1 2 3;
#X obj 274 214 t b;
#X msg 247 347 -8 -5 -1 0;
#X msg 302 276 0 4 7 10;
#X msg 317 299 -2 0 4 7;
#X msg 333 322 -5 -2 0 4;
#X msg 350 345 -8 -5 -2 0;
#X obj 199 191 random 5;
#X obj 430 215 sel 0 1 2 3;
#X obj 112 107 t f b, f 15;
#X obj 199 157 spigot;
#X obj 232 135 == 0;
#X obj 430 123 spigot;
#X obj 463 101 == 1;
#X obj 232 34 inlet;
#X obj 232 85 clip 0 1;
#X obj 373 34 loadbang;
#X msg 373 69 0;
#X msg 430 258 0 3 7 10;
#X msg 445 281 -2 0 3 7;
#X msg 461 304 -5 -2 0 3;
#X msg 478 327 -9 -5 -2 0;
#X obj 430 191 random 4;
#X connect 0 0 34 0;
#X connect 1 0 2 0;
#X connect 1 1 3 1;
#X connect 2 0 3 0;
#X connect 3 0 4 0;
#X connect 5 0 6 0;
#X connect 5 1 7 1;
#X connect 6 0 7 0;
#X connect 7 0 8 0;
#X connect 9 0 10 0;
#X connect 9 1 11 1;
#X connect 10 0 11 0;
#X connect 11 0 12 0;
#X connect 13 0 14 0;
#X connect 13 1 15 1;
#X connect 14 0 15 0;
#X connect 15 0 16 0;
#X connect 17 0 18 0;
#X connect 18 0 24 0;
#X connect 18 0 47 0;
#X connect 18 0 32 0;
#X connect 19 0 1 0;
#X connect 19 1 5 0;
#X connect 19 2 9 0;
#X connect 19 3 13 0;
#X connect 20 0 19 0;
#X connect 21 0 19 0;
#X connect 22 0 19 0;
#X connect 23 0 20 0;
#X connect 23 1 21 0;
#X connect 23 2 22 0;
#X connect 23 3 27 0;
#X connect 23 4 26 0;
#X connect 24 0 25 0;
#X connect 25 0 28 0;
#X connect 25 1 29 0;
#X connect 25 2 30 0;
#X connect 25 3 31 0;
#X connect 26 0 24 0;
#X connect 27 0 19 0;
#X connect 28 0 19 0;
#X connect 29 0 19 0;
#X connect 30 0 19 0;
#X connect 31 0 19 0;
#X connect 32 0 23 0;
#X connect 33 0 43 0;
#X connect 33 1 44 0;
#X connect 33 2 45 0;
#X connect 33 3 46 0;
#X connect 34 0 2 1;
#X connect 34 0 14 1;
#X connect 34 0 10 1;
#X connect 34 0 6 1;
#X connect 34 1 35 0;
#X connect 34 1 37 0;
#X connect 35 0 32 0;
#X connect 36 0 35 1;
#X connect 37 0 47 0;
#X connect 38 0 37 1;
#X connect 39 0 40 0;
#X connect 40 0 36 0;
#X connect 40 0 38 0;
#X connect 41 0 42 0;
#X connect 42 0 40 0;
#X connect 43 0 19 0;
#X connect 44 0 19 0;
#X connect 45 0 19 0;
#X connect 46 0 19 0;
#X connect 47 0 33 0;
