#N canvas 234 238 556 462 10;
#X obj 54 110 *~, f 12;
#X obj 178 58 bng 15 250 50 0 empty empty empty 17 7 0 10 -262144 -1
-1;
#X obj 54 140 *~;
#X obj 178 101 random 6;
#X obj 178 124 + 1;
#X obj 53 274 phasor~;
#X obj 117 273 phasor~;
#X obj 116 157 *~;
#X obj 243 71 random 1000;
#X obj 243 100 / 75000;
#X obj 243 141 + 1;
#X obj 54 322 *~;
#X obj 179 273 vline~;
#X obj 179 305 *~;
#X msg 179 249 1 \$1 \, 0 \$2 \$1;
#X obj 179 225 pack 0 0, f 17;
#X obj 54 354 *~ 0.1;
#X obj 54 397 outlet~;
#X obj 178 20 loadbang;
#X obj 179 178 t f f b, f 33;
#X obj 54 57 sig~ \$2;
#X obj 179 201 * 10;
#X obj 278 201 * 20;
#X obj 229 200 +;
#X obj 374 216 del;
#X obj 54 79 mtof~;
#X obj 123 20 inlet;
#X obj 123 78 clip 0 4;
#X obj 54 20 inlet;
#X connect 0 0 2 0;
#X connect 1 0 3 0;
#X connect 1 0 8 0;
#X connect 2 0 5 0;
#X connect 2 0 7 0;
#X connect 3 0 4 0;
#X connect 4 0 2 1;
#X connect 5 0 11 0;
#X connect 6 0 11 0;
#X connect 7 0 6 0;
#X connect 8 0 9 0;
#X connect 8 0 19 0;
#X connect 9 0 10 0;
#X connect 10 0 7 1;
#X connect 11 0 16 0;
#X connect 12 0 13 0;
#X connect 12 0 13 1;
#X connect 13 0 11 1;
#X connect 14 0 12 0;
#X connect 15 0 14 0;
#X connect 16 0 17 0;
#X connect 18 0 1 0;
#X connect 19 0 21 0;
#X connect 19 1 22 0;
#X connect 19 2 24 0;
#X connect 20 0 25 0;
#X connect 21 0 15 0;
#X connect 21 0 23 0;
#X connect 22 0 15 1;
#X connect 22 0 23 1;
#X connect 23 0 24 1;
#X connect 24 0 1 0;
#X connect 25 0 0 0;
#X connect 26 0 27 0;
#X connect 27 0 0 1;
#X connect 28 0 20 0;
