#N canvas 555 186 729 538 10;
#X obj 337 269 unpack 1 2 3 4 5;
#X obj 309 299 bp~ 100 10;
#X obj 332 322 bp~ 100 10;
#X obj 356 347 bp~ 100 10;
#X obj 373 373 bp~ 100 10;
#X msg 446 335 1 \$1 \, 0 \$2 \$1;
#X floatatom 458 290 5 0 0 0 - - -;
#X floatatom 491 271 5 0 0 0 - - -;
#X obj 446 402 *~;
#X obj 446 423 *~ 2;
#X obj 446 269 t;
#X obj 446 358 vline~;
#X msg 337 85 3454 5645 6433 6999 600;
#X obj 556 324 noise~;
#X floatatom 602 347 5 0 0 0 - - -;
#X obj 556 347 *~ 0.1;
#X obj 541 385 +~;
#X floatatom 481 423 5 0 0 0 - - -;
#X msg 349 108 2312 2466 3200 5314 380;
#X obj 540 295 osc~ 0;
#X msg 364 130 1679 1233 4251 4640 340;
#X msg 376 152 1245 1503 2131 2575 100;
#X msg 391 174 527 781 972 1184 70;
#X msg 405 196 221 333 426 527 40;
#X obj 337 56 sel 0 1 2 3 4 5 6 7;
#X obj 446 451 outlet~;
#X obj 24 11 inlet;
#X obj 89 87 bng 15 250 50 0 empty empty empty 17 7 0 10 -262144 -1
-1;
#X obj 112 87 hradio 15 1 0 8 empty empty res-banks 0 -8 0 10 -262144
-1 -1 4;
#X msg 420 218 109 230 352 413 20;
#X msg 434 240 123 234 345 456 100;
#X floatatom 238 87 5 90 500 2 decay - -;
#X floatatom 90 120 5 0 2000 2 freq - -;
#X obj 130 122 hsl 40 15 0 1 0 0 empty empty noise 0 -8 0 10 -228856
-1 -1 0 1;
#X obj 188 122 hsl 80 15 0 2 0 0 empty empty vol 0 -8 0 10 -262144
-1 -1 0 1;
#X floatatom 540 272 5 0 0 0 - - -;
#X obj 446 312 pack 2 f;
#X obj 446 380 pow~ 4;
#X obj 24 34 t b f;
#X connect 0 0 1 1;
#X connect 0 1 2 1;
#X connect 0 2 3 1;
#X connect 0 3 4 1;
#X connect 0 4 1 2;
#X connect 0 4 2 2;
#X connect 0 4 3 2;
#X connect 0 4 4 2;
#X connect 0 4 10 0;
#X connect 1 0 9 0;
#X connect 2 0 9 0;
#X connect 3 0 9 0;
#X connect 4 0 9 0;
#X connect 5 0 11 0;
#X connect 6 0 36 0;
#X connect 7 0 36 1;
#X connect 8 0 1 0;
#X connect 8 0 2 0;
#X connect 8 0 3 0;
#X connect 8 0 4 0;
#X connect 9 0 25 0;
#X connect 10 0 36 0;
#X connect 11 0 37 0;
#X connect 12 0 0 0;
#X connect 13 0 15 0;
#X connect 14 0 15 1;
#X connect 15 0 16 1;
#X connect 16 0 8 1;
#X connect 17 0 9 1;
#X connect 18 0 0 0;
#X connect 19 0 16 0;
#X connect 20 0 0 0;
#X connect 21 0 0 0;
#X connect 22 0 0 0;
#X connect 23 0 0 0;
#X connect 24 0 12 0;
#X connect 24 1 18 0;
#X connect 24 2 20 0;
#X connect 24 3 21 0;
#X connect 24 4 22 0;
#X connect 24 5 23 0;
#X connect 24 6 29 0;
#X connect 24 7 30 0;
#X connect 26 0 38 0;
#X connect 27 0 28 0;
#X connect 28 0 24 0;
#X connect 29 0 0 0;
#X connect 30 0 0 0;
#X connect 31 0 7 0;
#X connect 32 0 35 0;
#X connect 33 0 14 0;
#X connect 34 0 17 0;
#X connect 35 0 19 0;
#X connect 36 0 5 0;
#X connect 37 0 8 0;
#X connect 38 0 27 0;
#X connect 38 1 32 0;
#X coords 0 -1 1 1 200 100 1 80 50;
