#N canvas 806 116 554 624 10;
#X obj 66 30 inlet;
#X obj 66 250 f 0;
#X obj 92 250 + 1;
#X obj 118 250 % 2;
#X obj 81 160 r sync;
#X msg 81 183 0;
#X obj 66 273 t f f;
#X obj 107 273 sel 0;
#X msg 66 296 get \$1 1;
#X obj 107 345 f 0;
#X obj 133 345 + 1;
#X obj 159 345 % 2;
#X msg 107 368 get \$1 1;
#X obj 66 578 outlet;
#X obj 107 604 outlet;
#X obj 162 182 clip 1 10;
#X obj 162 228 until;
#X obj 162 251 random 8;
#X obj 162 274 t f b;
#X obj 162 297 list append;
#X obj 66 322 list store, f 27;
#X obj 162 205 t f b, f 11;
#X obj 269 182 clip 1 10;
#X obj 269 228 until;
#X obj 269 251 random 8;
#X obj 269 274 t f b;
#X obj 269 297 list append;
#X obj 107 391 list store, f 38;
#X obj 269 205 t f b, f 11;
#X obj 66 453 spigot;
#X obj 107 499 spigot;
#X obj 162 30 inlet;
#X msg 269 100 seed \$1;
#X obj 162 53 t b f b, f 22;
#X msg 318 437 0;
#X obj 162 159 f \$1;
#X obj 269 159 f \$2;
#X obj 291 415 t b b;
#X obj 291 460 del 10;
#X msg 291 483 1;
#X obj 66 515 +;
#X obj 66 538 % 14;
#X msg 210 159 seed \$1;
#X obj 225 90 f \$2;
#X obj 210 136 *;
#X connect 0 0 1 0;
#X connect 1 0 2 0;
#X connect 1 0 6 0;
#X connect 2 0 3 0;
#X connect 3 0 1 1;
#X connect 4 0 5 0;
#X connect 5 0 1 1;
#X connect 5 0 9 1;
#X connect 6 0 8 0;
#X connect 6 1 7 0;
#X connect 7 0 9 0;
#X connect 8 0 20 0;
#X connect 9 0 10 0;
#X connect 9 0 12 0;
#X connect 10 0 11 0;
#X connect 11 0 9 1;
#X connect 12 0 27 0;
#X connect 15 0 21 0;
#X connect 16 0 17 0;
#X connect 17 0 18 0;
#X connect 18 0 19 0;
#X connect 18 1 20 0;
#X connect 19 0 20 1;
#X connect 20 0 19 1;
#X connect 20 0 29 0;
#X connect 21 0 16 0;
#X connect 21 0 3 1;
#X connect 21 1 20 1;
#X connect 22 0 28 0;
#X connect 23 0 24 0;
#X connect 24 0 25 0;
#X connect 25 0 26 0;
#X connect 25 0 11 1;
#X connect 25 1 27 0;
#X connect 26 0 27 1;
#X connect 27 0 26 1;
#X connect 27 0 30 0;
#X connect 28 0 23 0;
#X connect 28 1 27 1;
#X connect 29 0 40 0;
#X connect 30 0 14 0;
#X connect 30 0 40 1;
#X connect 31 0 33 0;
#X connect 32 0 24 0;
#X connect 33 0 35 0;
#X connect 33 0 36 0;
#X connect 33 1 32 0;
#X connect 33 1 44 0;
#X connect 33 2 37 0;
#X connect 33 2 43 0;
#X connect 34 0 29 1;
#X connect 34 0 30 1;
#X connect 35 0 15 0;
#X connect 36 0 22 0;
#X connect 37 0 38 0;
#X connect 37 0 5 0;
#X connect 37 1 34 0;
#X connect 38 0 39 0;
#X connect 39 0 29 1;
#X connect 39 0 30 1;
#X connect 40 0 41 0;
#X connect 41 0 13 0;
#X connect 42 0 17 0;
#X connect 43 0 44 1;
#X connect 44 0 42 0;
