#N canvas 744 189 616 573 10;
#X obj 34 297 pix_data;
#X floatatom 198 313 5 0 0 1 gray - -;
#X obj 56 343 unpack 0 0 0, f 16;
#X floatatom 149 366 5 0 0 3 blue - -;
#X floatatom 102 366 5 0 0 3 green - -;
#X floatatom 56 366 5 0 0 3 red - -;
#X floatatom 64 254 5 0 0 1 x-pos - -;
#X floatatom 79 276 5 0 0 1 y-pos - -;
#X obj 242 213 gemhead;
#X obj 49 229 pix_image;
#X obj 108 155 openpanel;
#X msg 108 178 open \$1;
#X obj 408 268 pix_texture;
#X obj 408 245 pix_info, f 19;
#X obj 242 342 translateXYZ;
#X msg 242 388 draw line;
#X floatatom 265 319 5 0 0 0 - - -;
#X floatatom 302 319 5 0 0 0 - - -;
#X obj 302 291 expr (-$f1*6)+3;
#X obj 265 269 expr ($f1*6)-3;
#X obj 408 290 square 3;
#X obj 269 437 square 0.2;
#X obj 355 175 gemwin;
#X obj 355 94 sel 0 1;
#X msg 355 144 destroy;
#X obj 355 30 inlet;
#X obj 355 71 clip 0 1;
#X obj 34 30 inlet;
#X obj 198 516 outlet;
#X obj 56 516 outlet;
#X obj 102 516 outlet;
#X obj 149 516 outlet;
#X msg 108 73 bang;
#X msg 374 120 create \, 1;
#X obj 242 365 t b a;
#X obj 269 413 color 1 1 1;
#X obj 181 109 f 0;
#X obj 208 109 + 1;
#X obj 34 93 t b b;
#X obj 181 132 t f f;
#X obj 221 155 f 0;
#X obj 248 155 + 1;
#X obj 221 132 sel 0;
#X obj 181 178 / 10;
#X obj 221 178 / 10;
#X obj 234 109 % 11;
#X obj 274 155 % 11;
#X connect 0 1 2 0;
#X connect 0 2 1 0;
#X connect 1 0 28 0;
#X connect 2 0 5 0;
#X connect 2 1 4 0;
#X connect 2 2 3 0;
#X connect 3 0 31 0;
#X connect 4 0 30 0;
#X connect 5 0 29 0;
#X connect 6 0 0 2;
#X connect 6 0 19 0;
#X connect 7 0 0 3;
#X connect 7 0 18 0;
#X connect 8 0 9 0;
#X connect 8 0 14 0;
#X connect 9 0 0 1;
#X connect 9 0 13 0;
#X connect 10 0 11 0;
#X connect 11 0 9 0;
#X connect 12 0 20 0;
#X connect 13 0 12 0;
#X connect 14 0 34 0;
#X connect 15 0 21 0;
#X connect 16 0 14 1;
#X connect 17 0 14 2;
#X connect 18 0 17 0;
#X connect 19 0 16 0;
#X connect 23 0 24 0;
#X connect 23 1 33 0;
#X connect 23 1 32 0;
#X connect 24 0 22 0;
#X connect 25 0 26 0;
#X connect 26 0 23 0;
#X connect 27 0 38 0;
#X connect 32 0 10 0;
#X connect 33 0 22 0;
#X connect 34 0 15 0;
#X connect 34 1 35 0;
#X connect 35 0 21 0;
#X connect 36 0 37 0;
#X connect 36 0 39 0;
#X connect 37 0 45 0;
#X connect 38 0 0 0;
#X connect 38 1 36 0;
#X connect 39 0 43 0;
#X connect 39 1 42 0;
#X connect 40 0 41 0;
#X connect 40 0 44 0;
#X connect 41 0 46 0;
#X connect 42 0 40 0;
#X connect 43 0 6 0;
#X connect 44 0 7 0;
#X connect 45 0 36 1;
#X connect 46 0 40 1;
