#N canvas 610 141 602 594 10;
#X obj 44 93 bng 15 250 50 0 empty empty empty 0 -6 0 8 -262144 -1
-1;
#X obj 44 258 + \$4;
#X obj 44 214 float \$3;
#X obj 44 236 *;
#X obj 44 305 osc~;
#X obj 43 568 outlet~;
#X obj 55 8 inlet;
#X obj 124 6 inlet;
#X floatatom 66 92 5 0 0 0 - - -;
#X obj 143 94 vsl 15 35 0 1 0 0 empty empty empty 0 -9 0 10 -262144
-1 -1 600 1;
#X obj 163 94 vsl 15 35 1 7 0 0 empty empty empty 0 -9 0 10 -262144
-1 -1 1900 1;
#X obj 183 94 vsl 15 35 0 20 0 0 empty empty empty 0 -9 0 10 -262144
-1 -1 0 1;
#X obj 59 191 mtof;
#X obj 55 49 t b f;
#X obj 124 94 vsl 15 35 0.1 0.99 0 0 empty empty empty 0 -9 0 10 -262144
-1 -1 2700 1;
#X obj 163 198 i;
#X obj 159 304 noise~;
#X obj 143 328 *~;
#X obj 105 94 vsl 15 35 0 0.1 0 0 empty empty empty 0 -9 0 10 -262144
-1 -1 2300 1;
#X obj 207 438 float \$1;
#X msg 207 485 \$1 20;
#X obj 207 508 line~;
#X obj 45 328 expr~ $v1<$f2;
#X obj 45 440 *~;
#X obj 44 158 t b b;
#X obj 73 410 vline~;
#X obj 43 525 *~;
#X obj 207 461 * 0.2;
#X obj 44 499 +~;
#X obj 143 435 hip~;
#X obj 177 419 * 3;
#X obj 44 281 t f f;
#X obj 129 482 *~;
#X msg 73 387 0 50 \, 1 300 30;
#X connect 0 0 24 0;
#X connect 1 0 31 0;
#X connect 2 0 3 0;
#X connect 3 0 1 0;
#X connect 4 0 22 0;
#X connect 6 0 13 0;
#X connect 7 0 14 0;
#X connect 8 0 12 0;
#X connect 9 0 17 0;
#X connect 10 0 15 0;
#X connect 11 0 1 1;
#X connect 12 0 3 1;
#X connect 13 0 0 0;
#X connect 13 1 8 0;
#X connect 14 0 22 1;
#X connect 15 0 2 1;
#X connect 16 0 17 1;
#X connect 17 0 29 0;
#X connect 18 0 19 0;
#X connect 19 0 27 0;
#X connect 20 0 21 0;
#X connect 21 0 26 1;
#X connect 22 0 23 0;
#X connect 23 0 28 0;
#X connect 24 0 2 0;
#X connect 24 1 33 0;
#X connect 25 0 23 1;
#X connect 25 0 32 0;
#X connect 26 0 5 0;
#X connect 27 0 20 0;
#X connect 28 0 26 0;
#X connect 29 0 32 1;
#X connect 30 0 29 1;
#X connect 31 0 4 0;
#X connect 31 1 30 0;
#X connect 32 0 28 1;
#X connect 33 0 25 0;
#X coords 0 -1 1 1 170 70 1 37 70;
