#N canvas 0 116 1366 652 10;
#X obj 260 190 line~;
#X obj 260 213 sqrt~;
#X obj 261 450 lop~ 1000;
#X obj 260 428 cos~;
#X obj 260 236 sqrt~;
#X obj 314 428 * 100;
#X obj 261 567 *~;
#X msg 276 520 \$1 100;
#X obj 276 543 line~;
#X obj 480 164 t b b;
#X msg 480 187 1 \, 0 100;
#X obj 480 210 line~;
#X obj 480 233 pow~ 4;
#X obj 480 256 *~;
#X obj 480 279 +~;
#X obj 480 450 lop~ 4000;
#X obj 480 567 *~;
#X obj 538 216 * 10;
#X obj 531 428 * 100;
#X obj 600 203 line~;
#X obj 600 226 pow~ 4;
#X obj 600 262 *~;
#X msg 600 180 1 \, 0 200;
#X obj 667 182 noise~;
#X obj 791 253 line~;
#X obj 791 567 *~;
#X obj 791 404 *~;
#X obj 904 251 noise~;
#X obj 869 364 hip~ 8000;
#X obj 869 182 *~ 2;
#X obj 869 205 -~ 1;
#X obj 944 182 *~ 2;
#X obj 944 211 -~ 1;
#X obj 78 107 t b b;
#X obj 165 123 + 1;
#X obj 138 147 sel 0;
#X msg 138 194 seed \$1;
#X obj 138 170 f, f 8;
#X obj 260 607 outlet~;
#X obj 869 120 t f f;
#X obj 944 136 + 50;
#X obj 791 450 clip~ -1 1;
#X obj 791 427 *~ 4;
#X obj 869 228 +~;
#X obj 868 252 /~ 4;
#X msg 791 230 1 \, 0 200;
#X obj 869 96 * 20;
#X obj 78 17 inlet;
#X obj 156 17 inlet;
#X obj 480 607 outlet~;
#X obj 791 607 outlet~;
#X obj 364 481 random 100;
#X obj 364 504 / 100;
#X msg 496 520 \$1 100;
#X obj 496 543 line~;
#X obj 604 481 random 100;
#X obj 604 504 / 100;
#X msg 807 520 \$1 100;
#X obj 807 543 line~;
#X obj 885 480 random 100;
#X obj 885 503 / 100;
#X obj 260 406 -~;
#X obj 396 412 / 10;
#X obj 396 389 random 11;
#X obj 531 383 random 41;
#X obj 531 406 / 10;
#X obj 307 367 random 21;
#X obj 307 390 / 20;
#X obj 260 105 bng 15 250 50 0 empty empty empty 17 7 0 10 -262144
-1 -1;
#X obj 303 291 + 10;
#X obj 260 307 *~;
#X obj 724 181 / 10;
#X obj 724 156 random 20;
#X obj 538 180 + 10;
#X obj 480 105 bng 15 250 50 0 empty empty empty 17 7 0 10 -262144
-1 -1;
#X obj 812 335 random 8;
#X obj 812 358 + 1;
#X obj 791 381 pow~;
#X obj 869 387 hip~ 7000;
#X obj 905 334 /~;
#X obj 962 295 random 4;
#X obj 962 318 + 2;
#X obj 869 72 + 10;
#X obj 909 55 random 40;
#X obj 791 105 bng 15 250 50 0 empty empty empty 17 7 0 10 -262144
-1 -1;
#X obj 944 159 phasor~;
#X obj 869 159 phasor~;
#X obj 538 239 osc~;
#X obj 192 123 % \$1;
#X obj 138 123 f 0;
#X obj 153 77 r sync;
#X msg 153 100 0;
#X obj 260 46 sel 0 1 2 3 4 5, f 74;
#X obj 156 43 t b f;
#X obj 531 360 r b;
#X obj 303 245 r b;
#X obj 307 344 r b;
#X obj 538 133 r b;
#X obj 724 133 r b;
#X obj 909 31 r b;
#X obj 962 272 r b;
#X obj 812 311 r b;
#X obj 885 456 r b;
#X obj 604 456 r b;
#X obj 396 365 r b;
#X obj 364 457 r b;
#X obj 115 60 s b;
#X msg 260 167 0 \, 1 150;
#X obj 667 246 bp~ 3500 2;
#X obj 667 210 hip~ 1500;
#X obj 260 259 sqrt~;
#X obj 303 268 random 90;
#X obj 538 157 random 60;
#X obj 78 210 random 8;
#X connect 0 0 1 0;
#X connect 1 0 4 0;
#X connect 2 0 6 0;
#X connect 3 0 2 0;
#X connect 4 0 110 0;
#X connect 5 0 2 1;
#X connect 6 0 38 0;
#X connect 7 0 8 0;
#X connect 8 0 6 1;
#X connect 9 0 10 0;
#X connect 9 1 22 0;
#X connect 10 0 11 0;
#X connect 11 0 12 0;
#X connect 12 0 13 0;
#X connect 13 0 14 0;
#X connect 14 0 15 0;
#X connect 15 0 16 0;
#X connect 16 0 49 0;
#X connect 17 0 87 0;
#X connect 18 0 15 1;
#X connect 19 0 20 0;
#X connect 20 0 21 0;
#X connect 21 0 14 1;
#X connect 22 0 19 0;
#X connect 23 0 109 0;
#X connect 24 0 77 0;
#X connect 25 0 50 0;
#X connect 26 0 42 0;
#X connect 27 0 79 0;
#X connect 28 0 78 0;
#X connect 29 0 30 0;
#X connect 30 0 43 0;
#X connect 31 0 32 0;
#X connect 32 0 43 1;
#X connect 33 0 113 0;
#X connect 33 1 89 0;
#X connect 34 0 88 0;
#X connect 35 0 37 0;
#X connect 36 0 75 0;
#X connect 36 0 80 0;
#X connect 36 0 83 0;
#X connect 36 0 72 0;
#X connect 36 0 64 0;
#X connect 36 0 63 0;
#X connect 36 0 66 0;
#X connect 36 0 111 0;
#X connect 36 0 112 0;
#X connect 36 0 113 0;
#X connect 37 0 36 0;
#X connect 39 0 86 0;
#X connect 39 1 40 0;
#X connect 40 0 85 0;
#X connect 41 0 25 0;
#X connect 42 0 41 0;
#X connect 43 0 44 0;
#X connect 44 0 28 0;
#X connect 45 0 24 0;
#X connect 46 0 39 0;
#X connect 47 0 33 0;
#X connect 48 0 93 0;
#X connect 51 0 52 0;
#X connect 52 0 7 0;
#X connect 53 0 54 0;
#X connect 54 0 16 1;
#X connect 55 0 56 0;
#X connect 56 0 53 0;
#X connect 57 0 58 0;
#X connect 58 0 25 1;
#X connect 59 0 60 0;
#X connect 60 0 57 0;
#X connect 61 0 3 0;
#X connect 62 0 5 0;
#X connect 63 0 62 0;
#X connect 64 0 65 0;
#X connect 65 0 18 0;
#X connect 66 0 67 0;
#X connect 67 0 61 1;
#X connect 68 0 107 0;
#X connect 69 0 70 1;
#X connect 70 0 61 0;
#X connect 71 0 108 2;
#X connect 72 0 71 0;
#X connect 73 0 17 0;
#X connect 74 0 9 0;
#X connect 75 0 76 0;
#X connect 76 0 77 1;
#X connect 77 0 26 0;
#X connect 78 0 26 1;
#X connect 79 0 28 0;
#X connect 80 0 81 0;
#X connect 81 0 79 1;
#X connect 82 0 46 0;
#X connect 83 0 82 0;
#X connect 84 0 45 0;
#X connect 85 0 31 0;
#X connect 86 0 29 0;
#X connect 87 0 13 1;
#X connect 88 0 89 1;
#X connect 89 0 34 0;
#X connect 89 0 35 0;
#X connect 90 0 91 0;
#X connect 91 0 89 1;
#X connect 92 0 68 0;
#X connect 92 1 74 0;
#X connect 92 2 84 0;
#X connect 92 3 68 0;
#X connect 92 3 74 0;
#X connect 92 4 74 0;
#X connect 92 4 84 0;
#X connect 92 5 68 0;
#X connect 92 5 84 0;
#X connect 93 0 106 0;
#X connect 93 1 37 1;
#X connect 94 0 64 0;
#X connect 95 0 111 0;
#X connect 96 0 66 0;
#X connect 97 0 112 0;
#X connect 98 0 72 0;
#X connect 99 0 83 0;
#X connect 100 0 80 0;
#X connect 101 0 75 0;
#X connect 102 0 59 0;
#X connect 103 0 55 0;
#X connect 104 0 63 0;
#X connect 105 0 51 0;
#X connect 107 0 0 0;
#X connect 108 0 21 1;
#X connect 109 0 108 0;
#X connect 110 0 70 0;
#X connect 111 0 69 0;
#X connect 112 0 73 0;
#X connect 113 0 92 0;
