#N canvas 21 116 1277 646 10;
#X floatatom 96 156 5 0 0 0 - - -;
#X obj 96 178 expr $f1 * $f2;
#X obj 177 156 mtof;
#X obj 96 201 ftom;
#X obj 96 283 outlet;
#X obj 96 109 % 7;
#X obj 96 70 t f f;
#X obj 177 86 div 7;
#X obj 177 110 * 12;
#X obj 96 22 inlet;
#X obj 243 22 inlet;
#X obj 243 70 t a a;
#X obj 270 93 list length;
#X obj 96 133 array get ratioscale;
#X obj 243 148 array set ratioscale;
#X msg 486 64 1 1.125 1.2222 1.3333 1.5 1.6875 1.8333;
#X text 771 64 Maqam Rast (Scala Araba);
#X msg 486 85 1 1.0667 1.25 1.3333 1.5 1.5833 1.7777;
#X text 771 84 Maqam Hijaz (Carattere mediorientale \, seconda eccedente)
;
#X msg 486 106 1 1.0833 1.2 1.3333 1.5 1.6 1.8;
#X text 772 106 Maqam Bayati (Seconda neutra);
#X text 772 125 Maqam Bayati Maqam Nahawand;
#X msg 486 127 1 1.125 1.2 1.3333 1.5 1.6 1.8;
#X text 772 147 Scala Tolomeica (Just Intonation Maggiore);
#X msg 486 148 1 1.125 1.25 1.3333 1.5 1.6667 1.875;
#X text 772 169 Scala Pitagorica (Basata su quinte pure);
#X msg 486 169 1 1.125 1.2656 1.3333 1.5 1.6875 1.8984;
#X text 772 189 Scala Pelog (Gamelan Giavanese);
#X msg 486 190 1 1.0526 1.1579 1.3158 1.4737 1.5789 1.8421;
#X text 771 208 Scala Slendro (Gamelan Giavanese - Equidistante);
#X msg 486 211 1 1.1487 1.3195 1.5157 1.7411;
#X text 771 229 Maqam Saba (con intervalli contratti);
#X msg 486 232 1 1.125 1.1852 1.2656 1.4222 1.5 1.6875;
#X text 771 252 Scala Akebono (Giapponese);
#X msg 486 253 1 1.125 1.2 1.5 1.6;
#X text 770 273 Scala Prometeica (Scriabin);
#X msg 486 274 1 1.125 1.2656 1.4238 1.6875 1.8984;
#X text 770 294 Scala Armonica Naturale (Primi 8 armonici);
#X msg 486 295 1 1.125 1.25 1.375 1.5 1.625 1.75 1.875;
#X text 771 314 Scala Armonica Maqam Kurd (Frigio arabo);
#X msg 486 316 1 1.0667 1.2 1.3333 1.5 1.6 1.8;
#X text 770 334 Maqam Lami (Molto raro \, carattere scuro);
#X msg 486 337 1 1.0667 1.2 1.3333 1.5 1.6 1.7778;
#X text 770 354 Scala Enigmatica (Verdi);
#X msg 486 358 1 1.037 1.25 1.44 1.56 1.875 1.944;
#X text 770 373 Scala Insen (Giapponese per Koto);
#X msg 486 379 1 1.0667 1.3333 1.5 1.8;
#X text 770 394 Scala Hirajoshi;
#X msg 486 400 1 1.125 1.2 1.5 1.6;
#X obj 316 488 sel 0 1 2 3 4 5 6 7 8 9 10 11 12 13 14 15 16;
#X obj 316 455 clip 0 16;
#X obj 316 429 f \$1;
#X obj 316 403 loadbang;
#X obj 486 25 array define ratioscale 12;
#X connect 0 0 1 0;
#X connect 1 0 3 0;
#X connect 2 0 1 1;
#X connect 3 0 4 0;
#X connect 5 0 13 0;
#X connect 6 0 5 0;
#X connect 6 1 7 0;
#X connect 7 0 8 0;
#X connect 8 0 2 0;
#X connect 9 0 6 0;
#X connect 10 0 11 0;
#X connect 11 0 14 0;
#X connect 11 1 12 0;
#X connect 11 1 53 0;
#X connect 12 0 7 1;
#X connect 12 0 5 1;
#X connect 13 0 0 0;
#X connect 15 0 11 0;
#X connect 17 0 11 0;
#X connect 19 0 11 0;
#X connect 22 0 11 0;
#X connect 24 0 11 0;
#X connect 26 0 11 0;
#X connect 28 0 11 0;
#X connect 30 0 11 0;
#X connect 32 0 11 0;
#X connect 34 0 11 0;
#X connect 36 0 11 0;
#X connect 38 0 11 0;
#X connect 40 0 11 0;
#X connect 42 0 11 0;
#X connect 44 0 11 0;
#X connect 46 0 11 0;
#X connect 48 0 11 0;
#X connect 49 0 15 0;
#X connect 49 1 17 0;
#X connect 49 2 19 0;
#X connect 49 3 22 0;
#X connect 49 4 24 0;
#X connect 49 5 26 0;
#X connect 49 6 28 0;
#X connect 49 7 30 0;
#X connect 49 8 32 0;
#X connect 49 9 34 0;
#X connect 49 10 36 0;
#X connect 49 11 38 0;
#X connect 49 12 40 0;
#X connect 49 13 42 0;
#X connect 49 14 44 0;
#X connect 49 15 46 0;
#X connect 49 16 48 0;
#X connect 50 0 49 0;
#X connect 51 0 50 0;
#X connect 52 0 51 0;
