#N canvas 246 185 450 300 10;
#X obj 58 103 random 12;
#X obj 58 126 - 6;
#X msg 103 70 seed \$1;
#X obj 58 24 inlet;
#X obj 103 24 inlet;
#X obj 58 160 outlet;
#X connect 0 0 1 0;
#X connect 1 0 5 0;
#X connect 2 0 0 0;
#X connect 3 0 0 0;
#X connect 4 0 2 0;
