#N canvas 549 140 811 608 10;
#X obj 277 223 random 100, f 13;
#X msg 295 198 seed \$1;
#X obj 352 288 expr $f2-$f1;
#X floatatom 352 309 5 0 0 0 - - -;
#X obj 295 175 t f b;
#X msg 352 177 100;
#X obj 277 272 t f f;
#X obj 277 324 t f b;
#X obj 259 375 list store, f 11;
#X obj 277 347 list prepend;
#X obj 277 146 until;
#X msg 391 191 0;
#X obj 277 298 + 0, f 5;
#X obj 154 153 t b b;
#X obj 181 207 f 0;
#X obj 207 207 + 1;
#X obj 233 207 % 7;
#X msg 181 230 get \$1 1;
#X obj 154 256 random 100;
#X floatatom 154 440 5 0 0 0 - - -;
#X obj 154 417 <=;
#X obj 154 463 sel 0;
#X obj 154 344 f 0;
#X floatatom 154 279 5 0 0 0 - - -;
#X obj 117 491 t b b, f 20;
#X obj 259 401 spigot;
#X msg 342 385 0;
#X obj 277 122 t f b b, f 22;
#X msg 406 408 1;
#X obj 166 575 outlet;
#X obj 277 9 inlet;
#X obj 277 76 t b f, f 11;
#X obj 154 9 inlet;
#X obj 166 548 f 0;
#X obj 166 525 bang;
#X obj 486 391 spigot;
#X obj 579 390 del 20;
#X obj 486 431 print;
#X obj 486 359 t b b b, f 16;
#X obj 406 385 del 50;
#X msg 532 391 1;
#X msg 579 413 0;
#X obj 486 138 del 20;
#X obj 277 99 f \$1;
#X msg 196 463 0;
#X obj 117 525 del 5;
#X obj 277 246 expr int($f1/2)+1;
#X connect 0 0 46 0;
#X connect 1 0 0 0;
#X connect 2 0 3 0;
#X connect 3 0 0 1;
#X connect 3 0 2 1;
#X connect 4 0 1 0;
#X connect 4 1 5 0;
#X connect 4 1 8 1;
#X connect 4 1 11 0;
#X connect 5 0 0 1;
#X connect 5 0 2 1;
#X connect 6 0 12 0;
#X connect 6 1 2 0;
#X connect 7 0 9 0;
#X connect 7 0 12 1;
#X connect 7 1 8 0;
#X connect 8 0 9 1;
#X connect 8 0 25 0;
#X connect 8 0 35 0;
#X connect 9 0 8 1;
#X connect 10 0 0 0;
#X connect 11 0 12 1;
#X connect 11 0 14 1;
#X connect 12 0 7 0;
#X connect 13 0 18 0;
#X connect 13 1 14 0;
#X connect 14 0 15 0;
#X connect 14 0 17 0;
#X connect 14 0 33 1;
#X connect 15 0 16 0;
#X connect 16 0 14 1;
#X connect 17 0 8 0;
#X connect 18 0 23 0;
#X connect 19 0 21 0;
#X connect 20 0 19 0;
#X connect 21 0 24 0;
#X connect 21 1 34 0;
#X connect 21 1 44 0;
#X connect 22 0 20 0;
#X connect 23 0 22 0;
#X connect 24 0 45 0;
#X connect 24 1 14 0;
#X connect 25 0 20 1;
#X connect 26 0 25 1;
#X connect 27 0 10 0;
#X connect 27 0 16 1;
#X connect 27 1 26 0;
#X connect 27 2 39 0;
#X connect 27 2 42 0;
#X connect 28 0 25 1;
#X connect 30 0 31 0;
#X connect 31 0 43 0;
#X connect 31 1 4 0;
#X connect 32 0 13 0;
#X connect 33 0 29 0;
#X connect 34 0 33 0;
#X connect 35 0 37 0;
#X connect 36 0 41 0;
#X connect 38 0 8 0;
#X connect 38 1 40 0;
#X connect 38 2 36 0;
#X connect 39 0 28 0;
#X connect 40 0 35 1;
#X connect 41 0 35 1;
#X connect 42 0 38 0;
#X connect 43 0 27 0;
#X connect 44 0 14 1;
#X connect 45 0 22 0;
#X connect 46 0 6 0;
