#N canvas 205 132 1073 625 10;
#N canvas 0 50 450 250 (subpatch) 0;
#X array \$0-cell 8 float 3;
#A 0 0.68 2.64 3.76 5.16 6.28 7.4 5.44 2.92;
#X coords 0 13 8 -1 100 50 1 0 0;
#X restore 40 58 graph;
#X obj 40 115 tgl 15 0 empty empty empty 17 7 0 10 -262144 -1 -1 0
1;
#X obj 39 238 metro 1000, f 12;
#X floatatom 108 36 5 0 0 2 ms - -;
#X obj 80 115 hradio 15 1 0 4 empty empty empty 0 -8 0 10 -262144 -1
-1 0;
#X obj 173 151 i;
#X obj 173 128 t b f;
#X obj 200 150 + 1;
#X floatatom 173 197 5 0 0 0 - - -;
#X obj 40 261 i;
#X obj 94 261 + 1;
#X obj 165 278 % 8;
#X obj 85 336 i;
#X obj 173 174 * 1;
#X obj 41 137 vradio 15 1 0 4 empty empty empty 0 -8 0 10 -262144 -1
-1 0;
#X obj 85 472 spigot;
#X floatatom 85 518 5 0 0 0 - - -;
#X obj 118 453 tgl 15 0 empty empty empty 17 7 0 10 -262144 -1 -1 1
1;
#X obj 42 384 sel 0 1 2 3, f 122;
#X msg 42 412 0, f 2;
#X msg 64 412 1, f 2;
#X obj 191 472 spigot;
#X obj 224 453 tgl 15 0 empty empty empty 17 7 0 10 -262144 -1 -1 0
1;
#X obj 374 472 spigot;
#X obj 407 453 tgl 15 0 empty empty empty 17 7 0 10 -262144 -1 -1 0
1;
#X obj 577 472 spigot;
#X obj 610 453 tgl 15 0 empty empty empty 17 7 0 10 -262144 -1 -1 0
1;
#X msg 224 412 0, f 2;
#X msg 246 412 1, f 2;
#X msg 406 412 0, f 2;
#X msg 428 412 1, f 2;
#X msg 588 412 0, f 2;
#X msg 610 412 1, f 2;
#X text 58 135 plain;
#X floatatom 125 147 2 0 1 0 - - -;
#X obj 272 144 i;
#X obj 251 190 * \$2;
#X floatatom 293 118 5 0 0 0 - - -;
#X obj 293 174 i;
#X obj 251 236 < \$2;
#X obj 251 259 sel 1;
#X obj 251 167 + \$3;
#X obj 251 213 % 8;
#X obj 191 336 i;
#X text 70 150 sub;
#X obj 293 53 sel 7;
#X obj 293 75 bng 15 250 50 0 empty empty empty 17 7 0 10 -262144 -1
-1;
#X obj 293 95 i 8;
#X obj 321 95 - 1;
#X msg 348 95 8;
#X obj 423 145 i;
#X obj 402 191 * \$2;
#X floatatom 444 119 5 0 0 0 - - -;
#X obj 444 175 i;
#X obj 402 237 < \$2;
#X obj 402 260 sel 1;
#X obj 402 168 + \$3;
#X obj 402 214 % 8;
#X obj 444 54 sel 7;
#X obj 444 76 bng 15 250 50 0 empty empty empty 17 7 0 10 -262144 -1
-1;
#X obj 444 96 i 1;
#X obj 472 96 + 1;
#X msg 499 96 1;
#X obj 374 336 i;
#X obj 348 53 sel 1 8;
#X text 70 165 add;
#X floatatom 125 166 2 0 1 0 - - -;
#X obj 598 145 i;
#X obj 577 191 * \$2;
#X floatatom 619 119 5 0 0 0 - - -;
#X obj 619 175 i;
#X obj 577 237 < \$2;
#X obj 577 260 sel 1;
#X obj 577 168 + \$3;
#X obj 577 214 % 8;
#X obj 619 54 sel 7;
#X obj 619 76 bng 15 250 50 0 empty empty empty 17 7 0 10 -262144 -1
-1;
#X obj 619 96 random 7;
#X obj 577 336 i;
#X text 70 180 rnd;
#X obj 85 580 outlet;
#X obj 171 13 inlet;
#X obj 204 579 outlet;
#X obj 165 300 tabread \$0-cell;
#X obj 222 13 inlet;
#X msg 125 211 0;
#X obj 125 185 bng 15 250 50 0 empty empty s -7 7 0 10 -262144 -1 -1
;
#X connect 1 0 2 0;
#X connect 2 0 9 0;
#X connect 3 0 2 1;
#X connect 3 0 5 1;
#X connect 4 0 6 0;
#X connect 5 0 13 0;
#X connect 6 0 5 0;
#X connect 6 1 7 0;
#X connect 7 0 13 1;
#X connect 8 0 2 1;
#X connect 9 0 10 0;
#X connect 9 0 11 0;
#X connect 10 0 9 1;
#X connect 11 0 41 0;
#X connect 11 0 45 0;
#X connect 11 0 58 0;
#X connect 11 0 56 0;
#X connect 11 0 75 0;
#X connect 11 0 73 0;
#X connect 11 0 83 0;
#X connect 12 0 15 0;
#X connect 12 0 82 0;
#X connect 13 0 8 0;
#X connect 14 0 18 0;
#X connect 15 0 16 0;
#X connect 16 0 80 0;
#X connect 17 0 15 1;
#X connect 18 0 20 0;
#X connect 18 0 19 0;
#X connect 18 1 27 0;
#X connect 18 1 28 0;
#X connect 18 2 29 0;
#X connect 18 2 30 0;
#X connect 18 3 31 0;
#X connect 18 3 32 0;
#X connect 19 0 22 0;
#X connect 19 0 24 0;
#X connect 19 0 26 0;
#X connect 20 0 17 0;
#X connect 21 0 16 0;
#X connect 22 0 21 1;
#X connect 23 0 16 0;
#X connect 24 0 23 1;
#X connect 25 0 16 0;
#X connect 26 0 25 1;
#X connect 27 0 17 0;
#X connect 27 0 24 0;
#X connect 27 0 26 0;
#X connect 28 0 22 0;
#X connect 29 0 17 0;
#X connect 29 0 22 0;
#X connect 29 0 26 0;
#X connect 30 0 24 0;
#X connect 31 0 17 0;
#X connect 31 0 22 0;
#X connect 31 0 24 0;
#X connect 32 0 26 0;
#X connect 34 0 35 0;
#X connect 35 0 41 1;
#X connect 36 0 42 0;
#X connect 37 0 38 0;
#X connect 37 0 64 0;
#X connect 38 0 36 1;
#X connect 38 0 39 1;
#X connect 39 0 40 0;
#X connect 40 0 43 0;
#X connect 41 0 36 0;
#X connect 42 0 39 0;
#X connect 43 0 21 0;
#X connect 45 0 46 0;
#X connect 46 0 47 0;
#X connect 47 0 48 0;
#X connect 47 0 37 0;
#X connect 48 0 47 1;
#X connect 49 0 47 1;
#X connect 50 0 56 1;
#X connect 51 0 57 0;
#X connect 52 0 53 0;
#X connect 53 0 51 1;
#X connect 53 0 54 1;
#X connect 54 0 55 0;
#X connect 55 0 63 0;
#X connect 56 0 51 0;
#X connect 57 0 54 0;
#X connect 58 0 59 0;
#X connect 59 0 60 0;
#X connect 60 0 52 0;
#X connect 60 0 61 0;
#X connect 61 0 60 1;
#X connect 62 0 60 1;
#X connect 63 0 23 0;
#X connect 64 0 49 0;
#X connect 64 1 62 0;
#X connect 66 0 50 0;
#X connect 67 0 73 1;
#X connect 68 0 74 0;
#X connect 69 0 70 0;
#X connect 70 0 68 1;
#X connect 70 0 71 1;
#X connect 71 0 72 0;
#X connect 72 0 78 0;
#X connect 73 0 68 0;
#X connect 74 0 71 0;
#X connect 75 0 76 0;
#X connect 76 0 77 0;
#X connect 77 0 69 0;
#X connect 78 0 25 0;
#X connect 81 0 1 0;
#X connect 83 0 43 1;
#X connect 83 0 12 0;
#X connect 83 0 63 1;
#X connect 83 0 78 1;
#X connect 84 0 14 0;
#X connect 85 0 9 1;
#X connect 86 0 85 0;
#X coords 0 -1 1 1 120 195 1 30 10;
