#N canvas 545 116 731 641 10;
#X obj 139 360 i 0;
#X obj 169 360 + 1;
#X msg 154 287 0;
#X obj 208 265 i 0;
#X obj 234 265 + 1;
#X obj 208 288 sel 0;
#X obj 260 265 % 4;
#X obj 139 406 + 0;
#X obj 139 14 inlet;
#X obj 139 87 i 0;
#X obj 167 87 + 1;
#X obj 139 110 div 16;
#X obj 139 133 change -1;
#X obj 275 97 nbx 2 15 1 32 0 0 empty empty div 0 -8 0 10 -262144 -1
-1 1 256;
#X obj 139 156 t b b, f 12;
#X obj 306 97 nbx 2 15 2 6 0 0 empty empty chrd 0 -8 0 10 -262144 -1
-1 4 256;
#X obj 184 337 + 3;
#X obj 139 180 i 4;
#X msg 139 203 \$1;
#X obj 139 226 until;
#X obj 399 97 nbx 5 15 0 100000 0 0 empty empty seed 0 -8 0 10 -228856
-1 -1 10000 256;
#X obj 94 480 route 0 1 2 3 4 5, f 48;
#X obj 94 454 pack 0 0;
#X obj 139 249 t b b, f 8;
#X obj 55 360 i 0;
#X obj 81 360 + 1;
#X obj 107 360 % 4;
#X msg 353 298 seed \$1;
#X obj 139 429 + 45;
#X obj 257 97 bng 15 250 50 0 empty empty empty 17 7 0 10 -262144 -1
-1;
#X obj 94 552 outlet;
#X obj 141 552 outlet;
#X obj 189 552 outlet;
#X obj 236 552 outlet;
#X obj 284 552 outlet;
#X obj 331 552 outlet;
#X obj 368 97 nbx 2 15 30 60 0 0 empty empty off 0 -8 0 10 -262144
-1 -1 55 256;
#X obj 379 552 outlet;
#X obj 353 274 f;
#X obj 208 390 random 21;
#X obj 184 314 random 4;
#X obj 353 172 i 0;
#X obj 379 172 + 1;
#X obj 353 195 sel 0;
#X obj 405 172 % 4;
#X obj 337 97 nbx 2 15 2 10 0 0 empty empty seq 0 -8 0 10 -262144 -1
-1 6 256;
#X obj 399 14 inlet;
#X obj 357 14 inlet;
#X connect 0 0 1 0;
#X connect 0 0 7 0;
#X connect 1 0 0 1;
#X connect 2 0 0 1;
#X connect 3 0 4 0;
#X connect 3 0 5 0;
#X connect 4 0 6 0;
#X connect 5 0 2 0;
#X connect 5 0 39 0;
#X connect 6 0 3 1;
#X connect 7 0 28 0;
#X connect 8 0 9 0;
#X connect 9 0 10 0;
#X connect 9 0 11 0;
#X connect 10 0 9 1;
#X connect 11 0 12 0;
#X connect 12 0 14 0;
#X connect 13 0 11 1;
#X connect 14 0 17 0;
#X connect 14 1 29 0;
#X connect 14 1 41 0;
#X connect 15 0 17 1;
#X connect 15 0 26 1;
#X connect 15 0 6 1;
#X connect 16 0 1 1;
#X connect 17 0 18 0;
#X connect 18 0 19 0;
#X connect 19 0 23 0;
#X connect 20 0 38 1;
#X connect 21 0 30 0;
#X connect 21 1 31 0;
#X connect 21 2 32 0;
#X connect 21 3 33 0;
#X connect 21 4 34 0;
#X connect 21 5 35 0;
#X connect 21 6 37 0;
#X connect 22 0 21 0;
#X connect 23 0 0 0;
#X connect 23 0 24 0;
#X connect 23 1 3 0;
#X connect 23 1 40 0;
#X connect 24 0 25 0;
#X connect 24 0 22 0;
#X connect 25 0 26 0;
#X connect 26 0 24 1;
#X connect 27 0 39 0;
#X connect 27 0 40 0;
#X connect 28 0 22 1;
#X connect 36 0 28 1;
#X connect 38 0 27 0;
#X connect 39 0 7 1;
#X connect 40 0 16 0;
#X connect 41 0 42 0;
#X connect 41 0 43 0;
#X connect 42 0 44 0;
#X connect 43 0 38 0;
#X connect 44 0 41 1;
#X connect 45 0 44 1;
#X connect 46 0 20 0;
#X connect 47 0 36 0;
#X coords 0 -1 1 1 210 60 1 250 60;
