#N canvas 579 171 643 572 10;
#X obj 54 30 inlet;
#X obj 54 63 t f b f, f 18;
#X obj 72 137 f 0;
#X obj 98 137 + 1;
#X obj 106 280 t b f, f 7;
#X obj 158 280 sel 0;
#X msg 172 99 1;
#X msg 210 167 0;
#X obj 172 30 inlet;
#X obj 106 350 list prepend;
#X obj 106 389 list store;
#X obj 106 304 i 0;
#X obj 106 327 t f b;
#X obj 124 137 % 4;
#X obj 211 98 i \$1;
#X obj 211 121 + 1;
#X obj 211 63 loadbang;
#X obj 172 373 bang;
#X obj 72 206 pack 0 0, f 12;
#X obj 72 229 route 0 1, f 12;
#X msg 37 304 get \$1 1;
#X obj 72 160 t b f, f 12;
#X obj 72 183 i 0;
#X floatatom 37 281 5 0 0 0 - - -;
#X obj 106 444 spigot;
#X obj 139 420 == 0;
#X obj 55 481 outlet;
#X obj 106 481 outlet;
#X obj 87 90 r sync;
#X msg 87 113 0;
#X connect 0 0 1 0;
#X connect 1 0 26 0;
#X connect 1 1 2 0;
#X connect 1 2 11 1;
#X connect 2 0 3 0;
#X connect 2 0 21 0;
#X connect 3 0 13 0;
#X connect 4 0 11 0;
#X connect 4 1 5 0;
#X connect 5 0 7 0;
#X connect 6 0 17 0;
#X connect 6 0 22 1;
#X connect 6 0 25 0;
#X connect 7 0 22 1;
#X connect 7 0 25 0;
#X connect 8 0 6 0;
#X connect 9 0 10 1;
#X connect 10 0 9 1;
#X connect 10 0 24 0;
#X connect 11 0 12 0;
#X connect 12 0 9 0;
#X connect 12 1 10 0;
#X connect 13 0 2 1;
#X connect 14 0 15 0;
#X connect 15 0 13 1;
#X connect 16 0 14 0;
#X connect 17 0 10 1;
#X connect 18 0 19 0;
#X connect 19 0 23 0;
#X connect 19 1 4 0;
#X connect 20 0 10 0;
#X connect 21 0 22 0;
#X connect 21 1 18 1;
#X connect 22 0 18 0;
#X connect 23 0 20 0;
#X connect 24 0 27 0;
#X connect 25 0 24 1;
#X connect 28 0 29 0;
#X connect 29 0 2 1;
