#N canvas 602 298 450 300 10;
#X obj 54 9 inlet~;
#X obj 159 9 inlet~;
#X obj 55 265 outlet~;
#X obj 55 214 +~;
#X obj 55 237 hip~ 5;
#X msg 70 133 1 500;
#X obj 70 166 line~;
#X obj 55 188 *~;
#X msg 114 133 0 500;
#X msg 175 133 1 500;
#X msg 219 133 0 500;
#X obj 175 165 line~;
#X obj 160 197 *~;
#X obj 70 62 hradio 15 1 0 2 empty empty empty 0 -8 0 10 -262144 -1
-1 0;
#X obj 70 106 sel 0, f 18;
#X connect 0 0 7 0;
#X connect 1 0 12 0;
#X connect 3 0 4 0;
#X connect 4 0 2 0;
#X connect 5 0 6 0;
#X connect 6 0 7 1;
#X connect 7 0 3 0;
#X connect 8 0 6 0;
#X connect 9 0 11 0;
#X connect 10 0 11 0;
#X connect 11 0 12 1;
#X connect 12 0 3 1;
#X connect 13 0 14 0;
#X connect 14 0 5 0;
#X connect 14 0 10 0;
#X connect 14 1 8 0;
#X connect 14 1 9 0;
#X coords 0 -1 1 1 70 50 1 50 40;
