#N canvas 446 244 708 450 10;
#X obj 75 21 inlet;
#X obj 75 100 t b;
#X obj 75 205 f 0;
#X obj 101 205 + 1;
#X obj 128 205 % 2;
#X obj 75 329 outlet;
#X obj 143 21 loadbang;
#X obj 143 100 t b b;
#X obj 212 21 inlet;
#X msg 212 113 seed \$1;
#X obj 212 44 t f b;
#X obj 143 178 + 1;
#X obj 75 253 f 0, f 7;
#X obj 143 155 random 23;
#X obj 75 228 sel 0;
#X connect 0 0 1 0;
#X connect 1 0 2 0;
#X connect 2 0 3 0;
#X connect 2 0 14 0;
#X connect 3 0 4 0;
#X connect 4 0 2 1;
#X connect 6 0 7 0;
#X connect 7 0 13 0;
#X connect 8 0 10 0;
#X connect 9 0 13 0;
#X connect 10 0 9 0;
#X connect 10 1 7 0;
#X connect 11 0 4 1;
#X connect 12 0 5 0;
#X connect 13 0 11 0;
#X connect 13 0 12 1;
#X connect 14 0 12 0;
