#N canvas 638 295 450 418 10;
#X obj 48 166 f 0;
#X obj 75 166 + 1;
#X obj 102 166 % 8;
#X obj 48 213 sel 0;
#X obj 48 236 i 0;
#X msg 63 143 0;
#X obj 48 279 t b f, f 13;
#X obj 48 318 outlet;
#X obj 123 318 outlet;
#X obj 48 20 inlet;
#X obj 48 90 bng 15 250 50 0 empty empty in 0 22 0 10 -262144 -228856
-1;
#X obj 176 90 bng 15 250 50 0 empty empty out 0 22 0 10 -262144 -1
-1;
#X obj 67 90 nbx 2 15 1 99 0 0 empty empty every 0 22 0 10 -228856
-1 -1 1 256;
#X obj 88 20 inlet;
#X obj 99 90 nbx 5 15 -1e+37 1e+37 0 0 empty empty seed 0 22 0 10 -1
-262144 -1 0 256;
#X obj 100 228 random 99999;
#X obj 100 251 spigot;
#X obj 157 90 tgl 15 0 empty empty rnd 0 22 0 10 -262144 -1 -1 0 1
;
#X obj 48 189 t f f;
#X obj 109 205 sel 1, f 10;
#X obj 166 166 - 1;
#X connect 0 0 1 0;
#X connect 0 0 18 0;
#X connect 1 0 2 0;
#X connect 2 0 0 1;
#X connect 3 0 4 0;
#X connect 4 0 6 0;
#X connect 5 0 0 1;
#X connect 6 0 7 0;
#X connect 6 0 11 0;
#X connect 6 1 8 0;
#X connect 9 0 10 0;
#X connect 10 0 0 0;
#X connect 12 0 2 1;
#X connect 12 0 20 0;
#X connect 13 0 12 0;
#X connect 14 0 4 1;
#X connect 15 0 16 0;
#X connect 16 0 14 0;
#X connect 17 0 16 1;
#X connect 18 0 3 0;
#X connect 18 1 19 0;
#X connect 19 0 15 0;
#X connect 20 0 19 1;
#X coords 0 -1 1 1 160 70 1 40 55;
