#N canvas 115 202 450 489 10;
#X obj 47 83 t f b b;
#X obj 86 106 f 0;
#X obj 112 106 + 1;
#X obj 138 106 % \$1;
#X obj 86 129 sel 0;
#X obj 86 152 i 0;
#X msg 86 175 seed \$1;
#X obj 47 370 + 0;
#X obj 66 211 random 4;
#X obj 66 234 sel 0 1 2;
#X obj 47 418 outlet;
#X obj 47 18 inlet;
#X obj 101 18 inlet;
#X obj 62 257 f 0;
#X obj 83 283 f \$2;
#X obj 100 306 f \$2;
#X obj 100 329 * -1;
#X obj 117 354 f 0;
#X connect 0 0 7 0;
#X connect 0 1 8 0;
#X connect 0 2 1 0;
#X connect 1 0 2 0;
#X connect 1 0 4 0;
#X connect 2 0 3 0;
#X connect 3 0 1 1;
#X connect 4 0 5 0;
#X connect 5 0 6 0;
#X connect 6 0 8 0;
#X connect 7 0 10 0;
#X connect 8 0 9 0;
#X connect 9 0 13 0;
#X connect 9 1 14 0;
#X connect 9 2 15 0;
#X connect 9 3 17 0;
#X connect 11 0 0 0;
#X connect 12 0 5 1;
#X connect 13 0 7 1;
#X connect 14 0 7 1;
#X connect 15 0 16 0;
#X connect 16 0 7 1;
#X connect 17 0 7 1;
