#N canvas 134 247 1106 460 10;
#X obj 136 36 bng 15 250 50 0 empty empty empty 17 7 0 10 -262144 -1
-1;
#X obj 70 156 random 10000;
#X obj 140 77 hsl 50 15 0 1 0 0 empty empty D-f 55 8 0 10 -228856 -1
-1 0 1;
#X floatatom 136 233 8 0 0 0 - - -;
#X obj 136 188 *;
#X obj 136 255 *;
#X floatatom 136 279 5 0 0 0 - - -;
#X floatatom 136 325 8 0 0 0 - - -;
#X obj 136 302 +;
#X obj 136 346 /;
#X floatatom 136 369 8 0 0 0 - - -;
#X obj 535 59 noise~;
#X obj 465 117 bp~ 500 50;
#X obj 465 140 bp~ 500 50;
#X obj 465 164 bp~ 500 50;
#X obj 534 117 bp~ 500 50;
#X obj 534 140 bp~ 500 50;
#X obj 534 164 bp~ 500 50;
#X obj 603 117 bp~ 500 50;
#X obj 603 140 bp~ 500 50;
#X obj 603 164 bp~ 500 50;
#X obj 672 117 bp~ 500 50;
#X obj 672 140 bp~ 500 50;
#X obj 672 164 bp~ 500 50;
#X obj 534 204 lop~ 500;
#X obj 140 96 hsl 50 15 0 1000 0 0 empty empty lpf 55 8 0 10 -262144
-1 -1 0 1;
#X obj 535 260 *~;
#X obj 673 260 vline~;
#X obj 674 285 *~;
#X obj 673 214 f 50;
#X floatatom 160 36 5 50 5000 1 decay - -;
#X obj 552 305 delwrite~ \$0-b 5000;
#X floatatom 160 56 5 0 5000 1 feed - -;
#X obj 612 352 sig~;
#X obj 612 375 delread4~ \$0-b;
#X obj 490 378 *~ 0.5;
#X obj 410 280 random 100;
#X obj 410 303 / 100;
#X floatatom 410 326 5 0 0 0 - - -;
#X floatatom 410 371 5 0 0 0 - - -;
#X obj 410 348 expr 1-$f1;
#X obj 536 354 *~ 0.5;
#X obj 53 20 inlet;
#X obj 612 398 *~ 0.5;
#X msg 673 237 1 10 \, 0 \$1 10;
#X obj 534 226 lop~ 500;
#X obj 535 280 clip~ -1 1;
#X obj 210 256 line;
#X msg 210 233 \$1 10;
#X obj 210 302 line;
#X msg 210 279 \$1 10;
#X obj 210 348 line;
#X msg 210 325 \$1 10;
#X obj 209 393 line;
#X msg 209 370 \$1 10;
#X obj 537 425 outlet~;
#X obj 737 416 outlet;
#X obj 837 416 outlet;
#X connect 0 0 1 0;
#X connect 0 0 29 0;
#X connect 0 0 36 0;
#X connect 1 0 4 0;
#X connect 2 0 4 1;
#X connect 2 0 5 1;
#X connect 2 0 9 1;
#X connect 3 0 5 0;
#X connect 3 0 8 0;
#X connect 3 0 9 0;
#X connect 3 0 48 0;
#X connect 4 0 3 0;
#X connect 5 0 6 0;
#X connect 6 0 8 1;
#X connect 6 0 50 0;
#X connect 7 0 52 0;
#X connect 8 0 7 0;
#X connect 9 0 10 0;
#X connect 10 0 54 0;
#X connect 11 0 12 0;
#X connect 11 0 15 0;
#X connect 11 0 18 0;
#X connect 11 0 21 0;
#X connect 12 0 13 0;
#X connect 13 0 14 0;
#X connect 14 0 24 0;
#X connect 15 0 16 0;
#X connect 16 0 17 0;
#X connect 17 0 24 0;
#X connect 18 0 19 0;
#X connect 19 0 20 0;
#X connect 20 0 24 0;
#X connect 21 0 22 0;
#X connect 22 0 23 0;
#X connect 23 0 24 0;
#X connect 24 0 45 0;
#X connect 25 0 24 1;
#X connect 25 0 45 1;
#X connect 26 0 46 0;
#X connect 27 0 28 0;
#X connect 27 0 28 1;
#X connect 28 0 26 1;
#X connect 29 0 44 0;
#X connect 30 0 29 1;
#X connect 32 0 33 0;
#X connect 33 0 34 0;
#X connect 34 0 43 0;
#X connect 35 0 55 0;
#X connect 36 0 37 0;
#X connect 37 0 38 0;
#X connect 38 0 35 1;
#X connect 38 0 40 0;
#X connect 38 0 56 0;
#X connect 39 0 41 1;
#X connect 39 0 57 0;
#X connect 40 0 39 0;
#X connect 41 0 55 0;
#X connect 42 0 0 0;
#X connect 43 0 31 0;
#X connect 43 0 55 0;
#X connect 44 0 27 0;
#X connect 45 0 26 0;
#X connect 46 0 31 0;
#X connect 46 0 35 0;
#X connect 46 0 41 0;
#X connect 47 0 12 1;
#X connect 47 0 14 1;
#X connect 47 0 13 1;
#X connect 48 0 47 0;
#X connect 49 0 15 1;
#X connect 49 0 17 1;
#X connect 49 0 16 1;
#X connect 50 0 49 0;
#X connect 51 0 18 1;
#X connect 51 0 20 1;
#X connect 51 0 19 1;
#X connect 52 0 51 0;
#X connect 53 0 21 1;
#X connect 53 0 23 1;
#X connect 53 0 22 1;
#X connect 54 0 53 0;
#X coords 0 -1 1 1 100 110 1 130 10;
