#N canvas 419 176 853 558 10;
#X obj 305 106 until;
#X obj 305 152 f 0;
#X msg 383 106 0;
#X obj 305 129 t b b, f 11;
#X obj 368 152 f 0;
#X obj 394 152 + 1;
#X obj 368 198 sel 0;
#X obj 368 221 f 0;
#X obj 394 221 + 1;
#X obj 305 283 t f b, f 10;
#X obj 178 337 list store;
#X obj 458 324 bng 15 250 50 0 empty empty empty 17 7 0 10 -262144
-1 -1;
#X obj 305 260 % 12;
#X obj 305 306 list prepend;
#X obj 305 237 +;
#X obj 305 62 + 1;
#X obj 305 83 t f b b, f 26;
#X obj 331 152 + \$1;
#X obj 368 175 div \$2;
#X obj 178 383 spigot;
#X obj 305 12 inlet;
#X obj 178 12 inlet;
#X obj 178 35 f 0;
#X obj 178 58 + 1;
#X obj 458 344 t b b;
#X msg 458 367 0;
#X obj 485 367 del 250;
#X msg 485 390 1;
#X obj 407 25 loadbang;
#X msg 305 41 28;
#X obj 178 81 % 24;
#X obj 178 104 t f b;
#X obj 223 120 random 4;
#X obj 223 143 + 1;
#X obj 178 167 pack 0 0;
#X msg 178 190 get \$1 \$2;
#X obj 178 409 unpack 0 0 0 0, f 33;
#X obj 243 434 - 12;
#X obj 243 457 outlet;
#X obj 308 457 outlet;
#X obj 373 457 outlet;
#X obj 373 434 + 24;
#X obj 178 457 outlet;
#X obj 178 434 + 0;
#X obj 308 434 + 12;
#X connect 0 0 3 0;
#X connect 1 0 14 0;
#X connect 1 0 17 0;
#X connect 2 0 4 1;
#X connect 3 0 1 0;
#X connect 3 1 4 0;
#X connect 4 0 5 0;
#X connect 4 0 18 0;
#X connect 5 0 4 1;
#X connect 6 0 7 0;
#X connect 7 0 8 0;
#X connect 7 0 14 1;
#X connect 8 0 7 1;
#X connect 9 0 13 0;
#X connect 9 1 10 0;
#X connect 10 0 13 1;
#X connect 10 0 19 0;
#X connect 11 0 10 1;
#X connect 11 0 24 0;
#X connect 12 0 9 0;
#X connect 13 0 10 1;
#X connect 14 0 12 0;
#X connect 15 0 16 0;
#X connect 16 0 0 0;
#X connect 16 1 2 0;
#X connect 16 2 11 0;
#X connect 17 0 1 1;
#X connect 18 0 6 0;
#X connect 19 0 36 0;
#X connect 20 0 29 0;
#X connect 21 0 22 0;
#X connect 22 0 23 0;
#X connect 23 0 30 0;
#X connect 24 0 25 0;
#X connect 24 1 26 0;
#X connect 25 0 19 1;
#X connect 26 0 27 0;
#X connect 27 0 19 1;
#X connect 28 0 29 0;
#X connect 29 0 15 0;
#X connect 30 0 22 1;
#X connect 30 0 31 0;
#X connect 31 0 34 0;
#X connect 31 1 32 0;
#X connect 32 0 33 0;
#X connect 33 0 34 1;
#X connect 34 0 35 0;
#X connect 35 0 10 0;
#X connect 36 0 43 0;
#X connect 36 1 37 0;
#X connect 36 2 44 0;
#X connect 36 3 41 0;
#X connect 37 0 38 0;
#X connect 41 0 40 0;
#X connect 43 0 42 0;
#X connect 44 0 39 0;
