#N canvas 451 138 828 624 10;
#X obj 181 100 bng 15 250 50 0 empty empty empty 17 7 0 10 -262144
-1 -1;
#X obj 181 46 t b f;
#X floatatom 208 336 5 0 0 0 - - -;
#X obj 208 200 % 12, f 5;
#X obj 208 223 t f f, f 18;
#X floatatom 311 246 5 0 0 0 - - -;
#X obj 323 314 -;
#X obj 311 291 f;
#X obj 311 268 t b f;
#X floatatom 323 336 5 0 0 0 - - -;
#X obj 235 178 * 12;
#X obj 235 100 hradio 15 1 0 4 empty empty oct 65 8 0 10 -262144 -1
-1 3;
#X obj 235 156 + 1;
#X floatatom 202 100 3 1 127 1 r - -;
#X obj 208 358 +;
#X obj 323 358 +;
#X floatatom 208 381 5 0 0 0 - - -;
#X floatatom 323 381 5 0 0 0 - - -;
#X obj 208 403 mtof;
#X obj 323 403 mtof;
#X obj 323 450 expr~ $v1>$v2;
#X obj 208 451 expr~ $v1>$v2;
#X floatatom 181 121 4 0 1 1 t - -;
#X obj 398 426 expr 1-$f1;
#X obj 323 426 osc~;
#X floatatom 222 121 5 0 0 1 vcf - -;
#X obj 376 223 sig~;
#X obj 209 502 vcf~ 1;
#X floatatom 144 398 5 0 0 0 - - -;
#X obj 208 426 phasor~;
#X obj 144 376 + 2;
#X obj 209 474 *~ 0.5;
#X obj 323 473 *~ 0.5;
#X obj 323 502 vcf~ 1;
#X floatatom 427 396 5 0 0 0 - - -;
#X obj 427 374 + 2;
#X obj 376 246 *~;
#X obj 422 231 osc~ 0.5;
#X floatatom 279 121 3 0 0 1 wah - -;
#X obj 209 547 outlet~;
#X obj 181 19 inlet;
#X connect 1 0 0 0;
#X connect 1 1 3 0;
#X connect 2 0 14 0;
#X connect 2 0 30 0;
#X connect 3 0 4 0;
#X connect 4 0 2 0;
#X connect 4 1 5 0;
#X connect 5 0 8 0;
#X connect 6 0 9 0;
#X connect 7 0 6 0;
#X connect 8 0 7 0;
#X connect 8 1 6 1;
#X connect 9 0 15 0;
#X connect 9 0 35 0;
#X connect 10 0 3 1;
#X connect 10 0 7 1;
#X connect 11 0 12 0;
#X connect 12 0 10 0;
#X connect 13 0 14 1;
#X connect 13 0 15 1;
#X connect 14 0 16 0;
#X connect 15 0 17 0;
#X connect 16 0 18 0;
#X connect 17 0 19 0;
#X connect 18 0 29 0;
#X connect 19 0 24 0;
#X connect 20 0 32 0;
#X connect 21 0 31 0;
#X connect 22 0 21 1;
#X connect 22 0 23 0;
#X connect 23 0 20 1;
#X connect 24 0 20 0;
#X connect 25 0 26 0;
#X connect 26 0 36 0;
#X connect 27 0 39 0;
#X connect 28 0 27 2;
#X connect 29 0 21 0;
#X connect 31 0 27 0;
#X connect 32 0 33 0;
#X connect 33 0 39 0;
#X connect 34 0 33 2;
#X connect 35 0 34 0;
#X connect 36 0 27 1;
#X connect 36 0 33 1;
#X connect 37 0 36 1;
#X connect 38 0 37 0;
#X connect 40 0 1 0;
#X coords 0 -1 1 1 150 70 1 174 75;
