#N canvas 93 188 629 563 10;
#X obj 80 226 snapshot~;
#X obj 80 271 *~ 9999;
#X obj 71 309 vcf~;
#X obj 35 271 noise~;
#X obj 132 293 + 3;
#X obj 133 321 random 15;
#X obj 141 342 random 100;
#X obj 133 365 pack f f;
#X msg 133 387 1 \$1 \, 0 \$2 \$1;
#X obj 133 409 vline~;
#X obj 133 432 *~;
#X obj 71 449 *~;
#X obj 80 66 bng 15 250 50 0 empty empty empty 17 7 0 10 -262144 -1
-1;
#X floatatom 80 249 5 0 0 0 - - -;
#X floatatom 102 129 5 0 0 1 att - -;
#X floatatom 102 150 5 0 0 1 rel - -;
#X obj 132 271 random 10;
#X floatatom 102 108 3 0 0 1 Q - -;
#X floatatom 102 87 3 0 2 1 phase - -;
#X obj 80 11 inlet;
#X obj 164 68 vsl 15 95 0.01 1 1 0 empty empty empty 0 -9 0 10 -262144
-1 -1 6300 1;
#X obj 71 474 *~;
#X obj 70 531 outlet~;
#X obj 80 203 phasor~ 0.2;
#X floatatom 102 67 3 0 5 1 freq - -;
#X connect 0 0 13 0;
#X connect 1 0 2 1;
#X connect 2 0 11 0;
#X connect 3 0 2 0;
#X connect 4 0 2 2;
#X connect 5 0 7 0;
#X connect 6 0 7 1;
#X connect 7 0 8 0;
#X connect 8 0 9 0;
#X connect 9 0 10 0;
#X connect 9 0 10 1;
#X connect 10 0 11 1;
#X connect 11 0 21 0;
#X connect 12 0 16 0;
#X connect 12 0 5 0;
#X connect 12 0 6 0;
#X connect 12 0 0 0;
#X connect 13 0 1 0;
#X connect 14 0 5 1;
#X connect 15 0 6 1;
#X connect 16 0 4 0;
#X connect 17 0 4 1;
#X connect 18 0 23 1;
#X connect 19 0 12 0;
#X connect 20 0 21 1;
#X connect 21 0 22 0;
#X connect 23 0 0 0;
#X connect 24 0 23 0;
#X coords 0 -1 1 1 120 135 1 70 40;
