#N canvas 353 288 450 300 10;
#X obj 62 116 abs;
#X obj 62 93 expr ((($f1-0)*$f2)/(1-0));
#X obj 62 139 i;
#X obj 62 23 inlet;
#X obj 215 69 f \$1;
#X obj 62 162 + 0;
#X obj 62 235 outlet;
#X obj 92 148 f \$2;
#X obj 92 53 loadbang;
#X connect 0 0 2 0;
#X connect 1 0 0 0;
#X connect 2 0 5 0;
#X connect 3 0 1 0;
#X connect 4 0 1 1;
#X connect 5 0 6 0;
#X connect 7 0 5 1;
#X connect 8 0 4 0;
#X connect 8 0 7 0;
