#N canvas 209 300 799 462 10;
#X obj 79 53 clip 0 1;
#X obj 79 139 metro;
#X obj 79 161 f 0;
#X obj 105 161 + 1;
#X obj 131 161 % 2;
#X obj 79 19 inlet;
#X obj 241 19 inlet;
#X obj 241 53 t a a;
#X obj 241 145 list length;
#X obj 211 200 list store;
#X msg 79 184 get \$1 1;
#X obj 211 362 outlet;
#X obj 211 228 t f f, f 6;
#X obj 211 278 spigot;
#X obj 153 100 + 1;
#X obj 153 19 loadbang;
#X obj 153 123 *, f 6;
#X obj 153 53 t b b, f 6;
#X obj 186 77 f \$2;
#X obj 153 77 f \$1;
#X obj 244 253 >= 0;
#X obj 211 326 + 0;
#X obj 94 94 r sync;
#X msg 94 117 0;
#X obj 226 106 f \$3;
#X connect 0 0 1 0;
#X connect 1 0 2 0;
#X connect 2 0 3 0;
#X connect 2 0 10 0;
#X connect 3 0 4 0;
#X connect 4 0 2 1;
#X connect 5 0 0 0;
#X connect 6 0 7 0;
#X connect 7 0 8 0;
#X connect 7 1 9 1;
#X connect 8 0 4 1;
#X connect 9 0 12 0;
#X connect 10 0 9 0;
#X connect 12 0 13 0;
#X connect 12 1 20 0;
#X connect 13 0 21 0;
#X connect 14 0 16 0;
#X connect 15 0 17 0;
#X connect 16 0 1 1;
#X connect 17 0 19 0;
#X connect 17 1 18 0;
#X connect 17 1 24 0;
#X connect 18 0 16 1;
#X connect 19 0 14 0;
#X connect 20 0 13 1;
#X connect 21 0 11 0;
#X connect 22 0 23 0;
#X connect 23 0 2 1;
#X connect 24 0 21 1;
