#N canvas 6 116 960 595 10;
#X obj 117 223 phasor~;
#X obj 117 246 *~ 2;
#X obj 117 269 -~ 1;
#X obj 117 154 osc~;
#X obj 117 177 *~;
#X obj 117 200 +~;
#X obj 156 161 * 1;
#X obj 198 184 t f b f;
#X obj 255 264 osc~;
#X obj 255 287 *~;
#X obj 255 310 +~;
#X obj 294 271 * 1;
#X obj 336 294 t f b f;
#X obj 117 327 vcf~ 1;
#X obj 395 262 osc~;
#X obj 395 285 +~ 1;
#X obj 395 308 /~ 2;
#X obj 395 331 *~ 1;
#X obj 395 354 expr~ 1 - $v1;
#X obj 151 369 *~;
#X obj 63 78 hsl 50 15 0 5 0 0 empty empty empty -2 -8 0 10 -262144
-1 -1 0 1;
#X obj 117 78 nbx 4 15 0 99 0 0 empty empty empty 0 -8 0 10 -262144
-1 -1 0 256;
#X obj 63 96 hsl 50 15 0 5 0 0 empty empty empty -2 -8 0 10 -228856
-1 -1 2200 1;
#X obj 117 96 nbx 4 15 0 99 0 0 empty empty empty 0 -8 0 10 -228856
-1 -1 2.2449 256;
#X obj 63 114 hsl 50 15 0 127 0 0 empty empty empty -2 -8 0 10 -191407
-1 -1 2600 1;
#X obj 117 114 nbx 4 15 0 3000 0 0 empty empty empty 0 -8 0 10 -191407
-1 -1 67.3878 256;
#X obj 198 155 mtof;
#X obj 336 264 mtof;
#X obj 173 78 hsl 50 15 0 5 0 0 empty empty empty -2 -8 0 10 -262144
-1 -1 0 1;
#X obj 227 78 nbx 4 15 0 99 0 0 empty empty empty 0 -8 0 10 -262144
-1 -1 0 256;
#X obj 173 96 hsl 50 15 0 5 0 0 empty empty empty -2 -8 0 10 -228856
-1 -1 3300 1;
#X obj 227 96 nbx 4 15 0 99 0 0 empty empty empty 0 -8 0 10 -228856
-1 -1 3.36735 256;
#X obj 173 114 hsl 50 15 0 127 0 0 empty empty empty -2 -8 0 10 -191407
-1 -1 2400 1;
#X obj 227 114 nbx 4 15 0 3000 0 0 empty empty empty 0 -8 0 10 -191407
-1 -1 62.2041 256;
#X obj 283 78 hsl 50 15 0 5 0 0 empty empty empty -2 -8 0 10 -262144
-1 -1 0 1;
#X obj 337 78 nbx 4 15 0 99 0 0 empty empty empty 0 -8 0 10 -262144
-1 -1 0 256;
#X obj 283 96 hsl 50 15 0 2 0 0 empty empty empty -2 -8 0 10 -228856
-1 -1 2900 1;
#X obj 337 96 nbx 4 15 0 99 0 0 empty empty empty 0 -8 0 10 -228856
-1 -1 1.18367 256;
#X text 58 59 FM -------------;
#X text 168 59 VCF ------------;
#X text 278 59 AM -------------;
#X text 384 80 Hrz;
#X text 384 98 Idx;
#X text 385 117 Frq;
#X obj 117 5 inlet;
#X obj 150 516 outlet~;
#X connect 0 0 1 0;
#X connect 1 0 2 0;
#X connect 2 0 13 0;
#X connect 3 0 4 0;
#X connect 4 0 5 0;
#X connect 5 0 0 0;
#X connect 6 0 4 1;
#X connect 7 0 5 1;
#X connect 7 2 6 1;
#X connect 8 0 9 0;
#X connect 9 0 10 0;
#X connect 10 0 13 1;
#X connect 11 0 9 1;
#X connect 12 0 10 1;
#X connect 12 1 31 0;
#X connect 12 2 11 1;
#X connect 13 1 19 0;
#X connect 14 0 15 0;
#X connect 15 0 16 0;
#X connect 16 0 17 0;
#X connect 17 0 18 0;
#X connect 18 0 19 1;
#X connect 19 0 45 0;
#X connect 20 0 21 0;
#X connect 21 0 3 0;
#X connect 22 0 23 0;
#X connect 23 0 6 0;
#X connect 24 0 25 0;
#X connect 25 0 26 0;
#X connect 26 0 7 0;
#X connect 27 0 12 0;
#X connect 28 0 29 0;
#X connect 29 0 8 0;
#X connect 30 0 31 0;
#X connect 31 0 11 0;
#X connect 32 0 33 0;
#X connect 33 0 27 0;
#X connect 34 0 35 0;
#X connect 35 0 14 0;
#X connect 36 0 37 0;
#X connect 37 0 17 1;
#X connect 44 0 25 0;
#X coords 0 -1 1 1 360 110 1 50 30;
