#N canvas 0 116 1366 652 10;
#X obj 20 93 metro;
#X obj 20 162 f 0;
#X obj 45 162 + 1;
#X obj 70 162 % 12;
#X obj 20 273 sel 1;
#X obj 20 296 i 0;
#X obj 35 117 r sync;
#X msg 35 139 0;
#X floatatom 917 363 5 0 0 0 - - -;
#X floatatom 987 363 5 0 0 0 - - -;
#X floatatom 1059 363 5 0 0 0 - - -;
#X obj 147 93 metro;
#X obj 147 162 f 0;
#X obj 172 162 + 1;
#X obj 197 162 % 12;
#X obj 147 274 sel 1;
#X obj 162 117 r sync;
#X msg 162 139 0;
#X obj 174 70 *;
#X floatatom 975 102 5 0 0 0 - - -;
#X obj 200 70 r r;
#X obj 20 70 r c;
#X obj 147 70 r c;
#X obj 147 297 i 1;
#X obj 20 319 s n;
#X obj 147 320 s n;
#X obj 864 126 s c;
#X obj 1002 196 s r;
#X floatatom 1060 126 5 0 0 0 - - -;
#X obj 1060 193 outlet;
#X obj 1060 103 r n;
#X obj 1002 149 / 100;
#X obj 1002 172 + 1;
#X floatatom 931 102 5 0 0 0 - - -;
#X obj 916 196 s t;
#X obj 47 70 r t;
#X obj 975 124 t b f;
#X obj 916 174 i 0;
#X obj 864 32 inlet;
#X obj 864 102 clip 0 1;
#X obj 931 76 f \$1;
#X obj 975 76 f \$2;
#X obj 975 32 inlet;
#X obj 917 240 f \$3;
#X obj 917 286 expr if($f1>=0 \, $f1 \, -1);
#X obj 987 309 expr if($f1>=0 \, $f1 \, -1);
#X obj 987 240 f \$4;
#X obj 1059 330 expr if($f1>=0 \, $f1 \, -1);
#X obj 1059 240 f \$5;
#X floatatom 917 553 5 0 0 0 - - -;
#X floatatom 983 553 5 0 0 0 - - -;
#X floatatom 1049 553 5 0 0 0 - - -;
#X obj 917 476 expr if($f1>=0 \, $f1 \, -1);
#X obj 983 499 expr if($f1>=0 \, $f1 \, -1);
#X obj 1049 520 expr if($f1>=0 \, $f1 \, -1);
#X obj 917 423 f \$6;
#X obj 983 423 f \$7;
#X obj 1049 423 f \$8;
#X obj 1201 60 loadbang;
#X obj 917 386 value \$10;
#X obj 987 386 value \$20;
#X obj 1059 386 value \$30;
#X obj 917 576 value \$40;
#X obj 983 576 value \$50;
#X obj 1049 576 value \$60;
#X obj 20 185 expr if($f1==\\\$10||$f1==\\\$20||$f1==\\\$30||$f1==\\\$40||$f1==\\\$50||$f1==\\\$60
\, 1 \, 0), f 19;
#X obj 147 185 expr if($f1==\\\$10||$f1==\\\$20||$f1==\\\$30||$f1==\\\$40||$f1==\\\$50||$f1==\\\$60
\, 1 \, 0), f 19;
#X obj 277 93 metro;
#X obj 277 162 f 0;
#X obj 302 162 + 1;
#X obj 327 162 % 12;
#X obj 277 274 sel 1;
#X obj 292 117 r sync;
#X msg 292 139 0;
#X obj 304 70 *;
#X obj 330 70 r r;
#X obj 277 70 r c;
#X obj 277 320 s n;
#X obj 277 185 expr if($f1==\\\$10||$f1==\\\$20||$f1==\\\$30||$f1==\\\$40||$f1==\\\$50||$f1==\\\$60
\, 1 \, 0), f 19;
#X obj 407 93 metro;
#X obj 407 162 f 0;
#X obj 432 162 + 1;
#X obj 457 162 % 12;
#X obj 407 274 sel 1;
#X obj 422 117 r sync;
#X msg 422 139 0;
#X obj 434 70 *;
#X obj 460 70 r r;
#X obj 407 70 r c;
#X obj 407 320 s n;
#X obj 407 185 expr if($f1==\\\$10||$f1==\\\$20||$f1==\\\$30||$f1==\\\$40||$f1==\\\$50||$f1==\\\$60
\, 1 \, 0), f 19;
#X obj 537 93 metro;
#X obj 537 162 f 0;
#X obj 562 162 + 1;
#X obj 587 162 % 12;
#X obj 537 274 sel 1;
#X obj 552 117 r sync;
#X msg 552 139 0;
#X obj 564 70 *;
#X obj 590 70 r r;
#X obj 537 70 r c;
#X obj 537 320 s n;
#X obj 537 185 expr if($f1==\\\$10||$f1==\\\$20||$f1==\\\$30||$f1==\\\$40||$f1==\\\$50||$f1==\\\$60
\, 1 \, 0), f 19;
#X obj 667 93 metro;
#X obj 667 162 f 0;
#X obj 692 162 + 1;
#X obj 717 162 % 12;
#X obj 667 274 sel 1;
#X obj 682 117 r sync;
#X msg 682 139 0;
#X obj 694 70 *;
#X obj 720 70 r r;
#X obj 667 70 r c;
#X obj 667 320 s n;
#X obj 667 185 expr if($f1==\\\$10||$f1==\\\$20||$f1==\\\$30||$f1==\\\$40||$f1==\\\$50||$f1==\\\$60
\, 1 \, 0), f 19;
#X obj 77 383 metro;
#X obj 77 452 f 0;
#X obj 102 452 + 1;
#X obj 127 452 % 12;
#X obj 77 564 sel 1;
#X obj 92 407 r sync;
#X msg 92 429 0;
#X obj 104 360 *;
#X obj 130 360 r r;
#X obj 77 360 r c;
#X obj 77 610 s n;
#X obj 77 475 expr if($f1==\\\$10||$f1==\\\$20||$f1==\\\$30||$f1==\\\$40||$f1==\\\$50||$f1==\\\$60
\, 1 \, 0), f 19;
#X obj 207 383 metro;
#X obj 207 452 f 0;
#X obj 232 452 + 1;
#X obj 257 452 % 12;
#X obj 207 564 sel 1;
#X obj 222 407 r sync;
#X msg 222 429 0;
#X obj 234 360 *;
#X obj 260 360 r r;
#X obj 207 360 r c;
#X obj 207 610 s n;
#X obj 207 475 expr if($f1==\\\$10||$f1==\\\$20||$f1==\\\$30||$f1==\\\$40||$f1==\\\$50||$f1==\\\$60
\, 1 \, 0), f 19;
#X obj 337 383 metro;
#X obj 337 452 f 0;
#X obj 362 452 + 1;
#X obj 387 452 % 12;
#X obj 337 564 sel 1;
#X obj 352 407 r sync;
#X msg 352 429 0;
#X obj 364 360 *;
#X obj 390 360 r r;
#X obj 337 360 r c;
#X obj 337 610 s n;
#X obj 337 475 expr if($f1==\\\$10||$f1==\\\$20||$f1==\\\$30||$f1==\\\$40||$f1==\\\$50||$f1==\\\$60
\, 1 \, 0), f 19;
#X obj 467 383 metro;
#X obj 467 452 f 0;
#X obj 492 452 + 1;
#X obj 517 452 % 12;
#X obj 467 564 sel 1;
#X obj 482 407 r sync;
#X msg 482 429 0;
#X obj 494 360 *;
#X obj 520 360 r r;
#X obj 467 360 r c;
#X obj 467 610 s n;
#X obj 467 475 expr if($f1==\\\$10||$f1==\\\$20||$f1==\\\$30||$f1==\\\$40||$f1==\\\$50||$f1==\\\$60
\, 1 \, 0), f 19;
#X obj 597 383 metro;
#X obj 597 452 f 0;
#X obj 622 452 + 1;
#X obj 647 452 % 12;
#X obj 597 564 sel 1;
#X obj 612 407 r sync;
#X msg 612 429 0;
#X obj 624 360 *;
#X obj 650 360 r r;
#X obj 597 360 r c;
#X obj 597 610 s n;
#X obj 597 475 expr if($f1==\\\$10||$f1==\\\$20||$f1==\\\$30||$f1==\\\$40||$f1==\\\$50||$f1==\\\$60
\, 1 \, 0), f 19;
#X obj 727 383 metro;
#X obj 727 452 f 0;
#X obj 752 452 + 1;
#X obj 777 452 % 12;
#X obj 727 564 sel 1;
#X obj 742 407 r sync;
#X msg 742 429 0;
#X obj 754 360 *;
#X obj 780 360 r r;
#X obj 727 360 r c;
#X obj 727 610 s n;
#X obj 727 475 expr if($f1==\\\$10||$f1==\\\$20||$f1==\\\$30||$f1==\\\$40||$f1==\\\$50||$f1==\\\$60
\, 1 \, 0), f 19;
#X obj 277 297 i 2;
#X obj 407 297 i 3;
#X obj 537 297 i 4;
#X obj 667 297 i 5;
#X obj 77 587 i 6;
#X obj 207 587 i 7;
#X obj 337 587 i 8;
#X obj 467 587 i 9;
#X obj 597 587 i 10;
#X obj 727 587 i 11;
#X obj 987 263 clip 0 11;
#X obj 917 263 clip 0 11;
#X obj 1059 263 clip 0 11;
#X obj 917 446 clip 0 11;
#X obj 983 446 clip 0 11;
#X obj 1049 446 clip 0 11;
#X connect 0 0 1 0;
#X connect 1 0 2 0;
#X connect 1 0 65 0;
#X connect 2 0 3 0;
#X connect 3 0 1 1;
#X connect 4 0 5 0;
#X connect 5 0 24 0;
#X connect 6 0 7 0;
#X connect 7 0 1 1;
#X connect 8 0 59 0;
#X connect 9 0 60 0;
#X connect 10 0 61 0;
#X connect 11 0 12 0;
#X connect 12 0 13 0;
#X connect 12 0 66 0;
#X connect 13 0 14 0;
#X connect 14 0 12 1;
#X connect 15 0 23 0;
#X connect 16 0 17 0;
#X connect 17 0 12 1;
#X connect 18 0 11 1;
#X connect 18 0 74 0;
#X connect 19 0 36 0;
#X connect 20 0 18 1;
#X connect 21 0 0 0;
#X connect 22 0 11 0;
#X connect 23 0 25 0;
#X connect 28 0 29 0;
#X connect 30 0 28 0;
#X connect 31 0 32 0;
#X connect 32 0 27 0;
#X connect 33 0 37 1;
#X connect 35 0 0 1;
#X connect 35 0 18 0;
#X connect 36 0 37 0;
#X connect 36 1 31 0;
#X connect 37 0 34 0;
#X connect 38 0 39 0;
#X connect 39 0 26 0;
#X connect 40 0 33 0;
#X connect 41 0 19 0;
#X connect 42 0 41 0;
#X connect 43 0 198 0;
#X connect 44 0 8 0;
#X connect 45 0 9 0;
#X connect 46 0 197 0;
#X connect 47 0 10 0;
#X connect 48 0 199 0;
#X connect 49 0 62 0;
#X connect 50 0 63 0;
#X connect 51 0 64 0;
#X connect 52 0 49 0;
#X connect 53 0 50 0;
#X connect 54 0 51 0;
#X connect 55 0 200 0;
#X connect 56 0 201 0;
#X connect 57 0 202 0;
#X connect 58 0 40 0;
#X connect 58 0 41 0;
#X connect 58 0 43 0;
#X connect 58 0 48 0;
#X connect 58 0 46 0;
#X connect 58 0 55 0;
#X connect 58 0 57 0;
#X connect 58 0 56 0;
#X connect 65 0 4 0;
#X connect 66 0 15 0;
#X connect 67 0 68 0;
#X connect 68 0 69 0;
#X connect 68 0 78 0;
#X connect 69 0 70 0;
#X connect 70 0 68 1;
#X connect 71 0 187 0;
#X connect 72 0 73 0;
#X connect 73 0 68 1;
#X connect 74 0 67 1;
#X connect 74 0 86 0;
#X connect 75 0 74 1;
#X connect 76 0 67 0;
#X connect 78 0 71 0;
#X connect 79 0 80 0;
#X connect 80 0 81 0;
#X connect 80 0 90 0;
#X connect 81 0 82 0;
#X connect 82 0 80 1;
#X connect 83 0 188 0;
#X connect 84 0 85 0;
#X connect 85 0 80 1;
#X connect 86 0 79 1;
#X connect 86 0 98 0;
#X connect 87 0 86 1;
#X connect 88 0 79 0;
#X connect 90 0 83 0;
#X connect 91 0 92 0;
#X connect 92 0 93 0;
#X connect 92 0 102 0;
#X connect 93 0 94 0;
#X connect 94 0 92 1;
#X connect 95 0 189 0;
#X connect 96 0 97 0;
#X connect 97 0 92 1;
#X connect 98 0 91 1;
#X connect 98 0 110 0;
#X connect 99 0 98 1;
#X connect 100 0 91 0;
#X connect 102 0 95 0;
#X connect 103 0 104 0;
#X connect 104 0 105 0;
#X connect 104 0 114 0;
#X connect 105 0 106 0;
#X connect 106 0 104 1;
#X connect 107 0 190 0;
#X connect 108 0 109 0;
#X connect 109 0 104 1;
#X connect 110 0 103 1;
#X connect 110 0 122 0;
#X connect 111 0 110 1;
#X connect 112 0 103 0;
#X connect 114 0 107 0;
#X connect 115 0 116 0;
#X connect 116 0 117 0;
#X connect 116 0 126 0;
#X connect 117 0 118 0;
#X connect 118 0 116 1;
#X connect 119 0 191 0;
#X connect 120 0 121 0;
#X connect 121 0 116 1;
#X connect 122 0 115 1;
#X connect 122 0 134 0;
#X connect 123 0 122 1;
#X connect 124 0 115 0;
#X connect 126 0 119 0;
#X connect 127 0 128 0;
#X connect 128 0 129 0;
#X connect 128 0 138 0;
#X connect 129 0 130 0;
#X connect 130 0 128 1;
#X connect 131 0 192 0;
#X connect 132 0 133 0;
#X connect 133 0 128 1;
#X connect 134 0 127 1;
#X connect 134 0 146 0;
#X connect 135 0 134 1;
#X connect 136 0 127 0;
#X connect 138 0 131 0;
#X connect 139 0 140 0;
#X connect 140 0 141 0;
#X connect 140 0 150 0;
#X connect 141 0 142 0;
#X connect 142 0 140 1;
#X connect 143 0 193 0;
#X connect 144 0 145 0;
#X connect 145 0 140 1;
#X connect 146 0 139 1;
#X connect 146 0 158 0;
#X connect 147 0 146 1;
#X connect 148 0 139 0;
#X connect 150 0 143 0;
#X connect 151 0 152 0;
#X connect 152 0 153 0;
#X connect 152 0 162 0;
#X connect 153 0 154 0;
#X connect 154 0 152 1;
#X connect 155 0 194 0;
#X connect 156 0 157 0;
#X connect 157 0 152 1;
#X connect 158 0 151 1;
#X connect 158 0 170 0;
#X connect 159 0 158 1;
#X connect 160 0 151 0;
#X connect 162 0 155 0;
#X connect 163 0 164 0;
#X connect 164 0 165 0;
#X connect 164 0 174 0;
#X connect 165 0 166 0;
#X connect 166 0 164 1;
#X connect 167 0 195 0;
#X connect 168 0 169 0;
#X connect 169 0 164 1;
#X connect 170 0 163 1;
#X connect 170 0 182 0;
#X connect 171 0 170 1;
#X connect 172 0 163 0;
#X connect 174 0 167 0;
#X connect 175 0 176 0;
#X connect 176 0 177 0;
#X connect 176 0 186 0;
#X connect 177 0 178 0;
#X connect 178 0 176 1;
#X connect 179 0 196 0;
#X connect 180 0 181 0;
#X connect 181 0 176 1;
#X connect 182 0 175 1;
#X connect 183 0 182 1;
#X connect 184 0 175 0;
#X connect 186 0 179 0;
#X connect 187 0 77 0;
#X connect 188 0 89 0;
#X connect 189 0 101 0;
#X connect 190 0 113 0;
#X connect 191 0 125 0;
#X connect 192 0 137 0;
#X connect 193 0 149 0;
#X connect 194 0 161 0;
#X connect 195 0 173 0;
#X connect 196 0 185 0;
#X connect 198 0 44 0;
#X connect 199 0 47 0;
#X connect 202 0 54 0;
