#N canvas 509 142 588 591 10;
#X obj 33 81 bng 15 250 50 0 empty empty empty 17 7 0 10 -262144 -1
-1;
#X obj 193 152 i;
#X obj 33 4 inlet;
#X obj 334 125 noise~;
#X obj 333 232 *~;
#X obj 386 126 bng 15 250 50 0 empty empty empty 17 7 0 10 -262144
-1 -1;
#X obj 386 192 vline~;
#X obj 220 414 *~ 0.2;
#X floatatom 423 133 5 0 0 0 - - -;
#X obj 386 148 f 30;
#X floatatom 55 80 5 0 0 1 tone - -;
#X obj 193 174 t b f;
#X obj 220 196 mtof;
#X floatatom 220 238 5 0 0 0 - - -;
#X obj 220 322 *~ 0.99;
#X floatatom 259 300 5 0.1 0.99 0 - - -;
#X obj 220 345 lop~ 1000;
#X obj 220 368 lop~ 1000;
#X obj 220 391 lop~ 1000;
#X floatatom 333 300 5 0 0 0 - - -;
#X msg 386 169 1 10 \, 0 \$1 20;
#X obj 386 215 pow~ 4;
#X obj 220 217 expr $f2/$f1;
#X floatatom 289 184 5 0 0 0 - - -;
#X floatatom 445 216 5 0 0 0 - - -;
#X obj 73 4 inlet;
#X obj 36 102 hsl 50 15 20 2000 0 0 empty empty dur 55 8 0 10 -262144
-1 -1 0 1;
#X obj 36 120 hsl 50 15 100 20000 0 0 empty empty exp 55 8 0 10 -262144
-1 -1 0 1;
#X obj 36 138 hsl 50 15 0.1 0.99 0 0 empty empty fb 55 8 0 10 -262144
-1 -1 0 1;
#X obj 36 156 hsl 50 15 100 10000 0 0 empty empty lpf 55 8 0 10 -262144
-1 -1 0 1;
#X obj 220 260 delread4~ \$0-plu;
#X obj 333 259 delwrite~ \$0-plu 1000;
#X obj 33 174 hradio 14 1 0 4 empty empty empty 0 -8 0 10 -262144 -1
-1 3;
#X obj 445 193 + 1;
#X obj 219 500 outlet~;
#X connect 0 0 1 0;
#X connect 1 0 11 0;
#X connect 2 0 0 0;
#X connect 3 0 4 0;
#X connect 4 0 31 0;
#X connect 5 0 9 0;
#X connect 6 0 21 0;
#X connect 7 0 34 0;
#X connect 8 0 9 1;
#X connect 9 0 20 0;
#X connect 10 0 1 1;
#X connect 11 0 5 0;
#X connect 11 1 12 0;
#X connect 12 0 22 0;
#X connect 13 0 30 0;
#X connect 14 0 16 0;
#X connect 15 0 14 1;
#X connect 16 0 17 0;
#X connect 17 0 18 0;
#X connect 18 0 7 0;
#X connect 18 0 31 0;
#X connect 19 0 16 1;
#X connect 19 0 18 1;
#X connect 19 0 17 1;
#X connect 20 0 6 0;
#X connect 21 0 4 1;
#X connect 22 0 13 0;
#X connect 23 0 22 1;
#X connect 24 0 21 1;
#X connect 25 0 10 0;
#X connect 26 0 8 0;
#X connect 27 0 23 0;
#X connect 28 0 15 0;
#X connect 29 0 19 0;
#X connect 30 0 14 0;
#X connect 32 0 33 0;
#X connect 33 0 24 0;
#X coords 0 -1 1 1 95 140 1 25 55;
