#N canvas 251 285 520 458 10;
#X obj 50 24 inlet;
#X obj 50 69 f 0;
#X obj 75 69 + 1;
#X obj 100 69 % \$1;
#X obj 50 92 t f b, f 12;
#X obj 50 115 sel 0;
#X obj 50 366 outlet;
#X obj 119 115 random 2;
#X obj 119 138 sel 0 1, f 13;
#X obj 119 161 f \$2;
#X obj 154 161 f \$2;
#X obj 154 184 * -1;
#X obj 119 219 +;
#X obj 119 242 % 12;
#X obj 119 366 outlet;
#X obj 119 295 t f f f;
#X obj 50 267 f \$4;
#X obj 183 295 + \$3;
#X obj 183 318 t f f;
#X obj 183 366 outlet;
#X obj 243 295 + \$3;
#X obj 243 366 outlet;
#X obj 95 24 inlet;
#X obj 153 24 inlet;
#X msg 153 53 seed \$1;
#X obj 50 290 - 12;
#X obj 119 265 + \$4;
#X connect 0 0 1 0;
#X connect 1 0 2 0;
#X connect 1 0 4 0;
#X connect 2 0 3 0;
#X connect 3 0 1 1;
#X connect 4 0 5 0;
#X connect 4 1 7 0;
#X connect 5 0 16 0;
#X connect 7 0 8 0;
#X connect 8 0 9 0;
#X connect 8 1 10 0;
#X connect 9 0 12 0;
#X connect 10 0 11 0;
#X connect 11 0 12 0;
#X connect 12 0 13 0;
#X connect 13 0 26 0;
#X connect 15 0 14 0;
#X connect 15 1 17 0;
#X connect 15 2 12 1;
#X connect 16 0 25 0;
#X connect 17 0 18 0;
#X connect 18 0 19 0;
#X connect 18 1 20 0;
#X connect 20 0 21 0;
#X connect 22 0 16 1;
#X connect 22 0 26 1;
#X connect 23 0 24 0;
#X connect 24 0 7 0;
#X connect 25 0 6 0;
#X connect 26 0 15 0;
