#N canvas 566 157 609 590 10;
#X obj 118 224 f 0;
#X obj 143 224 + 1;
#X obj 168 224 % 8;
#X obj 94 110 r sync;
#X msg 94 133 0;
#X obj 79 318 hradio 15 1 0 8 empty empty empty 0 -8 0 10 -1 -262144
-1 5;
#X obj 79 262 t f f;
#X obj 150 278 sel 0;
#X obj 79 240 f 0;
#X obj 79 155 f 0;
#X obj 104 155 + 1;
#X obj 129 155 % 8;
#X obj 144 133 + 1;
#X obj 118 178 sel 0;
#X obj 79 178 t b f;
#X obj 118 201 t b b, f 12;
#X obj 79 15 inlet;
#X obj 79 86 bang;
#X obj 159 15 inlet;
#X msg 234 93 seed \$1;
#X obj 144 57 f 0;
#X msg 79 355 get \$1 1;
#X obj 201 371 list store, f 17;
#X msg 300 68 8;
#X obj 300 114 until;
#X obj 300 205 - 6;
#X obj 300 137 f 0;
#X obj 326 137 + 1;
#X obj 352 137 % 8;
#X obj 378 137 sel 0;
#X obj 300 160 bang;
#X obj 300 324 list prepend;
#X obj 300 228 t f b;
#X obj 300 91 t f b, f 18;
#X obj 300 182 random 18;
#X obj 201 534 outlet;
#X obj 300 41 loadbang;
#X obj 201 494 spigot;
#X obj 201 401 t f b, f 6;
#X obj 234 423 random 100;
#X msg 234 469 1;
#X msg 291 478 0;
#X obj 234 446 moses 50, f 10;
#X obj 401 384 f \$1;
#X obj 401 430 * 100;
#X obj 401 407 clip 0 1;
#X obj 144 110 random 3;
#X connect 0 0 1 0;
#X connect 0 0 8 1;
#X connect 1 0 2 0;
#X connect 2 0 0 1;
#X connect 3 0 4 0;
#X connect 4 0 0 1;
#X connect 4 0 8 1;
#X connect 4 0 9 1;
#X connect 5 0 21 0;
#X connect 6 0 5 0;
#X connect 6 1 7 0;
#X connect 7 0 20 0;
#X connect 8 0 6 0;
#X connect 9 0 10 0;
#X connect 9 0 14 0;
#X connect 10 0 11 0;
#X connect 11 0 9 1;
#X connect 12 0 11 1;
#X connect 13 0 15 0;
#X connect 14 0 8 0;
#X connect 14 1 13 0;
#X connect 15 0 0 0;
#X connect 15 1 46 0;
#X connect 16 0 17 0;
#X connect 17 0 9 0;
#X connect 18 0 20 1;
#X connect 19 0 34 0;
#X connect 19 0 39 0;
#X connect 19 0 46 0;
#X connect 20 0 19 0;
#X connect 21 0 22 0;
#X connect 22 0 31 1;
#X connect 22 0 38 0;
#X connect 23 0 33 0;
#X connect 24 0 26 0;
#X connect 25 0 32 0;
#X connect 26 0 27 0;
#X connect 26 0 30 0;
#X connect 27 0 28 0;
#X connect 28 0 26 1;
#X connect 28 0 29 0;
#X connect 29 0 24 1;
#X connect 30 0 34 0;
#X connect 31 0 22 1;
#X connect 32 0 31 0;
#X connect 32 1 22 0;
#X connect 33 0 24 0;
#X connect 33 1 22 1;
#X connect 34 0 25 0;
#X connect 36 0 23 0;
#X connect 36 0 20 0;
#X connect 36 0 43 0;
#X connect 37 0 35 0;
#X connect 38 0 37 0;
#X connect 38 1 39 0;
#X connect 39 0 42 0;
#X connect 40 0 37 1;
#X connect 41 0 37 1;
#X connect 42 0 40 0;
#X connect 42 1 41 0;
#X connect 43 0 45 0;
#X connect 44 0 42 1;
#X connect 45 0 44 0;
#X connect 46 0 12 0;
#X coords 0 -1 1 1 136 40 1 70 300;
