#N canvas 789 173 439 589 10;
#X obj 47 22 inlet;
#X obj 105 203 random 24;
#X obj 105 301 ==, f 10;
#X floatatom 105 324 5 0 0 0 - - -;
#X obj 245 278 - 1;
#X obj 188 301 ==, f 10;
#X floatatom 188 324 5 0 0 0 - - -;
#X obj 271 301 ==, f 10;
#X floatatom 271 324 5 0 0 0 - - -;
#X obj 328 278 + 1;
#X msg 156 413 3;
#X obj 334 463 - 1;
#X obj 188 480 i;
#X obj 188 355 sel 1 0, f 13;
#X obj 188 378 bang;
#X obj 225 378 bang;
#X obj 105 226 + 0;
#X obj 225 401 f 24;
#X floatatom 225 425 5 0 0 0 - - -;
#X msg 71 388 0;
#X obj 105 346 sel 1;
#X msg 105 388 24;
#X obj 258 401 - 1;
#X obj 225 447 sel 0;
#X obj 47 106 t b b b, f 20;
#X obj 47 173 spigot;
#X obj 105 173 spigot;
#X obj 72 261 t f f f f f, f 23;
#X obj 241 173 == 0;
#X floatatom 241 196 5 0 0 0 - - -;
#X obj 242 21 loadbang;
#X msg 242 107 0;
#X msg 287 107 1;
#X obj 47 480 outlet;
#X obj 242 84 t b b b, f 15;
#X obj 162 173 i 0;
#X obj 47 196 i 0;
#X obj 177 22 inlet;
#X obj 177 85 clip 0 16;
#X obj 177 45 t f b;
#X connect 0 0 24 0;
#X connect 1 0 16 0;
#X connect 2 0 3 0;
#X connect 3 0 20 0;
#X connect 3 0 25 1;
#X connect 3 0 28 0;
#X connect 4 0 5 1;
#X connect 5 0 6 0;
#X connect 6 0 13 0;
#X connect 7 0 8 0;
#X connect 8 0 13 0;
#X connect 9 0 7 1;
#X connect 10 0 1 1;
#X connect 11 0 12 1;
#X connect 12 0 16 1;
#X connect 13 0 14 0;
#X connect 13 1 15 0;
#X connect 14 0 10 0;
#X connect 14 0 12 0;
#X connect 15 0 17 0;
#X connect 16 0 27 0;
#X connect 17 0 18 0;
#X connect 17 0 22 0;
#X connect 18 0 1 1;
#X connect 18 0 23 0;
#X connect 19 0 16 1;
#X connect 20 0 21 0;
#X connect 20 0 19 0;
#X connect 21 0 1 1;
#X connect 21 0 17 1;
#X connect 22 0 17 1;
#X connect 23 0 21 0;
#X connect 24 0 25 0;
#X connect 24 1 26 0;
#X connect 24 2 35 0;
#X connect 25 0 36 0;
#X connect 26 0 1 0;
#X connect 27 0 33 0;
#X connect 27 1 2 0;
#X connect 27 2 5 0;
#X connect 27 3 7 0;
#X connect 27 4 11 0;
#X connect 28 0 29 0;
#X connect 29 0 26 1;
#X connect 30 0 34 0;
#X connect 31 0 25 1;
#X connect 32 0 26 1;
#X connect 34 0 31 0;
#X connect 34 1 32 0;
#X connect 34 2 21 0;
#X connect 35 0 2 1;
#X connect 35 0 4 0;
#X connect 35 0 9 0;
#X connect 36 0 33 0;
#X connect 37 0 39 0;
#X connect 38 0 36 1;
#X connect 38 0 35 1;
#X connect 39 0 38 0;
#X connect 39 1 34 0;
