#N canvas 179 216 943 498 10;
#X msg 118 297 0 7 5 9 4 3 8 2 11 10 6 1;
#X obj 43 313 list store;
#X obj 43 99 bng 15 250 50 0 empty empty empty 17 7 0 10 -262144 -162280
-1;
#X msg 43 290 get \$1 1;
#X obj 43 336 +;
#X obj 43 268 i;
#X obj 43 360 % 12;
#X obj 43 383 t f f;
#X obj 63 118 hradio 12 1 0 4 empty empty oct 50 7 0 10 -262144 -162280
-1 1;
#X obj 294 321 + 1;
#X obj 294 344 * 12;
#X obj 43 406 + 0;
#X floatatom 97 391 5 0 0 0 - - -;
#X obj 118 273 loadbang;
#X obj 43 34 inlet;
#X obj 97 34 inlet;
#X obj 43 439 outlet;
#X obj 66 99 hsl 44 15 0 3 0 0 empty empty +/- 48 7 0 10 -1 -262144
-1 4300 1;
#X obj 191 149 i;
#X obj 43 154 t b b;
#X obj 191 172 sel 0 1 2 3, f 41;
#X obj 191 195 random 3;
#X floatatom 191 253 5 0 0 0 - - -;
#X obj 251 195 random 3;
#X obj 251 218 + 3;
#X obj 312 195 random 3;
#X obj 312 218 + 6;
#X obj 373 195 random 3;
#X obj 373 218 + 9;
#X connect 0 0 1 1;
#X connect 1 0 4 0;
#X connect 2 0 19 0;
#X connect 3 0 1 0;
#X connect 4 0 6 0;
#X connect 5 0 3 0;
#X connect 6 0 7 0;
#X connect 7 0 11 0;
#X connect 7 1 4 1;
#X connect 8 0 9 0;
#X connect 9 0 10 0;
#X connect 10 0 6 1;
#X connect 11 0 16 0;
#X connect 12 0 11 1;
#X connect 13 0 0 0;
#X connect 14 0 2 0;
#X connect 15 0 12 0;
#X connect 17 0 18 1;
#X connect 18 0 20 0;
#X connect 19 0 5 0;
#X connect 19 1 18 0;
#X connect 20 0 21 0;
#X connect 20 1 23 0;
#X connect 20 2 25 0;
#X connect 20 3 27 0;
#X connect 21 0 22 0;
#X connect 22 0 5 1;
#X connect 23 0 24 0;
#X connect 24 0 22 0;
#X connect 25 0 26 0;
#X connect 26 0 22 0;
#X connect 27 0 28 0;
#X connect 28 0 22 0;
#X coords 0 -1 1 1 105 70 1 35 70;
