#N canvas 604 198 560 509 10;
#X obj 64 143 del 500, f 22;
#X obj 64 166 t b b b, f 13;
#X obj 139 189 random 1000;
#X obj 139 212 / 1000;
#X obj 101 283 spigot, f 7;
#X obj 139 258 t f f;
#X obj 166 281 sel 0;
#X obj 166 304 random 10;
#X obj 166 327 + 1;
#X obj 166 373 t b f;
#X obj 64 98 spigot;
#X obj 97 53 clip 0 1;
#X obj 97 75 t f f;
#X obj 124 99 sel 1;
#X obj 64 446 outlet;
#X obj 97 23 inlet;
#X obj 214 53 clip 0 1;
#X obj 214 23 inlet;
#X obj 289 23 inlet;
#X obj 139 235 < 0.5, f 13;
#X obj 289 53 clip 50 1000;
#X obj 166 350 * \$1, f 21;
#X obj 193 446 outlet;
#X connect 0 0 1 0;
#X connect 1 0 14 0;
#X connect 1 1 4 0;
#X connect 1 2 2 0;
#X connect 2 0 3 0;
#X connect 3 0 19 0;
#X connect 4 0 10 0;
#X connect 5 0 4 1;
#X connect 5 1 6 0;
#X connect 6 0 7 0;
#X connect 7 0 8 0;
#X connect 8 0 21 0;
#X connect 9 0 10 0;
#X connect 9 1 0 1;
#X connect 9 1 22 0;
#X connect 10 0 0 0;
#X connect 11 0 12 0;
#X connect 12 0 10 1;
#X connect 12 1 13 0;
#X connect 13 0 0 0;
#X connect 15 0 11 0;
#X connect 16 0 19 1;
#X connect 17 0 16 0;
#X connect 18 0 20 0;
#X connect 19 0 5 0;
#X connect 20 0 21 1;
#X connect 21 0 9 0;
