#N canvas 642 279 690 440 10;
#X obj 75 13 inlet;
#X obj 75 232 outlet;
#X obj 193 126 f 0;
#X obj 257 126 % 100;
#X obj 134 142 pipe 0;
#X obj 134 194 bang;
#X obj 134 232 outlet;
#X obj 193 149 t f f, f 16;
#X obj 193 195 sel 1;
#X obj 286 195 sel 1;
#X obj 284 101 t f f;
#X obj 311 125 / 2;
#X obj 311 148 - 1;
#X obj 75 50 t b b b b, f 30;
#X obj 284 79 f \$2;
#X obj 219 126 + \$1;
#X obj 193 172 < 1;
#X obj 286 172 > 49;
#X obj 193 218 bang;
#X obj 286 218 bang;
#X obj 193 263 f \$1;
#X obj 286 241 f \$1;
#X obj 286 263 * -1;
#X connect 0 0 13 0;
#X connect 2 0 4 1;
#X connect 2 0 7 0;
#X connect 2 0 15 0;
#X connect 3 0 2 1;
#X connect 4 0 5 0;
#X connect 5 0 6 0;
#X connect 7 0 16 0;
#X connect 7 1 17 0;
#X connect 8 0 18 0;
#X connect 9 0 19 0;
#X connect 10 0 3 1;
#X connect 10 1 11 0;
#X connect 11 0 12 0;
#X connect 12 0 17 1;
#X connect 13 0 1 0;
#X connect 13 1 4 0;
#X connect 13 2 2 0;
#X connect 13 3 14 0;
#X connect 14 0 10 0;
#X connect 15 0 3 0;
#X connect 16 0 8 0;
#X connect 17 0 9 0;
#X connect 18 0 20 0;
#X connect 19 0 21 0;
#X connect 20 0 15 1;
#X connect 21 0 22 0;
#X connect 22 0 15 1;
