#N canvas 522 327 517 383 10;
#X obj 123 213 +~, f 18;
#X obj 72 276 vcf~, f 18;
#X obj 123 188 *~, f 9;
#X obj 123 238 mtof~;
#X obj 72 299 *~ 2;
#X obj 122 115 osc~;
#X obj 122 138 +~ 1;
#X obj 122 161 *~ 0.5;
#X obj 72 46 inlet~;
#X obj 72 339 outlet~;
#X obj 122 93 f \$1;
#X obj 122 46 inlet;
#X obj 174 93 f \$2;
#X obj 228 93 f \$3;
#X obj 289 260 f \$4;
#X obj 174 46 inlet;
#X obj 228 46 inlet;
#X obj 289 46 inlet;
#X obj 334 46 loadbang;
#X connect 0 0 3 0;
#X connect 1 0 4 0;
#X connect 2 0 0 0;
#X connect 3 0 1 1;
#X connect 4 0 9 0;
#X connect 5 0 6 0;
#X connect 6 0 7 0;
#X connect 7 0 2 0;
#X connect 8 0 1 0;
#X connect 10 0 5 0;
#X connect 11 0 10 0;
#X connect 12 0 2 1;
#X connect 13 0 0 1;
#X connect 14 0 1 2;
#X connect 15 0 12 0;
#X connect 16 0 13 0;
#X connect 17 0 14 0;
#X connect 18 0 10 0;
#X connect 18 0 14 0;
#X connect 18 0 13 0;
#X connect 18 0 12 0;
