#N canvas 0 116 1366 652 10;
#X obj 77 17 inlet;
#X obj 76 167 bng 15 250 50 0 empty empty empty 17 7 0 10 -262144 -1
-1;
#X obj 346 314 f;
#X obj 346 150 random 3;
#X obj 346 173 sel 0 1 2;
#X obj 380 314 f;
#X obj 847 16 inlet;
#X obj 814 238 / 2;
#X floatatom 884 200 5 0 0 0 - - -;
#X floatatom 814 261 5 0 0 0 - - -;
#X obj 847 117 t f b;
#X floatatom 847 39 5 0 0 0 - - -;
#X obj 884 222 t b f;
#X obj 884 155 / 100;
#X obj 814 179 f 1000;
#X obj 380 276 del 500;
#X obj 615 117 random 5;
#X obj 615 140 sel 0 1 2 3 4;
#X msg 615 162 0;
#X msg 630 185 2;
#X msg 645 162 5;
#X msg 660 185 7;
#X msg 675 162 -5;
#X obj 380 338 +;
#X obj 346 118 t b f, f 9;
#X floatatom 132 167 5 0 0 0 - - -;
#X obj 77 75 t b f b b, f 135;
#X floatatom 96 167 5 0 0 0 - - -;
#X floatatom 77 40 5 0 0 0 - - -;
#X obj 97 321 outlet;
#X obj 169 167 bng 15 250 50 0 empty empty empty 17 7 0 10 -1 -262144
-1;
#X obj 884 133 random 50;
#X obj 884 178 + 1.75;
#X connect 0 0 28 0;
#X connect 2 0 27 0;
#X connect 3 0 4 0;
#X connect 4 0 2 0;
#X connect 4 1 15 0;
#X connect 4 2 2 0;
#X connect 4 2 15 0;
#X connect 5 0 23 0;
#X connect 6 0 11 0;
#X connect 7 0 9 0;
#X connect 8 0 12 0;
#X connect 9 0 15 1;
#X connect 10 0 14 1;
#X connect 10 1 31 0;
#X connect 11 0 10 0;
#X connect 12 0 14 0;
#X connect 12 1 7 1;
#X connect 13 0 32 0;
#X connect 14 0 7 0;
#X connect 15 0 5 0;
#X connect 16 0 17 0;
#X connect 17 0 18 0;
#X connect 17 1 19 0;
#X connect 17 2 20 0;
#X connect 17 3 21 0;
#X connect 17 4 22 0;
#X connect 18 0 23 1;
#X connect 19 0 23 1;
#X connect 20 0 23 1;
#X connect 21 0 23 1;
#X connect 22 0 23 1;
#X connect 23 0 25 0;
#X connect 24 0 3 0;
#X connect 24 1 5 1;
#X connect 24 1 2 1;
#X connect 25 0 29 0;
#X connect 25 0 30 0;
#X connect 26 0 1 0;
#X connect 26 1 24 0;
#X connect 26 2 16 0;
#X connect 26 3 31 0;
#X connect 27 0 29 0;
#X connect 28 0 26 0;
#X connect 31 0 13 0;
#X connect 32 0 8 0;
#X coords 0 -1 1 1 120 50 1 70 140;
