#N canvas 800 166 534 552 10;
#X obj 323 337 vline~;
#X obj 122 55 inlet;
#X obj 121 455 outlet~;
#X obj 122 283 +~;
#X obj 189 266 *~;
#X obj 122 133 mtof;
#X obj 122 307 cos~;
#X msg 137 212 1;
#X obj 137 235 - 0;
#X obj 122 258 *~;
#X obj 257 196 t b f;
#X obj 122 173 osc~;
#X obj 189 173 osc~;
#X obj 122 399 *~;
#X obj 122 103 t f b, f 34;
#X obj 189 149 * \$2;
#X obj 257 149 f \$3;
#X obj 122 376 lop~ \$4;
#X obj 257 172 clip 0 1;
#X obj 122 353 *~ 0.5;
#X obj 122 330 +~;
#X obj 242 304 noise~;
#X obj 228 328 *~;
#X obj 227 282 vline~;
#X obj 228 351 bp~ 0 25, f 9;
#X obj 253 328 * 5;
#X msg 227 259 1 50 \, 0 50 50;
#X obj 323 290 pack \$5 \$6 \$7;
#X obj 323 383 pow~ \$8;
#X msg 323 314 1 \$1 \, 0.65 50 \$1 \, 0 \$3 \$2;
#X connect 0 0 28 0;
#X connect 1 0 14 0;
#X connect 3 0 6 0;
#X connect 4 0 3 1;
#X connect 5 0 11 0;
#X connect 5 0 15 0;
#X connect 5 0 25 0;
#X connect 6 0 20 0;
#X connect 7 0 8 0;
#X connect 8 0 9 1;
#X connect 9 0 3 0;
#X connect 10 0 7 0;
#X connect 10 1 8 1;
#X connect 10 1 4 1;
#X connect 11 0 9 0;
#X connect 12 0 4 0;
#X connect 13 0 2 0;
#X connect 14 0 5 0;
#X connect 14 1 16 0;
#X connect 14 1 26 0;
#X connect 14 1 27 0;
#X connect 15 0 12 0;
#X connect 16 0 18 0;
#X connect 17 0 13 0;
#X connect 18 0 10 0;
#X connect 19 0 17 0;
#X connect 20 0 19 0;
#X connect 21 0 22 1;
#X connect 22 0 24 0;
#X connect 23 0 22 0;
#X connect 24 0 20 1;
#X connect 25 0 24 1;
#X connect 26 0 23 0;
#X connect 27 0 29 0;
#X connect 28 0 13 1;
#X connect 29 0 0 0;
