#N canvas 366 254 450 300 10;
#X obj 73 28 inlet;
#X obj 73 64 f 0;
#X obj 99 64 + 1;
#X obj 125 64 % \$1;
#X obj 73 174 outlet;
#X obj 73 87 sel 0;
#X obj 73 110 f 0, f 16;
#X obj 166 28 inlet;
#X connect 0 0 1 0;
#X connect 1 0 2 0;
#X connect 1 0 5 0;
#X connect 2 0 3 0;
#X connect 3 0 1 1;
#X connect 5 0 6 0;
#X connect 6 0 4 0;
#X connect 7 0 6 1;
