#N canvas 666 162 593 567 10;
#X obj 215 30 inlet;
#X obj 234 382 outlet~;
#X obj 235 331 expr~ tanh($v1);
#X obj 53 221 *~, f 4;
#X obj 73 193 vline~;
#X obj 234 99 mtof;
#X obj 234 122 t b f, f 7;
#X obj 234 170 /, f 7;
#X msg 234 146 1000;
#X obj 52 34 noise~;
#X obj 234 253 delread~ \$0-d;
#X obj 73 145 pack 0 0 0, f 21;
#X obj 193 207 f \$2;
#X obj 193 230 clip 0 0.999;
#X obj 178 269 *~;
#X obj 215 54 t b f b;
#X obj 234 195 / \$3;
#X obj 52 331 delwrite~ \$0-d 1000;
#X obj 52 58 lop~ \$4;
#X obj 52 82 hip~ \$5;
#X msg 73 169 0.05 \$1 \, 0 \$3 \$2;
#X obj 73 120 f \$6;
#X obj 134 120 f \$7;
#X obj 196 120 f \$8;
#X connect 0 0 15 0;
#X connect 2 0 1 0;
#X connect 3 0 17 0;
#X connect 4 0 3 1;
#X connect 5 0 6 0;
#X connect 6 0 8 0;
#X connect 6 1 7 1;
#X connect 7 0 16 0;
#X connect 8 0 7 0;
#X connect 9 0 18 0;
#X connect 10 0 14 0;
#X connect 10 0 2 0;
#X connect 11 0 20 0;
#X connect 12 0 13 0;
#X connect 13 0 14 1;
#X connect 14 0 17 0;
#X connect 15 0 21 0;
#X connect 15 1 5 0;
#X connect 15 2 12 0;
#X connect 15 2 22 0;
#X connect 15 2 23 0;
#X connect 16 0 10 0;
#X connect 18 0 19 0;
#X connect 19 0 3 0;
#X connect 20 0 4 0;
#X connect 21 0 11 0;
#X connect 22 0 11 1;
#X connect 23 0 11 2;
