#N canvas 134 264 466 436 10;
#X obj 40 34 inlet;
#X obj 40 91 t b;
#X obj 40 160 f 0;
#X obj 66 160 + 1;
#X msg 55 138 0;
#X obj 55 115 r sync;
#X obj 71 251 != -1;
#X floatatom 71 274 5 0 0 0 - - -;
#X obj 40 229 t f f, f 6;
#X obj 40 294 spigot;
#X obj 40 190 expr if($f1 == $f2 \, round((($f2 + (random(-4 \, 5)))
% $f3 + $f3) % $f3) \, -1), f 57;
#X obj 92 160 % 12;
#X obj 40 317 t f f, f 10;
#X obj 40 386 outlet;
#X obj 379 144 f \$1;
#X obj 135 34 inlet;
#X obj 379 90 loadbang;
#X connect 0 0 1 0;
#X connect 1 0 2 0;
#X connect 2 0 3 0;
#X connect 2 0 10 0;
#X connect 3 0 11 0;
#X connect 4 0 2 1;
#X connect 5 0 4 0;
#X connect 6 0 7 0;
#X connect 7 0 9 1;
#X connect 8 0 9 0;
#X connect 8 1 6 0;
#X connect 9 0 12 0;
#X connect 10 0 8 0;
#X connect 11 0 2 1;
#X connect 12 0 13 0;
#X connect 12 1 10 1;
#X connect 14 0 10 2;
#X connect 14 0 11 1;
#X connect 15 0 14 0;
#X connect 15 0 2 0;
#X connect 16 0 14 0;
