#N canvas 181 312 450 300 10;
#X obj 55 112 bng 15 250 50 0 empty empty empty 17 7 0 10 -262144 -1
-1;
#X obj 184 113 bng 15 250 50 0 empty empty empty 17 7 0 10 -262144
-1 -1;
#X obj 55 65 env~ 4096;
#X obj 124 170 line~;
#X obj 55 89 threshold~ 75 85 100 50;
#X msg 184 133 0.5 1000;
#X msg 55 132 0.25 500;
#X obj 56 21 inlet~;
#X obj 124 231 outlet~;
#X connect 0 0 6 0;
#X connect 1 0 5 0;
#X connect 2 0 4 0;
#X connect 3 0 8 0;
#X connect 4 0 0 0;
#X connect 4 1 1 0;
#X connect 5 0 3 0;
#X connect 6 0 3 0;
#X connect 7 0 2 0;
