#N canvas 366 241 744 437 10;
#X obj 67 13 inlet;
#X obj 67 102 f 0;
#X obj 67 125 + \$1;
#X obj 67 171 t f f;
#X obj 67 79 t b b b b, f 21;
#X obj 108 102 f 0;
#X obj 108 171 t f f;
#X obj 108 125 + \$2;
#X obj 149 102 f 0;
#X obj 149 171 t f f;
#X obj 190 102 f 0;
#X obj 190 171 t f f;
#X obj 149 125 + \$3;
#X obj 190 125 + \$4;
#X obj 67 266 outlet;
#X obj 164 13 r sync;
#X msg 164 47 0;
#X obj 255 12 inlet;
#X obj 108 246 outlet;
#X obj 149 266 outlet;
#X obj 190 246 outlet;
#X obj 67 148 % 25;
#X obj 108 148 % 25;
#X obj 149 148 % 25;
#X obj 190 148 % 25;
#X obj 67 194 + 0;
#X obj 108 194 + 0;
#X obj 149 194 + 0;
#X obj 190 194 + 0;
#X connect 0 0 4 0;
#X connect 1 0 2 0;
#X connect 2 0 21 0;
#X connect 3 0 25 0;
#X connect 3 1 1 1;
#X connect 4 0 1 0;
#X connect 4 1 5 0;
#X connect 4 2 8 0;
#X connect 4 3 10 0;
#X connect 5 0 7 0;
#X connect 6 0 26 0;
#X connect 6 1 5 1;
#X connect 7 0 22 0;
#X connect 8 0 12 0;
#X connect 9 0 27 0;
#X connect 9 1 8 1;
#X connect 10 0 13 0;
#X connect 11 0 28 0;
#X connect 11 1 10 1;
#X connect 12 0 23 0;
#X connect 13 0 24 0;
#X connect 15 0 16 0;
#X connect 16 0 10 1;
#X connect 16 0 8 1;
#X connect 16 0 5 1;
#X connect 16 0 1 1;
#X connect 17 0 28 1;
#X connect 17 0 27 1;
#X connect 17 0 26 1;
#X connect 17 0 25 1;
#X connect 21 0 3 0;
#X connect 22 0 6 0;
#X connect 23 0 9 0;
#X connect 24 0 11 0;
#X connect 25 0 14 0;
#X connect 26 0 18 0;
#X connect 27 0 19 0;
#X connect 28 0 20 0;
