#N canvas 435 210 709 492 10;
#X obj 168 319 *~;
#X obj 224 319 *~;
#X obj 288 225 abs~;
#X floatatom 178 130 5 0 10 0 - - -;
#X obj 168 235 *~ 0.2;
#X obj 287 145 phasor~;
#X obj 289 195 -~ 1;
#X obj 288 170 *~ 2;
#X obj 288 258 *~ -1;
#X obj 289 285 +~ 1;
#X obj 168 378 outlet~;
#X obj 110 132 hsl 60 15 0 1 0 0 empty empty empty -2 -8 0 10 -262144
-1 -1 0 1;
#X obj 237 377 outlet~;
#X obj 169 55 inlet~;
#X obj 284 54 inlet;
#X connect 0 0 10 0;
#X connect 1 0 12 0;
#X connect 2 0 0 1;
#X connect 2 0 8 0;
#X connect 3 0 5 0;
#X connect 4 0 0 0;
#X connect 4 0 1 0;
#X connect 5 0 7 0;
#X connect 6 0 2 0;
#X connect 7 0 6 0;
#X connect 8 0 9 0;
#X connect 9 0 1 1;
#X connect 11 0 4 1;
#X connect 13 0 4 0;
#X connect 14 0 3 0;
#X coords 0 -1 1 1 122 60 1 100 100;
