#N canvas 376 148 851 612 10;
#N canvas 0 50 450 250 (subpatch) 0;
#X array \$0-scale 7 float 3;
#A 0 0 3 5 7 10 12 15;
#X coords 0 16 7 -1 100 50 1 0 0;
#X restore 112 119 graph;
#X floatatom 365 505 5 0 0 0 - - -;
#X floatatom 112 267 5 0 0 0 - - -;
#X symbolatom 112 173 16 0 0 0 - - -;
#X obj 111 87 hradio 15 1 0 7 empty empty empty 0 -8 0 10 -262144 -1
-1 3;
#X obj 322 100 sel 0 1 2 3 4 5 6;
#X obj 111 64 bng 15 250 50 0 empty empty empty 17 7 0 10 -262144 -1
-1;
#X obj 112 221 random 7;
#X floatatom 133 64 5 0 0 1 r - -;
#X obj 112 289 +, f 4;
#X floatatom 112 312 5 0 0 0 - - -;
#X obj 111 8 inlet;
#X obj 156 8 inlet;
#X obj 112 525 outlet;
#X obj 199 525 outlet;
#X obj 199 448 - 12;
#X msg 402 213 0 2 4 7 9 12 14;
#X msg 440 258 0 3 5 7 10 12 15;
#X msg 329 145 symbol harmonica;
#X msg 322 123 0 2 3 5 7 8 11;
#X msg 371 190 symbol melodica;
#X msg 364 168 0 2 4 5 7 9 11;
#X msg 484 325 symbol whole;
#X msg 477 303 0 2 4 6 8 10 12;
#X msg 521 370 symbol diminished;
#X msg 514 348 0 2 3 5 6 8 9;
#X msg 558 415 symbol japan;
#X msg 551 393 0 1 5 7 8 12 13;
#X obj 199 424 f;
#X msg 409 235 symbol penta-maj;
#X msg 447 280 symbol penta-min;
#X msg 176 204 seed 123;
#X floatatom 176 64 5 0 0 1 s - -;
#X obj 204 9 inlet;
#X obj 322 527 array set \$0-scale;
#X obj 112 244 tabread \$0-scale;
#X obj 38 157 r \$0-s;
#X obj 320 167 s \$0-s;
#X obj 357 213 s \$0-s;
#X obj 395 258 s \$0-s;
#X obj 432 303 s \$0-s;
#X obj 470 348 s \$0-s;
#X obj 507 393 s \$0-s;
#X obj 558 437 s \$0-s;
#X connect 1 0 34 1;
#X connect 2 0 9 0;
#X connect 4 0 5 0;
#X connect 5 0 19 0;
#X connect 5 1 21 0;
#X connect 5 2 16 0;
#X connect 5 3 17 0;
#X connect 5 4 23 0;
#X connect 5 5 25 0;
#X connect 5 6 27 0;
#X connect 6 0 7 0;
#X connect 6 0 28 0;
#X connect 7 0 35 0;
#X connect 8 0 9 1;
#X connect 8 0 28 1;
#X connect 9 0 10 0;
#X connect 10 0 13 0;
#X connect 11 0 6 0;
#X connect 12 0 8 0;
#X connect 15 0 14 0;
#X connect 16 0 29 0;
#X connect 16 0 34 0;
#X connect 17 0 30 0;
#X connect 17 0 34 0;
#X connect 18 0 37 0;
#X connect 19 0 18 0;
#X connect 19 0 34 0;
#X connect 20 0 38 0;
#X connect 21 0 20 0;
#X connect 21 0 34 0;
#X connect 22 0 41 0;
#X connect 23 0 22 0;
#X connect 23 0 34 0;
#X connect 24 0 42 0;
#X connect 25 0 24 0;
#X connect 25 0 34 0;
#X connect 26 0 43 0;
#X connect 27 0 26 0;
#X connect 27 0 34 0;
#X connect 28 0 15 0;
#X connect 29 0 39 0;
#X connect 30 0 40 0;
#X connect 31 0 7 0;
#X connect 32 0 31 0;
#X connect 33 0 35 0;
#X connect 35 0 2 0;
#X connect 36 0 3 0;
#X coords 0 -1 1 1 118 155 1 105 45;
