#N canvas 666 271 568 432 10;
#X obj 47 32 tgl 15 0 empty empty run 17 7 0 10 -262144 -1 -1 0 1;
#X obj 47 137 metro 150;
#X obj 47 279 random 24;
#X obj 47 302 + 40;
#X obj 67 160 f;
#X obj 105 160 + 1;
#X obj 105 183 % 16;
#X obj 106 206 sel 0;
#X floatatom 98 32 5 0 0 1 ms - -;
#X floatatom 47 52 2 0 0 1 mod - -;
#X floatatom 157 32 5 0 0 1 seed - -;
#X floatatom 98 52 2 0 0 1 width - -;
#X floatatom 157 52 5 0 0 1 off - -;
#X obj 47 340 outlet;
#X obj 157 340 outlet;
#X obj 157 281 random 2;
#X msg 170 124 0;
#X obj 170 96 loadbang;
#X msg 63 243 seed \$1;
#X connect 0 0 1 0;
#X connect 1 0 4 0;
#X connect 1 0 2 0;
#X connect 1 0 15 0;
#X connect 2 0 3 0;
#X connect 3 0 13 0;
#X connect 4 0 5 0;
#X connect 4 0 7 0;
#X connect 5 0 6 0;
#X connect 6 0 4 1;
#X connect 7 0 10 0;
#X connect 8 0 1 1;
#X connect 9 0 6 1;
#X connect 10 0 18 0;
#X connect 11 0 2 1;
#X connect 12 0 3 1;
#X connect 15 0 14 0;
#X connect 16 0 4 1;
#X connect 17 0 16 0;
#X connect 18 0 2 0;
#X connect 18 0 15 0;
#X coords 0 -1 1 1 180 70 1 40 5;
