#N canvas 699 173 570 553 10;
#X obj 108 173 rev1~;
#X obj 189 172 rev1~;
#X obj 108 21 inlet~;
#X obj 188 21 inlet~;
#X obj 108 68 lop~ \$1;
#X obj 108 91 hip~ \$2;
#X obj 189 68 lop~ \$4;
#X obj 189 90 hip~ \$5;
#X obj 243 21 loadbang;
#X obj 108 464 outlet~;
#X obj 189 464 outlet~;
#X obj 119 150 clip 0 99;
#X obj 119 128 f \$3;
#X obj 202 150 clip 0 99;
#X obj 202 128 f \$6;
#X obj 287 181 abs~;
#X obj 287 159 -~ 1;
#X obj 287 137 *~ 2;
#X obj 288 203 *~ -1;
#X obj 288 226 +~ 1;
#X obj 287 115 phasor~ \$7;
#X obj 108 196 *~;
#X obj 189 241 *~;
#X obj 190 404 +~;
#X obj 123 362 delread~ \$0-dbuff;
#X obj 108 406 +~;
#X obj 159 280 delwrite~ \$0-dbuff 100;
#X obj 123 340 clip 0 100;
#X obj 243 361 delread~ \$0-dbuff;
#X obj 243 339 clip 0 100;
#X obj 123 317 f \$8;
#X obj 243 317 f \$9;
#X obj 243 387 *~ 0.75;
#X obj 123 384 *~ 0.75;
#X connect 0 0 21 0;
#X connect 1 0 22 0;
#X connect 2 0 4 0;
#X connect 3 0 6 0;
#X connect 4 0 5 0;
#X connect 5 0 0 0;
#X connect 6 0 7 0;
#X connect 7 0 1 0;
#X connect 8 0 12 0;
#X connect 8 0 14 0;
#X connect 8 0 30 0;
#X connect 8 0 31 0;
#X connect 11 0 0 1;
#X connect 12 0 11 0;
#X connect 13 0 1 1;
#X connect 14 0 13 0;
#X connect 15 0 18 0;
#X connect 15 0 21 1;
#X connect 16 0 15 0;
#X connect 17 0 16 0;
#X connect 18 0 19 0;
#X connect 19 0 22 1;
#X connect 20 0 17 0;
#X connect 21 0 25 0;
#X connect 21 0 26 0;
#X connect 22 0 23 0;
#X connect 22 0 26 0;
#X connect 23 0 10 0;
#X connect 24 0 33 0;
#X connect 25 0 9 0;
#X connect 27 0 24 0;
#X connect 28 0 32 0;
#X connect 29 0 28 0;
#X connect 30 0 27 0;
#X connect 31 0 29 0;
#X connect 32 0 23 1;
#X connect 33 0 25 1;
