#N canvas 424 239 616 495 10;
#X obj 235 106 until;
#X obj 235 152 f 0;
#X msg 313 106 0;
#X obj 235 129 t b b, f 11;
#X obj 298 152 f 0;
#X obj 324 152 + 1;
#X obj 298 198 sel 0;
#X obj 298 221 f 0;
#X obj 324 221 + 1;
#X obj 235 283 t f b, f 10;
#X obj 178 337 list store;
#X obj 388 324 bng 15 250 50 0 empty empty empty 17 7 0 10 -262144
-1 -1;
#X obj 235 260 % 12;
#X obj 235 306 list prepend;
#X obj 235 237 +;
#X msg 235 41 12;
#X obj 235 62 + 1;
#X obj 235 83 t f b b, f 26;
#X obj 261 152 + \$1;
#X obj 298 175 div \$2;
#X obj 178 383 spigot;
#X obj 178 431 outlet;
#X obj 235 12 inlet;
#X obj 178 12 inlet;
#X obj 178 35 f 0;
#X obj 178 58 + 1;
#X obj 178 81 % 12;
#X msg 178 205 get \$1 1;
#X obj 388 344 t b b;
#X msg 388 367 0;
#X obj 415 367 del 250;
#X msg 415 390 1;
#X obj 337 25 loadbang;
#X connect 0 0 3 0;
#X connect 1 0 14 0;
#X connect 1 0 18 0;
#X connect 2 0 4 1;
#X connect 3 0 1 0;
#X connect 3 1 4 0;
#X connect 4 0 5 0;
#X connect 4 0 19 0;
#X connect 5 0 4 1;
#X connect 6 0 7 0;
#X connect 7 0 8 0;
#X connect 7 0 14 1;
#X connect 8 0 7 1;
#X connect 9 0 13 0;
#X connect 9 1 10 0;
#X connect 10 0 13 1;
#X connect 10 0 20 0;
#X connect 11 0 10 1;
#X connect 11 0 28 0;
#X connect 12 0 9 0;
#X connect 13 0 10 1;
#X connect 14 0 12 0;
#X connect 15 0 16 0;
#X connect 16 0 17 0;
#X connect 17 0 0 0;
#X connect 17 1 2 0;
#X connect 17 2 11 0;
#X connect 18 0 1 1;
#X connect 19 0 6 0;
#X connect 20 0 21 0;
#X connect 22 0 15 0;
#X connect 23 0 24 0;
#X connect 24 0 25 0;
#X connect 25 0 26 0;
#X connect 26 0 24 1;
#X connect 26 0 27 0;
#X connect 27 0 10 0;
#X connect 28 0 29 0;
#X connect 28 1 30 0;
#X connect 29 0 20 1;
#X connect 30 0 31 0;
#X connect 31 0 20 1;
#X connect 32 0 15 0;
