#N canvas 273 186 808 528 10;
#X obj 99 22 inlet;
#X obj 240 22 inlet;
#X obj 240 202 spigot;
#X obj 285 202 tgl 15 0 empty empty empty 17 7 0 10 -262144 -1 -1 0
1;
#X obj 240 225 t f b, f 9;
#X obj 291 270 f 0;
#X obj 317 270 + 1;
#X obj 343 270 % 2;
#X msg 285 180 1, f 2;
#X obj 291 293 sel 0;
#X msg 263 293 0;
#X obj 240 317 t f b;
#X obj 99 434 list store, f 52;
#X obj 306 225 r sync;
#X msg 306 248 0;
#X obj 344 293 - 1;
#X obj 240 340 list prepend;
#X obj 255 373 list length;
#X obj 99 202 spigot;
#X obj 144 202 tgl 15 0 empty empty empty 17 7 0 10 -262144 -1 -1 1
1;
#X msg 144 180 0, f 2;
#X msg 167 201 1;
#X obj 99 389 f 0;
#X obj 159 389 % 4;
#X msg 99 411 get \$1 1;
#X obj 114 341 r sync;
#X msg 114 364 0;
#X obj 99 227 t b, f 4;
#X obj 408 203 spigot;
#X obj 453 203 tgl 15 0 empty empty empty 17 7 0 10 -262144 -1 -1 0
1;
#X obj 408 226 t f b, f 9;
#X obj 459 271 f 0;
#X obj 485 271 + 1;
#X obj 511 271 % 2;
#X msg 453 181 1, f 2;
#X obj 459 294 sel 0;
#X msg 431 294 0;
#X obj 408 318 t f b;
#X obj 474 226 r sync;
#X msg 474 249 0;
#X obj 512 294 - 1;
#X obj 423 373 list length;
#X obj 408 341 list append;
#X obj 240 140 route 0 1;
#X obj 240 73 t b f, f 8;
#X obj 240 118 pack 0 0;
#X obj 358 206 f \$2;
#X obj 526 207 f \$2;
#X obj 240 96 f \$1;
#X obj 126 389 + \$3;
#X obj 99 492 outlet;
#X obj 358 22 inlet;
#X obj 358 164 bang;
#X obj 436 70 loadbang;
#X connect 0 0 18 0;
#X connect 1 0 44 0;
#X connect 2 0 4 0;
#X connect 3 0 2 1;
#X connect 4 0 11 0;
#X connect 4 1 5 0;
#X connect 5 0 6 0;
#X connect 5 0 9 0;
#X connect 6 0 7 0;
#X connect 7 0 5 1;
#X connect 8 0 3 0;
#X connect 9 0 10 0;
#X connect 9 0 21 0;
#X connect 10 0 3 0;
#X connect 10 0 29 0;
#X connect 11 0 16 0;
#X connect 11 1 12 0;
#X connect 12 0 16 1;
#X connect 12 0 42 1;
#X connect 12 0 50 0;
#X connect 13 0 14 0;
#X connect 14 0 5 1;
#X connect 15 0 9 1;
#X connect 16 0 17 0;
#X connect 16 0 12 1;
#X connect 17 0 23 1;
#X connect 18 0 27 0;
#X connect 19 0 18 1;
#X connect 20 0 19 0;
#X connect 21 0 19 0;
#X connect 22 0 24 0;
#X connect 22 0 49 0;
#X connect 23 0 22 1;
#X connect 24 0 12 0;
#X connect 25 0 26 0;
#X connect 26 0 22 1;
#X connect 27 0 22 0;
#X connect 28 0 30 0;
#X connect 29 0 28 1;
#X connect 30 0 37 0;
#X connect 30 1 31 0;
#X connect 31 0 32 0;
#X connect 31 0 35 0;
#X connect 32 0 33 0;
#X connect 33 0 31 1;
#X connect 34 0 29 0;
#X connect 35 0 36 0;
#X connect 35 0 21 0;
#X connect 36 0 29 0;
#X connect 36 0 3 0;
#X connect 37 0 42 0;
#X connect 37 1 12 0;
#X connect 38 0 39 0;
#X connect 39 0 31 1;
#X connect 40 0 35 1;
#X connect 41 0 23 1;
#X connect 42 0 41 0;
#X connect 42 0 12 1;
#X connect 43 0 2 0;
#X connect 43 1 28 0;
#X connect 44 0 48 0;
#X connect 44 1 45 1;
#X connect 45 0 43 0;
#X connect 46 0 7 1;
#X connect 46 0 15 0;
#X connect 47 0 33 1;
#X connect 47 0 40 0;
#X connect 48 0 45 0;
#X connect 49 0 23 0;
#X connect 51 0 52 0;
#X connect 52 0 8 0;
#X connect 52 0 14 0;
#X connect 52 0 12 1;
#X connect 52 0 20 0;
#X connect 52 0 26 0;
#X connect 52 0 34 0;
#X connect 52 0 39 0;
#X connect 52 0 46 0;
#X connect 52 0 47 0;
#X connect 53 0 52 0;
