#N canvas 854 209 450 366 10;
#X obj 46 168 route 0 1;
#X obj 46 28 inlet;
#X obj 46 70 t b;
#X obj 116 28 inlet;
#X obj 116 69 t b;
#X obj 190 28 inlet;
#X obj 190 66 t b;
#X obj 190 89 f 0;
#X obj 216 89 + 1;
#X obj 242 89 % 2;
#X obj 46 144 pack 0 1;
#X obj 46 121 f 0;
#X obj 74 121 == 1;
#X obj 116 168 route 0 1;
#X obj 116 144 pack 0 1;
#X obj 116 121 f 0;
#X obj 144 121 == 0;
#X obj 46 220 t b;
#X obj 46 263 outlet;
#X obj 141 220 t b;
#X obj 141 263 outlet;
#X connect 0 0 17 0;
#X connect 0 1 19 0;
#X connect 1 0 2 0;
#X connect 2 0 11 0;
#X connect 3 0 4 0;
#X connect 4 0 15 0;
#X connect 5 0 6 0;
#X connect 6 0 7 0;
#X connect 7 0 8 0;
#X connect 7 0 12 0;
#X connect 7 0 16 0;
#X connect 8 0 9 0;
#X connect 9 0 7 1;
#X connect 10 0 0 0;
#X connect 11 0 10 0;
#X connect 12 0 11 1;
#X connect 13 0 17 0;
#X connect 13 1 19 0;
#X connect 14 0 13 0;
#X connect 15 0 14 0;
#X connect 16 0 15 1;
#X connect 17 0 18 0;
#X connect 19 0 20 0;
