#N canvas 490 155 722 589 10;
#X msg 301 264 0 1 2 3 4 5 6 7 8 9 10 11;
#X obj 188 113 list split 3, f 19;
#X obj 131 390 list store;
#X obj 158 207 list prepend;
#X obj 188 136 t b l;
#X obj 243 136 t b l;
#X obj 158 161 list store;
#X obj 243 161 list store;
#X obj 158 184 list split 2;
#X obj 243 184 list split 2;
#X obj 243 207 list prepend;
#X obj 188 234 list prepend;
#X obj 301 240 loadbang;
#X obj 501 24 inlet;
#X obj 501 321 t b b b;
#X obj 502 372 spigot;
#X msg 540 344 1;
#X msg 501 344 0;
#X msg 131 365 get \$1 1;
#X obj 131 272 f 0;
#X obj 157 272 + 1;
#X obj 183 272 % 12;
#X obj 75 233 r sync;
#X msg 75 256 0;
#X obj 131 24 inlet;
#X obj 198 24 inlet;
#X obj 177 78 clip 0 3;
#X obj 222 390 list store;
#X msg 222 365 get \$1 1;
#X obj 131 414 spigot;
#X obj 176 413 == 0;
#X obj 222 414 spigot;
#X obj 267 413 == 1;
#X obj 131 295 t f f f f, f 46;
#X obj 313 367 list store;
#X msg 313 342 get \$1 1;
#X obj 313 414 spigot;
#X obj 358 413 == 2;
#X obj 404 366 list store;
#X msg 404 341 get \$1 1;
#X obj 404 413 spigot;
#X obj 449 412 == 3;
#X obj 131 54 t b b;
#X obj 131 519 outlet;
#X obj 177 54 i \$1;
#X obj 222 342 expr 11-$f1;
#X obj 313 390 expr 11-$f1;
#X obj 404 319 expr 11-$f1;
#X obj 404 389 expr 11-$f1;
#X obj 326 495 sel 11;
#X obj 326 519 outlet;
#X obj 299 68 i \$2;
#X obj 299 91 clip 0 11;
#X obj 363 139 clip 0 11;
#X obj 440 168 clip 0 11;
#X obj 363 116 i \$3;
#X obj 440 145 i \$4;
#X connect 0 0 2 1;
#X connect 0 0 27 1;
#X connect 0 0 34 1;
#X connect 0 0 38 1;
#X connect 1 0 4 0;
#X connect 1 1 5 0;
#X connect 2 0 1 0;
#X connect 2 0 29 0;
#X connect 3 0 11 0;
#X connect 4 0 6 0;
#X connect 4 1 6 1;
#X connect 5 0 7 0;
#X connect 5 1 7 1;
#X connect 6 0 8 0;
#X connect 7 0 9 0;
#X connect 8 0 3 0;
#X connect 8 1 3 1;
#X connect 9 0 10 0;
#X connect 9 1 10 1;
#X connect 10 0 11 1;
#X connect 11 0 2 1;
#X connect 11 0 27 1;
#X connect 11 0 34 1;
#X connect 11 0 38 1;
#X connect 12 0 0 0;
#X connect 12 0 23 0;
#X connect 12 0 51 0;
#X connect 12 0 55 0;
#X connect 12 0 56 0;
#X connect 13 0 14 0;
#X connect 14 0 17 0;
#X connect 14 1 15 0;
#X connect 14 2 16 0;
#X connect 15 0 2 0;
#X connect 16 0 15 1;
#X connect 17 0 15 1;
#X connect 18 0 2 0;
#X connect 19 0 20 0;
#X connect 19 0 33 0;
#X connect 19 0 49 0;
#X connect 20 0 21 0;
#X connect 21 0 19 1;
#X connect 22 0 23 0;
#X connect 23 0 19 1;
#X connect 24 0 42 0;
#X connect 25 0 44 1;
#X connect 26 0 30 0;
#X connect 26 0 32 0;
#X connect 26 0 37 0;
#X connect 26 0 41 0;
#X connect 27 0 31 0;
#X connect 28 0 27 0;
#X connect 29 0 43 0;
#X connect 30 0 29 1;
#X connect 31 0 43 0;
#X connect 32 0 31 1;
#X connect 33 0 18 0;
#X connect 33 1 45 0;
#X connect 33 2 35 0;
#X connect 33 3 47 0;
#X connect 34 0 46 0;
#X connect 35 0 34 0;
#X connect 36 0 43 0;
#X connect 37 0 36 1;
#X connect 38 0 48 0;
#X connect 39 0 38 0;
#X connect 40 0 43 0;
#X connect 41 0 40 1;
#X connect 42 0 19 0;
#X connect 42 1 44 0;
#X connect 44 0 26 0;
#X connect 45 0 28 0;
#X connect 46 0 36 0;
#X connect 47 0 39 0;
#X connect 48 0 40 0;
#X connect 49 0 50 0;
#X connect 51 0 52 0;
#X connect 52 0 1 1;
#X connect 53 0 8 1;
#X connect 54 0 9 1;
#X connect 55 0 53 0;
#X connect 56 0 54 0;
