#N canvas 0 116 1366 652 10;
#X obj 194 222 *, f 12;
#X obj 125 391 biquad~;
#X obj 194 245 expr 2*cos(6.283185*$f1/44100) * (1/(1+sin(6.283185*$f1/44100)/(2*$f2)))
\; -(1-sin(6.283185*$f1/44100)/(2*$f2)) * (1/(1+sin(6.283185*$f1/44100)/(2*$f2)))
\; sin(6.283185*$f1/44100)/2 * (1/(1+sin(6.283185*$f1/44100)/(2*$f2)))
\; 0 \; -sin(6.283185*$f1/44100)/2 * (1/(1+sin(6.283185*$f1/44100)/(2*$f2)))
;
#X obj 404 133 expr 2 + (48 * pow($f1 \, 3)), f 12;
#X obj 194 375 pack 0 0 0 0 0, f 40;
#X obj 404 183 t b f;
#X obj 404 108 clip 0 2;
#X obj 126 25 inlet~;
#X obj 125 415 +~;
#X obj 194 199 f 0;
#X obj 194 25 inlet;
#X obj 194 80 mtof;
#X obj 263 25 inlet;
#X obj 263 79 unpack 0 0 0 0, f 137;
#X obj 404 25 inlet;
#X obj 467 222 *, f 12;
#X obj 467 398 biquad~;
#X obj 467 245 expr 2*cos(6.283185*$f1/44100) * (1/(1+sin(6.283185*$f1/44100)/(2*$f2)))
\; -(1-sin(6.283185*$f1/44100)/(2*$f2)) * (1/(1+sin(6.283185*$f1/44100)/(2*$f2)))
\; sin(6.283185*$f1/44100)/2 * (1/(1+sin(6.283185*$f1/44100)/(2*$f2)))
\; 0 \; -sin(6.283185*$f1/44100)/2 * (1/(1+sin(6.283185*$f1/44100)/(2*$f2)))
;
#X obj 677 133 expr 2 + (48 * pow($f1 \, 3)), f 12;
#X obj 467 375 pack 0 0 0 0 0, f 40;
#X obj 677 183 t b f;
#X obj 677 108 clip 0 2;
#X obj 467 199 f 0;
#X obj 740 222 *, f 12;
#X obj 740 421 biquad~;
#X obj 740 245 expr 2*cos(6.283185*$f1/44100) * (1/(1+sin(6.283185*$f1/44100)/(2*$f2)))
\; -(1-sin(6.283185*$f1/44100)/(2*$f2)) * (1/(1+sin(6.283185*$f1/44100)/(2*$f2)))
\; sin(6.283185*$f1/44100)/2 * (1/(1+sin(6.283185*$f1/44100)/(2*$f2)))
\; 0 \; -sin(6.283185*$f1/44100)/2 * (1/(1+sin(6.283185*$f1/44100)/(2*$f2)))
;
#X obj 950 133 expr 2 + (48 * pow($f1 \, 3)), f 12;
#X obj 740 375 pack 0 0 0 0 0, f 40;
#X obj 950 183 t b f;
#X obj 950 108 clip 0 2;
#X obj 738 199 f 0;
#X obj 125 438 +~;
#X obj 1013 222 *, f 12;
#X obj 1013 447 biquad~;
#X obj 1013 245 expr 2*cos(6.283185*$f1/44100) * (1/(1+sin(6.283185*$f1/44100)/(2*$f2)))
\; -(1-sin(6.283185*$f1/44100)/(2*$f2)) * (1/(1+sin(6.283185*$f1/44100)/(2*$f2)))
\; sin(6.283185*$f1/44100)/2 * (1/(1+sin(6.283185*$f1/44100)/(2*$f2)))
\; 0 \; -sin(6.283185*$f1/44100)/2 * (1/(1+sin(6.283185*$f1/44100)/(2*$f2)))
;
#X obj 1223 133 expr 2 + (48 * pow($f1 \, 3)), f 12;
#X obj 1013 375 pack 0 0 0 0 0, f 40;
#X obj 1223 183 t b f;
#X obj 1223 108 clip 0 2;
#X obj 1013 199 f 0;
#X obj 125 461 +~;
#X obj 125 484 *~ 0.25;
#X obj 125 594 outlet~;
#X connect 0 0 2 0;
#X connect 1 0 8 0;
#X connect 2 0 4 0;
#X connect 2 1 4 1;
#X connect 2 2 4 2;
#X connect 2 3 4 3;
#X connect 2 4 4 4;
#X connect 3 0 5 0;
#X connect 4 0 1 0;
#X connect 5 0 9 0;
#X connect 5 1 2 1;
#X connect 6 0 3 0;
#X connect 7 0 1 0;
#X connect 8 0 31 0;
#X connect 9 0 0 0;
#X connect 10 0 11 0;
#X connect 11 0 9 0;
#X connect 11 0 22 0;
#X connect 11 0 30 0;
#X connect 11 0 39 0;
#X connect 12 0 13 0;
#X connect 13 0 0 1;
#X connect 13 1 15 1;
#X connect 13 2 23 1;
#X connect 13 3 32 1;
#X connect 14 0 6 0;
#X connect 14 0 21 0;
#X connect 14 0 29 0;
#X connect 14 0 38 0;
#X connect 15 0 17 0;
#X connect 16 0 8 1;
#X connect 17 0 19 0;
#X connect 17 1 19 1;
#X connect 17 2 19 2;
#X connect 17 3 19 3;
#X connect 17 4 19 4;
#X connect 18 0 20 0;
#X connect 19 0 16 0;
#X connect 20 0 22 0;
#X connect 20 1 17 1;
#X connect 21 0 18 0;
#X connect 22 0 15 0;
#X connect 23 0 25 0;
#X connect 24 0 31 1;
#X connect 25 0 27 0;
#X connect 25 1 27 1;
#X connect 25 2 27 2;
#X connect 25 3 27 3;
#X connect 25 4 27 4;
#X connect 26 0 28 0;
#X connect 27 0 24 0;
#X connect 28 0 30 0;
#X connect 28 1 25 1;
#X connect 29 0 26 0;
#X connect 30 0 23 0;
#X connect 31 0 40 0;
#X connect 32 0 34 0;
#X connect 33 0 40 1;
#X connect 34 0 36 0;
#X connect 34 1 36 1;
#X connect 34 2 36 2;
#X connect 34 3 36 3;
#X connect 34 4 36 4;
#X connect 35 0 37 0;
#X connect 36 0 33 0;
#X connect 37 0 39 0;
#X connect 37 1 34 1;
#X connect 38 0 35 0;
#X connect 39 0 32 0;
#X connect 40 0 41 0;
#X connect 41 0 42 0;
