#N canvas 192 209 980 496 10;
#X obj 126 44 inlet;
#X obj 126 188 f 0;
#X obj 151 188 + 1;
#X obj 176 187 % 4;
#X obj 141 81 r sync;
#X msg 141 104 0;
#X msg 126 255 get \$1 1, f 11;
#X obj 225 44 inlet;
#X obj 554 97 list length;
#X obj 126 278 list store, f 17;
#X obj 126 135 t b b b b, f 61;
#X obj 247 188 f 0;
#X obj 272 188 + 1;
#X obj 247 210 sel 0;
#X obj 247 232 f 0;
#X obj 272 232 + 1;
#X obj 297 232 % 4;
#X msg 247 255 get \$1 1, f 11;
#X obj 247 278 list store, f 12;
#X obj 297 188 % \$1;
#X obj 333 44 inlet;
#X obj 368 188 f 0;
#X obj 393 188 + 1;
#X obj 368 210 sel 0;
#X obj 368 232 f 0;
#X obj 393 232 + 1;
#X obj 418 232 % 4;
#X msg 368 255 get \$1 1, f 11;
#X obj 368 278 list store, f 11;
#X obj 439 163 i 4;
#X obj 318 163 i 2;
#X obj 454 44 inlet;
#X obj 225 81 t a a a a a, f 48;
#X obj 489 188 f 0;
#X obj 514 188 + 1;
#X obj 489 210 sel 0;
#X obj 489 232 f 0;
#X obj 514 232 + 1;
#X obj 539 232 % 4;
#X msg 489 255 get \$1 1, f 11;
#X obj 489 278 list store, f 11;
#X obj 560 163 i 8;
#X obj 575 44 inlet;
#X obj 418 188 % \$2;
#X obj 539 188 % \$3;
#X obj 126 211 t f f;
#X obj 153 233 sel 0;
#X obj 126 356 outlet;
#X obj 247 356 outlet;
#X obj 368 356 outlet;
#X obj 489 356 outlet;
#X connect 0 0 10 0;
#X connect 1 0 2 0;
#X connect 1 0 45 0;
#X connect 2 0 3 0;
#X connect 3 0 1 1;
#X connect 4 0 5 0;
#X connect 5 0 1 1;
#X connect 5 0 11 1;
#X connect 5 0 14 1;
#X connect 5 0 21 1;
#X connect 5 0 24 1;
#X connect 6 0 9 0;
#X connect 7 0 32 0;
#X connect 8 0 3 1;
#X connect 8 0 16 1;
#X connect 8 0 26 1;
#X connect 8 0 38 1;
#X connect 9 0 47 0;
#X connect 10 0 1 0;
#X connect 10 1 11 0;
#X connect 10 2 21 0;
#X connect 10 3 33 0;
#X connect 11 0 12 0;
#X connect 11 0 13 0;
#X connect 12 0 19 0;
#X connect 13 0 14 0;
#X connect 14 0 15 0;
#X connect 14 0 17 0;
#X connect 15 0 16 0;
#X connect 16 0 14 1;
#X connect 17 0 18 0;
#X connect 18 0 48 0;
#X connect 19 0 11 1;
#X connect 20 0 30 1;
#X connect 21 0 22 0;
#X connect 21 0 23 0;
#X connect 22 0 43 0;
#X connect 23 0 24 0;
#X connect 24 0 25 0;
#X connect 24 0 27 0;
#X connect 25 0 26 0;
#X connect 26 0 24 1;
#X connect 27 0 28 0;
#X connect 28 0 49 0;
#X connect 29 0 43 1;
#X connect 30 0 19 1;
#X connect 31 0 29 1;
#X connect 32 0 9 1;
#X connect 32 1 18 1;
#X connect 32 2 28 1;
#X connect 32 3 40 1;
#X connect 32 4 8 0;
#X connect 33 0 34 0;
#X connect 33 0 35 0;
#X connect 34 0 44 0;
#X connect 35 0 36 0;
#X connect 36 0 37 0;
#X connect 36 0 39 0;
#X connect 37 0 38 0;
#X connect 38 0 36 1;
#X connect 39 0 40 0;
#X connect 40 0 50 0;
#X connect 41 0 44 1;
#X connect 42 0 41 1;
#X connect 43 0 21 1;
#X connect 44 0 33 1;
#X connect 45 0 6 0;
#X connect 45 1 46 0;
#X connect 46 0 30 0;
#X connect 46 0 41 0;
#X connect 46 0 29 0;
