#N canvas 549 157 637 605 10;
#X obj 54 11 inlet;
#X obj 54 63 bng 15 250 50 0 empty empty trg 17 7 0 10 -262144 -1 -1
;
#X obj 54 163 f 0;
#X obj 81 163 + 1;
#X obj 109 163 % 2;
#X msg 54 306 get \$1 1;
#X obj 324 11 inlet;
#X obj 324 54 t a a;
#X obj 324 77 list length;
#X obj 170 322 list store;
#X floatatom 96 63 2 1 11 1 jump - -;
#X obj 144 163 f 0;
#X obj 199 163 % 2;
#X obj 171 163 - 1;
#X obj 54 85 hradio 15 1 0 2 empty empty +/- 0 22 0 10 -262144 -1 -1
0;
#X obj 144 266 spigot;
#X obj 54 266 spigot;
#X obj 239 163 sel 0 1, f 22;
#X msg 239 199 0;
#X msg 268 199 1;
#X msg 303 199 1;
#X msg 333 199 0;
#X obj 159 195 - 1;
#X obj 144 217 + 0;
#X floatatom 144 63 2 0 12 1 tra - -;
#X obj 197 367 expr 12-$f1;
#X obj 170 345 t f f;
#X obj 197 390 spigot;
#X obj 170 413 spigot;
#X obj 170 447 + 0;
#X floatatom 170 470 5 0 0 0 - - -;
#X obj 96 85 hradio 15 1 0 2 empty empty neg 0 22 0 10 -1 -262144 -1
1;
#X obj 275 367 sel 0 1, f 22;
#X msg 275 403 0;
#X msg 304 403 1;
#X msg 339 403 1;
#X msg 369 403 0;
#X obj 170 492 + 0;
#X obj 170 515 t f f;
#X obj 235 531 % 12;
#X msg 256 504 12;
#X msg 285 504 24;
#X msg 314 504 36;
#X msg 343 504 48;
#X obj 170 566 outlet;
#X obj 144 85 nbx 1 15 1 4 0 0 empty empty oct 0 22 0 10 -128992 -262144
-1 2 256;
#X obj 96 11 inlet;
#X obj 144 11 inlet;
#X obj 196 10 inlet;
#X obj 196 33 clip 0 1;
#X obj 256 10 inlet;
#X obj 256 33 clip 0 1;
#X obj 256 481 sel 1 2 3 4, f 20;
#X connect 0 0 1 0;
#X connect 1 0 2 0;
#X connect 1 0 11 0;
#X connect 2 0 3 0;
#X connect 2 0 16 0;
#X connect 3 0 4 0;
#X connect 4 0 2 1;
#X connect 5 0 9 0;
#X connect 6 0 7 0;
#X connect 7 0 8 0;
#X connect 7 1 9 1;
#X connect 8 0 4 1;
#X connect 8 0 12 1;
#X connect 8 0 22 0;
#X connect 9 0 26 0;
#X connect 10 0 3 1;
#X connect 10 0 13 1;
#X connect 11 0 13 0;
#X connect 11 0 23 0;
#X connect 12 0 11 1;
#X connect 13 0 12 0;
#X connect 14 0 17 0;
#X connect 15 0 5 0;
#X connect 16 0 5 0;
#X connect 17 0 18 0;
#X connect 17 0 19 0;
#X connect 17 1 20 0;
#X connect 17 1 21 0;
#X connect 18 0 15 1;
#X connect 19 0 16 1;
#X connect 20 0 15 1;
#X connect 21 0 16 1;
#X connect 22 0 23 1;
#X connect 23 0 15 0;
#X connect 24 0 29 1;
#X connect 25 0 27 0;
#X connect 26 0 28 0;
#X connect 26 1 25 0;
#X connect 27 0 29 0;
#X connect 28 0 29 0;
#X connect 29 0 30 0;
#X connect 30 0 37 0;
#X connect 31 0 32 0;
#X connect 32 0 33 0;
#X connect 32 0 34 0;
#X connect 32 1 35 0;
#X connect 32 1 36 0;
#X connect 33 0 27 1;
#X connect 34 0 28 1;
#X connect 35 0 27 1;
#X connect 36 0 28 1;
#X connect 37 0 38 0;
#X connect 38 0 44 0;
#X connect 38 1 39 0;
#X connect 39 0 37 1;
#X connect 40 0 39 1;
#X connect 41 0 39 1;
#X connect 42 0 39 1;
#X connect 43 0 39 1;
#X connect 45 0 52 0;
#X connect 46 0 10 0;
#X connect 47 0 24 0;
#X connect 48 0 49 0;
#X connect 49 0 14 0;
#X connect 50 0 51 0;
#X connect 51 0 31 0;
#X connect 52 0 40 0;
#X connect 52 1 41 0;
#X connect 52 2 42 0;
#X connect 52 3 43 0;
#X coords 0 -1 1 1 140 85 1 45 35;
