#N canvas 201 320 450 300 10;
#X obj 71 162 list store, f 14;
#X msg 71 138 get \$1 1;
#X obj 71 185 t b a, f 14;
#X obj 125 98 list length;
#X obj 125 71 t a a;
#X obj 71 114 %;
#X obj 71 256 outlet;
#X obj 152 256 outlet;
#X obj 71 11 inlet;
#X obj 125 11 inlet;
#X connect 0 0 2 0;
#X connect 1 0 0 0;
#X connect 2 0 6 0;
#X connect 2 1 7 0;
#X connect 3 0 5 1;
#X connect 4 0 3 0;
#X connect 4 1 0 1;
#X connect 5 0 1 0;
#X connect 8 0 5 0;
#X connect 9 0 4 0;
