#N canvas 132 222 450 300 10;
#X obj 61 165 t f f;
#X obj 211 158 pipe 10;
#X obj 61 129 expr ($f1 + $f2) % 12 \; $f1 \;;
#X obj 61 81 t b b, f 22;
#X obj 61 104 i \$1, f 5;
#X obj 190 104 i \$2;
#X obj 61 19 inlet;
#X obj 61 228 outlet;
#X connect 0 0 7 0;
#X connect 0 1 4 1;
#X connect 1 0 5 1;
#X connect 2 0 0 0;
#X connect 2 1 1 0;
#X connect 3 0 4 0;
#X connect 3 1 5 0;
#X connect 4 0 2 0;
#X connect 5 0 2 1;
#X connect 6 0 3 0;
