#N canvas 417 289 895 439 10;
#X obj 19 15 inlet;
#X obj 19 121 % 12;
#X obj 19 144 sel 0 1 2 3 4 5 6 7 8 9 10 11;
#X obj 182 318 loadbang;
#X obj 18 357 outlet;
#X obj 18 311 list prepend set;
#X obj 18 335 list trim;
#X msg 182 341 set;
#X obj 19 291 t a;
#X msg 19 211 DO;
#X msg 49 211 DO#;
#X msg 79 211 RE;
#X msg 139 211 MI;
#X msg 169 211 FA;
#X msg 199 211 FA#;
#X msg 229 211 SOL;
#X msg 259 211 SOL#;
#X msg 289 211 LA;
#X msg 319 211 SIb;
#X msg 349 211 SI;
#X msg 109 211 MIb;
#X obj 389 121 % 12;
#X obj 389 144 sel 0 1 2 3 4 5 6 7 8 9 10 11;
#X obj 552 318 loadbang;
#X obj 388 357 outlet;
#X obj 388 311 list prepend set;
#X obj 388 335 list trim;
#X msg 552 341 set;
#X obj 389 291 t a;
#X msg 389 211 1;
#X msg 419 211 2b;
#X msg 449 211 2;
#X msg 479 211 3m;
#X msg 509 211 3M;
#X msg 539 211 4;
#X msg 569 211 4#/5b;
#X msg 611 211 5;
#X msg 640 211 5#;
#X msg 673 211 6;
#X msg 703 211 7m;
#X msg 733 211 7M;
#X obj 19 59 t f f;
#X obj 404 15 inlet;
#X obj 19 98 expr if($f1>0 \, $f1 \, 96+$f1);
#X obj 389 98 expr if($f1>0 \, $f1 \, 96+$f1);
#X obj 389 75 - 0;
#X obj 404 52 clip 0 11;
#X connect 0 0 41 0;
#X connect 1 0 2 0;
#X connect 2 0 9 0;
#X connect 2 1 10 0;
#X connect 2 2 11 0;
#X connect 2 3 20 0;
#X connect 2 4 12 0;
#X connect 2 5 13 0;
#X connect 2 6 14 0;
#X connect 2 7 15 0;
#X connect 2 8 16 0;
#X connect 2 9 17 0;
#X connect 2 10 18 0;
#X connect 2 11 19 0;
#X connect 3 0 7 0;
#X connect 5 0 6 0;
#X connect 6 0 4 0;
#X connect 7 0 4 0;
#X connect 8 0 5 0;
#X connect 9 0 8 0;
#X connect 10 0 8 0;
#X connect 11 0 8 0;
#X connect 12 0 8 0;
#X connect 13 0 8 0;
#X connect 14 0 8 0;
#X connect 15 0 8 0;
#X connect 16 0 8 0;
#X connect 17 0 8 0;
#X connect 18 0 8 0;
#X connect 19 0 8 0;
#X connect 20 0 8 0;
#X connect 21 0 22 0;
#X connect 22 0 29 0;
#X connect 22 1 30 0;
#X connect 22 2 31 0;
#X connect 22 3 32 0;
#X connect 22 4 33 0;
#X connect 22 5 34 0;
#X connect 22 6 35 0;
#X connect 22 7 36 0;
#X connect 22 8 37 0;
#X connect 22 9 38 0;
#X connect 22 10 39 0;
#X connect 22 11 40 0;
#X connect 23 0 27 0;
#X connect 25 0 26 0;
#X connect 26 0 24 0;
#X connect 27 0 24 0;
#X connect 28 0 25 0;
#X connect 29 0 28 0;
#X connect 30 0 28 0;
#X connect 31 0 28 0;
#X connect 32 0 28 0;
#X connect 33 0 28 0;
#X connect 34 0 28 0;
#X connect 35 0 28 0;
#X connect 36 0 28 0;
#X connect 37 0 28 0;
#X connect 38 0 28 0;
#X connect 39 0 28 0;
#X connect 40 0 28 0;
#X connect 41 0 43 0;
#X connect 41 1 45 0;
#X connect 42 0 46 0;
#X connect 43 0 1 0;
#X connect 44 0 21 0;
#X connect 45 0 44 0;
#X connect 46 0 45 1;
