#N canvas 151 138 994 608 10;
#X obj 431 263 f 0;
#X obj 456 263 + 1;
#X obj 431 286 t f f;
#X obj 471 286 pipe 250;
#X obj 431 240 t b;
#X obj 431 13 inlet;
#X obj 40 255 tgl 15 0 empty 0-pcolor empty 17 7 0 10 -66577 -262144
-1 0 1;
#X obj 57 255 tgl 15 0 empty 1-pcolor empty 17 7 0 10 -66577 -262144
-1 0 1;
#X obj 74 255 tgl 15 0 empty 2-pcolor empty 17 7 0 10 -66577 -262144
-1 1 1;
#X obj 91 255 tgl 15 0 empty 3-pcolor empty 17 7 0 10 -66577 -262144
-1 0 1;
#X obj 108 255 tgl 15 0 empty 4-pcolor empty 17 7 0 10 -66577 -262144
-1 0 1;
#X obj 125 255 tgl 15 0 empty 5-pcolor empty 17 7 0 10 -66577 -262144
-1 1 1;
#X obj 142 255 tgl 15 0 empty 6-pcolor empty 17 7 0 10 -233017 -262144
-1 1 1;
#X obj 159 255 tgl 15 0 empty 7-pcolor empty 17 7 0 10 -233017 -262144
-1 1 1;
#X obj 176 255 tgl 15 0 empty 8-pcolor empty 17 7 0 10 -66577 -262144
-1 0 1;
#X obj 193 255 tgl 15 0 empty 9-pcolor empty 17 7 0 10 -66577 -262144
-1 0 1;
#X obj 210 255 tgl 15 0 empty 10-pcolor empty 17 7 0 10 -66577 -262144
-1 0 1;
#X obj 227 255 tgl 15 0 empty 11-pcolor empty 17 7 0 10 -66577 -262144
-1 1 1;
#X obj 244 255 tgl 15 0 empty 12-pcolor empty 17 7 0 10 -66577 -262144
-1 0 1;
#X obj 261 255 tgl 15 0 empty 13-pcolor empty 17 7 0 10 -66577 -262144
-1 0 1;
#X obj 278 255 tgl 15 0 empty 14-pcolor empty 17 7 0 10 -66577 -262144
-1 0 1;
#X obj 295 255 tgl 15 0 empty 15-pcolor empty 17 7 0 10 -66577 -262144
-1 0 1;
#X obj 481 263 % 16;
#X obj 7 352 spigot;
#X obj 24 376 spigot;
#X obj 41 400 spigot;
#X obj 58 426 spigot;
#X obj 75 352 spigot;
#X obj 92 376 spigot;
#X obj 109 400 spigot;
#X obj 126 426 spigot;
#X obj 143 352 spigot;
#X obj 160 376 spigot;
#X obj 177 400 spigot;
#X obj 194 426 spigot;
#X obj 211 352 spigot;
#X obj 228 376 spigot;
#X obj 245 400 spigot;
#X obj 262 426 spigot;
#X obj 13 302 sel 0 1 2 3 4 5 6 7 8 9 10 11 12 13 14 15, f 47;
#X obj 41 508 t b;
#X obj 41 578 outlet;
#X msg 471 354 \; \$1-pcolor color 2;
#X msg 431 313 \; \$1-pcolor color 10 \;;
#X obj 459 216 r sync;
#X msg 459 239 0;
#X obj 295 223 expr ($f1 >> 0) & 1;
#X obj 278 200 expr ($f1 >> 1) & 1;
#X obj 261 177 expr ($f1 >> 2) & 1;
#X obj 244 154 expr ($f1 >> 3) & 1;
#X obj 227 131 expr ($f1 >> 4) & 1;
#X obj 210 108 expr ($f1 >> 5) & 1;
#X obj 193 85 expr ($f1 >> 6) & 1;
#X obj 176 62 expr ($f1 >> 7) & 1;
#X obj 159 223 expr ($f1 >> 8) & 1;
#X obj 142 200 expr ($f1 >> 9) & 1;
#X obj 125 177 expr ($f1 >> 10) & 1;
#X obj 108 154 expr ($f1 >> 11) & 1;
#X obj 91 131 expr ($f1 >> 12) & 1;
#X obj 74 108 expr ($f1 >> 13) & 1;
#X obj 57 85 expr ($f1 >> 14) & 1;
#X obj 40 62 expr ($f1 >> 15) & 1;
#X obj 591 46 f 0;
#X obj 591 13 inlet;
#X obj 516 13 inlet;
#X connect 0 0 1 0;
#X connect 0 0 2 0;
#X connect 1 0 22 0;
#X connect 2 0 43 0;
#X connect 2 0 39 0;
#X connect 2 1 3 0;
#X connect 3 0 42 0;
#X connect 4 0 0 0;
#X connect 5 0 4 0;
#X connect 6 0 23 1;
#X connect 7 0 24 1;
#X connect 8 0 25 1;
#X connect 9 0 26 1;
#X connect 10 0 27 1;
#X connect 11 0 28 1;
#X connect 12 0 29 1;
#X connect 13 0 30 1;
#X connect 14 0 31 1;
#X connect 15 0 32 1;
#X connect 16 0 33 1;
#X connect 17 0 34 1;
#X connect 18 0 35 1;
#X connect 19 0 36 1;
#X connect 20 0 37 1;
#X connect 21 0 38 1;
#X connect 22 0 0 1;
#X connect 23 0 40 0;
#X connect 24 0 40 0;
#X connect 25 0 40 0;
#X connect 26 0 40 0;
#X connect 27 0 40 0;
#X connect 28 0 40 0;
#X connect 29 0 40 0;
#X connect 30 0 40 0;
#X connect 31 0 40 0;
#X connect 32 0 40 0;
#X connect 33 0 40 0;
#X connect 34 0 40 0;
#X connect 35 0 40 0;
#X connect 36 0 40 0;
#X connect 37 0 40 0;
#X connect 38 0 40 0;
#X connect 39 0 23 0;
#X connect 39 1 24 0;
#X connect 39 2 25 0;
#X connect 39 3 26 0;
#X connect 39 4 27 0;
#X connect 39 5 28 0;
#X connect 39 6 29 0;
#X connect 39 7 30 0;
#X connect 39 8 31 0;
#X connect 39 9 32 0;
#X connect 39 10 33 0;
#X connect 39 11 34 0;
#X connect 39 12 35 0;
#X connect 39 13 36 0;
#X connect 39 14 37 0;
#X connect 39 15 38 0;
#X connect 40 0 41 0;
#X connect 44 0 45 0;
#X connect 45 0 0 1;
#X connect 46 0 21 0;
#X connect 47 0 20 0;
#X connect 48 0 19 0;
#X connect 49 0 18 0;
#X connect 50 0 17 0;
#X connect 51 0 16 0;
#X connect 52 0 15 0;
#X connect 53 0 14 0;
#X connect 54 0 13 0;
#X connect 55 0 12 0;
#X connect 56 0 11 0;
#X connect 57 0 10 0;
#X connect 58 0 9 0;
#X connect 59 0 8 0;
#X connect 60 0 7 0;
#X connect 61 0 6 0;
#X connect 62 0 61 0;
#X connect 62 0 60 0;
#X connect 62 0 59 0;
#X connect 62 0 58 0;
#X connect 62 0 57 0;
#X connect 62 0 56 0;
#X connect 62 0 55 0;
#X connect 62 0 54 0;
#X connect 62 0 53 0;
#X connect 62 0 52 0;
#X connect 62 0 51 0;
#X connect 62 0 50 0;
#X connect 62 0 49 0;
#X connect 62 0 48 0;
#X connect 62 0 47 0;
#X connect 62 0 46 0;
#X connect 63 0 62 0;
#X connect 64 0 3 1;
#X coords 0 -1 1 1 280 24 2 35 250;
