#N canvas 115 193 598 509 10;
#X obj 159 203 unpack 0 0 0, f 30;
#X obj 99 350 + 0, f 4;
#X obj 144 227 i 0;
#X obj 232 227 i 0;
#X obj 321 227 i 0;
#X obj 144 176 t b f, f 26;
#X obj 144 153 % 12;
#X obj 99 273 route 0 1;
#X obj 99 250 pack 0 0;
#X obj 99 130 clip 0 1;
#X msg 124 298 12 \$1;
#X obj 124 321 -;
#X obj 187 350 + 0, f 4;
#X obj 187 273 route 0 1;
#X obj 187 250 pack 0 0;
#X msg 212 298 12 \$1;
#X obj 212 321 -;
#X obj 276 350 + 0, f 4;
#X obj 276 273 route 0 1;
#X obj 276 250 pack 0 0;
#X msg 301 298 12 \$1;
#X obj 301 321 -;
#X obj 99 106 i 0, f 12;
#X obj 99 83 t b f, f 8;
#X obj 99 373 % 12;
#X obj 187 373 % 12;
#X obj 276 373 % 12;
#X obj 99 456 outlet;
#X obj 187 456 outlet;
#X obj 276 456 outlet;
#X obj 99 27 inlet;
#X obj 168 27 inlet;
#X obj 240 27 inlet;
#X obj 240 83 t a;
#X obj 99 396 + 0;
#X obj 187 396 + 0;
#X obj 276 396 + 0;
#X obj 374 257 random 4;
#X obj 402 280 random 3;
#X obj 374 357 pack 0 0, f 11;
#X obj 402 303 sel 0 1 2, f 17;
#X msg 402 326 0;
#X msg 435 326 12;
#X obj 374 380 route 0 1 2;
#X msg 468 326 -12;
#X obj 374 26 inlet;
#X obj 374 203 t b b f, f 10;
#X msg 431 226 seed \$1;
#X connect 0 0 2 1;
#X connect 0 1 3 1;
#X connect 0 2 4 1;
#X connect 1 0 24 0;
#X connect 2 0 8 1;
#X connect 3 0 14 1;
#X connect 4 0 19 1;
#X connect 5 0 2 0;
#X connect 5 0 3 0;
#X connect 5 0 4 0;
#X connect 5 1 1 1;
#X connect 5 1 12 1;
#X connect 5 1 17 1;
#X connect 6 0 5 0;
#X connect 7 0 1 0;
#X connect 7 1 10 0;
#X connect 8 0 7 0;
#X connect 9 0 8 0;
#X connect 9 0 19 0;
#X connect 9 0 14 0;
#X connect 10 0 11 0;
#X connect 11 0 1 0;
#X connect 12 0 25 0;
#X connect 13 0 12 0;
#X connect 13 1 15 0;
#X connect 14 0 13 0;
#X connect 15 0 16 0;
#X connect 16 0 12 0;
#X connect 17 0 26 0;
#X connect 18 0 17 0;
#X connect 18 1 20 0;
#X connect 19 0 18 0;
#X connect 20 0 21 0;
#X connect 21 0 17 0;
#X connect 22 0 9 0;
#X connect 23 0 22 0;
#X connect 23 1 6 0;
#X connect 24 0 34 0;
#X connect 25 0 35 0;
#X connect 26 0 36 0;
#X connect 30 0 23 0;
#X connect 31 0 22 1;
#X connect 32 0 33 0;
#X connect 33 0 0 0;
#X connect 34 0 27 0;
#X connect 35 0 28 0;
#X connect 36 0 29 0;
#X connect 37 0 39 0;
#X connect 38 0 40 0;
#X connect 39 0 43 0;
#X connect 40 0 41 0;
#X connect 40 1 42 0;
#X connect 40 2 44 0;
#X connect 41 0 39 1;
#X connect 42 0 39 1;
#X connect 43 0 34 1;
#X connect 43 1 35 1;
#X connect 43 2 36 1;
#X connect 44 0 39 1;
#X connect 45 0 46 0;
#X connect 46 0 37 0;
#X connect 46 1 38 0;
#X connect 46 2 47 0;
#X connect 47 0 37 0;
#X connect 47 0 38 0;
