#N canvas 280 188 770 493 10;
#X obj 136 211 sig~;
#X floatatom 81 168 5 0 0 0 - - -;
#X obj 135 286 *~;
#X floatatom 156 264 5 0 0 0 - - -;
#X obj 277 203 sig~;
#X floatatom 286 154 5 0 0 0 - - -;
#X obj 277 285 *~;
#X floatatom 298 263 5 0 0 0 - - -;
#X obj 418 204 sig~;
#X floatatom 418 160 5 0 0 0 - - -;
#X obj 418 286 *~;
#X floatatom 439 264 5 0 0 0 - - -;
#X obj 560 209 sig~;
#X floatatom 560 164 5 0 0 0 - - -;
#X obj 560 285 *~;
#X floatatom 581 263 5 0 0 0 - - -;
#X obj 134 425 hip~ 5;
#X obj 137 153 delwrite~ \$0-star 10000;
#X obj 136 234 delread4~ \$0-star;
#X obj 278 233 delread4~ \$0-star;
#X obj 419 234 delread4~ \$0-star;
#X obj 561 233 delread4~ \$0-star;
#X obj 133 460 outlet~;
#X obj 136 16 inlet~;
#X floatatom 260 39 5 0 9999 0 - - -;
#X obj 302 39 hsl 50 15 0.01 1 1 0 empty empty empty -2 -8 0 10 -262144
-1 -1 0 1;
#X floatatom 260 60 5 0 9999 0 - - -;
#X obj 302 60 hsl 50 15 0.01 1 1 0 empty empty empty -2 -8 0 10 -262144
-1 -1 0 1;
#X floatatom 260 81 5 0 9999 0 - - -;
#X obj 302 81 hsl 50 15 0.01 1 1 0 empty empty empty -2 -8 0 10 -262144
-1 -1 0 1;
#X floatatom 260 102 5 0 9999 0 - - -;
#X obj 302 102 hsl 50 15 0.01 1 1 0 empty empty empty -2 -8 0 10 -262144
-1 -1 0 1;
#X obj 134 391 *~;
#X obj 361 41 vsl 15 73 0 1 0 0 empty empty empty 0 -9 0 10 -228856
-1 -1 0 1;
#X obj 560 186 line \$1 1000;
#X obj 418 182 line \$1 1000;
#X obj 277 181 line \$1 1000;
#X obj 81 188 line \$1 1000;
#X obj 134 346 *~ 2;
#X obj 565 23 inlet;
#X obj 565 44 inlet;
#X obj 565 65 inlet;
#X obj 565 86 inlet;
#X connect 0 0 18 0;
#X connect 1 0 37 0;
#X connect 2 0 17 0;
#X connect 2 0 38 0;
#X connect 3 0 2 1;
#X connect 4 0 19 0;
#X connect 5 0 36 0;
#X connect 6 0 17 0;
#X connect 6 0 38 0;
#X connect 7 0 6 1;
#X connect 8 0 20 0;
#X connect 9 0 35 0;
#X connect 10 0 17 0;
#X connect 10 0 38 0;
#X connect 11 0 10 1;
#X connect 12 0 21 0;
#X connect 13 0 34 0;
#X connect 14 0 17 0;
#X connect 14 0 38 0;
#X connect 15 0 14 1;
#X connect 16 0 22 0;
#X connect 18 0 2 0;
#X connect 19 0 6 0;
#X connect 20 0 10 0;
#X connect 21 0 14 0;
#X connect 23 0 17 0;
#X connect 24 0 1 0;
#X connect 25 0 3 0;
#X connect 26 0 5 0;
#X connect 27 0 7 0;
#X connect 28 0 9 0;
#X connect 29 0 11 0;
#X connect 30 0 13 0;
#X connect 31 0 15 0;
#X connect 32 0 16 0;
#X connect 33 0 32 1;
#X connect 34 0 12 0;
#X connect 35 0 8 0;
#X connect 36 0 4 0;
#X connect 37 0 0 0;
#X connect 38 0 32 0;
#X connect 39 0 24 0;
#X connect 40 0 26 0;
#X connect 41 0 28 0;
#X connect 42 0 30 0;
#X coords 0 -1 1 1 135 120 1 250 10;
