#N canvas 0 116 1366 652 10;
#X obj 519 311 random 100;
#X obj 519 334 moses 50;
#X msg 519 357 0;
#X msg 564 357 9;
#X floatatom 519 383 2 0 11 0 - - -;
#X obj 41 278 route 0 1 2 3 4 5 6 7 8 9 10 11, f 192;
#X obj 41 254 i 0;
#X obj 64 139 bng 15 250 50 0 empty empty empty 17 7 0 10 -262144 -191407
-1;
#X obj 41 311 random 100;
#X floatatom 41 423 2 0 11 0 - - -;
#X obj 41 334 moses 33;
#X msg 41 357 5;
#X obj 86 358 moses 66;
#X msg 86 381 4;
#X msg 131 381 7;
#X obj 902 311 random 100;
#X floatatom 902 423 2 0 11 0 - - -;
#X obj 902 334 moses 33;
#X msg 902 357 5;
#X obj 947 358 moses 66;
#X msg 947 381 4;
#X msg 992 381 1;
#X obj 711 311 random 100;
#X floatatom 711 423 2 0 11 0 - - -;
#X obj 711 334 moses 33;
#X obj 756 358 moses 66;
#X msg 711 357 0;
#X msg 756 381 11;
#X msg 801 381 2;
#X obj 232 311 random 100;
#X obj 232 334 moses 50;
#X floatatom 232 383 2 0 11 0 - - -;
#X msg 232 357 7;
#X msg 277 357 6;
#X obj 615 446 random 100;
#X floatatom 615 558 2 0 11 0 - - -;
#X obj 615 469 moses 33;
#X obj 660 493 moses 66;
#X msg 615 492 2;
#X msg 660 516 11;
#X msg 705 516 10;
#X obj 1094 311 random 100;
#X floatatom 1094 463 2 0 11 0 - - -;
#X msg 1139 381 4;
#X obj 1094 334 moses 25;
#X msg 1094 357 7;
#X obj 1139 358 moses 50;
#X obj 1184 381 moses 75;
#X msg 1184 404 3;
#X msg 1229 404 6;
#X obj 424 401 random 100;
#X floatatom 424 553 2 0 11 0 - - -;
#X obj 424 424 moses 25;
#X obj 469 448 moses 50;
#X obj 514 471 moses 75;
#X msg 424 447 0;
#X msg 469 471 9;
#X msg 514 494 8;
#X msg 559 494 11;
#X obj 136 481 random 100;
#X obj 136 504 moses 50;
#X floatatom 136 553 2 0 11 0 - - -;
#X msg 136 527 9;
#X msg 181 527 8;
#X obj 807 442 random 100;
#X floatatom 807 554 2 0 11 0 - - -;
#X obj 807 465 moses 33;
#X obj 852 489 moses 66;
#X obj 328 441 random 100;
#X floatatom 328 553 2 0 11 0 - - -;
#X obj 328 464 moses 33;
#X obj 373 488 moses 66;
#X msg 373 511 11;
#X msg 328 487 8;
#X msg 418 511 10;
#X msg 807 488 1;
#X msg 852 512 4;
#X msg 897 512 3;
#X obj 999 481 random 100;
#X obj 999 504 moses 50;
#X floatatom 999 553 2 0 11 0 - - -;
#X msg 1044 527 6;
#X msg 999 527 3;
#X obj 96 138 bng 15 500 50 0 empty empty empty 17 7 0 10 -1 -262144
-1;
#X obj 113 138 bng 15 500 50 0 empty empty empty 17 7 0 10 -1 -262144
-1;
#X obj 130 138 bng 15 500 50 0 empty empty empty 17 7 0 10 -1 -262144
-1;
#X obj 147 138 bng 15 500 50 0 empty empty empty 17 7 0 10 -1 -262144
-1;
#X obj 96 155 bng 15 500 50 0 empty empty empty 17 7 0 10 -1 -262144
-1;
#X obj 113 155 bng 15 500 50 0 empty empty empty 17 7 0 10 -1 -262144
-1;
#X obj 130 155 bng 15 500 50 0 empty empty empty 17 7 0 10 -1 -262144
-1;
#X obj 147 155 bng 15 500 50 0 empty empty empty 17 7 0 10 -1 -262144
-1;
#X obj 96 172 bng 15 500 50 0 empty empty empty 17 7 0 10 -1 -262144
-1;
#X obj 113 172 bng 15 500 50 0 empty empty empty 17 7 0 10 -1 -262144
-1;
#X obj 130 172 bng 15 500 50 0 empty empty empty 17 7 0 10 -1 -262144
-1;
#X obj 147 172 bng 15 500 50 0 empty empty empty 17 7 0 10 -1 -262144
-1;
#X obj 64 157 nbx 2 14 0 11 0 0 empty empty empty 0 -8 0 10 -262144
-191407 -1 10 256;
#X obj 64 31 inlet;
#X obj 64 173 nbx 2 14 0 127 0 0 empty empty empty 0 -8 0 10 -262144
-1 -1 46 256;
#X obj 217 76 t f f;
#X obj 244 102 outlet;
#X obj 217 53 +;
#X obj 232 31 inlet;
#X floatatom 460 618 5 0 0 0 - - -;
#X obj 949 36 inlet;
#X msg 949 59 seed \$1;
#X connect 0 0 1 0;
#X connect 1 0 2 0;
#X connect 1 1 3 0;
#X connect 2 0 4 0;
#X connect 3 0 4 0;
#X connect 4 0 102 0;
#X connect 5 0 8 0;
#X connect 5 0 84 0;
#X connect 5 1 59 0;
#X connect 5 1 91 0;
#X connect 5 2 29 0;
#X connect 5 2 86 0;
#X connect 5 3 68 0;
#X connect 5 3 93 0;
#X connect 5 4 50 0;
#X connect 5 4 88 0;
#X connect 5 5 0 0;
#X connect 5 5 83 0;
#X connect 5 6 34 0;
#X connect 5 6 90 0;
#X connect 5 7 22 0;
#X connect 5 7 85 0;
#X connect 5 8 64 0;
#X connect 5 8 92 0;
#X connect 5 9 15 0;
#X connect 5 9 87 0;
#X connect 5 10 78 0;
#X connect 5 10 94 0;
#X connect 5 11 41 0;
#X connect 5 11 89 0;
#X connect 6 0 5 0;
#X connect 7 0 6 0;
#X connect 8 0 10 0;
#X connect 9 0 102 0;
#X connect 10 0 11 0;
#X connect 10 1 12 0;
#X connect 11 0 9 0;
#X connect 12 0 13 0;
#X connect 12 1 14 0;
#X connect 13 0 9 0;
#X connect 14 0 9 0;
#X connect 15 0 17 0;
#X connect 16 0 102 0;
#X connect 17 0 18 0;
#X connect 17 1 19 0;
#X connect 18 0 16 0;
#X connect 19 0 20 0;
#X connect 19 1 21 0;
#X connect 20 0 16 0;
#X connect 21 0 16 0;
#X connect 22 0 24 0;
#X connect 23 0 102 0;
#X connect 24 0 26 0;
#X connect 24 1 25 0;
#X connect 25 0 27 0;
#X connect 25 1 28 0;
#X connect 26 0 23 0;
#X connect 27 0 23 0;
#X connect 28 0 23 0;
#X connect 29 0 30 0;
#X connect 30 0 32 0;
#X connect 30 1 33 0;
#X connect 31 0 102 0;
#X connect 32 0 31 0;
#X connect 33 0 31 0;
#X connect 34 0 36 0;
#X connect 35 0 102 0;
#X connect 36 0 38 0;
#X connect 36 1 37 0;
#X connect 37 0 39 0;
#X connect 37 1 40 0;
#X connect 38 0 35 0;
#X connect 39 0 35 0;
#X connect 40 0 35 0;
#X connect 41 0 44 0;
#X connect 42 0 102 0;
#X connect 43 0 42 0;
#X connect 44 0 45 0;
#X connect 44 1 46 0;
#X connect 45 0 42 0;
#X connect 46 0 43 0;
#X connect 46 1 47 0;
#X connect 47 0 48 0;
#X connect 47 1 49 0;
#X connect 48 0 42 0;
#X connect 49 0 42 0;
#X connect 50 0 52 0;
#X connect 51 0 102 0;
#X connect 52 0 55 0;
#X connect 52 1 53 0;
#X connect 53 0 56 0;
#X connect 53 1 54 0;
#X connect 54 0 57 0;
#X connect 54 1 58 0;
#X connect 55 0 51 0;
#X connect 56 0 51 0;
#X connect 57 0 51 0;
#X connect 58 0 51 0;
#X connect 59 0 60 0;
#X connect 60 0 62 0;
#X connect 60 1 63 0;
#X connect 61 0 102 0;
#X connect 62 0 61 0;
#X connect 63 0 61 0;
#X connect 64 0 66 0;
#X connect 65 0 102 0;
#X connect 66 0 75 0;
#X connect 66 1 67 0;
#X connect 67 0 76 0;
#X connect 67 1 77 0;
#X connect 68 0 70 0;
#X connect 69 0 102 0;
#X connect 70 0 73 0;
#X connect 70 1 71 0;
#X connect 71 0 72 0;
#X connect 71 1 74 0;
#X connect 72 0 69 0;
#X connect 73 0 69 0;
#X connect 74 0 69 0;
#X connect 75 0 65 0;
#X connect 76 0 65 0;
#X connect 77 0 65 0;
#X connect 78 0 79 0;
#X connect 79 0 82 0;
#X connect 79 1 81 0;
#X connect 80 0 102 0;
#X connect 81 0 80 0;
#X connect 82 0 80 0;
#X connect 95 0 100 0;
#X connect 96 0 7 0;
#X connect 98 0 97 0;
#X connect 98 1 99 0;
#X connect 100 0 98 0;
#X connect 101 0 100 1;
#X connect 102 0 6 1;
#X connect 102 0 95 0;
#X connect 103 0 104 0;
#X connect 104 0 8 0;
#X connect 104 0 29 0;
#X connect 104 0 0 0;
#X connect 104 0 68 0;
#X connect 104 0 50 0;
#X connect 104 0 22 0;
#X connect 104 0 34 0;
#X connect 104 0 64 0;
#X connect 104 0 15 0;
#X connect 104 0 78 0;
#X connect 104 0 41 0;
#X connect 104 0 59 0;
#X coords 0 -1 1 1 115 95 1 55 100;
