#N canvas 490 225 870 478 10;
#X obj 116 228 phasor~;
#X obj 116 251 expr~ $v1>$v2;
#X obj 267 166 / 100;
#X obj 267 189 osc~;
#X obj 267 212 *~ 0.4;
#X obj 267 235 +~ 0.5;
#X obj 116 181 sig~;
#X obj 116 205 +~;
#X obj 166 142 / 100;
#X obj 166 165 osc~;
#X obj 166 188 *~ 1;
#X obj 216 172 / 10;
#X obj 116 11 inlet;
#X obj 317 235 vline~;
#X obj 317 261 *~;
#X obj 116 278 *~;
#X obj 116 304 lop~ 1000;
#X obj 116 141 mtof;
#X obj 78 157 t f f;
#X obj 223 94 f \$2;
#X obj 268 94 f \$3;
#X obj 117 338 outlet~;
#X obj 116 44 t f b b b b, f 34;
#X obj 317 166 pack \$5 \$6;
#X obj 78 181 * 4;
#X obj 166 119 random 100;
#X obj 216 142 random 10;
#X obj 266 119 random 100;
#X obj 323 94 f \$4;
#X msg 317 212 0.5 \$1 \, 0 \$2 \$1;
#X connect 0 0 1 0;
#X connect 1 0 15 0;
#X connect 2 0 3 0;
#X connect 3 0 4 0;
#X connect 4 0 5 0;
#X connect 5 0 1 1;
#X connect 6 0 7 0;
#X connect 7 0 0 0;
#X connect 8 0 9 0;
#X connect 9 0 10 0;
#X connect 10 0 7 1;
#X connect 11 0 10 1;
#X connect 12 0 22 0;
#X connect 13 0 14 0;
#X connect 13 0 14 1;
#X connect 14 0 15 1;
#X connect 15 0 16 0;
#X connect 16 0 21 0;
#X connect 17 0 18 0;
#X connect 18 0 24 0;
#X connect 18 1 6 0;
#X connect 19 0 25 1;
#X connect 20 0 26 1;
#X connect 22 0 17 0;
#X connect 22 1 25 0;
#X connect 22 2 26 0;
#X connect 22 3 27 0;
#X connect 22 4 23 0;
#X connect 22 4 28 0;
#X connect 22 4 20 0;
#X connect 22 4 19 0;
#X connect 23 0 29 0;
#X connect 24 0 16 1;
#X connect 25 0 8 0;
#X connect 26 0 11 0;
#X connect 27 0 2 0;
#X connect 28 0 27 1;
#X connect 29 0 13 0;
