#N canvas 125 210 508 451 10;
#X obj 95 288 list store, f 22;
#X msg 95 264 get \$1 1;
#X obj 95 162 t f f;
#X obj 95 311 + 0, f 5;
#X obj 251 170 list length;
#X obj 95 48 inlet;
#X obj 224 48 inlet;
#X obj 224 146 t a a;
#X obj 95 124 clip 0 127;
#X obj 95 380 outlet;
#X obj 164 48 inlet;
#X obj 122 186 div 1;
#X obj 95 241 % 1;
#X obj 95 86 t f b;
#X obj 122 209 * 1, f 4;
#X obj 143 102 i \$1;
#X obj 164 79 clip 1 12;
#X connect 0 0 3 0;
#X connect 1 0 0 0;
#X connect 2 0 12 0;
#X connect 2 1 11 0;
#X connect 3 0 9 0;
#X connect 4 0 11 1;
#X connect 4 0 12 1;
#X connect 5 0 13 0;
#X connect 6 0 7 0;
#X connect 7 0 0 1;
#X connect 7 1 4 0;
#X connect 8 0 2 0;
#X connect 10 0 16 0;
#X connect 11 0 14 0;
#X connect 12 0 1 0;
#X connect 13 0 8 0;
#X connect 13 1 15 0;
#X connect 14 0 3 1;
#X connect 15 0 14 1;
#X connect 16 0 15 1;
