#N canvas 82 116 931 641 10;
#X obj 131 321 expr $f1 + (min(abs($f2) \, $f3) * (($f2 > 0) * 1 +
($f2 <= 0) * -1)), f 68;
#X obj 131 271 f 0, f 5;
#X obj 131 248 t b b b, f 68;
#X obj 131 344 expr (($f1 - 1) % 7) + 1;
#X obj 36 16 inlet;
#X obj 36 100 f 0;
#X obj 62 100 + 1;
#X obj 36 123 sel 0;
#X obj 131 379 t f f b, f 10;
#X obj 276 395 f 0;
#X obj 302 395 + 1;
#X obj 291 351 r sync;
#X msg 291 373 0;
#X obj 119 100 r sync;
#X msg 119 123 0;
#X obj 333 271 random 24;
#X obj 333 295 - 12;
#X obj 330 395 % 8;
#X obj 276 418 sel 0;
#X obj 276 559 f 0;
#X msg 197 575 seed \$1;
#X obj 131 612 outlet;
#X obj 36 172 random 10;
#X obj 36 195 - 5;
#X obj 90 100 % 2;
#X obj 36 148 t b b, f 61;
#X obj 36 218 expr (min(abs($f1) \, $f2) * (($f1 > 0) * 1 + ($f1 <=
0) * -1)), f 61;
#X obj 36 264 max 1;
#X obj 36 287 t b f, f 12;
#X obj 399 194 f 1;
#X obj 276 441 t b b;
#X obj 415 364 r sync;
#X msg 415 386 0;
#X obj 400 480 sel 0 1, f 12;
#X obj 131 501 + 0;
#X msg 146 475 0;
#X obj 536 295 f 2;
#X obj 114 16 inlet;
#X obj 36 241 + 4, f 10;
#X text 152 15 range rythm;
#X obj 93 51 f \$1;
#X obj 36 74 t b b;
#X obj 365 16 inlet;
#X obj 344 51 f \$2;
#X text 403 15 range phrase;
#X obj 572 16 inlet;
#X text 610 15 range intervals;
#X obj 551 51 f \$3;
#X obj 400 456 list store;
#X obj 400 412 f 0;
#X obj 426 412 + 1;
#X obj 454 412 % 4;
#X msg 505 402 0 1 0 2;
#X obj 504 126 loadbang;
#X msg 148 525 4;
#X msg 180 496 3;
#X obj 715 16 inlet;
#X msg 400 435 get \$1 1;
#X text 560 402 form ABAC;
#X obj 654 430 sel 0;
#X obj 654 612 outlet;
#X obj 469 543 f \$6, f 57;
#X obj 434 523 f \$5, f 55;
#X obj 400 503 f \$4, f 53;
#X obj 761 16 inlet;
#X obj 808 16 inlet;
#X connect 0 0 3 0;
#X connect 1 0 0 0;
#X connect 2 0 1 0;
#X connect 2 1 15 0;
#X connect 2 2 36 0;
#X connect 3 0 8 0;
#X connect 4 0 41 0;
#X connect 5 0 6 0;
#X connect 5 0 7 0;
#X connect 6 0 24 0;
#X connect 7 0 25 0;
#X connect 8 0 34 0;
#X connect 8 1 1 1;
#X connect 8 2 9 0;
#X connect 9 0 10 0;
#X connect 9 0 18 0;
#X connect 10 0 17 0;
#X connect 11 0 12 0;
#X connect 12 0 9 1;
#X connect 13 0 14 0;
#X connect 14 0 5 1;
#X connect 15 0 16 0;
#X connect 16 0 0 1;
#X connect 17 0 9 1;
#X connect 18 0 30 0;
#X connect 19 0 20 0;
#X connect 20 0 15 0;
#X connect 20 0 22 0;
#X connect 22 0 23 0;
#X connect 23 0 26 0;
#X connect 24 0 5 1;
#X connect 25 0 22 0;
#X connect 25 1 29 0;
#X connect 26 0 38 0;
#X connect 27 0 28 0;
#X connect 28 0 2 0;
#X connect 28 1 24 1;
#X connect 29 0 26 1;
#X connect 30 0 19 0;
#X connect 30 1 49 0;
#X connect 31 0 32 0;
#X connect 32 0 49 1;
#X connect 33 0 35 0;
#X connect 33 0 63 0;
#X connect 33 1 55 0;
#X connect 33 1 62 0;
#X connect 33 2 54 0;
#X connect 33 2 61 0;
#X connect 34 0 21 0;
#X connect 35 0 34 1;
#X connect 36 0 0 2;
#X connect 37 0 40 1;
#X connect 38 0 27 0;
#X connect 40 0 38 1;
#X connect 41 0 5 0;
#X connect 41 1 40 0;
#X connect 41 1 43 0;
#X connect 41 1 47 0;
#X connect 42 0 43 1;
#X connect 43 0 17 1;
#X connect 45 0 47 1;
#X connect 47 0 36 1;
#X connect 48 0 33 0;
#X connect 49 0 50 0;
#X connect 49 0 57 0;
#X connect 49 0 59 0;
#X connect 50 0 51 0;
#X connect 51 0 49 1;
#X connect 52 0 48 1;
#X connect 53 0 52 0;
#X connect 53 0 47 0;
#X connect 53 0 43 0;
#X connect 53 0 40 0;
#X connect 54 0 34 1;
#X connect 55 0 34 1;
#X connect 56 0 63 1;
#X connect 57 0 48 0;
#X connect 59 0 60 0;
#X connect 61 0 19 1;
#X connect 62 0 19 1;
#X connect 63 0 19 1;
#X connect 64 0 62 1;
#X connect 65 0 61 1;
