#N canvas 0 116 1366 652 10;
#X obj 112 206 osc~;
#X obj 70 206 osc~;
#X obj 155 206 phasor~;
#X obj 155 253 *~ 2;
#X obj 155 275 -~ 1;
#X obj 112 230 expr~ if($v1>0.5 \, 1 \, -1);
#X obj 214 206 phasor~;
#X obj 214 250 expr~ if($v1>0.5 \, 1-$v1 \, $v1);
#X obj 214 272 *~ 4;
#X obj 214 295 -~ 1;
#X obj 152 22 inlet;
#X obj 152 83 clip 0 127;
#X obj 152 108 mtof;
#X obj 41 108 random 4;
#X obj 105 498 + 25;
#X obj 247 475 random 6000;
#X obj 425 498 vline~;
#X obj 511 352 +;
#X obj 425 451 pack 0 0 0 0 0 0 0, f 38;
#X msg 425 474 \$1 \$3 \, \$2 \$4 \$7 \, 0 \$6 \$5;
#X obj 575 352 +;
#X obj 425 301 t b b b b b b b, f 38;
#X obj 72 536 *~;
#X obj 425 521 pow~, f 38;
#X obj 462 325 f 0;
#X obj 500 325 f 0;
#X obj 537 325 f 0;
#X obj 576 325 f 0;
#X obj 612 325 f 0;
#X obj 650 325 f 0;
#X obj 152 59 t f b, f 46;
#X obj 477 84 random 100;
#X obj 477 107 / 150;
#X text 500 177 A;
#X text 538 276 D;
#X text 679 83 S;
#X text 716 205 R;
#X obj 71 733 outlet~;
#X obj 345 22 loadbang;
#X obj 309 82 r seed;
#X obj 71 347 *~;
#X obj 86 325 == 0;
#X obj 111 347 *~;
#X obj 126 325 == 1;
#X obj 155 347 *~;
#X obj 170 325 == 2;
#X obj 215 347 *~;
#X obj 230 325 == 3;
#X obj 425 325 f 0;
#X obj 214 568 *~;
#X obj 71 612 +~;
#X obj 72 559 clip~ -1 1;
#X obj 214 595 clip~ -1 1;
#X obj 440 252 random 150;
#X obj 440 275 / 100;
#X obj 375 82 r tseed;
#X obj 105 475 random 1000;
#X obj 247 498 + 1000;
#X obj 1135 627 vcf~ 1;
#X obj 1151 334 osc~;
#X obj 1168 601 + 1;
#X obj 1151 484 +~;
#X obj 1151 357 *~;
#X obj 1135 650 *~;
#X obj 71 705 expr~ tanh($v1);
#X obj 1166 460 random 1500;
#X obj 1151 247 random 20;
#X obj 515 177 random;
#X obj 591 84 random;
#X obj 552 275 random;
#X obj 627 205 random;
#X obj 231 22 r dur;
#X obj 231 109 f 0, f 5;
#X obj 197 109 f \$2;
#X obj 231 84 t b f;
#X obj 1184 341 random 2000;
#X obj 276 183 / 2;
#X obj 333 454 / 100;
#X obj 333 431 random 101;
#X obj 333 477 t f f;
#X obj 333 499 expr 1-$f1;
#X obj 70 647 *~;
#X obj 71 680 +~;
#X obj 345 665 *~;
#X obj 72 498 lop~;
#X obj 215 498 hip~;
#X obj 1151 309 / 4;
#X obj 679 309 random 8;
#X obj 650 348 - 2;
#X obj 196 132 expr int(($f1/100)/3);
#X obj 276 205 i;
#X obj 537 419 * 1;
#X obj 500 419 * 1;
#X obj 575 419 * 1;
#X obj 612 419 * 1;
#X obj 662 419 * 1;
#X obj 707 38 f 25;
#X obj 285 22 inlet;
#X obj 285 108 t b f, f 10;
#X obj 370 157 * 5;
#X msg 134 450 seed \$1;
#X msg 360 403 seed \$1;
#X msg 545 152 seed \$1;
#X msg 468 228 seed \$1;
#X msg 505 59 seed \$1;
#X msg 620 58 seed \$1;
#X msg 654 179 seed \$1;
#X msg 706 283 seed \$1;
#X msg 1196 221 seed \$1;
#X msg 1194 434 seed \$1;
#X msg 276 449 seed \$1;
#X msg 580 249 seed \$1;
#X msg 1206 317 seed \$1;
#X msg 1195 552 seed \$1;
#X msg 68 83 seed \$1;
#X obj 370 180 s \$0-sm;
#X obj 342 203 s \$0-s;
#X obj 285 154 s \$0-c;
#X obj 196 155 s \$0-d;
#X obj 276 227 s \$0-d2;
#X obj 68 60 r \$0-s;
#X obj 41 37 r \$0-c;
#X obj 707 61 s \$0-i;
#X obj 515 378 r \$0-i;
#X obj 360 380 r \$0-s;
#X obj 333 358 r \$0-c;
#X obj 247 404 r \$0-c;
#X obj 276 426 r \$0-sm;
#X obj 134 427 r \$0-s;
#X obj 105 404 r \$0-c;
#X obj 706 260 r \$0-s;
#X obj 679 239 r \$0-c;
#X obj 599 274 r \$0-d;
#X obj 580 226 r \$0-s;
#X obj 552 204 r \$0-c;
#X obj 654 156 r \$0-s;
#X obj 672 205 r \$0-d;
#X obj 627 134 r \$0-c;
#X obj 468 207 r \$0-s;
#X obj 440 185 r \$0-c;
#X obj 561 177 r \$0-d;
#X obj 545 129 r \$0-s;
#X obj 515 107 r \$0-c;
#X obj 505 36 r \$0-s;
#X obj 477 12 r \$0-c;
#X obj 620 35 r \$0-s;
#X obj 591 13 r \$0-c;
#X obj 636 83 r \$0-d;
#X obj 775 498 vline~;
#X obj 861 352 +;
#X obj 775 451 pack 0 0 0 0 0 0 0, f 38;
#X msg 775 474 \$1 \$3 \, \$2 \$4 \$7 \, 0 \$6 \$5;
#X obj 925 352 +;
#X obj 775 301 t b b b b b b b, f 38;
#X obj 775 551 pow~, f 38;
#X obj 812 325 f 0;
#X obj 850 325 f 0;
#X obj 887 325 f 0;
#X obj 926 325 f 0;
#X obj 962 325 f 0;
#X obj 1000 325 f 0;
#X obj 827 84 random 100;
#X obj 827 107 / 150;
#X text 850 177 A;
#X text 888 276 D;
#X text 1029 83 S;
#X text 1066 205 R;
#X obj 775 325 f 0;
#X obj 790 252 random 150;
#X obj 790 275 / 100;
#X obj 865 177 random;
#X obj 941 84 random;
#X obj 902 275 random;
#X obj 977 205 random;
#X obj 887 419 * 1;
#X obj 850 419 * 1;
#X obj 925 419 * 1;
#X obj 962 419 * 1;
#X obj 1012 419 * 1;
#X msg 895 152 seed \$1;
#X msg 818 228 seed \$1;
#X msg 855 59 seed \$1;
#X msg 970 58 seed \$1;
#X msg 1004 179 seed \$1;
#X msg 1056 283 seed \$1;
#X msg 930 249 seed \$1;
#X obj 865 378 r \$0-i;
#X obj 1029 239 r \$0-c;
#X obj 949 274 r \$0-d;
#X obj 902 204 r \$0-c;
#X obj 1022 205 r \$0-d;
#X obj 977 134 r \$0-c;
#X obj 790 185 r \$0-c;
#X obj 911 177 r \$0-d;
#X obj 865 107 r \$0-c;
#X obj 827 12 r \$0-c;
#X obj 941 13 r \$0-c;
#X obj 986 83 r \$0-d;
#X obj 855 36 r \$0-sm;
#X obj 970 35 r \$0-sm;
#X obj 895 129 r \$0-sm;
#X obj 1004 156 r \$0-sm;
#X obj 818 207 r \$0-sm;
#X obj 930 226 r \$0-sm;
#X obj 1056 260 r \$0-sm;
#X obj 1000 348 - 1;
#X obj 1029 309 random 6;
#X obj 1196 198 r \$0-s;
#X obj 1151 222 r \$0-c;
#X obj 1184 270 r \$0-c;
#X obj 1206 292 r \$0-sm;
#X obj 1194 411 r \$0-s;
#X obj 1168 506 r \$0-c;
#X obj 1195 529 r \$0-sm;
#X obj 1166 386 r \$0-c;
#X obj 1299 501 vline~;
#X obj 1385 355 +;
#X obj 1299 454 pack 0 0 0 0 0 0 0, f 38;
#X msg 1299 477 \$1 \$3 \, \$2 \$4 \$7 \, 0 \$6 \$5;
#X obj 1449 355 +;
#X obj 1299 304 t b b b b b b b, f 38;
#X obj 1299 634 pow~, f 38;
#X obj 1336 328 f 0;
#X obj 1374 328 f 0;
#X obj 1411 328 f 0;
#X obj 1450 328 f 0;
#X obj 1486 328 f 0;
#X obj 1524 328 f 0;
#X obj 1351 87 random 100;
#X obj 1351 110 / 150;
#X text 1374 180 A;
#X text 1412 279 D;
#X text 1558 86 S;
#X text 1595 208 R;
#X obj 1299 328 f 0;
#X obj 1314 255 random 150;
#X obj 1314 278 / 100;
#X obj 1389 180 random;
#X obj 1465 87 random;
#X obj 1426 278 random;
#X obj 1501 208 random;
#X obj 1411 422 * 1;
#X obj 1374 422 * 1;
#X obj 1449 422 * 1;
#X obj 1486 422 * 1;
#X obj 1536 422 * 1;
#X msg 1419 155 seed \$1;
#X msg 1342 231 seed \$1;
#X msg 1379 62 seed \$1;
#X msg 1494 61 seed \$1;
#X msg 1528 182 seed \$1;
#X msg 1580 286 seed \$1;
#X msg 1454 252 seed \$1;
#X obj 1389 381 r \$0-i;
#X obj 1580 263 r \$0-s;
#X obj 1553 242 r \$0-c;
#X obj 1454 229 r \$0-s;
#X obj 1426 207 r \$0-c;
#X obj 1501 137 r \$0-c;
#X obj 1342 210 r \$0-s;
#X obj 1314 188 r \$0-c;
#X obj 1419 132 r \$0-s;
#X obj 1389 110 r \$0-c;
#X obj 1351 15 r \$0-c;
#X obj 1465 16 r \$0-c;
#X obj 1553 335 + 1;
#X obj 1553 312 random 3;
#X obj 1435 180 r \$0-d2;
#X obj 1546 208 r \$0-d2;
#X obj 1510 86 r \$0-d2;
#X obj 1473 277 r \$0-d2;
#X obj 1379 39 r \$0-sm;
#X obj 1494 38 r \$0-sm;
#X obj 1528 159 r \$0-sm;
#X obj 1168 578 random 25;
#X connect 0 0 5 0;
#X connect 1 0 40 0;
#X connect 2 0 3 0;
#X connect 3 0 4 0;
#X connect 4 0 44 0;
#X connect 5 0 42 0;
#X connect 6 0 7 0;
#X connect 7 0 8 0;
#X connect 8 0 9 0;
#X connect 9 0 46 0;
#X connect 10 0 30 0;
#X connect 11 0 12 0;
#X connect 12 0 1 0;
#X connect 12 0 0 0;
#X connect 12 0 2 0;
#X connect 12 0 6 0;
#X connect 13 0 41 0;
#X connect 13 0 47 0;
#X connect 13 0 45 0;
#X connect 13 0 43 0;
#X connect 14 0 84 1;
#X connect 15 0 57 0;
#X connect 16 0 23 0;
#X connect 17 0 20 0;
#X connect 17 0 95 0;
#X connect 18 0 19 0;
#X connect 19 0 16 0;
#X connect 20 0 93 0;
#X connect 21 0 48 0;
#X connect 21 1 24 0;
#X connect 21 2 25 0;
#X connect 21 3 26 0;
#X connect 21 4 27 0;
#X connect 21 5 28 0;
#X connect 21 6 29 0;
#X connect 22 0 51 0;
#X connect 23 0 22 1;
#X connect 24 0 18 1;
#X connect 25 0 17 0;
#X connect 25 0 92 0;
#X connect 26 0 17 1;
#X connect 26 0 91 0;
#X connect 27 0 20 1;
#X connect 28 0 94 0;
#X connect 29 0 88 0;
#X connect 30 0 11 0;
#X connect 30 1 21 0;
#X connect 30 1 153 0;
#X connect 31 0 32 0;
#X connect 32 0 24 1;
#X connect 38 0 73 0;
#X connect 38 0 96 0;
#X connect 38 0 117 0;
#X connect 39 0 98 0;
#X connect 40 0 84 0;
#X connect 40 0 85 0;
#X connect 41 0 40 1;
#X connect 42 0 84 0;
#X connect 42 0 85 0;
#X connect 43 0 42 1;
#X connect 44 0 84 0;
#X connect 44 0 85 0;
#X connect 45 0 44 1;
#X connect 46 0 84 0;
#X connect 46 0 85 0;
#X connect 47 0 46 1;
#X connect 48 0 18 0;
#X connect 49 0 52 0;
#X connect 50 0 58 0;
#X connect 50 0 81 0;
#X connect 51 0 50 0;
#X connect 52 0 50 1;
#X connect 53 0 54 0;
#X connect 54 0 48 1;
#X connect 55 0 117 0;
#X connect 56 0 14 0;
#X connect 57 0 85 1;
#X connect 58 0 63 0;
#X connect 59 0 62 0;
#X connect 60 0 58 2;
#X connect 61 0 58 1;
#X connect 62 0 61 0;
#X connect 63 0 83 0;
#X connect 64 0 37 0;
#X connect 65 0 61 1;
#X connect 66 0 86 0;
#X connect 67 0 25 1;
#X connect 68 0 27 1;
#X connect 69 0 26 1;
#X connect 70 0 28 1;
#X connect 71 0 74 0;
#X connect 72 0 89 0;
#X connect 73 0 72 0;
#X connect 74 0 72 0;
#X connect 74 0 117 0;
#X connect 74 1 72 1;
#X connect 75 0 62 1;
#X connect 76 0 90 0;
#X connect 77 0 79 0;
#X connect 78 0 77 0;
#X connect 79 0 80 0;
#X connect 79 1 83 1;
#X connect 80 0 81 1;
#X connect 81 0 82 0;
#X connect 82 0 64 0;
#X connect 83 0 82 1;
#X connect 84 0 22 0;
#X connect 85 0 49 0;
#X connect 86 0 59 0;
#X connect 87 0 29 1;
#X connect 88 0 23 1;
#X connect 89 0 76 0;
#X connect 89 0 118 0;
#X connect 90 0 119 0;
#X connect 91 0 18 3;
#X connect 92 0 18 2;
#X connect 93 0 18 4;
#X connect 94 0 18 5;
#X connect 95 0 18 6;
#X connect 96 0 122 0;
#X connect 97 0 98 0;
#X connect 98 0 117 0;
#X connect 98 1 99 0;
#X connect 98 1 116 0;
#X connect 99 0 115 0;
#X connect 100 0 56 0;
#X connect 101 0 78 0;
#X connect 102 0 67 0;
#X connect 103 0 53 0;
#X connect 104 0 31 0;
#X connect 105 0 68 0;
#X connect 106 0 70 0;
#X connect 107 0 87 0;
#X connect 108 0 66 0;
#X connect 109 0 65 0;
#X connect 110 0 15 0;
#X connect 111 0 69 0;
#X connect 112 0 75 0;
#X connect 113 0 274 0;
#X connect 114 0 13 0;
#X connect 120 0 114 0;
#X connect 121 0 13 0;
#X connect 123 0 95 1;
#X connect 123 0 94 1;
#X connect 123 0 93 1;
#X connect 123 0 92 1;
#X connect 123 0 91 1;
#X connect 124 0 101 0;
#X connect 125 0 78 0;
#X connect 126 0 15 0;
#X connect 127 0 110 0;
#X connect 128 0 100 0;
#X connect 129 0 56 0;
#X connect 130 0 107 0;
#X connect 131 0 87 0;
#X connect 132 0 69 1;
#X connect 133 0 111 0;
#X connect 134 0 69 0;
#X connect 135 0 106 0;
#X connect 136 0 70 1;
#X connect 137 0 70 0;
#X connect 138 0 103 0;
#X connect 139 0 53 0;
#X connect 140 0 67 1;
#X connect 141 0 102 0;
#X connect 142 0 67 0;
#X connect 143 0 104 0;
#X connect 144 0 31 0;
#X connect 145 0 105 0;
#X connect 146 0 68 0;
#X connect 147 0 68 1;
#X connect 148 0 154 0;
#X connect 149 0 152 0;
#X connect 149 0 178 0;
#X connect 150 0 151 0;
#X connect 151 0 148 0;
#X connect 152 0 176 0;
#X connect 153 0 167 0;
#X connect 153 1 155 0;
#X connect 153 2 156 0;
#X connect 153 3 157 0;
#X connect 153 4 158 0;
#X connect 153 5 159 0;
#X connect 153 6 160 0;
#X connect 154 0 49 1;
#X connect 155 0 150 1;
#X connect 156 0 149 0;
#X connect 156 0 175 0;
#X connect 157 0 149 1;
#X connect 157 0 174 0;
#X connect 158 0 152 1;
#X connect 159 0 177 0;
#X connect 160 0 205 0;
#X connect 161 0 162 0;
#X connect 162 0 155 1;
#X connect 167 0 150 0;
#X connect 168 0 169 0;
#X connect 169 0 167 1;
#X connect 170 0 156 1;
#X connect 171 0 158 1;
#X connect 172 0 157 1;
#X connect 173 0 159 1;
#X connect 174 0 150 3;
#X connect 175 0 150 2;
#X connect 176 0 150 4;
#X connect 177 0 150 5;
#X connect 178 0 150 6;
#X connect 179 0 170 0;
#X connect 180 0 168 0;
#X connect 181 0 161 0;
#X connect 182 0 171 0;
#X connect 183 0 173 0;
#X connect 184 0 206 0;
#X connect 185 0 172 0;
#X connect 186 0 178 1;
#X connect 186 0 177 1;
#X connect 186 0 176 1;
#X connect 186 0 175 1;
#X connect 186 0 174 1;
#X connect 187 0 206 0;
#X connect 188 0 172 1;
#X connect 189 0 172 0;
#X connect 190 0 173 1;
#X connect 191 0 173 0;
#X connect 192 0 168 0;
#X connect 193 0 170 1;
#X connect 194 0 170 0;
#X connect 195 0 161 0;
#X connect 196 0 171 0;
#X connect 197 0 171 1;
#X connect 198 0 181 0;
#X connect 199 0 182 0;
#X connect 200 0 179 0;
#X connect 201 0 183 0;
#X connect 202 0 180 0;
#X connect 203 0 185 0;
#X connect 204 0 184 0;
#X connect 205 0 154 1;
#X connect 206 0 160 1;
#X connect 207 0 108 0;
#X connect 208 0 66 0;
#X connect 209 0 75 0;
#X connect 210 0 112 0;
#X connect 211 0 109 0;
#X connect 212 0 274 0;
#X connect 213 0 113 0;
#X connect 214 0 65 0;
#X connect 215 0 221 0;
#X connect 216 0 219 0;
#X connect 216 0 245 0;
#X connect 217 0 218 0;
#X connect 218 0 215 0;
#X connect 219 0 243 0;
#X connect 220 0 234 0;
#X connect 220 1 222 0;
#X connect 220 2 223 0;
#X connect 220 3 224 0;
#X connect 220 4 225 0;
#X connect 220 5 226 0;
#X connect 220 6 227 0;
#X connect 221 0 63 1;
#X connect 222 0 217 1;
#X connect 223 0 216 0;
#X connect 223 0 242 0;
#X connect 224 0 216 1;
#X connect 224 0 241 0;
#X connect 225 0 219 1;
#X connect 226 0 244 0;
#X connect 227 0 221 1;
#X connect 228 0 229 0;
#X connect 229 0 222 1;
#X connect 234 0 217 0;
#X connect 235 0 236 0;
#X connect 236 0 234 1;
#X connect 237 0 223 1;
#X connect 238 0 225 1;
#X connect 239 0 224 1;
#X connect 240 0 226 1;
#X connect 241 0 217 3;
#X connect 242 0 217 2;
#X connect 243 0 217 4;
#X connect 244 0 217 5;
#X connect 245 0 217 6;
#X connect 246 0 237 0;
#X connect 247 0 235 0;
#X connect 248 0 228 0;
#X connect 249 0 238 0;
#X connect 250 0 240 0;
#X connect 251 0 266 0;
#X connect 252 0 239 0;
#X connect 253 0 245 1;
#X connect 253 0 244 1;
#X connect 253 0 243 1;
#X connect 253 0 242 1;
#X connect 253 0 241 1;
#X connect 254 0 251 0;
#X connect 255 0 266 0;
#X connect 256 0 252 0;
#X connect 257 0 239 0;
#X connect 258 0 240 0;
#X connect 259 0 247 0;
#X connect 260 0 235 0;
#X connect 261 0 246 0;
#X connect 262 0 237 0;
#X connect 263 0 228 0;
#X connect 264 0 238 0;
#X connect 265 0 227 1;
#X connect 266 0 265 0;
#X connect 267 0 237 1;
#X connect 268 0 240 1;
#X connect 269 0 238 1;
#X connect 270 0 239 1;
#X connect 271 0 248 0;
#X connect 272 0 249 0;
#X connect 273 0 250 0;
#X connect 274 0 60 0;
