#N canvas 540 116 820 646 10;
#X floatatom 38 72 3 0 0 0 - - -;
#X obj 198 204 mtof;
#X obj 427 392 *~;
#X floatatom 454 392 5 0 0 0 - - -;
#X obj 319 301 *~;
#X floatatom 349 302 5 0 0 0 - - -;
#X obj 319 245 *~;
#X floatatom 442 208 5 0 0 0 - - -;
#X obj 319 222 delread4~ \$0-d1 100;
#X obj 319 278 clip~ -1 1;
#X floatatom 347 256 5 0 0 0 - - -;
#X floatatom 392 261 5 0 0 0 - - -;
#X obj 550 301 *~;
#X floatatom 577 301 5 0 0 0 - - -;
#X obj 550 245 *~;
#X floatatom 673 207 5 0 0 0 - - -;
#X obj 550 278 clip~ -1 1;
#X floatatom 578 256 5 0 0 0 - - -;
#X floatatom 623 263 5 0 0 0 - - -;
#X obj 550 222 delread4~ \$0-d2 100;
#X obj 549 328 delwrite~ \$0-d2 1000;
#X obj 673 229 osc~;
#X obj 198 182 clip 20 100;
#X obj 319 146 +~ 1;
#X obj 319 169 /~ 2;
#X obj 550 145 +~ 1;
#X obj 550 168 /~ 2;
#X obj 198 250 *~ 0.1;
#X floatatom 242 229 5 0 0 0 - - -;
#X obj 426 366 +~, f 4;
#X obj 319 193 *~ 2000;
#X obj 318 328 delwrite~ \$0-d1 2000;
#X obj 550 192 *~ 1000;
#X floatatom 319 78 5 0 0 0 - - -;
#X obj 319 100 * 0.001;
#X floatatom 550 78 5 0 0 0 - - -;
#X obj 550 100 * 0.001;
#X obj 319 123 osc~;
#X obj 550 122 osc~;
#X obj 198 227 osc~;
#X obj 442 229 osc~;
#X floatatom 442 78 5 0 0 0 - - -;
#X obj 442 100 * 0.001;
#X floatatom 673 78 5 0 0 0 - - -;
#X obj 673 100 * 0.001;
#X floatatom 242 79 5 0 0 0 - - -;
#X obj 242 101 * 0.001;
#X floatatom 602 77 5 0 0 0 - - -;
#X obj 602 99 * 0.001;
#X floatatom 374 77 5 0 0 0 - - -;
#X obj 374 99 * 0.001;
#X floatatom 756 78 5 0 0 0 - - -;
#X obj 756 100 * 0.001;
#X obj 38 7 inlet;
#X obj 427 442 outlet~;
#X obj 64 73 hsl 80 15 0 500 0 0 empty empty empty -2 -8 0 10 -191407
-262144 -1 100 1;
#X obj 41 250 hsl 100 15 0 500 0 0 empty empty empty -2 -8 0 10 -191407
-262144 -1 0 1;
#X obj 41 98 hsl 75 15 0 1000 0 0 empty empty del1 80 7 0 10 -262144
-1 -1 400 1;
#X obj 41 116 hsl 75 15 0 1000 0 0 empty empty fb1 80 7 0 10 -262144
-1 -1 7200 1;
#X obj 41 134 hsl 75 15 0 2000 0 0 empty empty lfo1 80 7 0 10 -262144
-1 -1 900 1;
#X obj 41 152 hsl 33 15 -1 0 0 0 empty empty empty -2 -8 0 10 -262144
-1 -1 0 1;
#X obj 83 152 hsl 33 15 0 1 0 0 empty empty clip 38 7 0 10 -262144
-1 -1 2500 1;
#X obj 41 173 hsl 75 15 0 1000 0 0 empty empty del2 80 7 0 10 -1 -262144
-1 3900 1;
#X obj 41 191 hsl 75 15 0 1000 0 0 empty empty fb2 80 7 0 10 -1 -262144
-1 6600 1;
#X obj 41 209 hsl 75 15 0 2000 0 0 empty empty lfo2 80 7 0 10 -1 -262144
-1 7300 1;
#X obj 41 227 hsl 33 15 -1 0 0 0 empty empty empty -2 -8 0 10 -1 -262144
-1 800 1;
#X obj 83 227 hsl 33 15 0 1 0 0 empty empty clip 38 7 0 10 -1 -262144
-1 2600 1;
#X connect 0 0 22 0;
#X connect 1 0 39 0;
#X connect 2 0 54 0;
#X connect 3 0 2 1;
#X connect 4 0 31 0;
#X connect 5 0 4 1;
#X connect 6 0 9 0;
#X connect 7 0 40 0;
#X connect 8 0 6 0;
#X connect 8 0 20 0;
#X connect 8 0 29 0;
#X connect 9 0 4 0;
#X connect 10 0 9 1;
#X connect 11 0 9 2;
#X connect 12 0 20 0;
#X connect 13 0 12 1;
#X connect 14 0 16 0;
#X connect 15 0 21 0;
#X connect 16 0 12 0;
#X connect 17 0 16 1;
#X connect 18 0 16 2;
#X connect 19 0 14 0;
#X connect 19 0 29 1;
#X connect 21 0 14 1;
#X connect 22 0 1 0;
#X connect 23 0 24 0;
#X connect 24 0 30 0;
#X connect 25 0 26 0;
#X connect 26 0 32 0;
#X connect 27 0 31 0;
#X connect 28 0 27 1;
#X connect 29 0 2 0;
#X connect 30 0 8 0;
#X connect 32 0 19 0;
#X connect 33 0 34 0;
#X connect 34 0 37 0;
#X connect 35 0 36 0;
#X connect 36 0 38 0;
#X connect 37 0 23 0;
#X connect 38 0 25 0;
#X connect 39 0 27 0;
#X connect 40 0 6 1;
#X connect 41 0 42 0;
#X connect 42 0 7 0;
#X connect 43 0 44 0;
#X connect 44 0 15 0;
#X connect 45 0 46 0;
#X connect 46 0 28 0;
#X connect 47 0 48 0;
#X connect 48 0 13 0;
#X connect 49 0 50 0;
#X connect 50 0 5 0;
#X connect 51 0 52 0;
#X connect 52 0 3 0;
#X connect 53 0 0 0;
#X connect 55 0 45 0;
#X connect 56 0 51 0;
#X connect 57 0 33 0;
#X connect 58 0 49 0;
#X connect 59 0 41 0;
#X connect 60 0 10 0;
#X connect 61 0 11 0;
#X connect 62 0 35 0;
#X connect 63 0 47 0;
#X connect 64 0 43 0;
#X connect 65 0 17 0;
#X connect 66 0 18 0;
#X coords 0 -1 1 1 125 245 1 30 30;
