#N canvas 499 219 378 353 10;
#X obj 58 42 inlet;
#X obj 58 88 f 0;
#X obj 84 88 + 1;
#X obj 110 88 % 2;
#X msg 58 111 get \$1 1;
#X obj 58 134 list store, f 12;
#X obj 153 42 inlet;
#X obj 153 118 t a a;
#X obj 180 143 list length;
#X obj 58 158 + 0;
#X obj 58 204 t f f;
#X obj 58 252 outlet;
#X obj 58 181 % \$1;
#X connect 0 0 1 0;
#X connect 1 0 2 0;
#X connect 1 0 4 0;
#X connect 2 0 3 0;
#X connect 3 0 1 1;
#X connect 4 0 5 0;
#X connect 5 0 9 0;
#X connect 6 0 7 0;
#X connect 7 0 5 1;
#X connect 7 1 8 0;
#X connect 8 0 3 1;
#X connect 9 0 12 0;
#X connect 10 0 11 0;
#X connect 10 1 9 1;
#X connect 12 0 10 0;
