#N canvas 353 171 700 591 10;
#N canvas 6 116 450 250 (subpatch) 0;
#X array \$0_array 100 float 3;
#A 0 60 0 56 0 0 0 58 0 0 0 69 55 47 0 62 0 48 0 54 0 0 0 44 0 0 0
75 0 0 66 0 0 0 56 0 0 0 50 0 40 0 0 0 66 0 0 44 46 0 0 0 0 0 0 0 0
0 0 0 0 0 0 0 0 0 0 0 0 0 0 0 0 0 0 0 0 0 0 0 0 0 0 0 0 0 0 0 0 0 0
0 0 0 0 0 0 0 0 0 0;
#X coords 0 127 100 0 100 35 1 0 0;
#X restore 192 44 graph;
#X obj 192 289 until;
#X obj 192 312 f 0;
#X obj 218 312 + 1;
#X obj 244 312 % 100;
#X obj 192 388 array set \$0_array;
#X obj 192 361 random 127;
#X obj 192 335 t b f, f 14;
#X obj 192 140 bng 15 250 50 0 empty empty set 80 7 0 10 -262144 -1
-1;
#X obj 470 200 array sum \$0_array;
#X obj 503 222 array size \$0_array;
#X obj 470 176 t b b, f 6;
#X obj 470 240 /;
#X floatatom 470 264 5 0 0 0 - - -;
#X obj 319 289 until;
#X obj 319 312 f 0;
#X obj 345 312 + 1;
#X obj 371 312 % 100;
#X obj 319 360 array get \$0_array;
#X obj 319 335 t f f;
#X obj 319 486 array set \$0_array;
#X obj 21 193 f 0;
#X obj 47 193 + 1;
#X obj 73 193 % 100;
#X obj 21 216 array get \$0_array;
#X obj 52 261 > 0;
#X obj 21 306 t f f, f 18;
#X obj 21 239 t f f;
#X obj 21 283 spigot;
#X obj 21 329 t f f;
#X obj 21 373 spigot;
#X obj 52 351 <;
#X obj 126 329 t f f;
#X obj 126 373 spigot;
#X obj 157 351 >;
#X msg 232 288 seed \$1;
#X obj 21 40 inlet;
#X obj 192 122 nbx 2 14 0 99 0 0 empty empty empty 45 7 0 10 -1 -262144
-1 6 256;
#X obj 192 86 nbx 3 14 0 999 0 0 empty empty size 75 7 0 10 -262144
-1 -1 100 256;
#X obj 170 218 array size \$0_array;
#X obj 192 104 nbx 5 14 0 99999 0 0 empty empty seed 75 7 0 10 -262144
-1 -1 0 256;
#X obj 319 266 f 100;
#X obj 192 265 f 100;
#X obj 470 153 del 500;
#X obj 192 158 bng 15 250 50 0 empty empty sub 80 7 0 10 -191407 -262144
-1;
#X obj 21 446 outlet;
#X obj 126 446 outlet;
#X obj 81 41 loadbang;
#X msg 81 70 100;
#X obj 170 192 t f f f f f, f 38;
#X obj 440 429 f 0;
#X obj 319 461 expr if($f1>$f2+$f3||$f1<$f2-$f3 \, 0 \, $f1);
#X obj 222 122 nbx 2 14 6 36 0 0 empty empty cut 50 7 0 10 -99865 -262144
-1 6 256;
#X obj 319 383 t f b b, f 41;
#X obj 562 429 f 0;
#X msg 114 70 24;
#X connect 1 0 2 0;
#X connect 2 0 3 0;
#X connect 2 0 7 0;
#X connect 3 0 4 0;
#X connect 4 0 2 1;
#X connect 6 0 5 0;
#X connect 7 0 6 0;
#X connect 7 1 5 1;
#X connect 8 0 42 0;
#X connect 8 0 43 0;
#X connect 9 0 12 0;
#X connect 10 0 12 1;
#X connect 11 0 9 0;
#X connect 11 1 10 0;
#X connect 12 0 13 0;
#X connect 13 0 37 0;
#X connect 14 0 15 0;
#X connect 15 0 16 0;
#X connect 15 0 19 0;
#X connect 16 0 17 0;
#X connect 17 0 15 1;
#X connect 18 0 53 0;
#X connect 19 0 18 0;
#X connect 19 1 20 1;
#X connect 21 0 22 0;
#X connect 21 0 24 0;
#X connect 22 0 23 0;
#X connect 23 0 21 1;
#X connect 24 0 27 0;
#X connect 25 0 28 1;
#X connect 26 0 29 0;
#X connect 26 1 32 0;
#X connect 27 0 28 0;
#X connect 27 1 25 0;
#X connect 28 0 26 0;
#X connect 29 0 30 0;
#X connect 29 1 31 0;
#X connect 30 0 45 0;
#X connect 31 0 30 1;
#X connect 32 0 33 0;
#X connect 32 1 34 0;
#X connect 33 0 46 0;
#X connect 34 0 33 1;
#X connect 35 0 6 0;
#X connect 36 0 21 0;
#X connect 37 0 31 1;
#X connect 37 0 34 1;
#X connect 37 0 50 1;
#X connect 38 0 49 0;
#X connect 40 0 35 0;
#X connect 41 0 14 0;
#X connect 42 0 1 0;
#X connect 43 0 11 0;
#X connect 44 0 41 0;
#X connect 47 0 48 0;
#X connect 47 0 55 0;
#X connect 48 0 38 0;
#X connect 49 0 39 0;
#X connect 49 0 23 1;
#X connect 49 1 42 1;
#X connect 49 2 4 1;
#X connect 49 3 41 1;
#X connect 49 4 17 1;
#X connect 50 0 51 1;
#X connect 51 0 20 0;
#X connect 52 0 54 1;
#X connect 53 0 51 0;
#X connect 53 1 50 0;
#X connect 53 2 54 0;
#X connect 54 0 51 2;
#X connect 55 0 52 0;
#X coords 0 -1 1 1 115 175 1 185 5;
