#N canvas 348 245 980 496 10;
#X obj 126 14 inlet;
#X obj 126 188 f 0;
#X obj 151 188 + 1;
#X obj 318 98 r sync;
#X msg 318 123 0;
#X msg 126 255 get \$1 1, f 11;
#X obj 126 328 list store, f 17;
#X obj 126 162 t b b b b, f 61;
#X obj 247 188 f 0;
#X obj 272 188 + 1;
#X obj 247 210 sel 0;
#X obj 247 232 f 0;
#X obj 272 232 + 1;
#X msg 247 255 get \$1 1, f 11;
#X obj 247 328 list store, f 12;
#X obj 368 188 f 0;
#X obj 393 188 + 1;
#X obj 368 210 sel 0;
#X obj 368 232 f 0;
#X obj 393 232 + 1;
#X msg 368 255 get \$1 1, f 11;
#X obj 368 328 list store, f 11;
#X obj 489 188 f 0;
#X obj 514 188 + 1;
#X obj 489 210 sel 0;
#X obj 489 232 f 0;
#X obj 514 232 + 1;
#X msg 489 255 get \$1 1, f 11;
#X obj 489 328 list store, f 11;
#X obj 126 406 outlet;
#X obj 247 406 outlet;
#X obj 368 406 outlet;
#X obj 489 406 outlet;
#X obj 126 211 sel 0;
#X obj 126 232 f 0;
#X obj 151 232 + 1;
#X obj 176 187 % \$2;
#X obj 297 188 % \$3;
#X obj 418 188 % \$4;
#X obj 539 188 % \$5;
#X obj 176 232 % \$1;
#X obj 297 232 % \$1;
#X obj 418 232 % \$1;
#X obj 539 232 % \$1;
#X obj 615 14 inlet;
#X obj 615 123 t f b;
#X obj 642 146 f 0;
#X obj 667 146 + 1;
#X obj 692 146 % \$1;
#X obj 126 377 spigot;
#X obj 247 377 spigot;
#X obj 368 377 spigot;
#X obj 489 377 spigot;
#X obj 521 44 loadbang;
#X msg 521 73 0;
#X obj 684 238 spigot;
#X msg 552 73 1;
#X obj 615 89 spigot;
#X obj 642 169 sel 0;
#X obj 729 60 f \$1;
#X obj 729 153 - 1;
#X msg 717 209 0;
#X msg 642 222 1;
#X obj 431 60 bang;
#X obj 615 261 list prepend;
#X obj 642 192 del 20;
#X obj 821 14 inlet;
#X obj 821 398 bang;
#X connect 0 0 7 0;
#X connect 1 0 2 0;
#X connect 1 0 33 0;
#X connect 2 0 36 0;
#X connect 3 0 4 0;
#X connect 3 0 54 0;
#X connect 3 0 56 0;
#X connect 3 0 63 0;
#X connect 4 0 1 1;
#X connect 4 0 8 1;
#X connect 4 0 11 1;
#X connect 4 0 15 1;
#X connect 4 0 18 1;
#X connect 4 0 34 1;
#X connect 4 0 22 1;
#X connect 4 0 25 1;
#X connect 5 0 6 0;
#X connect 6 0 49 0;
#X connect 7 0 1 0;
#X connect 7 1 8 0;
#X connect 7 2 15 0;
#X connect 7 3 22 0;
#X connect 8 0 9 0;
#X connect 8 0 10 0;
#X connect 9 0 37 0;
#X connect 10 0 11 0;
#X connect 11 0 12 0;
#X connect 11 0 13 0;
#X connect 12 0 41 0;
#X connect 13 0 14 0;
#X connect 14 0 50 0;
#X connect 15 0 16 0;
#X connect 15 0 17 0;
#X connect 16 0 38 0;
#X connect 17 0 18 0;
#X connect 18 0 19 0;
#X connect 18 0 20 0;
#X connect 19 0 42 0;
#X connect 20 0 21 0;
#X connect 21 0 51 0;
#X connect 22 0 23 0;
#X connect 22 0 24 0;
#X connect 23 0 39 0;
#X connect 24 0 25 0;
#X connect 25 0 26 0;
#X connect 25 0 27 0;
#X connect 26 0 43 0;
#X connect 27 0 28 0;
#X connect 28 0 52 0;
#X connect 28 0 55 0;
#X connect 33 0 34 0;
#X connect 34 0 35 0;
#X connect 34 0 5 0;
#X connect 35 0 40 0;
#X connect 36 0 1 1;
#X connect 37 0 8 1;
#X connect 38 0 15 1;
#X connect 39 0 22 1;
#X connect 40 0 34 1;
#X connect 41 0 11 1;
#X connect 42 0 18 1;
#X connect 43 0 25 1;
#X connect 44 0 57 0;
#X connect 45 0 64 0;
#X connect 45 1 46 0;
#X connect 45 1 28 0;
#X connect 46 0 47 0;
#X connect 46 0 58 0;
#X connect 47 0 48 0;
#X connect 48 0 46 1;
#X connect 49 0 29 0;
#X connect 50 0 30 0;
#X connect 51 0 31 0;
#X connect 52 0 32 0;
#X connect 53 0 54 0;
#X connect 53 0 56 0;
#X connect 53 0 59 0;
#X connect 53 0 63 0;
#X connect 54 0 51 1;
#X connect 54 0 52 1;
#X connect 54 0 50 1;
#X connect 54 0 49 1;
#X connect 55 0 64 1;
#X connect 56 0 57 1;
#X connect 56 0 55 1;
#X connect 57 0 45 0;
#X connect 58 0 65 0;
#X connect 59 0 60 0;
#X connect 60 0 58 1;
#X connect 61 0 55 1;
#X connect 61 0 57 1;
#X connect 62 0 52 1;
#X connect 62 0 51 1;
#X connect 62 0 50 1;
#X connect 62 0 49 1;
#X connect 63 0 28 1;
#X connect 63 0 21 1;
#X connect 63 0 14 1;
#X connect 63 0 6 1;
#X connect 64 0 28 1;
#X connect 64 0 6 1;
#X connect 64 0 21 1;
#X connect 64 0 14 1;
#X connect 65 0 62 0;
#X connect 65 0 61 0;
#X connect 66 0 67 0;
#X connect 67 0 56 0;
#X connect 67 0 54 0;
#X connect 67 0 4 0;
#X connect 67 0 63 0;
