#N canvas 0 116 1366 652 10;
#X msg 60 362 get \$1 1;
#X obj 60 28 inlet;
#X obj 162 500 outlet;
#X obj 162 214 until;
#X obj 162 152 f \$1;
#X obj 225 99 loadbang;
#X obj 162 377 list store, f 11;
#X obj 162 283 list append;
#X obj 162 189 t f b, f 35;
#X obj 225 220 f \$2;
#X obj 162 86 t b;
#X obj 162 259 t f b;
#X obj 60 168 f 0;
#X obj 85 168 + 1;
#X obj 110 168 % 2;
#X obj 60 99 t b;
#X obj 162 423 spigot, f 15;
#X msg 249 377 0;
#X obj 281 377 del 20;
#X msg 281 407 1;
#X obj 402 299 list store, f 11;
#X obj 402 423 spigot, f 15;
#X msg 489 377 0;
#X obj 521 377 del 20;
#X msg 521 407 1;
#X obj 462 168 random;
#X obj 162 236 random;
#X obj 402 322 list split;
#X obj 402 400 list store, f 11;
#X obj 402 376 list append;
#X obj 404 86 t b b b, f 20;
#X obj 459 255 + 1;
#X obj 402 352 t a b;
#X msg 330 384 get \$1 1;
#X obj 330 28 inlet;
#X obj 330 168 f 0;
#X obj 355 168 + 1;
#X obj 330 99 t b;
#X obj 381 168 % 2;
#X obj 396 129 + 1;
#X obj 402 500 outlet;
#X obj 672 423 spigot, f 15;
#X msg 759 377 0;
#X obj 791 377 del 20;
#X msg 791 407 1;
#X obj 672 400 list store, f 11;
#X obj 672 376 list append;
#X obj 672 338 t a b;
#X obj 672 500 outlet;
#X msg 600 383 get \$1 1;
#X obj 600 28 inlet;
#X obj 600 212 f 0;
#X obj 625 212 + 1;
#X obj 600 99 t b;
#X obj 651 212 % 2;
#X obj 666 167 f 0;
#X obj 666 189 -, f 5;
#X obj 666 145 t b f;
#X obj 928 299 list store, f 11;
#X obj 928 322 list split;
#X obj 928 423 spigot, f 15;
#X msg 1015 377 0;
#X obj 1045 377 del 20;
#X msg 1045 407 1;
#X obj 928 400 list store, f 11;
#X obj 928 500 outlet;
#X obj 928 86 t b b b, f 20;
#X obj 986 168 random;
#X obj 928 349 list prepend;
#X msg 854 384 get \$1 1;
#X obj 854 28 inlet;
#X obj 854 168 f 0;
#X obj 879 168 + 1;
#X obj 904 168 % 2;
#X obj 854 99 t b;
#X obj 1118 423 spigot, f 15;
#X msg 1205 377 0;
#X obj 1235 377 del 20;
#X msg 1235 407 1;
#X obj 1118 400 list store, f 11;
#X obj 1118 500 outlet;
#X msg 1118 375 get \$1 1;
#X obj 1118 28 inlet;
#X obj 1118 99 t b;
#X obj 1118 301 random;
#X obj 1206 28 inlet;
#X obj 1206 70 t b f;
#X msg 1233 152 seed \$1;
#X obj 233 27 r sync;
#X msg 233 50 0;
#X connect 0 0 6 0;
#X connect 1 0 15 0;
#X connect 3 0 26 0;
#X connect 4 0 8 0;
#X connect 4 0 14 1;
#X connect 4 0 25 1;
#X connect 4 0 67 1;
#X connect 4 0 73 1;
#X connect 4 0 84 1;
#X connect 5 0 4 0;
#X connect 5 0 9 0;
#X connect 6 0 7 1;
#X connect 6 0 16 0;
#X connect 7 0 6 1;
#X connect 7 0 20 1;
#X connect 7 0 58 1;
#X connect 7 0 79 1;
#X connect 8 0 3 0;
#X connect 8 1 6 1;
#X connect 8 1 17 0;
#X connect 8 1 18 0;
#X connect 8 1 22 0;
#X connect 8 1 20 1;
#X connect 8 1 42 0;
#X connect 8 1 58 1;
#X connect 8 1 76 0;
#X connect 8 1 77 0;
#X connect 9 0 26 1;
#X connect 10 0 4 0;
#X connect 10 0 9 0;
#X connect 11 0 7 0;
#X connect 11 1 6 0;
#X connect 12 0 13 0;
#X connect 12 0 0 0;
#X connect 13 0 14 0;
#X connect 14 0 12 1;
#X connect 15 0 12 0;
#X connect 16 0 2 0;
#X connect 17 0 16 1;
#X connect 18 0 19 0;
#X connect 19 0 16 1;
#X connect 20 0 27 0;
#X connect 21 0 40 0;
#X connect 22 0 21 1;
#X connect 23 0 24 0;
#X connect 24 0 21 1;
#X connect 25 0 31 0;
#X connect 25 0 39 0;
#X connect 26 0 11 0;
#X connect 27 0 32 0;
#X connect 27 1 47 0;
#X connect 28 0 29 1;
#X connect 28 0 21 0;
#X connect 29 0 28 1;
#X connect 30 0 20 0;
#X connect 30 1 25 0;
#X connect 30 2 28 1;
#X connect 30 2 23 0;
#X connect 30 2 43 0;
#X connect 30 2 45 1;
#X connect 31 0 27 1;
#X connect 32 0 29 0;
#X connect 32 1 28 0;
#X connect 33 0 28 0;
#X connect 34 0 37 0;
#X connect 35 0 36 0;
#X connect 35 0 33 0;
#X connect 36 0 38 0;
#X connect 37 0 35 0;
#X connect 38 0 35 1;
#X connect 39 0 38 1;
#X connect 39 0 57 0;
#X connect 41 0 48 0;
#X connect 42 0 41 1;
#X connect 43 0 44 0;
#X connect 44 0 41 1;
#X connect 45 0 46 1;
#X connect 45 0 41 0;
#X connect 46 0 45 1;
#X connect 47 0 46 0;
#X connect 47 1 45 0;
#X connect 49 0 45 0;
#X connect 50 0 53 0;
#X connect 51 0 52 0;
#X connect 51 0 49 0;
#X connect 52 0 54 0;
#X connect 53 0 51 0;
#X connect 54 0 51 1;
#X connect 55 0 56 0;
#X connect 56 0 54 1;
#X connect 57 0 55 0;
#X connect 57 1 56 1;
#X connect 58 0 59 0;
#X connect 59 0 68 0;
#X connect 59 1 68 1;
#X connect 60 0 65 0;
#X connect 61 0 60 1;
#X connect 62 0 63 0;
#X connect 63 0 60 1;
#X connect 64 0 60 0;
#X connect 66 0 58 0;
#X connect 66 1 67 0;
#X connect 66 2 61 0;
#X connect 66 2 62 0;
#X connect 67 0 59 1;
#X connect 68 0 64 1;
#X connect 69 0 64 0;
#X connect 70 0 74 0;
#X connect 71 0 72 0;
#X connect 71 0 69 0;
#X connect 72 0 73 0;
#X connect 73 0 71 1;
#X connect 74 0 71 0;
#X connect 75 0 80 0;
#X connect 76 0 75 1;
#X connect 77 0 78 0;
#X connect 78 0 75 1;
#X connect 79 0 75 0;
#X connect 81 0 79 0;
#X connect 82 0 83 0;
#X connect 83 0 84 0;
#X connect 84 0 81 0;
#X connect 85 0 86 0;
#X connect 86 0 10 0;
#X connect 86 0 30 0;
#X connect 86 0 66 0;
#X connect 86 1 87 0;
#X connect 87 0 84 0;
#X connect 87 0 67 0;
#X connect 87 0 25 0;
#X connect 87 0 26 0;
#X connect 88 0 89 0;
#X connect 89 0 35 1;
#X connect 89 0 71 1;
#X connect 89 0 51 1;
#X connect 89 0 12 1;
