#N canvas 238 130 874 591 10;
#X obj 125 125 *~;
#X obj 127 460 *~;
#X obj 125 148 rfft~;
#X obj 126 429 rifft~, f 7;
#X obj 128 565 outlet~;
#X obj 126 341 *~;
#X obj 165 340 *~;
#X obj 125 182 *~;
#X obj 151 182 *~;
#X obj 125 205 +~, f 5;
#X obj 126 250 sqrt~;
#X obj 164 401 *~;
#X obj 179 367 expr 2/(3*$f1);
#X obj 126 400 *~;
#X obj 243 249 -~ 0.25;
#X obj 243 274 wrap~;
#X obj 201 296 cos~;
#X obj 243 297 cos~;
#X obj 203 111 noise~;
#X obj 202 208 *~ 3.14157;
#X obj 202 158 -~ 0.5;
#X obj 202 182 *~ 2;
#X obj 348 394 osc~, f 5;
#X obj 348 419 *~ -0.5;
#X obj 348 443 +~ 0.5, f 7;
#X msg 375 371 0;
#X obj 348 347 t f b;
#X floatatom 348 269 5 0 0 0 - - -;
#X obj 127 485 bp~ 1000 150, f 20;
#X obj 203 134 lop~ 5;
#X obj 127 510 expr~ tanh($v1);
#X obj 124 25 inlet~;
#X obj 185 25 inlet;
#X obj 245 25 inlet;
#X obj 245 81 clip 5 200;
#X obj 185 58 clip 0 127;
#X obj 185 81 mtof;
#X obj 348 25 inlet;
#X obj 348 58 clip 0 10;
#X connect 0 0 2 0;
#X connect 1 0 28 0;
#X connect 2 0 7 0;
#X connect 2 0 7 1;
#X connect 2 1 8 0;
#X connect 2 1 8 1;
#X connect 3 0 1 0;
#X connect 5 0 13 0;
#X connect 6 0 11 0;
#X connect 7 0 9 0;
#X connect 8 0 9 1;
#X connect 9 0 10 0;
#X connect 10 0 5 0;
#X connect 10 0 6 0;
#X connect 11 0 3 1;
#X connect 12 0 11 1;
#X connect 12 0 13 1;
#X connect 13 0 3 0;
#X connect 14 0 15 0;
#X connect 15 0 17 0;
#X connect 16 0 5 1;
#X connect 17 0 6 1;
#X connect 18 0 29 0;
#X connect 19 0 14 0;
#X connect 19 0 16 0;
#X connect 20 0 21 0;
#X connect 21 0 19 0;
#X connect 22 0 23 0;
#X connect 23 0 24 0;
#X connect 24 0 1 1;
#X connect 24 0 0 1;
#X connect 25 0 22 1;
#X connect 26 0 22 0;
#X connect 26 1 25 0;
#X connect 27 0 26 0;
#X connect 27 0 12 0;
#X connect 28 0 30 0;
#X connect 29 0 20 0;
#X connect 30 0 4 0;
#X connect 31 0 0 0;
#X connect 32 0 35 0;
#X connect 33 0 34 0;
#X connect 34 0 28 2;
#X connect 35 0 36 0;
#X connect 36 0 28 1;
#X connect 37 0 38 0;
#X connect 38 0 27 0;
