#N canvas 723 319 450 300 10;
#X obj 76 164 f 0;
#X obj 76 226 expr if($f1%$f2==$f2-1 \, random(-6 \, 12)-$f2 \, $f1-$f2)
;
#X obj 76 58 inlet;
#X obj 76 132 bang;
#X obj 120 109 r sync;
#X msg 120 132 0;
#X obj 406 58 inlet;
#X obj 385 109 loadbang;
#X obj 76 187 t f f, f 7;
#X obj 163 187 sel 0;
#X obj 76 263 outlet;
#X obj 101 164 + \$1;
#X obj 134 164 % \$2;
#X obj 385 203 f \$3;
#X obj 121 58 inlet;
#X connect 0 0 8 0;
#X connect 0 0 11 0;
#X connect 1 0 10 0;
#X connect 2 0 3 0;
#X connect 3 0 0 0;
#X connect 4 0 5 0;
#X connect 5 0 0 1;
#X connect 6 0 13 1;
#X connect 7 0 13 0;
#X connect 8 0 1 0;
#X connect 8 1 9 0;
#X connect 9 0 13 0;
#X connect 11 0 12 0;
#X connect 12 0 0 1;
#X connect 13 0 1 1;
#X connect 14 0 11 1;
