#N canvas 567 272 562 386 10;
#X obj 69 180 expr $f2 * pow($f1 \, $f3) / pow(2 \, floor(log(pow($f1
\, $f3)) / 0.693147)), f 51;
#X floatatom 220 70 6 0 0 0 fondamentale - -;
#X obj 371 158 clip -4 4;
#X floatatom 371 68 5 0 0 0 step - -;
#X obj 69 104 sel 3 5 7 11, f 21;
#X msg 69 128 3;
#X msg 99 128 5;
#X msg 130 128 7;
#X msg 161 128 11;
#X obj 69 19 inlet;
#X obj 220 19 inlet;
#X obj 371 19 inlet;
#X obj 69 316 outlet;
#X connect 0 0 12 0;
#X connect 1 0 0 1;
#X connect 2 0 0 2;
#X connect 3 0 2 0;
#X connect 4 0 5 0;
#X connect 4 1 6 0;
#X connect 4 2 7 0;
#X connect 4 3 8 0;
#X connect 5 0 0 0;
#X connect 6 0 0 0;
#X connect 7 0 0 0;
#X connect 8 0 0 0;
#X connect 9 0 4 0;
#X connect 10 0 1 0;
#X connect 11 0 3 0;
