#N canvas 137 255 801 452 10;
#X obj 57 88 bng 15 250 50 0 empty empty empty 17 7 0 10 -262144 -228856
-1;
#X obj 57 25 inlet;
#X obj 57 182 f 0;
#X obj 84 182 + 1;
#X obj 108 88 bng 15 250 50 0 empty empty empty 17 7 0 10 -262144 -1
-1;
#X obj 57 328 outlet;
#X msg 72 157 0;
#X obj 76 88 nbx 2 15 1 50 0 0 empty empty empty 0 -8 0 10 -262144
-1 -1 1 256;
#X obj 226 25 inlet;
#X obj 156 205 list store, f 19;
#X obj 57 251 t b b b, f 17;
#X obj 156 158 f 0;
#X obj 183 158 + 1;
#X obj 226 110 t a a, f 7;
#X obj 211 158 % 1;
#X msg 156 181 get \$1 1;
#X obj 226 133 list length;
#X obj 57 228 sel 1;
#X obj 114 189 - 1;
#X obj 57 205 == 0;
#X obj 183 328 outlet;
#X obj 156 228 t f f;
#X connect 0 0 2 0;
#X connect 1 0 0 0;
#X connect 2 0 3 0;
#X connect 2 0 19 0;
#X connect 3 0 2 1;
#X connect 4 0 6 0;
#X connect 6 0 2 1;
#X connect 7 0 18 0;
#X connect 8 0 13 0;
#X connect 9 0 21 0;
#X connect 10 0 5 0;
#X connect 10 1 4 0;
#X connect 10 2 11 0;
#X connect 11 0 12 0;
#X connect 11 0 15 0;
#X connect 12 0 14 0;
#X connect 13 0 16 0;
#X connect 13 1 9 1;
#X connect 14 0 11 1;
#X connect 15 0 9 0;
#X connect 16 0 14 1;
#X connect 17 0 10 0;
#X connect 18 0 19 1;
#X connect 19 0 17 0;
#X connect 21 0 7 0;
#X connect 21 1 20 0;
#X coords 0 -1 1 1 80 50 1 50 60;
