#N canvas 347 171 993 574 10;
#X obj 499 369 table scale 12;
#X msg 499 417 0 2 3 6 7 9 12 14 15 18 19 21;
#X obj 499 442 array set scale;
#X obj 78 84 bng 15 250 50 0 empty empty trg 17 7 0 10 -262144 -1 -1
;
#X obj 78 16 inlet;
#X obj 78 244 random 100;
#X obj 78 267 % 12;
#X obj 78 320 array get scale;
#X floatatom 78 343 5 0 0 0 - - -;
#X obj 145 12 inlet;
#X obj 499 393 loadbang;
#X floatatom 78 388 5 0 0 0 - - -;
#X obj 78 446 outlet;
#X floatatom 78 124 5 1 12 1 width - -;
#X floatatom 78 103 5 40 70 1 tone - -;
#X obj 211 286 array get scale;
#X floatatom 211 309 5 0 0 0 - - -;
#X floatatom 211 354 5 0 0 0 - - -;
#X obj 211 446 outlet;
#X obj 211 241 + 0;
#X obj 309 286 array get scale;
#X floatatom 309 309 5 0 0 0 - - -;
#X floatatom 309 354 5 0 0 0 - - -;
#X obj 309 446 outlet;
#X obj 407 286 array get scale;
#X floatatom 407 309 5 0 0 0 - - -;
#X floatatom 407 354 5 0 0 0 - - -;
#X obj 407 446 outlet;
#X obj 309 241 + 2;
#X floatatom 211 12 5 0 0 0 - - -;
#X obj 211 264 % 12;
#X obj 309 264 % 12;
#X obj 407 264 % 12;
#X obj 211 181 spigot;
#X obj 257 181 tgl 15 0 empty empty empty 17 7 0 10 -262144 -1 -1 0
1;
#X floatatom 257 159 5 0 0 0 - - -;
#X floatatom 307 62 5 0 0 0 - - -;
#X obj 211 34 t f f;
#X obj 395 62 + 2;
#X obj 483 62 + 2;
#X obj 571 62 + 2;
#X obj 220 84 expr if($f1==$f2 || $f1==$f3 || $f1==$f4 || $f1==$f5
\, 0 \, 1);
#X floatatom 78 165 5 0 0 1 delay - -;
#X obj 88 295 pipe 0;
#X obj 78 365 +, f 5;
#X obj 211 331 +;
#X obj 309 331 +;
#X obj 407 331 +;
#X obj 434 118 - 12;
#X obj 407 241 + 2;
#X obj 211 206 t f f, f 16;
#X floatatom 78 145 5 1 6 1 int - -;
#X connect 1 0 2 0;
#X connect 3 0 5 0;
#X connect 4 0 3 0;
#X connect 5 0 6 0;
#X connect 6 0 7 0;
#X connect 6 0 43 0;
#X connect 7 0 8 0;
#X connect 8 0 44 0;
#X connect 9 0 14 0;
#X connect 10 0 1 0;
#X connect 11 0 12 0;
#X connect 13 0 6 1;
#X connect 14 0 44 1;
#X connect 14 0 48 0;
#X connect 15 0 16 0;
#X connect 16 0 45 0;
#X connect 17 0 18 0;
#X connect 19 0 30 0;
#X connect 20 0 21 0;
#X connect 21 0 46 0;
#X connect 22 0 23 0;
#X connect 24 0 25 0;
#X connect 25 0 47 0;
#X connect 26 0 27 0;
#X connect 28 0 31 0;
#X connect 28 0 49 0;
#X connect 29 0 37 0;
#X connect 30 0 15 0;
#X connect 31 0 20 0;
#X connect 32 0 24 0;
#X connect 33 0 36 0;
#X connect 33 0 50 0;
#X connect 34 0 33 1;
#X connect 35 0 34 0;
#X connect 36 0 38 0;
#X connect 36 0 41 1;
#X connect 37 0 33 0;
#X connect 37 1 41 0;
#X connect 38 0 39 0;
#X connect 38 0 41 2;
#X connect 39 0 40 0;
#X connect 39 0 41 3;
#X connect 40 0 41 4;
#X connect 41 0 35 0;
#X connect 42 0 43 1;
#X connect 43 0 29 0;
#X connect 44 0 11 0;
#X connect 45 0 17 0;
#X connect 46 0 22 0;
#X connect 47 0 26 0;
#X connect 48 0 45 1;
#X connect 48 0 46 1;
#X connect 48 0 47 1;
#X connect 49 0 32 0;
#X connect 50 0 19 0;
#X connect 50 1 28 0;
#X connect 51 0 28 1;
#X connect 51 0 49 1;
#X coords 0 -1 1 1 80 140 1 70 50;
