#N canvas 562 177 437 516 10;
#X obj 66 38 inlet;
#X obj 66 81 t b;
#X obj 66 124 f 0;
#X obj 119 124 % 4;
#X obj 66 147 t f f, f 12;
#X msg 66 220 get \$1 1;
#X obj 201 38 inlet;
#X obj 201 81 t a a;
#X obj 228 108 list length;
#X obj 66 244 list store, f 23;
#X floatatom 66 269 5 0 0 0 - - -;
#X obj 92 124 + 1;
#X obj 228 193 f 0;
#X obj 281 193 % 4;
#X obj 254 193 + 1;
#X obj 228 163 sel 0;
#X obj 255 140 - 1;
#X floatatom 228 216 5 0 0 0 - - -;
#X obj 66 170 + 0;
#X obj 66 193 % 4;
#X obj 123 38 inlet;
#X obj 123 81 clip 0 127;
#X obj 66 332 + 0;
#X obj 108 316 i;
#X obj 66 291 t f b, f 7;
#X obj 187 300 i;
#X msg 282 298 0;
#X obj 123 271 t f f b, f 27;
#X obj 66 355 t f f, f 10;
#X obj 66 418 outlet;
#X connect 0 0 1 0;
#X connect 1 0 2 0;
#X connect 2 0 4 0;
#X connect 2 0 11 0;
#X connect 3 0 2 1;
#X connect 4 0 18 0;
#X connect 4 1 15 0;
#X connect 5 0 9 0;
#X connect 6 0 7 0;
#X connect 7 0 9 1;
#X connect 7 1 8 0;
#X connect 8 0 3 1;
#X connect 8 0 16 0;
#X connect 8 0 13 1;
#X connect 8 0 19 1;
#X connect 9 0 10 0;
#X connect 10 0 24 0;
#X connect 11 0 3 0;
#X connect 12 0 14 0;
#X connect 12 0 17 0;
#X connect 13 0 12 1;
#X connect 14 0 13 0;
#X connect 15 0 12 0;
#X connect 15 0 25 0;
#X connect 16 0 15 1;
#X connect 17 0 18 1;
#X connect 18 0 19 0;
#X connect 19 0 5 0;
#X connect 20 0 21 0;
#X connect 21 0 27 0;
#X connect 22 0 28 0;
#X connect 23 0 22 1;
#X connect 24 0 22 0;
#X connect 24 1 23 0;
#X connect 25 0 23 1;
#X connect 26 0 2 1;
#X connect 26 0 12 1;
#X connect 27 0 23 1;
#X connect 27 1 25 1;
#X connect 27 2 26 0;
#X connect 28 0 29 0;
#X connect 28 1 23 1;
