#N canvas 331 267 827 416 10;
#X floatatom 85 167 5 0 0 0 - - -;
#X floatatom 98 191 5 0 0 0 - - -;
#X obj 70 191 f;
#X obj 70 52 bng 15 250 50 0 empty empty empty 17 7 0 10 -262144 -1
-1;
#X obj 70 281 line;
#X floatatom 195 167 5 0 0 0 - - -;
#X floatatom 208 191 5 0 0 0 - - -;
#X obj 180 191 f;
#X floatatom 108 52 5 0 0 2 from - -;
#X floatatom 144 52 5 0 0 2 to - -;
#X obj 242 52 hsl 60 17 1 10 0 0 empty empty up/down -2 -8 0 10 -128992
-262144 -1 800 1;
#X obj 134 121 t f f;
#X obj 70 214 pack 0 0 0;
#X obj 180 214 pack 0 0 0;
#X floatatom 134 191 5 0 0 0 - - -;
#X floatatom 243 191 5 0 0 0 - - -;
#X obj 147 277 del \$1;
#X msg 70 237 \$3 \, \$1 \$2;
#X msg 180 237 \$3 \, \$1 \$2;
#X obj 216 121 t f f;
#X obj 327 109 i;
#X obj 327 132 t f f, f 7;
#X floatatom 366 198 5 0 0 0 - - -;
#X floatatom 327 177 5 0 0 0 - - -;
#X obj 327 155 expr 10-$f1;
#X obj 180 52 nbx 5 17 -1e+37 1e+37 0 0 empty empty in_sec 0 -8 0 10
-1 -262144 -1 25 256;
#X obj 278 238 /;
#X obj 95 98 moses 0;
#X obj 177 98 moses 0;
#X obj 239 98 moses 0;
#X obj 327 199 t b f;
#X obj 366 220 t b f;
#X obj 378 258 /;
#X obj 327 237 bang;
#X obj 70 120 spigot;
#X obj 89 52 tgl 15 0 empty empty empty 17 7 0 10 -262144 -1 -1 1 1
;
#X obj 70 143 t b b;
#X obj 147 300 t b b;
#X obj 174 325 del \$1;
#X obj 278 121 * 1000;
#X obj 70 339 i;
#X obj 70 376 outlet;
#X obj 70 304 t f f;
#X obj 122 376 outlet;
#X obj 173 353 bang;
#X obj 173 376 outlet;
#X connect 0 0 2 1;
#X connect 1 0 12 1;
#X connect 2 0 12 0;
#X connect 3 0 34 0;
#X connect 4 0 42 0;
#X connect 5 0 7 1;
#X connect 6 0 13 1;
#X connect 7 0 13 0;
#X connect 8 0 27 0;
#X connect 9 0 28 0;
#X connect 10 0 20 0;
#X connect 11 0 14 0;
#X connect 11 1 5 0;
#X connect 12 0 17 0;
#X connect 13 0 18 0;
#X connect 14 0 12 2;
#X connect 15 0 13 2;
#X connect 16 0 37 0;
#X connect 17 0 4 0;
#X connect 18 0 4 0;
#X connect 19 0 0 0;
#X connect 19 1 15 0;
#X connect 20 0 21 0;
#X connect 21 0 24 0;
#X connect 21 1 22 0;
#X connect 22 0 31 0;
#X connect 23 0 30 0;
#X connect 24 0 23 0;
#X connect 25 0 29 0;
#X connect 26 0 1 0;
#X connect 26 0 16 1;
#X connect 27 1 11 0;
#X connect 28 1 19 0;
#X connect 29 1 39 0;
#X connect 30 0 33 0;
#X connect 30 1 26 1;
#X connect 31 0 33 0;
#X connect 31 1 32 1;
#X connect 32 0 6 0;
#X connect 32 0 38 1;
#X connect 33 0 25 0;
#X connect 34 0 36 0;
#X connect 35 0 34 1;
#X connect 36 0 2 0;
#X connect 36 1 16 0;
#X connect 36 1 44 0;
#X connect 37 0 7 0;
#X connect 37 1 38 0;
#X connect 37 1 44 0;
#X connect 38 0 3 0;
#X connect 39 0 26 0;
#X connect 39 0 32 0;
#X connect 40 0 41 0;
#X connect 42 0 40 0;
#X connect 42 1 43 0;
#X connect 44 0 45 0;
#X coords 0 -1 1 1 255 70 1 60 10;
