#N canvas 688 152 504 564 10;
#X obj 115 165 sel 0 1, f 49;
#X obj 291 283 random 9999;
#X obj 291 306 / 10000;
#X obj 291 329 t f f;
#X obj 143 404 outlet;
#X obj 70 14 inlet;
#X obj 172 297 f 0;
#X obj 199 297 + 1;
#X obj 226 297 % 4;
#X obj 70 52 t f f, f 8;
#X obj 70 405 outlet;
#X obj 70 315 spigot;
#X obj 187 190 r sync;
#X msg 187 223 0;
#X obj 103 240 f 0;
#X obj 130 240 + 1;
#X obj 157 240 % 2;
#X floatatom 103 278 5 0 0 0 - - -;
#X obj 172 320 sel 3;
#X obj 115 190 t b b b, f 10;
#X obj 143 345 f 0;
#X obj 103 216 del 20;
#X obj 143 371 pipe 20;
#X obj 260 190 t b b b, f 11;
#X msg 321 213 0;
#X obj 260 214 del 20;
#X msg 260 262 1;
#X obj 115 75 expr if($f1==0||$f1==12 \, 0 \, 2) \; if($f1==1||$f1==6||$f1==10
\, 1 \, 2), f 25;
#X connect 0 0 19 0;
#X connect 0 1 23 0;
#X connect 1 0 2 0;
#X connect 2 0 3 0;
#X connect 3 0 20 1;
#X connect 3 1 22 0;
#X connect 5 0 9 0;
#X connect 6 0 7 0;
#X connect 6 0 18 0;
#X connect 7 0 8 0;
#X connect 8 0 6 1;
#X connect 9 0 11 0;
#X connect 9 1 27 0;
#X connect 11 0 10 0;
#X connect 12 0 13 0;
#X connect 13 0 6 1;
#X connect 13 0 14 1;
#X connect 14 0 15 0;
#X connect 14 0 17 0;
#X connect 15 0 16 0;
#X connect 16 0 14 1;
#X connect 17 0 11 1;
#X connect 18 0 1 0;
#X connect 19 0 21 0;
#X connect 19 1 20 0;
#X connect 19 2 6 0;
#X connect 20 0 22 0;
#X connect 21 0 14 0;
#X connect 22 0 4 0;
#X connect 23 0 25 0;
#X connect 23 1 1 0;
#X connect 23 2 24 0;
#X connect 24 0 17 0;
#X connect 25 0 26 0;
#X connect 26 0 17 0;
#X connect 27 0 0 0;
#X connect 27 1 0 0;
