#N canvas 20 116 800 574 10;
#X obj 54 164 metro 1000;
#X obj 54 190 snapshot~;
#X floatatom 54 214 5 0 0 0 - - -;
#X obj 154 150 +~ 1;
#X obj 154 173 /~ 2;
#X floatatom 54 305 5 0 0 0 - - -;
#X obj 153 124 osc~ 0.01;
#X obj 54 327 osc~;
#X obj 54 260 * 256;
#X obj 54 283 + 128;
#X obj 100 275 vline~;
#X obj 54 380 *~;
#X obj 54 236 t f b;
#X obj 54 351 +~;
#X obj 127 311 noise~;
#X obj 101 364 pow~ 4;
#X obj 214 311 *;
#X floatatom 214 334 5 0 0 0 - - -;
#X obj 202 252 t b f;
#X obj 54 433 bp~ 100 50;
#X obj 134 432 bp~ 100 50;
#X obj 214 363 * 0.5;
#X obj 54 508 outlet~;
#X obj 54 140 clip 0 1;
#X obj 54 28 inlet;
#X obj 111 98 f \$1;
#X obj 153 98 f \$2;
#X obj 132 28 inlet;
#X obj 174 28 inlet;
#X obj 240 29 loadbang;
#X obj 132 51 clip 50 1000;
#X obj 174 75 clip 0.01 4;
#X obj 127 334 *~ 0.15;
#X obj 213 431 bp~ 100 30;
#X msg 100 252 1 5 \, 0 90 5;
#X obj 287 363 * 50;
#X obj 254 363 * 10;
#X obj 285 431 bp~ 100 15;
#X obj 189 508 outlet;
#X obj 54 480 *~ 1;
#X connect 0 0 25 0;
#X connect 0 0 26 0;
#X connect 0 0 1 0;
#X connect 0 0 38 0;
#X connect 1 0 2 0;
#X connect 2 0 12 0;
#X connect 3 0 4 0;
#X connect 4 0 1 0;
#X connect 5 0 7 0;
#X connect 6 0 3 0;
#X connect 7 0 13 0;
#X connect 8 0 9 0;
#X connect 9 0 5 0;
#X connect 10 0 15 0;
#X connect 11 0 19 0;
#X connect 11 0 20 0;
#X connect 11 0 33 0;
#X connect 11 0 37 0;
#X connect 12 0 8 0;
#X connect 12 1 34 0;
#X connect 13 0 11 0;
#X connect 14 0 32 0;
#X connect 15 0 11 1;
#X connect 16 0 17 0;
#X connect 17 0 19 1;
#X connect 17 0 21 0;
#X connect 17 0 35 0;
#X connect 17 0 36 0;
#X connect 18 0 16 0;
#X connect 18 1 16 1;
#X connect 19 0 39 0;
#X connect 20 0 39 0;
#X connect 21 0 20 1;
#X connect 23 0 0 0;
#X connect 24 0 23 0;
#X connect 25 0 0 1;
#X connect 25 0 16 0;
#X connect 26 0 6 0;
#X connect 26 0 18 0;
#X connect 27 0 30 0;
#X connect 28 0 31 0;
#X connect 29 0 25 0;
#X connect 29 0 26 0;
#X connect 30 0 25 1;
#X connect 31 0 26 1;
#X connect 32 0 13 1;
#X connect 33 0 39 0;
#X connect 34 0 10 0;
#X connect 35 0 37 1;
#X connect 36 0 33 1;
#X connect 37 0 39 0;
#X connect 39 0 22 0;
