#N canvas 0 116 1366 652 10;
#X obj 56 42 bng 15 250 50 0 empty empty empty 17 7 0 10 -262144 -1
-1;
#X obj 56 117 random 100;
#X floatatom 208 246 5 0 0 1 total_duration - -;
#X obj 361 213 i;
#X floatatom 361 236 5 0 0 1 total_notes - -;
#X obj 346 261 /;
#X floatatom 346 284 5 0 0 1 metro - -;
#X obj 319 306 metro;
#X obj 56 293 tgl 15 0 empty empty empty 17 7 0 10 -262144 -1 -1 0
1;
#X obj 319 329 f;
#X obj 346 329 + 1;
#X obj 319 352 %;
#X obj 319 375 sel 0;
#X obj 319 399 bng 15 250 50 0 empty empty empty 17 7 0 10 -262144
-1 -1;
#X obj 361 359 - 1;
#X obj 346 399 bng 15 250 50 0 empty empty empty 17 7 0 10 -262144
-1 -1;
#X obj 454 300 moses 50;
#X floatatom 514 235 5 0 0 1 current_interval - -;
#X obj 665 212 / 100;
#X floatatom 665 235 5 0 0 1 amplitude - -;
#X obj 454 278 random 100;
#X obj 636 475 pipe 50;
#X floatatom 477 395 5 0 0 0 - - -;
#X obj 499 365 - 0;
#X obj 454 365 + 0;
#X obj 454 323 bng 15 250 50 0 empty empty empty 17 7 0 10 -262144
-1 -1;
#X obj 499 323 bng 15 250 50 0 empty empty empty 17 7 0 10 -262144
-1 -1;
#X obj 454 343 i 56;
#X obj 499 343 i 56;
#X floatatom 477 453 5 0 0 0 current_note - -;
#X floatatom 636 453 5 0 0 0 - - -;
#X obj 514 212 i;
#X obj 650 299 /;
#X floatatom 650 322 5 0 0 1 decay - -;
#X obj 186 18 inlet;
#X obj 56 599 outlet;
#X obj 138 599 outlet;
#X obj 212 599 outlet;
#X obj 319 599 outlet;
#X obj 477 416 expr $f1 \; if($f1>36&&$f1<76 \, $f1 \, 56);
#N canvas 6 116 450 250 (subpatch) 0;
#X array \$0-phrase 20 float 2;
#X coords 0 250 1 249 200 140 0;
#X restore 850 38 graph;
#X floatatom 791 369 5 0 0 0 - - -;
#X floatatom 846 369 5 0 0 0 - - -;
#X floatatom 83 345 5 0 0 1 metro - -;
#X obj 56 367 metro;
#X obj 56 390 f;
#X obj 83 390 + 1;
#X obj 56 413 %;
#X obj 95 429 sel 0;
#X obj 122 408 - 1;
#X floatatom 56 436 5 0 0 0 - - -;
#X floatatom 56 481 5 0 0 1 repeat_note - -;
#X obj 56 345 tgl 15 0 empty empty empty 17 7 0 10 -262144 -1 -1 0
1;
#X obj 169 433 f;
#X obj 196 433 + 1;
#X floatatom 169 458 5 0 0 0 - - -;
#X obj 169 480 sel 0;
#X obj 169 505 bng 15 250 50 0 empty empty empty 17 7 0 10 -262144
-1 -1;
#X msg 72 518 0;
#X obj 226 420 / 2;
#X obj 208 190 + 0;
#X obj 226 443 i;
#X floatatom 226 465 5 0 0 1 repetitions - -;
#X obj 665 275 * 2;
#X obj 47 458 array get \$0-phrase;
#X obj 791 392 array set \$0-phrase;
#X obj 514 190 + 1;
#X obj 56 140 t b f f f b, f 102;
#X obj 665 167 random 100;
#X floatatom 113 96 5 0 0 0 - - -;
#X obj 80 42 hsl 50 15 50 500 0 0 empty empty width -2 -8 0 10 -262144
-1 -1 3800 1;
#X obj 361 190 + 1;
#X obj 208 167 * 50;
#X obj 514 167 / 50;
#X obj 361 167 / 50;
#X floatatom 138 41 3 10 200 2 D - -;
#X connect 0 0 1 0;
#X connect 1 0 67 0;
#X connect 2 0 5 0;
#X connect 3 0 4 0;
#X connect 4 0 5 1;
#X connect 4 0 11 1;
#X connect 4 0 14 0;
#X connect 4 0 47 1;
#X connect 4 0 49 0;
#X connect 5 0 6 0;
#X connect 6 0 7 1;
#X connect 6 0 32 0;
#X connect 6 0 43 0;
#X connect 7 0 9 0;
#X connect 8 0 7 0;
#X connect 9 0 10 0;
#X connect 9 0 11 0;
#X connect 10 0 9 1;
#X connect 11 0 12 0;
#X connect 11 0 42 0;
#X connect 12 0 13 0;
#X connect 12 1 15 0;
#X connect 13 0 8 0;
#X connect 13 0 20 0;
#X connect 13 0 52 0;
#X connect 14 0 12 1;
#X connect 15 0 20 0;
#X connect 16 0 25 0;
#X connect 16 1 26 0;
#X connect 17 0 24 1;
#X connect 17 0 23 1;
#X connect 17 0 59 0;
#X connect 18 0 19 0;
#X connect 19 0 37 0;
#X connect 19 0 63 0;
#X connect 20 0 16 0;
#X connect 21 0 27 1;
#X connect 21 0 28 1;
#X connect 21 0 41 0;
#X connect 22 0 39 0;
#X connect 23 0 22 0;
#X connect 24 0 22 0;
#X connect 25 0 27 0;
#X connect 26 0 28 0;
#X connect 27 0 24 0;
#X connect 28 0 23 0;
#X connect 29 0 35 0;
#X connect 30 0 21 0;
#X connect 31 0 17 0;
#X connect 32 0 33 0;
#X connect 33 0 36 0;
#X connect 34 0 0 0;
#X connect 39 0 29 0;
#X connect 39 1 30 0;
#X connect 41 0 65 0;
#X connect 42 0 65 1;
#X connect 43 0 44 1;
#X connect 44 0 45 0;
#X connect 45 0 46 0;
#X connect 45 0 47 0;
#X connect 46 0 45 1;
#X connect 47 0 48 0;
#X connect 47 0 50 0;
#X connect 48 0 53 0;
#X connect 49 0 48 1;
#X connect 50 0 64 0;
#X connect 51 0 35 0;
#X connect 52 0 44 0;
#X connect 53 0 54 0;
#X connect 53 0 55 0;
#X connect 54 0 53 1;
#X connect 55 0 56 0;
#X connect 56 0 57 0;
#X connect 57 0 52 0;
#X connect 57 0 38 0;
#X connect 57 0 58 0;
#X connect 58 0 53 1;
#X connect 58 0 45 1;
#X connect 59 0 61 0;
#X connect 60 0 2 0;
#X connect 61 0 62 0;
#X connect 62 0 56 1;
#X connect 63 0 32 1;
#X connect 64 0 51 0;
#X connect 66 0 31 0;
#X connect 67 0 8 0;
#X connect 67 1 72 0;
#X connect 67 2 74 0;
#X connect 67 3 73 0;
#X connect 67 4 68 0;
#X connect 68 0 18 0;
#X connect 69 0 1 1;
#X connect 70 0 69 0;
#X connect 71 0 3 0;
#X connect 72 0 60 0;
#X connect 73 0 66 0;
#X connect 74 0 71 0;
#X connect 75 0 72 1;
#X connect 75 0 74 1;
#X connect 75 0 73 1;
#X coords 0 -1 1 1 120 55 1 50 10;
