#N canvas 474 116 869 646 10;
#X obj 71 338 snapshot~;
#X obj 71 315 phasor~ 1.2;
#X obj 49 56 bng 15 250 50 0 empty empty empty 17 7 0 10 -262144 -1
-1;
#X floatatom 71 383 5 0 0 0 - - -;
#X obj 71 361 * 6;
#X obj 71 428 +;
#X obj 216 339 snapshot~;
#X floatatom 216 452 5 0 0 0 - - -;
#X obj 216 362 * 4;
#X obj 216 385 + 3;
#X obj 216 407 i;
#X obj 216 430 * 12;
#X obj 71 451 mtof;
#X obj 71 474 phasor~;
#X floatatom 49 119 3 0 10 1 D - -;
#X msg 125 474 0;
#X obj 125 450 del 100;
#X floatatom 49 159 3 0 999 1 dec - -;
#X obj 297 494 pipe 390;
#X msg 356 518 0;
#X obj 356 494 del 100;
#X floatatom 49 229 5 0 999 1 delay - -;
#X obj 297 467 spigot;
#X obj 49 209 tgl 15 0 empty empty repeat 17 7 0 10 -262144 -1 -1 0
1;
#X obj 233 547 osc~;
#X obj 216 315 phasor~ 2;
#X floatatom 49 98 3 0 1 1 pha - -;
#X obj 72 568 lop~ 50;
#X floatatom 49 180 3 0 999 1 lpf - -;
#X obj 49 8 inlet;
#X floatatom 49 77 3 0 20 1 P1 - -;
#X floatatom 482 509 5 0 0 0 - - -;
#X obj 436 104 sel 0 1 2 3 4 5 6;
#X msg 516 217 0 2 4 7 9 12 14;
#X msg 554 262 0 3 5 7 10 12 15;
#X msg 436 127 0 2 3 5 7 8 11;
#X msg 478 172 0 2 4 5 7 9 11;
#X msg 591 307 0 2 4 6 8 10 12;
#X msg 628 352 0 2 3 5 6 8 9;
#X msg 665 397 0 1 5 7 8 12 13;
#X floatatom 49 139 2 0 6 1 scale - -;
#X obj 147 78 vsl 15 115 0.01 1 1 0 empty empty empty 0 -9 0 10 -262144
-1 -1 0 1;
#X obj 72 542 *~;
#X floatatom 99 119 3 0 10 1 D - -;
#X floatatom 99 139 2 0 20 1 tone - -;
#X floatatom 99 98 3 0 1 1 pha - -;
#X floatatom 99 77 3 0 20 1 P2 - -;
#X obj 233 570 *~;
#X obj 116 504 pack \$1 500;
#X obj 116 526 line~;
#X obj 273 547 pack \$1 500;
#X obj 273 569 line~;
#X floatatom 50 250 5 0 999 1 decay - -;
#X obj 147 213 vsl 15 50 0.01 1 1 0 empty empty empty 0 -9 0 10 -262144
-1 -1 0 1;
#X obj 71 616 outlet~;
#X floatatom 29 495 5 0 0 0 - - -;
#N canvas 0 50 450 250 (subpatch) 0;
#X array wtecno 7 float 3;
#A 0 0 2 4 6 8 10 12;
#X coords 0 16 7 -1 200 140 1 0 0;
#X restore 635 46 graph;
#X floatatom 99 160 3 1 10 1 off - -;
#X obj 436 531 array set wtecno;
#X obj 71 405 tabread wtecno;
#X connect 0 0 4 0;
#X connect 1 0 0 0;
#X connect 2 0 0 0;
#X connect 2 0 16 0;
#X connect 2 0 6 0;
#X connect 2 0 20 0;
#X connect 3 0 59 0;
#X connect 4 0 3 0;
#X connect 5 0 12 0;
#X connect 6 0 8 0;
#X connect 7 0 5 1;
#X connect 8 0 9 0;
#X connect 9 0 10 0;
#X connect 10 0 11 0;
#X connect 11 0 7 0;
#X connect 12 0 13 0;
#X connect 12 0 22 0;
#X connect 12 0 55 0;
#X connect 13 0 42 0;
#X connect 14 0 4 1;
#X connect 15 0 13 0;
#X connect 16 0 15 0;
#X connect 17 0 16 1;
#X connect 18 0 24 0;
#X connect 18 0 47 0;
#X connect 19 0 24 0;
#X connect 20 0 19 0;
#X connect 21 0 18 1;
#X connect 22 0 18 0;
#X connect 23 0 22 1;
#X connect 24 0 47 0;
#X connect 25 0 6 0;
#X connect 26 0 1 1;
#X connect 27 0 54 0;
#X connect 28 0 27 1;
#X connect 29 0 2 0;
#X connect 30 0 1 0;
#X connect 31 0 58 1;
#X connect 32 0 35 0;
#X connect 32 1 36 0;
#X connect 32 2 33 0;
#X connect 32 3 34 0;
#X connect 32 4 37 0;
#X connect 32 5 38 0;
#X connect 32 6 39 0;
#X connect 33 0 58 0;
#X connect 34 0 58 0;
#X connect 35 0 58 0;
#X connect 36 0 58 0;
#X connect 37 0 58 0;
#X connect 38 0 58 0;
#X connect 39 0 58 0;
#X connect 40 0 32 0;
#X connect 41 0 48 0;
#X connect 42 0 27 0;
#X connect 43 0 8 1;
#X connect 44 0 11 1;
#X connect 45 0 25 1;
#X connect 46 0 25 0;
#X connect 47 0 54 0;
#X connect 48 0 49 0;
#X connect 49 0 42 1;
#X connect 50 0 51 0;
#X connect 51 0 47 1;
#X connect 52 0 20 1;
#X connect 53 0 50 0;
#X connect 57 0 9 1;
#X connect 59 0 5 0;
#X coords 0 -1 1 1 132 245 1 40 30;
