#N canvas 369 164 692 454 10;
#X obj 64 23 inlet;
#X obj 64 181 expr if($f1==0||$f1<2 \, 0 \, if($f1==2||$f1<4 \, 2 \,
4)), f 24;
#X obj 64 60 % 7;
#X obj 102 230 expr if($f1==0||$f1<2 \, -2 \, if($f1==2||$f1<4 \, 0
\, 2)), f 24;
#X obj 140 281 expr if($f1==0||$f1<2 \, 2 \, if($f1==2||$f1<4 \, 4
\, 7)), f 24;
#X obj 179 331 expr if($f1==0||$f1<2 \, -4 \, if($f1==2||$f1<4 \, -2
\, 0)), f 24;
#X obj 64 83 t b f, f 8;
#X obj 64 106 i 0;
#X obj 64 129 pack 0 0;
#X obj 64 152 route 0 1 2 3, f 26;
#X obj 133 67 i \$1;
#X obj 133 90 clip 0 3;
#X obj 133 23 loadbang;
#X obj 64 373 outlet;
#X connect 0 0 2 0;
#X connect 1 0 13 0;
#X connect 2 0 6 0;
#X connect 3 0 13 0;
#X connect 4 0 13 0;
#X connect 5 0 13 0;
#X connect 6 0 7 0;
#X connect 6 1 8 1;
#X connect 7 0 8 0;
#X connect 8 0 9 0;
#X connect 9 0 1 0;
#X connect 9 1 3 0;
#X connect 9 2 4 0;
#X connect 9 3 5 0;
#X connect 10 0 11 0;
#X connect 11 0 7 1;
#X connect 12 0 10 0;
