#N canvas 299 243 450 485 10;
#X obj 149 38 tgl 15 0 empty empty empty 17 7 0 10 -262144 -1 -1 0
1;
#X obj 149 92 metro 1000;
#X floatatom 206 71 5 0 0 0 - - -;
#X obj 149 115 f;
#X obj 190 115 + 1;
#X obj 149 138 % 4;
#X obj 149 161 sel 0, f 7;
#X obj 149 266 osc~;
#X obj 238 272 vline~;
#X obj 149 289 *~;
#X obj 236 38 bng 15 250 50 0 empty empty rnd 17 7 0 10 -262144 -1
-1;
#X obj 281 163 * 2;
#X obj 149 185 bng 15 250 50 0 empty empty empty 17 7 0 10 -262144
-1 -1;
#X obj 188 185 bng 15 250 50 0 empty empty empty 17 7 0 10 -262144
-1 -1;
#X obj 149 205 f 100;
#X obj 188 205 f 200;
#X obj 170 38 hradio 15 1 0 4 empty empty empty 0 -8 0 10 -262144 -1
-1 1;
#X obj 149 312 outlet~;
#X obj 94 139 + 1;
#X floatatom 94 162 5 0 0 0 - - -;
#X obj 58 22 inlet;
#X obj 357 22 inlet;
#X obj 244 114 + 250;
#X obj 255 15 bng 15 250 50 0 empty empty empty 17 7 0 10 -262144 -4034
-1;
#X obj 385 54 - 1;
#X floatatom 219 13 5 0 0 0 - - -;
#X obj 356 100 sel 0;
#X obj 149 244 + 100;
#X obj 242 312 outlet;
#X obj 357 311 outlet;
#X obj 244 91 random 750;
#X msg 238 249 1 5 \, 0 60 5;
#X floatatom 357 78 5 0 0 0 - - -;
#X obj 324 164 / 2;
#X obj 324 187 i;
#X obj 281 140 random 800;
#X obj 357 54 f;
#X connect 0 0 1 0;
#X connect 1 0 3 0;
#X connect 1 0 31 0;
#X connect 1 0 23 0;
#X connect 1 0 28 0;
#X connect 1 0 36 0;
#X connect 2 0 1 1;
#X connect 3 0 4 0;
#X connect 3 0 5 0;
#X connect 4 0 3 1;
#X connect 5 0 6 0;
#X connect 6 0 12 0;
#X connect 6 1 13 0;
#X connect 7 0 9 0;
#X connect 8 0 9 1;
#X connect 9 0 17 0;
#X connect 10 0 30 0;
#X connect 10 0 35 0;
#X connect 11 0 15 1;
#X connect 12 0 14 0;
#X connect 13 0 15 0;
#X connect 14 0 27 0;
#X connect 15 0 27 0;
#X connect 16 0 18 0;
#X connect 18 0 19 0;
#X connect 19 0 5 1;
#X connect 20 0 0 0;
#X connect 21 0 10 0;
#X connect 22 0 2 0;
#X connect 24 0 36 1;
#X connect 26 0 0 0;
#X connect 26 0 29 0;
#X connect 27 0 7 0;
#X connect 30 0 22 0;
#X connect 31 0 8 0;
#X connect 32 0 26 0;
#X connect 32 0 25 0;
#X connect 33 0 34 0;
#X connect 34 0 36 1;
#X connect 35 0 11 0;
#X connect 35 0 14 1;
#X connect 35 0 33 0;
#X connect 36 0 24 0;
#X connect 36 0 32 0;
#X coords 0 -1 1 1 135 55 1 140 5;
