#N canvas 201 247 450 422 10;
#X obj 80 124 clip~ -1 1;
#X obj 240 74 osc~ \$1;
#X obj 31 25 inlet~;
#X obj 240 25 inlet;
#X obj 31 306 outlet~;
#X obj 240 51 clip 0 20;
#X obj 31 259 *~;
#X obj 80 259 *~;
#X obj 46 217 f \$2;
#X obj 116 233 expr 1-$f1;
#X obj 46 171 loadbang;
#X obj 46 194 clip 0 1;
#X obj 80 99 expr~ atan($v1*(($v2+1)/2));
#X connect 0 0 7 0;
#X connect 1 0 12 1;
#X connect 2 0 6 0;
#X connect 2 0 12 0;
#X connect 3 0 5 0;
#X connect 5 0 1 0;
#X connect 6 0 4 0;
#X connect 7 0 4 0;
#X connect 8 0 9 0;
#X connect 8 0 6 1;
#X connect 9 0 7 1;
#X connect 10 0 11 0;
#X connect 11 0 8 0;
#X connect 12 0 0 0;
