#N canvas 138 212 450 512 10;
#X obj 49 23 inlet~;
#X obj 49 218 delwrite~ tr1 \$1;
#X obj 87 321 delread~ tr1;
#X obj 87 344 *~ \$2;
#X obj 86 437 outlet~;
#X obj 87 251 loadbang;
#X obj 87 274 f \$1;
#X obj 87 297 / 2;
#X msg 180 322 1 10;
#X msg 221 322 0 10;
#X obj 180 283 t b b;
#X obj 180 354 line~;
#X obj 87 370 *~;
#X obj 221 299 del \$3;
#X obj 180 23 inlet;
#X obj 49 191 *~;
#X obj 87 83 t b b;
#X obj 87 174 line~;
#X obj 128 99 del \$3;
#X msg 128 142 1 10;
#X obj 87 120 pack 0 \$1;
#X connect 0 0 15 0;
#X connect 2 0 3 0;
#X connect 3 0 1 0;
#X connect 3 0 12 0;
#X connect 5 0 6 0;
#X connect 6 0 7 0;
#X connect 7 0 2 0;
#X connect 8 0 11 0;
#X connect 9 0 11 0;
#X connect 10 0 8 0;
#X connect 10 1 13 0;
#X connect 11 0 12 1;
#X connect 12 0 4 0;
#X connect 13 0 9 0;
#X connect 14 0 10 0;
#X connect 14 0 16 0;
#X connect 15 0 1 0;
#X connect 16 0 20 0;
#X connect 16 1 18 0;
#X connect 17 0 15 1;
#X connect 18 0 19 0;
#X connect 19 0 17 0;
#X connect 20 0 17 0;
