#N canvas 694 198 613 515 10;
#X obj 329 296 sqrt;
#X obj 43 428 *~;
#X obj 179 367 line~;
#X obj 179 389 *~;
#X obj 179 411 *~;
#X msg 179 345 0 \$1;
#X obj 329 318 sqrt;
#X obj 329 251 float \$1;
#X obj 179 235 t b b;
#X obj 44 98 bng 15 250 50 0 empty empty empty 0 -6 0 8 -262144 -1
-1;
#X obj 329 274 * 0.1;
#X obj 44 332 + \$4;
#X obj 179 279 float \$2;
#X obj 179 323 *;
#X text 205 324 actual duration;
#X obj 44 268 float \$3;
#X obj 44 310 *;
#X obj 44 354 osc~;
#X text 78 335 plus detune;
#X text 61 240 relative;
#X text 73 252 frequency;
#X text 77 308 times global;
#X text 94 321 frequency;
#X text 329 232 ATTACK;
#X text 224 257 DECAY;
#X text 244 273 relative;
#X text 258 285 duration;
#X text 210 393 quartic amplitude;
#X text 228 406 curve;
#X text 204 166 \$1 amplitude \; \$2 relative duration \; \$3 relative
frequency \; \$4 detune;
#X obj 43 469 outlet~;
#X obj 87 12 inlet;
#X obj 131 12 inlet;
#X obj 175 12 inlet;
#X obj 220 12 inlet;
#X obj 265 12 inlet;
#X obj 309 12 inlet;
#X floatatom 66 97 5 0 0 0 - - -;
#X floatatom 66 120 5 0 0 0 - - -;
#X obj 104 99 vsl 15 35 0 2 0 0 empty empty empty 0 -9 0 10 -262144
-1 -1 2000 1;
#X obj 143 99 vsl 15 35 0 1 0 0 empty empty empty 0 -9 0 10 -262144
-1 -1 3400 1;
#X obj 163 99 vsl 15 35 0 5 0 0 empty empty empty 0 -9 0 10 -262144
-1 -1 1800 1;
#X obj 183 99 vsl 15 35 0 20 0 0 empty empty empty 0 -9 0 10 -262144
-1 -1 0 1;
#X obj 59 171 mtof;
#X msg 329 351 \$1 20;
#X obj 179 257 del 20;
#X obj 55 49 t b f;
#X obj 44 377 expr~ $v1>$f2;
#X obj 124 99 vsl 15 35 0.1 0.99 0 0 empty empty empty 0 -9 0 10 -262144
-1 -1 1800 1;
#X obj 353 13 inlet;
#X obj 163 183 i;
#X connect 0 0 6 0;
#X connect 1 0 30 0;
#X connect 2 0 3 0;
#X connect 2 0 3 1;
#X connect 3 0 4 0;
#X connect 3 0 4 1;
#X connect 4 0 1 1;
#X connect 5 0 2 0;
#X connect 6 0 44 0;
#X connect 7 0 10 0;
#X connect 8 0 45 0;
#X connect 8 1 7 0;
#X connect 9 0 8 0;
#X connect 9 0 15 0;
#X connect 10 0 0 0;
#X connect 11 0 17 0;
#X connect 12 0 13 0;
#X connect 13 0 5 0;
#X connect 15 0 16 0;
#X connect 16 0 11 0;
#X connect 17 0 47 0;
#X connect 31 0 46 0;
#X connect 32 0 38 0;
#X connect 33 0 39 0;
#X connect 34 0 48 0;
#X connect 35 0 40 0;
#X connect 36 0 41 0;
#X connect 37 0 43 0;
#X connect 38 0 13 1;
#X connect 39 0 7 1;
#X connect 40 0 12 1;
#X connect 41 0 50 0;
#X connect 42 0 11 1;
#X connect 43 0 16 1;
#X connect 44 0 2 0;
#X connect 45 0 12 0;
#X connect 46 0 9 0;
#X connect 46 1 37 0;
#X connect 47 0 1 0;
#X connect 48 0 47 1;
#X connect 49 0 42 0;
#X connect 50 0 15 1;
#X coords 0 -1 1 1 170 70 1 37 75;
