#N canvas 877 335 450 300 10;
#X obj 42 139 f;
#X obj 42 162 mtof;
#X obj 42 185 osc~;
#X obj 42 224 *~;
#X obj 77 185 vline~;
#X obj 42 34 inlet;
#X obj 42 116 t f b;
#X obj 41 273 outlet~;
#X msg 77 162 1 15 \, 0 \$1 15;
#X obj 98 86 r dur;
#X obj 145 86 r dec;
#X obj 77 139 f \$2;
#X obj 76 208 pow~ \$3, f 12;
#X connect 0 0 1 0;
#X connect 1 0 2 0;
#X connect 2 0 3 0;
#X connect 3 0 7 0;
#X connect 4 0 12 0;
#X connect 5 0 6 0;
#X connect 6 0 0 0;
#X connect 6 1 11 0;
#X connect 8 0 4 0;
#X connect 9 0 11 1;
#X connect 10 0 12 1;
#X connect 11 0 8 0;
#X connect 12 0 3 1;
