#N canvas 0 116 1366 652 10;
#X obj 128 166 tgl 15 0 empty empty empty 17 7 0 10 -262144 -1 -1 0
1;
#X obj 146 448 unpack;
#X msg 95 379 0 0;
#X obj 95 271 spigot;
#X obj 145 166 tgl 15 0 empty empty empty 17 7 0 10 -262144 -1 -1 0
1;
#X obj 112 292 spigot;
#X msg 112 358 1 0;
#X obj 162 166 tgl 15 0 empty empty empty 17 7 0 10 -262144 -1 -1 0
1;
#X obj 129 314 spigot;
#X msg 129 337 2 0;
#X obj 179 166 tgl 15 0 empty empty empty 17 7 0 10 -262144 -1 -1 0
1;
#X obj 146 271 spigot;
#X obj 196 166 tgl 15 0 empty empty empty 17 7 0 10 -262144 -1 -1 0
1;
#X obj 163 292 spigot;
#X obj 213 166 tgl 15 0 empty empty empty 17 7 0 10 -262144 -1 -1 0
1;
#X obj 180 314 spigot;
#X msg 146 379 3 0;
#X msg 163 358 4 0;
#X msg 180 337 5 0;
#X obj 230 166 tgl 15 0 empty empty empty 17 7 0 10 -262144 -1 -1 0
1;
#X obj 197 271 spigot;
#X msg 197 379 6 0;
#X obj 128 149 tgl 15 0 empty empty empty 17 7 0 10 -262144 -1 -1 0
1;
#X obj 296 448 unpack;
#X obj 245 271 spigot;
#X obj 145 149 tgl 15 0 empty empty empty 17 7 0 10 -262144 -1 -1 0
1;
#X obj 262 292 spigot;
#X obj 162 149 tgl 15 0 empty empty empty 17 7 0 10 -262144 -1 -1 0
1;
#X obj 279 314 spigot;
#X obj 179 149 tgl 15 0 empty empty empty 17 7 0 10 -262144 -1 -1 0
1;
#X obj 296 271 spigot;
#X obj 196 149 tgl 15 0 empty empty empty 17 7 0 10 -262144 -1 -1 0
1;
#X obj 313 292 spigot;
#X obj 213 149 tgl 15 0 empty empty empty 17 7 0 10 -262144 -1 -1 0
1;
#X obj 330 314 spigot;
#X obj 230 149 tgl 15 0 empty empty empty 17 7 0 10 -262144 -1 -1 0
1;
#X obj 347 271 spigot;
#X msg 279 337 2 1;
#X msg 262 358 1 1;
#X msg 245 379 0 1;
#X msg 330 337 5 1;
#X msg 313 358 4 1;
#X msg 296 379 3 1;
#X msg 347 379 6 1;
#X obj 128 132 tgl 15 0 empty empty empty 17 7 0 10 -262144 -1 -1 0
1;
#X obj 446 448 unpack;
#X obj 395 271 spigot;
#X obj 145 132 tgl 15 0 empty empty empty 17 7 0 10 -262144 -1 -1 1
1;
#X obj 412 292 spigot;
#X obj 162 132 tgl 15 0 empty empty empty 17 7 0 10 -262144 -1 -1 0
1;
#X obj 429 314 spigot;
#X obj 179 132 tgl 15 0 empty empty empty 17 7 0 10 -262144 -1 -1 0
1;
#X obj 446 271 spigot;
#X obj 196 132 tgl 15 0 empty empty empty 17 7 0 10 -262144 -1 -1 1
1;
#X obj 463 292 spigot;
#X obj 213 132 tgl 15 0 empty empty empty 17 7 0 10 -262144 -1 -1 0
1;
#X obj 480 314 spigot;
#X obj 230 132 tgl 15 0 empty empty empty 17 7 0 10 -262144 -1 -1 0
1;
#X obj 497 271 spigot;
#X msg 395 379 0 2;
#X msg 412 358 1 2;
#X msg 446 379 3 2;
#X msg 463 358 4 2;
#X msg 480 337 5 2;
#X msg 497 379 6 2;
#X msg 429 337 2 2;
#X obj 128 115 tgl 15 0 empty empty empty 17 7 0 10 -262144 -1 -1 0
1;
#X obj 596 448 unpack;
#X obj 545 271 spigot;
#X obj 145 115 tgl 15 0 empty empty empty 17 7 0 10 -262144 -1 -1 0
1;
#X obj 562 292 spigot;
#X obj 162 115 tgl 15 0 empty empty empty 17 7 0 10 -262144 -1 -1 0
1;
#X obj 579 314 spigot;
#X obj 179 115 tgl 15 0 empty empty empty 17 7 0 10 -262144 -1 -1 1
1;
#X obj 596 271 spigot;
#X obj 196 115 tgl 15 0 empty empty empty 17 7 0 10 -262144 -1 -1 0
1;
#X obj 613 292 spigot;
#X obj 213 115 tgl 15 0 empty empty empty 17 7 0 10 -262144 -1 -1 0
1;
#X obj 630 314 spigot;
#X obj 230 115 tgl 15 0 empty empty empty 17 7 0 10 -262144 -1 -1 0
1;
#X obj 647 271 spigot;
#X obj 128 98 tgl 15 0 empty empty empty 17 7 0 10 -262144 -1 -1 0
1;
#X obj 746 448 unpack;
#X obj 695 271 spigot;
#X obj 145 98 tgl 15 0 empty empty empty 17 7 0 10 -262144 -1 -1 0
1;
#X obj 712 292 spigot;
#X obj 162 98 tgl 15 0 empty empty empty 17 7 0 10 -262144 -1 -1 0
1;
#X obj 729 314 spigot;
#X obj 179 98 tgl 15 0 empty empty empty 17 7 0 10 -262144 -1 -1 0
1;
#X obj 746 271 spigot;
#X obj 196 98 tgl 15 0 empty empty empty 17 7 0 10 -262144 -1 -1 0
1;
#X obj 763 292 spigot;
#X obj 213 98 tgl 15 0 empty empty empty 17 7 0 10 -262144 -1 -1 1
1;
#X obj 780 314 spigot;
#X obj 230 98 tgl 15 0 empty empty empty 17 7 0 10 -262144 -1 -1 0
1;
#X obj 797 271 spigot;
#X obj 128 81 tgl 15 0 empty empty empty 17 7 0 10 -262144 -1 -1 0
1;
#X obj 896 448 unpack;
#X obj 845 271 spigot;
#X obj 145 81 tgl 15 0 empty empty empty 17 7 0 10 -262144 -1 -1 0
1;
#X obj 862 292 spigot;
#X obj 162 81 tgl 15 0 empty empty empty 17 7 0 10 -262144 -1 -1 0
1;
#X obj 879 314 spigot;
#X obj 179 81 tgl 15 0 empty empty empty 17 7 0 10 -262144 -1 -1 1
1;
#X obj 896 271 spigot;
#X obj 196 81 tgl 15 0 empty empty empty 17 7 0 10 -262144 -1 -1 0
1;
#X obj 913 292 spigot;
#X obj 213 81 tgl 15 0 empty empty empty 17 7 0 10 -262144 -1 -1 1
1;
#X obj 930 314 spigot;
#X obj 230 81 tgl 15 0 empty empty empty 17 7 0 10 -262144 -1 -1 0
1;
#X obj 947 271 spigot;
#X msg 545 379 0 3;
#X msg 562 358 1 3;
#X msg 579 337 2 3;
#X msg 596 379 3 3;
#X msg 613 358 4 3;
#X msg 630 337 5 3;
#X msg 647 379 6 3;
#X msg 695 379 0 4;
#X msg 712 358 1 4;
#X msg 729 337 2 4;
#X msg 746 379 3 4;
#X msg 763 358 4 4;
#X msg 780 337 5 4;
#X msg 797 379 6 4;
#X msg 845 379 0 5;
#X msg 862 358 1 5;
#X msg 879 337 2 5;
#X msg 896 379 3 5;
#X msg 913 358 4 5;
#X msg 930 337 5 5;
#X msg 947 379 6 5;
#X obj 128 64 tgl 15 0 empty empty empty 17 7 0 10 -262144 -1 -1 0
1;
#X obj 1046 448 unpack;
#X obj 995 271 spigot;
#X obj 145 64 tgl 15 0 empty empty empty 17 7 0 10 -262144 -1 -1 1
1;
#X obj 1012 292 spigot;
#X obj 162 64 tgl 15 0 empty empty empty 17 7 0 10 -262144 -1 -1 0
1;
#X obj 1029 314 spigot;
#X obj 179 64 tgl 15 0 empty empty empty 17 7 0 10 -262144 -1 -1 0
1;
#X obj 1046 271 spigot;
#X obj 196 64 tgl 15 0 empty empty empty 17 7 0 10 -262144 -1 -1 0
1;
#X obj 1063 292 spigot;
#X obj 213 64 tgl 15 0 empty empty empty 17 7 0 10 -262144 -1 -1 0
1;
#X obj 1080 314 spigot;
#X obj 230 64 tgl 15 0 empty empty empty 17 7 0 10 -262144 -1 -1 0
1;
#X obj 1097 271 spigot;
#X msg 995 379 0 6;
#X msg 1012 358 1 6;
#X msg 1029 337 2 6;
#X msg 1046 379 3 6;
#X msg 1063 358 4 6;
#X msg 1080 337 5 6;
#X msg 1097 379 6 6;
#X obj 127 45 hradio 17 1 1 7 empty empty empty 0 -8 0 10 -1 -262144
-1 3;
#X obj 1175 101 f 0;
#X obj 1200 101 + 1;
#X obj 1175 124 t f f, f 8;
#X obj 1175 168 f 0;
#X obj 1200 168 + 1;
#X obj 1225 168 % 4;
#X obj 1195 51 r sync;
#X msg 1195 74 0;
#X obj 1160 224 pack 0 0, f 15;
#X obj 1160 247 route 0 1 2 3, f 27;
#X obj 1160 196 i 0;
#X obj 1220 195 t b f;
#X obj 127 183 hradio 17 1 0 7 empty empty empty 0 -8 0 10 -1 -262144
-1 0;
#X obj 109 63 vradio 17 1 0 7 empty empty empty 0 -8 0 10 -1 -262144
-1 0;
#X obj 247 63 vradio 17 1 0 7 empty empty empty 0 -8 0 10 -1 -262144
-1 6;
#X obj 1239 269 expr 6-$f1;
#X obj 1279 291 expr 6-$f1;
#X obj 1175 16 inlet;
#X obj 1254 578 outlet;
#X obj 29 244 expr 6-$f1;
#X obj 1225 101 % 7;
#X obj 1175 146 sel 6;
#X obj 146 471 s c0;
#X obj 179 471 s r0;
#X obj 296 471 s c1;
#X obj 329 471 s r1;
#X obj 446 471 s c2;
#X obj 479 471 s r2;
#X obj 596 471 s c3;
#X obj 629 471 s r3;
#X obj 746 471 s c4;
#X obj 779 471 s r4;
#X obj 896 471 s c5;
#X obj 929 471 s r5;
#X obj 1046 471 s c6;
#X obj 1079 471 s r6;
#X obj 127 10 r t1;
#X obj 247 10 r t2;
#X obj 28 47 r t4;
#X obj 29 167 r t3;
#X obj 1160 270 s t1;
#X obj 1199 269 s t2;
#X obj 1239 313 s t3;
#X obj 1279 313 s t4;
#X obj 1164 380 r c0;
#X obj 1254 380 r r0;
#X obj 1174 400 r c1;
#X obj 1264 400 r r1;
#X obj 1184 420 r c2;
#X obj 1274 420 r r2;
#X obj 1194 440 r c3;
#X obj 1284 440 r r3;
#X obj 1204 460 r c4;
#X obj 1294 460 r r4;
#X obj 1214 480 r c5;
#X obj 1304 480 r r5;
#X obj 1224 500 r c6;
#X obj 1314 500 r r6;
#X floatatom 499 60 5 0 0 0 - - -;
#X obj 499 82 sel 0 1 2 3 4 5 6, f 65;
#X floatatom 29 267 5 0 0 0 - - -;
#X obj 29 604 sel 0 1 2 3 4 5 6;
#X obj 1164 535 t f b;
#X obj 1164 578 outlet;
#X obj 1315 551 outlet;
#X connect 0 0 3 1;
#X connect 1 0 177 0;
#X connect 1 1 178 0;
#X connect 2 0 1 0;
#X connect 3 0 2 0;
#X connect 4 0 5 1;
#X connect 5 0 6 0;
#X connect 6 0 1 0;
#X connect 7 0 8 1;
#X connect 8 0 9 0;
#X connect 9 0 1 0;
#X connect 10 0 11 1;
#X connect 11 0 16 0;
#X connect 12 0 13 1;
#X connect 13 0 17 0;
#X connect 14 0 15 1;
#X connect 15 0 18 0;
#X connect 16 0 1 0;
#X connect 17 0 1 0;
#X connect 18 0 1 0;
#X connect 19 0 20 1;
#X connect 20 0 21 0;
#X connect 21 0 1 0;
#X connect 22 0 24 1;
#X connect 23 0 179 0;
#X connect 23 1 180 0;
#X connect 24 0 39 0;
#X connect 25 0 26 1;
#X connect 26 0 38 0;
#X connect 27 0 28 1;
#X connect 28 0 37 0;
#X connect 29 0 30 1;
#X connect 30 0 42 0;
#X connect 31 0 32 1;
#X connect 32 0 41 0;
#X connect 33 0 34 1;
#X connect 34 0 40 0;
#X connect 35 0 36 1;
#X connect 36 0 43 0;
#X connect 37 0 23 0;
#X connect 38 0 23 0;
#X connect 39 0 23 0;
#X connect 40 0 23 0;
#X connect 41 0 23 0;
#X connect 42 0 23 0;
#X connect 43 0 23 0;
#X connect 44 0 46 1;
#X connect 45 0 181 0;
#X connect 45 1 182 0;
#X connect 46 0 59 0;
#X connect 47 0 48 1;
#X connect 48 0 60 0;
#X connect 49 0 50 1;
#X connect 50 0 65 0;
#X connect 51 0 52 1;
#X connect 52 0 61 0;
#X connect 53 0 54 1;
#X connect 54 0 62 0;
#X connect 55 0 56 1;
#X connect 56 0 63 0;
#X connect 57 0 58 1;
#X connect 58 0 64 0;
#X connect 59 0 45 0;
#X connect 60 0 45 0;
#X connect 61 0 45 0;
#X connect 62 0 45 0;
#X connect 63 0 45 0;
#X connect 64 0 45 0;
#X connect 65 0 45 0;
#X connect 66 0 68 1;
#X connect 67 0 183 0;
#X connect 67 1 184 0;
#X connect 68 0 111 0;
#X connect 69 0 70 1;
#X connect 70 0 112 0;
#X connect 71 0 72 1;
#X connect 72 0 113 0;
#X connect 73 0 74 1;
#X connect 74 0 114 0;
#X connect 75 0 76 1;
#X connect 76 0 115 0;
#X connect 77 0 78 1;
#X connect 78 0 116 0;
#X connect 79 0 80 1;
#X connect 80 0 117 0;
#X connect 81 0 83 1;
#X connect 82 0 185 0;
#X connect 82 1 186 0;
#X connect 83 0 118 0;
#X connect 84 0 85 1;
#X connect 85 0 119 0;
#X connect 86 0 87 1;
#X connect 87 0 120 0;
#X connect 88 0 89 1;
#X connect 89 0 121 0;
#X connect 90 0 91 1;
#X connect 91 0 122 0;
#X connect 92 0 93 1;
#X connect 93 0 123 0;
#X connect 94 0 95 1;
#X connect 95 0 124 0;
#X connect 96 0 98 1;
#X connect 97 0 187 0;
#X connect 97 1 188 0;
#X connect 98 0 125 0;
#X connect 99 0 100 1;
#X connect 100 0 126 0;
#X connect 101 0 102 1;
#X connect 102 0 127 0;
#X connect 103 0 104 1;
#X connect 104 0 128 0;
#X connect 105 0 106 1;
#X connect 106 0 129 0;
#X connect 107 0 108 1;
#X connect 108 0 130 0;
#X connect 109 0 110 1;
#X connect 110 0 131 0;
#X connect 111 0 67 0;
#X connect 112 0 67 0;
#X connect 113 0 67 0;
#X connect 114 0 67 0;
#X connect 115 0 67 0;
#X connect 116 0 67 0;
#X connect 117 0 67 0;
#X connect 118 0 82 0;
#X connect 119 0 82 0;
#X connect 120 0 82 0;
#X connect 121 0 82 0;
#X connect 122 0 82 0;
#X connect 123 0 82 0;
#X connect 124 0 82 0;
#X connect 125 0 97 0;
#X connect 126 0 97 0;
#X connect 127 0 97 0;
#X connect 128 0 97 0;
#X connect 129 0 97 0;
#X connect 130 0 97 0;
#X connect 131 0 97 0;
#X connect 132 0 134 1;
#X connect 133 0 189 0;
#X connect 133 1 190 0;
#X connect 134 0 147 0;
#X connect 135 0 136 1;
#X connect 136 0 148 0;
#X connect 137 0 138 1;
#X connect 138 0 149 0;
#X connect 139 0 140 1;
#X connect 140 0 150 0;
#X connect 141 0 142 1;
#X connect 142 0 151 0;
#X connect 143 0 144 1;
#X connect 144 0 152 0;
#X connect 145 0 146 1;
#X connect 146 0 153 0;
#X connect 147 0 133 0;
#X connect 148 0 133 0;
#X connect 149 0 133 0;
#X connect 150 0 133 0;
#X connect 151 0 133 0;
#X connect 152 0 133 0;
#X connect 153 0 133 0;
#X connect 154 0 213 0;
#X connect 155 0 156 0;
#X connect 155 0 157 0;
#X connect 156 0 175 0;
#X connect 157 0 176 0;
#X connect 157 1 166 0;
#X connect 158 0 159 0;
#X connect 158 0 165 1;
#X connect 159 0 160 0;
#X connect 160 0 158 1;
#X connect 161 0 162 0;
#X connect 162 0 155 0;
#X connect 162 0 158 0;
#X connect 163 0 164 0;
#X connect 164 0 195 0;
#X connect 164 1 196 0;
#X connect 164 2 170 0;
#X connect 164 3 171 0;
#X connect 165 0 163 0;
#X connect 166 0 165 0;
#X connect 166 1 163 1;
#X connect 167 0 213 0;
#X connect 168 0 174 0;
#X connect 169 0 174 0;
#X connect 170 0 197 0;
#X connect 171 0 198 0;
#X connect 172 0 155 0;
#X connect 174 0 215 0;
#X connect 175 0 155 1;
#X connect 176 0 158 0;
#X connect 191 0 154 0;
#X connect 192 0 169 0;
#X connect 193 0 168 0;
#X connect 194 0 167 0;
#X connect 199 0 217 0;
#X connect 200 0 173 0;
#X connect 201 0 217 0;
#X connect 202 0 173 0;
#X connect 203 0 217 0;
#X connect 204 0 173 0;
#X connect 205 0 217 0;
#X connect 206 0 173 0;
#X connect 207 0 217 0;
#X connect 208 0 173 0;
#X connect 209 0 217 0;
#X connect 210 0 173 0;
#X connect 211 0 217 0;
#X connect 212 0 173 0;
#X connect 213 0 214 0;
#X connect 214 0 3 0;
#X connect 214 0 24 0;
#X connect 214 0 46 0;
#X connect 214 0 68 0;
#X connect 214 0 83 0;
#X connect 214 0 98 0;
#X connect 214 0 134 0;
#X connect 214 1 5 0;
#X connect 214 1 136 0;
#X connect 214 1 100 0;
#X connect 214 1 85 0;
#X connect 214 1 70 0;
#X connect 214 1 48 0;
#X connect 214 1 26 0;
#X connect 214 2 8 0;
#X connect 214 2 138 0;
#X connect 214 2 102 0;
#X connect 214 2 87 0;
#X connect 214 2 72 0;
#X connect 214 2 50 0;
#X connect 214 2 28 0;
#X connect 214 3 11 0;
#X connect 214 3 140 0;
#X connect 214 3 104 0;
#X connect 214 3 89 0;
#X connect 214 3 74 0;
#X connect 214 3 52 0;
#X connect 214 3 30 0;
#X connect 214 4 13 0;
#X connect 214 4 142 0;
#X connect 214 4 106 0;
#X connect 214 4 91 0;
#X connect 214 4 76 0;
#X connect 214 4 54 0;
#X connect 214 4 32 0;
#X connect 214 5 15 0;
#X connect 214 5 144 0;
#X connect 214 5 108 0;
#X connect 214 5 93 0;
#X connect 214 5 78 0;
#X connect 214 5 56 0;
#X connect 214 5 34 0;
#X connect 214 6 146 0;
#X connect 214 6 110 0;
#X connect 214 6 95 0;
#X connect 214 6 80 0;
#X connect 214 6 58 0;
#X connect 214 6 36 0;
#X connect 214 6 20 0;
#X connect 215 0 216 0;
#X connect 216 0 3 0;
#X connect 216 0 11 0;
#X connect 216 0 20 0;
#X connect 216 0 5 0;
#X connect 216 0 13 0;
#X connect 216 0 8 0;
#X connect 216 0 15 0;
#X connect 216 1 24 0;
#X connect 216 1 36 0;
#X connect 216 1 34 0;
#X connect 216 1 32 0;
#X connect 216 1 30 0;
#X connect 216 1 28 0;
#X connect 216 1 26 0;
#X connect 216 2 46 0;
#X connect 216 2 58 0;
#X connect 216 2 56 0;
#X connect 216 2 54 0;
#X connect 216 2 52 0;
#X connect 216 2 50 0;
#X connect 216 2 48 0;
#X connect 216 3 68 0;
#X connect 216 3 80 0;
#X connect 216 3 78 0;
#X connect 216 3 76 0;
#X connect 216 3 74 0;
#X connect 216 3 72 0;
#X connect 216 3 70 0;
#X connect 216 4 83 0;
#X connect 216 4 95 0;
#X connect 216 4 93 0;
#X connect 216 4 91 0;
#X connect 216 4 89 0;
#X connect 216 4 87 0;
#X connect 216 4 85 0;
#X connect 216 5 98 0;
#X connect 216 5 110 0;
#X connect 216 5 108 0;
#X connect 216 5 106 0;
#X connect 216 5 104 0;
#X connect 216 5 102 0;
#X connect 216 5 100 0;
#X connect 216 6 134 0;
#X connect 216 6 144 0;
#X connect 216 6 142 0;
#X connect 216 6 140 0;
#X connect 216 6 138 0;
#X connect 216 6 136 0;
#X connect 216 6 146 0;
#X connect 217 0 218 0;
#X connect 217 1 219 0;
#X coords 0 -1 1 1 165 165 2 104 40;
