#N canvas 893 162 467 284 10;
#X obj 61 193 f 0;
#X obj 88 193 + 2;
#X obj 115 193 % 6;
#X obj 61 73 t b b;
#X obj 103 113 sel 0 1 2 3, f 22;
#X msg 135 136 -2;
#X msg 167 136 1;
#X msg 199 136 -1;
#X msg 232 136 2;
#X obj 103 89 random 8;
#X msg 103 136 0;
#X obj 61 25 inlet;
#X obj 61 244 outlet;
#X obj 103 25 inlet;
#X msg 103 48 seed \$1;
#X connect 0 0 1 0;
#X connect 0 0 12 0;
#X connect 1 0 2 0;
#X connect 2 0 0 1;
#X connect 3 0 0 0;
#X connect 3 1 9 0;
#X connect 4 0 10 0;
#X connect 4 1 5 0;
#X connect 4 2 6 0;
#X connect 4 3 7 0;
#X connect 4 4 8 0;
#X connect 5 0 1 1;
#X connect 6 0 1 1;
#X connect 7 0 1 1;
#X connect 8 0 1 1;
#X connect 9 0 4 0;
#X connect 10 0 1 1;
#X connect 11 0 3 0;
#X connect 13 0 14 0;
#X connect 14 0 9 0;
