#N canvas 0 116 1366 652 10;
#X obj 113 380 line;
#X obj 113 354 pack 0 0;
#X obj 159 331 f 1000;
#X obj 113 305 t b b b, f 16;
#X obj 206 364 pack 0 0;
#X obj 113 403 i 0;
#X obj 113 426 change -1;
#X obj 901 173 line~;
#X obj 901 547 *~;
#X obj 901 384 *~;
#X obj 1026 231 noise~;
#X obj 991 344 hip~ 8000;
#X obj 991 162 *~ 2;
#X obj 991 185 -~ 1;
#X obj 1066 162 *~ 2;
#X obj 1066 191 -~ 1;
#X obj 991 100 t f f;
#X obj 1066 116 + 50;
#X obj 901 430 clip~ -1 1;
#X obj 901 407 *~ 4;
#X obj 991 208 +~;
#X obj 990 232 /~ 4;
#X obj 991 76 * 20;
#X obj 901 587 outlet~;
#X msg 917 500 \$1 100;
#X obj 917 523 line~;
#X obj 1007 438 random 100;
#X obj 922 315 random 8;
#X obj 901 361 pow~;
#X obj 991 367 hip~ 7000;
#X obj 1027 314 /~;
#X obj 1084 275 random 4;
#X obj 1084 298 + 2;
#X obj 991 52 + 10;
#X obj 1031 35 random 40;
#X obj 1066 139 phasor~;
#X obj 991 139 phasor~;
#X obj 1031 11 r \$0-b;
#X obj 922 291 r \$0-b;
#X obj 1084 252 r \$0-b;
#X obj 1007 414 r \$0-b;
#X obj 1007 461 / 200;
#X obj 1007 484 + 0.5;
#X obj 1144 305 random 4;
#X obj 1144 282 r \$0-b;
#X obj 1144 328 * 500;
#X obj 1144 351 + 4000;
#X msg 901 150 1 \, 0 100;
#X obj 901 15 t b b;
#X obj 928 61 sel 0;
#X msg 928 84 0;
#X msg 955 84 1;
#X obj 901 118 spigot;
#X obj 928 38 random 8;
#X obj 922 338 + 2;
#X obj 363 170 line~;
#X obj 363 193 sqrt~;
#X obj 364 430 lop~ 1000;
#X obj 363 408 cos~;
#X obj 363 216 sqrt~;
#X obj 417 408 * 100;
#X obj 583 80 t b b;
#X obj 583 236 *~;
#X obj 583 259 +~;
#X obj 583 430 lop~ 4000;
#X obj 583 547 *~;
#X obj 634 408 * 100;
#X obj 703 242 *~;
#X obj 783 162 noise~;
#X obj 363 587 outlet~;
#X msg 599 500 \$1 100;
#X obj 599 523 line~;
#X obj 363 386 -~;
#X obj 499 392 / 10;
#X obj 499 369 random 11;
#X obj 634 363 random 41;
#X obj 634 386 / 10;
#X obj 410 347 random 21;
#X obj 410 370 / 20;
#X obj 406 271 + 10;
#X obj 363 287 *~;
#X obj 840 161 / 10;
#X obj 840 136 random 20;
#X obj 667 173 + 10;
#X obj 667 219 osc~;
#X msg 363 147 0 \, 1 150;
#X obj 363 239 sqrt~;
#X obj 406 248 random 90;
#X obj 667 137 random 60;
#X obj 406 225 r \$0-b;
#X obj 410 324 r \$0-b;
#X obj 499 345 r \$0-b;
#X obj 667 113 r \$0-b;
#X obj 840 113 r \$0-b;
#X obj 634 340 r \$0-b;
#X obj 113 331 f \$1;
#X obj 113 159 t b b;
#X obj 200 175 + 1;
#X obj 173 199 sel 0;
#X msg 173 246 seed \$1;
#X obj 173 222 f, f 8;
#X obj 113 15 inlet;
#X obj 191 15 inlet;
#X obj 227 175 % \$1;
#X obj 173 175 f 0;
#X obj 188 129 r sync;
#X msg 188 152 0;
#X obj 191 95 t b f;
#X obj 139 112 s \$0-b;
#X obj 583 587 outlet~;
#X obj 363 16 t b b;
#X obj 390 62 sel 0;
#X obj 363 119 spigot;
#X msg 390 85 1;
#X msg 417 85 0;
#X obj 390 39 random 4;
#X obj 113 449 t b b b, f 9;
#X obj 364 547 *~ 1;
#X obj 219 306 f \$2;
#X obj 219 329 * 1000;
#X obj 697 438 random 100;
#X obj 697 414 r \$0-b;
#X obj 697 461 / 200;
#X obj 248 442 sel 0;
#X obj 289 343 f \$1;
#X obj 289 442 / 2;
#X obj 783 190 hip~ 1500;
#X obj 667 196 * 5;
#X obj 583 213 pow~ 2;
#X obj 783 226 bp~ 3500 1;
#X obj 703 209 pow~ 3;
#X obj 583 190 vline~;
#X obj 703 183 vline~;
#X obj 289 465 i 0;
#X msg 583 167 1 5 \, 0 150 5;
#X msg 703 160 1 5 \, 0 150 5;
#X obj 697 484 + 1;
#X connect 0 0 5 0;
#X connect 1 0 0 0;
#X connect 2 0 1 1;
#X connect 3 0 95 0;
#X connect 3 1 2 0;
#X connect 3 2 4 0;
#X connect 4 0 0 0;
#X connect 5 0 6 0;
#X connect 6 0 116 0;
#X connect 6 0 123 0;
#X connect 7 0 28 0;
#X connect 8 0 23 0;
#X connect 9 0 19 0;
#X connect 10 0 30 0;
#X connect 11 0 29 0;
#X connect 12 0 13 0;
#X connect 13 0 20 0;
#X connect 14 0 15 0;
#X connect 15 0 20 1;
#X connect 16 0 36 0;
#X connect 16 1 17 0;
#X connect 17 0 35 0;
#X connect 18 0 8 0;
#X connect 19 0 18 0;
#X connect 20 0 21 0;
#X connect 21 0 11 0;
#X connect 22 0 16 0;
#X connect 24 0 25 0;
#X connect 25 0 8 1;
#X connect 26 0 41 0;
#X connect 27 0 54 0;
#X connect 28 0 9 0;
#X connect 29 0 9 1;
#X connect 30 0 11 0;
#X connect 31 0 32 0;
#X connect 32 0 30 1;
#X connect 33 0 22 0;
#X connect 34 0 33 0;
#X connect 35 0 14 0;
#X connect 36 0 12 0;
#X connect 37 0 34 0;
#X connect 38 0 27 0;
#X connect 39 0 31 0;
#X connect 40 0 26 0;
#X connect 41 0 42 0;
#X connect 42 0 24 0;
#X connect 43 0 45 0;
#X connect 44 0 43 0;
#X connect 45 0 46 0;
#X connect 46 0 29 1;
#X connect 47 0 7 0;
#X connect 48 0 52 0;
#X connect 48 1 53 0;
#X connect 49 0 50 0;
#X connect 49 1 51 0;
#X connect 50 0 52 1;
#X connect 51 0 52 1;
#X connect 52 0 47 0;
#X connect 53 0 49 0;
#X connect 54 0 28 1;
#X connect 55 0 56 0;
#X connect 56 0 59 0;
#X connect 57 0 117 0;
#X connect 58 0 57 0;
#X connect 59 0 86 0;
#X connect 60 0 57 1;
#X connect 61 0 134 0;
#X connect 61 1 135 0;
#X connect 62 0 63 0;
#X connect 63 0 64 0;
#X connect 64 0 65 0;
#X connect 65 0 109 0;
#X connect 66 0 64 1;
#X connect 67 0 63 1;
#X connect 68 0 126 0;
#X connect 70 0 71 0;
#X connect 71 0 65 1;
#X connect 72 0 58 0;
#X connect 73 0 60 0;
#X connect 74 0 73 0;
#X connect 75 0 76 0;
#X connect 76 0 66 0;
#X connect 77 0 78 0;
#X connect 78 0 72 1;
#X connect 79 0 80 1;
#X connect 80 0 72 0;
#X connect 81 0 129 2;
#X connect 82 0 81 0;
#X connect 83 0 127 0;
#X connect 84 0 62 1;
#X connect 85 0 55 0;
#X connect 86 0 80 0;
#X connect 87 0 79 0;
#X connect 88 0 83 0;
#X connect 89 0 87 0;
#X connect 90 0 77 0;
#X connect 91 0 74 0;
#X connect 92 0 88 0;
#X connect 93 0 82 0;
#X connect 94 0 75 0;
#X connect 95 0 1 0;
#X connect 96 0 3 0;
#X connect 96 1 104 0;
#X connect 97 0 103 0;
#X connect 98 0 100 0;
#X connect 98 0 118 0;
#X connect 98 0 124 0;
#X connect 99 0 27 0;
#X connect 99 0 82 0;
#X connect 99 0 88 0;
#X connect 99 0 75 0;
#X connect 99 0 77 0;
#X connect 99 0 74 0;
#X connect 99 0 87 0;
#X connect 99 0 26 0;
#X connect 99 0 43 0;
#X connect 99 0 31 0;
#X connect 99 0 34 0;
#X connect 99 0 115 0;
#X connect 99 0 120 0;
#X connect 99 0 53 0;
#X connect 100 0 99 0;
#X connect 101 0 96 0;
#X connect 102 0 107 0;
#X connect 103 0 104 1;
#X connect 104 0 97 0;
#X connect 104 0 98 0;
#X connect 105 0 106 0;
#X connect 106 0 104 1;
#X connect 107 0 108 0;
#X connect 107 1 100 1;
#X connect 110 0 112 0;
#X connect 110 1 115 0;
#X connect 111 0 113 0;
#X connect 111 1 114 0;
#X connect 112 0 85 0;
#X connect 113 0 112 1;
#X connect 114 0 112 1;
#X connect 115 0 111 0;
#X connect 116 0 110 0;
#X connect 116 2 48 0;
#X connect 117 0 69 0;
#X connect 118 0 119 0;
#X connect 119 0 2 1;
#X connect 120 0 122 0;
#X connect 121 0 120 0;
#X connect 122 0 136 0;
#X connect 123 0 61 0;
#X connect 124 0 125 0;
#X connect 125 0 133 0;
#X connect 126 0 129 0;
#X connect 127 0 84 0;
#X connect 128 0 62 0;
#X connect 129 0 67 1;
#X connect 130 0 67 0;
#X connect 131 0 128 0;
#X connect 132 0 130 0;
#X connect 133 0 123 1;
#X connect 134 0 131 0;
#X connect 135 0 132 0;
#X connect 136 0 70 0;
