#N canvas 231 255 711 300 10;
#X obj 152 31 inlet;
#X obj 152 104 % 4;
#X msg 209 127 0 1 2 5;
#X msg 263 127 0 1 3 5;
#X msg 318 127 0 1 4 5;
#X msg 372 127 0 2 3 5;
#X msg 427 127 0 2 4 5;
#X msg 481 127 0 3 4 5;
#X obj 209 103 sel 0 1 2 3 4 5, f 55;
#X obj 209 31 inlet;
#X obj 209 80 clip 0 5;
#X msg 152 177 get \$1 1;
#X obj 152 200 list store;
#X obj 152 249 outlet;
#X obj 254 31 loadbang;
#X obj 254 53 i \$1;
#X connect 0 0 1 0;
#X connect 1 0 11 0;
#X connect 2 0 12 1;
#X connect 3 0 12 1;
#X connect 4 0 12 1;
#X connect 5 0 12 1;
#X connect 6 0 12 1;
#X connect 7 0 12 1;
#X connect 8 0 2 0;
#X connect 8 1 3 0;
#X connect 8 2 4 0;
#X connect 8 3 5 0;
#X connect 8 4 6 0;
#X connect 8 5 7 0;
#X connect 9 0 10 0;
#X connect 10 0 8 0;
#X connect 11 0 12 0;
#X connect 12 0 13 0;
#X connect 14 0 15 0;
#X connect 15 0 10 0;
