#N canvas 540 136 792 583 10;
#X obj 45 13 inlet;
#X floatatom 165 52 5 0 0 0 - - -;
#X floatatom 235 52 3 48 72 3 root - -;
#X obj 165 74 -;
#X floatatom 165 142 5 0 0 0 - - -;
#X obj 165 97 + 12;
#X obj 45 36 t f f, f 17;
#X floatatom 45 418 5 0 0 0 - - -;
#X obj 165 164 sel 0 1 2 3 4 5 6 7 8 9 10 11, f 46;
#X obj 219 270 i;
#X msg 165 196 -5;
#X obj 219 247 t b f, f 6;
#X obj 219 293 +, f 6;
#X floatatom 219 316 5 0 0 0 - - -;
#X msg 210 196 0;
#X msg 256 196 0;
#X msg 288 196 4;
#X msg 324 196 4;
#X msg 369 196 7;
#X msg 415 196 7;
#X obj 165 119 % 12;
#X obj 459 157 sel 0 1 2 3 4 5 6 7 8 9 10 11, f 46;
#X obj 513 260 i;
#X msg 459 196 -5;
#X obj 513 237 t b f, f 6;
#X obj 513 283 +, f 6;
#X floatatom 513 306 5 0 0 0 - - -;
#X msg 504 196 0;
#X msg 536 196 0;
#X msg 663 196 7;
#X msg 709 196 7;
#X msg 582 196 3;
#X msg 618 196 3;
#X obj 219 338 spigot;
#X floatatom 219 371 5 0 0 0 - - -;
#X obj 513 328 spigot;
#X msg 330 275 0;
#X msg 361 275 1;
#X obj 273 52 hradio 15 1 0 2 empty empty Max|min 0 26 0 10 -262144
-1 -1 0;
#X obj 361 247 sel 0;
#X msg 388 275 0;
#X msg 419 275 1;
#X obj 219 393 +;
#X floatatom 219 418 5 0 0 0 - - -;
#X msg 326 401 0;
#X obj 325 52 hradio 15 1 0 3 empty empty 0|+12|-12 0 26 0 10 -262144
-1 -1 2;
#X obj 326 375 sel 0 1 2;
#X msg 343 425 12;
#X msg 360 401 -12;
#X obj 45 480 outlet;
#X obj 219 480 outlet;
#X obj 160 13 inlet, f 6;
#X connect 0 0 6 0;
#X connect 1 0 3 0;
#X connect 2 0 5 1;
#X connect 2 0 9 1;
#X connect 2 0 22 1;
#X connect 3 0 5 0;
#X connect 4 0 8 0;
#X connect 4 0 21 0;
#X connect 5 0 20 0;
#X connect 6 0 7 0;
#X connect 6 1 1 0;
#X connect 7 0 49 0;
#X connect 8 0 10 0;
#X connect 8 2 14 0;
#X connect 8 4 15 0;
#X connect 8 5 16 0;
#X connect 8 7 17 0;
#X connect 8 9 18 0;
#X connect 8 11 19 0;
#X connect 9 0 12 0;
#X connect 10 0 11 0;
#X connect 11 0 9 0;
#X connect 11 1 12 1;
#X connect 12 0 13 0;
#X connect 13 0 33 0;
#X connect 14 0 11 0;
#X connect 15 0 11 0;
#X connect 16 0 11 0;
#X connect 17 0 11 0;
#X connect 18 0 11 0;
#X connect 19 0 11 0;
#X connect 20 0 4 0;
#X connect 21 0 23 0;
#X connect 21 2 27 0;
#X connect 21 3 28 0;
#X connect 21 5 31 0;
#X connect 21 7 32 0;
#X connect 21 9 29 0;
#X connect 21 10 30 0;
#X connect 22 0 25 0;
#X connect 23 0 24 0;
#X connect 24 0 22 0;
#X connect 24 1 25 1;
#X connect 25 0 26 0;
#X connect 26 0 35 0;
#X connect 27 0 24 0;
#X connect 28 0 24 0;
#X connect 29 0 24 0;
#X connect 30 0 24 0;
#X connect 31 0 24 0;
#X connect 32 0 24 0;
#X connect 33 0 34 0;
#X connect 34 0 42 0;
#X connect 35 0 34 0;
#X connect 36 0 35 1;
#X connect 37 0 33 1;
#X connect 38 0 39 0;
#X connect 39 0 36 0;
#X connect 39 0 37 0;
#X connect 39 1 40 0;
#X connect 39 1 41 0;
#X connect 40 0 33 1;
#X connect 41 0 35 1;
#X connect 42 0 43 0;
#X connect 43 0 50 0;
#X connect 44 0 42 1;
#X connect 45 0 46 0;
#X connect 46 0 44 0;
#X connect 46 1 47 0;
#X connect 46 2 48 0;
#X connect 47 0 42 1;
#X connect 48 0 42 1;
#X connect 51 0 2 0;
#X coords 0 -1 1 1 160 70 1 225 20;
