#N canvas 199 189 450 470 10;
#X floatatom 144 203 5 0 0 0 - - -;
#X floatatom 180 203 5 0 0 0 - - -;
#X floatatom 144 302 5 0 0 0 - - -;
#X obj 144 132 sel 0 1 2, f 23;
#X obj 144 73 hradio 15 1 0 3 empty empty empty 0 -8 0 10 -262144 -1
-1 0;
#X obj 144 181 unpack f f f;
#X floatatom 216 203 5 0 0 0 - - -;
#X obj 144 278 + 50;
#X obj 180 226 pipe 500;
#X obj 216 247 pipe 1000;
#X obj 144 52 bng 15 250 50 0 empty empty empty 17 7 0 10 -262144 -1
-1;
#X obj 144 324 mtof;
#X floatatom 197 72 5 0 0 0 - - -;
#X floatatom 233 72 5 0 0 0 - - -;
#X obj 267 225 +;
#X floatatom 165 51 5 0 0 0 - - -;
#X obj 144 383 outlet;
#X obj 144 5 inlet;
#X obj 211 6 inlet;
#X obj 232 386 outlet;
#X msg 144 157 -2 3 7;
#X msg 189 157 3 -2 7;
#X msg 237 157 7 3 -2;
#X connect 0 0 7 0;
#X connect 1 0 8 0;
#X connect 2 0 11 0;
#X connect 2 0 19 0;
#X connect 3 0 20 0;
#X connect 3 1 21 0;
#X connect 3 2 22 0;
#X connect 4 0 3 0;
#X connect 5 0 0 0;
#X connect 5 1 1 0;
#X connect 5 2 6 0;
#X connect 6 0 9 0;
#X connect 7 0 2 0;
#X connect 8 0 7 0;
#X connect 9 0 7 0;
#X connect 10 0 4 0;
#X connect 11 0 16 0;
#X connect 12 0 8 1;
#X connect 12 0 14 1;
#X connect 13 0 14 0;
#X connect 14 0 9 1;
#X connect 15 0 7 1;
#X connect 17 0 10 0;
#X connect 18 0 15 0;
#X connect 20 0 5 0;
#X connect 21 0 5 0;
#X connect 22 0 5 0;
#X coords 0 -1 1 1 138 65 1 135 30;
