#N canvas 329 239 792 477 10;
#N canvas 6 116 450 250 (subpatch) 0;
#X array pattern 5 float 3;
#A 0 0 0 0 0.000603638 0;
#X coords 0 1 5 0 50 35 1 0 0;
#X restore 91 203 graph;
#X obj 428 233 array set pattern;
#X obj 64 75 f 0;
#X obj 90 75 + 1;
#X obj 116 75 % 11;
#X floatatom 64 98 5 0 0 0 - - -;
#X obj 64 312 expr pattern[$f1] = $f2;
#X obj 64 120 t f f;
#X obj 352 99 clip 0 1;
#X obj 64 14 inlet;
#X obj 379 14 inlet;
#X obj 64 47 t b b;
#X obj 352 63 f 0.5;
#X obj 91 415 outlet;
#X obj 199 136 expr (pattern[($f1-1)%$f2] + pattern[($f1+1)%$f2]) /
2, f 28;
#X obj 428 115 until;
#X obj 428 138 f 0;
#X obj 454 138 + 1;
#X obj 428 92 f 11, f 5;
#X obj 481 138 % 11;
#X obj 428 161 t b f;
#X obj 428 184 random 100;
#X obj 428 207 / 100;
#X obj 428 14 inlet;
#X obj 428 59 t b f;
#X obj 531 75 array size pattern;
#X obj 64 143 pipe 20;
#X obj 91 341 expr pattern[$f1];
#X obj 199 172 t f b;
#X obj 275 188 random 100;
#X obj 275 211 / 100;
#X obj 199 236 expr if($f2 > $f3 \, max(0 \, min(1 \, if($f1 < 0.4
\, $f1 - 0.25 \, if($f1 > 0.6 \, $f1 + 0.25 \, $f1)))) \, $f1), f
26;
#X connect 2 0 3 0;
#X connect 2 0 5 0;
#X connect 3 0 4 0;
#X connect 4 0 2 1;
#X connect 5 0 7 0;
#X connect 7 0 26 0;
#X connect 7 1 14 0;
#X connect 7 1 27 0;
#X connect 8 0 31 2;
#X connect 9 0 11 0;
#X connect 10 0 12 1;
#X connect 11 0 2 0;
#X connect 11 1 12 0;
#X connect 12 0 8 0;
#X connect 14 0 28 0;
#X connect 15 0 16 0;
#X connect 16 0 17 0;
#X connect 16 0 20 0;
#X connect 17 0 19 0;
#X connect 18 0 15 0;
#X connect 19 0 16 1;
#X connect 20 0 21 0;
#X connect 20 1 1 1;
#X connect 21 0 22 0;
#X connect 22 0 1 0;
#X connect 23 0 24 0;
#X connect 24 0 18 0;
#X connect 24 1 18 1;
#X connect 24 1 19 1;
#X connect 24 1 14 1;
#X connect 24 1 4 1;
#X connect 24 1 25 0;
#X connect 26 0 6 0;
#X connect 27 0 13 0;
#X connect 28 0 31 0;
#X connect 28 1 29 0;
#X connect 29 0 30 0;
#X connect 30 0 31 1;
#X connect 31 0 6 1;
#X coords 0 -1 1 1 62 60 2 85 185;
