#N canvas 723 131 592 631 10;
#X obj 60 295 osc~;
#X floatatom 60 259 5 0 0 0 - - -;
#X obj 60 341 min~, f 13;
#X obj 134 296 osc~;
#X obj 134 274 * 2;
#X obj 98 243 t b f;
#X obj 214 297 osc~;
#X obj 214 275 * 2;
#X obj 178 244 t b f;
#X obj 60 364 min~, f 26;
#X obj 62 480 outlet~;
#X obj 60 235 mtof;
#X obj 60 18 inlet;
#X obj 60 318 +~;
#X obj 134 319 +~;
#X obj 214 320 +~, f 6;
#X obj 97 84 f \$2;
#X obj 97 107 clip 0 10;
#X obj 135 129 clip 0 10;
#X obj 135 84 f \$3;
#X obj 118 18 inlet;
#X obj 156 18 inlet;
#X obj 173 84 f \$4;
#X obj 211 84 f \$5;
#X obj 247 84 f \$6;
#X obj 77 158 osc~;
#X obj 148 157 osc~;
#X obj 247 157 osc~;
#X obj 60 61 t f b b b b b, f 32;
#X obj 77 181 *~ 0.5;
#X obj 61 393 +~ 0.5;
#X obj 247 180 *~ 0.5;
#X obj 148 180 *~ 0.5;
#X obj 173 107 / 10;
#X obj 211 107 / 10;
#X obj 247 107 / 10;
#X connect 0 0 13 0;
#X connect 1 0 0 0;
#X connect 1 0 4 0;
#X connect 1 0 7 0;
#X connect 2 0 9 0;
#X connect 3 0 14 0;
#X connect 4 0 3 0;
#X connect 5 0 1 0;
#X connect 5 1 4 1;
#X connect 6 0 15 0;
#X connect 7 0 6 0;
#X connect 8 0 1 0;
#X connect 8 1 7 1;
#X connect 9 0 30 0;
#X connect 11 0 1 0;
#X connect 12 0 28 0;
#X connect 13 0 2 0;
#X connect 14 0 2 1;
#X connect 15 0 9 1;
#X connect 16 0 17 0;
#X connect 17 0 5 0;
#X connect 18 0 8 0;
#X connect 19 0 18 0;
#X connect 20 0 16 1;
#X connect 21 0 19 1;
#X connect 22 0 33 0;
#X connect 23 0 34 0;
#X connect 24 0 35 0;
#X connect 25 0 29 0;
#X connect 26 0 32 0;
#X connect 27 0 31 0;
#X connect 28 0 11 0;
#X connect 28 1 16 0;
#X connect 28 2 19 0;
#X connect 28 3 22 0;
#X connect 28 4 23 0;
#X connect 28 5 24 0;
#X connect 29 0 13 1;
#X connect 30 0 10 0;
#X connect 31 0 15 1;
#X connect 32 0 14 1;
#X connect 33 0 25 0;
#X connect 34 0 26 0;
#X connect 35 0 27 0;
