#N canvas 618 140 680 622 10;
#X obj 84 34 inlet;
#X obj 187 34 inlet;
#X obj 187 65 sel 0 1 2, f 59;
#X obj 172 393 list store, f 18;
#X msg 172 370 get \$1 1;
#X msg 226 135 0 2 4;
#X obj 250 300 t l l;
#X obj 172 301 f 0;
#X obj 224 301 % 2;
#X obj 172 324 + 0;
#X obj 250 331 list length;
#X obj 172 347 % 2;
#X msg 187 278 0;
#X obj 187 232 t b b b, f 18;
#X obj 187 135 t b b;
#X obj 304 135 t b b;
#X msg 342 135 0 1 2 4;
#X obj 304 88 random 2;
#X obj 304 111 sel 0 1, f 8;
#X obj 326 157 t b b;
#X msg 365 157 0 2 3 4;
#X obj 421 135 t b b;
#X obj 442 157 t b b;
#X msg 459 135 0 1 2 3 4;
#X obj 421 88 random 3;
#X obj 463 180 t b b;
#X obj 84 285 t f b;
#X obj 84 409 +;
#X obj 84 476 outlet;
#X obj 253 34 inlet;
#X msg 291 34 seed \$1;
#X obj 291 308 random 3;
#X obj 198 301 + 1;
#X obj 213 278 + 1;
#X obj 213 257 random 2;
#X obj 421 111 sel 0 1 2, f 11;
#X msg 502 180 0 1 2 4 5;
#X msg 481 157 0 2 3 4 5;
#X connect 0 0 26 0;
#X connect 1 0 2 0;
#X connect 2 0 14 0;
#X connect 2 1 17 0;
#X connect 2 2 24 0;
#X connect 2 3 14 0;
#X connect 3 0 27 1;
#X connect 4 0 3 0;
#X connect 5 0 6 0;
#X connect 6 0 10 0;
#X connect 6 1 3 1;
#X connect 7 0 9 0;
#X connect 7 0 32 0;
#X connect 8 0 7 1;
#X connect 9 0 11 0;
#X connect 10 0 8 1;
#X connect 10 0 11 1;
#X connect 11 0 4 0;
#X connect 12 0 7 1;
#X connect 13 0 12 0;
#X connect 13 1 34 0;
#X connect 13 2 31 0;
#X connect 14 0 13 0;
#X connect 14 1 5 0;
#X connect 15 0 13 0;
#X connect 15 1 16 0;
#X connect 16 0 6 0;
#X connect 17 0 18 0;
#X connect 18 0 15 0;
#X connect 18 1 19 0;
#X connect 19 0 13 0;
#X connect 19 1 20 0;
#X connect 20 0 6 0;
#X connect 21 0 13 0;
#X connect 21 1 23 0;
#X connect 22 0 13 0;
#X connect 22 1 37 0;
#X connect 23 0 6 0;
#X connect 24 0 35 0;
#X connect 25 0 13 0;
#X connect 25 1 36 0;
#X connect 26 0 27 0;
#X connect 26 1 7 0;
#X connect 27 0 28 0;
#X connect 29 0 30 0;
#X connect 30 0 17 0;
#X connect 30 0 24 0;
#X connect 30 0 31 0;
#X connect 30 0 34 0;
#X connect 31 0 9 1;
#X connect 32 0 8 0;
#X connect 33 0 32 1;
#X connect 34 0 33 0;
#X connect 35 0 21 0;
#X connect 35 1 22 0;
#X connect 35 2 25 0;
#X connect 36 0 6 0;
#X connect 37 0 6 0;
