#N canvas 351 116 471 584 10;
#X obj 81 22 inlet;
#X obj 176 22 inlet;
#X obj 195 121 list length;
#X obj 96 52 r sync;
#X msg 96 75 0;
#X obj 297 22 inlet;
#X obj 297 98 t a a;
#X obj 297 121 list length;
#X obj 128 193 list store, f 15;
#X obj 81 337 list store, f 41;
#X obj 128 146 f 0;
#X obj 154 146 + 1;
#X obj 180 146 %;
#X msg 128 169 get \$1 1;
#X obj 81 222 f 0;
#X obj 107 222 + 1;
#X obj 133 222 %;
#X obj 81 98 t b, f 6;
#X obj 81 245 sel 0;
#X obj 81 268 t b b, f 8;
#X obj 81 291 f 0;
#X obj 107 291 + 1;
#X obj 133 291 %;
#X msg 81 314 get \$1 1;
#X obj 81 380 outlet;
#X msg 41 153 0;
#X obj 176 80 t b a a;
#X connect 0 0 17 0;
#X connect 1 0 26 0;
#X connect 2 0 12 1;
#X connect 3 0 4 0;
#X connect 4 0 10 1;
#X connect 4 0 14 1;
#X connect 4 0 20 1;
#X connect 5 0 6 0;
#X connect 6 0 7 0;
#X connect 6 1 9 1;
#X connect 7 0 22 1;
#X connect 8 0 16 1;
#X connect 9 0 24 0;
#X connect 10 0 11 0;
#X connect 10 0 13 0;
#X connect 11 0 12 0;
#X connect 12 0 10 1;
#X connect 13 0 8 0;
#X connect 14 0 15 0;
#X connect 14 0 18 0;
#X connect 15 0 16 0;
#X connect 16 0 14 1;
#X connect 17 0 14 0;
#X connect 18 0 19 0;
#X connect 19 0 20 0;
#X connect 19 1 10 0;
#X connect 20 0 21 0;
#X connect 20 0 23 0;
#X connect 21 0 22 0;
#X connect 22 0 20 1;
#X connect 23 0 9 0;
#X connect 25 0 13 0;
#X connect 26 0 25 0;
#X connect 26 1 2 0;
#X connect 26 2 8 1;
