#N canvas 347 236 823 464 10;
#X obj 121 29 inlet;
#X obj 207 99 bng 15 250 50 0 empty empty empty 17 7 0 10 -262144 -1
-1;
#X floatatom 182 280 5 0 0 0 - - -;
#X obj 230 99 vradio 15 1 0 4 empty empty empty 0 -8 0 10 -262144 -1
-1 3;
#X obj 230 234 + 2;
#X obj 230 257 +;
#X floatatom 230 280 5 0 0 0 - - -;
#X obj 250 99 vradio 15 1 0 4 empty empty empty 0 -8 0 10 -262144 -1
-1 3;
#X obj 293 234 + 2;
#X obj 293 257 +;
#X floatatom 293 280 5 0 0 0 - - -;
#X obj 270 99 vradio 15 1 0 4 empty empty empty 0 -8 0 10 -262144 -1
-1 3;
#X obj 355 234 + 2;
#X obj 355 257 +;
#X floatatom 355 280 5 0 0 0 - - -;
#X obj 121 212 t b f f, f 21;
#X text 291 98 2nd;
#X text 297 113 3m;
#X text 297 128 3M;
#X text 291 142 4th;
#X obj 182 360 outlet;
#X obj 230 360 outlet;
#X obj 293 360 outlet;
#X obj 355 360 outlet;
#X connect 0 0 15 0;
#X connect 1 0 3 0;
#X connect 1 0 11 0;
#X connect 1 0 7 0;
#X connect 2 0 20 0;
#X connect 3 0 4 0;
#X connect 4 0 5 0;
#X connect 5 0 6 0;
#X connect 6 0 9 1;
#X connect 6 0 21 0;
#X connect 7 0 8 0;
#X connect 8 0 9 0;
#X connect 9 0 10 0;
#X connect 10 0 13 1;
#X connect 10 0 22 0;
#X connect 11 0 12 0;
#X connect 12 0 13 0;
#X connect 13 0 14 0;
#X connect 14 0 23 0;
#X connect 15 0 1 0;
#X connect 15 1 2 0;
#X connect 15 2 5 1;
#X coords 0 -1 1 1 120 95 1 200 70;
