#N canvas 589 143 731 598 10;
#X obj 98 39 inlet;
#X obj 98 131 f 0;
#X obj 124 131 + 1;
#X obj 150 131 % 1;
#X obj 113 84 r sync;
#X msg 113 107 0;
#X obj 98 154 sel 0, f 7;
#X obj 98 177 random 8;
#X obj 98 200 + 1;
#X obj 98 465 outlet;
#X obj 98 246 random 2;
#X obj 98 270 sel 0 1, f 15;
#X obj 98 316 + 0;
#X obj 141 316 - 0;
#X obj 98 364 t f f, f 15;
#X obj 212 131 i \$1;
#X obj 212 154 t f f f, f 16;
#X obj 258 200 + 12;
#X obj 212 200 - 12;
#X obj 212 84 loadbang;
#X obj 233 39 inlet;
#X obj 98 223 t b f b, f 8;
#X obj 98 341 expr if($f1<$f2||$f1>$f3 \, $f4 \, $f1);
#X obj 98 293 i \$1;
#X obj 141 293 i \$1;
#X connect 0 0 1 0;
#X connect 1 0 2 0;
#X connect 1 0 6 0;
#X connect 2 0 3 0;
#X connect 3 0 1 1;
#X connect 4 0 5 0;
#X connect 5 0 1 1;
#X connect 6 0 7 0;
#X connect 7 0 8 0;
#X connect 8 0 21 0;
#X connect 10 0 11 0;
#X connect 11 0 23 0;
#X connect 11 1 24 0;
#X connect 12 0 22 0;
#X connect 13 0 22 0;
#X connect 14 0 9 0;
#X connect 14 1 23 1;
#X connect 14 1 24 1;
#X connect 15 0 16 0;
#X connect 16 0 18 0;
#X connect 16 1 17 0;
#X connect 16 2 22 3;
#X connect 17 0 22 2;
#X connect 18 0 22 1;
#X connect 19 0 15 0;
#X connect 20 0 15 1;
#X connect 21 0 10 0;
#X connect 21 1 3 1;
#X connect 21 1 12 1;
#X connect 21 1 13 1;
#X connect 21 2 15 0;
#X connect 22 0 14 0;
#X connect 23 0 12 0;
#X connect 24 0 13 0;
