#N canvas 596 159 707 590 10;
#X obj 49 252 random 100;
#X obj 513 247 t l l;
#X obj 540 270 list length;
#X obj 456 303 / 100;
#X obj 456 324 expr $f1*$f2;
#X obj 456 347 i;
#X obj 456 393 list store;
#X msg 456 370 get \$1 1;
#X obj 49 275 moses 50, f 36;
#X obj 49 298 bang;
#X obj 262 298 bang;
#X obj 49 322 random 100;
#X obj 49 345 moses 50, f 17;
#X obj 49 368 bang;
#X obj 148 368 bang;
#X obj 49 390 random 20;
#X obj 148 413 + 10;
#X obj 148 390 random 40;
#X obj 262 322 random 100;
#X obj 262 345 moses 50, f 17;
#X obj 262 368 bang;
#X obj 361 368 bang;
#X obj 262 390 random 20;
#X obj 361 390 random 40;
#X obj 262 413 + 50;
#X obj 361 413 + 60;
#X obj 49 183 random 100;
#X obj 49 206 moses 50;
#X obj 49 229 bang;
#X obj 49 14 inlet;
#X obj 49 73 bng 15 250 50 0 empty empty trg 17 7 0 10 -262144 -191407
-1;
#X obj 513 14 inlet;
#X obj 52 94 hsl 60 15 100 0 0 0 empty empty play/sleep 65 7 0 10 -1
-262144 -1 1500 1;
#X obj 52 112 hsl 60 15 100 0 0 0 empty empty begin/end 65 7 0 10 -262144
-1 -1 4200 1;
#X obj 52 131 hsl 60 15 100 0 0 0 empty empty begin/mid 65 7 0 10 -228856
-1 -1 2200 1;
#X obj 52 150 hsl 60 15 100 0 0 0 empty empty mid/end 65 7 0 10 -228856
-1 -1 4300 1;
#X obj 456 454 outlet;
#X connect 0 0 8 0;
#X connect 1 0 6 1;
#X connect 1 1 2 0;
#X connect 2 0 4 1;
#X connect 3 0 4 0;
#X connect 4 0 5 0;
#X connect 5 0 7 0;
#X connect 6 0 36 0;
#X connect 7 0 6 0;
#X connect 8 0 9 0;
#X connect 8 1 10 0;
#X connect 9 0 11 0;
#X connect 10 0 18 0;
#X connect 11 0 12 0;
#X connect 12 0 13 0;
#X connect 12 1 14 0;
#X connect 13 0 15 0;
#X connect 14 0 17 0;
#X connect 15 0 3 0;
#X connect 16 0 3 0;
#X connect 17 0 16 0;
#X connect 18 0 19 0;
#X connect 19 0 20 0;
#X connect 19 1 21 0;
#X connect 20 0 22 0;
#X connect 21 0 23 0;
#X connect 22 0 24 0;
#X connect 23 0 25 0;
#X connect 24 0 3 0;
#X connect 25 0 3 0;
#X connect 26 0 27 0;
#X connect 27 0 28 0;
#X connect 28 0 0 0;
#X connect 29 0 30 0;
#X connect 30 0 26 0;
#X connect 31 0 1 0;
#X connect 32 0 27 1;
#X connect 33 0 8 1;
#X connect 34 0 12 1;
#X connect 35 0 19 1;
#X coords 0 -1 1 1 150 130 1 40 45;
