#N canvas 237 273 889 448 10;
#X obj 63 55 inlet;
#X obj 63 133 + \$1;
#X obj 63 223 outlet;
#X obj 122 133 t f f;
#X obj 122 223 outlet;
#X obj 63 83 % 12;
#X obj 149 157 * \$2;
#X obj 240 223 outlet;
#X obj 122 157 - 0;
#X obj 240 157 % 12;
#X obj 181 133 + \$3;
#X obj 181 157 t f f;
#X obj 208 181 * \$2;
#X obj 181 181 - 0;
#X obj 181 223 outlet;
#X obj 240 133 pow \$4;
#X obj 63 107 t f f f f f, f 40;
#X obj 300 178 pipe 0, f 7;
#X obj 339 132 f \$5;
#X obj 339 155 * 1000;
#X obj 300 132 t f b;
#X obj 300 223 outlet;
#X connect 0 0 5 0;
#X connect 1 0 2 0;
#X connect 3 0 8 0;
#X connect 3 1 6 0;
#X connect 5 0 16 0;
#X connect 6 0 8 1;
#X connect 8 0 4 0;
#X connect 9 0 7 0;
#X connect 10 0 11 0;
#X connect 11 0 13 0;
#X connect 11 1 12 0;
#X connect 12 0 13 1;
#X connect 13 0 14 0;
#X connect 15 0 9 0;
#X connect 16 0 1 0;
#X connect 16 1 3 0;
#X connect 16 2 10 0;
#X connect 16 3 15 0;
#X connect 16 4 20 0;
#X connect 17 0 21 0;
#X connect 18 0 19 0;
#X connect 19 0 17 1;
#X connect 20 0 17 0;
#X connect 20 1 18 0;
