#N canvas 579 276 450 380 10;
#X obj 80 120 expr pow(2 \, ($f1-69)/$f2) * 440;
#X obj 80 145 ftom;
#X obj 80 34 inlet;
#X obj 80 57 clip 0 127;
#X obj 80 202 outlet;
#X obj 80 80 t f b;
#X obj 263 96 f \$1;
#X obj 284 34 inlet;
#X connect 0 0 1 0;
#X connect 1 0 4 0;
#X connect 2 0 3 0;
#X connect 3 0 5 0;
#X connect 5 0 0 0;
#X connect 5 1 6 0;
#X connect 6 0 0 1;
#X connect 7 0 6 1;
