#N canvas 727 212 548 407 10;
#X obj 335 98 t a;
#X obj 335 190 route 0 1 2, f 18;
#X obj 335 167 pack 0 0, f 14;
#X obj 335 144 f 0;
#X obj 361 144 + 1;
#X obj 387 144 % 3;
#X obj 335 121 t b f, f 14;
#X obj 320 264 i 0;
#X obj 355 264 i 0;
#X obj 390 264 i 0;
#X obj 320 215 random 3;
#X obj 320 238 sel 0 1 2, f 18;
#X obj 161 72 t b b, f 27;
#X obj 161 193 ==, f 7;
#X floatatom 251 237 5 0 0 0 - - -;
#X obj 161 227 sel 0, f 9;
#X obj 161 252 i 0;
#X obj 161 122 + 0, f 5;
#X msg 292 106 0;
#X obj 161 169 t f f, f 17;
#X obj 161 275 expr if($f1>$f2 \, $f1-$f2 \, $f2-$f1), f 17;
#X obj 219 323 max 2;
#X obj 161 98 random, f 10;
#X obj 335 35 inlet;
#X obj 93 35 inlet;
#X obj 90 341 outlet;
#X obj 161 145 change -1;
#X obj 161 35 loadbang;
#X obj 251 35 sel 0;
#X connect 0 0 6 0;
#X connect 1 0 7 1;
#X connect 1 1 8 1;
#X connect 1 2 9 1;
#X connect 2 0 1 0;
#X connect 3 0 4 0;
#X connect 3 0 2 0;
#X connect 4 0 5 0;
#X connect 5 0 3 1;
#X connect 6 0 3 0;
#X connect 6 1 2 1;
#X connect 7 0 14 0;
#X connect 8 0 14 0;
#X connect 9 0 14 0;
#X connect 10 0 11 0;
#X connect 11 0 7 0;
#X connect 11 1 8 0;
#X connect 11 2 9 0;
#X connect 12 0 22 0;
#X connect 12 1 10 0;
#X connect 13 0 15 0;
#X connect 14 0 13 1;
#X connect 14 0 16 1;
#X connect 14 0 22 1;
#X connect 14 0 28 0;
#X connect 15 0 16 0;
#X connect 15 1 18 0;
#X connect 15 1 12 0;
#X connect 16 0 20 0;
#X connect 17 0 26 0;
#X connect 18 0 17 1;
#X connect 19 0 13 0;
#X connect 19 0 25 0;
#X connect 19 1 17 1;
#X connect 19 1 20 1;
#X connect 20 0 21 0;
#X connect 21 0 22 1;
#X connect 22 0 17 0;
#X connect 23 0 0 0;
#X connect 24 0 22 0;
#X connect 26 0 19 0;
#X connect 27 0 12 0;
#X connect 28 0 12 0;
#X connect 28 0 18 0;
