#N canvas 383 116 920 646 10;
#X obj 52 21 inlet;
#X obj 52 86 bng 15 250 50 0 empty empty empty 17 7 0 10 -262144 -191407
-1;
#X obj 199 21 inlet;
#X obj 199 144 t l l;
#X obj 226 167 list length;
#X floatatom 226 190 5 0 0 0 - - -;
#X obj 389 21 inlet;
#X obj 389 144 t l l;
#X obj 416 167 list length;
#X floatatom 416 190 5 0 0 0 - - -;
#X obj 168 205 + 1;
#X obj 195 205 % 1;
#X obj 358 205 + 1;
#X obj 385 205 % 1;
#X floatatom 332 275 5 0 0 0 - - -;
#X obj 73 86 nbx 2 15 30 88 0 0 empty empty off 35 7 0 10 -228856 -1
-1 30 256;
#X obj 332 297 + 0;
#X obj 78 204 + 1;
#X obj 52 226 % 1;
#X obj 141 86 bng 15 250 50 0 empty empty empty 17 7 0 10 -262144 -1
-1;
#X obj 142 205 f 0;
#X obj 332 205 f 0;
#X obj 52 204 f 0;
#X obj 544 21 inlet;
#X obj 544 160 bang;
#X obj 544 205 random;
#X obj 544 183 t b b, f 13;
#X obj 619 205 random 4;
#X obj 619 228 sel 0 1 2 3, f 26;
#X msg 619 251 -2;
#X msg 657 251 -1;
#X msg 695 251 1;
#X msg 733 251 2;
#X obj 544 335 +;
#X obj 544 313 t f f, f 10;
#N canvas 0 50 450 250 (subpatch) 0;
#X array \$0-pat 11 float 3;
#A 0 0 2 5 0 2 5 4 9 2 5 0;
#X coords 0 12 11 -12 50 15 1 0 0;
#X restore 108 117 graph;
#N canvas 0 50 450 250 (subpatch) 0;
#X array \$0-rit 11 float 3;
#A 0 1 1 1 1 1 1 1 1 1 1 2;
#X coords 0 4 11 0 50 15 1 0 0;
#X restore 52 117 graph;
#X obj 332 360 outlet;
#X obj 52 271 bang;
#X floatatom 142 262 5 0 0 0 - - -;
#X obj 142 307 - 1;
#X obj 142 284 t f f b;
#X msg 181 307 0;
#X obj 52 248 sel \$1;
#X obj 226 215 array size \$0-rit;
#X obj 199 262 array set \$0-rit;
#X obj 142 239 array get \$0-rit;
#X obj 416 213 array size \$0-pat;
#X obj 389 275 array set \$0-pat;
#X obj 332 249 array get \$0-pat;
#X obj 544 280 array get \$0-pat;
#X obj 544 358 array set \$0-pat;
#X obj 670 21 inlet;
#X msg 670 48 0;
#X obj 107 21 inlet;
#X connect 0 0 1 0;
#X connect 1 0 22 0;
#X connect 2 0 3 0;
#X connect 3 0 45 0;
#X connect 3 1 4 0;
#X connect 4 0 5 0;
#X connect 5 0 11 1;
#X connect 5 0 44 0;
#X connect 6 0 7 0;
#X connect 7 0 48 0;
#X connect 7 1 8 0;
#X connect 8 0 9 0;
#X connect 9 0 13 1;
#X connect 9 0 25 1;
#X connect 9 0 47 0;
#X connect 10 0 11 0;
#X connect 11 0 20 1;
#X connect 12 0 13 0;
#X connect 13 0 21 1;
#X connect 14 0 16 0;
#X connect 15 0 16 1;
#X connect 16 0 37 0;
#X connect 17 0 22 1;
#X connect 18 0 43 0;
#X connect 19 0 21 0;
#X connect 20 0 10 0;
#X connect 20 0 46 0;
#X connect 21 0 12 0;
#X connect 21 0 49 0;
#X connect 22 0 17 0;
#X connect 22 0 18 0;
#X connect 23 0 24 0;
#X connect 24 0 26 0;
#X connect 25 0 50 0;
#X connect 26 0 25 0;
#X connect 26 1 27 0;
#X connect 27 0 28 0;
#X connect 28 0 29 0;
#X connect 28 1 30 0;
#X connect 28 2 31 0;
#X connect 28 3 32 0;
#X connect 29 0 33 1;
#X connect 30 0 33 1;
#X connect 31 0 33 1;
#X connect 32 0 33 1;
#X connect 33 0 51 0;
#X connect 34 0 33 0;
#X connect 34 1 51 1;
#X connect 38 0 20 0;
#X connect 38 0 19 0;
#X connect 39 0 41 0;
#X connect 40 0 43 1;
#X connect 41 0 40 0;
#X connect 41 1 18 1;
#X connect 41 2 42 0;
#X connect 42 0 22 1;
#X connect 43 0 38 0;
#X connect 46 0 39 0;
#X connect 49 0 14 0;
#X connect 50 0 34 0;
#X connect 52 0 53 0;
#X connect 53 0 22 1;
#X connect 53 0 20 1;
#X connect 53 0 21 1;
#X connect 54 0 15 0;
#X coords 0 -1 1 1 120 80 1 45 60;
