#N canvas 274 277 719 417 10;
#X obj 56 20 inlet;
#X obj 101 20 inlet;
#X obj 56 185 - 12;
#X obj 56 324 outlet;
#X obj 56 162 t f f f b, f 23;
#X obj 191 252 list store;
#X msg 191 230 get \$1 2;
#X obj 191 275 unpack f f;
#X obj 191 208 * 2;
#X msg 264 236 0 4 2 5 4 7 5 9 7 11 9 12 11 14 12 16;
#X obj 191 185 random 8;
#X obj 101 185 + 0;
#X obj 101 208 + 0;
#X obj 101 324 outlet;
#X obj 146 185 + 0;
#X obj 146 208 + 0;
#X obj 146 324 outlet;
#X obj 188 20 inlet;
#X obj 264 185 loadbang;
#X obj 101 301 pipe 0;
#X obj 146 301 pipe 0;
#X obj 188 43 clip 0 12;
#X obj 284 20 inlet;
#X obj 56 117 t b b b, f 35;
#X obj 263 141 f \$3;
#X obj 161 139 i \$2, f 5;
#X obj 56 139 i \$1, f 8;
#X obj 101 43 clip 0 127;
#X connect 0 0 23 0;
#X connect 1 0 27 0;
#X connect 2 0 3 0;
#X connect 4 0 2 0;
#X connect 4 1 11 0;
#X connect 4 2 14 0;
#X connect 4 3 10 0;
#X connect 5 0 7 0;
#X connect 6 0 5 0;
#X connect 7 0 12 1;
#X connect 7 1 15 1;
#X connect 8 0 6 0;
#X connect 9 0 5 1;
#X connect 10 0 8 0;
#X connect 11 0 12 0;
#X connect 12 0 19 0;
#X connect 14 0 15 0;
#X connect 15 0 20 0;
#X connect 17 0 21 0;
#X connect 18 0 9 0;
#X connect 19 0 13 0;
#X connect 20 0 16 0;
#X connect 21 0 25 1;
#X connect 22 0 24 1;
#X connect 23 0 26 0;
#X connect 23 1 25 0;
#X connect 23 2 24 0;
#X connect 24 0 19 1;
#X connect 24 0 20 1;
#X connect 25 0 11 1;
#X connect 25 0 14 1;
#X connect 26 0 4 0;
#X connect 27 0 26 1;
