#N canvas 6 116 598 633 10;
#X floatatom 133 245 5 0 0 0 - - -;
#X obj 133 291 t f f;
#X floatatom 230 245 5 0 0 0 - - -;
#X obj 160 314 % 12;
#X obj 269 314 % 12;
#X obj 118 437 i 0;
#X obj 234 437 i 0;
#X obj 160 388 sel 1;
#X obj 230 291 t b f f;
#X floatatom 340 245 5 0 0 0 - - -;
#X obj 379 314 % 12;
#X obj 344 437 i 0;
#X obj 340 291 t b f f;
#X obj 209 71 t b b;
#X obj 209 94 random 3;
#X obj 118 460 t f f;
#X obj 133 198 i 0, f 10;
#X obj 133 175 t b f;
#X obj 230 221 + 0, f 5;
#X obj 230 175 t b f;
#X obj 340 221 + 0, f 5;
#X obj 340 175 t b f;
#X obj 234 460 t f f;
#X obj 344 460 t f f;
#X obj 230 198 i 4, f 10;
#X obj 340 198 i 7, f 12;
#X obj 455 461 change -1;
#X obj 234 610 outlet;
#X obj 209 24 inlet;
#X obj 455 594 + 0;
#X obj 118 521 - 0;
#X obj 158 437 == 0;
#X obj 158 460 sel 0 1, f 9;
#X msg 158 483 0;
#X msg 189 483 12;
#X obj 234 521 - 0;
#X obj 274 460 sel 0 1, f 8;
#X msg 274 483 0;
#X msg 305 483 12;
#X obj 274 437 == 1;
#X obj 344 521 - 0;
#X obj 383 459 sel 0 1, f 8;
#X msg 383 482 0;
#X msg 414 482 12;
#X obj 383 436 == 2;
#X obj 383 24 inlet;
#X msg 383 49 seed \$1;
#X obj 234 566 pipe 0;
#X obj 344 566 pipe 0;
#X obj 267 520 + 1;
#X obj 377 520 + 1;
#X obj 465 26 r sync;
#X msg 465 87 0 4 7;
#X obj 465 229 unpack 0 0 0;
#X obj 133 267 clip -12 12;
#X obj 230 267 clip -12 12;
#X obj 340 267 clip -12 12;
#X obj 267 543 * 10;
#X obj 377 543 * 20;
#X obj 133 221 + 0, f 5;
#X obj 209 119 pack 0 0;
#X obj 209 142 route 0 1 2;
#X obj 273 103 - 2;
#X obj 383 87 random 6;
#X obj 160 338 expr if(($f2-$f1==4||$f2-$f1==3)||($f3-$f2==4||$f3-$f2==3)
\, 1 \, 0), f 37;
#X connect 0 0 54 0;
#X connect 1 0 5 1;
#X connect 1 1 3 0;
#X connect 2 0 55 0;
#X connect 3 0 64 0;
#X connect 4 0 64 1;
#X connect 5 0 15 0;
#X connect 6 0 22 0;
#X connect 7 0 5 0;
#X connect 7 0 6 0;
#X connect 7 0 11 0;
#X connect 8 0 0 0;
#X connect 8 1 6 1;
#X connect 8 2 4 0;
#X connect 9 0 56 0;
#X connect 9 0 26 0;
#X connect 10 0 64 2;
#X connect 11 0 23 0;
#X connect 12 0 2 0;
#X connect 12 1 11 1;
#X connect 12 2 10 0;
#X connect 13 0 14 0;
#X connect 13 1 63 0;
#X connect 14 0 60 0;
#X connect 15 0 30 0;
#X connect 15 1 16 1;
#X connect 16 0 59 0;
#X connect 17 0 16 0;
#X connect 17 1 59 1;
#X connect 18 0 2 0;
#X connect 19 0 24 0;
#X connect 19 1 18 1;
#X connect 20 0 9 0;
#X connect 21 0 25 0;
#X connect 21 1 20 1;
#X connect 22 0 35 0;
#X connect 22 1 24 1;
#X connect 23 0 40 0;
#X connect 23 1 25 1;
#X connect 24 0 18 0;
#X connect 25 0 20 0;
#X connect 26 0 29 0;
#X connect 28 0 13 0;
#X connect 29 0 27 0;
#X connect 30 0 27 0;
#X connect 31 0 32 0;
#X connect 32 0 33 0;
#X connect 32 1 34 0;
#X connect 33 0 30 1;
#X connect 34 0 30 1;
#X connect 35 0 47 0;
#X connect 36 0 37 0;
#X connect 36 1 38 0;
#X connect 37 0 35 1;
#X connect 38 0 35 1;
#X connect 39 0 36 0;
#X connect 40 0 48 0;
#X connect 41 0 42 0;
#X connect 41 1 43 0;
#X connect 42 0 40 1;
#X connect 43 0 40 1;
#X connect 44 0 41 0;
#X connect 45 0 46 0;
#X connect 45 0 52 0;
#X connect 46 0 14 0;
#X connect 46 0 63 0;
#X connect 47 0 27 0;
#X connect 48 0 27 0;
#X connect 49 0 57 0;
#X connect 50 0 58 0;
#X connect 51 0 52 0;
#X connect 52 0 53 0;
#X connect 53 0 0 0;
#X connect 53 0 16 1;
#X connect 53 1 2 0;
#X connect 53 1 24 1;
#X connect 53 2 9 0;
#X connect 53 2 25 1;
#X connect 54 0 1 0;
#X connect 55 0 8 0;
#X connect 56 0 12 0;
#X connect 57 0 47 1;
#X connect 58 0 48 1;
#X connect 59 0 0 0;
#X connect 60 0 61 0;
#X connect 61 0 17 0;
#X connect 61 1 19 0;
#X connect 61 2 21 0;
#X connect 62 0 60 1;
#X connect 63 0 44 0;
#X connect 63 0 39 0;
#X connect 63 0 31 0;
#X connect 63 0 49 0;
#X connect 63 0 50 0;
#X connect 63 0 62 0;
#X connect 64 0 7 0;
