#N canvas 362 170 895 592 10;
#X obj 263 76 + 1;
#X obj 289 76 % 3;
#X obj 237 99 pack 0 0, f 13;
#X obj 237 121 route 0 1 2, f 18;
#X floatatom 237 144 5 0 0 0 - - -;
#X floatatom 272 144 5 0 0 0 - - -;
#X floatatom 307 144 5 0 0 0 - - -;
#X obj 237 53 t b f, f 13;
#X obj 237 76 f 0;
#X obj 222 183 ==;
#X obj 257 183 ==;
#X obj 292 183 ==;
#X obj 125 99 random 12;
#X floatatom 125 129 5 0 0 0 - - -;
#X floatatom 222 206 5 0 0 0 - - -;
#X floatatom 257 206 5 0 0 0 - - -;
#X floatatom 292 206 5 0 0 0 - - -;
#X obj 387 446 f 0;
#X obj 387 469 spigot;
#X obj 437 446 f 0;
#X obj 437 469 spigot;
#X obj 487 446 f 0;
#X obj 487 469 spigot;
#X obj 222 228 pipe 10;
#X floatatom 222 274 5 0 0 0 - - -;
#X obj 222 251 expr if($f1+$f2+$f3>0 \, 1 \, 0);
#X obj 387 398 t b f, f 22;
#X obj 222 296 t f f, f 28;
#X obj 125 427 spigot;
#X obj 170 427 tgl 15 0 empty empty empty 17 7 0 10 -262144 -1 -1 1
1;
#X obj 222 342 % 12;
#X obj 170 289 == 0;
#X obj 222 365 abs;
#X obj 222 505 outlet;
#X obj 387 505 outlet;
#X obj 437 505 outlet;
#X obj 487 505 outlet;
#X obj 125 53 t b;
#X obj 125 14 inlet;
#X obj 237 14 inlet;
#X obj 605 289 == 1;
#X obj 605 312 sel 1;
#X obj 605 505 outlet;
#X obj 125 76 spigot;
#X obj 170 76 tgl 15 0 empty empty empty 17 7 0 10 -262144 -1 -1 0
1;
#X obj 170 31 loadbang;
#X msg 170 53 1;
#X obj 267 365 clip 150 1000;
#X obj 267 342 f \$1;
#X obj 222 387 pipe 150;
#X obj 222 319 expr if($f1==0 \, $f2+random(-2 \, 3) \, $f2);
#X obj 359 14 inlet;
#X msg 359 83 seed \$1;
#X connect 0 0 1 0;
#X connect 1 0 8 1;
#X connect 2 0 3 0;
#X connect 3 0 4 0;
#X connect 3 1 5 0;
#X connect 3 2 6 0;
#X connect 4 0 9 1;
#X connect 4 0 17 1;
#X connect 5 0 10 1;
#X connect 5 0 19 1;
#X connect 6 0 11 1;
#X connect 6 0 21 1;
#X connect 7 0 8 0;
#X connect 7 1 2 1;
#X connect 8 0 0 0;
#X connect 8 0 2 0;
#X connect 9 0 14 0;
#X connect 10 0 15 0;
#X connect 11 0 16 0;
#X connect 12 0 13 0;
#X connect 13 0 9 0;
#X connect 13 0 11 0;
#X connect 13 0 10 0;
#X connect 13 0 50 1;
#X connect 14 0 23 0;
#X connect 15 0 25 1;
#X connect 16 0 25 2;
#X connect 17 0 18 0;
#X connect 18 0 34 0;
#X connect 19 0 20 0;
#X connect 20 0 35 0;
#X connect 21 0 22 0;
#X connect 22 0 36 0;
#X connect 23 0 25 0;
#X connect 24 0 27 0;
#X connect 24 0 31 0;
#X connect 24 0 40 0;
#X connect 25 0 24 0;
#X connect 26 0 17 0;
#X connect 26 0 19 0;
#X connect 26 0 21 0;
#X connect 26 1 22 1;
#X connect 26 1 20 1;
#X connect 26 1 18 1;
#X connect 27 0 50 0;
#X connect 27 1 26 0;
#X connect 28 0 13 0;
#X connect 29 0 28 1;
#X connect 30 0 32 0;
#X connect 31 0 29 0;
#X connect 31 0 44 0;
#X connect 32 0 49 0;
#X connect 37 0 43 0;
#X connect 38 0 37 0;
#X connect 39 0 7 0;
#X connect 40 0 41 0;
#X connect 40 0 44 0;
#X connect 41 0 42 0;
#X connect 43 0 12 0;
#X connect 44 0 43 1;
#X connect 45 0 46 0;
#X connect 45 0 48 0;
#X connect 46 0 43 1;
#X connect 47 0 49 1;
#X connect 48 0 47 0;
#X connect 49 0 28 0;
#X connect 49 0 33 0;
#X connect 50 0 30 0;
#X connect 51 0 52 0;
#X connect 52 0 12 0;
