#N canvas 0 116 1366 652 10;
#X obj 84 58 tgl 15 0 t0 reset empty 17 7 0 10 -1 -4034 -1 0 1;
#X obj 660 75 r t0;
#X obj 597 116 sel 0 1, f 31;
#X obj 597 139 random 2;
#X obj 597 162 sel 0, f 8;
#X msg 597 185 7;
#X msg 642 185 -7;
#X obj 688 139 random 2;
#X obj 688 162 sel 0, f 8;
#X msg 688 185 1;
#X msg 733 185 -1;
#X obj 101 58 tgl 15 0 t0 reset empty 17 7 0 10 -1 -4034 -1 0 1;
#X obj 118 58 tgl 15 0 t0 reset empty 17 7 0 10 -1 -4034 -1 0 1;
#X obj 135 58 tgl 15 0 t0 reset empty 17 7 0 10 -1 -4034 -1 0 1;
#X obj 152 58 tgl 15 0 t0 reset empty 17 7 0 10 -1 -4034 -1 0 1;
#X obj 169 58 tgl 15 0 t0 reset empty 17 7 0 10 -1 -4034 -1 0 1;
#X obj 186 58 tgl 15 0 t0 reset empty 17 7 0 10 -1 -4034 -1 0 1;
#X obj 84 75 tgl 15 0 t0 reset empty 17 7 0 10 -1 -4034 -1 0 1;
#X obj 101 75 tgl 15 0 t0 reset empty 17 7 0 10 -1 -4034 -1 0 1;
#X obj 118 75 tgl 15 0 t0 reset empty 17 7 0 10 -1 -4034 -1 0 1;
#X obj 135 75 tgl 15 0 t0 reset empty 17 7 0 10 -1 -4034 -1 0 1;
#X obj 152 75 tgl 15 0 t0 reset empty 17 7 0 10 -1 -4034 -1 0 1;
#X obj 169 75 tgl 15 0 t0 reset empty 17 7 0 10 -1 -4034 -1 0 1;
#X obj 186 75 tgl 15 0 t0 reset empty 17 7 0 10 -1 -4034 -1 0 1;
#X obj 84 92 tgl 15 0 t0 reset empty 17 7 0 10 -1 -4034 -1 0 1;
#X obj 101 92 tgl 15 0 t0 reset empty 17 7 0 10 -1 -4034 -1 0 1;
#X obj 118 92 tgl 15 0 t0 reset empty 17 7 0 10 -1 -4034 -1 0 1;
#X obj 135 92 tgl 15 0 t0 reset empty 17 7 0 10 -1 -4034 -1 0 1;
#X obj 152 92 tgl 15 0 t0 reset empty 17 7 0 10 -1 -4034 -1 0 1;
#X obj 169 92 tgl 15 0 t0 reset empty 17 7 0 10 -1 -4034 -1 0 1;
#X obj 186 92 tgl 15 0 t0 reset empty 17 7 0 10 -1 -4034 -1 0 1;
#X obj 84 109 tgl 15 0 t0 reset empty 17 7 0 10 -1 -4034 -1 0 1;
#X obj 101 109 tgl 15 0 t0 reset empty 17 7 0 10 -1 -4034 -1 0 1;
#X obj 118 109 tgl 15 0 t0 reset empty 17 7 0 10 -1 -4034 -1 0 1;
#X obj 135 109 tgl 15 0 t0 reset empty 17 7 0 10 -1 -4034 -1 0 1;
#X obj 152 109 tgl 15 0 t0 reset empty 17 7 0 10 -1 -4034 -1 0 1;
#X obj 169 109 tgl 15 0 t0 reset empty 17 7 0 10 -1 -4034 -1 0 1;
#X obj 186 109 tgl 15 0 t0 reset empty 17 7 0 10 -1 -4034 -1 0 1;
#X obj 84 126 tgl 15 0 t0 reset empty 17 7 0 10 -1 -4034 -1 0 1;
#X obj 101 126 tgl 15 0 t0 reset empty 17 7 0 10 -1 -4034 -1 0 1;
#X obj 118 126 tgl 15 0 t0 reset empty 17 7 0 10 -1 -4034 -1 0 1;
#X obj 135 126 tgl 15 0 t0 reset empty 17 7 0 10 -1 -4034 -1 0 1;
#X obj 152 126 tgl 15 0 t0 reset empty 17 7 0 10 -1 -4034 -1 0 1;
#X obj 169 126 tgl 15 0 t0 reset empty 17 7 0 10 -1 -4034 -1 0 1;
#X obj 186 126 tgl 15 0 t0 reset empty 17 7 0 10 -1 -4034 -1 0 1;
#X obj 84 143 tgl 15 0 t0 reset empty 17 7 0 10 -1 -4034 -1 0 1;
#X obj 101 143 tgl 15 0 t0 reset empty 17 7 0 10 -1 -4034 -1 0 1;
#X obj 118 143 tgl 15 0 t0 reset empty 17 7 0 10 -1 -4034 -1 0 1;
#X obj 135 143 tgl 15 0 t0 reset empty 17 7 0 10 -1 -4034 -1 0 1;
#X obj 152 143 tgl 15 0 t0 reset empty 17 7 0 10 -1 -4034 -1 0 1;
#X obj 169 143 tgl 15 0 t0 reset empty 17 7 0 10 -1 -4034 -1 0 1;
#X obj 186 143 tgl 15 0 t0 reset empty 17 7 0 10 -1 -4034 -1 0 1;
#X obj 84 160 tgl 15 0 t0 reset empty 17 7 0 10 -1 -4034 -1 0 1;
#X obj 101 160 tgl 15 0 t0 reset empty 17 7 0 10 -1 -4034 -1 0 1;
#X obj 118 160 tgl 15 0 t0 reset empty 17 7 0 10 -1 -4034 -1 0 1;
#X obj 135 160 tgl 15 0 t0 reset empty 17 7 0 10 -1 -4034 -1 0 1;
#X obj 152 160 tgl 15 0 t0 reset empty 17 7 0 10 -1 -4034 -1 0 1;
#X obj 169 160 tgl 15 0 t0 reset empty 17 7 0 10 -1 -4034 -1 0 1;
#X obj 186 160 tgl 15 0 t0 reset empty 17 7 0 10 -1 -4034 -1 0 1;
#X obj 666 269 + 0, f 7;
#X obj 666 245 f 0, f 5;
#X obj 666 292 t f f;
#X obj 666 222 t b f, f 7;
#X floatatom 666 315 5 0 0 0 - - -;
#X obj 597 91 f 0;
#X obj 666 337 expr ($f1 + 49) % 49;
#X obj 666 360 t f f, f 16;
#X obj 759 418 outlet;
#X obj 597 11 inlet;
#X obj 597 64 t b;
#X msg 883 229 0;
#X obj 883 252 s reset;
#X obj 883 11 inlet;
#X obj 79 448 sel 0 1 2 3 4 5 6 7 8 9 10 11 12 13 14 15 16 17 18 19
20 21 22 23 24 25 26 27 28 29 30 31 32 33 34 35 36 37 38 39 40 41 42
43 44 45 46 47 48, f 142;
#X connect 1 0 64 1;
#X connect 2 0 3 0;
#X connect 2 1 7 0;
#X connect 3 0 4 0;
#X connect 4 0 5 0;
#X connect 4 1 6 0;
#X connect 5 0 62 0;
#X connect 6 0 62 0;
#X connect 7 0 8 0;
#X connect 8 0 9 0;
#X connect 8 1 10 0;
#X connect 9 0 62 0;
#X connect 10 0 62 0;
#X connect 59 0 61 0;
#X connect 60 0 59 0;
#X connect 61 0 63 0;
#X connect 61 1 60 1;
#X connect 62 0 60 0;
#X connect 62 1 59 1;
#X connect 63 0 65 0;
#X connect 64 0 2 0;
#X connect 65 0 66 0;
#X connect 66 0 73 0;
#X connect 66 1 67 0;
#X connect 68 0 69 0;
#X connect 69 0 64 0;
#X connect 70 0 71 0;
#X connect 70 0 60 1;
#X connect 70 0 59 1;
#X connect 72 0 70 0;
#X connect 73 0 0 0;
#X connect 73 1 11 0;
#X connect 73 2 12 0;
#X connect 73 3 13 0;
#X connect 73 4 14 0;
#X connect 73 5 15 0;
#X connect 73 6 16 0;
#X connect 73 7 17 0;
#X connect 73 8 18 0;
#X connect 73 9 19 0;
#X connect 73 10 20 0;
#X connect 73 11 21 0;
#X connect 73 12 22 0;
#X connect 73 13 23 0;
#X connect 73 14 24 0;
#X connect 73 15 25 0;
#X connect 73 16 26 0;
#X connect 73 17 27 0;
#X connect 73 18 28 0;
#X connect 73 19 29 0;
#X connect 73 20 30 0;
#X connect 73 21 31 0;
#X connect 73 22 32 0;
#X connect 73 23 33 0;
#X connect 73 24 34 0;
#X connect 73 25 35 0;
#X connect 73 26 36 0;
#X connect 73 27 37 0;
#X connect 73 28 38 0;
#X connect 73 29 39 0;
#X connect 73 30 40 0;
#X connect 73 31 41 0;
#X connect 73 32 42 0;
#X connect 73 33 43 0;
#X connect 73 34 44 0;
#X connect 73 35 45 0;
#X connect 73 36 46 0;
#X connect 73 37 47 0;
#X connect 73 38 48 0;
#X connect 73 39 49 0;
#X connect 73 40 50 0;
#X connect 73 41 51 0;
#X connect 73 42 52 0;
#X connect 73 43 53 0;
#X connect 73 44 54 0;
#X connect 73 45 55 0;
#X connect 73 46 56 0;
#X connect 73 47 57 0;
#X connect 73 48 58 0;
#X coords 0 -1 1 1 130 130 2 78 52;
