#N canvas 779 343 581 371 10;
#X obj 42 139 f;
#X obj 42 162 mtof;
#X obj 42 185 osc~;
#X obj 42 224 *~;
#X obj 77 185 vline~;
#X obj 42 34 inlet;
#X obj 99 33 inlet;
#X obj 42 116 t f b;
#X obj 41 273 outlet~;
#X obj 145 33 inlet;
#X obj 76 208 pow~ 4, f 12;
#X obj 78 139 f \$2;
#X obj 169 192 f \$3;
#X msg 77 162 1 10 \, 0.75 10 10 \, 0 \$1 20;
#X connect 0 0 1 0;
#X connect 1 0 2 0;
#X connect 2 0 3 0;
#X connect 3 0 8 0;
#X connect 4 0 10 0;
#X connect 5 0 7 0;
#X connect 6 0 11 1;
#X connect 7 0 0 0;
#X connect 7 1 11 0;
#X connect 7 1 12 0;
#X connect 9 0 10 1;
#X connect 10 0 3 1;
#X connect 11 0 13 0;
#X connect 12 0 10 1;
#X connect 13 0 4 0;
