#N canvas 89 322 818 440 10;
#X obj 44 122 t f f;
#X obj 44 75 f 0.5;
#X obj 44 99 expr fmod(abs(sin($f1) * 5 + random(-1 \, 1) * $f2) \,
1);
#X obj 44 316 outlet;
#X obj 293 316 outlet;
#X obj 44 13 inlet;
#X obj 44 51 t b;
#X obj 359 13 inlet;
#X obj 44 145 expr if($f1 > (random(1 \, 100)*0.01) \, 1 \, 0);
#X obj 359 74 clip 0.1 10;
#X obj 359 51 / 10;
#X obj 44 171 sel 1, f 42;
#X obj 44 204 spigot;
#X obj 293 204 spigot;
#X obj 129 203 spigot;
#X obj 203 13 inlet;
#X obj 203 71 clip 0 1;
#X obj 116 33 loadbang;
#X obj 209 203 spigot;
#X msg 116 55 0;
#X obj 90 204 == 0;
#X obj 339 204 == 0;
#X obj 174 203 == 1;
#X obj 254 203 == 1;
#X connect 0 0 8 0;
#X connect 0 1 1 1;
#X connect 1 0 2 0;
#X connect 2 0 0 0;
#X connect 5 0 6 0;
#X connect 6 0 1 0;
#X connect 7 0 10 0;
#X connect 8 0 11 0;
#X connect 9 0 2 1;
#X connect 10 0 9 0;
#X connect 11 0 12 0;
#X connect 11 0 14 0;
#X connect 11 1 13 0;
#X connect 11 1 18 0;
#X connect 12 0 3 0;
#X connect 13 0 4 0;
#X connect 14 0 4 0;
#X connect 15 0 16 0;
#X connect 16 0 20 0;
#X connect 16 0 21 0;
#X connect 16 0 22 0;
#X connect 16 0 23 0;
#X connect 17 0 19 0;
#X connect 18 0 3 0;
#X connect 19 0 16 0;
#X connect 20 0 12 1;
#X connect 21 0 13 1;
#X connect 22 0 14 1;
#X connect 23 0 18 1;
#X coords 0 440 1 439 60 25 0;
