#N canvas 541 187 369 525 10;
#X obj 130 144 f 0;
#X obj 157 144 + 1;
#X obj 130 191 change -1;
#X obj 130 305 sel 1;
#X obj 130 369 outlet;
#X obj 130 23 inlet;
#X obj 130 168 div \$1;
#X obj 130 214 + \$2;
#X obj 130 237 * \$3;
#X obj 130 283 < \$3;
#X obj 130 260 % \$4;
#X text 175 168 div;
#X text 162 214 offset;
#X text 164 237 hit;
#X text 163 260 len;
#X connect 0 0 1 0;
#X connect 0 0 6 0;
#X connect 1 0 0 1;
#X connect 2 0 7 0;
#X connect 3 0 4 0;
#X connect 5 0 0 0;
#X connect 6 0 2 0;
#X connect 7 0 8 0;
#X connect 8 0 10 0;
#X connect 9 0 3 0;
#X connect 10 0 9 0;
#X coords 0 525 1 524 160 60 0;
