#N canvas 162 195 1065 549 10;
#X obj 88 81 random 3, f 9;
#X obj 88 154 i 0;
#X obj 88 106 sel 0 1 2, f 102;
#X obj 88 129 t b b, f 17;
#X obj 187 152 i 0;
#X obj 88 321 expr if($f2-$f1<=5 \, $f1-1 \, $f1) \; if($f2-$f1>=7
\, $f2-1 \, $f2);
#X obj 291 154 i 0;
#X obj 291 129 t b b, f 17;
#X obj 390 152 i 0;
#X obj 291 261 expr if($f2-$f1>=4 \, $f1+1 \, $f1) \; if($f2-$f1<=3
\, $f2+1 \, $f2);
#X obj 494 154 i 0;
#X obj 494 129 t b b, f 17;
#X obj 593 152 i 0;
#X obj 494 201 expr if($f2-$f1>=4 \, $f1-1 \, $f1) \; if($f2-$f1<=3
\, $f2+1 \, $f2);
#X obj 291 496 outlet;
#X obj 291 442 t f f, f 6;
#X obj 683 496 outlet;
#X obj 683 442 t f f, f 6;
#X obj 494 496 outlet;
#X obj 494 442 t f f, f 6;
#X obj 291 465 + 0;
#X obj 494 465 + 0;
#X obj 683 465 + 0;
#X obj 88 37 inlet;
#X obj 699 44 inlet;
#X obj 291 419 % 6;
#X obj 494 419 % 6;
#X obj 683 419 % 6;
#X connect 0 0 2 0;
#X connect 1 0 5 0;
#X connect 2 0 3 0;
#X connect 2 1 7 0;
#X connect 2 2 11 0;
#X connect 3 0 1 0;
#X connect 3 1 4 0;
#X connect 4 0 5 1;
#X connect 5 0 25 0;
#X connect 5 1 27 0;
#X connect 6 0 9 0;
#X connect 7 0 6 0;
#X connect 7 1 8 0;
#X connect 8 0 9 1;
#X connect 9 0 25 0;
#X connect 9 1 26 0;
#X connect 10 0 13 0;
#X connect 11 0 10 0;
#X connect 11 1 12 0;
#X connect 12 0 13 1;
#X connect 13 0 26 0;
#X connect 13 1 27 0;
#X connect 15 0 20 0;
#X connect 15 1 1 1;
#X connect 15 1 6 1;
#X connect 17 0 22 0;
#X connect 17 1 4 1;
#X connect 17 1 12 1;
#X connect 19 0 21 0;
#X connect 19 1 8 1;
#X connect 19 1 10 1;
#X connect 20 0 14 0;
#X connect 21 0 18 0;
#X connect 22 0 16 0;
#X connect 23 0 0 0;
#X connect 24 0 20 1;
#X connect 24 0 21 1;
#X connect 24 0 22 1;
#X connect 25 0 15 0;
#X connect 26 0 19 0;
#X connect 27 0 17 0;
