#N canvas 544 135 697 613 10;
#X obj 57 149 f;
#X obj 57 220 sel 1 0, f 12;
#X obj 57 270 f;
#X obj 57 293 + 1;
#X obj 91 270 f;
#X obj 91 293 + 1;
#X obj 57 356 /;
#X obj 91 316 t b f;
#X msg 121 133 0;
#X obj 57 172 < 0.2;
#X obj 151 156 / 12;
#X obj 57 62 bng 15 250 50 0 empty empty empty 17 7 0 10 -262144 -191407
-1;
#X obj 57 195 t f f, f 20;
#X obj 57 409 outlet;
#X obj 174 409 outlet;
#X obj 57 9 inlet;
#X obj 76 62 nbx 2 15 2 24 0 0 empty empty pts 0 22 0 10 -262144 -1
-1 7 256;
#X obj 121 62 bng 15 250 50 0 empty empty reset 0 22 0 10 -262144 -1
-1;
#X obj 121 9 inlet;
#X connect 0 0 9 0;
#X connect 1 0 2 0;
#X connect 1 1 4 0;
#X connect 2 0 3 0;
#X connect 3 0 2 1;
#X connect 3 0 6 0;
#X connect 4 0 5 0;
#X connect 5 0 4 1;
#X connect 5 0 7 0;
#X connect 6 0 0 1;
#X connect 6 0 13 0;
#X connect 7 0 6 0;
#X connect 7 1 6 1;
#X connect 8 0 0 1;
#X connect 8 0 2 0;
#X connect 8 0 4 0;
#X connect 9 0 12 0;
#X connect 10 0 9 1;
#X connect 11 0 0 0;
#X connect 12 0 1 0;
#X connect 12 1 14 0;
#X connect 15 0 11 0;
#X connect 16 0 10 0;
#X connect 17 0 8 0;
#X connect 18 0 17 0;
#X coords 0 -1 1 1 105 60 1 50 35;
