#N canvas 326 145 1003 580 10;
#X obj 138 96 bng 15 250 50 0 empty empty rnd 17 7 0 10 -262144 -191407
-1;
#X obj 282 324 f;
#X text 352 192 up/down;
#X obj 258 324 f;
#X text 319 217 how many in sequence?;
#X text 279 242 interval between notes;
#X obj 219 143 t b b b b, f 20;
#X obj 204 324 f;
#X obj 336 169 random 7;
#X text 396 169 where begin sequence?;
#X obj 321 347 f;
#X floatatom 180 96 3 0 0 1 r - -;
#X obj 282 347 sel 0;
#X floatatom 306 457 5 0 0 1 init - -;
#X floatatom 336 300 5 0 0 0 - - -;
#X floatatom 297 300 5 0 0 0 - - -;
#X floatatom 258 300 5 0 0 0 - - -;
#X floatatom 219 300 5 0 0 0 - - -;
#X obj 297 192 random 2;
#X obj 282 371 + 0;
#X obj 306 371 - 0;
#X obj 306 420 + 0;
#X obj 336 322 t b f;
#X obj 306 394 - 1;
#X obj 219 278 + 1;
#X obj 204 423 sel 0;
#X obj 204 446 - 0;
#X obj 231 446 + 0;
#X obj 204 402 f;
#X obj 204 472 + 0;
#X floatatom 204 495 5 0 0 1 sequence - -;
#X obj 97 96 bng 15 250 50 0 empty empty trg 17 7 0 10 -262144 -1 -1
;
#X obj 97 374 f;
#X obj 124 374 + 1;
#X floatatom 97 397 5 0 0 0 - - -;
#X obj 97 494 bng 15 250 50 0 empty empty end 17 7 0 10 -262144 -1
-1;
#X floatatom 97 442 5 0 0 0 - - -;
#X obj 136 441 - 1;
#X msg 66 374 0;
#X obj 97 463 sel 0, f 7;
#X obj 97 419 % 1;
#X obj 258 278 + 3;
#X obj 204 518 pipe 20;
#X obj 97 27 inlet;
#X obj 211 27 inlet;
#X obj 142 548 outlet;
#X obj 405 508 outlet;
#X obj 219 241 random 5;
#X obj 258 217 random 7;
#X floatatom 169 73 5 0 0 0 seed - -;
#X msg 381 88 seed \$1;
#X connect 0 0 6 0;
#X connect 1 0 12 0;
#X connect 3 0 40 1;
#X connect 3 0 37 0;
#X connect 6 0 1 0;
#X connect 6 0 7 0;
#X connect 6 0 47 0;
#X connect 6 1 48 0;
#X connect 6 2 18 0;
#X connect 6 3 8 0;
#X connect 7 0 26 1;
#X connect 7 0 27 1;
#X connect 8 0 14 0;
#X connect 10 0 20 1;
#X connect 10 0 19 1;
#X connect 11 0 21 1;
#X connect 12 0 19 0;
#X connect 12 1 20 0;
#X connect 13 0 29 1;
#X connect 14 0 22 0;
#X connect 15 0 1 1;
#X connect 15 0 28 1;
#X connect 16 0 3 0;
#X connect 17 0 7 1;
#X connect 18 0 15 0;
#X connect 19 0 21 0;
#X connect 20 0 23 0;
#X connect 21 0 13 0;
#X connect 22 0 10 0;
#X connect 22 1 10 1;
#X connect 23 0 21 0;
#X connect 24 0 17 0;
#X connect 25 0 26 0;
#X connect 25 1 27 0;
#X connect 26 0 29 0;
#X connect 27 0 29 0;
#X connect 28 0 25 0;
#X connect 29 0 30 0;
#X connect 30 0 42 0;
#X connect 30 0 45 0;
#X connect 31 0 32 0;
#X connect 31 0 28 0;
#X connect 32 0 33 0;
#X connect 32 0 34 0;
#X connect 33 0 32 1;
#X connect 34 0 40 0;
#X connect 35 0 0 0;
#X connect 35 0 46 0;
#X connect 36 0 39 0;
#X connect 37 0 39 1;
#X connect 38 0 32 0;
#X connect 39 0 35 0;
#X connect 39 0 38 0;
#X connect 40 0 36 0;
#X connect 41 0 16 0;
#X connect 42 0 13 0;
#X connect 43 0 31 0;
#X connect 44 0 11 0;
#X connect 47 0 24 0;
#X connect 48 0 41 0;
#X connect 49 0 50 0;
#X connect 50 0 47 0;
#X connect 50 0 48 0;
#X connect 50 0 8 0;
#X coords 0 -1 1 1 125 60 1 90 60;
