#N canvas 322 191 851 520 10;
#X obj 131 39 inlet;
#X obj 131 167 t f f f f, f 46;
#X obj 131 306 spigot;
#X obj 164 283 == 0;
#X obj 222 306 spigot;
#X obj 255 283 == 1;
#X obj 278 132 *, f 5;
#X obj 278 108 t f f;
#X obj 131 144 i 1, f 4;
#X obj 131 283 %;
#X obj 222 283 %;
#X obj 131 190 - 1;
#X obj 222 190 + 1;
#X obj 332 212 i;
#X obj 313 260 +;
#X obj 313 306 spigot;
#X obj 313 283 %;
#X obj 346 283 == 2;
#X obj 423 212 i;
#X obj 404 306 spigot;
#X obj 404 283 %;
#X obj 437 283 == 3;
#X obj 404 260 -;
#X obj 313 190 t f b f;
#X obj 404 190 t f b f;
#X obj 332 235 *, f 4;
#X obj 423 235 *, f 4;
#X obj 152 102 random;
#X obj 278 86 i \$1;
#X obj 131 70 t b b b b, f 11;
#X obj 173 144 random 4;
#X obj 222 372 outlet;
#X connect 0 0 29 0;
#X connect 1 0 11 0;
#X connect 1 1 12 0;
#X connect 1 2 23 0;
#X connect 1 3 24 0;
#X connect 2 0 31 0;
#X connect 3 0 2 1;
#X connect 4 0 31 0;
#X connect 5 0 4 1;
#X connect 6 0 10 1;
#X connect 6 0 9 1;
#X connect 6 0 16 1;
#X connect 6 0 20 1;
#X connect 7 0 6 0;
#X connect 7 1 6 1;
#X connect 7 1 13 1;
#X connect 7 1 18 1;
#X connect 8 0 1 0;
#X connect 9 0 2 0;
#X connect 10 0 4 0;
#X connect 11 0 9 0;
#X connect 12 0 10 0;
#X connect 13 0 25 0;
#X connect 14 0 16 0;
#X connect 15 0 31 0;
#X connect 16 0 15 0;
#X connect 17 0 15 1;
#X connect 18 0 26 0;
#X connect 19 0 31 0;
#X connect 20 0 19 0;
#X connect 21 0 19 1;
#X connect 22 0 20 0;
#X connect 23 0 14 0;
#X connect 23 1 13 0;
#X connect 23 2 25 1;
#X connect 24 0 22 0;
#X connect 24 1 18 0;
#X connect 24 2 26 1;
#X connect 25 0 14 1;
#X connect 26 0 22 1;
#X connect 27 0 8 1;
#X connect 28 0 7 0;
#X connect 28 0 27 1;
#X connect 29 0 8 0;
#X connect 29 1 27 0;
#X connect 29 2 30 0;
#X connect 29 3 28 0;
#X connect 30 0 3 0;
#X connect 30 0 5 0;
#X connect 30 0 17 0;
#X connect 30 0 21 0;
