#N canvas 574 130 775 609 10;
#X obj 199 257 random 6;
#X msg 199 166 \$1;
#X obj 199 189 until;
#X obj 199 212 f 0;
#X obj 226 212 + 1;
#X obj 251 212 % 2;
#X obj 199 328 t f b, f 9;
#X obj 199 473 list append;
#X obj 199 498 list store, f 11;
#X obj 199 120 t f f b, f 23;
#X obj 199 303 change -1;
#X obj 199 235 bang;
#X obj 319 233 f 0;
#X obj 346 233 + 1;
#X msg 334 166 0;
#X obj 319 256 + 1;
#X obj 319 302 sel, f 7;
#X obj 199 143 * 2;
#X obj 380 257 random 6;
#X msg 380 166 \$1;
#X obj 380 189 until;
#X obj 380 212 f 0;
#X obj 407 212 + 1;
#X obj 432 212 % 2;
#X obj 380 340 t f b, f 9;
#X obj 380 120 t f f b, f 23;
#X obj 380 303 change -1;
#X obj 380 235 bang;
#X obj 500 233 f 0;
#X obj 527 233 + 1;
#X msg 515 166 0;
#X obj 500 256 + 1;
#X obj 500 302 sel, f 7;
#X obj 380 143 * 2;
#X obj 561 257 random 6;
#X msg 561 166 \$1;
#X obj 561 189 until;
#X obj 561 212 f 0;
#X obj 588 212 + 1;
#X obj 613 212 % 2;
#X obj 561 363 t f b, f 9;
#X obj 561 120 t f f b, f 23;
#X obj 561 303 change -1;
#X obj 561 235 bang;
#X obj 681 233 f 0;
#X obj 708 233 + 1;
#X msg 696 166 0;
#X obj 681 256 + 1;
#X obj 681 302 sel, f 7;
#X obj 561 143 * 2;
#X obj 199 379 +;
#X obj 199 402 / 18;
#X obj 199 425 clip 0 1;
#X obj 199 356 +;
#X obj 199 448 t f b;
#X obj 199 280 + 1;
#X obj 380 280 + 1;
#X obj 561 280 + 1;
#X obj 92 10 inlet;
#X obj 92 89 f 0;
#X obj 119 89 + 1;
#X obj 144 89 % 2;
#X obj 107 44 r sync;
#X msg 107 67 0;
#X msg 92 482 get \$1 1;
#X obj 199 521 spigot, f 11;
#X obj 199 95 t f f f b, f 91;
#X msg 742 505 0;
#X msg 319 476 1;
#X obj 319 325 t b b;
#X obj 199 562 outlet;
#X obj 199 73 i \$1;
#X obj 266 57 loadbang;
#X obj 199 10 inlet;
#X obj 199 51 bang;
#X obj 319 447 del 10;
#X connect 0 0 55 0;
#X connect 1 0 2 0;
#X connect 2 0 3 0;
#X connect 3 0 4 0;
#X connect 3 0 11 0;
#X connect 4 0 5 0;
#X connect 5 0 3 1;
#X connect 6 0 53 0;
#X connect 6 1 12 0;
#X connect 7 0 8 1;
#X connect 8 0 7 1;
#X connect 8 0 65 0;
#X connect 9 0 17 0;
#X connect 9 1 5 1;
#X connect 9 1 16 1;
#X connect 9 2 14 0;
#X connect 10 0 6 0;
#X connect 11 0 0 0;
#X connect 12 0 13 0;
#X connect 12 0 15 0;
#X connect 13 0 12 1;
#X connect 14 0 3 1;
#X connect 14 0 12 1;
#X connect 15 0 16 0;
#X connect 16 0 69 0;
#X connect 17 0 1 0;
#X connect 18 0 56 0;
#X connect 19 0 20 0;
#X connect 20 0 21 0;
#X connect 21 0 22 0;
#X connect 21 0 27 0;
#X connect 22 0 23 0;
#X connect 23 0 21 1;
#X connect 24 0 53 1;
#X connect 24 1 28 0;
#X connect 25 0 33 0;
#X connect 25 1 23 1;
#X connect 25 1 32 1;
#X connect 25 2 30 0;
#X connect 26 0 24 0;
#X connect 27 0 18 0;
#X connect 28 0 29 0;
#X connect 28 0 31 0;
#X connect 29 0 28 1;
#X connect 30 0 21 1;
#X connect 30 0 28 1;
#X connect 31 0 32 0;
#X connect 32 0 20 1;
#X connect 33 0 19 0;
#X connect 34 0 57 0;
#X connect 35 0 36 0;
#X connect 36 0 37 0;
#X connect 37 0 38 0;
#X connect 37 0 43 0;
#X connect 38 0 39 0;
#X connect 39 0 37 1;
#X connect 40 0 50 1;
#X connect 40 1 44 0;
#X connect 41 0 49 0;
#X connect 41 1 39 1;
#X connect 41 1 48 1;
#X connect 41 2 46 0;
#X connect 42 0 40 0;
#X connect 43 0 34 0;
#X connect 44 0 45 0;
#X connect 44 0 47 0;
#X connect 45 0 44 1;
#X connect 46 0 37 1;
#X connect 46 0 44 1;
#X connect 47 0 48 0;
#X connect 48 0 36 1;
#X connect 49 0 35 0;
#X connect 50 0 51 0;
#X connect 51 0 52 0;
#X connect 52 0 54 0;
#X connect 53 0 50 0;
#X connect 54 0 7 0;
#X connect 54 1 8 0;
#X connect 55 0 10 0;
#X connect 56 0 26 0;
#X connect 57 0 42 0;
#X connect 58 0 59 0;
#X connect 59 0 60 0;
#X connect 59 0 64 0;
#X connect 60 0 61 0;
#X connect 61 0 59 1;
#X connect 62 0 63 0;
#X connect 63 0 59 1;
#X connect 64 0 8 0;
#X connect 65 0 70 0;
#X connect 66 0 9 0;
#X connect 66 1 25 0;
#X connect 66 2 41 0;
#X connect 66 3 8 1;
#X connect 66 3 67 0;
#X connect 67 0 65 1;
#X connect 68 0 65 1;
#X connect 69 0 75 0;
#X connect 69 1 2 1;
#X connect 71 0 61 1;
#X connect 71 0 66 0;
#X connect 72 0 71 0;
#X connect 73 0 74 0;
#X connect 74 0 71 0;
#X connect 75 0 68 0;
