#N canvas 583 208 497 487 10;
#X obj 82 253 /~;
#X obj 96 154 osc~;
#X obj 96 205 *~;
#X obj 96 228 +~ 1;
#X obj 82 276 -~ 0.5;
#X obj 26 306 bp~ 1 34;
#X obj 83 306 bp~ 1 34;
#X obj 84 338 clip~ -1 1;
#X msg 264 157 280 2250 2900;
#X obj 134 228 unpack f f f;
#X obj 140 306 bp~ 1 34;
#X msg 270 178 400 1900 2250;
#X msg 280 200 550 1770 2490;
#X msg 287 222 690 1660 2490;
#X msg 295 243 640 1190 2390;
#X msg 305 264 310 870 2250;
#X msg 311 287 450 1030 2380;
#X msg 317 308 500 1500 2500;
#X msg 326 330 710 1100 2640;
#X obj 216 29 inlet;
#X obj 216 75 clip 0 9;
#X obj 216 98 sel 0 1 2 3 4 5 6 7 8;
#X obj 96 103 mtof;
#X obj 96 29 inlet;
#X obj 85 451 outlet~;
#X obj 216 52 i 0;
#X obj 294 36 loadbang;
#X obj 96 177 *~ \$2;
#X obj 85 362 lop~ \$3;
#X obj 85 384 hip~ \$4;
#X obj 83 127 sig~ \$1;
#X connect 0 0 4 0;
#X connect 1 0 27 0;
#X connect 2 0 3 0;
#X connect 3 0 0 1;
#X connect 4 0 10 0;
#X connect 4 0 6 0;
#X connect 4 0 5 0;
#X connect 5 0 7 0;
#X connect 6 0 7 0;
#X connect 7 0 28 0;
#X connect 8 0 9 0;
#X connect 9 0 5 1;
#X connect 9 1 6 1;
#X connect 9 2 10 1;
#X connect 10 0 7 0;
#X connect 11 0 9 0;
#X connect 12 0 9 0;
#X connect 13 0 9 0;
#X connect 14 0 9 0;
#X connect 15 0 9 0;
#X connect 16 0 9 0;
#X connect 17 0 9 0;
#X connect 18 0 9 0;
#X connect 19 0 25 0;
#X connect 20 0 21 0;
#X connect 21 0 8 0;
#X connect 21 1 11 0;
#X connect 21 2 12 0;
#X connect 21 3 13 0;
#X connect 21 4 14 0;
#X connect 21 5 15 0;
#X connect 21 6 16 0;
#X connect 21 7 17 0;
#X connect 21 8 18 0;
#X connect 22 0 1 0;
#X connect 23 0 22 0;
#X connect 25 0 20 0;
#X connect 26 0 25 0;
#X connect 27 0 2 0;
#X connect 27 0 2 1;
#X connect 28 0 29 0;
#X connect 29 0 24 0;
#X connect 30 0 0 0;
