#N canvas 18 179 757 583 10;
#X obj 258 171 gemwin;
#X obj 258 90 sel 0 1;
#X msg 258 140 destroy;
#X obj 61 87 i;
#X obj 61 134 f 0;
#X obj 87 134 + 1;
#N canvas 693 172 588 561 atom 0;
#X obj 136 98 gemhead;
#X floatatom 171 299 5 0 0 0 - - -;
#X obj 136 464 circle 0.2;
#X floatatom 206 300 5 0 0 0 - - -;
#X obj 171 255 / 2;
#X obj 206 277 - 4;
#X obj 206 255 / 14;
#X obj 253 371 t f b;
#X msg 253 394 \$1 100;
#X obj 325 387 del 100;
#X obj 253 448 line;
#X floatatom 159 199 5 0 0 0 - - -;
#X floatatom 194 200 5 0 0 0 - - -;
#X floatatom 230 200 5 0 0 0 - - -;
#X obj 136 226 colorRGB, f 16;
#X obj 159 124 t f f f, f 15;
#X obj 159 147 % 100;
#X obj 159 170 / 100;
#X obj 202 170 / 100;
#X obj 246 170 / 100;
#X obj 202 147 % 50;
#X obj 246 147 % 25;
#X obj 159 36 inlet;
#X obj 159 70 t f f;
#X obj 207 36 inlet;
#X obj 254 36 inlet;
#X obj 171 277 - 4;
#X obj 136 323 translateXYZ 0 2 -1;
#X obj 253 348 / 100;
#X obj 358 36 inlet;
#X msg 325 432 0 \$1;
#X obj 325 410 f 1000;
#X connect 0 0 14 0;
#X connect 1 0 27 1;
#X connect 3 0 27 2;
#X connect 4 0 26 0;
#X connect 5 0 3 0;
#X connect 6 0 5 0;
#X connect 7 0 8 0;
#X connect 7 1 9 0;
#X connect 8 0 10 0;
#X connect 9 0 31 0;
#X connect 10 0 2 1;
#X connect 11 0 14 1;
#X connect 12 0 14 2;
#X connect 13 0 14 3;
#X connect 14 0 27 0;
#X connect 15 0 16 0;
#X connect 15 1 20 0;
#X connect 15 2 21 0;
#X connect 16 0 17 0;
#X connect 17 0 11 0;
#X connect 18 0 12 0;
#X connect 19 0 13 0;
#X connect 20 0 18 0;
#X connect 21 0 19 0;
#X connect 22 0 23 0;
#X connect 23 0 15 0;
#X connect 23 1 6 0;
#X connect 24 0 4 0;
#X connect 25 0 28 0;
#X connect 26 0 1 0;
#X connect 27 0 2 0;
#X connect 28 0 7 0;
#X connect 29 0 31 1;
#X connect 30 0 10 0;
#X connect 31 0 30 0;
#X restore 61 263 pd atom;
#X f 14;
#X obj 113 134 % 16;
#X obj 61 218 route 0 1 2 3 4 5 6 7 8 9 10 11 12 13 14 15, f 76;
#X msg 277 116 dimen 640 480 \, create \, 1;
#X obj 61 180 pack 0 0 0 0 0;
#X obj 61 241 unpack 0 0 0 0;
#X obj 61 110 t b f b, f 8;
#X obj 203 126 f \$1;
#X obj 258 44 inlet;
#X obj 61 42 inlet~;
#X obj 258 67 clip 0 1;
#N canvas 693 172 588 561 atom 0;
#X obj 136 98 gemhead;
#X floatatom 171 299 5 0 0 0 - - -;
#X obj 136 464 circle 0.2;
#X floatatom 206 300 5 0 0 0 - - -;
#X obj 171 255 / 2;
#X obj 206 277 - 4;
#X obj 206 255 / 14;
#X obj 253 371 t f b;
#X msg 253 394 \$1 100;
#X obj 325 387 del 100;
#X obj 253 448 line;
#X floatatom 159 199 5 0 0 0 - - -;
#X floatatom 194 200 5 0 0 0 - - -;
#X floatatom 230 200 5 0 0 0 - - -;
#X obj 136 226 colorRGB, f 16;
#X obj 159 124 t f f f, f 15;
#X obj 159 147 % 100;
#X obj 159 170 / 100;
#X obj 202 170 / 100;
#X obj 246 170 / 100;
#X obj 202 147 % 50;
#X obj 246 147 % 25;
#X obj 159 36 inlet;
#X obj 159 70 t f f;
#X obj 207 36 inlet;
#X obj 254 36 inlet;
#X obj 171 277 - 4;
#X obj 136 323 translateXYZ 0 2 -1;
#X obj 253 348 / 100;
#X obj 358 36 inlet;
#X msg 325 432 0 \$1;
#X obj 325 410 f 1000;
#X connect 0 0 14 0;
#X connect 1 0 27 1;
#X connect 3 0 27 2;
#X connect 4 0 26 0;
#X connect 5 0 3 0;
#X connect 6 0 5 0;
#X connect 7 0 8 0;
#X connect 7 1 9 0;
#X connect 8 0 10 0;
#X connect 9 0 31 0;
#X connect 10 0 2 1;
#X connect 11 0 14 1;
#X connect 12 0 14 2;
#X connect 13 0 14 3;
#X connect 14 0 27 0;
#X connect 15 0 16 0;
#X connect 15 1 20 0;
#X connect 15 2 21 0;
#X connect 16 0 17 0;
#X connect 17 0 11 0;
#X connect 18 0 12 0;
#X connect 19 0 13 0;
#X connect 20 0 18 0;
#X connect 21 0 19 0;
#X connect 22 0 23 0;
#X connect 23 0 15 0;
#X connect 23 1 6 0;
#X connect 24 0 4 0;
#X connect 25 0 28 0;
#X connect 26 0 1 0;
#X connect 27 0 2 0;
#X connect 28 0 7 0;
#X connect 29 0 31 1;
#X connect 30 0 10 0;
#X connect 31 0 30 0;
#X restore 89 308 pd atom;
#X f 14;
#X obj 89 286 unpack 0 0 0 0;
#N canvas 693 172 588 561 atom 0;
#X obj 136 98 gemhead;
#X floatatom 171 299 5 0 0 0 - - -;
#X obj 136 464 circle 0.2;
#X floatatom 206 300 5 0 0 0 - - -;
#X obj 171 255 / 2;
#X obj 206 277 - 4;
#X obj 206 255 / 14;
#X obj 253 371 t f b;
#X msg 253 394 \$1 100;
#X obj 325 387 del 100;
#X obj 253 448 line;
#X floatatom 159 199 5 0 0 0 - - -;
#X floatatom 194 200 5 0 0 0 - - -;
#X floatatom 230 200 5 0 0 0 - - -;
#X obj 136 226 colorRGB, f 16;
#X obj 159 124 t f f f, f 15;
#X obj 159 147 % 100;
#X obj 159 170 / 100;
#X obj 202 170 / 100;
#X obj 246 170 / 100;
#X obj 202 147 % 50;
#X obj 246 147 % 25;
#X obj 159 36 inlet;
#X obj 159 70 t f f;
#X obj 207 36 inlet;
#X obj 254 36 inlet;
#X obj 171 277 - 4;
#X obj 136 323 translateXYZ 0 2 -1;
#X obj 253 348 / 100;
#X obj 358 36 inlet;
#X msg 325 432 0 \$1;
#X obj 325 410 f 1000;
#X connect 0 0 14 0;
#X connect 1 0 27 1;
#X connect 3 0 27 2;
#X connect 4 0 26 0;
#X connect 5 0 3 0;
#X connect 6 0 5 0;
#X connect 7 0 8 0;
#X connect 7 1 9 0;
#X connect 8 0 10 0;
#X connect 9 0 31 0;
#X connect 10 0 2 1;
#X connect 11 0 14 1;
#X connect 12 0 14 2;
#X connect 13 0 14 3;
#X connect 14 0 27 0;
#X connect 15 0 16 0;
#X connect 15 1 20 0;
#X connect 15 2 21 0;
#X connect 16 0 17 0;
#X connect 17 0 11 0;
#X connect 18 0 12 0;
#X connect 19 0 13 0;
#X connect 20 0 18 0;
#X connect 21 0 19 0;
#X connect 22 0 23 0;
#X connect 23 0 15 0;
#X connect 23 1 6 0;
#X connect 24 0 4 0;
#X connect 25 0 28 0;
#X connect 26 0 1 0;
#X connect 27 0 2 0;
#X connect 28 0 7 0;
#X connect 29 0 31 1;
#X connect 30 0 10 0;
#X connect 31 0 30 0;
#X restore 117 353 pd atom;
#X f 14;
#X obj 117 331 unpack 0 0 0 0;
#N canvas 693 172 588 561 atom 0;
#X obj 136 98 gemhead;
#X floatatom 171 299 5 0 0 0 - - -;
#X obj 136 464 circle 0.2;
#X floatatom 206 300 5 0 0 0 - - -;
#X obj 171 255 / 2;
#X obj 206 277 - 4;
#X obj 206 255 / 14;
#X obj 253 371 t f b;
#X msg 253 394 \$1 100;
#X obj 325 387 del 100;
#X obj 253 448 line;
#X floatatom 159 199 5 0 0 0 - - -;
#X floatatom 194 200 5 0 0 0 - - -;
#X floatatom 230 200 5 0 0 0 - - -;
#X obj 136 226 colorRGB, f 16;
#X obj 159 124 t f f f, f 15;
#X obj 159 147 % 100;
#X obj 159 170 / 100;
#X obj 202 170 / 100;
#X obj 246 170 / 100;
#X obj 202 147 % 50;
#X obj 246 147 % 25;
#X obj 159 36 inlet;
#X obj 159 70 t f f;
#X obj 207 36 inlet;
#X obj 254 36 inlet;
#X obj 171 277 - 4;
#X obj 136 323 translateXYZ 0 2 -1;
#X obj 253 348 / 100;
#X obj 358 36 inlet;
#X msg 325 432 0 \$1;
#X obj 325 410 f 1000;
#X connect 0 0 14 0;
#X connect 1 0 27 1;
#X connect 3 0 27 2;
#X connect 4 0 26 0;
#X connect 5 0 3 0;
#X connect 6 0 5 0;
#X connect 7 0 8 0;
#X connect 7 1 9 0;
#X connect 8 0 10 0;
#X connect 9 0 31 0;
#X connect 10 0 2 1;
#X connect 11 0 14 1;
#X connect 12 0 14 2;
#X connect 13 0 14 3;
#X connect 14 0 27 0;
#X connect 15 0 16 0;
#X connect 15 1 20 0;
#X connect 15 2 21 0;
#X connect 16 0 17 0;
#X connect 17 0 11 0;
#X connect 18 0 12 0;
#X connect 19 0 13 0;
#X connect 20 0 18 0;
#X connect 21 0 19 0;
#X connect 22 0 23 0;
#X connect 23 0 15 0;
#X connect 23 1 6 0;
#X connect 24 0 4 0;
#X connect 25 0 28 0;
#X connect 26 0 1 0;
#X connect 27 0 2 0;
#X connect 28 0 7 0;
#X connect 29 0 31 1;
#X connect 30 0 10 0;
#X connect 31 0 30 0;
#X restore 145 398 pd atom;
#X f 14;
#X obj 145 376 unpack 0 0 0 0;
#N canvas 693 172 588 561 atom 0;
#X obj 136 98 gemhead;
#X floatatom 171 299 5 0 0 0 - - -;
#X obj 136 464 circle 0.2;
#X floatatom 206 300 5 0 0 0 - - -;
#X obj 171 255 / 2;
#X obj 206 277 - 4;
#X obj 206 255 / 14;
#X obj 253 371 t f b;
#X msg 253 394 \$1 100;
#X obj 325 387 del 100;
#X obj 253 448 line;
#X floatatom 159 199 5 0 0 0 - - -;
#X floatatom 194 200 5 0 0 0 - - -;
#X floatatom 230 200 5 0 0 0 - - -;
#X obj 136 226 colorRGB, f 16;
#X obj 159 124 t f f f, f 15;
#X obj 159 147 % 100;
#X obj 159 170 / 100;
#X obj 202 170 / 100;
#X obj 246 170 / 100;
#X obj 202 147 % 50;
#X obj 246 147 % 25;
#X obj 159 36 inlet;
#X obj 159 70 t f f;
#X obj 207 36 inlet;
#X obj 254 36 inlet;
#X obj 171 277 - 4;
#X obj 136 323 translateXYZ 0 2 -1;
#X obj 253 348 / 100;
#X obj 358 36 inlet;
#X msg 325 432 0 \$1;
#X obj 325 410 f 1000;
#X connect 0 0 14 0;
#X connect 1 0 27 1;
#X connect 3 0 27 2;
#X connect 4 0 26 0;
#X connect 5 0 3 0;
#X connect 6 0 5 0;
#X connect 7 0 8 0;
#X connect 7 1 9 0;
#X connect 8 0 10 0;
#X connect 9 0 31 0;
#X connect 10 0 2 1;
#X connect 11 0 14 1;
#X connect 12 0 14 2;
#X connect 13 0 14 3;
#X connect 14 0 27 0;
#X connect 15 0 16 0;
#X connect 15 1 20 0;
#X connect 15 2 21 0;
#X connect 16 0 17 0;
#X connect 17 0 11 0;
#X connect 18 0 12 0;
#X connect 19 0 13 0;
#X connect 20 0 18 0;
#X connect 21 0 19 0;
#X connect 22 0 23 0;
#X connect 23 0 15 0;
#X connect 23 1 6 0;
#X connect 24 0 4 0;
#X connect 25 0 28 0;
#X connect 26 0 1 0;
#X connect 27 0 2 0;
#X connect 28 0 7 0;
#X connect 29 0 31 1;
#X connect 30 0 10 0;
#X connect 31 0 30 0;
#X restore 174 263 pd atom;
#X f 14;
#X obj 174 241 unpack 0 0 0 0;
#N canvas 693 172 588 561 atom 0;
#X obj 136 98 gemhead;
#X floatatom 171 299 5 0 0 0 - - -;
#X obj 136 464 circle 0.2;
#X floatatom 206 300 5 0 0 0 - - -;
#X obj 171 255 / 2;
#X obj 206 277 - 4;
#X obj 206 255 / 14;
#X obj 253 371 t f b;
#X msg 253 394 \$1 100;
#X obj 325 387 del 100;
#X obj 253 448 line;
#X floatatom 159 199 5 0 0 0 - - -;
#X floatatom 194 200 5 0 0 0 - - -;
#X floatatom 230 200 5 0 0 0 - - -;
#X obj 136 226 colorRGB, f 16;
#X obj 159 124 t f f f, f 15;
#X obj 159 147 % 100;
#X obj 159 170 / 100;
#X obj 202 170 / 100;
#X obj 246 170 / 100;
#X obj 202 147 % 50;
#X obj 246 147 % 25;
#X obj 159 36 inlet;
#X obj 159 70 t f f;
#X obj 207 36 inlet;
#X obj 254 36 inlet;
#X obj 171 277 - 4;
#X obj 136 323 translateXYZ 0 2 -1;
#X obj 253 348 / 100;
#X obj 358 36 inlet;
#X msg 325 432 0 \$1;
#X obj 325 410 f 1000;
#X connect 0 0 14 0;
#X connect 1 0 27 1;
#X connect 3 0 27 2;
#X connect 4 0 26 0;
#X connect 5 0 3 0;
#X connect 6 0 5 0;
#X connect 7 0 8 0;
#X connect 7 1 9 0;
#X connect 8 0 10 0;
#X connect 9 0 31 0;
#X connect 10 0 2 1;
#X connect 11 0 14 1;
#X connect 12 0 14 2;
#X connect 13 0 14 3;
#X connect 14 0 27 0;
#X connect 15 0 16 0;
#X connect 15 1 20 0;
#X connect 15 2 21 0;
#X connect 16 0 17 0;
#X connect 17 0 11 0;
#X connect 18 0 12 0;
#X connect 19 0 13 0;
#X connect 20 0 18 0;
#X connect 21 0 19 0;
#X connect 22 0 23 0;
#X connect 23 0 15 0;
#X connect 23 1 6 0;
#X connect 24 0 4 0;
#X connect 25 0 28 0;
#X connect 26 0 1 0;
#X connect 27 0 2 0;
#X connect 28 0 7 0;
#X connect 29 0 31 1;
#X connect 30 0 10 0;
#X connect 31 0 30 0;
#X restore 202 308 pd atom;
#X f 14;
#X obj 202 286 unpack 0 0 0 0;
#N canvas 693 172 588 561 atom 0;
#X obj 136 98 gemhead;
#X floatatom 171 299 5 0 0 0 - - -;
#X obj 136 464 circle 0.2;
#X floatatom 206 300 5 0 0 0 - - -;
#X obj 171 255 / 2;
#X obj 206 277 - 4;
#X obj 206 255 / 14;
#X obj 253 371 t f b;
#X msg 253 394 \$1 100;
#X obj 325 387 del 100;
#X obj 253 448 line;
#X floatatom 159 199 5 0 0 0 - - -;
#X floatatom 194 200 5 0 0 0 - - -;
#X floatatom 230 200 5 0 0 0 - - -;
#X obj 136 226 colorRGB, f 16;
#X obj 159 124 t f f f, f 15;
#X obj 159 147 % 100;
#X obj 159 170 / 100;
#X obj 202 170 / 100;
#X obj 246 170 / 100;
#X obj 202 147 % 50;
#X obj 246 147 % 25;
#X obj 159 36 inlet;
#X obj 159 70 t f f;
#X obj 207 36 inlet;
#X obj 254 36 inlet;
#X obj 171 277 - 4;
#X obj 136 323 translateXYZ 0 2 -1;
#X obj 253 348 / 100;
#X obj 358 36 inlet;
#X msg 325 432 0 \$1;
#X obj 325 410 f 1000;
#X connect 0 0 14 0;
#X connect 1 0 27 1;
#X connect 3 0 27 2;
#X connect 4 0 26 0;
#X connect 5 0 3 0;
#X connect 6 0 5 0;
#X connect 7 0 8 0;
#X connect 7 1 9 0;
#X connect 8 0 10 0;
#X connect 9 0 31 0;
#X connect 10 0 2 1;
#X connect 11 0 14 1;
#X connect 12 0 14 2;
#X connect 13 0 14 3;
#X connect 14 0 27 0;
#X connect 15 0 16 0;
#X connect 15 1 20 0;
#X connect 15 2 21 0;
#X connect 16 0 17 0;
#X connect 17 0 11 0;
#X connect 18 0 12 0;
#X connect 19 0 13 0;
#X connect 20 0 18 0;
#X connect 21 0 19 0;
#X connect 22 0 23 0;
#X connect 23 0 15 0;
#X connect 23 1 6 0;
#X connect 24 0 4 0;
#X connect 25 0 28 0;
#X connect 26 0 1 0;
#X connect 27 0 2 0;
#X connect 28 0 7 0;
#X connect 29 0 31 1;
#X connect 30 0 10 0;
#X connect 31 0 30 0;
#X restore 230 353 pd atom;
#X f 14;
#X obj 230 331 unpack 0 0 0 0;
#N canvas 693 172 588 561 atom 0;
#X obj 136 98 gemhead;
#X floatatom 171 299 5 0 0 0 - - -;
#X obj 136 464 circle 0.2;
#X floatatom 206 300 5 0 0 0 - - -;
#X obj 171 255 / 2;
#X obj 206 277 - 4;
#X obj 206 255 / 14;
#X obj 253 371 t f b;
#X msg 253 394 \$1 100;
#X obj 325 387 del 100;
#X obj 253 448 line;
#X floatatom 159 199 5 0 0 0 - - -;
#X floatatom 194 200 5 0 0 0 - - -;
#X floatatom 230 200 5 0 0 0 - - -;
#X obj 136 226 colorRGB, f 16;
#X obj 159 124 t f f f, f 15;
#X obj 159 147 % 100;
#X obj 159 170 / 100;
#X obj 202 170 / 100;
#X obj 246 170 / 100;
#X obj 202 147 % 50;
#X obj 246 147 % 25;
#X obj 159 36 inlet;
#X obj 159 70 t f f;
#X obj 207 36 inlet;
#X obj 254 36 inlet;
#X obj 171 277 - 4;
#X obj 136 323 translateXYZ 0 2 -1;
#X obj 253 348 / 100;
#X obj 358 36 inlet;
#X msg 325 432 0 \$1;
#X obj 325 410 f 1000;
#X connect 0 0 14 0;
#X connect 1 0 27 1;
#X connect 3 0 27 2;
#X connect 4 0 26 0;
#X connect 5 0 3 0;
#X connect 6 0 5 0;
#X connect 7 0 8 0;
#X connect 7 1 9 0;
#X connect 8 0 10 0;
#X connect 9 0 31 0;
#X connect 10 0 2 1;
#X connect 11 0 14 1;
#X connect 12 0 14 2;
#X connect 13 0 14 3;
#X connect 14 0 27 0;
#X connect 15 0 16 0;
#X connect 15 1 20 0;
#X connect 15 2 21 0;
#X connect 16 0 17 0;
#X connect 17 0 11 0;
#X connect 18 0 12 0;
#X connect 19 0 13 0;
#X connect 20 0 18 0;
#X connect 21 0 19 0;
#X connect 22 0 23 0;
#X connect 23 0 15 0;
#X connect 23 1 6 0;
#X connect 24 0 4 0;
#X connect 25 0 28 0;
#X connect 26 0 1 0;
#X connect 27 0 2 0;
#X connect 28 0 7 0;
#X connect 29 0 31 1;
#X connect 30 0 10 0;
#X connect 31 0 30 0;
#X restore 258 398 pd atom;
#X f 14;
#X obj 258 376 unpack 0 0 0 0;
#N canvas 693 172 588 561 atom 0;
#X obj 136 98 gemhead;
#X floatatom 171 299 5 0 0 0 - - -;
#X obj 136 464 circle 0.2;
#X floatatom 206 300 5 0 0 0 - - -;
#X obj 171 255 / 2;
#X obj 206 277 - 4;
#X obj 206 255 / 14;
#X obj 253 371 t f b;
#X msg 253 394 \$1 100;
#X obj 325 387 del 100;
#X obj 253 448 line;
#X floatatom 159 199 5 0 0 0 - - -;
#X floatatom 194 200 5 0 0 0 - - -;
#X floatatom 230 200 5 0 0 0 - - -;
#X obj 136 226 colorRGB, f 16;
#X obj 159 124 t f f f, f 15;
#X obj 159 147 % 100;
#X obj 159 170 / 100;
#X obj 202 170 / 100;
#X obj 246 170 / 100;
#X obj 202 147 % 50;
#X obj 246 147 % 25;
#X obj 159 36 inlet;
#X obj 159 70 t f f;
#X obj 207 36 inlet;
#X obj 254 36 inlet;
#X obj 171 277 - 4;
#X obj 136 323 translateXYZ 0 2 -1;
#X obj 253 348 / 100;
#X obj 358 36 inlet;
#X msg 325 432 0 \$1;
#X obj 325 410 f 1000;
#X connect 0 0 14 0;
#X connect 1 0 27 1;
#X connect 3 0 27 2;
#X connect 4 0 26 0;
#X connect 5 0 3 0;
#X connect 6 0 5 0;
#X connect 7 0 8 0;
#X connect 7 1 9 0;
#X connect 8 0 10 0;
#X connect 9 0 31 0;
#X connect 10 0 2 1;
#X connect 11 0 14 1;
#X connect 12 0 14 2;
#X connect 13 0 14 3;
#X connect 14 0 27 0;
#X connect 15 0 16 0;
#X connect 15 1 20 0;
#X connect 15 2 21 0;
#X connect 16 0 17 0;
#X connect 17 0 11 0;
#X connect 18 0 12 0;
#X connect 19 0 13 0;
#X connect 20 0 18 0;
#X connect 21 0 19 0;
#X connect 22 0 23 0;
#X connect 23 0 15 0;
#X connect 23 1 6 0;
#X connect 24 0 4 0;
#X connect 25 0 28 0;
#X connect 26 0 1 0;
#X connect 27 0 2 0;
#X connect 28 0 7 0;
#X connect 29 0 31 1;
#X connect 30 0 10 0;
#X connect 31 0 30 0;
#X restore 287 263 pd atom;
#X f 14;
#X obj 287 241 unpack 0 0 0 0;
#N canvas 693 172 588 561 atom 0;
#X obj 136 98 gemhead;
#X floatatom 171 299 5 0 0 0 - - -;
#X obj 136 464 circle 0.2;
#X floatatom 206 300 5 0 0 0 - - -;
#X obj 171 255 / 2;
#X obj 206 277 - 4;
#X obj 206 255 / 14;
#X obj 253 371 t f b;
#X msg 253 394 \$1 100;
#X obj 325 387 del 100;
#X obj 253 448 line;
#X floatatom 159 199 5 0 0 0 - - -;
#X floatatom 194 200 5 0 0 0 - - -;
#X floatatom 230 200 5 0 0 0 - - -;
#X obj 136 226 colorRGB, f 16;
#X obj 159 124 t f f f, f 15;
#X obj 159 147 % 100;
#X obj 159 170 / 100;
#X obj 202 170 / 100;
#X obj 246 170 / 100;
#X obj 202 147 % 50;
#X obj 246 147 % 25;
#X obj 159 36 inlet;
#X obj 159 70 t f f;
#X obj 207 36 inlet;
#X obj 254 36 inlet;
#X obj 171 277 - 4;
#X obj 136 323 translateXYZ 0 2 -1;
#X obj 253 348 / 100;
#X obj 358 36 inlet;
#X msg 325 432 0 \$1;
#X obj 325 410 f 1000;
#X connect 0 0 14 0;
#X connect 1 0 27 1;
#X connect 3 0 27 2;
#X connect 4 0 26 0;
#X connect 5 0 3 0;
#X connect 6 0 5 0;
#X connect 7 0 8 0;
#X connect 7 1 9 0;
#X connect 8 0 10 0;
#X connect 9 0 31 0;
#X connect 10 0 2 1;
#X connect 11 0 14 1;
#X connect 12 0 14 2;
#X connect 13 0 14 3;
#X connect 14 0 27 0;
#X connect 15 0 16 0;
#X connect 15 1 20 0;
#X connect 15 2 21 0;
#X connect 16 0 17 0;
#X connect 17 0 11 0;
#X connect 18 0 12 0;
#X connect 19 0 13 0;
#X connect 20 0 18 0;
#X connect 21 0 19 0;
#X connect 22 0 23 0;
#X connect 23 0 15 0;
#X connect 23 1 6 0;
#X connect 24 0 4 0;
#X connect 25 0 28 0;
#X connect 26 0 1 0;
#X connect 27 0 2 0;
#X connect 28 0 7 0;
#X connect 29 0 31 1;
#X connect 30 0 10 0;
#X connect 31 0 30 0;
#X restore 315 308 pd atom;
#X f 14;
#X obj 315 286 unpack 0 0 0 0;
#N canvas 693 172 588 561 atom 0;
#X obj 136 98 gemhead;
#X floatatom 171 299 5 0 0 0 - - -;
#X obj 136 464 circle 0.2;
#X floatatom 206 300 5 0 0 0 - - -;
#X obj 171 255 / 2;
#X obj 206 277 - 4;
#X obj 206 255 / 14;
#X obj 253 371 t f b;
#X msg 253 394 \$1 100;
#X obj 325 387 del 100;
#X obj 253 448 line;
#X floatatom 159 199 5 0 0 0 - - -;
#X floatatom 194 200 5 0 0 0 - - -;
#X floatatom 230 200 5 0 0 0 - - -;
#X obj 136 226 colorRGB, f 16;
#X obj 159 124 t f f f, f 15;
#X obj 159 147 % 100;
#X obj 159 170 / 100;
#X obj 202 170 / 100;
#X obj 246 170 / 100;
#X obj 202 147 % 50;
#X obj 246 147 % 25;
#X obj 159 36 inlet;
#X obj 159 70 t f f;
#X obj 207 36 inlet;
#X obj 254 36 inlet;
#X obj 171 277 - 4;
#X obj 136 323 translateXYZ 0 2 -1;
#X obj 253 348 / 100;
#X obj 358 36 inlet;
#X msg 325 432 0 \$1;
#X obj 325 410 f 1000;
#X connect 0 0 14 0;
#X connect 1 0 27 1;
#X connect 3 0 27 2;
#X connect 4 0 26 0;
#X connect 5 0 3 0;
#X connect 6 0 5 0;
#X connect 7 0 8 0;
#X connect 7 1 9 0;
#X connect 8 0 10 0;
#X connect 9 0 31 0;
#X connect 10 0 2 1;
#X connect 11 0 14 1;
#X connect 12 0 14 2;
#X connect 13 0 14 3;
#X connect 14 0 27 0;
#X connect 15 0 16 0;
#X connect 15 1 20 0;
#X connect 15 2 21 0;
#X connect 16 0 17 0;
#X connect 17 0 11 0;
#X connect 18 0 12 0;
#X connect 19 0 13 0;
#X connect 20 0 18 0;
#X connect 21 0 19 0;
#X connect 22 0 23 0;
#X connect 23 0 15 0;
#X connect 23 1 6 0;
#X connect 24 0 4 0;
#X connect 25 0 28 0;
#X connect 26 0 1 0;
#X connect 27 0 2 0;
#X connect 28 0 7 0;
#X connect 29 0 31 1;
#X connect 30 0 10 0;
#X connect 31 0 30 0;
#X restore 343 353 pd atom;
#X f 14;
#X obj 343 331 unpack 0 0 0 0;
#N canvas 693 172 588 561 atom 0;
#X obj 136 98 gemhead;
#X floatatom 171 299 5 0 0 0 - - -;
#X obj 136 464 circle 0.2;
#X floatatom 206 300 5 0 0 0 - - -;
#X obj 171 255 / 2;
#X obj 206 277 - 4;
#X obj 206 255 / 14;
#X obj 253 371 t f b;
#X msg 253 394 \$1 100;
#X obj 325 387 del 100;
#X obj 253 448 line;
#X floatatom 159 199 5 0 0 0 - - -;
#X floatatom 194 200 5 0 0 0 - - -;
#X floatatom 230 200 5 0 0 0 - - -;
#X obj 136 226 colorRGB, f 16;
#X obj 159 124 t f f f, f 15;
#X obj 159 147 % 100;
#X obj 159 170 / 100;
#X obj 202 170 / 100;
#X obj 246 170 / 100;
#X obj 202 147 % 50;
#X obj 246 147 % 25;
#X obj 159 36 inlet;
#X obj 159 70 t f f;
#X obj 207 36 inlet;
#X obj 254 36 inlet;
#X obj 171 277 - 4;
#X obj 136 323 translateXYZ 0 2 -1;
#X obj 253 348 / 100;
#X obj 358 36 inlet;
#X msg 325 432 0 \$1;
#X obj 325 410 f 1000;
#X connect 0 0 14 0;
#X connect 1 0 27 1;
#X connect 3 0 27 2;
#X connect 4 0 26 0;
#X connect 5 0 3 0;
#X connect 6 0 5 0;
#X connect 7 0 8 0;
#X connect 7 1 9 0;
#X connect 8 0 10 0;
#X connect 9 0 31 0;
#X connect 10 0 2 1;
#X connect 11 0 14 1;
#X connect 12 0 14 2;
#X connect 13 0 14 3;
#X connect 14 0 27 0;
#X connect 15 0 16 0;
#X connect 15 1 20 0;
#X connect 15 2 21 0;
#X connect 16 0 17 0;
#X connect 17 0 11 0;
#X connect 18 0 12 0;
#X connect 19 0 13 0;
#X connect 20 0 18 0;
#X connect 21 0 19 0;
#X connect 22 0 23 0;
#X connect 23 0 15 0;
#X connect 23 1 6 0;
#X connect 24 0 4 0;
#X connect 25 0 28 0;
#X connect 26 0 1 0;
#X connect 27 0 2 0;
#X connect 28 0 7 0;
#X connect 29 0 31 1;
#X connect 30 0 10 0;
#X connect 31 0 30 0;
#X restore 371 398 pd atom;
#X f 14;
#X obj 371 376 unpack 0 0 0 0;
#N canvas 693 172 588 561 atom 0;
#X obj 136 98 gemhead;
#X floatatom 171 299 5 0 0 0 - - -;
#X obj 136 464 circle 0.2;
#X floatatom 206 300 5 0 0 0 - - -;
#X obj 171 255 / 2;
#X obj 206 277 - 4;
#X obj 206 255 / 14;
#X obj 253 371 t f b;
#X msg 253 394 \$1 100;
#X obj 325 387 del 100;
#X obj 253 448 line;
#X floatatom 159 199 5 0 0 0 - - -;
#X floatatom 194 200 5 0 0 0 - - -;
#X floatatom 230 200 5 0 0 0 - - -;
#X obj 136 226 colorRGB, f 16;
#X obj 159 124 t f f f, f 15;
#X obj 159 147 % 100;
#X obj 159 170 / 100;
#X obj 202 170 / 100;
#X obj 246 170 / 100;
#X obj 202 147 % 50;
#X obj 246 147 % 25;
#X obj 159 36 inlet;
#X obj 159 70 t f f;
#X obj 207 36 inlet;
#X obj 254 36 inlet;
#X obj 171 277 - 4;
#X obj 136 323 translateXYZ 0 2 -1;
#X obj 253 348 / 100;
#X obj 358 36 inlet;
#X msg 325 432 0 \$1;
#X obj 325 410 f 1000;
#X connect 0 0 14 0;
#X connect 1 0 27 1;
#X connect 3 0 27 2;
#X connect 4 0 26 0;
#X connect 5 0 3 0;
#X connect 6 0 5 0;
#X connect 7 0 8 0;
#X connect 7 1 9 0;
#X connect 8 0 10 0;
#X connect 9 0 31 0;
#X connect 10 0 2 1;
#X connect 11 0 14 1;
#X connect 12 0 14 2;
#X connect 13 0 14 3;
#X connect 14 0 27 0;
#X connect 15 0 16 0;
#X connect 15 1 20 0;
#X connect 15 2 21 0;
#X connect 16 0 17 0;
#X connect 17 0 11 0;
#X connect 18 0 12 0;
#X connect 19 0 13 0;
#X connect 20 0 18 0;
#X connect 21 0 19 0;
#X connect 22 0 23 0;
#X connect 23 0 15 0;
#X connect 23 1 6 0;
#X connect 24 0 4 0;
#X connect 25 0 28 0;
#X connect 26 0 1 0;
#X connect 27 0 2 0;
#X connect 28 0 7 0;
#X connect 29 0 31 1;
#X connect 30 0 10 0;
#X connect 31 0 30 0;
#X restore 400 263 pd atom;
#X f 14;
#X obj 400 241 unpack 0 0 0 0;
#N canvas 693 172 588 561 atom 0;
#X obj 136 98 gemhead;
#X floatatom 171 299 5 0 0 0 - - -;
#X obj 136 464 circle 0.2;
#X floatatom 206 300 5 0 0 0 - - -;
#X obj 171 255 / 2;
#X obj 206 277 - 4;
#X obj 206 255 / 14;
#X obj 253 371 t f b;
#X msg 253 394 \$1 100;
#X obj 325 387 del 100;
#X obj 253 448 line;
#X floatatom 159 199 5 0 0 0 - - -;
#X floatatom 194 200 5 0 0 0 - - -;
#X floatatom 230 200 5 0 0 0 - - -;
#X obj 136 226 colorRGB, f 16;
#X obj 159 124 t f f f, f 15;
#X obj 159 147 % 100;
#X obj 159 170 / 100;
#X obj 202 170 / 100;
#X obj 246 170 / 100;
#X obj 202 147 % 50;
#X obj 246 147 % 25;
#X obj 159 36 inlet;
#X obj 159 70 t f f;
#X obj 207 36 inlet;
#X obj 254 36 inlet;
#X obj 171 277 - 4;
#X obj 136 323 translateXYZ 0 2 -1;
#X obj 253 348 / 100;
#X obj 358 36 inlet;
#X msg 325 432 0 \$1;
#X obj 325 410 f 1000;
#X connect 0 0 14 0;
#X connect 1 0 27 1;
#X connect 3 0 27 2;
#X connect 4 0 26 0;
#X connect 5 0 3 0;
#X connect 6 0 5 0;
#X connect 7 0 8 0;
#X connect 7 1 9 0;
#X connect 8 0 10 0;
#X connect 9 0 31 0;
#X connect 10 0 2 1;
#X connect 11 0 14 1;
#X connect 12 0 14 2;
#X connect 13 0 14 3;
#X connect 14 0 27 0;
#X connect 15 0 16 0;
#X connect 15 1 20 0;
#X connect 15 2 21 0;
#X connect 16 0 17 0;
#X connect 17 0 11 0;
#X connect 18 0 12 0;
#X connect 19 0 13 0;
#X connect 20 0 18 0;
#X connect 21 0 19 0;
#X connect 22 0 23 0;
#X connect 23 0 15 0;
#X connect 23 1 6 0;
#X connect 24 0 4 0;
#X connect 25 0 28 0;
#X connect 26 0 1 0;
#X connect 27 0 2 0;
#X connect 28 0 7 0;
#X connect 29 0 31 1;
#X connect 30 0 10 0;
#X connect 31 0 30 0;
#X restore 428 308 pd atom;
#X f 14;
#X obj 428 286 unpack 0 0 0 0;
#N canvas 693 172 588 561 atom 0;
#X obj 136 98 gemhead;
#X floatatom 171 299 5 0 0 0 - - -;
#X obj 136 464 circle 0.2;
#X floatatom 206 300 5 0 0 0 - - -;
#X obj 171 255 / 2;
#X obj 206 277 - 4;
#X obj 206 255 / 14;
#X obj 253 371 t f b;
#X msg 253 394 \$1 100;
#X obj 325 387 del 100;
#X obj 253 448 line;
#X floatatom 159 199 5 0 0 0 - - -;
#X floatatom 194 200 5 0 0 0 - - -;
#X floatatom 230 200 5 0 0 0 - - -;
#X obj 136 226 colorRGB, f 16;
#X obj 159 124 t f f f, f 15;
#X obj 159 147 % 100;
#X obj 159 170 / 100;
#X obj 202 170 / 100;
#X obj 246 170 / 100;
#X obj 202 147 % 50;
#X obj 246 147 % 25;
#X obj 159 36 inlet;
#X obj 159 70 t f f;
#X obj 207 36 inlet;
#X obj 254 36 inlet;
#X obj 171 277 - 4;
#X obj 136 323 translateXYZ 0 2 -1;
#X obj 253 348 / 100;
#X obj 358 36 inlet;
#X msg 325 432 0 \$1;
#X obj 325 410 f 1000;
#X connect 0 0 14 0;
#X connect 1 0 27 1;
#X connect 3 0 27 2;
#X connect 4 0 26 0;
#X connect 5 0 3 0;
#X connect 6 0 5 0;
#X connect 7 0 8 0;
#X connect 7 1 9 0;
#X connect 8 0 10 0;
#X connect 9 0 31 0;
#X connect 10 0 2 1;
#X connect 11 0 14 1;
#X connect 12 0 14 2;
#X connect 13 0 14 3;
#X connect 14 0 27 0;
#X connect 15 0 16 0;
#X connect 15 1 20 0;
#X connect 15 2 21 0;
#X connect 16 0 17 0;
#X connect 17 0 11 0;
#X connect 18 0 12 0;
#X connect 19 0 13 0;
#X connect 20 0 18 0;
#X connect 21 0 19 0;
#X connect 22 0 23 0;
#X connect 23 0 15 0;
#X connect 23 1 6 0;
#X connect 24 0 4 0;
#X connect 25 0 28 0;
#X connect 26 0 1 0;
#X connect 27 0 2 0;
#X connect 28 0 7 0;
#X connect 29 0 31 1;
#X connect 30 0 10 0;
#X connect 31 0 30 0;
#X restore 456 353 pd atom;
#X f 14;
#X obj 456 331 unpack 0 0 0 0;
#N canvas 693 172 588 561 atom 0;
#X obj 136 98 gemhead;
#X floatatom 171 299 5 0 0 0 - - -;
#X obj 136 464 circle 0.2;
#X floatatom 206 300 5 0 0 0 - - -;
#X obj 171 255 / 2;
#X obj 206 277 - 4;
#X obj 206 255 / 14;
#X obj 253 371 t f b;
#X msg 253 394 \$1 100;
#X obj 325 387 del 100;
#X obj 253 448 line;
#X floatatom 159 199 5 0 0 0 - - -;
#X floatatom 194 200 5 0 0 0 - - -;
#X floatatom 230 200 5 0 0 0 - - -;
#X obj 136 226 colorRGB, f 16;
#X obj 159 124 t f f f, f 15;
#X obj 159 147 % 100;
#X obj 159 170 / 100;
#X obj 202 170 / 100;
#X obj 246 170 / 100;
#X obj 202 147 % 50;
#X obj 246 147 % 25;
#X obj 159 36 inlet;
#X obj 159 70 t f f;
#X obj 207 36 inlet;
#X obj 254 36 inlet;
#X obj 171 277 - 4;
#X obj 136 323 translateXYZ 0 2 -1;
#X obj 253 348 / 100;
#X obj 358 36 inlet;
#X msg 325 432 0 \$1;
#X obj 325 410 f 1000;
#X connect 0 0 14 0;
#X connect 1 0 27 1;
#X connect 3 0 27 2;
#X connect 4 0 26 0;
#X connect 5 0 3 0;
#X connect 6 0 5 0;
#X connect 7 0 8 0;
#X connect 7 1 9 0;
#X connect 8 0 10 0;
#X connect 9 0 31 0;
#X connect 10 0 2 1;
#X connect 11 0 14 1;
#X connect 12 0 14 2;
#X connect 13 0 14 3;
#X connect 14 0 27 0;
#X connect 15 0 16 0;
#X connect 15 1 20 0;
#X connect 15 2 21 0;
#X connect 16 0 17 0;
#X connect 17 0 11 0;
#X connect 18 0 12 0;
#X connect 19 0 13 0;
#X connect 20 0 18 0;
#X connect 21 0 19 0;
#X connect 22 0 23 0;
#X connect 23 0 15 0;
#X connect 23 1 6 0;
#X connect 24 0 4 0;
#X connect 25 0 28 0;
#X connect 26 0 1 0;
#X connect 27 0 2 0;
#X connect 28 0 7 0;
#X connect 29 0 31 1;
#X connect 30 0 10 0;
#X connect 31 0 30 0;
#X restore 484 398 pd atom;
#X f 14;
#X obj 484 376 unpack 0 0 0 0;
#X obj 61 64 sigmund~ -hop 4096 notes env;
#X connect 1 0 2 0;
#X connect 1 1 9 0;
#X connect 2 0 0 0;
#X connect 3 0 12 0;
#X connect 4 0 5 0;
#X connect 4 0 10 0;
#X connect 4 0 10 2;
#X connect 5 0 7 0;
#X connect 7 0 4 1;
#X connect 8 0 11 0;
#X connect 8 1 18 0;
#X connect 8 2 20 0;
#X connect 8 3 22 0;
#X connect 8 4 24 0;
#X connect 8 5 26 0;
#X connect 8 6 28 0;
#X connect 8 7 30 0;
#X connect 8 8 32 0;
#X connect 8 9 34 0;
#X connect 8 10 36 0;
#X connect 8 11 38 0;
#X connect 8 12 40 0;
#X connect 8 13 42 0;
#X connect 8 14 44 0;
#X connect 8 15 46 0;
#X connect 9 0 0 0;
#X connect 10 0 8 0;
#X connect 11 0 6 0;
#X connect 11 1 6 1;
#X connect 11 2 6 2;
#X connect 11 3 6 3;
#X connect 12 0 4 0;
#X connect 12 1 10 1;
#X connect 12 2 13 0;
#X connect 13 0 10 4;
#X connect 14 0 16 0;
#X connect 15 0 47 0;
#X connect 16 0 1 0;
#X connect 18 0 17 0;
#X connect 18 1 17 1;
#X connect 18 2 17 2;
#X connect 18 3 17 3;
#X connect 20 0 19 0;
#X connect 20 1 19 1;
#X connect 20 2 19 2;
#X connect 20 3 19 3;
#X connect 22 0 21 0;
#X connect 22 1 21 1;
#X connect 22 2 21 2;
#X connect 22 3 21 3;
#X connect 24 0 23 0;
#X connect 24 1 23 1;
#X connect 24 2 23 2;
#X connect 24 3 23 3;
#X connect 26 0 25 0;
#X connect 26 1 25 1;
#X connect 26 2 25 2;
#X connect 26 3 25 3;
#X connect 28 0 27 0;
#X connect 28 1 27 1;
#X connect 28 2 27 2;
#X connect 28 3 27 3;
#X connect 30 0 29 0;
#X connect 30 1 29 1;
#X connect 30 2 29 2;
#X connect 30 3 29 3;
#X connect 32 0 31 0;
#X connect 32 1 31 1;
#X connect 32 2 31 2;
#X connect 32 3 31 3;
#X connect 34 0 33 0;
#X connect 34 1 33 1;
#X connect 34 2 33 2;
#X connect 34 3 33 3;
#X connect 36 0 35 0;
#X connect 36 1 35 1;
#X connect 36 2 35 2;
#X connect 36 3 35 3;
#X connect 38 0 37 0;
#X connect 38 1 37 1;
#X connect 38 2 37 2;
#X connect 38 3 37 3;
#X connect 40 0 39 0;
#X connect 40 1 39 1;
#X connect 40 2 39 2;
#X connect 40 3 39 3;
#X connect 42 0 41 0;
#X connect 42 1 41 1;
#X connect 42 2 41 2;
#X connect 42 3 41 3;
#X connect 44 0 43 0;
#X connect 44 1 43 1;
#X connect 44 2 43 2;
#X connect 44 3 43 3;
#X connect 46 0 45 0;
#X connect 46 1 45 1;
#X connect 46 2 45 2;
#X connect 46 3 45 3;
#X connect 47 0 3 0;
#X connect 47 1 10 3;
