#N canvas 118 116 878 591 10;
#X obj 289 117 bng 15 250 50 0 empty empty empty 17 7 0 10 -262144
-1 -1;
#X obj 289 183 + 1;
#X obj 289 298 spigot;
#X obj 331 183 i 0;
#X obj 289 160 t f b, f 7;
#X obj 289 229 !=, f 7;
#X obj 356 268 sel 0;
#X obj 289 75 t b b b, f 41;
#X obj 410 367 +;
#X obj 289 383 +;
#X obj 289 429 clip 0 1;
#X obj 289 321 t f f, f 10;
#X obj 289 252 t b f, f 6;
#X obj 289 275 f 0, f 5;
#X obj 289 206 t f f;
#X obj 410 117 bng 15 250 50 0 empty empty empty 17 7 0 10 -262144
-1 -1;
#X obj 410 183 + 1;
#X obj 410 298 spigot;
#X obj 452 183 i 0;
#X obj 410 160 t f b, f 7;
#X obj 410 229 !=, f 7;
#X obj 477 268 sel 0;
#X obj 410 321 t f f, f 10;
#X obj 410 252 t b f, f 6;
#X obj 410 275 f 0, f 5;
#X obj 410 206 t f f;
#X obj 532 117 bng 15 250 50 0 empty empty empty 17 7 0 10 -262144
-1 -1;
#X obj 532 183 + 1;
#X obj 532 298 spigot;
#X obj 574 183 i 0;
#X obj 532 160 t f b, f 7;
#X obj 532 229 !=, f 7;
#X obj 599 268 sel 0;
#X obj 532 321 t f f, f 10;
#X obj 532 252 t b f, f 6;
#X obj 532 275 f 0, f 5;
#X obj 532 206 t f f;
#X obj 356 101 del 10;
#X obj 477 101 del 10;
#X obj 599 101 del 10;
#X obj 532 351 pipe 50;
#X obj 410 344 pipe 100;
#X obj 289 359 pipe 150;
#X obj 274 500 i 0;
#X obj 661 121 t f f f;
#X obj 680 390 * 3;
#X obj 644 427 / 2;
#X obj 289 453 * 1, f 69;
#X obj 289 137 random 7;
#X obj 410 137 random 7;
#X obj 532 137 random 7;
#X obj 289 406 / 21;
#X obj 289 476 - 4;
#X obj 644 460 i 0;
#X obj 661 99 f \$1;
#X obj 661 18 loadbang;
#X obj 274 18 inlet;
#X obj 274 553 outlet;
#X obj 274 47 t b b;
#X obj 314 47 del 20;
#X connect 0 0 48 0;
#X connect 1 0 14 0;
#X connect 2 0 11 0;
#X connect 3 0 5 1;
#X connect 4 0 1 0;
#X connect 4 1 3 0;
#X connect 5 0 12 0;
#X connect 6 0 37 0;
#X connect 7 0 0 0;
#X connect 7 1 15 0;
#X connect 7 2 26 0;
#X connect 8 0 9 1;
#X connect 9 0 51 0;
#X connect 10 0 47 0;
#X connect 11 0 42 0;
#X connect 11 1 3 1;
#X connect 12 0 13 0;
#X connect 12 1 2 1;
#X connect 12 1 6 0;
#X connect 13 0 2 0;
#X connect 14 0 5 0;
#X connect 14 1 13 1;
#X connect 15 0 49 0;
#X connect 16 0 25 0;
#X connect 17 0 22 0;
#X connect 18 0 20 1;
#X connect 19 0 16 0;
#X connect 19 1 18 0;
#X connect 20 0 23 0;
#X connect 21 0 38 0;
#X connect 22 0 41 0;
#X connect 22 1 18 1;
#X connect 23 0 24 0;
#X connect 23 1 17 1;
#X connect 23 1 21 0;
#X connect 24 0 17 0;
#X connect 25 0 20 0;
#X connect 25 1 24 1;
#X connect 26 0 50 0;
#X connect 27 0 36 0;
#X connect 28 0 33 0;
#X connect 29 0 31 1;
#X connect 30 0 27 0;
#X connect 30 1 29 0;
#X connect 31 0 34 0;
#X connect 32 0 39 0;
#X connect 33 0 40 0;
#X connect 33 1 29 1;
#X connect 34 0 35 0;
#X connect 34 1 28 1;
#X connect 34 1 32 0;
#X connect 35 0 28 0;
#X connect 36 0 31 0;
#X connect 36 1 35 1;
#X connect 37 0 0 0;
#X connect 38 0 15 0;
#X connect 39 0 26 0;
#X connect 40 0 8 1;
#X connect 41 0 8 0;
#X connect 42 0 9 0;
#X connect 43 0 57 0;
#X connect 44 0 48 1;
#X connect 44 0 49 1;
#X connect 44 0 50 1;
#X connect 44 1 45 0;
#X connect 44 1 46 0;
#X connect 44 2 47 1;
#X connect 45 0 51 1;
#X connect 46 0 53 0;
#X connect 47 0 52 0;
#X connect 48 0 4 0;
#X connect 49 0 19 0;
#X connect 50 0 30 0;
#X connect 51 0 10 0;
#X connect 52 0 43 1;
#X connect 53 0 52 1;
#X connect 54 0 44 0;
#X connect 55 0 54 0;
#X connect 56 0 58 0;
#X connect 58 0 43 0;
#X connect 58 1 59 0;
#X connect 59 0 7 0;
