#N canvas 179 195 1083 522 10;
#X text 6 80 VCF;
#X obj 95 465 outlet~;
#X obj 73 413 vcf~;
#X floatatom 226 225 5 0 0 0 - - -;
#X floatatom 528 224 5 0 0 0 - - -;
#X obj 109 348 sig~;
#X text 573 224 Q;
#X text 102 319 freq;
#X obj 108 381 *~;
#X obj 159 364 vline~;
#X msg 159 289 1 \$1 \, \$2 \$3 \$1;
#X obj 159 261 pack 0 0 0;
#X floatatom 283 226 5 0 0 0 - - -;
#X floatatom 345 226 5 0 0 0 - - -;
#X floatatom 407 226 5 0 0 0 - - -;
#X text 308 203 A;
#X text 370 203 D;
#X text 432 203 S;
#X obj 374 285 pack 0 0;
#X floatatom 469 227 5 0 0 0 - - -;
#X text 494 205 R;
#X obj 159 206 tgl 15 0 empty empty empty 17 7 0 10 -262144 -1 -1 0
1;
#X obj 159 226 sel 1 0;
#X obj 72 26 inlet~;
#X obj 159 27 inlet;
#X obj 608 49 vsl 20 40 20 10000 0 0 empty empty fq 0 -9 0 10 -262144
-1 -1 0 1;
#X obj 632 49 vsl 15 40 0 2000 0 0 empty empty A 0 -9 0 10 -262144
-1 -1 0 1;
#X obj 651 49 vsl 15 40 0 2000 0 0 empty empty D 0 -9 0 10 -262144
-1 -1 0 1;
#X obj 670 49 vsl 15 40 0 1 0 0 empty empty S 0 -9 0 10 -262144 -1
-1 0 1;
#X obj 689 49 vsl 15 40 0 3000 0 0 empty empty R 0 -9 0 10 -262144
-1 -1 0 1;
#X obj 708 49 vsl 20 40 1 10 0 0 empty empty q 0 -9 0 10 -262144 -1
-1 0 1;
#X obj 391 86 inlet;
#X obj 488 82 inlet;
#X connect 2 1 1 0;
#X connect 3 0 5 0;
#X connect 4 0 2 2;
#X connect 5 0 8 0;
#X connect 8 0 2 1;
#X connect 9 0 8 1;
#X connect 10 0 9 0;
#X connect 11 0 10 0;
#X connect 12 0 11 0;
#X connect 13 0 11 2;
#X connect 14 0 11 1;
#X connect 18 0 9 0;
#X connect 19 0 18 1;
#X connect 21 0 22 0;
#X connect 22 0 11 0;
#X connect 22 1 18 0;
#X connect 23 0 2 0;
#X connect 24 0 21 0;
#X connect 25 0 3 0;
#X connect 26 0 12 0;
#X connect 27 0 13 0;
#X connect 28 0 14 0;
#X connect 29 0 19 0;
#X connect 30 0 4 0;
#X connect 31 0 25 0;
#X connect 32 0 30 0;
#X coords 0 -1 1 1 136 80 1 600 20;
