#N canvas 466 156 857 601 10;
#X obj 100 176 sig~ 1;
#X obj 100 323 /~;
#X obj 114 201 sig~ 50;
#X obj 114 224 osc~;
#X obj 114 247 *~ 24;
#X obj 114 275 *~;
#X obj 114 298 +~ 1;
#X obj 100 346 -~ 0.5;
#X obj 44 376 bp~ 1 34;
#X obj 101 376 bp~ 1 34;
#X obj 102 408 clip~ -1 1;
#X msg 282 227 280 2250 2900;
#X obj 152 298 unpack f f f;
#X obj 172 461 vline~;
#X obj 103 479 *~;
#X obj 217 416 bng 15 250 50 0 empty empty empty 17 7 0 10 -262144
-1 -1;
#X obj 158 376 bp~ 1 34;
#X msg 288 248 400 1900 2250;
#X obj 217 436 f;
#X floatatom 250 421 5 0 0 0 - - -;
#X msg 298 270 550 1770 2490;
#X msg 305 292 690 1660 2490;
#X msg 313 313 640 1190 2390;
#X msg 323 334 310 870 2250;
#X msg 329 357 450 1030 2380;
#X msg 335 378 500 1500 2500;
#X msg 344 400 710 1100 2640;
#X msg 228 74 i;
#X msg 257 74 I;
#X msg 286 74 E;
#X msg 315 74 ae;
#X msg 374 74 u;
#X msg 403 74 U;
#X msg 432 74 &;
#X msg 461 74 A;
#X obj 228 137 bng 15 250 50 0 empty empty i 17 7 0 10 -262144 -191407
-1;
#X obj 257 137 bng 15 250 50 0 empty empty I 17 7 0 10 -262144 -191407
-1;
#X obj 286 137 bng 15 250 50 0 empty empty E 17 7 0 10 -262144 -191407
-1;
#X obj 228 157 bng 15 250 50 0 empty empty ae 17 7 0 10 -262144 -191407
-1;
#X obj 258 157 bng 15 250 50 0 empty empty O 17 7 0 10 -262144 -191407
-1;
#X obj 287 157 bng 15 250 50 0 empty empty u 17 7 0 10 -262144 -191407
-1;
#X msg 345 74 O;
#X obj 228 177 bng 15 250 50 0 empty empty U 17 7 0 10 -262144 -191407
-1;
#X obj 257 177 bng 15 250 50 0 empty empty & 17 7 0 10 -262144 -191407
-1;
#X obj 286 177 bng 15 250 50 0 empty empty A 17 7 0 10 -262144 -191407
-1;
#X obj 103 524 *~;
#X obj 228 5 inlet;
#X obj 228 28 clip 0 9;
#X obj 228 51 sel 0 1 2 3 4 5 6 7 8;
#X obj 318 137 hsl 50 15 0 1 0 0 empty empty dec 55 7 0 10 -262144
-1 -1 2600 1;
#X obj 318 177 hsl 50 15 0 1 0 0 empty empty vol 55 7 0 10 -228856
-1 -1 4400 1;
#X obj 439 9 inlet;
#X obj 169 200 * 6000;
#X obj 366 485 pack 0 100;
#X obj 366 508 line;
#X obj 103 547 outlet~;
#X obj 128 462 pow~ 4;
#X obj 103 502 lop~;
#X obj 318 157 hsl 50 15 0 1000 0 0 empty empty lpf 55 7 0 10 -262144
-1 -1 1200 1;
#X msg 217 459 1 100 \, 0.8 100 100 \, 0 \$1 200;
#X connect 0 0 1 0;
#X connect 1 0 7 0;
#X connect 2 0 3 0;
#X connect 3 0 4 0;
#X connect 4 0 5 0;
#X connect 4 0 5 1;
#X connect 5 0 6 0;
#X connect 6 0 1 1;
#X connect 7 0 8 0;
#X connect 7 0 9 0;
#X connect 7 0 16 0;
#X connect 8 0 10 0;
#X connect 9 0 10 0;
#X connect 10 0 14 0;
#X connect 11 0 12 0;
#X connect 11 0 15 0;
#X connect 12 0 8 1;
#X connect 12 1 9 1;
#X connect 12 2 16 1;
#X connect 13 0 56 0;
#X connect 14 0 57 0;
#X connect 15 0 18 0;
#X connect 16 0 10 0;
#X connect 17 0 12 0;
#X connect 17 0 15 0;
#X connect 18 0 59 0;
#X connect 19 0 18 1;
#X connect 20 0 12 0;
#X connect 20 0 15 0;
#X connect 21 0 15 0;
#X connect 21 0 12 0;
#X connect 22 0 12 0;
#X connect 22 0 15 0;
#X connect 23 0 12 0;
#X connect 23 0 15 0;
#X connect 24 0 12 0;
#X connect 24 0 15 0;
#X connect 25 0 12 0;
#X connect 25 0 15 0;
#X connect 26 0 12 0;
#X connect 26 0 15 0;
#X connect 27 0 35 0;
#X connect 28 0 36 0;
#X connect 29 0 37 0;
#X connect 30 0 38 0;
#X connect 31 0 40 0;
#X connect 32 0 42 0;
#X connect 33 0 43 0;
#X connect 34 0 44 0;
#X connect 35 0 11 0;
#X connect 36 0 17 0;
#X connect 37 0 20 0;
#X connect 38 0 21 0;
#X connect 39 0 22 0;
#X connect 40 0 23 0;
#X connect 41 0 39 0;
#X connect 42 0 24 0;
#X connect 43 0 25 0;
#X connect 44 0 26 0;
#X connect 45 0 55 0;
#X connect 46 0 47 0;
#X connect 47 0 48 0;
#X connect 48 0 27 0;
#X connect 48 1 28 0;
#X connect 48 2 29 0;
#X connect 48 3 30 0;
#X connect 48 4 41 0;
#X connect 48 5 31 0;
#X connect 48 6 32 0;
#X connect 48 7 33 0;
#X connect 48 8 34 0;
#X connect 49 0 52 0;
#X connect 50 0 53 0;
#X connect 51 0 49 0;
#X connect 52 0 19 0;
#X connect 53 0 54 0;
#X connect 54 0 45 1;
#X connect 56 0 14 1;
#X connect 57 0 45 0;
#X connect 58 0 57 1;
#X connect 59 0 13 0;
#X coords 0 -1 1 1 180 100 1 220 100;
