#N canvas 486 248 792 489 10;
#X obj 73 33 inlet;
#X obj 73 56 t b f;
#X obj 331 378 f;
#X obj 73 120 bng 15 250 50 0 empty empty empty 17 7 0 10 -262144 -1
-1;
#X obj 288 33 inlet;
#N canvas 0 50 450 250 (subpatch) 0;
#X array \$0-var 7 float 3;
#A 0 0 5 4 3 2 -1 0;
#X coords 0 8 7 -8 85 30 1 0 0;
#X restore 73 151 graph;
#X obj 288 56 t b l l;
#X obj 327 79 list length;
#X floatatom 327 102 5 0 0 0 - - -;
#X obj 288 80 tgl 15 0 empty empty empty 17 7 0 10 -262144 -1 -1 0
1;
#X obj 288 259 metro 250;
#X obj 339 216 /;
#X floatatom 339 238 5 0 0 0 - - -;
#X obj 354 33 inlet;
#X obj 339 193 f;
#X obj 288 282 f;
#X obj 324 282 + 1;
#X obj 288 304 % 1;
#X obj 390 282 - 1;
#X floatatom 288 327 5 0 0 0 - - -;
#X floatatom 288 372 5 0 0 0 - - -;
#X obj 363 304 sel 1;
#X msg 363 327 0;
#X obj 339 171 t b f f f;
#X obj 288 394 +;
#X floatatom 288 417 5 0 0 0 - - -;
#X obj 288 439 outlet;
#X obj 363 417 bng 15 250 50 0 empty empty empty 17 7 0 10 -262144
-1 -1;
#X obj 363 437 outlet;
#X floatatom 93 120 5 0 0 0 - - -;
#X obj 129 121 nbx 2 16 -1e+37 1e+37 0 0 empty empty empty 0 -8 0 10
-1 -262144 -1 0 256;
#X obj 327 124 array size \$0-var;
#X obj 307 147 array set \$0-var;
#X obj 288 349 array get \$0-var;
#X obj 363 371 bng 15 250 50 0 empty empty empty 17 7 0 10 -262144
-1 -1;
#X obj 363 392 del 1000;
#X obj 408 370 - 50;
#X connect 0 0 1 0;
#X connect 1 0 3 0;
#X connect 1 1 29 0;
#X connect 2 0 24 1;
#X connect 3 0 2 0;
#X connect 4 0 6 0;
#X connect 6 0 9 0;
#X connect 6 1 32 0;
#X connect 6 2 7 0;
#X connect 7 0 8 0;
#X connect 8 0 23 0;
#X connect 8 0 31 0;
#X connect 9 0 10 0;
#X connect 10 0 15 0;
#X connect 11 0 12 0;
#X connect 12 0 10 1;
#X connect 12 0 36 0;
#X connect 13 0 14 1;
#X connect 14 0 11 0;
#X connect 15 0 16 0;
#X connect 15 0 17 0;
#X connect 16 0 15 1;
#X connect 17 0 19 0;
#X connect 18 0 21 1;
#X connect 19 0 21 0;
#X connect 19 0 33 0;
#X connect 20 0 24 0;
#X connect 20 0 30 0;
#X connect 21 0 22 0;
#X connect 22 0 9 0;
#X connect 22 0 34 0;
#X connect 22 0 15 1;
#X connect 23 0 14 0;
#X connect 23 1 11 1;
#X connect 23 2 17 1;
#X connect 23 3 18 0;
#X connect 24 0 25 0;
#X connect 25 0 26 0;
#X connect 27 0 28 0;
#X connect 29 0 2 1;
#X connect 33 0 20 0;
#X connect 34 0 35 0;
#X connect 35 0 27 0;
#X connect 36 0 35 1;
#X coords 0 -1 1 1 100 100 1 65 90;
