#N canvas 117 250 1144 489 10;
#X obj 39 333 gemwin;
#X obj 39 233 sel 0 1;
#X msg 39 283 destroy;
#X msg 58 259 dimen 400 400 \, create \, 1;
#X obj 39 40 tgl 15 0 empty empty empty 17 7 0 10 -262144 -1 -1 0 1
;
#X msg 128 319 draw line;
#X obj 265 40 gemhead;
#X obj 265 449 cube;
#X obj 290 142 clip 0 127;
#X obj 311 226 expr -$f2+($f1*$f3)/127;
#X obj 288 250 expr -$f2+($f1*$f3)/127;
#X obj 286 426 expr $f2-(($f1*$f2)/127);
#X obj 265 276 translateXYZ;
#X obj 265 333 rotateXYZ;
#X obj 290 165 t f f f f f;
#X obj 315 305 * 2;
#X obj 282 305 * 3;
#X obj 265 356 color 1 1 1;
#X obj 60 40 hradio 8 1 0 8 empty empty empty 0 -8 0 10 -262144 -1
-1 1;
#X obj 378 202 + 1;
#X obj 446 202 + 1;
#X obj 427 403 + 1;
#X obj 60 52 hradio 8 1 0 8 empty empty empty 0 -8 0 10 -262144 -1
-1 3;
#X obj 60 64 hradio 16 1 0 4 empty empty empty 0 -8 0 10 -262144 -1
-1 0;
#X obj 475 449 cube;
#X obj 500 142 clip 0 127;
#X obj 521 226 expr -$f2+($f1*$f3)/127;
#X obj 498 250 expr -$f2+($f1*$f3)/127;
#X obj 496 426 expr $f2-(($f1*$f2)/127);
#X obj 475 276 translateXYZ;
#X obj 475 333 rotateXYZ;
#X obj 500 165 t f f f f f;
#X obj 525 305 * 2;
#X obj 492 305 * 3;
#X obj 588 202 + 1;
#X obj 656 202 + 1;
#X obj 637 403 + 1;
#X obj 475 40 gemhead 1;
#X obj 128 40 vradio 20 1 0 2 empty empty empty 0 -8 0 10 -262144 -1
-1 0;
#X obj 128 294 sel 0 1;
#X obj 685 449 cube;
#X obj 710 142 clip 0 127;
#X obj 731 226 expr -$f2+($f1*$f3)/127;
#X obj 708 250 expr -$f2+($f1*$f3)/127;
#X obj 706 426 expr $f2-(($f1*$f2)/127);
#X obj 685 276 translateXYZ;
#X obj 685 333 rotateXYZ;
#X obj 710 165 t f f f f f;
#X obj 735 305 * 2;
#X obj 702 305 * 3;
#X obj 798 202 + 1;
#X obj 866 202 + 1;
#X obj 847 403 + 1;
#X obj 895 449 cube;
#X obj 920 142 clip 0 127;
#X obj 941 226 expr -$f2+($f1*$f3)/127;
#X obj 918 250 expr -$f2+($f1*$f3)/127;
#X obj 916 426 expr $f2-(($f1*$f2)/127);
#X obj 895 276 translateXYZ;
#X obj 895 333 rotateXYZ;
#X obj 920 165 t f f f f f;
#X obj 945 305 * 2;
#X obj 912 305 * 3;
#X obj 1008 202 + 1;
#X obj 1076 202 + 1;
#X obj 1057 403 + 1;
#X obj 685 40 gemhead 2;
#X obj 895 40 gemhead 3;
#X obj 330 40 inlet;
#X obj 475 356 color 1 0 1;
#X msg 146 354 draw fill;
#X obj 685 356 color 1 0 0;
#X obj 895 356 color 1 1 0;
#X obj 330 95 line;
#X obj 330 73 pack \$1 1000;
#X obj 553 40 inlet;
#X obj 553 95 line;
#X obj 770 39 inlet;
#X obj 770 94 line;
#X obj 980 40 inlet;
#X obj 980 95 line;
#X obj 553 73 pack \$1 500;
#X obj 770 72 pack \$1 250;
#X obj 980 73 pack \$1 125;
#X connect 1 0 2 0;
#X connect 1 1 3 0;
#X connect 2 0 0 0;
#X connect 3 0 0 0;
#X connect 4 0 1 0;
#X connect 5 0 7 0;
#X connect 5 0 24 0;
#X connect 5 0 40 0;
#X connect 5 0 53 0;
#X connect 6 0 12 0;
#X connect 8 0 14 0;
#X connect 9 0 12 2;
#X connect 10 0 12 1;
#X connect 11 0 7 1;
#X connect 12 0 13 0;
#X connect 13 0 17 0;
#X connect 14 0 10 0;
#X connect 14 1 16 0;
#X connect 14 2 9 0;
#X connect 14 3 15 0;
#X connect 14 4 11 0;
#X connect 15 0 13 2;
#X connect 16 0 13 1;
#X connect 17 0 7 0;
#X connect 18 0 19 0;
#X connect 18 0 34 0;
#X connect 18 0 50 0;
#X connect 18 0 63 0;
#X connect 19 0 9 1;
#X connect 19 0 10 1;
#X connect 20 0 9 2;
#X connect 20 0 10 2;
#X connect 21 0 11 1;
#X connect 22 0 20 0;
#X connect 22 0 35 0;
#X connect 22 0 51 0;
#X connect 22 0 64 0;
#X connect 23 0 21 0;
#X connect 23 0 36 0;
#X connect 23 0 52 0;
#X connect 23 0 65 0;
#X connect 25 0 31 0;
#X connect 26 0 29 2;
#X connect 27 0 29 1;
#X connect 28 0 24 1;
#X connect 29 0 30 0;
#X connect 30 0 69 0;
#X connect 31 0 27 0;
#X connect 31 1 33 0;
#X connect 31 2 26 0;
#X connect 31 3 32 0;
#X connect 31 4 28 0;
#X connect 32 0 30 2;
#X connect 33 0 30 1;
#X connect 34 0 26 1;
#X connect 34 0 27 1;
#X connect 35 0 26 2;
#X connect 35 0 27 2;
#X connect 36 0 28 1;
#X connect 37 0 29 0;
#X connect 38 0 39 0;
#X connect 39 0 5 0;
#X connect 39 1 70 0;
#X connect 41 0 47 0;
#X connect 42 0 45 2;
#X connect 43 0 45 1;
#X connect 44 0 40 1;
#X connect 45 0 46 0;
#X connect 46 0 71 0;
#X connect 47 0 43 0;
#X connect 47 1 49 0;
#X connect 47 2 42 0;
#X connect 47 3 48 0;
#X connect 47 4 44 0;
#X connect 48 0 46 2;
#X connect 49 0 46 1;
#X connect 50 0 42 1;
#X connect 50 0 43 1;
#X connect 51 0 42 2;
#X connect 51 0 43 2;
#X connect 52 0 44 1;
#X connect 54 0 60 0;
#X connect 55 0 58 2;
#X connect 56 0 58 1;
#X connect 57 0 53 1;
#X connect 58 0 59 0;
#X connect 59 0 72 0;
#X connect 60 0 56 0;
#X connect 60 1 62 0;
#X connect 60 2 55 0;
#X connect 60 3 61 0;
#X connect 60 4 57 0;
#X connect 61 0 59 2;
#X connect 62 0 59 1;
#X connect 63 0 55 1;
#X connect 63 0 56 1;
#X connect 64 0 55 2;
#X connect 64 0 56 2;
#X connect 65 0 57 1;
#X connect 66 0 45 0;
#X connect 67 0 58 0;
#X connect 68 0 74 0;
#X connect 69 0 24 0;
#X connect 70 0 7 0;
#X connect 70 0 24 0;
#X connect 70 0 40 0;
#X connect 70 0 53 0;
#X connect 71 0 40 0;
#X connect 72 0 53 0;
#X connect 73 0 8 0;
#X connect 74 0 73 0;
#X connect 75 0 81 0;
#X connect 76 0 25 0;
#X connect 77 0 82 0;
#X connect 78 0 41 0;
#X connect 79 0 83 0;
#X connect 80 0 54 0;
#X connect 81 0 76 0;
#X connect 82 0 78 0;
#X connect 83 0 80 0;
#X coords 0 -1 1 1 130 80 1 30 10;
