#N canvas 542 162 682 408 10;
#X obj 70 294 *~;
#X obj 182 277 *~;
#X obj 356 238 +~ 1;
#X obj 356 261 /~ 2;
#X obj 183 144 pack 0 0 0 0;
#X floatatom 183 54 5 0 0 0 - - -;
#X floatatom 217 54 5 0 0 0 - - -;
#X floatatom 253 54 5 0 0 0 - - -;
#X obj 252 122 +;
#X obj 253 96 t f f;
#X obj 217 96 t f f;
#X obj 183 190 vline~;
#X obj 124 73 bng 15 250 50 0 empty empty empty 17 7 0 10 -262144 -1
-1;
#X floatatom 356 193 5 0 0 0 - - -;
#X msg 183 167 1 \$1 \, 0.8 \$2 \$1 \, 0 \$3 \$4;
#X obj 356 171 line;
#X msg 434 89 0 10;
#X obj 434 168 del 10;
#X obj 480 168 del \$1;
#X obj 480 89 pack 0 0;
#X msg 480 112 \$1 \$2;
#X obj 356 215 osc~ 1;
#X obj 480 66 f;
#X floatatom 495 27 5 0 0 1 vibrato - -;
#X obj 545 167 del \$1;
#X obj 545 88 pack 0 0;
#X msg 545 111 \$1 \$2;
#X obj 545 65 f;
#X obj 609 89 pack 0 0;
#X msg 609 112 \$1 \$2;
#X obj 183 31 t b b b b, f 18;
#X obj 434 146 bang;
#X obj 480 145 bang;
#X obj 545 145 bang;
#X obj 70 323 *~;
#X obj 70 11 inlet~;
#X obj 70 371 outlet~;
#X obj 124 11 inlet;
#X obj 61 94 hsl 60 15 0 12 0 0 empty empty Hz 65 7 0 10 -1 -262144
-1 0 1;
#X obj 61 130 hsl 60 15 100 10000 0 0 empty empty A 65 7 0 10 -262144
-1 -1 0 1;
#X obj 61 149 hsl 60 15 100 10000 0 0 empty empty D 65 7 0 10 -262144
-1 -1 0 1;
#X obj 61 168 hsl 60 15 100 20000 0 0 empty empty R 65 7 0 10 -262144
-1 -1 0 1;
#X obj 61 187 hsl 60 15 0 1 0 0 empty empty empty 65 7 0 10 -191407
-1 -1 0 1;
#X obj 104 263 pack 0 100;
#X obj 104 307 line;
#X obj 356 284 clip~ 0.2 0.6;
#X floatatom 393 261 5 0 0 0 - - -;
#X floatatom 431 261 5 0 0 0 - - -;
#X obj 61 112 hsl 25 15 0 0.5 0 0 empty empty empty 65 7 0 10 -1 -262144
-1 0 1;
#X obj 96 112 hsl 25 15 0.5 1 0 0 empty empty Cp 30 7 0 10 -1 -262144
-1 0 1;
#X connect 0 0 34 0;
#X connect 1 0 0 1;
#X connect 2 0 3 0;
#X connect 3 0 45 0;
#X connect 4 0 14 0;
#X connect 5 0 4 0;
#X connect 5 0 19 1;
#X connect 5 0 18 1;
#X connect 6 0 10 0;
#X connect 6 0 25 1;
#X connect 6 0 24 1;
#X connect 7 0 9 0;
#X connect 7 0 28 1;
#X connect 8 0 4 3;
#X connect 9 0 4 2;
#X connect 9 1 8 1;
#X connect 10 0 4 1;
#X connect 10 1 8 0;
#X connect 11 0 1 0;
#X connect 12 0 30 0;
#X connect 13 0 21 0;
#X connect 14 0 11 0;
#X connect 15 0 13 0;
#X connect 16 0 15 0;
#X connect 16 0 31 0;
#X connect 17 0 22 0;
#X connect 18 0 27 0;
#X connect 19 0 20 0;
#X connect 20 0 32 0;
#X connect 20 0 15 0;
#X connect 21 0 2 0;
#X connect 22 0 19 0;
#X connect 23 0 22 1;
#X connect 23 0 27 1;
#X connect 24 0 28 0;
#X connect 25 0 26 0;
#X connect 26 0 33 0;
#X connect 26 0 15 0;
#X connect 27 0 25 0;
#X connect 28 0 29 0;
#X connect 29 0 15 0;
#X connect 30 0 5 0;
#X connect 30 1 6 0;
#X connect 30 2 7 0;
#X connect 30 3 16 0;
#X connect 31 0 17 0;
#X connect 32 0 18 0;
#X connect 33 0 24 0;
#X connect 34 0 36 0;
#X connect 35 0 0 0;
#X connect 37 0 12 0;
#X connect 38 0 23 0;
#X connect 39 0 5 0;
#X connect 40 0 6 0;
#X connect 41 0 7 0;
#X connect 42 0 43 0;
#X connect 43 0 44 0;
#X connect 44 0 34 1;
#X connect 45 0 1 1;
#X connect 46 0 45 1;
#X connect 47 0 45 2;
#X connect 48 0 46 0;
#X connect 49 0 47 0;
#X coords 0 -1 1 1 95 155 1 50 55;
