#N canvas 425 264 558 300 10;
#X obj 16 21 inlet;
#X obj 16 162 sel 0 1 2 3 4 5 6 7 8 9 10 11;
#X obj 16 45 % 12;
#X obj 16 129 expr if($f1<0 \, 12+$f1 \, $f1);
#X obj 101 21 cnv 15 80 80 empty empty empty 20 12 0 14 -1 -66577 0
;
#X obj 135 21 bng 12 1000 10 0 empty empty empty 17 7 0 10 -66577 -4034
-1;
#X obj 135 89 bng 12 1000 10 0 empty empty empty 17 7 0 10 -66577 -4034
-1;
#X obj 101 54 bng 12 1000 10 0 empty empty empty 17 7 0 10 -66577 -4034
-1;
#X obj 169 54 bng 12 1000 10 0 empty empty empty 17 7 0 10 -66577 -4034
-1;
#X obj 106 39 bng 12 1000 10 0 empty empty empty 17 7 0 10 -66577 -4034
-1;
#X obj 164 39 bng 12 1000 10 0 empty empty empty 17 7 0 10 -66577 -4034
-1;
#X obj 105 70 bng 12 1000 10 0 empty empty empty 17 7 0 10 -66577 -4034
-1;
#X obj 164 70 bng 12 1000 10 0 empty empty empty 17 7 0 10 -66577 -4034
-1;
#X obj 117 25 bng 12 1000 10 0 empty empty empty 17 7 0 10 -66577 -4034
-1;
#X obj 117 85 bng 12 1000 10 0 empty empty empty 17 7 0 10 -66577 -4034
-1;
#X obj 152 25 bng 12 1000 10 0 empty empty empty 17 7 0 10 -66577 -4034
-1;
#X obj 153 85 bng 12 1000 10 0 empty empty empty 17 7 0 10 -66577 -4034
-1;
#X connect 0 0 2 0;
#X connect 1 0 5 0;
#X connect 1 1 15 0;
#X connect 1 2 10 0;
#X connect 1 3 8 0;
#X connect 1 4 12 0;
#X connect 1 5 12 0;
#X connect 1 6 6 0;
#X connect 1 7 14 0;
#X connect 1 8 11 0;
#X connect 1 9 7 0;
#X connect 1 10 9 0;
#X connect 1 11 13 0;
#X connect 2 0 3 0;
#X connect 3 0 1 0;
#X coords 0 -1 1 1 82 82 2 100 20;
