#N canvas 544 133 789 606 10;
#X obj 289 187 bng 15 250 50 0 empty empty empty 17 7 0 10 -262144
-1 -1;
#X obj 289 207 random 6;
#X obj 289 254 + 1;
#X floatatom 289 277 5 0 0 0 - - -;
#X obj 238 375 spigot, f 9;
#X floatatom 238 397 5 0 0 0 - - -;
#X floatatom 289 325 5 0 0 0 - - -;
#X obj 328 254 i 0;
#X obj 289 230 t f b, f 7;
#X obj 305 162 del 20;
#X floatatom 328 277 5 0 0 0 - - -;
#X obj 289 302 !=;
#X obj 238 352 pipe 20;
#X obj 307 353 sel 0;
#X obj 409 187 bng 15 250 50 0 empty empty empty 17 7 0 10 -262144
-1 -1;
#X obj 409 207 random 6;
#X obj 409 254 + 1;
#X floatatom 409 277 5 0 0 0 - - -;
#X obj 358 375 spigot, f 9;
#X floatatom 358 397 5 0 0 0 - - -;
#X floatatom 409 325 5 0 0 0 - - -;
#X obj 448 254 i 0;
#X obj 409 230 t f b, f 7;
#X obj 425 162 del 20;
#X floatatom 448 277 5 0 0 0 - - -;
#X obj 409 302 !=;
#X obj 358 352 pipe 20;
#X obj 427 353 sel 0;
#X obj 529 187 bng 15 250 50 0 empty empty empty 17 7 0 10 -262144
-1 -1;
#X obj 529 207 random 6;
#X obj 529 254 + 1;
#X floatatom 529 277 5 0 0 0 - - -;
#X obj 478 375 spigot, f 9;
#X floatatom 478 397 5 0 0 0 - - -;
#X floatatom 529 325 5 0 0 0 - - -;
#X obj 568 254 i 0;
#X obj 529 230 t f b, f 7;
#X obj 545 162 del 20;
#X floatatom 568 277 5 0 0 0 - - -;
#X obj 529 302 !=;
#X obj 478 352 pipe 20;
#X obj 547 353 sel 0;
#X obj 158 65 tgl 15 0 empty empty run 17 7 0 10 -262144 -1 -1 0 1
;
#X obj 241 69 f;
#X obj 278 69 + 1;
#X floatatom 241 92 5 0 0 0 - - -;
#X obj 278 92 % 8;
#X floatatom 158 45 2 0 0 1 get - -;
#X obj 268 135 t b b b, f 44;
#X obj 358 442 +;
#X obj 238 458 +;
#X floatatom 238 526 5 0 0 0 - - -;
#X obj 314 76 + 1;
#X obj 358 419 pipe 500;
#X obj 478 426 pipe 400;
#X obj 238 419 pipe 600;
#N canvas 0 50 450 250 (subpatch) 0;
#X array \$0-1/f 16 float 3;
#A 0 0.333333 0.5 0.333333 0.666667 0.5 0.333333 0.166667 1 0.833333
0.666667 1 0.833333 0.666667 0.166667 0.666667 0.333333;
#X coords 0 1 16 0 50 35 1 0 0;
#X restore 103 45 graph;
#X obj 384 60 i;
#X obj 103 107 bng 15 250 50 0 empty empty empty 17 7 0 10 -262144
-191407 -1;
#X obj 103 181 f;
#X obj 140 181 + 1;
#X obj 140 204 % 8;
#X obj 16 91 inlet;
#X obj 128 107 nbx 5 14 -1e+37 1e+37 0 0 empty empty empty 0 -8 0 10
-191407 -262144 -1 0.666667 256;
#X obj 127 283 outlet;
#X msg 476 58 seed \$1;
#X obj 103 85 nbx 5 14 -1e+37 1e+37 0 0 empty empty seed 60 7 0 10
-262144 -1 -1 1234 256;
#X obj 241 36 metro 1000;
#X obj 238 481 / 18;
#X floatatom 103 204 5 0 0 0 - - -;
#X obj 241 114 sel 0;
#X obj 338 108 array size \$0-1/f;
#X obj 103 230 array get \$0-1/f;
#X obj 238 547 array set \$0-1/f;
#X obj 238 504 clip 0 1;
#X connect 0 0 1 0;
#X connect 1 0 8 0;
#X connect 2 0 3 0;
#X connect 3 0 11 0;
#X connect 3 0 12 0;
#X connect 4 0 5 0;
#X connect 5 0 7 1;
#X connect 5 0 55 0;
#X connect 6 0 4 1;
#X connect 6 0 13 0;
#X connect 7 0 10 0;
#X connect 8 0 2 0;
#X connect 8 1 7 0;
#X connect 9 0 0 0;
#X connect 10 0 11 1;
#X connect 11 0 6 0;
#X connect 12 0 4 0;
#X connect 13 0 9 0;
#X connect 14 0 15 0;
#X connect 15 0 22 0;
#X connect 16 0 17 0;
#X connect 17 0 25 0;
#X connect 17 0 26 0;
#X connect 18 0 19 0;
#X connect 19 0 21 1;
#X connect 19 0 53 0;
#X connect 20 0 18 1;
#X connect 20 0 27 0;
#X connect 21 0 24 0;
#X connect 22 0 16 0;
#X connect 22 1 21 0;
#X connect 23 0 14 0;
#X connect 24 0 25 1;
#X connect 25 0 20 0;
#X connect 26 0 18 0;
#X connect 27 0 23 0;
#X connect 28 0 29 0;
#X connect 29 0 36 0;
#X connect 30 0 31 0;
#X connect 31 0 39 0;
#X connect 31 0 40 0;
#X connect 32 0 33 0;
#X connect 33 0 35 1;
#X connect 33 0 54 0;
#X connect 34 0 32 1;
#X connect 34 0 41 0;
#X connect 35 0 38 0;
#X connect 36 0 30 0;
#X connect 36 1 35 0;
#X connect 37 0 28 0;
#X connect 38 0 39 1;
#X connect 39 0 34 0;
#X connect 40 0 32 0;
#X connect 41 0 37 0;
#X connect 42 0 67 0;
#X connect 43 0 44 0;
#X connect 43 0 45 0;
#X connect 44 0 46 0;
#X connect 45 0 70 0;
#X connect 45 0 73 1;
#X connect 46 0 43 1;
#X connect 47 0 57 0;
#X connect 48 0 0 0;
#X connect 48 1 14 0;
#X connect 48 2 28 0;
#X connect 49 0 50 1;
#X connect 50 0 68 0;
#X connect 51 0 73 0;
#X connect 52 0 46 1;
#X connect 53 0 49 0;
#X connect 54 0 49 1;
#X connect 55 0 50 0;
#X connect 57 0 52 0;
#X connect 57 0 61 1;
#X connect 57 0 71 0;
#X connect 58 0 59 0;
#X connect 59 0 60 0;
#X connect 59 0 69 0;
#X connect 60 0 61 0;
#X connect 61 0 59 1;
#X connect 62 0 58 0;
#X connect 63 0 64 0;
#X connect 65 0 1 0;
#X connect 65 0 15 0;
#X connect 65 0 29 0;
#X connect 66 0 65 0;
#X connect 67 0 43 0;
#X connect 68 0 74 0;
#X connect 69 0 72 0;
#X connect 70 0 42 0;
#X connect 70 1 48 0;
#X connect 72 0 63 0;
#X connect 74 0 51 0;
#X coords 0 -1 1 1 100 125 1 95 5;
