#N canvas 637 247 668 424 10;
#X obj 53 248 vcf~, f 22;
#X obj 117 195 /~ 2;
#X obj 54 13 inlet~;
#X obj 53 303 outlet~;
#X obj 117 102 f \$1;
#X obj 182 102 f \$2;
#X obj 117 63 loadbang;
#X obj 117 148 osc~;
#X obj 117 217 *~ 500;
#X obj 117 171 +~ 3;
#X connect 0 0 3 0;
#X connect 1 0 8 0;
#X connect 2 0 0 0;
#X connect 4 0 7 0;
#X connect 5 0 0 2;
#X connect 6 0 4 0;
#X connect 6 0 5 0;
#X connect 7 0 9 0;
#X connect 8 0 0 1;
#X connect 9 0 1 0;
