#N canvas 270 136 1005 626 10;
#X obj 151 255 phasor~;
#X obj 212 256 phasor~;
#X obj 151 278 expr~ ($v1 * 2) -1, f 7;
#X obj 212 279 expr~ if($v1 < 0.5 \, -1 \, 1), f 7;
#X obj 273 256 phasor~;
#X obj 274 279 expr~ (( if($v1 < 0.5 \, $v1 \, 1 - $v1)) - 0.25) *
4, f 7;
#X obj 91 256 phasor~;
#X obj 91 279 cos~;
#X obj 91 206 pack 0 0;
#X obj 91 229 route 0 1 2 3, f 41;
#X obj 91 183 i 0, f 5;
#X obj 91 160 t b f, f 8;
#X obj 90 394 *~;
#X obj 105 371 expr if($f1==0 \, 1 \, 0);
#X obj 150 419 *~;
#X obj 165 396 expr if($f1==1 \, 1 \, 0);
#X obj 211 445 *~;
#X obj 226 422 expr if($f1==2 \, 1 \, 0);
#X obj 275 472 *~;
#X obj 290 449 expr if($f1==3 \, 1 \, 0);
#X obj 166 167 clip 0 3;
#X obj 92 580 outlet~;
#X obj 91 23 inlet;
#X obj 187 23 inlet;
#X obj 91 91 t f b, f 13;
#X obj 91 528 *~, f 25;
#X obj 257 23 inlet;
#X obj 236 166 clip 0 2;
#X obj 331 23 inlet;
#X obj 331 50 clip 0 10;
#X obj 91 66 * \$4;
#X obj 166 139 f \$2;
#X obj 236 107 f \$3;
#X connect 0 0 2 0;
#X connect 1 0 3 0;
#X connect 2 0 14 0;
#X connect 3 0 16 0;
#X connect 4 0 5 0;
#X connect 5 0 18 0;
#X connect 6 0 7 0;
#X connect 7 0 12 0;
#X connect 8 0 9 0;
#X connect 9 0 6 0;
#X connect 9 1 0 0;
#X connect 9 2 1 0;
#X connect 9 3 4 0;
#X connect 10 0 8 0;
#X connect 11 0 10 0;
#X connect 11 1 8 1;
#X connect 12 0 25 0;
#X connect 13 0 12 1;
#X connect 14 0 25 0;
#X connect 15 0 14 1;
#X connect 16 0 25 0;
#X connect 17 0 16 1;
#X connect 18 0 25 0;
#X connect 19 0 18 1;
#X connect 20 0 13 0;
#X connect 20 0 15 0;
#X connect 20 0 17 0;
#X connect 20 0 19 0;
#X connect 20 0 10 1;
#X connect 22 0 30 0;
#X connect 23 0 31 1;
#X connect 24 0 11 0;
#X connect 24 1 31 0;
#X connect 24 1 32 0;
#X connect 25 0 21 0;
#X connect 26 0 32 1;
#X connect 27 0 25 1;
#X connect 28 0 29 0;
#X connect 29 0 30 1;
#X connect 30 0 24 0;
#X connect 31 0 20 0;
#X connect 32 0 27 0;
