#N canvas 620 198 672 523 10;
#X obj 51 295 *~ 0.2;
#X obj 51 25 noise~;
#X obj 238 28 hsl 60 15 0 127 0 0 empty empty rate 65 8 0 10 -262144
-1 -1 2000 1;
#X obj 79 91 mtof~;
#X obj 78 225 +~;
#X obj 147 123 osc~;
#X floatatom 147 101 5 0 0 0 - - -;
#X obj 51 270 vcf~ 220 1;
#X obj 147 179 *~;
#X floatatom 162 158 5 0 0 0 - - -;
#X floatatom 108 248 5 0 0 0 - - -;
#X floatatom 79 70 5 0 0 0 - - -;
#X obj 238 48 hsl 60 15 0.05 2 0 0 empty empty lfo 65 8 0 10 -262144
-1 -1 600 1;
#X obj 238 68 hsl 60 15 0 5000 0 0 empty empty D 65 8 0 10 -262144
-1 -1 300 1;
#X obj 238 89 hsl 60 15 1 10 0 0 empty empty Q 65 8 0 10 -262144 -1
-1 4600 1;
#X obj 239 111 hsl 60 15 0 1 0 0 empty empty vol 65 8 0 10 -262144
-1 -1 2500 1;
#X obj 51 430 outlet~;
#X obj 308 427 outlet;
#X obj 308 393 env~ 100000;
#X connect 0 0 16 0;
#X connect 0 0 18 0;
#X connect 1 0 7 0;
#X connect 2 0 11 0;
#X connect 3 0 4 0;
#X connect 4 0 7 1;
#X connect 5 0 8 0;
#X connect 6 0 5 0;
#X connect 7 0 0 0;
#X connect 8 0 4 1;
#X connect 9 0 8 1;
#X connect 10 0 7 2;
#X connect 11 0 3 0;
#X connect 12 0 6 0;
#X connect 13 0 9 0;
#X connect 14 0 10 0;
#X connect 15 0 0 1;
#X connect 18 0 17 0;
#X coords 0 -1 1 1 100 130 1 230 5;
