#N canvas 342 116 860 614 10;
#X obj 107 134 osc~;
#X obj 50 135 osc~;
#X obj 164 183 phasor~;
#X obj 164 206 *~ 2;
#X obj 164 229 -~ 1;
#X obj 107 157 expr~ if($v1>0.5 \, 1 \, -1);
#X obj 221 183 phasor~;
#X obj 221 206 expr~ if($v1>0.5 \, 1-$v1 \, $v1);
#X obj 221 229 *~ 4;
#X obj 221 252 -~ 1;
#X obj 51 303 *~;
#X obj 106 303 *~;
#X obj 163 303 *~;
#X obj 220 303 *~;
#X obj 51 344 *~ 0.25;
#X obj 50 484 outlet~;
#X obj 50 77 mtof;
#X obj 50 108 t f f f f, f 29;
#X obj 50 14 inlet;
#X obj 50 55 clip 0 127;
#X obj 149 79 clip 0 1;
#X obj 209 79 clip 0 1;
#X obj 269 79 clip 0 1;
#X obj 329 79 clip 0 1;
#X obj 51 372 hip~;
#X obj 51 395 hip~;
#X obj 51 418 lop~;
#X obj 51 441 lop~;
#X obj 149 14 loadbang;
#X obj 149 56 f \$2;
#X obj 209 56 f \$3;
#X obj 269 56 f \$4;
#X obj 329 56 f \$5;
#X obj 275 303 f \$6;
#X obj 335 303 f \$7;
#X connect 0 0 5 0;
#X connect 1 0 10 0;
#X connect 2 0 3 0;
#X connect 3 0 4 0;
#X connect 4 0 12 0;
#X connect 5 0 11 0;
#X connect 6 0 7 0;
#X connect 7 0 8 0;
#X connect 8 0 9 0;
#X connect 9 0 13 0;
#X connect 10 0 14 0;
#X connect 11 0 14 0;
#X connect 12 0 14 0;
#X connect 13 0 14 0;
#X connect 14 0 24 0;
#X connect 16 0 17 0;
#X connect 17 0 1 0;
#X connect 17 1 0 0;
#X connect 17 2 2 0;
#X connect 17 3 6 0;
#X connect 18 0 19 0;
#X connect 19 0 16 0;
#X connect 20 0 10 1;
#X connect 21 0 11 1;
#X connect 22 0 12 1;
#X connect 23 0 13 1;
#X connect 24 0 25 0;
#X connect 25 0 26 0;
#X connect 26 0 27 0;
#X connect 27 0 15 0;
#X connect 28 0 29 0;
#X connect 28 0 30 0;
#X connect 28 0 31 0;
#X connect 28 0 32 0;
#X connect 28 0 33 0;
#X connect 28 0 34 0;
#X connect 29 0 20 0;
#X connect 30 0 21 0;
#X connect 31 0 22 0;
#X connect 32 0 23 0;
#X connect 33 0 24 1;
#X connect 33 0 25 1;
#X connect 34 0 26 1;
#X connect 34 0 27 1;
