#N canvas 135 284 450 365 10;
#X obj 53 248 vcf~, f 22;
#X floatatom 182 128 5 0 0 0 - - -;
#X obj 117 217 *~ 500;
#X obj 117 148 osc~ 4;
#X floatatom 117 126 5 0 0 0 - - -;
#X obj 117 195 /~ 2;
#X obj 117 171 +~ 3;
#X obj 54 13 inlet~;
#X obj 53 303 outlet~;
#X obj 120 66 hsl 50 15 0.08 8 1 0 empty empty freq 55 8 0 10 -262144
-1 -1 0 1;
#X obj 120 85 hsl 50 15 0.1 10 1 0 empty empty width 55 8 0 10 -262144
-1 -1 0 1;
#X connect 0 0 8 0;
#X connect 1 0 0 2;
#X connect 2 0 0 1;
#X connect 3 0 6 0;
#X connect 4 0 3 0;
#X connect 5 0 2 0;
#X connect 6 0 5 0;
#X connect 7 0 0 0;
#X connect 9 0 4 0;
#X connect 10 0 1 0;
#X coords 0 -1 1 1 100 70 1 110 40;
