#N canvas 566 130 721 626 10;
#X obj 41 30 inlet~;
#X obj 41 268 *~;
#N canvas 6 116 450 250 (subpatch) 0;
#X array \$0-out 441 float 2;
#X coords 0 1 441 -1 80 20 1 0 0;
#X restore 210 46 graph;
#X obj 213 85 hsl 95 15 0 100 0 0 empty empty empty -2 -8 0 10 -1 -262144
-1 0 1;
#X obj 210 170 dbtorms;
#X obj 210 193 t f f;
#X obj 237 217 sel 0;
#X obj 294 46 tgl 15 0 empty empty empty 17 7 0 10 -1 -262144 -1 0
1;
#X msg 383 82 \; pd dsp \$1;
#X obj 383 59 > 0;
#X obj 294 66 tgl 15 0 empty empty empty 17 7 0 10 -262144 -1 -1 0
1;
#X obj 294 283 metro 100;
#X obj 294 306 tabwrite~ \$0-out;
#X obj 131 30 inlet~;
#X obj 131 307 *~;
#X obj 42 347 dac~;
#X obj 131 409 outlet~ R;
#X obj 18 410 outlet~ L;
#X obj 210 119 pack \$1 50;
#X obj 210 142 line;
#X obj 41 291 clip~ -1 1;
#X obj 131 330 clip~ -1 1;
#X obj 41 245 expr~ tanh($v1);
#X obj 131 276 expr~ tanh($v1);
#X obj 41 213 *~;
#X floatatom 416 136 5 0 100 0 - - -;
#X obj 324 173 pack \$1 50;
#X obj 324 196 line;
#X obj 78 178 expr 1-$f1;
#X obj 132 213 *~;
#X obj 370 219 pack \$1 50;
#X obj 370 242 line;
#X obj 13 213 *~;
#X obj 160 213 *~;
#X obj 28 151 expr 1-$f1;
#X obj 324 151 / 200;
#X obj 370 197 / 200;
#X obj 41 60 hip~ 5;
#X obj 131 60 hip~ 5;
#X obj 213 71 hsl 33 10 0 100 0 0 empty empty empty -2 -8 0 10 -228856
-1 -1 800 1;
#X obj 255 71 hsl 33 10 0 100 0 0 empty empty empty -2 -8 0 10 -228856
-1 -1 2400 1;
#X obj 416 160 expr 100-$f1;
#X connect 0 0 37 0;
#X connect 1 0 20 0;
#X connect 3 0 18 0;
#X connect 4 0 5 0;
#X connect 5 0 1 1;
#X connect 5 0 14 1;
#X connect 5 1 6 0;
#X connect 6 0 7 0;
#X connect 6 1 7 0;
#X connect 7 0 9 0;
#X connect 9 0 8 0;
#X connect 10 0 11 0;
#X connect 11 0 12 0;
#X connect 13 0 38 0;
#X connect 14 0 21 0;
#X connect 18 0 19 0;
#X connect 19 0 4 0;
#X connect 20 0 15 0;
#X connect 20 0 17 0;
#X connect 20 0 12 0;
#X connect 21 0 15 1;
#X connect 21 0 16 0;
#X connect 21 0 12 0;
#X connect 22 0 1 0;
#X connect 23 0 14 0;
#X connect 24 0 22 0;
#X connect 25 0 35 0;
#X connect 25 0 36 0;
#X connect 25 0 41 0;
#X connect 26 0 27 0;
#X connect 27 0 24 1;
#X connect 27 0 28 0;
#X connect 28 0 29 1;
#X connect 29 0 23 0;
#X connect 30 0 31 0;
#X connect 31 0 34 0;
#X connect 31 0 33 1;
#X connect 32 0 22 0;
#X connect 33 0 23 0;
#X connect 34 0 32 1;
#X connect 35 0 26 0;
#X connect 36 0 30 0;
#X connect 37 0 29 0;
#X connect 37 0 24 0;
#X connect 38 0 33 0;
#X connect 38 0 32 0;
#X connect 39 0 25 0;
#X connect 41 0 40 0;
#X coords 0 -1 1 1 120 100 1 200 10;
