#N canvas 135 251 909 493 10;
#X obj 69 21 inlet~;
#X obj 69 324 *~;
#X obj 359 21 inlet~;
#X obj 359 324 *~;
#X obj 375 241 osc~;
#X obj 375 264 +~ 1;
#X obj 375 287 /~ 2;
#X obj 85 241 osc~;
#X obj 85 264 +~ 1;
#X obj 85 287 /~ 2;
#X msg 396 219 0.5;
#X msg 106 219 0;
#X obj 25 361 *~ 1;
#X obj 112 361 *~ 1;
#X obj 152 90 bng 15 250 50 0 empty empty pan 17 7 0 10 -262144 -191407
-1;
#X obj 152 178 random 100;
#X obj 152 201 / 100;
#X floatatom 152 224 5 0 0 0 - - -;
#X obj 152 292 expr $f1 \; 1-$f1;
#X obj 312 361 *~ 1;
#X obj 399 361 *~ 1;
#X obj 152 246 pack \$1 4000;
#X obj 152 269 line;
#X obj 272 178 random 100;
#X obj 272 201 / 100;
#X floatatom 272 224 5 0 0 0 - - -;
#X obj 272 292 expr $f1 \; 1-$f1;
#X obj 272 246 pack \$1 4000;
#X obj 272 269 line;
#X obj 24 458 outlet~;
#X obj 400 458 outlet~;
#X obj 197 90 hsl 50 15 0 127 0 0 empty empty delay 55 7 0 10 -262144
-1 -1 0 1;
#X obj 152 21 inlet;
#X floatatom 85 145 5 0 0 0 - - -;
#X obj 85 122 / 127;
#X obj 402 159 loadbang;
#X obj 85 168 t f f, f 6;
#X obj 24 403 *~ 0.5;
#X obj 400 403 *~ 0.5;
#X connect 0 0 1 0;
#X connect 1 0 12 0;
#X connect 1 0 13 0;
#X connect 2 0 3 0;
#X connect 3 0 19 0;
#X connect 3 0 20 0;
#X connect 4 0 5 0;
#X connect 5 0 6 0;
#X connect 6 0 3 1;
#X connect 7 0 8 0;
#X connect 8 0 9 0;
#X connect 9 0 1 1;
#X connect 10 0 4 1;
#X connect 11 0 7 1;
#X connect 12 0 37 0;
#X connect 13 0 38 0;
#X connect 14 0 15 0;
#X connect 14 0 23 0;
#X connect 15 0 16 0;
#X connect 16 0 17 0;
#X connect 17 0 21 0;
#X connect 18 0 12 1;
#X connect 18 1 13 1;
#X connect 19 0 37 0;
#X connect 20 0 38 0;
#X connect 21 0 22 0;
#X connect 22 0 18 0;
#X connect 23 0 24 0;
#X connect 24 0 25 0;
#X connect 25 0 27 0;
#X connect 26 0 19 1;
#X connect 26 1 20 1;
#X connect 27 0 28 0;
#X connect 28 0 26 0;
#X connect 31 0 34 0;
#X connect 32 0 14 0;
#X connect 33 0 36 0;
#X connect 34 0 33 0;
#X connect 35 0 10 0;
#X connect 35 0 11 0;
#X connect 36 0 7 0;
#X connect 36 1 4 0;
#X connect 37 0 29 0;
#X connect 38 0 30 0;
#X coords 0 -1 1 1 145 50 1 145 65;
