#N canvas 661 231 680 503 10;
#X obj 140 191 *~;
#X obj 190 176 osc~;
#X obj 140 168 osc~;
#X obj 139 256 sel 1;
#X obj 199 248 noise~;
#X obj 199 271 lop~;
#X obj 199 294 snapshot~;
#X obj 199 339 * 100;
#X obj 199 362 i;
#X obj 199 384 + 0;
#X obj 78 455 outlet;
#X obj 139 455 outlet;
#X obj 139 278 bang;
#X obj 277 368 f \$1;
#X obj 277 76 loadbang;
#X obj 199 407 clip 0 127;
#X obj 140 92 f \$2;
#X obj 190 92 f \$3;
#X obj 297 255 f \$4;
#X obj 140 37 inlet;
#X obj 190 37 inlet;
#X obj 297 37 inlet;
#X obj 140 145 * 0.1;
#X obj 139 213 env~ 16384 8192;
#X obj 139 235 > 95;
#X obj 190 153 * 0.1;
#X obj 199 317 abs;
#X connect 0 0 23 0;
#X connect 1 0 0 1;
#X connect 2 0 0 0;
#X connect 3 0 12 0;
#X connect 4 0 5 0;
#X connect 5 0 6 0;
#X connect 6 0 26 0;
#X connect 7 0 8 0;
#X connect 8 0 9 0;
#X connect 9 0 15 0;
#X connect 12 0 11 0;
#X connect 12 0 6 0;
#X connect 13 0 9 1;
#X connect 14 0 13 0;
#X connect 14 0 16 0;
#X connect 14 0 17 0;
#X connect 14 0 18 0;
#X connect 15 0 10 0;
#X connect 16 0 22 0;
#X connect 17 0 25 0;
#X connect 18 0 5 1;
#X connect 19 0 16 0;
#X connect 20 0 17 0;
#X connect 21 0 18 0;
#X connect 22 0 2 0;
#X connect 23 0 24 0;
#X connect 24 0 3 0;
#X connect 25 0 1 0;
#X connect 26 0 7 0;
