#N canvas 470 200 890 503 10;
#X obj 294 190 f 0;
#X obj 163 275 f 0;
#X obj 163 298 t f b;
#X obj 163 321 list append;
#X obj 162 350 list store;
#X obj 163 174 t b b;
#X obj 321 190 - 1;
#X obj 294 213 t f f;
#X obj 333 213 sel 0;
#X obj 309 165 f 0, f 5;
#X obj 163 229 f 0;
#X obj 189 229 + 1;
#X obj 215 229 % 2;
#X obj 333 236 f 0;
#X obj 360 236 - 1;
#X obj 309 141 t b f f;
#X obj 333 258 t f f;
#X obj 372 258 sel 0;
#X obj 163 252 bang;
#X obj 163 108 tgl 15 0 empty empty empty 17 7 0 10 -262144 -1 -1 0
1;
#X obj 163 150 metro 50;
#X obj 372 334 bang;
#X obj 55 46 inlet;
#X obj 55 310 random;
#X msg 55 333 get \$1 1;
#X obj 190 199 f 0;
#X obj 216 199 + 1;
#X obj 162 461 outlet;
#X obj 162 411 spigot;
#X obj 309 117 t f b b b, f 24;
#X msg 450 183 0;
#X msg 372 395 1;
#X obj 282 92 t b f;
#X obj 282 69 f \$1;
#X obj 282 46 loadbang;
#X obj 108 46 inlet;
#X msg 108 69 seed \$1;
#X connect 0 0 6 0;
#X connect 0 0 7 0;
#X connect 1 0 2 0;
#X connect 2 0 3 0;
#X connect 2 1 4 0;
#X connect 3 0 4 1;
#X connect 4 0 3 1;
#X connect 4 0 28 0;
#X connect 5 0 10 0;
#X connect 5 1 0 0;
#X connect 5 1 25 0;
#X connect 6 0 0 1;
#X connect 7 0 12 1;
#X connect 7 0 1 1;
#X connect 7 1 8 0;
#X connect 8 0 9 0;
#X connect 8 0 13 0;
#X connect 9 0 0 1;
#X connect 10 0 11 0;
#X connect 10 0 18 0;
#X connect 11 0 12 0;
#X connect 12 0 10 1;
#X connect 13 0 14 0;
#X connect 13 0 16 0;
#X connect 14 0 13 1;
#X connect 15 0 9 0;
#X connect 15 1 9 1;
#X connect 15 2 13 1;
#X connect 16 0 0 0;
#X connect 16 1 17 0;
#X connect 17 0 21 0;
#X connect 18 0 1 0;
#X connect 19 0 20 0;
#X connect 20 0 5 0;
#X connect 21 0 19 0;
#X connect 21 0 4 0;
#X connect 21 0 31 0;
#X connect 22 0 23 0;
#X connect 23 0 24 0;
#X connect 24 0 4 0;
#X connect 25 0 26 0;
#X connect 25 0 23 1;
#X connect 26 0 25 1;
#X connect 28 0 27 0;
#X connect 29 0 15 0;
#X connect 29 1 4 0;
#X connect 29 2 4 1;
#X connect 29 3 30 0;
#X connect 30 0 25 1;
#X connect 30 0 28 1;
#X connect 30 0 1 1;
#X connect 31 0 28 1;
#X connect 32 0 19 0;
#X connect 32 1 29 0;
#X connect 33 0 32 0;
#X connect 34 0 33 0;
#X connect 35 0 36 0;
#X connect 36 0 23 0;
